<?xml version="1.0" encoding="UTF-8"?>
<svg xmlns="http://www.w3.org/2000/svg" xmlns:xlink="http://www.w3.org/1999/xlink" version="1.1" height="263" width="188" viewBox="-1.3 -236.8 188 263" preserveAspectRatio="xMidYMid meet" zoomAndPan="magnify" contentScriptType="application/ecmascript" contentStyleType="text/css"><defs><g id="n_4"><text transform="scale(0.56453 1.05741)" font-family="Bitstream Vera Serif" font-weight="bold" font-size="43">4</text></g><g id="diamond"><path style="fill:#e6180a" d="M0,0C-2.56,0-5.12,0-7.68,0C -6.8053,0.039-6.061,0.605-5.358,1.0728C-3.779,2.264-2.3,3.63 -1.132,5.228C-0.587,6.032 -0.0144,6.936 0,7.94M-7.68,0C-6.57,-0.035 -5.622,-0.7413 -4.776,-1.393C-3.281,-2.648 -1.987,-4.141 -0.895,-5.757C-0.494,-6.426 -0.022,-7.135 0,-7.94C0,-5.293 0,-2.647 0,0M0,-7.94C0.038,-6.758 0.758,-5.734 1.438,-4.82C2.65,-3.310 4.086,-1.974 5.666,-0.857C6.28,-0.474 6.932,-0.0185 7.68,0C5.12,0 2.56,0 0,0M 7.68,0C6.57,0.035 5.622,0.741 4.776,1.392C 3.281,2.648 1.987,4.141 0.895,5.757C0.494,6.426 0.0225,7.135 0,7.94C0,5.293 0,2.647 0,0"/></g><g id="base"><path style="fill:#FFFFFF;stroke:#000000;stroke-width:2.5" d="M 0,0C0,3.78 3.09,6.87 6.87,6.87L159.715,6.87C163.485,6.87 166.575,3.78 166.575,0L166.575,-228.4C166.575,-232.18 163.485,-235.27 159.715,-235.27L6.87,-235.27C3.09,-235.27 0,-232.18 0,-228.4L0,0 z"/></g></defs><g id="4_diamond" transform="translate(-502.725,-243.137)"><use xlink:href="#base" x="502.725" y="243.137" xlink:type="simple" xlink:show="embed" xlink:actuate="onLoad"></use><use xlink:href="#n_4" x="506.725" y="44.02" style="fill:#e6180a" xlink:type="simple" xlink:show="embed" xlink:actuate="onLoad"></use><use xlink:href="#n_4" x="666.3" y="212.857" transform="rotate(180,666.3,212.857)" style="fill:#e6180a" xlink:type="simple" xlink:show="embed" xlink:actuate="onLoad"></use><use xlink:href="#diamond" x="516.375" y="58.02" transform="rotate(180,516.375,58.02)" xlink:type="simple" xlink:show="embed" xlink:actuate="onLoad"></use><use xlink:href="#diamond" x="656.65" y="198.857" xlink:type="simple" xlink:show="embed" xlink:actuate="onLoad"></use><use xlink:href="#diamond" x="227.743" y="18.5948" transform="scale(2.4) rotate(180,227.743,18.5948)" xlink:type="simple" xlink:show="embed" xlink:actuate="onLoad"></use><use xlink:href="#diamond" x="227.743" y="86.7083" transform="scale(2.4)" xlink:type="simple" xlink:show="embed" xlink:actuate="onLoad"></use><use xlink:href="#diamond" x="261.017" y="18.5948" transform="scale(2.4) rotate(180,261.017,18.5948)" xlink:type="simple" xlink:show="embed" xlink:actuate="onLoad"></use><use xlink:href="#diamond" x="261.017" y="86.7083" transform="scale(2.4)" xlink:type="simple" xlink:show="embed" xlink:actuate="onLoad"></use></g></svg>