<?xml version="1.0" encoding="UTF-8"?>
<svg xmlns="http://www.w3.org/2000/svg" xmlns:xlink="http://www.w3.org/1999/xlink" version="1.1" height="263" width="188" viewBox="-1.3 -236.8 188 263" preserveAspectRatio="xMidYMid meet" zoomAndPan="magnify" contentScriptType="application/ecmascript" contentStyleType="text/css"><defs><g id="n_7"><text transform="scale(0.56453 1.05741)" font-family="Bitstream Vera Serif" font-weight="bold" font-size="43">7</text></g><g id="club"><path d="M3.35,4.66c0-1.81-1.51-3.28-3.38-3.28s-3.38,1.47-3.38,3.28c0,1.81,1.51,3.28,3.38,3.28S3.35,6.47,3.35,4.66z"/><path d="M7.71-1.55c0-1.81-1.51-3.28-3.38-3.28S0.95-3.36,0.95-1.55c0,1.81,1.51,3.28,3.38,3.28S7.71,0.26,7.71-1.55z"/><path d="M-0.95-1.57c0-0.66-0.2-1.28-0.55-1.8c-0.6-0.89-1.65-1.48-2.83-1.48c-1.87,0-3.38,1.47-3.38,3.28  c0,1.81,1.51,3.28,3.38,3.28S-0.95,0.24-0.95-1.57z"/><path d="M3.94-7.94c-1.67,0-2.55,1.36-3.01,2.72C0.47-3.86,0.43-2.5,0.43-2.5h-0.86c0,0-0.16-5.43-3.5-5.44H3.94z"/><path d="M-2.32,2.25c1.9-1.9,1.9-4.75,1.9-4.75l0.85-0.01c0,0,0,2.91,1.85,4.76"/><path d="M-1.94-3.85c1.9,1.9,4.75,1.9,4.75,1.9v0.85c0,0-2.91,0-4.76,1.85"/><path d="M1.87-3.86c-1.9,1.9-4.75,1.9-4.75,1.9v0.85c0,0,2.91,0,4.76,1.85"/></g><g id="base"><path style="fill:#FFFFFF;stroke:#000000;stroke-width:2.5" d="M 0,0C0,3.78 3.09,6.87 6.87,6.87L159.715,6.87C163.485,6.87 166.575,3.78 166.575,0L166.575,-228.4C166.575,-232.18 163.485,-235.27 159.715,-235.27L6.87,-235.27C3.09,-235.27 0,-232.18 0,-228.4L0,0 z"/></g></defs><g id="7_club" transform="translate(-1005.45,-0.0)"><use xlink:href="#base" x="1005.45" y="0" xlink:type="simple" xlink:show="embed" xlink:actuate="onLoad"></use><use xlink:href="#n_7" x="1009.45" y="-199.117" xlink:type="simple" xlink:show="embed" xlink:actuate="onLoad"></use><use xlink:href="#n_7" x="1169.02" y="-30.28" transform="rotate(180,1169.02,-30.28)" xlink:type="simple" xlink:show="embed" xlink:actuate="onLoad"></use><use xlink:href="#club" x="1019.1" y="-185.117" transform="rotate(180,1019.1,-185.117)" xlink:type="simple" xlink:show="embed" xlink:actuate="onLoad"></use><use xlink:href="#club" x="1159.37" y="-44.28" xlink:type="simple" xlink:show="embed" xlink:actuate="onLoad"></use><use xlink:href="#club" x="437.212" y="-82.7125" transform="scale(2.4) rotate(180,437.212,-82.7125)" xlink:type="simple" xlink:show="embed" xlink:actuate="onLoad"></use><use xlink:href="#club" x="437.212" y="-50.6536" transform="scale(2.4) rotate(180,437.212,-50.6536)" xlink:type="simple" xlink:show="embed" xlink:actuate="onLoad"></use><use xlink:href="#club" x="437.212" y="-14.599" transform="scale(2.4)" xlink:type="simple" xlink:show="embed" xlink:actuate="onLoad"></use><use xlink:href="#club" x="470.486" y="-82.7125" transform="scale(2.4) rotate(180,470.486,-82.7125)" xlink:type="simple" xlink:show="embed" xlink:actuate="onLoad"></use><use xlink:href="#club" x="470.486" y="-50.6536" transform="scale(2.4) rotate(180,470.486,-50.6536)" xlink:type="simple" xlink:show="embed" xlink:actuate="onLoad"></use><use xlink:href="#club" x="470.486" y="-14.599" transform="scale(2.4)" xlink:type="simple" xlink:show="embed" xlink:actuate="onLoad"></use><use xlink:href="#club" x="453.849" y="-60.1474" transform="scale(2.4) rotate(180,453.849,-60.1474)" xlink:type="simple" xlink:show="embed" xlink:actuate="onLoad"></use></g></svg>