<?xml version="1.0" encoding="UTF-8"?>
<svg xmlns="http://www.w3.org/2000/svg" xmlns:xlink="http://www.w3.org/1999/xlink" version="1.1" height="263" width="188" viewBox="-1.3 -236.8 188 263" preserveAspectRatio="xMidYMid meet" zoomAndPan="magnify" contentScriptType="application/ecmascript" contentStyleType="text/css"><defs><g id="heart"><path style="fill:#E6180A;" d="M-7.67,3.93c0.01-4.71,5.91-8.14,7.64-11.87c1.75,3.72,7.66,7.12,7.7,11.83c0.01,2.22-1.71,4.03-3.82,4.03C1.73,7.92,0,6.13,0,3.91c0,2.23-1.71,4.03-3.82,4.03C-5.94,7.95-7.66,6.15-7.67,3.93z"/></g><g id="n_9"><text transform="scale(0.56453 1.05741)" font-family="Bitstream Vera Serif" font-weight="bold" font-size="43">9</text></g><g id="base"><path style="fill:#FFFFFF;stroke:#000000;stroke-width:2.5" d="M 0,0C0,3.78 3.09,6.87 6.87,6.87L159.715,6.87C163.485,6.87 166.575,3.78 166.575,0L166.575,-228.4C166.575,-232.18 163.485,-235.27 159.715,-235.27L6.87,-235.27C3.09,-235.27 0,-232.18 0,-228.4L0,0 z"/></g></defs><g id="9_heart" transform="translate(-1340.6,-486.275)"><use xlink:href="#base" x="1340.6" y="486.275" xlink:type="simple" xlink:show="embed" xlink:actuate="onLoad"></use><use xlink:href="#n_9" x="1344.6" y="287.157" style="fill:#e6180a" xlink:type="simple" xlink:show="embed" xlink:actuate="onLoad"></use><use xlink:href="#n_9" x="1504.17" y="455.995" transform="rotate(180,1504.17,455.995)" style="fill:#e6180a" xlink:type="simple" xlink:show="embed" xlink:actuate="onLoad"></use><use xlink:href="#heart" x="1354.25" y="301.157" transform="rotate(180,1354.25,301.157)" xlink:type="simple" xlink:show="embed" xlink:actuate="onLoad"></use><use xlink:href="#heart" x="1494.52" y="441.995" xlink:type="simple" xlink:show="embed" xlink:actuate="onLoad"></use><use xlink:href="#heart" x="576.858" y="119.902" transform="scale(2.4) rotate(180,576.858,119.902)" xlink:type="simple" xlink:show="embed" xlink:actuate="onLoad"></use><use xlink:href="#heart" x="576.858" y="142.467" transform="scale(2.4) rotate(180,576.858,142.467)" xlink:type="simple" xlink:show="embed" xlink:actuate="onLoad"></use><use xlink:href="#heart" x="576.858" y="165.451" transform="scale(2.4)" xlink:type="simple" xlink:show="embed" xlink:actuate="onLoad"></use><use xlink:href="#heart" x="576.858" y="188.016" transform="scale(2.4)" xlink:type="simple" xlink:show="embed" xlink:actuate="onLoad"></use><use xlink:href="#heart" x="610.132" y="119.902" transform="scale(2.4) rotate(180,610.132,119.902)" xlink:type="simple" xlink:show="embed" xlink:actuate="onLoad"></use><use xlink:href="#heart" x="610.132" y="142.467" transform="scale(2.4) rotate(180,610.132,142.467)" xlink:type="simple" xlink:show="embed" xlink:actuate="onLoad"></use><use xlink:href="#heart" x="610.132" y="165.451" transform="scale(2.4)" xlink:type="simple" xlink:show="embed" xlink:actuate="onLoad"></use><use xlink:href="#heart" x="610.132" y="188.016" transform="scale(2.4)" xlink:type="simple" xlink:show="embed" xlink:actuate="onLoad"></use><use xlink:href="#heart" x="593.495" y="131.185" transform="scale(2.4) rotate(180,593.495,131.185)" xlink:type="simple" xlink:show="embed" xlink:actuate="onLoad"></use></g></svg>