<?xml version="1.0" encoding="UTF-8"?>
<svg xmlns="http://www.w3.org/2000/svg" xmlns:xlink="http://www.w3.org/1999/xlink" version="1.1" height="263" width="188" viewBox="-1.3 -236.8 188 263" preserveAspectRatio="xMidYMid meet" zoomAndPan="magnify" contentScriptType="application/ecmascript" contentStyleType="text/css"><defs><g id="laurel"><path d="M567.72,849.31C580.96,854.73,567.2,862.36,567.72,849.31  M384.72,849.31C384.72,869.35,400.08,852.68,384.72,849.31  M410.72,836.59c8.06-0.17,20.93,10.22,7,13.72C408.62,852.6,398.08,839.05,410.72,836.59  M476.72,850.31  C450.08,841.85,482.99,820.82,476.72,850.31  M382.72,829.31c5.04,10.57,8.17,29.05,23,29c-5.71-8.01-10.5-10.74-12-21  c3.07,2.41,18.07,16.4,16.54,19.91c-7.65,17.63-28.13-0.08-35.54-6.76C355.55,833.23,353.59,833.09,382.72,829.31  M347.92,827.87  C350.72,833.5,346.65,835.11,347.92,827.87  M523.72,821.31c-1.12,2.22-2.79,3.55-5,4C519.36,822.88,521.18,821.45,523.72,821.31  M513.72,822.31c-2.65-1.32-5.32-1.65-8-1c2.43,2.28,3.77,4.95,4,8h-5c3.89,13.64,3.51,23.72-8.83,33.29  c-5,3.88-12.88,9.53-15.46,2.71C484.79,858.66,498.01,796.45,513.72,822.31  M343.72,825.31c-2.52,16.89-30.63,1.29-30-10  C323.65,819.75,333.17,820.69,343.72,825.31  M494.72,815.31c-2.37,5.71-6.21,10.2-12,12  C482.41,821.17,486.91,811.26,494.72,815.31  M347.72,813.31C353.22,820.67,340.28,822.67,347.72,813.31  M404.72,825.31  c0.23,3.2-48.43,4.72-47-6c11.56,2.92,7.32-8.74,20.13-5.28c5.33,1.44,11.86,1.05,16.72,3.28  C399.36,822.21,398.04,825.25,404.72,825.31  M614.72,815.31c4.82,0.17,9.46-1.14,14-3C623.96,811.47,618.83,812.6,614.72,815.31  M522.72,811.31l1,1C522.42,817.67,514.4,819.4,522.72,811.31  M430.72,805.31c3.94,5.01,7.66,11.94,12,15  C445.82,814.21,438.35,801.22,430.72,805.31  M441.72,832.31c-9.25-2.31-29.32-22.39-18.05-30.28    c18.14-12.7,26.8,10.99,29.38,23.12c1.33,6.27,27.78,39.44,14.66,40.86C460.32,866.55,434.7,839.04,441.72,832.31  M597.72,793.31  c1.38,0.43,2.12,5.49,5,0C600.62,792.2,599.51,793.63,597.72,793.31  M283.72,776.31c-1.15,5.4-0.81,10.73,1,16  C278.28,788.34,265.45,770.44,283.72,776.31  M561.72,773.31c6.29,28.47-39.42,10.06-39,33c-15.53-20.04,18.31-38.86,14-20    C545.23,782.53,553.07,777.09,561.72,773.31  M235.72,761.31c11.28,8.71,25.55,12.36,34.94,23.17c1.63,1.87,10.61,11.35,0.06,9.83    c-3.59,0.94-7.08-7.42-8.08-8.33C252.94,780.42,238.09,772.25,235.72,761.31  M543.72,775.31c-5.33-0.96-10.49-7.11-7-12.98    C543.2,751.44,549.91,767.08,543.72,775.31  M489.72,754.31c-0.33,3.33-0.67,6.67-1,10C484.62,761.12,485.51,756.9,489.72,754.31    M480.72,752.31c0.36,4.82-0.09,10.01,0,15C476.37,763.42,476.52,756.67,480.72,752.31  M612.72,746.31c-0.93,2.39-2,4.25-2,7  c2.64-0.79,4.31-2.79,5-6C615.67,747.23,612.7,745.4,612.72,746.31  M227.72,746.31c4.38,3.44,7.01,7.46,7,13  C229.25,756.99,226.39,751.99,227.72,746.31  M627.72,736.31c-0.67,2.67-1.33,5.33-2,8C629.26,741.04,627.89,734.9,627.72,736.31    M643.72,730.31c-5.18,15.26-24.9,24.52-28,37c8.8-2.42,17.88-3.76,27-4c-3.98-3.07-9.41-2.06-15-2c5.25-7.69,14.61-9.06,21-14    h-4c2.9-2.52,4.9-5.52,6-9c-1.67,0.33-3.33,0.67-5,1C645.23,716.33,645.9,736.64,643.72,730.31  M772.72,720.31  c-1.29,13.48-7.89,37.37-26.56,35.3c-16.32-1.81-24.6,28.14-40.7,9.31c-7.4-1.83-23,5.55-26.24-1.61    c-5.17-11.4,39.64-10.63,44.5-9c-8.21-11.67,11.53-10.85,18-8C743.14,732.81,762.03,727.11,772.72,720.31  M261.72,711.31  c1.94,5.84,7.18,11.63,5,18c-5.01-0.92-10.02-1.58-15-1c8.44,14.72,23.15,2.32,30,19c-9.52,0.36-13.32-5.34-23-5    c2.52,3,5.13,2.33,9,3c-3.07,4.77-5.74,3.61-7,8c10.17-0.5,29.76-3.98,36,7c-5.5,0.88-10.09,0.58-14,4    c5.73,0.06,11.39-0.49,17-1.65c8.26,5.32,16.11,11.36,25,15.65c-3.41-4.27-7.06-10.12-7-16c-9.51,0.35-8.57-0.24-11.73-9.74    c-5.97-17.98-14.47-22.71-6.27-0.26C282.13,749.8,275.89,719.61,261.72,711.31  M602.72,780.31c1.64-7.77-8.93,7.43,2-9  c-9.04,4.32-19.74,3.71-28,9c3.72-3.56,5.57-7.54,6-13c-9.98,3.85-15.98,15.72-4,19c-1.71,9.54-12.22,9.34-19.63,11.94    c-9.17,3.22-20.22,15.89-28.37,17.06c8.15-15.85,16.77-15.04,29.9-27.34c3.21-3,16.79-35.07,5.6-29.35    c-6.17,3.15-18.81-0.75-16-10.24c5.79-16.68,17.75,3.37,24.5,1.93c5.99,3.88,9.52,8.19,17,5.27c13.51-5.27,8.04-28.02,20-32.71    c3.82-1.5,8.53,5.17,13.5,4.13c10.08-2.12,11.7-20.01,20.5-21.06c8.59-2.99,7.58,8.87,14,11.89c9.07,4.28,17.23-9.82,23.5,1.48    c3.12,5.61-0.43,9.18-3.52,13.72c-14.04,10.29-11.64,10.24-13.46,26.28c-3.07,8.33-25.23,31.28-34.52,31.59    c-10.91-4.7-11.02-8.35-21.43-1.45c-4.45,7.66-12.83,21.86-22.68,12.38C581.39,784.7,585.82,781.58,602.72,780.31  M757.72,722.31  c-0.69-1.23-1.02-2.57-1-4c-6.02,5.64-8.84,14.07-18,17c0.72-3.85,0.14-7.78,2-12c-5.06,8.05-6.08,17.33-17,19    c-0.92-4.38,0.08-8.38,3-12c-9.42,9.51-12.17,22.65-17,4c-3.66,1.88-11.83,28.37-24,18.78c-9.13-7.19,9.81-30.38,17-34.15    c14.86,1.03,17.9-9.43,29-14.72c8.61-4.1,15.91,1.55,25.9-1.91c6.86-2.38,19.15-4.35,19.07,6    C776.63,717.45,764.1,718.34,757.72,722.31  M125.72,693.31c-1.83,5.2,1.94,11.18,5,15c-8.72-3.95-17.29-10.78-26-13    c5.61,8.5,14.71,12.94,21,20c-2.79,0.56-3.65,0.92-6,1v2c20.71,0.77,35.47,13.98,56,19c-6.67-9.66-16.14-21.8-26-28    c1.86,5.94,6.45,10.16,9,16C139.98,720.42,137.73,702.54,125.72,693.31  M334.72,789.31c-15.35-4.77-40.17,0.09-44-21    c-28.07,9.28-29.21-3.79-50.52-17.47c-2.28-3.56-2.53-6.79-4.28-10.53c2.19-11.42-13.58-16.92-11.19-25    c2.14-7.26,2.36-5.38,11.03-5.93c11.8-0.74,12.29-6.09,16.6-16.58c13.08-8.22,19.98,8.46,22.59,18.5    c7.87,7.49,19.54,1.94,26.63,8.79c6.34,6.13,1.86,15.4,8.15,21.89c11.75,12.1,13.52-0.5,12.61,17.82    c-0.3,6.06,5.5,7.09,9.02,11.57C333.64,776.44,332.99,783.87,334.72,789.31  M744.72,685.31  C744.35,706.44,716.95,694.17,744.72,685.31  M764.72,669.31C765.25,679.35,758.29,677.18,764.72,669.31  M700.72,691.31  c-10.7-1.57-16.37-20.95-3-20.91C719.73,678.75,697.63,679.02,700.72,691.31  M177.72,668.31c-5.49,3.4-18.93,0.83-16-8.98    C162.55,651.08,180.32,654.78,177.72,668.31  M760.72,649.31c-0.26,5.25-0.88,8.35-5,9C755.46,654.38,756.99,650.31,760.72,649.31    M714.57,646.31c11.21,8.06,8.16,28.02-8.35,21.93C693.7,663.62,706.94,648.53,714.57,646.31  M817.72,641.66  c15.86,1,5.9,13.96-1.67,18.8C798.69,671.58,807.4,645.31,817.72,641.66  M774.72,641.31c4.83,8.12,3.54,21.23-5,26  C770.56,659.58,767.2,646.04,774.72,641.31  M174.72,630.31C184.46,668.06,143.97,639.47,174.72,630.31  M787.72,624.31  c-0.05,2.01-0.9,4.3-2,6c-3.77-0.95-5.58-0.87-5-4C783.06,625.64,785.39,624.98,787.72,624.31  M107.72,619.31  c6.71,3.55,9.03,17.31,10,24C111.46,642.17,107.49,625.43,107.72,619.31  M54.72,601.85c11.34,0.86,19.49,13.12,5,16.45    C46.73,619.61,38.8,606.01,54.72,601.85  M101.72,607.31C93.95,598.56,106.79,594.7,101.72,607.31  M47.72,583.31  c-1.93,6.67,1.81,6.49,7,9C45.53,618.52,28.74,582.33,47.72,583.31  M72.72,551.31c6.42,6.13,12.79,12.11,18,19  C81.56,572.85,74.41,557.49,72.72,551.31  M778.72,545.31c2.16,13.36,3.73,30.09-3,42c0.04-2.72-1.36-4.58-4-5    c0.19,2.23,0,22.6,5.33,19.54c3.96-2.28,13.42-24.24,14.67-29.54c-2.85,2.37-6.83,7.11-8,9c-2.98-11.94,3.08-19.88,6-31    c-4.8,5.38-7.54,2.22-8-5H778.72  M835.72,544.31c-1.34,8.33-2.67,16.67-4,25C836.42,563.85,839.12,548.6,835.72,544.31    M833.72,522.31c0.19,3.77,0.78,18.93-8,14C827.33,530.63,829.34,524.91,833.72,522.31  M55.72,512.31c11.13,9.6,10.34,13.27,5,26  C53.31,532.25,47.98,519.76,55.72,512.31  M827.72,589.31c3.22-4.55,7.57-5.11,13-7c-15.27-5,9.29-20.69,17-23    c-13.04-3.17,9.71-25.15,14-31c-7.39,3.63-10.68,12.07-18,16c0.23-5.15,1.23-10.15,3-15c-7.41,7.79-10.01,22.1-15.42,32.18    c-6.8,12.68-15.85,23.55-24.58,34.82c6.06,7.09-4,11.45-10.57,13.66c-22.02,7.4-3.38-9,2.13-16.28    c4.78-6.31,13.67-16.24,13.67-24.38c-4-6.94-8.15-14.43-3.86-21.79c3.22-5.52,8.56-5.08,14.63-6.43    c7.4-5.48,4.51-6.24,6.36-16.33c4.19-22.82,18.19-7.89,33.13-10.57c17.64-3.16,20.52,6.73,7.33,20.12    c-2.42,8.88,4.87,16.47,2.6,24.84c-1.96,7.25-15.87,5.4-21.43,7.79C840.24,582.7,859.17,589.86,827.72,589.31  M818.72,503.31  c1.3,2.87,0.71,5.64-2,7C816.69,507.89,817.41,505.38,818.72,503.31  M70.72,499.31c1.74,13.82,6.77,32.89,23,32  c-1.48,7.68-23.77,19.97-25.41,7.33c-0.65-4.97,3.11-9.33,2.21-14.33C66.87,511.97,58.33,510.09,70.72,499.31  M824.72,497.31  c2.96,2.48,3.2,5.03,0,7C823.2,501.62,823.2,499.29,824.72,497.31  M78.72,509.31c-1.66-5.39-2.57-10.64-1-16  C85.57,495.03,86.19,507.17,78.72,509.31  M784.72,484.59c12.15-1.3,18.59,13.75,6,13.72    C782.42,499.19,776.94,488.3,784.72,484.59  M818.72,481.31c3.08,4.57,5.08,9.57,6,15C819.9,493.14,816.76,486.78,818.72,481.31    M72.72,473.31C102.41,483.26,66.52,495.23,72.72,473.31  M819.72,464.31c-0.33,1.33-0.67,2.67-1,4c3.05,0.99,6.05,0.65,9-1    c0.19,5.08,0.14,10.11-1,15C821.28,478.26,812.81,468.45,819.72,464.31  M63.72,464.31c1.36,4.57,2.03,9.23,2,14  C58.75,477.55,61.43,467.73,63.72,464.31  M854.72,461.94c7.8,1.63,19.79,17.69,6,19.87    C850.21,483.47,849.03,467.08,854.72,461.94  M791.72,478.31c-18.56,10-15.33-14.64-7.7-15.39    C796.4,461.71,787.58,470.39,791.72,478.31  M101.72,480.31C72.42,489.49,93.15,434.23,101.72,480.31  M100.72,459.31  C78.69,455.67,122.03,433.1,100.72,459.31  M67.72,441.31c7.65,4.2,6.9,14.73,8,22C68.14,458.53,64.74,449.63,67.72,441.31    M48.72,512.31c-7.81-4.78-4.05-16.18-1-24c-12.95,13.53-9.72-10.41-7-21c-1.94,2.02-2.76,0.89-5,4c-7.69-10.94-16.25-25.53-8,2    c-3.23,1.27-6.57,0.93-10-1c6.62,8.05,14.48,15.51,16,27c-4.24-1.38-9.35-2.96-14-3c3.36,4.46,10.19,8.98,16,7    c4.02,10.64,7.62,19.13,13,29c-6.53,1.85-12.98,2.13-17.25-3c-3.07-14.73-12.45-12.17-16.93-24c-1.09-2.88,0.83-6.93,1.23-9.4    c1.48-9.28-5.86-10.52-9.34-17.73c-4.96-10.29,9.18-17.5,6.5-29.16c-7.58-32.99,19.5,4.15,28.79,7.29    c8.95,8.71,3.6,9.95,8.06,21.5c1.97,5.11,10.02,6.69,11.41,11.52C63.1,496.43,53.1,507.67,48.72,512.31  M66.72,426.31  c1.78,3.2,3.79,4.41,2,7c-4.3-1.28-3.37-4.04-5-7H66.72  M825.72,457.31c-6.66-3.85-6.08-8.74-6-17  c-5.09-9.21-8.48-7.5-6.09-17.67C821.22,390.35,825.49,452.88,825.72,457.31  M74.72,426.31  C67.78,380.88,95.24,406.9,74.72,426.31  M819.72,382.31c0.74,5.87,1.18,12.01,1,18C813.75,394.98,812.14,387.11,819.72,382.31    M69.72,380.31c2.8,6.57,2.08,14,0,21C61.32,395.42,65.65,385.47,69.72,380.31  M790.72,378.31c-0.5,6.01-2.17,11.68-5,17  c-7.28-2.26-9.41-6.88-14-2c4.24,1.47,14.76,9.54,19.52,7.09C795.17,398.38,796.93,379.54,790.72,378.31  M84.72,390.31  c-6.62-4.29-13.67-16.1-14-24C79.04,370.77,83.45,381.09,84.72,390.31  M39.72,352.31c-1.1,5.92-1.12,24.58-13.38,11.53    C17.65,354.59,31.86,351.65,39.72,352.31  M871.72,360.31c-6.69,0.56-21.91,8.13-17.37-7    C869.21,333.34,866.98,351.86,871.72,360.31  M813.72,343.31c0.32,1.24,0.03,2.25-1,3C810.25,344.11,810.23,342.92,813.72,343.31    M73.72,331.31c4.84,6.56,4.22,13.87,1,21C67.36,347.83,68.27,337.38,73.72,331.31  M39.72,325.31c-1.19,1.86-1.86,3.86-2,6  c10.92-0.72-4.82,19.06-12.33,14.57C16.17,340.37,29.64,314.82,39.72,325.31  M798.72,414.31c3.64,10.47,9.99,19.69,14,30    c-18.64-2.35-16.44-20.49-32.5-23.47c-16.18-3-10.39-16.45-17.5-27.52c-3.3-5.14-11.88-6.45-10.76-14.02    c9.72-19.44,18.5-6.42,31.76,2c1.74-7.19,9.24-29.39,2-33c-0.9,4.94-1.58,10.08-2,15c-7.51-8.88-4.75-22.46-9-32    c-2.02,13.88,2.28,27.37,4,41c-12.41-7.04-33.79-20.7-22.43-36.53c11.87-8.94,9.61-13,11.71-25.34    c1.93-11.3,19.41-2.49,21.14,4.87c1.64,6.95-2.13,13.44,5.07,18.49c5.51,3.87,6.64,8.67,3.33,14.5    c-6.43,11.34,6.34,12.98,9.98,22c3.06,7.59-7.14,13.14-6.38,21C805.84,398.94,812.25,412.09,798.72,414.31  M83.72,313.31  c-4.33-1.53-6.26-5.53-5-10C82.98,304.88,83.78,308.19,83.72,313.31  M128.72,293.31c4.29,8.99,8.35,5.55,15,3  c0.67,5.51-0.02,10.84-2.07,16c1.22,5.23,4.81,9.43,4.57,15c-0.14,3.26-5.62,4.91-7.28,8.1c-2.12,4.07-0.02,10.38,0.13,14.9    c-7.03,12.16-14.36,3.19-17.42,20c-8.14,6.16-14.04,5.62-23.94,7c0-5.01,2.44-5.27,4-9.72c12.31-11.02,4.52-1.16,7.26-11.28    c1.63-6.02,7.27-8.64,10.72-13.32c1.71-13.49,10.23-24.4,17.02-35.68c-6.87,2.54-9.78,9.37-16,14c-7.29-8.86-4.57,16.3-11,21    c-0.76-5.66-1.43-11.32-2-17c-5.17,5.24-4.96,15.17,2,18c-5.31,11.58-12.52,28.92-21,37c-4.24-12.5,21.01-32.88,6-37v11    c-10.21-6.58-5.95-10.18-4-17.53c8.34-5.51,5.35-11.99,8.8-20.45c4.43-5.91,10.4-4.14,17.19-6.85    C122.4,305.81,123.82,297.57,128.72,293.31  M796.72,309.31C778.01,305.03,808.42,276.86,796.72,309.31  M788.72,280.31  c-3.29-1.15-5.11-3.61-5-7C788.09,273.97,790.03,276.11,788.72,280.31  M105.72,273.31c-0.41,2.91-2.08,4.91-5,6  C99.33,275.31,102.58,275.38,105.72,273.31  M770.72,259.31v2h-2C768.69,260.13,769.49,259.52,770.72,259.31  M774.72,253.31  c-0.36,2.39-0.86,3.89-3,5C772.46,254.59,771.44,252.66,774.72,253.31  M136.72,266.31c-7.57,0.44-14.32-5.52-12.69-13.5    C128.02,233.2,145.05,247.25,136.72,266.31  M768.72,242.31C787.69,238.1,772,262.06,768.72,242.31  M149.72,254.31  c-10.53-1.88-8.24-17.72,1.45-19.4C174.02,230.96,152.73,249.99,149.72,254.31  M757.72,231.31c2.71,4.33,2.63,10.07,1,15  C752.26,243.25,754.04,237.17,757.72,231.31  M704.72,226.31c5.4,11.75,4.23,21.77,14.66,31.42c6.58,6.09,9.21,17.73,19.34,18.58    c0.11-9.04-3.79-20.46-14-20.67c-10.06-8.23-12.83-10.18-6-23.33C714.18,230.01,709.52,228.01,704.72,226.31  M746.72,225.31  c0.73,2.19,0.03,4.02-2,5C744.81,228.07,744.98,226.65,746.72,225.31  M795.72,209.31c3.18,12.1,10.27,25.21,8,38  c-3.82-4-8.15-7.33-13-10c5.36,8.92,13.96,16.35,19,26c4.37,0.77,12.21-23.46,14-27c-4.42-0.01-8.09,1.66-11,5    c-0.5-8.17,10.52-24.15-2-27c-1.24,4.53-1.93,9.38-2,14C803.6,222.67,800.41,213.17,795.72,209.31  M155.72,194.31  C175.62,198.2,153.38,208.05,155.72,194.31  M710.72,187.31c1.12,4.83,0.62,8.94,4,11C714.57,192.61,714.66,189.29,710.72,187.31    M694.72,176.31c0.89,4.32,2.56,8.32,5,12C700.95,183.77,698.79,178.8,694.72,176.31  M775.72,192.31  c2.23-10.76,5.04-12.3,13.55-11.01c4.94,0.75,7.27,8.88,9.02,13.01c6.55,6.8,13.27,4.96,21.43,7.08c3.6,2.71,3.62,4.74,6.55,7.92    c-2.35,14.99,10.98,9.17,13.81,20c1.25,4.77-4.88,10.13-6.72,14c-1.47,8.81,9.07,15.22,4.5,23.34    c-5.55,9.85-10.64,11.68-6.85,23.66c-2.96,8.81-15.29,14.27-10.28,25c5.62-6.55,14.41-13.66,17.25-22    c0.7-11.95,9.2-21.32,8.13-32.51c-0.72-7.49-6.44-13.58-2.06-20.43c3.46-5.4,4.82-12.39,0.99-17.76    c-8.66-12.12-12.13-21.51-24.31-29.17c-15.31-0.14-18.8-15.18-33.93-18.52C772.08,171.68,769.42,181.03,775.72,192.31    M655.72,169.31c2.12,1.32-0.13,2.1,4,2C658.66,169.96,657.33,169.29,655.72,169.31  M675.72,167.31c0.71,1.24,3.87,10.59,3,9  c-5.55,1.37-11.61-3.95-17-5c9.93,7.5,21.15,14.6,32,21C688.43,183.79,681.19,176,675.72,167.31  M110.72,188.31  c-0.99-0.78-4.29-3.28-6-4c-0.16,10.8-0.1,20.78-5,31c-4.37-4.96-3.75-23.25-10.53-22c-1.9,0.35,3.09,37.14,1.53,42    c-3.74-4.15-5.14-11.32-12-8c7.77,12.42,7.59,25.29,9,39c3.43-3.75,5.51-12.45,7-18.98c4.66-7.17,14.41-10.83,20.3-17.27    c17.43-19.08-14.22,6-17.3,8.26c2.35-18.4,20.35-27.47,29-42c-6.69-0.56-11.33,7.4-16,11    C116.23,190.7,126.06,144.98,110.72,188.31  M176.72,185.31c16.69-1.8,31.8,5.81,48,8c-2.4-2.77-5.94-5.18-9-7    c12.01-5.4,18.01,4,29,4c-2.11-2.84-3.92-7.88-6-10c7.02-1.47,13.87,0.62,21,1c-3.65-4.71-2.65-8.04,3-10    c-17.46-4.05-12.46,2.47-29,6.19c-8,2.02-11.74-3.98-22,3.06c-4.05,0.77-6.29-3.74-10.02-3.25c-8.84,3.7-18.51,4.9-27.98,3.48    c-4.43,3.5-6.22,5.79-12,5.52c5.33-4.39,11.09-11.02,17.83-14.1c5.13-2.34,10.6,0.12,15.17-2.26    c11.81-6.16,9.73-21.19,24.96-12.6c8.78,4.95,8.18,4.43,18.63,0.33c15.17-5.95,10.48,1.2,23.91,3.02    c3.37,0.46,25.42-3.84,18.95,8.42c-3.76,7.13-10.12,8.77-15.69,14.66c-4.01,4.24-6.28,14.57-11.79,16.89    c-8.47,3.57-16.69-3.52-25.04,2.72c-9.5,7.09-15.92-5.43-25.43-6.32C192.22,196.05,179.95,200.94,176.72,185.31  M115.72,150.65  c6.01,0.17,9.38,4.67,12.38,9.66c0.21,10.62,11.12,16.06,11.33,25c0.22,9.3-7.93,13.47-6.7,23.78c2.23,18.73-15.3,34.73-30,43.3    c-7.11,10.92-5.22,16.21-18,22.92c-6.61-0.01-7.25-13.1-9.28-17.39c-3.01-6.34-9.49-11.25-9.72-18.61    c-0.18-5.79,5.81-9.24,6.36-15c-8.31-25.74,0.17-11.46,11.42-30c7.34-12.11-1.9-15.39,15.8-22.05    C112.45,167.3,104.17,155.34,115.72,150.65  M707.72,216.31c-6.18-1.14-16.28-8.34-25-10.61c-10.11,3.73-17.54,2.83-22.6-6.29    c-5.09-9.19-11.63-1.93-19.13-7.67c-4.24-3.24-16.54-26.41-15.56-29.43c4.26-13.15,25.56-5.22,35.29-9c1.4,8.54,12.14,6.39,19,8    c-5.88-22.19-26.72-8.7-43-10.73c-25.59,5.27-12.72,17.05-7.1,31.42c6.69,17.08,18.25,16.31,32.19,26.41    c7.11,5.15,14.54,3.69,22.9,1.38C690.89,213.04,700.25,220.93,707.72,216.31  M734.72,142.31c-2.98,6.3-8.5,4.97-14,1.66  c-1.68-1.01-2.12-3.41-1.36-4.91C722.12,133.6,731.23,141.59,734.72,142.31  M212.72,138.31  C212.79,118.5,230.84,137.45,212.72,138.31  M175.72,121.31c1.22,7.99,0.69,16.37-2,24C168.63,138.86,168.82,125.22,175.72,121.31    M239.72,111.31c-0.59,4.26-2.92,8.05-7,9C231.78,115.89,235.2,112.94,239.72,111.31  M721.71,108.06  c7.88,6.81,9.22,29.01-6.66,24.01C705.79,129.16,710.87,108.36,721.71,108.06  M204.72,94.31c-3.02,12.96-5.48,28.52-17,37    C188.53,120.17,195.97,101.4,204.72,94.31  M544.72,90.31c-6,0.41-9-2.51-11,3c11.8,1.82,31.77,10.2,17.51-9.37    C545.58,81.93,545.43,85.36,544.72,90.31  M306.72,97.31c8.22,4.84,15.01,3.13,23.97,5.6c10.96,3.02,21.01,8.57,32.03,11.4    c-5.69-14.22,18.45,1.58,23,4c-2.04-13.6,14.45-9.05,21-12c-12.89-0.77-26.4,2.75-39-2c2.24-4.04,7.11-5.76,12-8    c-11.56,0.16-22.13,10.59-33,5c0.82-3.7,3.15-6.37,7-8c-7.03,2.97-31.86,11.71-37.31,2c-8.4-14.98,39.72-12.21,39.85-12.26    c8.56-3.15,7.16-3.6,15.4,0.02c8.48,3.72,21.79-4.95,27.71-0.13c6.61,11.2,5.73,11.35,18.34,14.71c2.54,2.2,7.27,5.68,6.86,9.66    c-1.04,10.1-11.94,8.49-18.78,12.78c-4.69,2.95-8.38,9.15-14.08,10.05c-5.59,0.88-10.31-4.32-16-3.46    c-15.76,2.37-8.98,12.51-23.05,0.95c-9.43-7.75-19.01-4.57-28.88-13.48C318.23,109.1,309.05,103.25,306.72,97.31  M524.72,78.31  c-0.12,4.03,0.22,8.03,1,12c-7.85-3.7-10.58,1.79-9,10C517.45,99.6,548.59,81.13,524.72,78.31  M601.72,76.31v2h8  C607.52,76.54,604.85,75.87,601.72,76.31  M503.72,77.31c-13.35-10.3-11.39,7.85-5,9c0.69-1.23,1.03-2.57,1-4    c6.44,2.11,12.1,5.06,19,5C515.78,80.09,504.95,61.3,503.72,77.31  M622.72,61.31c0.22,3.06,1.56,5.72,4,8  C629.52,64.29,625.51,64.32,622.72,61.31  M610.72,61.31c-4.68,0.16-0.75,2.27-10,1c4.83,4.64,15.03,7.01,12,15    c10.45-0.64,17.13-1.67,12,8c5.67,1.05,11.33,1.05,17,0C633.02,74.18,621.61,69.93,610.72,61.31  M274.72,56.31  c-1.37,9.76-0.25,20.87-10,26c0.24-9.55-18.63-17.81-8.72-28.59C261.78,47.44,269.3,53.74,274.72,56.31  M533.72,57.31  c1.78,4.57,3.81,11.5,8,15.07c8.74,3.05,16.76,12.3,24.5,14.32c6.22,1.62,23.45,2.74,10.62,13.05    c-8.25,6.63-14.47,4.19-24.12,5.31c-7.6,7.01-7.15,9.79-16.61,4.01c-14.83-9.05-4.96,2.11-20.39,0.23    c-14.35-4.75-11.67-10.54-26.28-6.08c-13.87,4.24-12.76-6.19-11.81-15.92c-4.04-9.22-10.78-5.99-18.91-10.81    c-13.49-8.01,12.1-23.27,16-31.19c4.25,1.49,15.52,8.79,19.78,8.59c1.83-0.08,4.3-8.94,8.19-7.59c6.62,2.3,7.05,10.77,15.02,14.4    C523.77,62.37,528.05,58.61,533.72,57.31  M559.72,57.31c4.29-10.9,19.59,13.83,17.61,21.25c-2.46,9.22-32.88-23.2-36.43-25.97    c-5.15-4.03-26.03,4.29-22.82-6.19C524.21,26.39,554.4,53.03,559.72,57.31  M405.72,38.31v2c3.2,1.36,6.2,1.36,9,0  C412.17,38.53,408.94,37.86,405.72,38.31  M648.72,93.31h-5v2c18.67,0,0.2-15.48,5.54-22.92c3.32-11.86,20.78,22.46,21.22,26.92    c-7.27,18.79-1.75,11.64-22.76,14.48c-4.36-1.5-7.23-1.5-10.22-5.47c-8.5-11.28-16.45,1.71-27.15-5.01    c-7.43-13.89-16.15-5.18-24-16c-3.64-14.27-3.79-21.68-14.43-33.25c-3.89-4.23-9.14-7.89-3.2-13.12c4.88-4.32,16.14,0.64,21,1.95    c14.94-6.89,18.65-3.71,31,4.93c5.89,2.76,12.58,0.87,16.65,6.23C643.5,62.11,649.44,82.54,648.72,93.31  M387.72,26.31  c-11.39,20.38-33.18,31.32,10,25c-10.28-0.16-11.5-1.5-10-9c-3.49,2.74-7.16,3.74-11,3C381.77,40.33,389.82,30.28,387.72,26.31    M402.72,18.31c-3.9,5.69-6.7,12.22-8,19c2.35,0.02,4.99-0.85,7-2C399.86,29.1,406.13,20.89,402.72,18.31  M249.72,102.31  c4.8-1.65,9.02-5.45,13-9c6.68-3.27,12.5,0.73,19-5c-4.31,0.69-8.64,1.03-13,1c4.08-18.97,19.09-11.39,30-20    c-25.04,1.65-1.23-12.74,8-15c-9.62-3.27-5.66-4.56-3-14c-3.59,4.87-11.43,13.84-10,0c-3.19,4.68-6.25,27-14,27    c-8.37,0,2.67-35.96,4-40c12.62,7.92,15.95-1.91,27-7.43c9.25-4.63,18.35,0.5,16.59,10.72c-2.74,15.92,1.53,31.74-15.98,40.86    c-4.47,9.4-5.05,15.02-15.84,18.92c-6.6,2.38-8.88,0.83-11.68,6.94c-3.51,7.66-9.83,8.13-17.38,10.04    c-14.56,3.68-17.62,12.23-21.62-2.71C238.6,81.48,269.46,79.16,249.72,102.31  M430.72,15.31c-1.07,1.15-1.74,2.49-2,4  C430.87,18.67,431.7,17.24,430.72,15.31  M503.72,34.31c3.11-2.02,8.75-15.84,14.81-10.51c3.27,2.88-3.9,16.68,7.19,8.51    c0.69,18.08-38.81,2.42-37.39-12.97c0.7-7.53,10.71-13.34,17.35-8.99C513.81,15.69,501.33,27.5,503.72,34.31  M479.72,8.31  c3.76,5.96,15.85,29.48,12.17,35c-3.26,4.89-15.35-2.15-19.67-1.61c-7.93,0.99-12.93,10.77-17.38,16.35    c-11.71,14.68-3.52,21.47,12.77,25.5c3.38,4.84-1.51,9.78,0.73,15.76c5.51,11.05,12.5,11.07,22.32,8.67    c9.62-2.35,6.87-1.71,14.25,3.91c8.16,6.21,14.02,3.89,23.8,1.07c6.8,0.69,12.74,8.89,20.52,4.79c5.32-2.81,8-6.78,13.5-8.83    c16.16,2.37,24.68-16.04,37.9-10.61c4.66,1.91,4.57,9.9,10.1,12.52c17.89,5.01,16.62-8.14,29,10.48    c-15.68-4.15-24.72,2.18-39.64,4.49c-11.56,1.79-27.59-1.25-36.36,6.51c11.56-3.47,34.46-0.78,18,15    c7.15-7.14,15.53-11.67,24.38-16.49c16.6-9.05,27.05-0.38,43.63-5.47c6.35,4.93,15.93,5.53,21.55,10.3    c5.59,10.39,8.63,24.42,21.45,23.69c6.23,4.32,12.41,9.75,19,13.98c11.15,2.04,12.24-2.43,15.45,9.48    c2.05,7.61-0.26,16.91,1.4,22.52c4.98,8.34,9.95,12.4,6.16,22c-7.69-4.86-11.62-17.44-21-18c5.43,7.99,10.51,16.23,16.55,23.79    c5.74,7.19,6.15,19.16,15.45,15.21c-0.75,5.38,1.68,8.85,7,10c-2.19,4.06-3.96,8.67-5,13c4.58-0.52,8.58,0.81,12,4    c-4.43-9.3,1.16-19.49,9-25c-2.06,6.04,3.08,13.71-4,15c1.03,7.69,1.63,4.36,3,8c2.53-0.95,4.87-2.28,7-4    c-1.58,8.72-4.58,16.81-13,7c5.16,25.21,13.87-2.97,20-1c-3.21,13.35-4,19.9-16,29.26c-3.17,6.12-4.54,10.34-3.48,17.74    c-2.2,5.18-7.77,8.04-10.86,13.11c-10.6,17.41,4.15,15.83,5.33,27.89c1.2,12.22-18.44,14.66-3.92,28.01    c9.39,8.64,7.01,19.45,14.92,29.99c5.59,4.71,14.41,4.86,20.39,9.02c2.31,11.81,12.13,14.21,21.53,20    c4.01,6.6,2.73,15.13,2.47,22.73c-0.48,13.86,0.68,52.12-7.39,59.25c-1.44-8.42-2.98-16.89-2.98-25.47    c0-11.08,6.51-18.57,3.4-29.84c-3.54-12.83-14.13-18.76-19.42-29.69c-12.96,9.95-19.27,43.98-0.74,53.14    c2.99,1.48,8.1,0.3,10.4,2.49c4.41,4.19,4.46,25.29,4.34,30.37c-11.42-8.03-21.49-22.3-33.7-4.78    c-6.46,9.27,1.11,17.55-7.98,25.91c-1,5.88,3.19,15.56,0.73,19.87c-4.52,7.91-17.08,15.08-9.74,25.36    c5.66,7.93,12.3,8.57,15.69,18.64c0.51,5.64-6.3,13.76-8,19c6.93-6.63,13.24-15.07,19-23c-4.94-1.81-22.98-14.07-24.35-20    c-1.04-4.48,1.34-7.11,3.35-10.86c8.58-6.89,11.54-7.3,8.25-17.61c-1.84-5.77,2.85-29.67,6.54-35.59    c5.59-8.97,12.28-7.51,18.46,0.2c3.39,10.32,14.61,14.19,16.58,23.87c-3.3,13.11-9.29,18.72,1.18,29c-1.3,8.94-4.55,14.35-14,17    c0.24-1.14,1.07-7.79,1-7c-14.22,12.34,1.95,18.87-13.13,28.26c-25.12,15.65-31.59,47.76-53.88,64.74    c-1.66-9.95-1.18-20.29,1.58-30c-3.1-7.6-4.32-15.83-3.58-24c-13.17,8.68-48.68,38.24-35.68,56.96    c21.87,31.5-36.6,8.4-47.32,13.77c-4.33,3.55-11.4,18.81-17.53,17.18c-5.58-1.48-8.09-5.03-14.47-3.08    c-8.72,6.84-13.59,33.25-24.01,32.46c-7.83-0.59-8.4-5.11-5.99-12.29c-17.63,0.99-41.38-0.82-49.01,19.49    c-7.53,20.06-27.71,63.37-55.99,51.51c11.09-15.76,40.31-28.44,26.18-50.7c-9.33-14.69-28.77-10.27-43.43-9.88    c-18.35,0.49-34.65-2.39-52.53-5.99c-56-11.29-41.06,49.8,3.78,54.57c-9.02-9.67-23.92-14-33.09-26    c-4.83-8.29-5.35-23.27,7.09-23.22c13.85,0.05,34.86-4.24,46.09,7.1c4.9,4.94,1.06,13.01,7.91,15.12c0.75-15.13,0.46-22.65,10-7    c1.53-13.24,7.45-9.72,11,2c4.24-0.31,2.6-8.7,7-12c0,4.76,0.67,9.43,2,14c5.61-3.51,0.8-10.75,6-14c1.85,8.48-3.11,19.03,1,23    c-3.95,6.33-9.63,11.77-12,18c6.89-5.79,15.44-12.89,24-16c4.1,11.37-17.04,29.28-27,30.16c-3.66,0.32-12.76-7.82-16.23-9.35    c-15.06-6.65-21.62-11.51-30.77-25.81c17.64,3.06,36.27,7.57,54,3c-16.49-2.62-72.01-21.96-83-5c12.81,0,9.48-4.32,16.71,6.11    c5.56,8.03,12.3,6.25,18.26,12.7c9.12,9.87-3.07,12.29-7.97,20.19c3.82,0.2,6.38,2.32,7,6c-15.71-3.77-34.89-2.59-49.46-9.31    c-11.45-5.28-14.1-12.14-24.54-10.69c5.86-5.8,1.36-23.94-1.96-31.45c-7-15.86-1.47-18.58-17.04-30.55    c-6.89-11.96-17.45-28.31-34-25.35c-7.76-5-10.04-14.48-18.7-19.36c-18.19-10.24-20.72,7.82-32.3,14.82    c-8-0.67-18.08,0.65-20.5,9.89c-3.05,11.63,12.03,13.51,11.5,23c-9.01-4.14-21.01-10.63-28.38-18    c-5.59-13.62-17.85-19.56-22.91-33.5c-3.21-8.84,12.85-18.3,14.39-28.97c2.29-15.82-9.79-27.98-17.1-40.53    c-2.38,5.55-6.12,9.8-10.12,14.59c-8.11,9.7-6.68,27.95-18.88,16.41c3.25,9.8,6.53,19.72,11.7,28.72    c4.3,7.48,12.31,12.25,16.23,19.34c3.07,5.56-2.58,7.84-7.93,7.93c-0.81-2.36-2.64-4.19-5-5c-1.69,12.76,7.77,14.33,18.48,14.12    c8.25-0.16,9.77,3.23,14.59,10.27c8.28,12.09,8.08,18.42,22.92,23.61c-2.22,1.95-3.55,4.28-4,7c-10.27-5.16-17.84-12.47-26-19    c1.35,10.23,12.66,14.31,7,23c14.94-4.37,30.52,7.16,40,18c16.86-6.14-13.67,5.65-11,5h10c-11.47,6.4,3.07,14.28,3,26    c4.44-3.45,26.98-15.52,22.26,1c-5.09,17.83-52.38-3.32-43.26-26c-6.71,2.05-12.68,0.35-18,3c8.23,0.36,8.64,4.91,9.34,12    c5.04,10.21,15.18,17.12,26.13,19.6c11.57,2.62,23.66,1.1,30.79-8.82c8.46-11.77,17.26-8.44,30.74-4.78    c-0.45-4.92-1.6-11.25-2-15c7.86,4.59,39.68,14.18,46,4c1.62,5.88-1.07,10.27-8,10c0.33,3.98,2.33,7.32,6,10    c-7.16-0.7-30.58,1.13-25-13c-5.06-1.68-10.58,2.48-13,6c2.25,3.08,4.92,5.75,8,8c-2.75,0.89-2.7,0.75-5,1    c15.97,18.19-10.36,16.72-5,1c-6.15-0.08-10.47,3.76-8.8,9.5c1.02,3.5,4.5,6.24,7.8,7.93c15.19,2.15,27.01-3.28,40.88,7.29    c9.87,7.52-19.23,14.33-10.38,21.24c8.85,6.91,29.72,11.41,38.5,4.04c-8.79,0.22-22.15,3.44-13-8c-4.83,1.97-9.83,3.3-15,4    c-1.44-31.12,31.48-12.62,41.35-0.3c21.11,26.35,38.28-10.3,57.15-16c7.31-2.21,16.09,16.45,19.82,20.99    c13.03,12.03,30.83,8.95,44.82,0.5c4.84-2.93,12.52-14.02,18.62-9.44c9.32,7.01,12.05,22.38,27.25,18.26    c-12.36-1.95-30.85-20.25-12-28c2.09,7.61,22.81,35.03,28,23c-12.38-1.68-23.35-13.05-23-26c7.71,3.26,29.25,23.66,38,20.64    c9.05-3.13,5.67-12.66-1.04-16.01c-13.93-6.94-35.02,3.27-45.97-15.84c-2.12-3.71,0.63-2.33,1.02-5.62    c3.21-2.12,6.74-3.14,10.58-3.06c4.62-3.27,1.7-9.88,7.42-14.11c-0.36,5.19,2.05,8.81,7,10c-1.54-18.69,13.88-19.13,25.27-10.58    c23.85,17.91,55.45,16.82,83.73,15.58c-14.06-4.29-23.08,0.12-37.31-2.58c-13.65-2.59-35.9-1.52-20.24-14.97    c3.96-3.4,6.29-11.69,11.55-13.21c3.65-1.06,10.41,5.21,16.03,5.03c13.02-0.4,20.84,3.64,32.91-4c3.8,0.56,4.15-0.51,6.88,3.23    c2.8,3.84,5.22,11.29,7.18,15.7c0.79,1.77,6.66,1.21,7.18,4.82c-0.73,5.13-5.1,5.51-9.18,7.35c-3.25,2.99-6.27,6.2-9.06,9.63    c-9.58,2.25-15.7-2.05-25.15,1.81c-16.56,6.77-24.54-10.9-41.79,0.84c-15.77,1.91-20.29-31.48-43-27.65    c6.99,7.21,18.23,9.01,24.93,19.38c2.45,3.79,4.56,9.36,9.07,11.62c8.16,1.65,18.67-4.27,25.18-2.64    c11.11,18.51,25.16,3.95,40.29,4.46c13.91,0.47,26.61-8.32,36.66-17.6c6.27-5.8,3.85-9.01,1.53-14.47    c-11.33-5.45-13.88-19.82-26.66-21.67c-6.45-0.93-15.33,10.08-20.11,3.92c-5.92-7.79,6.76-13.51,11.04-15.87    c5.96-3.77,4.29-5.16,9.81-5.76c9.08,10.09,25.2,1.28,36.64,4.5c17.96,5.07,21.27-10.65,35.57-11.84    c14.55-1.21,13.98-7.38,26.09-15.5c18.28-12.24,23.01-58.32-9.18-47.58c-3.23,1.08-18.24,7.21-17.06-2.46    c1.04-8.55,5.32-21.9,13.18-26.5c0.2,9.07-7.1,17,6,17c11.59-4.45,22.17-11.27,31-20c16.53-0.4,25.34-5.66,35.94-18    c8.43-17.65-15.75-9.25-20.63-5.13c-11.82,9.98-25.43,37.31-42.75,36.13c17.48-24.62,17.93-49.12,46.1-66.45    c12.87-7.92,17.33-17.69,33.33-13.39c12.59-5.07,12.09-16.38,21-23.7c12.76-2.31,25.9-11.51,24.42-25.69    c-0.46-4.45-4.57-11.22-3.78-15.27c1.17-6,6.4-10,7.82-16.5c0.05-13.2-12.19-14.1-22.08-11.53c-11.75,3.05-18.68-3.64-31.38,0.53    c4.12-17.3,19.54-21.04,33-28.61c15.87-13.03,4.08-30.01,7-46.39c-8.66,7.33-23.75,6.25-28,19c9.65-4.99,21.25-14,26,3    c-12.29,3.14-15.37,2.87-28-1c-5.59,9.25-6.4,18.11-1.37,28c-1.52,7.55-14.08,18.83-18.63,27c-1.73-20.31,0.95-45.57,6.28-65.48    c3.63-13.54,8.59-26.68,12.29-40.2c4.18-15.24,9.18-4.18,15.42-15.32c-7.33,0.57-28.43-9.88-19-19.96    c5.97-9.55,24.3,7.87,24,15.96c16.61-10.46,8.55-40.17,8-56c-7.89,2.83-26.44,20.4-30.9,27.35c-7.55,11.76-6.13,20.95-0.86,33.65    c-0.55,4.22-2.08,8.06-4.58,11.51c-8.46,5.89-6.25,12.78-10.66,21.49c-16.41-27.59-17.42-75.18-12-106    c-8.84,0.63-13.97,1.07-16.82-11c5.17-14.04-3.29-20.14-9.07-31.92c-3.08-6.29-11.45-7.03-13.54-14.08    c-1.98-6.72,6.38-12.79,1.21-18.94c-16.92-14.33-4.02-14.14-9.78-32.06c-4.44,3.17-7.01,9.87-9,16c-15.31-10.71-4.55-22.56-9-38    c4.15-18.55-6.3-20.68-11.67-36.64c-3.96-11.76-2.65-29.65-9.54-39.83c-4.33-6.4-14.46-8.22-20.79-11.53    c-3.67,18.14-8.49,48.49,18,51.63c15.45,13.07,8.46,30.2,15,47.38c-10.62,1.93-9.96-30.11-22-36    c1.17,23.76-19.52-14.28-22.24-20.14c-9.59-20.69-9.73-4.69-21.76-0.86c12.63-40.37-7.32-66.95-36.33-92.12    c-17.12-14.85-33.78-10.34-52.67-10.12c-12.26-5.4-28.74-1.63-29,13.24c-8.8-6.19-17.74-12.16-26.58-18.28    c-3.81-4.91-3.19-11.49-6.74-16.72C515.43,4.15,495.61,5.78,479.72,8.31  M409.72,31.31c3.67-2.34,27.02-44.38,34.67-21.96    c1.47,4.31-1.81,6.77-4.08,10.22c-4.36,6.64,1.72,12.59-2.56,18.57c-3.09,4.33-10.81,4.75-14.69,6.63    c-2.76,1.95-2.19,6.57-4.23,9.09c-5.83,7.21-21.87,4.29-29.85,8.14c-8.77,4.23-19.64,5.53-25.26-2.7    c-4.93-19.34,9.91-15.74,7.41-34c7.02-8.9,13.3-6.29,21.76-14.2c4-2.43,4.16-13.36,11.01-5.85    C415.77,18.26,412.15,11.67,409.72,31.31  M179.72,161.31c-4.87-23.1,29.1-50.8,34-74c-18.5-7.98-23.12,28.2-31,33    c-0.42-11,3.51-23.94-10-25c-3.03,21.59-4.96,43.31-7.1,65.01c-1.34,13.54-8.04,12.07-9.9,22.99    c-14.35-14.93-40.8-60.56-54.05-19.5c-2.4,7.43-16.83,7.58-21.34,14.52c-9.07,13.96-1.37,14.04-18.04,25.26    c-4.7,7.94,1.03,14.5,0.43,22.72c-8.97,18.46,3.42,30.86,10.56,48c7.54,18.09-5.03,44.18-8.24,62.42    c-4.05,23.05-7.15,46.28-9.32,69.58c-1.51-4.56-2.78-11.83-6.56-16c-4.96-2.58-10.61-6.15-10.74-12.47    c-0.13-6.11,6.09-6.85,9.7-10.83c7.71-8.52,4.32-18.11,1.5-28.04c-2.4-8.45-7.26-25.72-15.49-30.2    c-4.3-2.34-12.3,16.42-13.98,19.94c-13.46,28.17,9.93,41.03,17.58,65.6c-5.66-1.18-9.5-4.02-15-4    c8.85,12.51,24.63,8.96,28.91,28.03c3.25,14.48,9.7,24.88,10.09,40.97c-9.29-10.1-20.67-19.18-31.38-27.22    c-7.06-5.3-18.23-4.77-22.87,3.22c-1.28,2.2-0.96,5.55-1.75,8c3.91,12.86-1.19,16.92-5.72,29c-0.02,5.94,0.68,7.12,4.62,12.71    c7.1,10.06,1.43,8.88,2.47,19.29c0.95,9.54,12.36,11.24,17.15,18.02c5.15,7.28,2.39,10.56,11.48,15.43    c15.85-2.66,29.94,17.9,38.73,28.41c13.93,16.66,19.38,39.06,26.27,59.14c-16.04-3.69,5.42,13.08,7,15    c-19.7,3.96-34.99-18.27-33.2-35c-5.01-25.58-20.51-22.5-36.06-35c-8.65,2.64-6.56,31.32-1.82,40.02    c5.24,9.61,15.32,14.26,26.07,12.31c10.26,3.98,20.6,12.42,29.72,18.79c10.81,7.56,47.77,34.87,14.36,38.25    c-11.97,1.21-14.6,2.48-20.99,12c-6.56,9.77,7.66,16.68,10.2,24.13c3.74,10.99,1.82,19.1,13.71,25.89    c12.44,3.62,16.73,3.34,28.68,9.54c10.81,5.61,16.06-4.6,25.32-2.15c10.86,6.26,13.34,14.23,27,11.22    c-9.43-8.49-24.22-18.93-37.42-12.87c-12.37,5.68-18.79-8.67-30.52-10.07c-14-1.67-14.37-7.61-18.13-20.49    c-2.32-7.92-16.4-17.56-11.89-25.36c5.23-9.06,9.58-4.35,19.96-5.87c13.49-3.75,12.43-12.21,23.26,4.67    c9.51,4.73,8.76-0.04,19.74-1c-8.98-4.45-11.91-10.96-13-22c-2.13,1.61-3.13,3.94-3,7c-10.3-5.02-19.44-13.32-24-24    c6.58,5.51,10.91-2.02,12-5c1.28,7.91,0.46,15.25,5,19c0-16.92,0.13-17-4.52-27.52c-6.23-9.15-15.35-18.19-19.99-27.48    c-3.13-6.26,4.67-8.16-2.11-14.99c-4.87-4.9-11.4-2.83-14.44-11.01c-1.55-6.06,6.38-10.19,5.69-16    c-10.72-18.57-2.28-15.54,3.95-31.5c2.85-7.29-4.53-13.29,1.76-18.82c10.98-9.66,20.04,12.04,27.66,16.78    c22.64-3.47,14.03,9.24,17.96,21.54c2.24,7.01,7.95,9.14,9.43,16c0.43,2.02-4.02,4.89-3.89,7c0.7,2.49,5.85,13.9,4.75,16    c-1.55,2.95-5.99,5.59-8.34,8.02c-1.96,4.08,1.98,8.04,1.19,12.48c-0.33,1.89-1.98,6.96-5.1,5.98c-8.4-2.63-2.82-27.89-1-33.48    c-2.09,1.68-4.39,3.85-6,6c-4.96-12.24-2.83-21.88,2-34c-4.67-0.54-8.79,4.48-11,8c-3.09-9.46,0.15-13.78,1-23    c-2.76,0.22-3.58,2.12-5,4c-3.44-4.77-5.76-17.79-13-16c1.94,5.25,3.61,10.58,5,16c-3.42-2-7.09-3.34-11-4    c5.83,9.83,14.99,15.55,18,27c-5.05-2.14-17.81-11.19-22-5c13.18,3.75,23.92,13.85,28,27c-6.29-1.69-8.98-3.93-15-4    c8.7,9.67,17.64,11.18,20.68,25.04c2.14,9.77,2.81,22.33,8.32,29.96c4.01-21.17,27.35-38.82,21.22-61    c1.48-10.8,7.38-10.69,0.8-20.7c-6.23-9.49-8.94-24.57-16.17-32.04c-5.75-5.94-11.02-4.52-17.85-8.05    c-5.22-6.5-12.48-11.29-20.64-13.16c-15.24-3.5-27.39,11.37-25.15-17.03c0.64-1.23,1.04-2.07,2-3    c12.52-0.28,19.24-3.95,24.89-15.26c6.97-13.97,2.34-28.31,1.9-42.77c-6.42,10.66-22.48,10.41-32.72,18.25    c-10.7-3-1.44-27.76,2.24-34.25c-0.23-8.67,0.25-20.03,6.05-27c7.89-9.48,18.68-4.51,28.61-9.3c7.28-3.51,8.6-5.65,9.49-12.69    c6.15-6.03,13.72-7.29,16.16-16.86c2.08-8.14,9.05-11.68,10.55-19.16c1.51-7.57-0.8-15.16,0.13-22.97    c1.16-9.78-0.61-13.26-9.51-18.97c-5.32-1.81-21.49-6.27-26.48-2.58c-5.5,18.84-6.18,14-17.52,21.66    c-6.87,4.65-8.32,1.59-10.82,11.46c-1.69,6.65-1.11,11.02-8.18,12.4c9.28-23.24,23.45-44.13,34-67c26.38,23.76,46.3-11.78,54-33    c-14.85-3.15-27.59,1.86-41.46,5.32c1.06-10.1,16.74-17.09,25.86-20.89c13.24-5.52,4.47-5.1,11.19-13.03    c3.98-4.7,12.59,3.94,14.41,5.1c6.1,1.58,8.35,1.54,15.09-0.23c11.45-3,14.04,3.17,25.35,1.91c9.86-1.09,13.24-5.83,23.4-5.25    c9.95,0.57,15.7-3.25,22.52-10.43c5.84-6.15,25.8-16.05,23.78-26.58c-3.24-16.85-32.6-18.83-47.14-17.64    c-12.36,6.63-17.36,9.35-27.5-0.78c-2.04-2.04-2.12-3.9-0.52-6.33c7.23-10.97,32.91-20.08,44.54-25.93    c23.15-11.64,36.68-19.74,56.13,0.78c8.11,8.56,14.28,10.52,26.35,11.04c4.3,3.53,8.45,8.2,14,9.33c6.49,1.32,13.66-2.9,19-6.31    c5.32,1.59,14.15,3.26,19.47,0.93c6.18-2.7,23.68-12.68,28.21-17.25c3.49-3.52,3.29-8.35,1.51-12.76    c-4.45-11.02-16.98-8.09-22.47-19.98c-9.73-5.46-14.71,0.97-24.72-0.3c-15.28-7.95-16.18-1.41-31.5-1.25    c-4.87,0.05-10.8-1.8-10.53-7.4c0.51-10.52,21.81,0.19,26.11-1.5c29.71-11.65,58.62-0.81,80.87-30.58    c5.45-14.75,16.21-44.04-11.73-39.93c-10.09,1.48-12.85,3.49-22.55,0.15c-7.49-2.58-10.87-1.79-17.68,1.53    c-4.71,1.68-10.22,8.92-16.26,11.38c-15.96,6.52-7.76,16.53-20.11,27.15c-1.15,2.24-1.29,11.61-3.97,12.36    c-16.57,4.64-13.1-15.51-14.42-27.39c-2.24-20.2-21.51-20.82-35.13-7.09c-7.68,7.75-16.63-1.24-23.73,6.07    c-4.72,4.85-5.46,12.17-11.04,15.88c-8.47,5.63-18.82,6.47-20.34,18.88c1.62,8.38,8.67,14.71,1.05,21.64    c-5.91,5.38-11.37,4.8-11.66,13.86C236.28,121.56,192.05,138.68,179.72,161.31"/></g><g id="club"><path d="M3.35,4.66c0-1.81-1.51-3.28-3.38-3.28s-3.38,1.47-3.38,3.28c0,1.81,1.51,3.28,3.38,3.28S3.35,6.47,3.35,4.66z"/><path d="M7.71-1.55c0-1.81-1.51-3.28-3.38-3.28S0.95-3.36,0.95-1.55c0,1.81,1.51,3.28,3.38,3.28S7.71,0.26,7.71-1.55z"/><path d="M-0.95-1.57c0-0.66-0.2-1.28-0.55-1.8c-0.6-0.89-1.65-1.48-2.83-1.48c-1.87,0-3.38,1.47-3.38,3.28  c0,1.81,1.51,3.28,3.38,3.28S-0.95,0.24-0.95-1.57z"/><path d="M3.94-7.94c-1.67,0-2.55,1.36-3.01,2.72C0.47-3.86,0.43-2.5,0.43-2.5h-0.86c0,0-0.16-5.43-3.5-5.44H3.94z"/><path d="M-2.32,2.25c1.9-1.9,1.9-4.75,1.9-4.75l0.85-0.01c0,0,0,2.91,1.85,4.76"/><path d="M-1.94-3.85c1.9,1.9,4.75,1.9,4.75,1.9v0.85c0,0-2.91,0-4.76,1.85"/><path d="M1.87-3.86c-1.9,1.9-4.75,1.9-4.75,1.9v0.85c0,0,2.91,0,4.76,1.85"/></g><g id="base"><path style="fill:#FFFFFF;stroke:#000000;stroke-width:2.5" d="M 0,0C0,3.78 3.09,6.87 6.87,6.87L159.715,6.87C163.485,6.87 166.575,3.78 166.575,0L166.575,-228.4C166.575,-232.18 163.485,-235.27 159.715,-235.27L6.87,-235.27C3.09,-235.27 0,-232.18 0,-228.4L0,0 z"/></g><g id="ace"><text transform="scale(0.56453 1.05741)" font-family="Bitstream Vera Serif" font-weight="bold" font-size="43">A</text></g></defs><g id="1_club" transform="translate(-0.0,-0.0)"><use xlink:href="#base" x="0" y="0" xlink:type="simple" xlink:show="embed" xlink:actuate="onLoad"></use><use xlink:href="#ace" x="4" y="-199.117" xlink:type="simple" xlink:show="embed" xlink:actuate="onLoad"></use><use xlink:href="#ace" x="163.575" y="-30.28" transform="rotate(180,163.575,-30.28)" xlink:type="simple" xlink:show="embed" xlink:actuate="onLoad"></use><use xlink:href="#club" x="13.65" y="-185.117" transform="rotate(180,13.65,-185.117)" xlink:type="simple" xlink:show="embed" xlink:actuate="onLoad"></use><use xlink:href="#club" x="153.925" y="-44.28" xlink:type="simple" xlink:show="embed" xlink:actuate="onLoad"></use><use xlink:href="#club" x="34.9115" y="-50.6536" transform="scale(2.4) rotate(180,34.9115,-50.6536)" xlink:type="simple" xlink:show="embed" xlink:actuate="onLoad"></use><use xlink:href="#laurel" transform="matrix(8.75e-2,0,0,8.75e-2,44.623,-159.8)" xlink:type="simple" xlink:show="embed" xlink:actuate="onLoad"></use></g></svg>