<?xml version="1.0" encoding="UTF-8"?>
<svg xmlns="http://www.w3.org/2000/svg" xmlns:xlink="http://www.w3.org/1999/xlink" version="1.1" height="263" width="188" viewBox="-1.3 -236.8 188 263" preserveAspectRatio="xMidYMid meet" zoomAndPan="magnify" contentScriptType="application/ecmascript" contentStyleType="text/css"><defs><g id="jack"><text transform="scale(0.56453 1)" font-family="Bitstream Vera Serif" font-weight="bold" font-size="40">J</text></g><g id="jack_4"><g><path style="fill:#1C1585;" d="M460.03,151.86l-1.83-3.23c-0.44-1.47-0.83-2.92-1.53-4.3c-0.44-2.11-0.98-4.13-1.6-6.2c-1.02-7.95-1.92-15.85-2.23-23.87c-2.81-0.93-5.59-1.77-8.46-2.51v0.01l0.17,0.04c-1.61,16,2.22,32.96,4.7,48.68l2.24-0.09c4.17-1.38,8.23-2.47,12.52-3.44l-3.45-4.16l-0.08-0.14l-0.18-0.19L460.03,151.86"/><path style="fill:#1C1585;" d="M453.33,190.36L449,192.9l-6.69,1.52l-8.26-0.57c-5.6-1.77-10.46-3.73-15.71-6.35c-2.63,2.5-5.29,4.92-7.67,7.66c7.09,2.31,13.17,5.96,19.31,10.12c5.22-0.48,10.36-0.87,15.61-0.82l1.55,0.36c0.83-0.03,1.66,0.03,2.48,0.18l2.46-2.83l9.55-7.04C458.97,193.24,456.25,191.84,453.33,190.36"/><path style="fill:#1C1585;" d="M426.03,127.04c0.55-5.58,1.16-11.12,1.34-16.73l-3.34,0.43l-7.54,11.59c-2.03,5.99-3.15,12.3-5.23,18.25c-1.75,5-4.34,9.74-6.5,14.56l-0.21,0.23l-1.63,2.99l2.38,1.95l1.95,0.14l1.62,0.62l2.01-0.09l2.33,0.9l2.38-0.05C420.46,150.45,423.82,139.22,426.03,127.04"/><path style="fill:#E61408;" d="M405.12,154.34c4.14-9.28,7.29-17.96,9.95-27.75l-0.96-0.5c-6.47,9.23-12.31,17.97-17.44,27.99l5.54,3.91c0.85-0.95,1.7-1.9,2.55-2.85L405.12,154.34"/><path style="fill:#F8C20F;" d="M444.37,111.76c-5.59-1.53-11.08-2.03-16.82-1.37c-0.79,13.84-2.63,27.5-7.46,40.57l0.46,0.37c8.87-1.24,17.78-1.65,26.61,0.08c-1.3-11.24-2.15-22.46-3.12-33.73c0.17-1.96,0.33-3.92,0.5-5.88L444.37,111.76"/><path style="fill:#1C1585;" d="M467.3,90.55h-1.24c-0.74,1.45-1.46,2.91-2.22,4.34v1.68h-1.04l-4.19,6.74v1.11h-0.69l-1.08,1.73v8.41c2.55,3.75,5.06,7.5,7.82,11.11l3.25,2.5l1.96,0.68h0.5l2.77-0.63v-1.26l1.68-0.03l2.99-8.73c1.51-1.01,3.05-1.68,4.72-2.38l2.05-2.25l-0.23-0.93l-0.84,0.09l-0.66,0.38l-2.38-2.39c-1.28-2.44-2.19-4.88-3.13-7.47l-0.09,0.03v-6.71h-1.22v-6.02h-0.93 v-7.43h-5.26l-2.53,4.99L467.3,90.55"/><path style="fill:#E61408;" d="M454.59,102.22h-0.03l-0.14,0.31c0.72,1.29,1.5,2.54,2.34,3.75c5.49-8.82,10.32-17.73,15.02-26.99l-4.19-6.08C463.25,82.88,459.05,92.6,454.59,102.22"/><polyline style="fill:#E61408;" points="448.2,88.89 452.55,68.4 452.41,66.71 441.94,82.92 440.31,98.76 446.67,96.1 446.78,95.57 446.66,95.58 448.2,88.89 "/><path style="fill:#E61408;" d="M470.07,128.92c-0.72-0.25-1.44-0.5-2.16-0.75l-3.25-2.5c-2.91-3.8-5.56-7.78-8.25-11.74l-1.33,0.91l-2.25-0.58c0.4,10.21,1.75,20.08,3.83,30.07c1.21,2.71,2.42,5.42,3.63,8.13c1.51,1.58,3.02,3.16,4.53,4.74l1.84-1.04l2.62-2.33l2.09-3.37l0.7-2.96l0.42-7.92l0.83-3.24l2.42-5.46l-0.96-3.04C473.21,128.2,471.64,128.56,470.07,128.92"/><path style="fill:#F8C20F;" d="M507.7,68.78h-0.04V35.46h-0.43c-1.82-3.93-4.08-7.58-6.79-10.95c-2.68-2.24-5.72-3.74-8.87-5.18l-3.79-0.47l-4.5,0.41l-3.9,1.31l-6.55,5.17l-4.1,5.78l-1.91,3.93h-0.34v0.7l-0.07,0.14h0.07v1.31h-0.87v2.51H465v2.02h-0.33 v4.84h-0.74v12.03h0.74v2.21H465v3.45h0.61v2.43l-1.29-2.82l-9.27-1.5l-0.31,0.3l-1,1.75c-2.36,10.25-4.72,20.5-7.08,30.75c0.76-0.05,1.51-0.11,2.27-0.16c1.21,2.43,2.82,4.67,4.65,6.67c0.34,0.04,0.67,0.09,1.01,0.13c4.49-9.7,8.83-19.41,13.02-29.24l-0.93-2.99c1.45,2.93,3.03,5.62,4.77,8.39l4.43,4.07l4.2,2.22l5.38,0.97h3.37l-3.19,0.45l-1,1.41l-0.28,1.48l0.32,2.15l1.51,1.24l0.99-0.72l-0.69-2.45l0.52-1.77l1.87,0.65l0.95,0.16l1.34-1.12l1.83,0.69l0.65,2.71l-1.02,0.35l-0.46,2.14l2.2,0.03l0.95-2.03l0.3-1.72l-0.63-2.19l-1.54-1.68l-1.31,0.06l3.11-0.88l4.91-2.56l3.64-3.78l3-4.37c0.39-1.11,0.7-2.25,0.91-3.41L507.7,68.78M466.48,69.18h-0.05c-0.15-0.57-0.36-1.11-0.62-1.64h0.67V69.18"/></g><path d="M447.25,204.83c-0.69-0.65-2.14-0.5-3-0.5c-1.15,0-2.29,0-3.43-0.06c-1.01-0.05-2.08,0.03-3.09,0.08c-1.1,0.06-2.23-0.04-3.31,0.09c-1.04,0.13-2.18,0.45-3.21,0.48c-0.71,0.02-0.94,0.04-1.54-0.34c-0.5-0.32-0.93-0.7-1.39-1.08c-0.77-0.65-1.83-1.08-2.65-1.69c-0.87-0.65-1.79-1.16-2.75-1.67c-1.85-0.99-3.73-1.93-5.67-2.75c-1.91-0.8-3.89-1.99-5.96-2.3c1.32-2.26,4.13-0.36,5.81,0.47c1.98,0.98,3.96,1.96,5.91,3.01c1.97,1.07,3.76,2.54,5.67,3.72c0.97,0.6,1.83,1.05,2.99,0.89c1.04-0.15,2.09-0.19,3.14-0.29c1.15-0.11,2.31-0.07,3.47-0.07c1.06-0.01,2.08-0.18,3.15-0.09c2.08,0.18,4.19,0,6.27,0.2c0.54,0.05,1.11,0.22,1.6-0.09c0.4-0.26,0.77-0.75,1.1-1.11c0.79-0.87,1.66-1.65,2.49-2.48c1.55-1.54,3.43-2.73,5.21-3.99c0.5-0.35,0.95-0.6,1.51-0.85c0.34-0.15,1.11,0.31,1.45,0.43c-0.96,0.91-2.11,1.52-3.22,2.23c-1.1,0.7-2.06,1.63-3.07,2.45c-1.06,0.85-2.07,1.79-3,2.78c-0.84,0.89-1.5,2.58-2.96,2.54c1.46,1.89,3.64-2.3,4.54-3.02c1.71-1.38,3.34-2.93,5.14-4.17c1.01-0.7,2-1.46,3.07-2.06c0.17-0.1,1.01-0.46,0.96-0.6c-0.18-0.53-0.56-0.84-1.04-1.1c-0.95-0.53-2.02-0.84-2.96-1.39c-1.01-0.58-2-1.19-2.97-1.83c-0.37-0.24-0.75-0.52-1.16-0.69c-0.55-0.22-0.11-0.66,0.04-1.14c0.33-1.05,0.37-2.15,0.37-3.25c0-0.98-0.41-2.15,0.41-2.96c0.74-0.72,1.71-1.47,2.01-2.48c0.17-0.56,0.31-0.97,0.18-1.56c-0.08-0.39-0.54-1.17-0.39-1.54c0.43-1.03,0.94-2.07,0.74-3.23c-0.19-1.07-0.45-2.28-0.42-3.36c0.03-0.94,1.38-1.72,1.86-2.52c0.37-0.62,0.62-1.25,1.02-1.85c0.33-0.5,1.15-0.36,1.71-0.41c1.34-0.12,2.7-0.83,3.05-2.24c0.09-0.34,0.47-1.53,0.07-1.84c-0.48-0.37-1.05,0.86-1.36,1.06c-0.62,0.42-1.11,0.89-1.89,0.89c-0.61,0-1.18-0.27-1.75-0.46c1.31-1.06,2.56-2.03,3.71-3.27c1.24-1.34,2.91-1.26,4.54-0.98c-0.16-0.79-1.07-1.41-1.75-1.75c1.73-1.58,3.35-3.03,4.44-5.14c1.04-2,1.8-3.92,1.81-6.19c0-2.25,0.22-4.5,0.28-6.76c0.06-2.15,1.56-3.87,2.28-5.81c0.33-0.89,0.78-2.01,0.62-2.97c-0.18-1.12-0.45-2.21-0.63-3.34c-0.07-0.41,0.36-1.18,0.49-1.57c0.16-0.5,0.37-0.96,0.59-1.45c0.43-0.95,0.74-1.95,1.1-2.93c0.31-0.85,0.57-2.33,1.35-2.88c0.86-0.6,2.05-0.62,2.93-1.24c0.96-0.67,1.75-1.49,2.58-2.32c0.66-0.66,1.23-1.63,2.16-1.91c0.07,0.75-0.29,1.46-0.5,2.16c-0.28,0.91-0.47,1.74-0.49,2.7c-0.02,0.74,0.04,1.96,0.57,2.49c0.55,0.54,1.72,0.4,2.41,0.41c-0.61-0.51-1.54-0.41-2-1.26s-0.13-2.1,0.03-2.96c0.16-0.9,1.1-4.85,2.47-4.38c0.95,0.33,1.1,1.78,1.26,2.57c0.16,0.8,0.36,1.74,0.17,2.55c-0.13,0.52-0.32,0.77,0.29,0.91c0.38,0.09,0.79,0.28,1.18,0.22c1.04-0.16,1.71-0.45,1.6-1.66c1.22,0.66,1.22,2.98-0.27,3.29c-1.34,0.28-2.86,0.41-4.23,0.46c0.62,0.53,1.9,0.15,2.61,0.05c0.87-0.12,2.07,0.11,2.81-0.49c0.82-0.66,0.84-1.54,2.05-1.58c1.03-0.03,2-0.26,2.96-0.62c1.67-0.62,3.82-1.67,5.09-2.96c0.61-0.62,1.51-1.31,1.91-2.09c0.54-1.06,0.71-1.88,0.82-3.07c-0.27,0.27-0.38,0.66-0.52,1c-0.2,0.5-0.54,0.94-0.82,1.39c-0.48,0.76-1.24,1.5-1.92,2.09c-1.63,1.43-3.46,2.36-5.42,3.26c-0.96,0.45-1.66,0.69-2.58,0.02c-0.78-0.57-1.63-1.27-2.17-2.08c-0.6-0.91-1.21-1.82-1.75-2.77c-0.57-1-0.72-1.77-0.82-2.91c1.44-0.1,3.15,0.81,4.5,1.25c1.53,0.5,3.09,0.91,4.68,1.15c1.51,0.23,3.24-1.02,4.53-1.71c1.54-0.83,2.16-2.55,2.29-4.19c-0.53,0.25-0.63,0.73-0.75,1.25c-0.46-0.86-0.24-2.13-0.2-3.05c0.03-0.64,0.02-1.27,0-1.9c-0.01-0.53,0.36-1.03,0.45-1.54c-0.78,0.09-1.33,0.68-1.86,1.19c-0.62,0.6-1.18,0.48-1.89,0.81c-0.5-1.6,2.15-2.93,3.22-3.58c0.19-0.11,0.93-0.08,1.03-0.17c0.07-0.07,0-0.59,0-0.68c0-0.33,0.04-0.32-0.3-0.32c-0.82,0-1.68,0.53-2.45,0.75c0.49-0.37,0.98-0.74,1.48-1.11c0.38-0.28,1-0.55,1.18-1.03c0.33-0.87-0.45-0.63-1.12-0.65c-0.5-0.01-1.05-0.3-1.54-0.22c0.25-1.16,1.34-2.02,1.5-3.25c-1.02-0.16-2.17,1.01-2.87,1.6c-0.81,0.69-1.8,1.7-2.88,1.9c2.81-2.81,6.4-6.03,6.75-10.25c-0.68-0.05-1.4,0.19-2,0.5c0-0.67-0.01-1.34,0.11-2c0.11-0.62,0.45-1.39,0.14-2c-1.24,0.37-1.98,1.85-2.65,2.84c-0.79,1.19-1.2,2.57-2.02,3.75c-0.34,0.49-0.93,0.82-1.36,1.24c-0.57,0.54-1.1,1.09-1.63,1.68c-0.81,0.91-1.52,2.13-2.6,2.74c0-0.79,0.01-1.53,0.32-2.26c0.37-0.86,0.65-1.54,0.68-2.49c0.04-1.79-1.05-2.74-1.75-4.25c0.93-0.26,1.94-0.82,2.82-1.26c0.97-0.49,1.9-1.1,2.76-1.78c1.74-1.39,3.44-3.01,4.72-4.83c0.66-0.93,1.33-1.88,1.9-2.88c0.57-0.99,0.76-1.91,1.05-3c0.54-2.04,0.25-4.4,0.25-6.5c0-9.19,0-18.38,0-27.57c0-0.6,0.21-2.93-0.53-2.93c-0.46,0-1.28-2.21-1.49-2.63c-0.89-1.78-2.07-3.51-3.18-5.17c-0.54-0.81-1.07-1.64-1.76-2.33c-0.7-0.7-1.57-1.1-2.21-1.88c-0.57-0.71-1.71-1.46-2.58-1.75c-0.51-0.17-0.9-0.49-1.38-0.73c-0.52-0.26-1.09-0.34-1.63-0.56c-0.97-0.41-2.08-0.72-3.13-0.9c-0.48-0.08-0.96-0.06-1.45-0.06c-0.59,0-1.1-0.2-1.67-0.25c-1-0.09-2.2,0.2-3.17,0.44c-0.99,0.27-2.03,0.45-3.05,0.74c-1.93,0.56-3.68,1.82-5.25,3.04c-0.82,0.63-1.45,1.4-2.17,2.13c-0.69,0.69-1.41,1.38-2,2.17c-0.6,0.8-1.06,1.71-1.56,2.57c-0.53,0.9-1.17,1.72-1.7,2.62c-0.97,1.66-1.96,3.68-2.43,5.55c-0.26,1.03-0.5,2.07-0.84,3.08c-0.34,1.03-0.42,2.11-0.6,3.17c-0.18,1.06-0.27,2.11-0.45,3.17c-0.18,1.1-0.05,1.88-0.71,2.88c-0.71,1.06-1.39,2.17-2.03,3.27c-0.65,1.11-1.47,2.15-2.04,3.3c-1.15,2.3-2.99,4.24-3.98,6.63c2.22,0,4.36,0.52,6.54,0.96c1,0.2,2.52,0.35,3.12,1.29c0.1,0.16,0.59,1.13,0.04,0.99c-0.56-0.14-1.12-0.23-1.69-0.34c-1.08-0.21-2.12-0.37-3.2-0.53c-0.87-0.13-2.42-0.71-3.22-0.14c-0.72,0.51-0.82,2.45-0.98,3.24c-0.2,0.99-0.35,1.99-0.55,2.99c-0.81,4.05-1.85,8.02-2.83,12.03c-0.49,2.02-1,4.02-1.58,6.02c-0.28,0.94-0.56,1.89-0.91,2.81c-0.43,1.11-0.64,2.22-1.98,2.44c0.86-4.31,1.86-8.6,2.87-12.87c0.5-2.11,0.77-4.25,1.27-6.36c0.48-2.03,0.95-4.16,1.29-6.22c0.24-1.45,0.91-3.08,0.82-4.56c-0.88,0.52-1.37,1.9-1.8,2.77c-0.41,0.82-0.36,2.18-0.57,3.1c-0.48,2.09-0.87,4.25-1.27,6.36c-0.81,4.19-1.77,8.34-2.61,12.52c-0.2,0.96-0.42,1.92-0.65,2.88c-0.2,0.82-0.32,1.96-0.77,2.68c-1.04,1.64-3.38,2-5.07,2.7c-0.39-1.26,0.21-2.52,0.25-3.79c0.04-1.34,0.33-2.63,0.5-3.96c0.33-2.59,0.75-5.13,0.75-7.75c-1.28,0.74-1.1,2.72-1.22,4c-0.14,1.5-0.4,3-0.55,4.5c-0.14,1.47-0.42,2.96-0.47,4.43c-0.04,1.17-0.26,3.61-1.76,3.82c0-0.95,0.01-1.87,0.17-2.81c0.14-0.84,0.32-1.87,0.33-2.72c0.02-2.08,0.25-4.13,0.25-6.22c-1.06,0.62-1.79,2.3-2.45,3.3c-0.28,0.42-0.63,0.84-0.85,1.3c-0.23,0.5-0.18,0.31,0.19,0.64c0.19,0.17,0.42,0.35,0.57,0.55c0.4,0.53,0.96,1.11,0.63,1.78c-0.31,0.63-1.02,1.12-1.27,1.73c-0.1,0.24-0.41,0.7-0.4,0.96c0.01,0.28,0.42,0.76,0.56,1c0.3,0.54,0.76,1.11,0.77,1.75c-0.79-0.42-3.12-2.3-2.62-3.26c0.35-0.68,1.21-1.39,1.42-2.07c0.23-0.75-0.09-1.45-0.3-2.17c-0.83,0.63-0.5,1.86-1.24,2.59c-0.76,0.75-1.65,1.34-2.01,2.41c1.46,0.21,3.01,1.88,3.5,3.25c-0.52-0.03-0.94-0.03-1.42-0.22c-0.48-0.19-0.9-0.56-1.38-0.77c-0.86-0.38-1.75,1.11-2.69,0.49c-0.09,0.33-0.2,0.66-0.25,1c1.63,0,3.42,0.11,5,0.5c-0.36,0.57-0.58,1.24-0.97,1.78c-0.63,0.89-0.95,1.37-2.09,1.45c-1.64,0.12-3.3,0.27-4.94,0.27c0.49,0.72,2.09,0.35,2.82,0.3c1.22-0.09,2.46-0.05,3.68-0.05c-0.19,1.24-2.3,0.9-3.18,0.96c-1.27,0.09-2.54,0.24-3.82,0.29c0.48,0.41,1.41,0.25,2,0.23c0.81-0.03,1.64-0.08,2.44-0.17c0.73-0.08,1.95-0.13,2.45,0.49c0.37,0.45,0.97,1.88-0.03,2.03c-1.79,0.27-3.61,0.17-5.42,0.17c-0.8,0-1.59,0.21-2.38,0.35c-0.65,0.11-1.65,0.1-1.82,0.9c0.59-0.11,2.56-0.71,2.87,0.06c0.27,0.68,0.38,0.95,0.29,1.67c-0.06,0.51-0.16,1.04-0.16,1.55c0,2.21-0.13,4.48-0.46,6.67c-0.15,0.99-0.2,2.09-0.28,3.1c-0.09,1.1-0.39,2.18-0.47,3.27c-0.14,2.15-0.77,4.26-1.17,6.37c-1.62,8.54-4.33,17.02-7.71,25.02c-0.21,0.51-0.47,1.01-0.71,1.51c-0.18,0.38-0.29,1.09-0.73,0.94c-0.39-0.13-0.85-0.07-1.25-0.05c-0.65,0.03-1.1-0.07-1.73-0.24c-0.51-0.13-0.98-0.26-1.5-0.32c-0.58-0.06-1.18,0.07-1.75-0.01c-0.51-0.07-1.06-0.34-1.56-0.49c-0.54-0.16-1.09-0.22-1.63-0.4c-1.05-0.35-2.12-0.88-1.68-2.15c0.34-0.97,1.13-1.93,1.61-2.85c1.01-1.93,2.05-3.89,2.9-5.9c3.38-8.01,6.11-16.35,7.7-24.91c0.1-0.55,0.16-1.03,0.16-1.59c-0.83,0.49-1.37,1.68-1.88,2.45c-0.63,0.96-1.22,1.94-1.85,2.89c-1.27,1.92-2.55,3.83-3.9,5.7c-1.33,1.84-2.64,3.69-3.96,5.54c-1.24,1.74-2.57,3.57-3.15,5.67c0.59-0.4,0.93-1.28,1.29-1.88c0.43-0.72,0.95-1.38,1.43-2.05c0.44-0.61,0.82-1.26,1.29-1.85c0.44-0.56,1.08-1.22,0.99-1.98c0.5,0.08,1.08,0.51,1.17-0.21c0.07-0.6,0.22-1.2,0.33-1.79c0.22,0.35,0.43,0.72,0.75,1c0.45-0.84,0.5-1.82,0.5-2.75c0.11,0.22,0.25,0.58,0.25,0.83c0,0.13-0.08,0.42,0.08,0.42c0.37,0,0.41,0.08,0.45-0.3c0.07-0.76,0.22-1.43,0.22-2.2c0.27,0.31,0.59,0.65,1,0.75c0-0.52,0.13-1,0.25-1.5c0.17,0.29,0.38,0.25,0.67,0.25c0.16,0,0.1-0.54,0.1-0.69c0.01-0.36,0-1.34,0.23-1.56c0.05-0.05,0.37-0.02,0.49-0.1c0.15-0.09,0.24-0.31,0.29-0.48c0.18-0.55,0.33-1.11,0.47-1.67c0.48,0.93,0.09,1.87-0.16,2.81c-0.3,1.08-0.55,2.18-0.9,3.25c-0.67,2.03-1.23,4.09-1.91,6.12c-1.46,4.36-3.15,8.74-5.23,12.84c-0.87,1.73-1.81,4.11-3.5,5.13c-0.18,0.11-1.18-0.34-1.36-0.49c-0.41-0.34-0.79-0.72-1.17-1.08c-0.89-0.84-1.39-1.51-2.01-2.57c-0.57,0.34-0.9,0.96-1.25,1.5c0.9,0.47,1.55,1.34,2.32,1.98c0.99,0.82,2.01,1.57,3.04,2.33c0.49,0.37,2.21,0.99,2.29,1.69c0.05,0.42-0.51,1.13-0.75,1.46c-0.35,0.47-0.53,0.96-0.59,1.54c-0.14,1.21,0.23,2.27,0.64,3.39c0.37,1.01-0.11,2.13,0.68,3.1c0.76,0.93,1.84,1.03,2.86,1.38c0.78,0.27,1.9,1.63,2.1,2.42c0.29,1.12,0.71,2.16,1.9,2.56c0.49,0.17,1.08,0.13,1.59,0.14c0.65,0.01,0.89,0.33,1.23,0.82c0.62,0.91,1.24,1.57,2,2.36c0.91,0.95,1.56,1.62,1.84,2.95c0.22,1,0.05,2.1,0.11,3.13c0.03,0.47,0.14,0.98-0.13,1.4c-0.35,0.53-0.72,1.01-1.13,1.5c-1.4,1.71-2.89,3.16-4.63,4.53c-0.2,0.15-2.44,1.97-1.79,2.09c0.99,0.19,1.91,0.67,2.83,1.06c2.19,0.93,4.33,1.96,6.51,2.9c1.87,0.8,3.74,1.95,5.45,3.04c0.98,0.63,1.91,1.28,2.81,2.02c0.86,0.71,1.58,1.51,2.73,1.64c1.23,0.15,2.58-0.38,3.82-0.46c1.43-0.09,2.8-0.21,4.25-0.22c1.45-0.01,2.88-0.25,4.33-0.25C444.3,204.83,445.78,204.83,447.25,204.83M457.5,193.83c-0.88,0.42-1.7,1.17-2.44,1.79c-0.89,0.74-1.8,1.44-2.67,2.2c-0.82,0.72-1.57,1.5-2.35,2.27c-0.39,0.39-0.79,0.77-1.19,1.15c-0.29,0.28-1.2,0.32-1.59,0.33c-0.53,0.02-1.08-0.12-1.59-0.22c-0.5-0.09-1.03-0.02-1.54-0.03c-1.13-0.03-2.24-0.15-3.37-0.16c-2.18-0.02-4.34,0.29-6.5,0.41c-1.07,0.06-2.11,0.23-3.18,0.28c-1.04,0.04-2.06-0.86-2.9-1.4c-1.81-1.17-3.56-2.47-5.49-3.46c-1.97-1.01-3.9-2.11-5.94-2.96c-0.82-0.34-2.7-0.86-2.02-2.04c0.52-0.91,1.56-1.71,2.28-2.46c0.37-0.38,0.87-0.65,1.31-0.95c0.42-0.29,0.95-0.04,1.37,0.18c0.93,0.48,1.84,0.98,2.75,1.5c1.91,1.09,3.99,2.05,6.11,2.63c2.1,0.57,4.21,1.38,6.37,1.63c2.22,0.26,4.38,0.51,6.62,0.53c2.99,0.02,5.83-0.87,8.55-2.03c0.72-0.31,1.43-0.64,2.1-1.05c0.67-0.42,1.21-0.9,2.02-0.66C455.26,191.64,457.47,192.49,457.5,193.83M423.25,169.58c0-0.67,0.01-0.67,0.45-1.11c0.46-0.46,0.55-1,0.71-1.6c0.11-0.43-0.19-1.1-0.29-1.51c-0.11-0.5,0.21-1.03,0.19-1.54c-0.04-1.08-1.46-1.81-0.51-2.9c0.7-0.8,1.75-1.46,2.65-2.02c3.69-2.31,8.37-3.1,12.58-2.18c1.39,0.3,3.49,0.67,4.53,1.75c0.51,0.53,1.48,1.17,1.57,1.92c0.11,0.9,0.12,1.77,0.12,2.68c-0.82,0-1.26-0.8-1.88-1.19c-0.71-0.45-1.54-1.03-2.37-1.22c-1.63-0.39-3.65-0.01-5.25,0.39c-3,0.75-7.11,2.18-8.75,5.03c3.47-3.16,7.61-4.64,12.23-5.14c2.33-0.25,4.09,1.44,5.37,3.14c1.39,1.85,2.78,3.61,3.79,5.7c0.82,1.68,0.87,3.71,1.27,5.51c0.22,0.99,0.25,1.93,0.39,2.93c0.14,1.03-0.01,1.86-0.05,2.87c-0.56-0.34-1.1-0.86-1.75-1c0.12,0.23,0.48,1.23,0.12,1.26c-0.87,0.06-1.4,0.11-2.18,0.47c-0.51,0.24-1.21,0.59-1.57,1.02c-0.35,0.42-0.38,1.03-0.62,1.5c-0.48-0.21-1.01-0.69-1-1.25c1.5-0.02,1.33-2.3,2-3.25c-1.22,0.23-1,2.01-2,2.25c0.05-1.19,0.25-2.34,0.25-3.54c0-0.64,0.04-1.27,0.08-1.91c0.04-0.58,0.54-1.1,0.66-1.67c0.14-0.65-0.25-1.01-0.79-1.34c-0.4-0.25-1.28-0.79-1.74-0.7c-0.68,0.14-1.3,0.31-1.99,0.27c-0.66-0.05-1.34-0.07-1.98,0.15c0.91,0.46,2.02,0.64,2.94,0.27c0.57-0.22,0.9-0.2,1.48-0.06c0.85,0.2,0.83,0.3,0.87,1.16c0.05,1.13-0.14,2.19-0.25,3.31c-0.11,1.07,0.04,2.13-0.14,3.19c-0.17,0.99-0.42,2.2-0.32,3.2c0.1,0.99,0.67,2.4,1.72,2.83c2.12,0.86,4.49,0.92,6.46-0.33c0.17-0.1,0.31-0.23,0.5-0.32c0.44,0.86,0.25,2.02,0.25,2.96c0,1-0.29,2.22-1.33,2.63c-2.12,0.84-4.16,1.38-6.42,1.67c-0.46,0.06-0.95,0.22-1.41,0.16c-0.53-0.06-1.08-0.16-1.62-0.16c-1.17-0.01-2.27-0.01-3.42-0.24c-1.02-0.2-2.06-0.12-3.09-0.37c-1.08-0.26-2.2-0.48-3.24-0.86c-0.96-0.35-2.37-0.6-2.95-1.51c-0.6-0.94-1.07-1.96-1.42-3.02c-0.69-2.09-0.8-4.38-1.11-6.55c-0.32-2.22,0.38-4.51,0.92-6.64c0.47-1.85-0.7-4.24-2.47-4.98C423.38,169.63,423.32,169.6,423.25,169.58M452,190.33c-0.57-1.17,0.18-1.98,0.51-3.04c0.37-1.19,0.49-2.29,0.49-3.54c0-0.98-0.28-2.44,0.51-3.16c0.78-0.71,1.68-1.71,2.74-2.01c0.41,0.79,0.1,2-0.55,2.58c-0.95,0.84-1.99,1.6-2.12,2.94c-0.11,1.1,0.1,2.3-0.1,3.38C453.28,188.48,453.28,190.16,452,190.33M425.25,190.33c-2.05-2.29-1.06-5.63-2.02-8.34c-0.21-0.6-0.59-1.16-0.92-1.7c-0.44-0.71-0.73-1.41-1.04-2.18c-0.39-0.96-0.85-2.93-0.02-3.78c0.57,1.26-0.24,2.61,0.55,3.84c0.81,1.26,2.01,2.54,2.43,3.98c0.39,1.34,0.37,2.75,0.62,4.13c0.15,0.82,0.32,1.64,0.48,2.46C425.42,189.21,425.61,189.91,425.25,190.33M422.75,189.08c-2.43-2.06-1.13-6.12-2.28-8.75c-0.69-1.57-0.65-2.84-0.49-4.5c0.15-1.65-0.22-2.94-0.73-4.5c1.5,0.82,1.25,2.64,1.25,4.1c0,1.7,0.15,3.05,0.91,4.59c0.69,1.41,1.34,2.98,1.34,4.59c0,0.86,0,1.71,0.09,2.56C422.9,187.79,423.18,188.53,422.75,189.08M438.25,184.58c-0.77-0.11-0.56,0.59-0.61,1.2c-0.04,0.46-0.53,0.83-0.89,1.05c-0.03-0.36-0.21-0.98-0.08-1.3c0.17-0.43,0.38-0.79,0.58-1.2c-0.82,0.14-1.61,0.55-2.44,0.72c-0.74,0.14-1.56,0.25-2.31,0.28c0.41,0.33,1.52,0.12,1.78,0.52c0.39,0.6,0.8,1.52-0.28,1.73c-0.03-0.46,0.04-1.09-0.5-1.25c0.03,0.41,0.25,1.5-0.25,1.5s-0.5-1.07-0.5-1.5c-0.34,0.37-0.18,1.05-0.62,1.38c-0.31,0.23-1.25,0.35-1.62,0.21c-0.72-0.28-1.26-0.49-1.86-0.97c-0.38-0.3-0.72-0.64-1.15-0.87c0.26,1.25,1.34,2.02,2.5,2.34c0.64,0.18,1.34,0.15,2,0.16c0.6,0.01,1.22,0.15,1.82,0.08c1.07-0.13,2.8-0.17,3.72-0.76c0.32-0.2,0.63-0.4,0.95-0.61c0.14-0.09,0.02-0.87,0.02-1.03C438.5,185.68,438.26,185.15,438.25,184.58M420.75,188.08c-0.7-0.54-0.72-1.82-0.86-2.63c-0.18-1.04,0.07-2.17-0.15-3.18c-0.26-1.2-0.73-2.09-1.33-3.17c-0.48-0.87-0.87-1.81-0.41-2.78c0.27,0.3,0.3,0.86,0.4,1.25c0.14,0.52,0.37,0.89,0.65,1.36c0.63,1.05,1.17,1.94,1.32,3.16c0.13,1.05-0.03,2.08,0.09,3.13C420.55,185.95,421.21,187.47,420.75,188.08M435.25,185.58c1,0.03,0.96,0.99,1,1.75C435.27,187.35,435.29,186.26,435.25,185.58M448.25,187.08c-0.6-0.84,0.5-2.5,0.5-2.5 s0.59-1.75,1.46-1.75c0.75,0,0.54,2.09,0.35,2.66C450.28,186.28,449.04,186.95,448.25,187.08M451.75,186.83c0-1.54,0.02-3.12-0.1-4.65c-0.02-0.22-0.16-0.73-0.02-0.91c0.3-0.38,0.61-0.76,0.91-1.14c0.52-0.66,0.8-1.13,1.71-1.05c-0.35,0.58-1.13,1.09-1.6,1.56c-0.43,0.42-0.54,1.41-0.47,2.01c0.08,0.74,0.08,1.46,0.08,2.21c0,0.49,0,0.97,0,1.46C452.25,186.81,452.31,186.87,451.75,186.83M446.75,186.83c0-0.43,0.05-0.87,0.25-1.25c0.44,0.29,0.45,0.77,0.5,1.25C447.25,186.83,447,186.83,446.75,186.83M445.5,186.83c-0.05-0.31-0.14-0.62-0.23-0.92c-0.09-0.31,0.66-0.49,0.75-0.27c0.09,0.23,0.22,0.52,0.22,0.77C446.25,186.99,446.05,186.83,445.5,186.83M419.25,186.83c-1.09-1.65-0.06-3.89-1.05-5.65c-0.55-0.97-1.43-1.39-2.18-2.17c-0.78-0.82-0.74-1.74-0.61-2.81c0.16-1.35-1-0.84-1.81-0.57c-1.01,0.33-1.98,0.61-2.67-0.36c-0.25-0.34-0.79-0.81-0.65-1.27c0.12-0.4,0.86-0.66,1.23-0.76c0.73-0.2,2.01-0.81,2.75-0.66c-0.29,0.48-0.97,0.85-1.5,1c0.96,0.48,2.2-0.5,3.13-0.68c0.45-0.08,1.24,0.03,1.54,0.39c0.37,0.43,0.17,1.05,0.08,1.54c-0.48-0.57-0.97-1.35-1.82-1.23c-0.92,0.13-1.57,0.69-2.43,0.98c0.62,0.19,1.37-0.2,1.96-0.38c0.77-0.24,1.05,0.83,1.04,1.38c0,0.33-0.16,0.67-0.19,1c-0.03,0.4,0.05,0.83,0.08,1.22c0.04,0.72,0.79,1.16,1.28,1.63c0.95,0.91,1.83,1.89,1.83,3.3c0,0.77,0,1.54,0,2.31C419.26,185.58,419.54,186.35,419.25,186.83M443.5,184.83c0.68,0.18,1.26,0.57,1.5,1.25C444.14,186.55,443.47,185.63,443.5,184.83M445.25,184.83c0.48-0.42,1.7-0.34,2.27-0.34C447.11,185.09,445.83,185.14,445.25,184.83M431.5,185.08c-0.3-0.51-0.96-0.83-1.5-1C430.3,184.53,430.97,184.96,431.5,185.08M437.75,182.08c-0.84-0.5-1.13-1.52-2-2c0.03,0.15,0.34,1.5,0.21,1.5c-0.71,0-1.36,0.02-2.06,0.12c-0.63,0.08-1.1,0.27-1.65,0.63c-0.47,0.31-0.89,0.75-1.5,0.75c0.06-0.49,0.57-1.03,1-1.25c-0.61-0.46-1.66,0.23-2.25,0.5c0.42-0.56,0.55-1.34,0.75-2c-1.28,0.24-0.87,2.36-2,2.5c0.27,0.59,0.79,1.24,1.5,1.25c-0.08-0.17-0.17-0.33-0.25-0.5c0.71,0.11,1.36,0.39,2.04,0.6c0.91,0.27,1.72,0.34,2.68,0.4C435.58,184.66,437.76,183.71,437.75,182.08M445.25,183.33c0.1-0.66,0.37-0.84,0.99-0.92c0.71-0.09,1.34-0.24,1.51,0.67c-0.45-0.02-0.89-0.15-1.33-0.24C446.13,182.78,445.53,183.18,445.25,183.33M435,183.33c-0.86-0.33-1.38-0.19-2.25,0C432.77,181.38,435.71,182.4,435,183.33M448,181.58c0.52-0.06,1.14,0.19,1.25,0.75C448.72,182.34,448.12,182.15,448,181.58M451.25,180.08c0.25-1.53,2.08-2.32,3.5-2.25c-0.36,0.49-1.24,0.68-1.75,0.98C452.37,179.17,451.88,179.71,451.25,180.08M451,178.33c-0.07-0.24-0.15-0.48-0.2-0.72c-0.08-0.42,0.21-0.43,0.56-0.64c0.55-0.32,1.04-0.67,1.64-0.89c0.9-0.32,2.55-1.34,3.49-1c-0.46,0.96-1.27,1.47-2.23,1.84C453.21,177.32,452.1,178.11,451,178.33M423.75,178.08c0-1.26-0.21-2.27-0.58-3.46c-0.16-0.51-0.85-1.09-1.19-1.51c-0.39-0.49-0.81-0.96-1.21-1.43c-0.8-0.93-1.27-1.83-1.48-3.04c-0.19-1.1,0.16-2.04,0.46-3.06c-0.8,0.48-1.25,1.33-2.25,1.5c0-1.34-0.16-2.89,1.09-3.72c0.52-0.35,1.45-0.28,2.07-0.36c0.61-0.08,1.08,0.83,1.1,1.33c-0.79-0.35-1.32-0.6-2.2-0.66c-0.77-0.05-1.41,1.02-1.55,1.66c0.8-0.57,1.42-1.34,2.5-1c-0.16,0.46-0.44,0.88-0.75,1.25c0.56-0.19,1.8-0.79,2.33-0.45c0.73,0.48,1.9,0.92,1.64,2.02c-0.08,0.33-0.21,0.97-0.73,0.68c-0.32-0.18-0.21-0.83-0.75-0.91c-0.99-0.15-1.25,1.3-0.83,1.9c0.26,0.36,0.46,0.78,0.84,1c0.41,0.25,0.84,0.47,1.23,0.76c0.89,0.65,1.08,1.46,1.5,2.48c0.25,0.61-0.02,1.99-0.2,2.59C424.57,176.37,424.4,177.59,423.75,178.08M422.5,178.08c-0.38-0.72-0.24-1.72-0.25-2.5c0.79-0.11,0.5,0.64,0.5,1.25C422.75,177.27,422.79,177.71,422.5,178.08M419,177.58c0-1.42-0.44-2.83-0.5-4.25C419.52,173.63,419.58,176.84,419,177.58M451,176.33c0.59-2.21,3.62-1.84,4.25-4c-1.54,0.94-3.2,1.44-5,1.5c0.12-0.9,1.69-1.01,2.38-1.19c0.97-0.25,1.65-0.63,2.38-1.31c-0.95,0.13-1.77,0.44-2.75,0.5c0.14-1.04,1.77-1.11,2.56-1.08c0.73,0.03,1.12-0.07,1.59,0.52c0.39,0.49,0.2,0.9-0.05,1.37c-0.63,1.19-0.92,1.87-2.21,2.37C453.15,175.4,452.04,176.16,451,176.33M438.5,175.33c-0.16-0.29-0.48-0.35-0.75-0.5C437.96,175.08,438.2,175.21,438.5,175.33M410,168.33c-0.2,0.67-0.62,1.19-0.67,1.92c-0.02,0.29,0.39,0.75,0.54,0.99c0.22,0.37,0.55,0.42,0.95,0.58c0.66,0.27,1.35-0.01,2-0.28c0.57-0.24,1.56-0.86,2.18-0.72c-0.16,0.77-1.58,1.14-2.2,1.44c-0.98,0.48-1.83,0.52-2.88,0.34c-1.1-0.19-1.14-1.46-1.36-2.33C408.34,169.41,409.08,168.32,410,168.33M443.75,171.08c0-0.61,0.05-1.47-0.72-1.52c-0.72-0.04-1.38,0.24-2.1,0.24c-0.68,0-1.33-0.21-1.99-0.21c-0.74,0-1.46,0.04-2.2,0c0,0.35-0.14,1.76,0.25,2c0.16,0.1,1.01-0.22,1.22-0.26c0.28-0.06,0.75,0.26,1.03,0.33c0.74,0.19,1.5,0.11,2.25,0.08C442.3,171.68,442.96,171.08,443.75,171.08M423,171.83c-0.26-0.38-0.81-0.67-1.25-0.75C422.04,171.54,422.5,171.67,423,171.83M449.75,171.33c0.39-1.87,3.2-1.84,4.66-2.19c1.71-0.4,4.1-1.57,4.34-3.56c0.53,0.65-0.23,1.91-0.64,2.44c-0.6,0.78-1.67,1.43-2.61,1.68c-0.97,0.26-1.98,0.41-2.96,0.6C451.56,170.48,450.75,171.29,449.75,171.33M439.75,170.83c0.25,0,0.5,0,0.75,0c-0.07,0.14-0.17,0.54-0.33,0.46C439.94,171.17,439.68,171.14,439.75,170.83M410.5,169.08c0.13,0.41,0.06,0.93,0.32,1.29c0.29,0.41,0.97,0.48,1.43,0.46C411.26,172.1,409.29,169.93,410.5,169.08M418.75,170.83c-0.9-0.54-1.76-2.95-0.25-3.25C418.49,168.46,419.3,170.08,418.75,170.83M417.25,170.83c-0.88-0.74-1.18-3.14,0.25-3.5c0.1,0.51-0.17,1.31-0.22,1.84C417.24,169.69,417.53,170.35,417.25,170.83M449.25,170.08c-1.19-1.78,0.86-3.47,2.52-3.8c1.86-0.37,3.71,0.16,5.23-1.2c-1.73,0-3.36-0.13-5.06-0.46c-1.81-0.36-2.93,0.74-4.44,1.46c0.05-1.52,1.55-1.97,2.73-2.34c1.17-0.36,2.52,0.27,3.63,0.66c1.37,0.47,2.17-0.19,3.2-0.91c0.61-0.42,1.07-0.78,1.69-0.16c0.47,0.47,0.5,1.14,0.5,1.75c-0.32-0.25-0.36-0.75-0.75-0.75c-0.35,0-0.49,0.74-0.72,1.07c-0.47,0.7-1.43,1.52-2.28,1.68c0.61,0.31,1.38-0.16,2-0.25c-0.32,1.67-2.81,1.61-4.04,1.76c-0.85,0.1-1.61,0.2-2.4,0.52C450.41,169.35,449.95,169.93,449.25,170.08M421,170.08c-0.18-0.56-0.8-1.75-0.55-2.29c0.22-0.48,0.37-0.88,0.75-1.25c0.29-0.27,0.69-0.57,0.8-0.96c-0.41,0.1-0.75,0.3-1.07,0.55c-0.48,0.37-0.47,0.86-0.61,1.44C420.09,168.52,419.99,169.51,421,170.08M416.25,162.83c-0.45,0.2-1.01,0-1.5,0.08c-0.65,0.1-1.1,0.39-1.55,0.88c-0.82,0.89,0.17,2.34,0.8,3.04c-0.13-0.5-0.25-0.98-0.25-1.5c0.62,0.43,1.22,0.96,1.76,1.48c0.66,0.63,0.47,1.59,0.6,2.45c0.02,0.16,0.25,0.96-0.18,0.79c-0.34-0.14-0.66-0.33-0.98-0.51c-0.82-0.46-1.51-0.91-2.19-1.55c-1.51-1.42-1.56-3-0.74-4.79c0.29-0.63,1.31-0.98,1.97-1.01C414.77,162.16,415.57,162.5,416.25,162.83M404.5,167.83c0.86,0.22,1.53,1.24,2.25,1.75c-0.41,0.7-1.24,0.04-1.71-0.22C404.61,169.11,404.49,168.29,404.5,167.83M411.75,169.83c0.08-0.56,0.53-0.79,1-1C412.75,169.41,412.28,169.74,411.75,169.83M406.5,168.33c0.35-0.08,0.7,0.14,0.75,0.5C406.95,168.71,406.71,168.58,406.5,168.33M442,168.33c-0.53-1.09-2.35-0.98-3.25-0.5c0.42,0.3,1.02,0.1,1.5,0.14C440.84,168.02,441.41,168.23,442,168.33M448.25,167.83c-0.45-0.84,0.45-2.01,1.2-2.36c0.89-0.41,2.13-0.61,3.05-0.14c-0.53,0.53-1.43,0.46-2.03,0.86C449.7,166.7,448.98,167.25,448.25,167.83M407.5,161.33c-0.41,0.56-1.43,0.64-2.04,0.91c-0.8,0.36-1.25,1.08-1.05,1.96c0.17,0.74,0.7,1.48,1.28,1.98c0.54,0.46,1.29,0.65,1.8,1.15c-0.91,0.33-1.97-0.12-2.72-0.59c-0.92-0.57-1.07-1.89-1.22-2.89C403.25,161.83,405.82,160.47,407.5,161.33M411.75,161.83c-0.37,0.34-1.23,0.37-1.7,0.49c-0.62,0.16-0.94,0.88-1.04,1.43c-0.09,0.51,0.52,1.28,0.86,1.64c0.47,0.5,0.87,0.97,0.88,1.69c-1.45-0.03-3.02-2.02-2.65-3.44C408.51,162.07,410.22,161.04,411.75,161.83M442.25,166.08c-1.22,0.27-2.1,0.13-3.25-0.25C439.33,167.01,441.69,167.12,442.25,166.08M427,166.58c0.19-0.77-0.28-0.44-0.5,0C426.66,166.58,426.84,166.6,427,166.58M416,164.08c-0.59-0.18-1.16-0.18-1.75,0c0.42-0.67,1.83-0.47,2.25,0.05c0.44,0.54,0.31,1.86,0,2.45c-0.41-0.21-1.03-0.48-1.08-1.02C415.38,165.06,415.79,164.5,416,164.08M406,162.83c0.11-0.18,0.55-0.43,0.75-0.25c0.03,0.03,0.04,0.65,0.06,0.75c0.09,0.56,0.46,1.2,0.19,1.75C406.11,164.57,406.09,163.76,406,162.83c-0.56,0.85-0.34,1.31,0.14,2.12c0.34,0.56,1.18,0.7,1.36,1.38c-1.01,0.02-2.24-0.78-2.39-1.82c-0.06-0.4-0.22-1.13,0.05-1.48C405.34,162.79,405.85,162.18,406,162.83M460,164.33c0.75,0,1.46-0.04,2.21-0.12c0.62-0.06,1.2-0.46,1.79-0.63C463.78,165.29,460.83,165.85,460,164.33M457.25,165.08c0.22-0.22,0.55-0.41,0.5-0.75C457.45,164.47,457.2,164.72,457.25,165.08M410,164.83c-0.46-0.46-0.52-1.58,0.25-1.75C410.25,163.6,410.38,164.39,410,164.83M423.25,164.58c-0.41-0.37-0.56-0.74-0.75-1.25C423.13,163.34,423.73,164,423.25,164.58M446.75,164.08c0.04-1.95,4.4-3.02,5.25-1.25c-1.01,0-1.98,0.02-2.98,0.12C448.23,163.02,447.41,163.64,446.75,164.08M453.75,162.83c0.47-0.38,1.61-0.15,1.75,0.5C454.9,163.32,454.27,163.11,453.75,162.83M451,161.33c-0.01-0.16,0-0.33,0-0.5c1.3,0.07,2.43,0.19,3.68,0.54c0.95,0.27,2.4,0.43,3.35,0.08c1.2-0.45,2.18-1.01,3.24-1.75c1.01-0.7,1.97-1.47,3.23-1.62c-0.31,0.52-0.87,0.94-1.29,1.37c-0.39,0.39-0.62,0.93-1.04,1.29c-1.08,0.96-2.03,1.63-3.55,1.45c-1.23-0.14-2.55,0.06-3.76-0.2C453.59,161.7,452.31,161.33,451,161.33M419.5,162.08c0.01-0.28,0.06-0.56,0.13-0.83c0.04-0.13,0.04-0.42,0.19-0.42c0.14,0,0.4-0.07,0.44,0.08c0.04,0.13,0.3,0.79,0.23,0.92C420.39,162.02,419.68,162.05,419.5,162.08M416.5,161.83c0.02-0.99,0.63-2.1,1-3c0.41-0.98,0.79-1.97,1.18-2.96c0.4-1.02,0.71-2.21,1.29-3.13c0.31-0.49,0.43-0.92,0.98-1.08c0.6-0.18,1.18-0.37,1.79-0.48c2.14-0.41,4.43-0.59,6.61-0.62c1.06-0.02,2.07-0.26,3.14-0.23c1.12,0.03,2.22,0.23,3.34,0.25c2.85,0.04,5.81,0.05,8.6,0.71c0.6,0.14,1.6,0.22,2.1,0.57c0.73,0.49,0.91,1.16,1.04,2.03c0.22,1.51,0.6,2.9,0.67,4.44c-0.8-0.44-1.51-1.15-2.25-1.7c-0.84-0.62-1.72-1.19-2.66-1.64c-1.95-0.94-4.16-1.66-6.34-1.66c0.84,0.45,1.87,0.51,2.77,0.81c1.14,0.39,2.2,0.87,3.25,1.46c0.99,0.55,1.83,1.14,2.71,1.86c0.73,0.6,1.75,1.27,1.99,2.23c0.13,0.54,0.15,0.9-0.47,1.1c-0.6,0.19-1-0.15-1.29-0.62c-0.59-0.95-1.49-1.71-2.42-2.31c-0.89-0.57-2.1-0.87-3.1-1.17c-1.03-0.3-2.06-0.59-3.13-0.64c-0.96-0.04-1.75-0.07-2.71,0.01c-0.98,0.08-1.92,0.33-2.9,0.42c-1.04,0.1-1.67-0.2-1.69-1.4c-0.01-0.82,0.89-1.68,1.74-1.5c-1.05-0.54-3.03,0.26-4.06,0.64c-1.47,0.54-2.89,1.23-4.19,2.11c-1.32,0.88-2.45,1.95-3.57,3.07C418.98,160.34,418.04,162.29,416.5,161.83M421.25,161.33c-0.48-0.41-0.54-1.2-0.25-1.75C421.55,159.92,421.63,160.84,421.25,161.33M454.25,160.33c-0.21-1.11,2.31-1.31,3.07-1.49c1.34-0.31,2.56-0.51,3.93-0.51C460.09,160.68,456.49,161.51,454.25,160.33M422.5,160.33c-0.6-0.44-0.56-1.4-0.25-2C422.85,158.68,422.9,159.82,422.5,160.33M445.25,112.33c1.11,0.21,2.18,0.56,3.27,0.85c1.09,0.28,2.24,0.54,3.24,1.08c1.03,0.56,0.71,2.13,0.84,3.13c0.14,1.14,0.15,2.26,0.15,3.41c0,2.09,0.21,4.27,0.48,6.34c0.14,1.09,0.23,2.14,0.32,3.24c0.08,0.99,0.44,1.97,0.46,2.97c0.1,4.3,1.46,8.68,2.83,12.72c0.7,2.05,1.52,4.15,2.65,6c0.57,0.93,1.19,1.83,1.8,2.72c0.55,0.8,1.23,1.44,1.71,2.29c-2.13,0.46-4.31,0.4-6.44,0.97c-1.05,0.28-2.11,0.58-3.11,1.01c-0.81,0.35-2.4,1.27-3.3,0.77c-0.65-0.36-0.95-2.43-1.06-3.04c-0.2-1.16-0.46-2.29-0.74-3.44c-0.48-2.03-0.75-4.16-1.08-6.22c-0.34-2.1-0.55-4.21-0.88-6.31c-0.17-1.08-0.1-2.17-0.3-3.25c-0.2-1.13-0.32-2.22-0.35-3.37c-0.05-2.08-0.5-4.14-0.5-6.23c0-2.26-0.25-4.49-0.25-6.75C445,118.29,444.63,115.22,445.25,112.33M423.25,159.33c0-0.24-0.07-2.63,0.75-2c0.26,0.2,0.13,1.16,0.13,1.39C424.13,159.11,423.56,159.32,423.25,159.33M424.75,158.58c-0.1-0.49-0.22-1-0.19-1.5c0.02-0.24,0.46-1.31,0.71-0.69C425.52,156.99,425.8,158.77,424.75,158.58M426.5,157.83c-0.48-0.5-0.67-1.87,0.25-2C426.75,156.4,426.92,157.35,426.5,157.83M427.75,157.33c-0.38-0.7-0.72-2.25,0.5-2.25C428.25,155.74,428.42,156.91,427.75,157.33M429,156.83c-0.07-0.27-0.51-3.2,0.5-2.5c0.26,0.18,0.25,1,0.25,1.27c0,0.4,0,0.79,0,1.19C429.75,156.87,429.11,156.83,429,156.83M453.25,115.08c0.96,0.05,1.54,1.25,1.93,2c0.53,1.04,0.98,2.13,1.35,3.23c0.7,2.05,1.2,4.12,1.47,6.27c0.14,1.07,0.29,2.14,0.49,3.21c0.2,1.08,0.01,2.24,0.19,3.34c0.16,1.04,0.28,2.09,0.4,3.13c0.12,1.03,0.61,1.97,1,2.91c0.55,1.36,1.11,2.7,1.51,4.12c0.41,1.45,0.94,2.46,2.26,3.25c2.11,1.26,5.25,2.38,7.65,1.53c0.18,0.85-0.65,2.11-1.01,2.82c-0.59,1.14-1.09,2.14-1.91,3.11c-0.55,0.65-1.63,1.62-2.45,1.85c-0.69,0.2-0.98,0.39-1.62,0.08c-0.59-0.28-0.98-0.68-1.47-1.11c-3.24-2.92-4.73-7.22-6.03-11.26c-0.68-2.11-1.13-4.23-1.53-6.4c-0.39-2.12-0.49-4.29-0.86-6.4c-0.17-1-0.24-2.08-0.34-3.1c-0.1-1.05-0.11-2.19-0.29-3.22c-0.38-2.23-0.46-4.59-0.48-6.85C453.49,116.77,453.28,115.92,453.25,115.08M436.75,153.33c-0.42-0.38-1.24-0.25-1.75-0.25C435.42,153.45,436.24,153.32,436.75,153.33M433.75,153.33c-0.22-0.21-0.46-0.19-0.75-0.25C433.23,153.26,433.47,153.27,433.75,153.33M420.75,151.08c-0.02-2.62,2.99-2.3,4.86-2.58c2.37-0.35,4.73-0.42,7.12-0.42c1.03,0,2.06,0,3.09,0c1.09,0,2.13,0.25,3.22,0.25c1.22,0,2.36,0.1,3.56,0.32c0.94,0.18,2.06,0.2,2.94,0.61c0.74,0.35,1.42,0.63,1.46,1.57c-1.16-0.05-2.23-0.19-3.38-0.42c-1.01-0.21-2.15-0.18-3.18-0.27c-2.18-0.19-4.41-0.06-6.6-0.15c-1.13-0.05-2.17-0.01-3.29,0.08c-1.09,0.09-2.16-0.04-3.25,0.11c-1.09,0.15-2.18,0.2-3.26,0.4c-1.08,0.2-2.13,0.46-3.24,0.51C420.79,151.07,420.77,151.08,420.75,151.08M445.75,148.33c-0.78-0.4-1.78-0.26-2.63-0.43c-0.93-0.18-1.95-0.32-2.9-0.32c-2.28,0-4.56,0-6.84,0c-1.87,0-3.69,0.08-5.54,0.2c-2.04,0.13-4.05,0.49-6.09,0.55c-0.08-1,1.45-1.23,2.19-1.26c1.06-0.03,2.15-0.18,3.2-0.35c2.17-0.36,4.49-0.14,6.68-0.14c1.16,0,12.27,0.44,12.07,1.58C445.85,148.21,445.8,148.27,445.75,148.33M462.5,142.33c1.66,0.27,3.15,1.3,4.8,1.68c0.8,0.18,1.58,0.31,2.39,0.4c0.79,0.08,1.54-0.47,2.31-0.57c0,0.93,0.21,2.78-0.86,3.25c-0.66,0.29-1.17,0.65-1.89,0.54c-0.66-0.1-1.31-0.26-1.96-0.41c-1.04-0.24-2.57-0.79-3.39-1.46c-0.48-0.39-1.01-0.69-1.17-1.33C462.56,143.69,462.52,143.07,462.5,142.33M422.5,146.83c-0.64-1.17,0.31-3.1,0.65-4.25c0.42-1.43,0.67-2.91,1.35-4.25c0.79,0.46,1.22,1.75,1.66,2.51c0.52,0.88,1.19,1.91,2.17,2.22c0.83,0.26,2.06,0.02,2.94,0.02c1.15,0,2.33-0.13,3.48-0.05c2.06,0.14,4.16,0.38,6.23,0.42c0.83,0.02,1.73-1.41,2.2-2.04c0.54-0.72,1.11-1.92,2.07-2.09c0.45,2.4,0.75,4.8,0.75,7.25c-1.86,0-3.71-0.2-5.57-0.26c-0.99-0.03-1.95-0.24-2.93-0.24c-1.07,0-2.15,0-3.22,0C430.29,146.08,426.42,146.04,422.5,146.83M460.5,137.08c1.03,0.16,1.98,0.98,2.87,1.48c0.98,0.55,2,1.03,3.07,1.36c1.13,0.34,2.22,0.59,3.4,0.65c0.44,0.02,0.92,0,1.35-0.1c0.31-0.08,0.51-0.25,0.64,0.06c0.1,0.24,0.12,0.47,0.16,0.72c0.19,1.25-0.9,2.09-1.99,2.25c-1.03,0.15-2.02-0.07-3.02-0.33c-1.13-0.3-2.17-0.77-3.23-1.27c-1.21-0.58-1.74-1.22-2.54-2.29C460.75,138.96,460.5,137.86,460.5,137.08M441.25,142.71c-1.04,0.16-2.1,0.15-3.15,0c-1.08-0.16-2.16-0.13-3.26-0.13c-1.23,0-2.47,0-3.7,0c-0.93,0-2.25,0.43-2.9-0.35c-0.67-0.79-1.09-1.68-1.59-2.58c-0.51-0.93-1.32-2.03-1.55-3.07c-0.46-2.05,0.61-4.64,1.03-6.64c0.21-0.98,0.33-1.99,0.5-2.99c0.17-1.02,0.37-2.21,0.38-3.24c0.01-1.16,0.14-2.24,0.25-3.39c0.11-1.14,0.51-1.9,1.16-2.84c0.69-1.01,1.35-1.89,2.27-2.7c0.55-0.49,2.07-0.36,2.78-0.41c1.05-0.07,2.14-0.05,3.2-0.05c1.1,0,2.21-0.08,3.29,0.14c1.15,0.23,1.8,1.18,2.46,2.08c0.6,0.82,1.38,1.71,1.5,2.73c0.15,1.22,0.35,2.41,0.35,3.64c0,1.04-0.12,2.18,0.04,3.21c0.34,2.22-0.04,4.49,0.37,6.69c0.2,1.09,0.13,2.24,0.22,3.35c0.05,0.62,0.09,0.86-0.17,1.41c-0.25,0.52-0.48,1.05-0.79,1.55C443.12,140.44,442.33,141.62,441.25,142.71M472,137.33c0.78,1.6-0.95,2.83-2.45,2.66c-0.86-0.1-1.67-0.3-2.49-0.56c-0.69-0.22-1.66-0.54-2.16-1.04c-0.39-0.39-0.41-0.51-0.49-1.07c-0.08-0.56,0.03-0.61,0.39-1.07c0.31-0.4,1.89,0.3,2.27,0.46c0.76,0.3,1.53,0.63,2.33,0.77C470.42,137.65,470.98,137.57,472,137.33M437.75,133.33c0.68,0.72,1.63,2.25,2.75,2.25c-0.03-1.23-1.54-2.57-2.25-3.5c1.87-0.06,3.83-0.46,4.18-2.56c0.14-0.85-0.2-1.78-0.93-2.3c-0.84-0.6-1.78-0.64-2.75-0.64c0.6-1.05,2.26-1.94,2.25-3.25c-1.19-0.19-2.07,1.47-3,2c0.63-1.23,0.5-2.76,0.5-4.09c0-1.31-1.23-2.9-2.66-2.76c-1.59,0.16-2.93,0.47-3.19,2.25c-0.2,1.42,0.1,2.94,0.34,4.35c-0.82-0.49-1.61-2.4-2.75-1.75c0.53,1.21,1.63,2.09,2.25,3.25c-1.09,0-2.14,0.02-3.23,0.13c-1.13,0.12-1.6,1.24-1.74,2.21c-0.35,2.37,2.16,3.1,3.97,3.16c-0.48,0.97-1.66,1.45-2,2.5c1,0.52,1.95-0.85,2.75-1.25c0,2.06-0.38,5.27,2.5,5.48c1.36,0.1,2.23-0.69,2.67-1.87C437.87,135.76,437.75,134.58,437.75,133.33M436.75,132.58c0.24,1.22,0.49,2.77,0.13,4c-0.19,0.66-0.57,1.29-1.2,1.5c-0.57,0.18-1.36,0.31-1.77-0.3c-0.26-0.38-0.41-1.38-0.41-1.85c0-0.69-0.02-1.42,0.12-2.09C433.92,132.28,435.53,132.58,436.75,132.58M463.5,137.33c0-0.5,0-1,0-1.5C463.84,136.25,463.83,136.9,463.5,137.33M456.5,117.58c0.36-0.26,0.55-0.62,0.75-1c0.36,0.39,0.25,1.11,0.25,1.59c0,0.66,0.1,1.27,0.25,1.91c0.46-0.85,0.42-1.81,0.5-2.75c0.4,0.49,0.24,1.28,0.31,1.88c0.1,0.81,0.19,1.55,0.19,2.38c0.36-0.46,0.46-0.93,0.5-1.5c0.72,0.43,0.5,1.8,0.5,2.5c0.27-0.36,0.42-0.81,0.5-1.25c0.37,0.42,0.39,1.23,0.5,1.75c0.16-0.31,0.37-0.71,0.75-0.75c-0.01,0.64,0.18,1.3,0.76,1.65c0.7,0.43,1.18,0.96,1.7,1.58c1,1.2,2.16,2.12,3.55,2.82c0.68,0.34,1.18,0.76,1.75,1.25c0.59,0.51,1.16,0.59,1.9,0.85c0.77,0.27,1.37,0.66,2.07,1.07c0.51,0.29,1.34-0.88,1.52-1.23c0.67,0.82-0.06,2.1-0.35,2.92c-0.37,1.03-0.88,1.95-1.54,2.81c-0.7,0.89-2.21,0.77-3.2,0.72c-1.01-0.05-2.1-0.58-3.03-0.94c-2.05-0.78-4.03-2.12-5.65-3.58c-0.82-0.74-1.5-1.54-1.69-2.67c-0.09-0.51,0.05-1.05-0.05-1.55c-0.12-0.61-0.24-1.21-0.36-1.81c-0.29-1.5-0.52-2.96-0.93-4.44C457.56,120.37,456.68,119.02,456.5,117.58M462.5,136.33c0-0.42,0-0.83,0-1.25C462.78,135.41,462.78,135.98,462.5,136.33M461.5,135.58c0-0.33,0-0.67,0-1C461.74,134.84,461.73,135.3,461.5,135.58M460.5,135.08c-0.2-0.4-0.2-0.85,0-1.25C460.78,134.16,460.78,134.73,460.5,135.08M435.75,131.7c-2.11,0.69-2.28-3.86-0.85-4.44c0.21-0.09,1.11,0.08,1.23,0.27c0.36,0.52,0.46,0.89,0.6,1.51C436.91,129.78,436.49,131.33,435.75,131.7M440.25,131.24c-0.98,0.07-2.34,0.16-2.6-1.02c-0.22-0.97-0.18-2.44,1.05-2.58c1-0.12,2.42-0.01,2.81,1.05C441.96,129.89,441.38,130.76,440.25,131.24M431.75,131.24c-0.95,0.1-2.31,0.06-2.85-0.83c-0.69-1.15-0.04-2.23,1.05-2.72c0.72-0.33,2.34-0.09,2.54,0.68C432.75,129.33,432.97,130.86,431.75,131.24M473,131.08c-0.01-0.77,0.36-2.08,1.25-2.25C474.31,129.53,473.9,131.24,473,131.08M472,129.83c-0.37-0.1-0.87-0.33-1.25-0.25C471.12,129.19,472.52,129.41,472,129.83M462.75,117.58c0.98,0.54,1.55,2.06,2.13,2.97c0.7,1.11,1.32,2.23,2.12,3.27c0.79,1.03,1.65,1.9,2.73,2.62c0.77,0.51,3.04,0.27,3.27,1.39c-0.58-0.13-1.31,0.39-1.91,0.43c-0.69,0.05-1.43,0.13-2.08-0.16c-1.58-0.68-2.79-1.4-3.98-2.65c-0.49-0.51-1.06-1.02-1.44-1.63c-0.41-0.66-0.67-1.48-1-2.19c-0.27-0.56-0.7-1.41-0.67-2.06C461.96,118.93,462.42,118.12,462.75,117.58M461,101.08c0.61,0.67,0.2,2.21,0.29,3.06c0.12,1.12,0.21,2.32,0.21,3.44c0.29-0.55,0.25-1.25,0.27-1.85c0.02-0.66,0.21-1.28,0.23-1.93c0.05-1.5,0.25-2.96,0.25-4.46c0.58,0.64,0.25,2.19,0.25,3.03c0,0.91,0,1.82,0,2.73c0,0.41-0.24,1.48,0.25,1.48c0.51,0,0.27-1.41,0.28-1.85c0.01-0.52,0.04-1.04,0.1-1.56c0.16-1.36,0.13-2.72,0.13-4.09c0.53,0.58,0.25,1.95,0.31,2.7c0.08,0.95,0.19,1.84,0.19,2.8c0.98-1.33,0.5-3.95,0.5-5.5c0.46,0.51,0.25,1.58,0.25,2.21c0,1.2,0,2.39,0,3.59c0,0.33,0.5,0.33,0.5,0.05c0.01-0.52,0.02-1.02,0.11-1.53c0.16-0.94,0.14-1.86,0.14-2.81c0.81,0.53,0.5,2.47,0.5,3.25c0.41-0.53,0.47-1.16,0.75-1.75c0.37,0.42,0.39,1.23,0.5,1.75c0.75-1.26,1.53,1.57,1.69,1.96c0.49,1.23,0.97,2.47,1.56,3.65c0.63,1.26,1.2,2.55,1.93,3.76c0.55,0.92,1.79,2,1.83,3.13c-0.48-0.01-0.97-0.13-1.45-0.18c-0.51-0.06-1.03,0.05-1.55-0.01c-1.25-0.15-1.9-0.59-2.67-1.59c-0.74-0.96-1.37-1.92-2-2.95c-0.17-0.28-0.45-0.74-0.77-0.82c-0.34-0.09-1.39-0.37-1.11,0.43c0.15,0.43,0.23,1.03,0.62,1.32c0.49,0.36,0.98,0.72,1.45,1.11c0.81,0.66,1.43,1.55,2.28,2.15c0.42,0.3,0.89,0.78,1.4,0.89c0.61,0.14,1.19,0.1,1.81,0.16c1.07,0.1,2.09,0.31,3.18,0.31c0.95,0,2.17,0.23,1.98,1.46c-0.18,1.18-0.53,2.24-0.96,3.35c-0.42,1.07-0.74,2.06-1.26,3.1c-0.54,1.07-1.47,1.38-2.59,1.26c-2.49-0.27-4.05-1.69-5.33-3.77c-1.15-1.87-2.23-3.77-3.34-5.66c-1.37-2.33-2.58-5.05-3.16-7.7c-0.3-1.38-0.02-2.55,0-3.92C460.53,103.85,460.66,102.43,461,101.08M436.25,126.14c-0.76-0.01-1.5-0.02-1.86-0.76c-0.32-0.68-0.59-1.33-0.61-2.1c-0.02-0.71-0.14-1.56-0.01-2.26c0.07-0.37,0.04-0.63,0.34-0.84c0.32-0.22,0.76-0.66,1.13-0.77c0.66-0.19,1.56,0.21,2.01,0.66c0.49,0.48,0.49,1.35,0.49,2.03C437.75,123.09,437.53,125.93,436.25,126.14M461.25,118.33c0.12-0.7,0.43-1.38,0.75-2C462.59,116.97,461.96,118.09,461.25,118.33M490.25,111.08c0.95,0.51,1.42,1.64,1.94,2.54c0.71,1.23,0.7,2.28-0.13,3.43c-0.5,0.69-0.88-0.51-0.99-0.82c-0.19-0.52-0.04-1.17-0.09-1.72C490.88,113.32,490.22,112.29,490.25,111.08M443.5,117.33c-0.47-0.52-0.87-1.08-1.26-1.67c-0.47-0.73-1.09-1.27-1.72-1.87c-0.48-0.46-1.57-0.46-2.18-0.46c-0.8,0-1.6,0.23-2.39,0.17c-0.82-0.06-1.58,0.01-2.4,0.07c-0.77,0.06-1.54-0.16-2.31-0.05c-1,0.14-1.4,0.7-2.08,1.39c-0.52,0.53-0.88,1.26-1.67,1.42c0.03-1.16,0.25-2.27,0.25-3.43c0-0.41-0.11-1,0.04-1.37c0.35-0.87,0.39-0.85,1.29-1.09c0.87-0.23,2.05-0.47,2.94-0.31c1.08,0.19,2.18,0.06,3.25,0.25c2.15,0.37,4.34,0.44,6.48,0.95c0.46,0.11,1.08,0.24,1.5,0.45c0.63,0.31,0.6,0.77,0.72,1.41c0.2,1.01,0.04,2.19-0.01,3.22C443.94,116.77,443.81,117.11,443.5,117.33M478,116.83c-0.67-0.12-1.4-0.19-1.99-0.56c-0.65-0.42-1.21-0.89-1.78-1.41c-1.07-0.98-1.84-2.41-2.44-3.71c-0.65-1.42-1.41-2.83-1.92-4.31c-0.4-1.17-0.76-3.32,0.63-4c0.73,2.51,1.89,4.95,3,7.32c0.59,1.25,1.37,2.41,2.19,3.52c0.44,0.6,0.88,1.14,1.37,1.69C477.39,115.73,478.11,116.28,478,116.83M460.75,116.83c0.08-0.54,0.18-1.04,0.5-1.5C461.55,115.79,461.13,116.51,460.75,116.83M468.25,92.83c0.74-0.46,0.5-1.9,0.51-2.65c0.02-1.05,0.24-2.05,0.24-3.1c0.57,0.63,0.25,2.29,0.25,3.09c0,0.97,0,1.94,0,2.91c0.56-1.09,0.5-2.28,0.5-3.48c0-1.19,0.25-2.34,0.25-3.52c0.61,0.67,0.25,2.45,0.25,3.3c0,0.56-0.02,1.14,0.03,1.7c0.04,0.47,0.3,1.04,0.22,1.5c0.3-0.57,0.25-1.21,0.25-1.83c0.01-0.81,0.1-1.61,0.12-2.42c0.03-1.5,0.13-3,0.13-4.5c0.32,0.39,0.25,0.93,0.25,1.41c0,0.82,0,1.64,0,2.46c0,1.38,0.15,2.75,0.25,4.13c0.55-1.04,0.5-2.25,0.51-3.39c0-0.55,0.18-1.07,0.24-1.61c0.05-0.57,0-1.18,0-1.75c0.37,0.46,0.25,1.15,0.25,1.7c0,0.84,0,1.69,0,2.53c0,1.37-0.08,2.94,0.25,4.27c0.6-1.13,0.23-2.91,0.25-4.16c0.01-0.74,0.18-1.52,0.14-2.25c-0.04-0.8-0.09-1.55,0.11-2.34c0.51,0.61,0.42,1.98,0.53,2.75c0.14,1.01,0.29,2.02,0.46,3.02c0.37,2.26,0.83,4.47,1.31,6.71c0.93,4.33,2.16,8.59,4.16,12.54c0.44,0.87,1.01,1.66,1.59,2.45c0.45,0.61,1.38,1.54,2.21,1.53c-0.14,0.87-1.13,1.91-1.91,2.27c-0.7,0.32-0.82,0.39-1.55,0.21c-0.67-0.17-1.19-0.26-1.74-0.67c-1.71-1.3-2.97-3.28-3.93-5.18c-1.01-2-1.89-4.08-2.64-6.19c-0.75-2.11-1.21-4.3-1.91-6.43C469.29,96.15,468.7,94.53,468.25,92.83M456,116.58c0-0.33,0-0.67,0-1C456.24,115.84,456.23,116.3,456,116.58M460,115.58c0.09-0.58,0.28-1.12,0.75-1.5C460.96,114.64,460.71,115.73,460,115.58M459.25,114.33c-0.02-0.65,0.29-1.38,1-1.5C460.09,113.38,459.74,114.01,459.25,114.33M454.25,114.19c-1.17-0.07-2.06-0.61-3.18-0.89c-1.07-0.27-2.07-0.71-3.12-1.01c-2.11-0.61-4.28-0.97-6.41-1.49c-0.92-0.22-1.99-0.6-2.94-0.67c-0.69-0.05-2.73,0.04-3.11-0.71c-0.5-0.97-0.83-2.02-0.73-3.14c0.13-1.31,0.49-2.2,1.12-3.35c0.99-1.81,3.3-2.9,5.07-3.77c2.05-1.01,4.21-1.74,6.31-2.65c0.37-0.16,1-0.49,1.42-0.31c0.42,0.19,0.77,0.97,0.96,1.36c0.52,1.07,1.35,1.94,2.16,2.79c0.73,0.76,1.44,1.63,2.09,2.46c0.62,0.8,1.46,1.77,1.83,2.71c0.63,1.6,0.89,2.88,0.77,4.61c-0.05,0.76-0.22,1.51-0.57,2.19C455.48,113.15,454.95,113.58,454.25,114.19M484,113.58C482.7,112.28,484.69,113.07,484,113.58M483,112.83c-3.27-2.04-4.32-6.67-5.27-10.15c-0.56-2.03,1.72-3.38,3.12-4.35c0.76-0.53,1.52-1,2.42-1.24c1.02-0.27,1.93-0.26,2.98-0.26c-0.01,0.52-0.33,0.97-0.75,1.25c-0.21,0.15-0.41,0.2-0.66,0.23c-0.29,0.04,0.09,0.63,0.16,0.76c-0.43-0.13-0.83-0.35-1.25-0.5c0.2,0.3,1.78,2.08,1.5,0.75c0.94,0.49,1.5,0.93,1.5,2.07c0,0.6,0.12,0.97,0.29,1.53c0.14,0.48,0.35,0.73-0.29,0.8c-0.55,0.07-1.11-0.22-1.61-0.4c-0.52-0.18-1.05-0.2-1.6-0.25c-0.86-0.08-2.09,0.19-2.54,1c0.61-0.45,1.37-0.51,2.1-0.62c0.24-0.04,0.74-0.22,0.97-0.09c0.5,0.28,0.99,0.55,1.49,0.83c0.77,0.42,1.13,0.93,1.42,1.78c0.03,0.1,0.03,0.2,0.03,0.3c0,0.48-0.06,0.16-0.4,0.3c-0.34,0.14-0.74,0.19-1.1,0.25c0.38,0.19,1.04,0.37,0.9,0.78c-0.14,0.4-0.55,0.54-0.9,0.72c0.53,0.26,1.12,0,1.67,0.07c0.41,0.05,0.82,0.09,1.22,0.16c0.14,0.03,0.28-0.56,0.37-0.75c0.45-0.96,1.75-2.68,2.99-2.48c-0.32,2.11-0.76,4.4-2.74,5.56c-0.9,0.53-2.04,0.75-3.01,1.14C484.99,112.43,483.97,112.28,483,112.83M458.5,112.58c0.01-0.74,0.47-1.6,1.25-1.75c-0.04,0.35-0.16,0.7-0.27,1.04C459.24,112.6,459.28,112.58,458.5,112.58M449,110.58c-0.62-0.56-1.88-0.68-2.66-0.9c-1.1-0.31-2.21-0.57-3.31-0.88c-1.37-0.38-5.55-0.34-5.26-2.52c0.31-2.35,2.06-3.86,4.07-4.92c0.97-0.51,1.95-0.98,2.97-1.4c0.88-0.35,2.23-1.27,3.09-0.56c1.14,0.94,2.06,2.34,3.1,3.41c1.05,1.08,1.84,2.37,2.6,3.65c0.53,0.89,0.9,2.96,0.26,3.89c-0.54,0.78-0.74,1.19-1.73,0.91c-0.68-0.19-1.41-0.49-2.13-0.44c0.51,0.67,1.97,0.94,2.75,1.18c1.15,0.34,1.81-0.28,1.9-1.45c0.1-1.26,0.17-2.28-0.25-3.47c-0.39-1.12-0.93-2.05-1.65-2.99c-1.37-1.79-2.96-3.29-4.18-5.21c-1-1.57-4.71,0.86-5.97,1.36c-1.97,0.78-3.6,1.85-4.96,3.48c-0.62,0.75-0.78,1.77-0.87,2.7c-0.03,0.36-0.02,0.94,0.17,1.25c0.28,0.46,0.81,0.46,1.31,0.6c1.78,0.48,3.63,0.78,5.42,1.19C445.37,109.83,447.25,110.58,449,110.58M496.75,110.08c-0.02-0.9,1.32-1.44,1.96-1.84c0.81-0.5,1.67-0.98,2.39-1.61c1.46-1.27,2.66-2.83,4.15-4.06c0.51,1,0.25,2.33,0.08,3.38c-0.17,1.02-0.26,2.87-1.21,3.51c-0.88,0.59-2.36,1.61-3.44,1.53C499.28,110.89,498.1,110.29,496.75,110.08M458,111.08c-0.01-0.76,0.27-1.64,1-2C459.12,109.79,458.59,110.7,458,111.08M451.25,110.08c0.45-0.45,1.29-1.08,1.45-1.75c0.15-0.67-0.22-1.55-0.2-2.25c-0.42,0.12-0.78,0.46-1.09,0.75c-0.34,0.31-0.92,0.35-0.88,0.8C450.59,108.35,450.67,109.58,451.25,110.08M495,109.19c-0.77-0.04-1.4-0.07-2.06-0.51c-0.23-0.15-0.66-0.44-0.43-0.74c0.16-0.21,0.54-0.96,0.8-1c0.81-0.13,1.46-0.03,2.16,0.43C496.24,107.86,495.36,108.62,495,109.19M457.25,109.33c0.18-0.65,0.65-1.42,1.25-1.75C458.59,108.35,458.11,109.31,457.25,109.33M457.25,107.58c0.04-0.62,0.04-1.28,0.75-1.5C458.1,106.63,457.74,107.31,457.25,107.58M440.25,107.08c0.43-0.47,0.9-0.95,1.1-1.57c0.27-0.86-0.08-1.34-0.1-2.18c-0.45,0.11-0.71,0.48-1.13,0.63c-0.62,0.21-0.62,0.05-0.59,0.81C439.56,105.45,439.71,106.6,440.25,107.08M488.25,106.83c-0.18-0.33-0.07-0.81,0.25-1C488.63,106.16,488.58,106.62,488.25,106.83M459.75,106.58c-0.2-1.11,0-2.12,0-3.25C460.25,103.87,460.2,106,459.75,106.58M494.5,104.58c-1.18,0-2.3-0.04-3.46,0.19c-0.83,0.17-1.98,0.74-2.79,0.31c0.4-0.62,0.81-1.22,0.55-1.95c-0.15-0.42-0.34-0.29-0.13-0.82c0.16-0.42,0.38-0.79,0.63-1.16c0.28-0.42,1.74-1.01,1.42-0.07c-0.24,0.71-0.84,1.13-1.22,1.76c0.33-0.09,0.93-0.41,1.09-0.05c0.19,0.42,0.29,0.87,0.41,1.3c0.3-0.39,0.43-0.86,0.64-1.31c0.3-0.63,0.73-0.68,1.41-0.77c0.99-0.14,2.44-0.16,3,0.76c0.46,0.77-0.05,2.38-0.64,2.93c-0.25,0.23-1.26,0.81-1.39,0.17C493.9,105.31,494.15,104.99,494.5,104.58M486,105.83c-0.22-0.29-0.4-0.61-0.75-0.75C485.32,105.44,485.62,105.79,486,105.83M456.25,105.33c-0.54-0.81-1.51-1.92-1.22-2.94c0.32-1.16,0.87-2.21,1.4-3.29c0.99-2,2-4.04,2.89-6.08c1.8-4.13,3.73-8.2,5.5-12.34c0.45-1.04,0.92-2.08,1.34-3.13c0.4-1,0.69-2.12,1.19-3.06c0.17-0.32,0.03-0.44,0.43-0.3c0.17,0.06,0.36,0.2,0.48,0.33c0.38,0.4,0.65,0.86,0.95,1.33c0.58,0.92,1.37,1.85,1.65,2.91c0.25,0.94-0.61,2.25-0.97,3.08c-0.46,1.07-1.05,2.09-1.56,3.14c-0.91,1.85-2.01,3.61-2.93,5.46c-1.28,2.54-2.55,5.12-4.09,7.51c-0.82,1.28-1.57,2.6-2.38,3.89C458.24,102.9,457.54,104.89,456.25,105.33M446.75,105.08c0.54-0.65,1.01-1.16,1.32-1.94c0.18-0.45-0.35-1.5-0.32-2.06c-0.4,0.08-0.73,0.4-1.03,0.67c-0.36,0.33-1.01,0.36-0.92,0.88C445.95,103.4,446.11,104.54,446.75,105.08M468.75,103.08c0.17-0.52,0.43-1.3,1-1.5C469.65,102.19,469.59,103.23,468.75,103.08M503.75,95.08c-0.08,0.61-0.17,1.15,0,1.75c0.37-0.1,0.87-0.33,1.25-0.25c-0.14,0.81-1.07,1.4-1.68,1.85c-0.7,0.53-1.4,1.06-2.11,1.57c-0.73,0.53-1.41,1.1-2.11,1.67c-0.33,0.27-2.06,1.64-2.24,0.55c-0.33-2.02,0.74-3.07,2.29-4.18c0.79-0.56,1.57-1.13,2.34-1.71C502.15,95.84,502.91,95.18,503.75,95.08M499.75,102.33c0.34-1.02,1.24-1.62,2.09-2.18c0.84-0.56,1.69-1.25,2.66-1.57c-0.48,0.86-1.52,1.54-2.21,2.22C501.63,101.44,500.65,102.08,499.75,102.33M491.25,100.33c0.68-0.35,1.56-0.4,2.3-0.53c0.57-0.09,0.98-0.08,1.56-0.01c0.37,0.04,0.77,0.62,0.73,1.02c-0.07,0.83-1.93,0.77-2.54,0.77C492.19,101.58,491.57,101.5,491.25,100.33M453.75,101.83c0.03-1.04,0.59-2.07,1.02-3c0.48-1.03,0.9-2.08,1.36-3.13c0.92-2.12,1.91-4.2,2.76-6.35c1.62-4.08,3.38-8.2,4.68-12.4c0.66-2.14,1.41-4.37,2.43-6.38c2.04,1.26,0.18,4.54-0.43,6.09c-0.82,2.1-1.67,4.18-2.52,6.27c-1.69,4.19-3.87,8.19-5.64,12.35c-0.54,1.26-1.19,2.47-1.8,3.7c-0.26,0.53-0.53,1.05-0.78,1.58C454.59,101.1,454.47,101.96,453.75,101.83M468.5,101.58c0.12-0.53,0.24-1.02,0.5-1.5C469.38,100.56,468.95,101.29,468.5,101.58M481.25,101.08c-0.14-0.35-0.46-0.53-0.75-0.75C480.53,100.72,480.85,101.06,481.25,101.08M488,100.83c-0.38-0.72-0.12-1.53-0.26-2.29c-0.17-0.93-0.29-1.87-0.44-2.8c-0.13-0.83-0.07-1.75,0.09-2.58c0.08-0.42,0.43-0.87,0.63-1.24c0.19-0.36,0.88-0.29,1.23-0.33c-0.45,0.86-1.07,1.72-0.75,2.74c1.25-0.76,0.88-2.85,2.33-3.29c0.36-0.11,0.69-0.21,1.07-0.21c0.22,0,0.1,0.98,0.1,1.21c0,0.71-0.28,1.39-0.24,2.12c0.04,0.77,0.26,1.44-0.43,1.91c-0.71,0.49-1.45,0.71-2.26,1c-1.8,0.64,1.38,2.13,1.68,2.51C489.94,100.08,488.95,100.67,488,100.83M452.5,100.58c-0.3-0.45-0.4-0.92-0.51-1.45c-0.14-0.72-0.35-0.89-0.97-1.26c-0.51-0.3-0.83-0.62-0.92-1.22c-0.09-0.65,0.91-0.85,1.36-1.06c0.42-0.2,1.19,0.16,1.54,0.39c0.6,0.4,0.65,1.18,0.84,1.82C454.13,98.77,453.68,100.41,452.5,100.58M484.5,100.33c-0.12-0.6-0.65-1.13-1.25-1.25C483.33,99.65,484.01,100.1,484.5,100.33M483.25,100.33c-0.26-0.44-0.55-0.75-1-1C482.31,99.85,482.84,100.11,483.25,100.33M468,100.08c0.08-0.54,0.18-1.04,0.5-1.5C468.88,99.06,468.45,99.79,468,100.08M467.25,99.08c-0.01-0.82,0.32-1.57,0.75-2.25C468.48,97.45,467.77,98.65,467.25,99.08M490.5,98.33c0.74-0.88,1.25-1.58,2.44-1.85c0.71-0.16,2.9-0.73,2.79,0.46c-0.05,0.58-0.04,1.23-0.63,1.55c-0.68,0.37-0.9-0.02-1.6-0.18C492.5,98.08,491.45,98.85,490.5,98.33M496.75,98.08c0-0.42,0.06-0.88-0.01-1.29c-0.06-0.38-0.24-0.88-0.19-1.27c0.08-0.55,0.78-2.35,1.4-1.36c0.29,0.46,0.81,1.52,0.53,2.04C498.15,96.82,497.58,98.23,496.75,98.08M466.5,97.33c0.12-0.79,0.35-1.73,1-2.25C467.83,95.73,467.33,97.48,466.5,97.33M477.75,97.08c0-1.21,0-2.43,0-3.64c0-1.31-0.22-2.59-0.24-3.9c-0.01-0.69-0.01-1.38-0.01-2.07c0-0.57-0.5-0.57-0.5,0c0,1.45,0,2.91,0,4.36c-0.36-0.42-0.22-1.11-0.32-1.63c-0.14-0.72-0.18-1.43-0.18-2.17c0-1.41-0.27-2.82-0.25-4.21c-0.61,1.19-0.25,3.22-0.25,4.5c-0.6-0.44-0.5-1.57-0.5-2.22c0-1.09,0-2.19,0-3.28c1.6,0.26,2.96,1.54,4.53,2.01c0.93,0.27,1.85,0.55,2.78,0.78c0.37,0.09,2.02,0.1,2.19,0.46s-0.84,1.59-0.93,1.99c-0.2,0.95-0.48,1.82-0.12,2.76c0.28,0.73,1,1.32,0.91,2.16c-0.08,0.75-0.01,1.66-0.37,2.34c-0.6-0.71-0.48-2.14-0.5-3c-0.26,0.5-0.25,1.06-0.25,1.61c0,0.47,0,0.94,0,1.4c0,0.35-0.5,0.37-0.5,0.08c0-1.55-0.21-3.04-0.25-4.59c-0.35,0.69-0.25,1.55-0.25,2.3c0,0.86-0.08,1.61-0.25,2.45c-0.29-0.32-0.24-0.86-0.24-1.26c-0.01-0.55-0.11-1.07-0.2-1.61c-0.16-0.9-0.3-1.96-0.3-2.88c-0.42,0.83-0.25,1.97-0.25,2.86c0,0.89-0.25,1.76-0.25,2.64c-0.62-0.73-0.18-2.39-0.32-3.29c-0.11-0.7-0.15-1.35-0.17-2.05c-0.02-0.56-0.24-1.1-0.25-1.66c-0.47,0.93-0.25,2.26-0.25,3.26c0,1.58,0,3.16,0,4.74c-0.45-0.5-0.26-1.64-0.31-2.25c-0.08-0.85-0.17-1.64-0.18-2.5c-0.01-1.68-0.26-3.32-0.26-5c-0.32,0.63-0.25,1.42-0.25,2.11c0,1.04,0,2.07,0,3.1c0,0.87-0.26,1.65-0.19,2.54c0.07,0.88-0.03,1.63-0.06,2.5c-0.41-0.48-0.25-1.44-0.25-2.02c0-0.88,0-1.75,0-2.63c0-1.78-0.25-3.55-0.25-5.34c-0.89,1.37-0.5,3.59-0.5,5.15c0,0.88,0,1.75,0,2.63C478,95.31,478.22,96.48,477.75,97.08M454.5,95.9c-1.06,0.13-0.72-1.08-0.98-1.63c-0.29-0.59-0.2-0.75-0.82-0.51c-0.45,0.17-0.74,0.5-1.09,0.82c-0.86,0.78-1.19-0.98-1.22-1.44c-0.06-0.88,0.58-1.63,1.06-2.3c1.03-1.43,3.47-0.57,4.15,0.69c0.35,0.63,0.46,1.65,0.34,2.36C455.79,94.9,455.4,95.44,454.5,95.9M492.75,95.83c0-0.49,0-0.95,0.08-1.43c0.08-0.46,0.7-0.91,1.13-0.51C494.85,94.72,493.64,95.85,492.75,95.83M466,95.83c0-0.82,0.3-2.08,1.25-2.25c0.06,0.48-0.21,0.96-0.38,1.39C466.67,95.45,466.63,95.94,466,95.83M485.5,95.08c0-0.7-0.13-1.31-0.25-2C486.14,93.19,485.93,94.58,485.5,95.08M499.75,94.83c0.1-1.02-0.08-1.78-0.36-2.77c-0.26-0.92,0.63-1.62,1.24-2.17c0.67-0.6,1.27-1.54,1.64-2.36c0.35-0.78,0.76-2.02,1.73-2.21c0.06,0.81-0.21,1.68-0.25,2.5c0.63-0.3,1.52-1.12,2.25-0.75c-0.31,1.12-0.95,2.54-1.64,3.48c-0.2,0.26-0.45,0.37-0.66,0.58c-0.36,0.37-0.5,0.08-0.7-0.21c-0.28-0.4-0.65-1.12-0.75-1.6c-0.35,0.71,0.12,1.77,0.25,2.5c-0.67-0.42-0.76-1.38-1.5-1.75c0.45,0.91,0.53,1.87,0.62,2.87C501.68,93.7,500.42,94.68,499.75,94.83M465.5,93.83c0.1-0.64,0.55-1.59,1.25-1.75C466.66,92.72,466.28,93.97,465.5,93.83M474.25,93.33c0-0.28,0-0.56,0-0.84c0-0.2-0.34-0.29-0.5-0.16c-0.08,0.07,0,0.72,0,0.84C473.75,93.42,474.02,93.36,474.25,93.33M492.75,92.58c0.59-0.99,1.55-1.57,1.93-2.7c0.08-0.22,0.05-0.51,0.06-0.75c0-0.06-0.39-0.14-0.5-0.24c-0.39-0.34-0.68-1.04-0.75-1.57c0.29,0.02,0.57,0.05,0.86,0.03c0.54-0.04,0.44,0.15,0.56,0.66c0.15,0.61,0.08,1.37,0.08,2C495,90.93,493.91,93.05,492.75,92.58M468,92.33c0-0.5,0-1,0-1.5C468.34,91.25,468.33,91.9,468,92.33M486.25,91.83c-0.71-0.86-1.39-3.66,0.25-4c-0.13,0.62-0.45,1.39-0.29,2.04C486.32,90.34,486.84,91.49,486.25,91.83M493,90.08c-0.58-0.01-1.17-0.13-1.75-0.05c-0.64,0.08-1.24,0.37-1.88,0.48c-0.48,0.09-1.39,0.4-1.82,0.07c-0.22-0.17-0.37-0.86-0.47-1.12c-0.13-0.31,0.07-0.57,0.21-0.85c0.3-0.61,1.22-0.31,1.71-0.2c0.67,0.15,1.09,0.13,1.68-0.2c0.54-0.31,1.15-0.77,1.73-0.22C492.88,88.42,492.87,89.47,493,90.08M456.27,90.52c-0.44-0.4-0.63-0.6-0.59-1.21c0.03-0.43,0.26-1.23-0.18-1.54c-0.89-0.62-1.29,1.48-2.13,1.48c-2.23,0-1.2-4.24,0-4.99c1.08-0.68,1.79-1.02,3.08-0.93c0.43,0.03,1.1,0.66,1.46,0.88c0.42,0.26,0.54,0.94,0.73,1.38c0.42,0.97,0.1,1.99-0.25,2.93c-0.15,0.4-0.42,0.86-0.7,1.18C457.23,90.25,456.97,90.31,456.27,90.52M484.75,88.83c0.08-0.54,0.18-1.04,0.5-1.5C485.55,87.79,485.13,88.51,484.75,88.83M489.5,88.08c-0.22-0.4-0.74-2.45,0.2-1.9C490.36,86.56,490.53,88.27,489.5,88.08M470,85.83c0.08-0.08,0.17-0.17,0.25-0.25C470.17,85.66,470.08,85.74,470,85.83M477.25,85.58c0-0.33,0-0.67,0-1C477.01,84.84,477.01,85.3,477.25,85.58M464.25,52.33c0.91,0.15,0.72,1,0.59,1.66c-0.13,0.68,0.73,1.34,1.16,0.59c0.66,0.67-0.52,2.05-0.81,2.67c-0.55,1.17,0.11,2.15,0.79,3.04c0.65,0.86,1.56,1.5,2.21,2.37c0.73,0.98,0.81,1.98,0.81,3.17c-0.34-0.25-1.46-1.32-1.76-0.6c-0.19,0.45-0.48,0.72-0.13,1.07c0.47,0.48,0.54,0.65,1.19,0.65c0.71,0,1.45-0.98,1.59-1.63c0.16-0.77-0.67-1.97-0.97-2.68c-0.28-0.67-1.17-1.07-0.89-1.89c0.19-0.54,1.14-1.98,0.69-2.47c-0.3-0.32-0.55-0.71-0.97-0.87c-0.31-0.12-0.97,0.01-1.17,0.31c-0.16,0.26,0.17,0.9,0.44,1.02c0.28,0.13,0.73-0.06,0.98-0.18c0.09,0.54-0.18,1-0.71,1c-0.27,0-0.67,0.11-0.83-0.13c-0.13-0.2-0.62-0.68-0.6-0.92c0.07-0.75,0.2-1.22,0.49-1.91c0.23-0.53,0.66-1.01,0.77-1.6c0.25-1.32-0.03-2.58,0-3.9c0.03-1.27-0.91-2.3-0.87-3.54c0.37,0.06,0.94,0.26,1.31,0.17c0.48-0.12,0.96-0.34,1.44-0.42c0,4.37-0.16,8.69,0.64,13c0.79,4.28,1.77,8.58,4.3,12.24c1.16,1.68,2.28,3.23,3.8,4.6c1.34,1.2,2.75,1.97,4.26,2.92c-0.45,0.96-1.46,0.42-2.1,0.04c-0.54-0.32-1.99-0.75-2.48-0.19c-0.17,0.19-0.86,0.77-0.71,0.99c0.14,0.21,0.64,1.25,0.88,1.22c1.21-0.19,0.67-1.02,0.42-1.81c0.63,0,2.08,0.36,2.29,1.03c0.36,1.15,0.55,1.84,1.43,2.67c0.62,0.58,1.95,0.18,2.58-0.11c0.67-0.31,1.68-1,2.45-0.84c-0.17,0.38-0.49,1.08-0.03,1.38c0.45,0.29,1.29-0.23,1.78-0.25c0.56-0.02,1.15,0.38,1.71,0.12c0.61-0.28,0.5-0.93,0.54-1.5c1.04,0.03,2.33,1.03,3.25,1.5c-0.57,0.77-1.84,0.68-2.69,0.83c-1.1,0.19-2.19,0.17-3.31,0.17c-2.14,0-4.18-0.03-6.27-0.52c-4.37-1.04-8.1-4.25-10.57-7.93c-2.46-3.67-4.21-7.54-5.4-11.79c-0.58-2.06-0.71-4.17-1.1-6.25C464.25,56.72,463.99,54.45,464.25,52.33M472.25,84.83c0-0.25,0-0.5,0-0.75C472.46,84.3,472.44,84.59,472.25,84.83M495.25,84.08c0.47-1,0.97-1.89,1.27-2.96c0.25-0.88,0.7-2.11,1.73-2.29c-0.05,0.39-0.2,1,0.13,1.34c0.33,0.33,0.81,0.24,1.04-0.1c0.44-0.64,0.54-0.64,0.24-1.35c-0.09-0.2-1.18-0.62-1.42-0.63c-0.85-0.05-1.71,1.13-2.15,1.73c-0.66,0.9-1.63,0.52-2.6,0.52c0.83-1.08,2.47-1.66,3.51-2.56c1.18-1.02,2.15-2.19,3.08-3.44c0.9-1.21,1.64-2.46,2.42-3.75c0.31-0.52,0.65-1.33,1.05-1.78c0.16-0.18,0.56-0.81,0.8-0.8c0.43,0.02,0.73,0.16,1.13,0.33c-0.4,0.38-1.21,0.48-1.75,0.5c0.06,0.54,0.78,1.39,1.33,1.48c1.18,0.19,0.99-0.95,0.67-1.73c0.41,0.11,0.84,0.19,1.25,0.31c0.6,0.18,0.45,0.27,0.46,0.86c0.01,1.03-0.23,1.74-0.61,2.71c-0.68,1.79-1.83,3.42-2.97,4.93c-1.12,1.49-2.33,2.88-3.81,3.99C498.66,82.45,497.06,83.81,495.25,84.08M482.5,81.33c-0.23,0.82,0.32,1.02,0.95,1.31c0.43,0.19,0.71-0.85,0.74-1.12c0.03-0.31-0.09-0.68,0.26-0.68c0.31,0,0.62,0,0.94,0.03c0.75,0.06,1.02,0.34,0.71,1.01c-0.44,0.93-2.1,1.51-3.04,1.68c-0.66,0.11-1.18-0.22-1.23-0.8C481.77,82.06,481.65,81.49,482.5,81.33M458.77,83.37c-1.15-0.15-0.18-2.09-0.65-2.71c-0.89-1.17-1.72,1.06-2.17,1.53c-0.9,0.95-1.79-0.46-1.85-1.32c-0.09-1.31,0.11-2.34,0.67-3.53c0.93-1.95,4.22-2.64,5.62-0.96c0.84,1.02,1.11,1.82,1.19,3.14c0.06,0.89-0.53,2.37-1.19,2.96C459.83,82.98,459.48,83.14,458.77,83.37M490.25,81.83c-0.01-1.27,1.65-1.15,2.5-1.25c0,0.53-0.25,1.33,0.3,1.52c0.33,0.12,0.53,0.27,0.83,0.1c0.26-0.15,0.36-0.6,0.37-0.87c1.33,0,0.86,2.21-0.35,1.83C492.66,82.77,491.49,82.18,490.25,81.83M488,82.33c-0.08-0.48-0.53-1.25,0.25-1.25c0.51,0,0.68,0.82,0.75,1.25C488.67,82.33,488.33,82.33,488,82.33M483.25,79.08c0.99-0.53,2.45-0.25,3.54-0.25c1.74,0,3.47,0,5.21,0c-0.76,1.03-3.12,0.98-4.25,1C486.42,79.84,484.31,80.08,483.25,79.08M475.5,79.4c0.4-0.18,1.37-0.87,1.33-1.37c-0.04-0.53-0.08-1.33-0.89-1c-0.59,0.25-1.21,0.64-1.45,1.3C474.2,79.17,474.87,79.26,475.5,79.4M482,79.08c-0.86-0.58-1.9-0.84-2.79-1.37c-0.98-0.59-1.71-1.46-2.49-2.29c-1.5-1.58-2.64-3.41-3.64-5.33c-1.02-1.96-1.42-4.1-2.02-6.2c-0.6-2.1-1.13-4.35-1.06-6.54c0.03-0.9-0.19-1.86-0.24-2.77c0.97,0.22,1.38,1.81,1.74,2.59c0.44,0.96,0.94,1.9,1.41,2.85c1,2.02,1.89,4.09,2.89,6.1c1.09,2.19,2.13,4.41,3.22,6.61c0.47,0.95,0.97,1.89,1.41,2.85c0.23,0.49,0.43,0.98,0.68,1.46c0.24,0.45,0.63,0.87,0.81,1.34C482.03,78.64,482.16,78.81,482,79.08M500,76.08c0.05,0.75,0.19,0.93,0.65,1.53c0.27,0.36,0.97,1,1.43,0.47c0.33-0.38,0.01-0.99-0.34-1.25C501.07,76.34,500.82,76.13,500,76.08M475.75,63.08c0.93,0.33,1.72,1.12,2.47,1.73c0.78,0.62,1.79,1.12,2.28,2.02c-1.21,0.03-1.55,1.28-0.76,2.09c0.25,0.26,1.09,0.84,1.14,1.2c0.1,0.63,0.18,1.17,0.44,1.74c0.23,0.52,0.76,0.75,1.26,0.95c0.66,0.26,0.96-0.51,1.22-0.93c0.22-0.36-0.87-0.56-1.05-0.58c-0.58-0.06-1.18,0.02-0.83-0.7c0.19-0.38,0.74-0.85,1.16-0.95c0.11-0.03,0.66-0.16,0.66-0.02c0,0.15-0.1,0.87,0,0.96c0.26,0.23,1.17,0.05,1.57,0.25c0.54,0.27,0.72,0.68,0.76,1.26c0.04,0.67,0.02,0.93-0.51,1.37c-0.48,0.4-0.73,0.96-1.05,1.49c-0.42,0.69,1.63,1.92,2.04,2.21c0.13,0.09,0.54,0.74,0.44,0.93c-0.11,0.21-0.97,0.21-1.16,0.22c-0.95,0.05-1.79-0.04-2.71-0.23c-0.61-0.13-1.14-1.64-1.4-2.13c-0.4-0.76-0.75-1.56-1.13-2.33C478.88,70.2,476.96,66.71,475.75,63.08M490,78.08c0.02-1.8,2.83-2.2,1.5-4.2c-0.25-0.38-0.72-0.86-0.86-1.3c-0.16-0.51,0.15-0.77,0.42-1.15c0.31-0.44,0.37-0.71,0.95-0.67c0.43,0.03,0.83,0.26,1.25,0.32c0-0.33,0-0.67,0-1c0.33,0,0.66,0.09,0.92,0.28c0.19,0.14,0.47,0.89,0.34,1.1c-0.34,0.54-1.76,0.1-1.76,0.99c0,0.32,0.18,0.73,0.52,0.82c0.17,0.05,1.14-0.09,1.25-0.22c0.76-0.88,1.15-1.21,1.08-2.37c-0.03-0.39-0.16-0.79,0.11-1.1c0.34-0.38,0.68-0.76,1.02-1.14c0.21-0.23,0.39-0.75,0.21-1.01c-0.45-0.62-0.39-0.62-1.11-0.37c-0.41,0.14-0.4,0.45-0.28,0.87c0.14,0.47,0.32,0.61-0.21,0.81c-0.68,0.25-1.87-0.05-1.85-0.91c-0.64,0.11-1.22,0.73-1.67,1.16c-0.26,0.25-1.57,1.79-2.08,1.59c-0.11-0.04-0.37-0.89-0.41-1.01c-0.16-0.43-0.21-1.01,0.14-1.33c0.6-0.55,2.06-0.68,2.8-0.87c1.59-0.41,3.32-1.37,4.53-2.49c1.27-1.17,2.91-2.47,3.7-4.05c0.47,0.62-0.24,1.82-0.51,2.43c-0.37,0.85-0.7,1.71-1.04,2.57c-0.7,1.76-1.47,3.5-2.23,5.23c-0.71,1.64-1.35,3.32-2.06,4.96c-0.4,0.91-0.78,1.75-1.8,1.92C491.89,78.09,490.97,78.08,490,78.08M494.75,77.83c0.04-0.99,0.57-1.94,0.94-2.85c0.45-1.12,0.92-2.21,1.42-3.31c0.9-1.98,1.74-4.03,2.49-6.06c0.74-2,1.75-3.87,2.54-5.85c0.41-1.03,0.8-2.06,1.27-3.06c0.39-0.83,0.73-2.18,1.61-2.63c0,4.49-0.43,8.74-1.98,12.98c-0.76,2.07-1.83,3.94-3.06,5.77c-1.2,1.77-2.71,3.72-4.6,4.77C495.16,77.71,494.97,77.79,494.75,77.83M488.75,76.08c-0.01-0.59,0.18-1.5,0.79-1.78c0.76-0.34,1.47,0.04,1.71,0.78c-0.4,0.21-0.81,0.16-1.24,0.06c-0.47-0.11-0.46,0.82-0.58,1.24c-0.13,0.46-0.41,1.17-1.04,1.08c-0.51-0.08-0.92-0.85-1.22-1.22c-0.32-0.39-1.17-0.25-1.48-0.67c-0.25-0.34,0.16-1.24,0.58-1.34c0.52-0.13,1.17,0.31,1.45,0.68C488.04,75.33,488.29,75.8,488.75,76.08M473,77.58c1.04-0.06,2.4-0.4,1.66-1.72c-0.26-0.46-0.98,0.02-1.23,0.22C473.02,76.42,473.06,77.1,473,77.58M503.75,76.08c-0.05-1.05-1.25-1.84-2.25-1.75C501.46,75.43,502.82,75.91,503.75,76.08M461.51,75.67c-1.33,0.14-0.58-2.08-1.02-2.64c-0.94-1.21-1.86-0.12-2.29,0.8c-0.14,0.31-0.42,0.91-0.84,0.77c-0.59-0.19-1.1-0.2-1.23-0.86c-0.22-1.11-0.6-2.32-0.21-3.44c0.39-1.15,0.82-2.05,1.84-2.79c0.94-0.68,1.91-0.75,3.02-0.63c2.42,0.28,3.64,2.72,3.43,4.96C464.05,73.46,463.13,75.17,461.51,75.67M473.25,75.58c0-0.33,0-0.67,0-1c-0.24,0.04-1,0.05-1,0.38C472.25,75.65,472.73,75.58,473.25,75.58M504.25,74.08c0-0.17,0.11-0.89,0-1c-0.11-0.11-0.83,0-1,0C503.23,73.6,503.72,74.1,504.25,74.08M488.75,72.83c0.18-1.02-0.77-1.98-0.75-3C488.84,70,489.28,72.22,488.75,72.83M471.25,72.08c-0.05-0.32-0.21-1.54-0.81-0.94C469.75,71.82,470.73,72,471.25,72.08M505,70.83c-0.29-0.03-1.75,0.1-1.25,0.75C504.22,72.19,505,71.32,505,70.83M470.5,70.58c0.74-0.38,0.63-1.37,0.4-2.04c-0.18-0.56-0.12-0.81-0.69-0.92c-0.48-0.09-0.88-0.26-1.34-0.04c-0.47,0.22-0.66,0.68-0.94,1.11c-0.19,0.29,0.31,0.88,0.46,1.16C468.88,70.75,469.62,70.58,470.5,70.58M486.5,70.33c-0.53-0.47-1.03-0.96-1.61-1.36c-0.47-0.32-1.3-0.75-1.39-1.39c1.09,0.26,2.32,0.22,3.38,0.54c0.59,0.18,0.65,0.22,0.47,0.84C487.2,69.46,486.97,70.03,486.5,70.33M480.25,68.83c0.15-0.68,0.7-1.27,0.5-2c0.36-0.07,0.81,0.12,1.16,0.23c0.66,0.21,0.94,0.15,0.75,0.88c-0.19,0.72-0.24,0.76-0.96,0.93C481.13,68.99,480.81,68.99,480.25,68.83M477.75,62.83c0.29-0.04,0.5,0.13,0.75,0.25c0.39-1.44,0.83-2.69,1.71-3.93c0.63-0.87,1.78-3.08,3.04-3.07c-0.23,1.35-1.57,2.22-2,3.5c0.88-0.73,2.05-2.11,3.25-2.25c-0.14,1.13-1.21,2.3-2.05,3c-0.53,0.44-1.02,0.91-1.63,1.24c-0.5,0.27-1.24,0.52-1.57,1.02c1.8-0.29,3.19-1.94,4.75-2.75c0.04,1.12-0.46,2.15-0.5,3.25c-0.25-0.11-0.79-0.35-1.03-0.14c-0.36,0.31-0.49,0.68,0.12,0.73c0.54,0.04,0.91-0.13,1.35,0.23c0.41,0.34,0.51,0.74,1.06,0.92c0.06-0.29,0.11-0.78-0.06-1.04c-0.32-0.46-0.71-0.26-0.6-0.86c0.12-0.66,0.7-1.91,1.41-2.1c0.2,1.07,0.29,2.27,0.69,3.29c0.43,1.07,0.95,2.12,1.31,3.21C484.1,68.1,479.65,65.98,477.75,62.83M488.5,67.33c0.31-1.08,0.94-2.03,1.29-3.1c0.29-0.87,1.15-2.49,0.96-3.4c0.67,0.13,1.38,0.93,1.53,1.57c0.18,0.76-0.27,1.43-0.03,2.18c0.43-0.13,0.82-0.35,1.25-0.5c-0.07,0.65,0.3,1.25,1,1.25c-0.12-0.66-0.58-1.13-0.75-1.75c0.47,0.16,0.7-0.03,0.88-0.43c0.13-0.29-0.68-0.58-0.85-0.71c-0.65-0.53-1.02-1.52-1.03-2.36c1.33,0.21,2.61,1.25,3.84,1.78c0.29,0.13,0.61,0.24,0.91,0.33c0.41,0.13,0.54,0.06,0.44,0.54c-0.11,0.55-0.71,1.15-1.14,1.49C494.36,66.17,491.63,67.26,488.5,67.33M504.5,66.58c0.04-1.3,0.84-2.47,1-3.75c0.41,0.5,0.35,1.57,0.51,2.2c0.19,0.74,1.23,0.97,1.24,1.8C506.32,66.81,505.44,66.43,504.5,66.58M488,65.58c-0.75-2.43-1-4.72-1-7.25c1.8,0.35,0.27,3.7,1.75,4.5c0-1.18-0.03-2.37,0.03-3.56c0.02-0.49,0-1.31,0.6-1.14c0.57,0.16,0.62,0.9,0.62,1.39C490,60.58,489.51,65.86,488,65.58M483.5,65.58c0.04-0.12,0.12-1.62-0.29-1.21C482.6,64.98,482.77,65.19,483.5,65.58M506.5,64.33c0.02-0.61,0.21-1.21,0.5-1.75C507.46,63.08,507.34,64.48,506.5,64.33M455.75,62.33c0-0.45-0.18-0.75,0.32-0.75c0.49,0,0.89,0.04,1.37,0.13c0.79,0.15,1.58,0.27,2.37,0.4c1,0.16,3.97,0.12,4.2,1.47C461.22,63.46,458.52,62.33,455.75,62.33M505.75,62.58c0.02-0.87,0.1-1.65,0.25-2.5c0.44,0.09,0.85,0.3,1.25,0.5C506.92,61.26,506.35,62.1,505.75,62.58M477.5,62.58c-0.81-0.53-1.49-1.65-1.91-2.5c-0.21-0.43-0.5-0.9-0.04-1.17c0.44-0.26,0.86-0.54,0.96-1.08c-0.45-0.04-0.86,0.01-1.29,0.14c-0.59,0.18-0.62-0.15-0.79-0.67c-0.29-0.87-0.71-2.18-0.59-3.1c0.07-0.55,0.15-0.66,0.7-0.49c0.5,0.15,0.99,0.37,1.49,0.51c1.06,0.3,2.14,0.68,3.23,0.85c-0.15,0.78-0.95,1.14-1.54,1.54c-0.64,0.45-0.97-0.53-1.71-0.54c0,0.57,0.43,1.07,0.8,1.45c0.36,0.36,0.49,0.18,0.29,0.72c-0.06,0.18-0.05,0.86,0.28,0.7c0.88-0.43-0.38-1.1,0.59-1.39c0.67-0.2,1.31-0.54,2.04-0.48c-0.14,0.91-0.95,1.86-1.34,2.69C478.27,60.6,478.07,61.87,477.5,62.58M498.75,61.83c-0.6-0.91-1.05-1.9-1.68-2.79c-0.64-0.91-1.54-1.73-2.07-2.71c0.97,0,2.34,0.04,3.13,0.73c0.35,0.31,0.56,1.19,1.07,1.16c0.53-0.02,1.02-0.18,1.55-0.15C500.63,59.48,500.03,61.07,498.75,61.83M491.25,57.08c1.49,0.06,2.68,1.42,4,2c-0.51-0.51-1-1.04-1.53-1.53s-1.24-1-1.47-1.72c1.31,0.2,2.3,1.41,3.2,2.28c0.94,0.91,2.05,2.11,2.05,3.47c-1.26-0.18-2.46-1.06-3.45-1.81C493.24,59.16,491.4,58.17,491.25,57.08M458.25,60.83c0.24-1.46,2.4-2.28,3.69-1.77c0.61,0.24-1.27,1.56-1.44,1.62C459.85,60.92,458.92,61,458.25,60.83M506,58.08c0-0.84,0.25-1.64,0.26-2.48c0-0.35-0.03-0.79,0.08-1.12c0.12-0.36,0.55-0.69,0.74-0.2c0.27,0.67,0.17,1.45,0.17,2.15c0,0.54,0,1.08,0,1.62C507.25,58.1,506.14,58.08,506,58.08M458.75,58.08c-0.66-0.39-0.13-1,0.42-1C459.62,57.08,459.64,58.24,458.75,58.08M486.75,57.08c0.31-0.18,0.65-0.2,1-0.25C487.92,57.77,487.18,57.53,486.75,57.08M502.25,57.33c0.09-2.05,0.58-4.26,0.19-6.32c-0.39-2.07-1-4.27-2.29-5.98c-0.67-0.89-1.34-1.69-2.16-2.44c-0.41-0.38-0.82-0.85-1.28-1.17c-0.43-0.3-0.96-0.43-0.96-0.96c0-0.62,0.6-0.57,0.76-1.14c0.13-0.49-0.2-1.14-0.59-1.44c-0.44-0.34-0.89-0.55-1.39-0.79c-0.62-0.29-0.46-0.33-0.23-0.94c0.36-0.94,0.45-2.44-0.91-2.61c-0.33-0.04-1.18,0.42-0.81,0.8c0.23,0.23,0.39,0.42,0.69,0.57c0.33,0.16,0.51,0.05,0.45,0.46c-0.15,0.98-1.88,1.09-1.94,0.01c-0.03-0.58-0.75-0.14-1.19-0.29c-0.49-0.17-1.06-0.63-0.92-1.23c0.13-0.6,0.58-0.6,0.9-1.06c0.27-0.38,1.04-1.11,1.03-1.59c-0.04-1.43-1.71-1.25-2.34-2.05c-0.19-0.24-0.77-1.01-0.3-1.12c0.64-0.15,1.26-0.17,1.92-0.2c1.14-0.05,1.95,0.5,2.51,1.45c1.13,1.91,1.79,4.1,2.83,6.05c1.08,2.03,1.98,4.15,2.94,6.24c0.95,2.07,1.96,4.12,2.99,6.15c0.48,0.95,0.97,1.88,1.39,2.86c0.55,1.28,0.74,2,0.37,3.35C503.63,54.96,503.11,56.64,502.25,57.33M462.25,57.08c-0.37,0.2-1.18,0.31-1.53,0.03c-0.29-0.24-0.58-0.47-0.87-0.71c-0.22-0.18-0.01-0.68,0.03-0.94c0.08-0.52,1.16-0.23,1.4,0.02C461.73,55.96,462.15,56.4,462.25,57.08M501,57.08c-0.33-0.43-0.53-0.79-0.96-1.14c-0.44-0.36-0.93-0.17-1.47-0.06c-0.7,0.13-2.13-0.6-2.33-1.3c1.05-0.03,2.13-0.53,3.12-0.87c0.92-0.32,1.69-1.22,2.63-1.38C502,53.64,502.19,56.21,501,57.08M488.75,57.08c0.19-0.28,0.45-0.38,0.75-0.5C489.45,56.94,489.09,57.1,488.75,57.08M485.75,57.08c-0.39-0.3-0.74-0.57-1-1C485.28,55.99,486.17,56.47,485.75,57.08M472.5,56.58c-0.47-0.9-0.88-1.75-1.13-2.73c-0.17-0.69,0.35-2.07,1.13-2.27c0,0.91-0.01,1.82,0.02,2.73C472.54,54.92,472.96,56.08,472.5,56.58M488,55.7c-1.68,0.13-2.8-0.55-3.11-2.25c-0.3-1.61,0.75-3,2.36-3.29c1.59-0.29,3.08,0.48,3.25,2.17c0.06,0.55,0.02,1.68-0.37,2.09C489.47,55.09,488.88,55.32,488,55.7M484,55.33c-0.08-0.17-0.17-0.33-0.25-0.5C484.38,54.7,484.41,55.38,484,55.33M488.5,54.58c0-0.63-0.13-1.22-0.5-1.75c0.35-0.05,0.69-0.07,1-0.25c-0.25-0.58-1.1-0.89-1,0c-0.3-0.2-0.48-0.4-0.7-0.68c-0.14-0.19-0.87,0.08-1.05,0.18c0.12,0.3,0.24,0.54,0.5,0.75c-0.16,0.16-0.82,0.65-0.69,0.84c0.16,0.21,0.46,0.52,0.76,0.43c0.44-0.12,0.33-0.35,0.76,0.02C487.83,54.33,488.18,54.51,488.5,54.58M475,53.33c0.2-1.28,2.41-1.49,3.39-1.72c1.26-0.3,2.6,0.22,3.86,0.22c-0.1,0.71-1.01,0.74-1.57,0.75c-0.76,0-1.44,0.08-2.18,0.25c1.26,0.68,2.87,0.13,4,1c-0.58,1.2-2.52,0.55-3.54,0.5C477.49,54.24,476.37,53.77,475,53.33M493,53.33c1.18,0,2.33-0.57,3.5-0.5c-1.08-0.77-2.4-0.16-3.5-0.75c0.56-0.89,2.93-0.71,3.81-0.59c0.64,0.09,1.35,0.01,1.97,0.17c0.44,0.11,0.88,0.22,1.32,0.33c0.53,0.13,0.4,0.25,0.4,0.79c0,0.51-3.4,1.08-3.88,1.16C495.81,54.08,493.25,54.51,493,53.33M461,53.08c0.93-0.09,1.96-0.27,2,1C462.27,54.06,460.97,54.16,461,53.08M469.75,53.33c-0.32-1.04,0-2.26,0-3.34c0-1.03-0.07-2.09,0.09-3.11c0.36-2.29,0.62-4.47,1.28-6.7c1.29-4.36,3.32-8.34,6.3-11.78c2.77-3.19,7.87-4.68,11.88-3.69c4.26,1.05,7.9,4.91,10.15,8.49c1.64,2.62,2.87,5.47,3.81,8.42c0.45,1.4,0.77,2.89,1.04,4.34c0.31,1.67,0.45,3.17,0.45,4.87c-0.89-0.57-1.24-1.85-1.69-2.75c-0.49-0.99-1-1.95-1.45-2.96c-0.84-1.92-1.85-3.83-2.81-5.7c-1.06-2.06-1.93-4.2-2.96-6.27c-0.51-1.02-1.02-2.03-1.49-3.06c-0.41-0.9-0.78-2.07-1.53-2.76c-0.83-0.77-2.18-0.49-3.24-0.49c-1.17,0-2.34,0-3.51,0c-1.04,0-2.08,0-3.13,0c-0.58,0-1.04,0.08-1.62,0.21c-0.48,0.11-0.79,0.97-0.97,1.35c-0.95,1.98-1.62,4.11-2.48,6.13c-0.9,2.12-1.76,4.26-2.62,6.4c-0.85,2.13-1.79,4.21-2.64,6.34c-0.42,1.05-0.89,2.07-1.33,3.11C470.92,51.27,470.62,52.77,469.75,53.33M474,52.08c0-0.96-0.03-1.92,0.33-2.83c0.1-0.26,0.26-0.94,0.57-0.9c0.56,0.07,1.04,0.14,1.59-0.02c-0.22,0.71-0.81,1.76,0.5,1.75c0.08-0.38-0.15-0.88-0.25-1.25c0.92,0.29,2.27,0.87,2.75,1.75c-0.86,0.21-1.77,0.21-2.6,0.51C475.98,51.41,474.97,51.91,474,52.08M501.5,51.83c-0.77-0.52-1.84-0.84-2.75-1c-0.85-0.15-2.13-0.04-2.75-0.75c0.95-0.6,1.54-0.92,2.67-0.76c1.45,0.21,0.07-1.19,0.08-1.74c0.48,0.11,0.96,0.32,1.46,0.28c0.13-0.01,0.76-0.11,0.8,0.01c0.1,0.32,0.22,0.63,0.3,0.96C501.54,49.63,502.07,51.09,501.5,51.83M462.25,51.83c0.05-0.35,0.07-0.69,0.25-1C462.79,51.2,462.54,51.54,462.25,51.83M466,51.33c-0.55-0.41-1.1-0.46-1.75-0.25c0-1.07-0.34-3.15,0.5-4C465.24,47.86,467.09,50.61,466,51.33M507.25,47.33c0,1.16,0.07,2.35,0,3.5C505.54,50.9,505.43,47.32,507.25,47.33M492,50.08c0.24-1.26,1.44-2.36,2-3.5c-0.97,0.33-2.14,2.56-3.25,2c0.51-1.09,1.47-1.97,2.27-2.87c0.69-0.78,1.97-1.6,2.98-1.88c-0.08,1.49-0.4,2.58-1.17,3.88C494.26,48.67,493.18,49.9,492,50.08M479,44.08c1.44,0.56,2.54,1.24,3.73,2.24c0.53,0.45,1.01,0.9,1.48,1.42c0.17,0.19,0.39,0.46,0.45,0.7c0.13,0.54-0.12,0.53-0.58,0.82c-0.67,0.42-1.02,0.73-1.71,0.16c-0.55-0.45-1.01-1.03-1.46-1.58C480.06,46.81,478.96,45.47,479,44.08M483.5,48.83c-0.19-0.91-1.2-1.83-2-2.25C481.98,47.37,482.55,48.53,483.5,48.83M477.75,48.08c0.11-0.65-0.35-1-0.92-1c-0.64,0-1.23,0.14-1.16-0.76c0.07-0.88,1.32-2.12,2.08-2.49c0.17,0.82,0.81,1.73,1.24,2.46c0.44,0.76,1.24,1.63,1.26,2.54C479.42,48.83,478.41,48.57,477.75,48.08M495.25,48.58c0.4-1.24,2.36-4.28,1.24-5.33c-0.39-0.37-0.6-0.61-1.15-0.34c-0.52,0.26-1,0.52-1.49,0.83c-0.8,0.5-1.5,1.19-2.35,1.59c-0.01-0.45-0.07-1.04,0.16-1.44c0.33-0.56,0.71-0.52,1.34-0.56c-0.01-0.69-0.52-1.13-1.21-1.04c-0.4,0.05-0.46-0.22-0.78-0.42c-0.29-0.18-0.7-0.14-1.01-0.04c0.7,1.07,0.72,1.94,0,3c-0.99-0.9-1.1-3.09-1.53-4.33c-0.06-0.18-0.38-0.88-0.12-0.95c0.51-0.13,0.93-0.1,1.45-0.05c0.73,0.07,1.46,0.31,2.19,0.33c-0.11,0.54-0.45,1.2-0.25,1.75c0.57-0.29,0.76-0.92,0.5-1.5c1.04-0.2,2.88,0.91,3.68,1.51c1.18,0.88,2.69,1.87,3.43,3.18c0.27,0.48,0.69,1.34,0.36,1.85c-0.52,0.81-0.9,0.09-1.55,0c-0.5-0.07-0.66-0.16-0.66,0.38c0,0.41-0.07,0.71-0.37,0.97C496.6,48.44,495.96,48.58,495.25,48.58M486.75,47.83c-0.23-1.23-0.1-2.26,0-3.5c0.08-1.08,0.12-2.32,0.75-3.25c0.93,0.54,0.99,2.06,1.15,3c0.2,1.21,0.36,2.28,0.1,3.5c-0.43-0.45-0.46-1.16-0.48-1.75c-0.02-0.68-0.25-1.33-0.27-2C486.83,44.69,488.01,46.97,486.75,47.83M465.75,46.58c-0.02-0.79,0.28-1.14,1-1.36c0.71-0.22,1.09,0.38,1,1.11C466.98,46.04,466.39,45.92,465.75,46.58M469,45.83c-0.77-0.68-0.92-1.57-0.56-2.5c0.42-1.07,0.82-1.91,0.54-3.06c-0.12-0.47-0.2-0.66-0.59-0.97c-0.7-0.55-0.65-0.51-1.46-0.11c-0.64,0.31-0.33,0.76-0.02,1.22c0.32,0.48,0.82-0.07,1.08-0.33c0.58,0.71,0.21,2.29-0.25,2.98c-0.57,0.84-2.01,1.61-3,1.77c0.08-2.04,0.71-4.25,1.32-6.18c0.65-2.08,1.61-4.18,2.64-6.1c1.05-1.97,2.38-3.83,3.78-5.57c0.64-0.8,1.45-1.54,2.32-2.06c0.55-0.33,0.64,0.5,1.01,0.81c0.56,0.48,0.95,0.28,1.6,0.1c0.71-0.2,1.19-0.34,1.77-0.79c0.77-0.6,1.11-0.56,2.08-0.46c-0.42,0.77-1.41,1.15-2.07,1.69c-0.95,0.77-1.86,1.49-2.69,2.4c-1.41,1.55-2.45,3.5-3.46,5.33c-1.08,1.94-1.76,3.99-2.5,6.07c-0.34,0.94-0.51,1.94-0.73,2.92C469.62,43.8,469.62,45.21,469,45.83M483.25,45.58c-0.57-0.38-1.13-0.75-1.71-1.12c-0.55-0.35-1.27-0.55-1.77-0.96c-1.4-1.14,0.57-2.27,1.73-2.42c0.26,0.84-0.25,1.65,0,2.5c0.55-0.18,1.13-0.2,1.52,0.31C483.3,44.25,483.63,45.17,483.25,45.58M505.5,45.08c-0.53-0.73-0.66-1.8-0.88-2.66c-0.27-1.04-0.56-2.1-0.97-3.09c-0.82-2-1.87-4.03-3-5.87c-1.06-1.74-2.26-3.49-3.7-4.93c-0.77-0.77-1.62-1.43-2.48-2.11c-0.73-0.57-1.73-1.03-2.22-1.84c0.61,0.01,1.18-0.09,1.75-0.3c0.63-0.23,0.63-0.01,0.92,0.55c0.34,0.64,0.84,1,1.4,1.48c0.4,0.34,1.16,0.28,1.68,0.27c-0.02,0.49,0,0.97,0,1.45c0,0.55,0.72,0.4,0.86-0.04c0.26-0.79,1.22-1.21,1.64-1.91c-0.51,0-1.01,0-1.51,0c-0.44,0-0.36-0.66-0.43-1.04c-0.06-0.31-0.67-0.53-0.89-0.32c-0.28,0.27-0.01,0.83,0.08,1.11c-1.25,0.4-1.93-0.6-2.57-1.47c-0.23-0.31-0.23-1.01-0.33-1.4c-0.14-0.55,0.39-0.62,0.91-0.63c2.27-0.04,4.05,1.92,5.43,3.5c1.44,1.65,2.54,3.54,3.58,5.46c0.53,0.97,1.03,1.96,1.42,2.99c0.17,0.46,0.35,0.89,0.71,1.22c0.17,0.16,0.35-0.05,0.35,0.24c0,0.36,0,0.73,0,1.09c-0.44-0.08-0.86-0.32-1.25-0.51c-0.36-0.17-0.5-0.14-0.49-0.54c0.01-0.21-0.06-0.48-0.19-0.65c-0.77-0.98-1.8,0.18-2.07,0.95c0.41,0.11,0.82,0.24,1.25,0.25c-0.12,0.41-0.34,0.69-0.4,1.12c-0.11,0.76,0.02,0.75,0.73,0.97c0.76,0.23,1.84-0.72,2.17-1.35c0.21,0.23,0.25,0.61,0.25,0.91c0,0.31,0,0.62,0,0.93c0,0.3-0.18,0.07-0.4,0.16c-1.03,0.4-1.22,0.84-1.51,1.87C505.13,41.65,507.01,45.36,505.5,45.08M485,45.08c-0.33-0.41-2.13-3.21-2.5-2.5c-0.21-0.37,0.01-0.84,0.04-1.25c0.02-0.23,0.01-0.42-0.02-0.65c-0.03-0.19,0.39-0.23,0.57-0.3c1.04-0.39,2.1-0.8,3.22-0.8c0.45,0-0.4,2.36-0.52,2.81C485.56,43.19,485.62,44.46,485,45.08M475.25,44.08c0.02-0.8,0.48-1.67,0.76-2.41c0.33-0.87,0.66-1.73,1.02-2.58c0.75-1.76,1.43-3.54,2.16-5.3c0.74-1.78,1.29-3.69,2.36-5.31c0.39-0.58,2.09-0.41,2.7-0.41c0.22,0,1.25-0.13,1.25,0.11c0,0.55,0,1.09,0,1.64c0.38-0.37,0.71-0.71,1.18-0.96s1.08,0.4,1.46,0.64c0.31,0.2,0.43,0.75,0.61,1.06c0.25,0.43,0.57,0.75,1,1.01c0.02-0.39,0.36-0.72,0.75-0.75c-0.07,0.9-0.32,1.66-1.46,1.23c-0.61-0.22-1.18-1.76-1.94-1.27c-0.35,0.22-0.59,0.63-0.86,0.95c-0.27,0.32-0.59,0.36-0.98,0.48c-0.45,0.14-0.75,0.34-1.14-0.01c-0.29-0.26-0.38-0.77-0.37-1.13c0.22,0.04,0.53,0.09,0.68,0.27c0.11,0.12,0.27,0.48,0.39,0.48c0.59,0,0.74-0.66,0.78-1.25c0.01-0.18,0.01-0.78-0.21-0.73c-0.33,0.07-0.65,0.16-0.98,0.25c-0.71,0.19-0.9,0.76-1.24,1.36c-0.29,0.5,0.41,1.1,0.77,1.35c0.27,0.19,0.49,0.36,0.8,0.45c0.13,0.04,0.71,0.22,0.75,0.32c0.16,0.37-0.53,1.32-0.83,1.48c-0.51,0.27-1.35,0.05-1.92,0.02c0.07,0.42,0.18,0.83,0.25,1.25c-0.71,0.19-1.86-0.32-1.98-1.1c-0.08-0.52,0.21-0.43,0.61-0.61c0.18-0.08,0.69-0.52,0.52-0.73c-0.41-0.51-0.37-0.57-1.01-0.45c-0.55,0.1-0.61,0.51-0.88,1c-0.46,0.83,0.25,1.28,0.36,2.08c0.14,1.01-0.72,1.23-1.12,2.06c-0.36,0.77,0.08,1.58-0.49,2.27c-0.54,0.64-1.31,1.1-1.93,1.69C476.5,43.07,475.94,43.68,475.25,44.08M507,43.58c-0.65-0.55-0.77-1.45-0.75-2.25c0.63,0.17,1,0.07,1,0.76C507.25,42.55,507.33,43.2,507,43.58M484.5,42.33c0.12-0.74-0.49-1.13-1.15-1.02c-0.3,0.05,0.08,0.62,0.22,0.73C483.85,42.27,484.14,42.34,484.5,42.33M494.75,40.08c-0.88-0.52-1.29-1.21-1.25-2.25c0.4,0,1.82,0,2,0.5C495.6,38.62,494.96,39.84,494.75,40.08M480.5,38.83c-0.19-1.03,2.4-1.56,2.79-0.66c0.12,0.27,0.36,0.62,0.02,0.71c-0.36,0.1-0.68,0.18-1.05,0.23C481.61,39.2,481.11,39.03,480.5,38.83M489,35.58c0.74,0.15,1.29,0.88,1.85,1.35c0.66,0.56,1.37,1.04,1.65,1.9c-0.91,0.01-2.48-0.13-3.29-0.52c-0.65-0.32-0.86-0.42-0.78-1.23C488.49,36.57,488.77,36.02,489,35.58M483.75,38.58c0.17-0.63,0.57-1.32,0.95-1.86c0.46-0.66,1.16-1.86,1.59-0.52c0.12,0.38,0.24,0.75,0.32,1.14c0.1,0.5,0.29,0.73-0.29,0.85C485.45,38.38,484.63,38.54,483.75,38.58M468.25,36.08c-0.02,0.75,0.99,1.8,1.69,1.19c0.32-0.28-0.24-0.75-0.42-1C469.31,35.97,468.54,36.08,468.25,36.08M487.25,36.83c-0.18-0.31-0.2-0.65-0.25-1C487.29,36.12,487.54,36.45,487.25,36.83M470.25,35.58c0.14-0.56,0.23-1.57-0.63-1.16c-0.44,0.21-0.36,0.29-0.24,0.74C469.54,35.71,469.69,35.58,470.25,35.58M487.75,34.58c0-0.33,0-0.67,0-1C487.99,33.84,487.98,34.31,487.75,34.58M503.75,34.33c0.18-0.31,0.2-0.65,0.25-1c-0.35,0.05-0.69,0.07-1,0.25C503.24,33.88,503.43,34.11,503.75,34.33M471,33.58c0.08-0.35-0.14-0.7-0.5-0.75C470.62,33.13,470.74,33.37,471,33.58M502.25,31.08c0.84-0.48-0.7-1.38-0.79-1.15c-0.07,0.16-0.3,0.75-0.21,0.9C501.33,30.95,502.09,31.05,502.25,31.08M473,30.08c-0.15-0.3-0.46-0.37-0.75-0.5c0,0.13-0.08,0.67,0,0.75C472.44,30.51,472.9,30.25,473,30.08M500.26,29.58c0.4-0.24,1.23-0.51,1.3-0.99c0.08-0.6-0.34-0.96-0.93-1.09C499.29,27.21,499.01,29.74,500.26,29.58M474.75,28.08c0.74,0.02,1.53-0.63,0.86-1.34c-0.48-0.51-1.61-0.69-1.86,0.09c-0.05,0.14-0.08,0.31-0.05,0.46c0.08,0.47-0.05,0.17-0.33,0.43c-0.4,0.36-0.42,0.53-0.17,1C473.66,29.57,474.73,28.87,474.75,28.08M477,25.33c0.12-0.36,0.14-0.81-0.11-1.13c-0.31-0.4-0.76-0.16-0.51-0.76c0.31-0.76,1.37-1.35,2.03-1.76c1.54-0.94,3.33-1.5,5.09-1.92c3.1-0.73,7.45-0.95,10.25,0.82c-0.34,0.47-1.19,0.49-1.71,0.57c-0.69,0.11-1.37,0.48-2.04,0.68c-0.12-0.51-0.29-1.13-0.9-1.19c-0.55-0.05-1.07,0.49-1.65,0.3c-0.38-0.12-1.39-0.64-1.66-0.1c-0.2,0.38,0.36,1.1,0.46,1.49c-0.96-0.05-1.63-0.39-2.54-0.69c-0.59-0.2-2.15-0.9-2.73-0.29c-0.39,0.4-0.77,0.8-1.16,1.21c-0.27,0.28-0.28,0.8-0.52,1.13C478.69,24.51,478.15,25.35,477,25.33M489.5,24.08c0.03-0.67-0.17-1.21,0.46-1.54c0.59-0.31,1.16-0.7,1.81-0.87c0.17-0.05,0.86-0.34,1.01-0.25c0.36,0.25,0.73,0.51,1.09,0.76c0.55,0.39,0.1,1.13-0.37,1.4c-0.11-0.51-0.71-1.35-1.31-0.93c-0.64,0.45-0.34,1.29-0.19,1.93C491.13,24.49,490.28,24.5,489.5,24.08M482.5,24.33c0.08-0.83-0.1-1.46-0.25-2.25c0.88,0,1.57,0.34,2.36,0.71c0.54,0.25,1.45,0.41,1.64,1.04c-0.51-0.1-1.24,0.18-1.77,0.24C483.82,24.13,483.16,24.3,482.5,24.33M488,23.83c-0.28-0.48-0.05-1.11,0.5-1.25C488.4,23.03,488.33,23.48,488,23.83"/></g><g id="club"><path d="M3.35,4.66c0-1.81-1.51-3.28-3.38-3.28s-3.38,1.47-3.38,3.28c0,1.81,1.51,3.28,3.38,3.28S3.35,6.47,3.35,4.66z"/><path d="M7.71-1.55c0-1.81-1.51-3.28-3.38-3.28S0.95-3.36,0.95-1.55c0,1.81,1.51,3.28,3.38,3.28S7.71,0.26,7.71-1.55z"/><path d="M-0.95-1.57c0-0.66-0.2-1.28-0.55-1.8c-0.6-0.89-1.65-1.48-2.83-1.48c-1.87,0-3.38,1.47-3.38,3.28  c0,1.81,1.51,3.28,3.38,3.28S-0.95,0.24-0.95-1.57z"/><path d="M3.94-7.94c-1.67,0-2.55,1.36-3.01,2.72C0.47-3.86,0.43-2.5,0.43-2.5h-0.86c0,0-0.16-5.43-3.5-5.44H3.94z"/><path d="M-2.32,2.25c1.9-1.9,1.9-4.75,1.9-4.75l0.85-0.01c0,0,0,2.91,1.85,4.76"/><path d="M-1.94-3.85c1.9,1.9,4.75,1.9,4.75,1.9v0.85c0,0-2.91,0-4.76,1.85"/><path d="M1.87-3.86c-1.9,1.9-4.75,1.9-4.75,1.9v0.85c0,0,2.91,0,4.76,1.85"/></g><g id="base"><path style="fill:#FFFFFF;stroke:#000000;stroke-width:2.5" d="M 0,0C0,3.78 3.09,6.87 6.87,6.87L159.715,6.87C163.485,6.87 166.575,3.78 166.575,0L166.575,-228.4C166.575,-232.18 163.485,-235.27 159.715,-235.27L6.87,-235.27C3.09,-235.27 0,-232.18 0,-228.4L0,0 z"/></g></defs><g id="jack_club" transform="translate(-1675.75,-0.0)"><use xlink:href="#base" x="1675.75" y="0" xlink:type="simple" xlink:show="embed" xlink:actuate="onLoad"></use><g fill="none" stroke="black" stroke-width="1"><path d="M 1685.25 -175.117L1685.25 2.27"/><path d="M 1685.25 2.27L1816.03 2.27"/><path d="M 1833.83 -54.03L1833.83 -231.667"/><path d="M 1833.83 -231.667L1703.05 -231.667"/></g><g><use xlink:href="#club" x="713.264" y="-85.2573" transform="scale(2.4) rotate(180,713.264,-85.2573)" xlink:type="simple" xlink:show="embed" xlink:actuate="onLoad"></use><rect x="1693.33" y="-223.601" width="9.69257" height="37.968" fill="white"/></g><g><use xlink:href="#club" x="753.017" y="-10.2745" transform="scale(2.4)" xlink:type="simple" xlink:show="embed" xlink:actuate="onLoad"></use><rect x="1816.49" y="-43.6428" width="9.69257" height="37.968" fill="white"/></g><g transform="rotate(-1.80,1759.54,-114.699)"><line x1="1718.46" y1="-55.1025" x2="1800.61" y2="-174.295" stroke="black" stroke-width="7.25"/><circle cx="1720.88" cy="-58.1609" r="2.2" fill="white"/><circle cx="1720.88" cy="-58.1609" r=".7" fill="black"/><circle cx="1724.26" cy="-63.0587" r="2.2" fill="white"/><circle cx="1724.26" cy="-63.0587" r=".7" fill="black"/><circle cx="1727.63" cy="-67.9564" r="2.2" fill="white"/><circle cx="1727.63" cy="-67.9564" r=".7" fill="black"/><circle cx="1731.01" cy="-72.8541" r="2.2" fill="white"/><circle cx="1731.01" cy="-72.8541" r=".7" fill="black"/><circle cx="1734.38" cy="-77.7519" r="2.2" fill="white"/><circle cx="1734.38" cy="-77.7519" r=".7" fill="black"/><circle cx="1737.76" cy="-82.6496" r="2.2" fill="white"/><circle cx="1737.76" cy="-82.6496" r=".7" fill="black"/><circle cx="1741.14" cy="-87.5474" r="2.2" fill="white"/><circle cx="1741.14" cy="-87.5474" r=".7" fill="black"/><circle cx="1744.51" cy="-92.4451" r="2.2" fill="white"/><circle cx="1744.51" cy="-92.4451" r=".7" fill="black"/><circle cx="1747.89" cy="-97.3429" r="2.2" fill="white"/><circle cx="1747.89" cy="-97.3429" r=".7" fill="black"/><circle cx="1751.26" cy="-102.241" r="2.2" fill="white"/><circle cx="1751.26" cy="-102.241" r=".7" fill="black"/><circle cx="1754.64" cy="-107.138" r="2.2" fill="white"/><circle cx="1754.64" cy="-107.138" r=".7" fill="black"/><circle cx="1758.01" cy="-112.036" r="2.2" fill="white"/><circle cx="1758.01" cy="-112.036" r=".7" fill="black"/><circle cx="1761.39" cy="-116.934" r="2.2" fill="white"/><circle cx="1761.39" cy="-116.934" r=".7" fill="black"/><circle cx="1764.76" cy="-121.832" r="2.2" fill="white"/><circle cx="1764.76" cy="-121.832" r=".7" fill="black"/><circle cx="1768.14" cy="-126.729" r="2.2" fill="white"/><circle cx="1768.14" cy="-126.729" r=".7" fill="black"/><circle cx="1771.52" cy="-131.627" r="2.2" fill="white"/><circle cx="1771.52" cy="-131.627" r=".7" fill="black"/><circle cx="1774.89" cy="-136.525" r="2.2" fill="white"/><circle cx="1774.89" cy="-136.525" r=".7" fill="black"/><circle cx="1778.27" cy="-141.423" r="2.2" fill="white"/><circle cx="1778.27" cy="-141.423" r=".7" fill="black"/><circle cx="1781.64" cy="-146.32" r="2.2" fill="white"/><circle cx="1781.64" cy="-146.32" r=".7" fill="black"/><circle cx="1785.02" cy="-151.218" r="2.2" fill="white"/><circle cx="1785.02" cy="-151.218" r=".7" fill="black"/><circle cx="1788.39" cy="-156.116" r="2.2" fill="white"/><circle cx="1788.39" cy="-156.116" r=".7" fill="black"/><circle cx="1791.77" cy="-161.013" r="2.2" fill="white"/><circle cx="1791.77" cy="-161.013" r=".7" fill="black"/><circle cx="1795.14" cy="-165.911" r="2.2" fill="white"/><circle cx="1795.14" cy="-165.911" r=".7" fill="black"/><circle cx="1798.52" cy="-170.809" r="2.2" fill="white"/><circle cx="1798.52" cy="-170.809" r=".7" fill="black"/></g><use xlink:href="#jack" x="1684.78" y="-203.347" xlink:type="simple" xlink:show="embed" xlink:actuate="onLoad"></use><use xlink:href="#jack" x="1834.3" y="-26.05" transform="rotate(180,1834.3,-26.05)" xlink:type="simple" xlink:show="embed" xlink:actuate="onLoad"></use><use xlink:href="#club" x="1689.4" y="-185.117" transform="rotate(180,1689.4,-185.117)" xlink:type="simple" xlink:show="embed" xlink:actuate="onLoad"></use><use xlink:href="#club" x="1829.67" y="-44.28" xlink:type="simple" xlink:show="embed" xlink:actuate="onLoad"></use><use xlink:href="#jack_4" transform="matrix(0.990001,0.000000,0.000000,0.990000,1330.845,-204.5343)" id="use1593" x="0.0000000" y="0.0000000" width="2178.4751" height="1215.6875" xlink:type="simple" xlink:show="embed" xlink:actuate="onLoad"></use><use xlink:href="#jack_4" transform="matrix(-0.989999,0.000000,0.000000,-0.990000,2188.317,-24.84575)" id="use1594" x="0.0000000" y="0.0000000" width="2178.4751" height="1215.6875" xlink:type="simple" xlink:show="embed" xlink:actuate="onLoad"></use></g></svg>