<?xml version="1.0" encoding="UTF-8"?>
<svg xmlns="http://www.w3.org/2000/svg" xmlns:xlink="http://www.w3.org/1999/xlink" version="1.1" height="263" width="188" viewBox="-1.3 -236.8 188 263" preserveAspectRatio="xMidYMid meet" zoomAndPan="magnify" contentScriptType="application/ecmascript" contentStyleType="text/css"><defs><g id="jack_1"><rect x="143.68" y="73.95" style="fill:#1C1585;" width="1.64" height="3.11"/><g><path style="fill:#E61408;" d="M111.96,10.83c-1.09-2.93-3.1-5.35-4.98-7.83l-0.64,0.47c-1.15,1.81-3.04,5.32-3.04,5.32l5.68,1.23"/><path style="fill:#F8C20F;" d="M96.91,30.68l6.37-1.75c1.52,0.3,3.04,0.61,4.55,0.91c1.09,1.25,2.18,2.5,3.28,3.74l0.59,3l1.77-0.02l0.71-2.14c2.59-4.18,4.55-8.65,6.67-13.08l1.46-3.35l0.85-2.47c-3.48-1.86-6.48-3.18-10.26-4.32c-3.18-0.96-6.34-1.71-9.58-2.41c-1.27,1.24-2.13,2.61-3.11,4.1c0,0-6,9.81-8.66,13.89l0.75,1.25"/><path style="fill:#E61408;" d="M98.65,153.28c-1.96-1.46-3.94-2.88-5.95-4.27c-4.37,2.88-8.92,5.43-13.96,6.96c-5.12,1.55-10.5,2.24-15.76,3.12v0.04l-7.35,0.18c-1.69,2.31-3.24,4.59-4.71,7.04l0.88,0.77c3.98,1.59,7.42,3.37,11.69,4.16 v-0.27c4.37-0.31,8.54-0.93,12.86-1.66c3.68-0.62,7.74-0.76,11.31-1.73c2.36-1.79,4.28-4.04,6.51-5.98c2.45-2.14,4.94-4.23,7.44-6.31l0.29-0.9l-1.65-0.2L98.65,153.28"/><path style="fill:#F8C20F;" d="M74.27,96.03l4.52,4.4h0.11l2.65,2.33l-0.01-1.31h-0.01c-1.27-8.86-2.62-17.66-3.64-26.55l-16.47,0.14l0.01,0.86l-1.54,0.24l-1.39,2.39l2.99,4.11v0.05C65.83,87.05,70.02,91.57,74.27,96.03"/><path style="fill:#E61408;" d="M108.45,86.61c0.82,0.5,1.63,1,2.45,1.49l-0.01-1.4L108.45,86.61"/><path style="fill:#E61408;" d="M80.73,95.88l0.79,5.56h0.01l0.01,1.31c4.91,4.32,9.93,8.34,15.1,12.34c3.43-9.82,7.05-19.26,11.56-28.64l0.16,0.1l1.11-2.33l-6.34-0.06l0.07-0.52l-6.49,0.06l-0.04-4.48l-3.54,0.03l-0.04-5.19l-13.92,0.12v0.23l-1.34,0.05C78.66,81.65,79.56,88.75,80.73,95.88"/><polyline style="fill:#E61408;" points="101.87,118.81 101.93,118.81 101.05,118.24 101.87,118.81 "/><path style="fill:#1C1585;" d="M109.62,31.89l-1.79-2.05c-1.52-0.3-3.04-0.61-4.55-0.91l-6.37,1.75l-2.13,1.91l0.1,0.22l0.44,4.78c-1.57,5.34-3.27,10.65-4.48,16.08h0.06l-2.84,15.16l9.71-0.82c3.82-7.75,7.7-15.47,11.59-23.19l-0.23-0.37h0.12l2.77-6.28c-0.3-1.53-0.6-3.06-0.9-4.59L109.62,31.89"/><path style="fill:#E61408;" d="M77.84,69.68h-0.09v0.04l10.23-0.45c0.98-5.2,1.95-10.41,2.93-15.61c-0.04,0-0.08,0-0.12,0c1.06-5.44,2.99-10.77,4.54-16.09l-0.44-4.78c-0.74-1.56-1.49-3.12-2.23-4.68c-0.5-0.13-1-0.27-1.5-0.4c-4.79,6.88-9.25,13.99-13.84,21.01l0.01,0.26l0.41,0.91L77.84,69.68"/><path style="fill:#1C1585;" d="M145.55,74.6c-0.07-7.54-0.11-15.08-0.22-22.62c-0.05-3.64-0.33-6.81-1.13-10.35c-0.91-4.02-1.37-8.27-3.38-11.88l-0.08,0.22l0.01,0.12c-0.82,4.14-1.65,8.27-2.42,12.42h0.11c-2.14,8.21-4.32,16.3-6.98,24.36 h-0.07c-1.96,4.46-3.49,8.82-7.13,12.18c-3.81,3.52-8.07,5.79-12.88,7.68l-0.25,1.52c3.09,1.86,6.33,3.41,9.55,5.02c0,0,3.56,0.63,5.42,0.71l5.15-1.9v0.03c0.42-0.22,6.08-3.13,8.19-4.42c1.57-0.96,2.73-2.66,3.96-4l1.05-4.4"/><path style="fill:#E61408;" d="M131.27,92.11v-0.03l-5.15,1.9c-1.86-0.08-3.71-0.19-5.57-0.32c-1.86,4.65-4.22,9.06-6.82,13.34c-2.75,4.55-6.23,8.86-8.55,13.61l1.77,1.47l4.63-0.06l2.9-1.21l2.89-2.48c1.59-2.58,3.23-5.12,4.91-7.65l0.29,0.1c3.15-2.94,6-5.83,8.79-9.1l0.08,0.03l1.72-2.85c0.52-2.54,0.82-4.78,0.89-7.37C133.14,91.64,132.08,91.68,131.27,92.11"/><path style="fill:#F8C20F;" d="M110.61,112.14c3.72-6.14,7.41-12.19,10.09-18.87c-4.19-2.1-8.25-4.22-12.24-6.66c0.98,0.04,1.96,0.08,2.94,0.11c4.6-1.81,8.83-3.95,12.49-7.32c3.83-3.54,5.45-7.82,7.52-12.54h0.07c2.66-8.06,4.83-16.14,6.98-24.36h-0.11c0.77-4.15,1.6-8.28,2.42-12.42c-0.75-6.04-4.84-13.18-10.01-16.46c0.01,4.68,0.13,9.29-0.73,13.9c-1,5.37-2.04,10.66-3.32,15.96l0,0c-2.14,8-4.98,15.24-8.43,22.76h-0.17l-1.44,3.02l-4.13-1.99l-1.69,0.86l1.15,1.99c-1.54,1.89-3.19,3.25-5.34,4.41l-2.22-0.12c-0.42,3.25-0.85,6.5-1.27,9.75l6.34,0.06l-1.11,2.33l-0.16-0.1c-4.51,9.38-8.13,18.82-11.56,28.64c2.64,2.12,5.58,3.9,8.42,5.73C106.58,117.72,108.65,114.99,110.61,112.14"/><path style="fill:#F8C20F;" d="M77.84,69.68l-0.1-19.78c-0.16-0.34-0.31-0.69-0.47-1.04L63.62,70.12C68.36,69.97,73.1,69.83,77.84,69.68"/><path style="fill:#E61408;" d="M82.07,119.88l-4.92-4.75c-4.49,0.04-9.34-0.48-13.78,0.21c-1.76,3.01-3.3,6.15-4.95,9.23l1.05,0.71l2.4,0.08l2.17-5.03l1.23-1.14l3.27-0.04l0.02-0.14c2.18-0.01,4.23-0.06,6.38-0.35l2.13,1.04c3.16,3.42,6.61,6.47,10.25,9.37l3.89-0.33C88.19,125.76,85.16,122.8,82.07,119.88"/><path style="fill:#F8C20F;" d="M64.31,115.25c4.48-0.04,8.96-0.08,13.44-0.12c-3.49-3.8-6.77-7.78-10.43-11.41c-1.27,3.8-2.4,7.61-4.1,11.23v0.31L64.31,115.25"/><path style="fill:#F8C20F;" d="M46.16,115.47c-0.01-1.78-0.02-3.57-0.04-5.35l-3.93-6.25c-1.51,2.34-3.02,4.65-4.4,7.07l-0.15,1.02c1.6,2.08,3.13,4.2,4.66,6.34c1.29-0.32,2.58-0.65,3.87-0.97L46.16,115.47"/><path style="fill:#E61408;" d="M46.19,115.44l0.02,1.69l2.89-1.59c2.74-3,4.95-5.94,7.23-9.31c1.87-2.76,2.95-6.1,4.44-9.1l1.15-0.49c-2.45-4.08-4.91-8.17-7.36-12.25l-12.15,19.16l3.7,6.29C46.14,111.71,46.17,113.58,46.19,115.44"/><path style="fill:#1C1585;" d="M97.52,115.77c-7.09-5.48-14.05-11-20.55-17.18c-6.57-6.24-12.62-13.03-19.02-19.45l-3.19,5.01c2.23,3.76,4.45,7.52,6.74,11.25c-3.11,7.56-6.85,14.1-12.38,20.14c-1.92,1.05-3.59,1.81-5.68,2.47l-0.98,0.91l2.24,2.36c3.61,1.84,7.22,2.66,11.15,3.67l2.46-0.13c3.68-6.89,6.56-13.69,9.03-21.1c4.38,4.35,8.34,9.14,12.52,13.69v0.03c3.76,3.82,7.58,7.56,11.4,11.33l2.44,0.24l1.85-2.74l3.49,0.33c2.59-1.49,5.18-2.92,7.82-4.3C103.74,120.12,100.63,117.95,97.52,115.77"/></g><path d="M102.68,154.38c-0.96-0.17-2.11-0.21-2.96-0.72c-1.43-0.85-2.71-1.85-3.93-2.98c-0.55-0.5-2.29-1.68-2.42-2.5c-0.22-1.43-0.38-2.88-1.05-4.19c-0.56-1.09-1.98-2.13-2-3.43c-0.02-0.88-0.14-0.93,0.66-1.29c0.56-0.24,0.99,0.22,1.33,0.65c0.26,0.32,0.6,0.88,1.02,0.93c0.67,0.07,0.98-0.68,1.27-1.13c0.63-1.01,0-2.27,0.58-3.17c0.26-0.4,0.93-0.56,1.29-0.87c0.55-0.47,1.01-1.01,1.29-1.69c0.24-0.58,0.34-1.26,0.8-1.72c0.91-0.91,3.19-0.15,3.16-2.13c-2.05,0.42-3.49-0.97-5.51-0.95c0.61-1.09,1.91-0.56,2.9-0.59c1.28-0.05,1.79-0.45,2.67-1.29c0.34-0.33,0.49-0.8,0.79-1.17c0.36-0.44,0.83-0.77,1.2-1.2c0.69-0.83,1.69-1.32,2.64-1.77c2.02-0.96,4.22-0.32,6.31-1.11c2.21-0.84,3.94-2.23,5.43-4.03c1.33-1.61,1.74-3.74,3.04-5.32c1.49-1.81,3.46-3.44,5.24-4.97c3.3-2.84,6.53-6.36,7.56-10.71c0.47-1.96-0.01-4.62,1.54-6.14c1.63-1.59,3.91-2.27,5.62-3.77c1.63-1.42,2.63-3.27,3.29-5.31c1.8-5.48,1.24-11.28,1.21-16.97c-0.02-3.13-0.1-6.26-0.1-9.39c0-2.95,0.13-5.86-0.13-8.8c-0.26-2.94-1.03-5.92-1.6-8.81c-0.56-2.85-1.21-5.47-2.49-8.07c-0.58-1.19-0.75-2.54-1.25-3.77c-0.59-1.46-1.18-2.94-1.93-4.33c-1.3-2.44-3.02-4.74-4.9-6.76c-0.72-0.77-1.81-1.35-2.71-1.89c-1.99-1.2-3.98-1.7-6.29-1.09c-1.09,0.29-2.06,0.82-3.12,1.15c-1.06,0.33-2.04-0.19-3.03-0.51c-1.38-0.45-2.74-0.95-4.12-1.4c-1.75-0.58-2.52-2.5-3.49-3.91c-0.61-0.89-1.3-1.76-1.82-2.7c-0.47-0.84-0.79-1.82-1.58-2.44c-1.72,2.68-3.85,5.39-5.18,8.29c1.91-0.15,3.68,0.79,5.43,1.38c1.94,0.65,3.91,1.19,5.84,1.9c1.9,0.7,3.79,1.41,5.69,2.1c1.1,0.4,4.1,1.72,2.57,3.29c-0.32,0.33-0.76,1.08-1.28,0.98c-1.52-0.28-3.29-1.26-4.44-2.27c0.85-0.04,1.64-0.27,2.5-0.27c-0.16-1-0.89-1.29-1.68-1.79c-0.4-0.25-0.51-0.38-0.97-0.32c-0.45,0.06-0.91,0.14-1.37,0.15c0.02,0.87,0.72,1.64,1.27,2.24c-1.28-0.15-2.45-0.74-3.63-1.21c-1.29-0.52-2.63-0.92-3.95-1.36c-2.55-0.85-5.29-1.07-7.71-2.29c-0.29,1.02-1.15,1.76-1.47,2.76c1.57-0.29,3.36,0.67,4.87,1.03c2.01,0.47,3.94,1.27,5.88,1.95c1.96,0.69,3.9,1.43,5.78,2.31c0.9,0.42,1.78,0.88,2.65,1.36c0.73,0.4,1.79,0.36,1.47,1.32c-0.33,1.01-1.09,1.92-1.98,2.47c-0.88,0.54-2.1,1.46-3.14,1.49c-0.92,0.03-1.06-0.08-1.8-0.63c-0.39-0.29-0.63-0.75-0.89-1.16c1.11-0.23,2.04,1.24,3.01,0.84c0.73-0.31,1.37-2.41,1.5-3.07c0.12-0.61-0.89-0.62-1.23-0.66c-0.29-0.04-0.61,0.03-0.9,0.05c-0.24,0.02-0.5-0.2-0.73-0.25c-1.5-0.33-1.49,1.06-0.9,2.09c-0.8,0.01-1.21-0.81-1.46-1.46c-0.38-0.99-0.89-1.79-1.56-2.62c-0.34-0.43-1.65-0.95-2.16-0.86c-1.04,0.18-1.77,0.35-2.61,1c0.35-1.24-1.28-2.29-2.04-3.06c-0.41-0.42-1.29,0.73-1.54,0.99c-0.36,0.38-0.72,0.99-0.4,1.5c0.15,0.24,1.7,0.91,0.69,1.17c-0.66,0.18-1.26-0.17-1.55-0.77c-0.58-1.18-0.93-2.63-2.19-3.27c-0.42,0.7-0.8,1.41-1.13,2.16c-0.22,0.51-0.76,0.69-0.95,1.06c-0.26,0.52-0.44,0.97-0.6,1.53c-0.13,0.46,0.37,0.56,0.73,0.8c0.35,0.23,0.52,0.44,0.87,0.09c0.26-0.27,0.27-0.86,0.28-1.22c0.01-0.27,0.07-1.04,0.58-0.67c0.11,0.09,0.35,0.96,0.42,1.12c0.38,0.84,0.88,1.32,1.66,1.75c0.82,0.45,1.39,0.65,2.36,0.58c0.87-0.06,1.52-0.26,2.34-0.51c-0.12,0.48-0.24,1.31,0.4,1.51c0.53,0.17,1.37,0.63,1.91,0.65c0.75,0.04,1.26,0.22,1.45-0.66c0.13-0.59,0.32-1.17,1-1.3c0.01,1.57,0.89,3.1,1.54,4.49c-2.95-0.72-5.68-2.38-8.59-3.29c-1.57-0.49-3.18-0.9-4.74-1.42c-1-0.33-2.44-0.95-3.46-0.39c0.32,0.37,2.51,0.93,2.51,1.06c0.01,0.98-1.9,0.31-2.44,0.98c-0.24,0.3-0.67,1.15-1.12,1.16c-0.33,0.01-0.53-0.04-0.85-0.14c-0.17-0.06-0.35,0.55-0.41,0.72c-0.22,0.6-0.03,0.49,0.43,0.79c0.39,0.25,0.76,0.59,1.03,0.98c0.52,0.76,1.65,3.82,2.57,3.55c1.2-0.35,2.23-1.55,3.39-2.09c1.24-0.58,2.58-0.96,3.94-1.14c1.99-0.26,4.58,0.44,6.11,1.72c1.75,1.47,2.38,3.62,2.45,5.82c0.02,0.55,0.07,1.1,0.02,1.65c-0.08,1.07-0.7,2.04-1.17,2.98c-0.6,1.22-1.19,2.45-1.79,3.68c-1.31,2.66-2.35,5.43-3.68,8.09c-1.28,2.54-2.51,5.11-3.76,7.67c-0.63,1.28-1.26,2.55-1.91,3.82c-0.41,0.81-0.86,2.15-1.96,2.18c0.2-1.3,1.04-2.48,1.61-3.64c0.63-1.26,1.23-2.54,1.79-3.83c1.17-2.7,2.42-5.36,3.56-8.08c1.03-2.46,2.27-4.85,3.13-7.38c0.86-2.52,1.91-5.69,1.22-8.35c-0.62-2.37-2.48-3.62-4.8-3.97c-2.08-0.32-4.52,1.1-5.94,2.49c-0.77,0.75-1.61,1.54-2.02,2.56c-0.94,2.36-1.92,4.59-2.57,7.06c-0.71,2.72-1.5,5.42-2.1,8.17c-0.62,2.82-1.2,5.64-1.78,8.47c-0.29,1.41-0.57,2.83-0.85,4.24c-0.14,0.7-0.2,2.07-0.79,2.6c-0.47,0.42-0.91,0.49-1.46,0.77c-0.59-2.75,0.32-5.78,0.76-8.5c0.51-3.14,1.23-6.24,1.79-9.37c0.52-2.91,1.06-5.82,1.65-8.72c0.62-3.01,1.25-5.78,0.88-8.88c-0.04-0.37-0.75-2.57-1.25-2.56c-1.05,0.01-0.33,1.51-0.12,2c0.7,1.61,0.61,3.61,0.43,5.33c-0.41,3.87-1.58,7.7-2.3,11.52c-0.68,3.6-1.51,7.19-2.06,10.81c-0.27,1.76-0.55,3.54-0.73,5.31c-0.07,0.66,0.03,2.49-0.79,2.75c-1.09,0.35-2.06,0.56-3.21,0.61c-0.97,0.04-2.24,0.39-2.71-0.66c-0.57-1.26-0.11-2.77-0.12-4.09c-0.01-1.76-0.03-3.52-0.05-5.27c-0.04-3.57,0.19-7.13,0.16-10.7c-0.85,0.51-1.43,1.6-1.73,2.51c0.62-0.32,0.75-0.41,0.75,0.29c0.03,3.59-0.25,7.18-0.19,10.77c0.01,0.82,0.8,7.24-0.65,7.35c-0.98,0.07-0.78-2.23-0.85-2.84c-0.11-0.96,0.14-1.9,0.04-2.86c-0.11-1.15-0.11-2.28-0.1-3.44c0.01-2.42,0.04-4.84,0.02-7.26c-1.14,0.25-1.09,2.06-1.08,2.93c0.03,1.67,0.13,3.33,0.15,5c0.02,2.23,0.25,4.48,0.22,6.71c-0.04,2.42-1.36,2.19-3.23,2.56c-0.39,0.08-1.09,0.21-1.45,0.07c-0.85-0.33-0.93-0.39-1.16-1.26c-0.5-1.87-0.09-4.26-0.11-6.19c-1.12,0.92-1.13,2.55-1.07,3.87c0.03,0.8,0.11,1.6,0.08,2.4c-0.02,0.49-0.07,0.98-0.19,1.45c-0.03,0.15-0.5,0.07-0.54-0.06c-0.39-1.36-0.5-2.73-0.51-4.14c-1.25,1.01-0.57,2.4-0.92,3.66c-0.25,0.88-1.21,0.68-1.88,0.63c-0.51-0.04-1.43,2.16-1.67,2.53c-0.79,1.24-2.39,2.9-2.56,4.4c-0.08,0.7-0.01,1.4-0.11,2.1c-0.25-0.46-0.25-0.99-0.26-1.5c-0.45,0.27-1.86,2.01-1.3,2.39c1.84,1.24,3.19,3.52,4.73,5.12c1.87,1.95,3.67,3.96,5.58,5.86c4.06,4.04,8.14,8.07,12.25,12.07c3.85,3.75,7.95,7.23,12.28,10.41c2.13,1.57,4.32,3.07,6.53,4.53s4.58,2.71,6.58,4.47c-1.12,0.18-2.03,1.07-3.03,1.54c-1.23,0.57-2.43,1.44-3.68,1.91c-1.05,0.39-2.04-0.02-3.11,0.1c-1.38,0.16-1.8,1.45-2.74,2.27c-0.51,0.45-0.86,0.34-1.43-0.02c-3.85-2.39-7.11-6-10.17-9.3c-3.36-3.62-6.69-7.28-9.96-10.99c-3.24-3.67-6.21-7.54-8.95-11.6c-1.39-2.06-2.73-4.16-4.04-6.28c-0.65-1.06-1.29-2.12-1.93-3.18c-0.57-0.96-1.53-2.1-1.55-3.27c-1.45,1.26-1.68,3.2-1.93,4.99c-0.35,2.44-0.94,4.93-1.43,7.42c-0.48,2.42-0.91,4.86-1.09,7.32c-0.19,2.49-0.09,4.59,0.55,6.99c0.23,0.88,0.21,1.12-0.08,1.98c-0.68-0.7-1.38-1.58-1.68-2.53c-0.16-0.5-0.31-0.99-0.43-1.5c-0.27-1.19-3.25,2.01-3.15,0.08c0.04-0.89,1.37-1.83,1.79-2.55c1.58-2.68,2.29-5.99,3.04-8.98c0.37-1.47,0.63-2.95,0.87-4.45c0.22-1.35,1.14-3.24,0.85-4.58c-0.63,0.55-0.99,1.3-1.52,1.93c-0.63,0.76-0.62,0.84-0.45,1.68c0.2,0.96-0.21,2.21-0.39,3.14c-0.26,1.33-0.59,2.64-0.96,3.94c-0.66,2.32-1.12,4.93-2.54,6.93c-0.72,1.02-1.57,1.4-2.36,0.24c-0.86-1.26,0.27-2.66,1.02-3.65c1.14-1.52,1.11-2.59,1.05-4.42c-0.8,0.7-0.81,1.83-1.27,2.72c-0.57,1.1-1.29,2.12-1.67,3.3c-0.22-0.21-0.57-0.75-0.88-0.32c-0.1,0.15-0.65,0.78-0.58,0.89c1.31,2.05,2.76,4.07,3.52,6.41c-0.88-0.56-1.24-1.64-1.65-2.55c-0.53-1.2-1.2-2.32-1.91-3.42c-0.49,0.28-0.76,0.99-0.49,1.5c-0.23,0.04-0.51,0.04-0.72,0.14c-0.48,0.22-0.03,2.61-0.04,3.17c-0.02,1.32,0.02,2.33,1.29,2.91c0.56,0.25,1.19,0.4,1.8,0.48c0.42,0.06,0.48-0.08,0.51,0.38c0.02,0.36,0.03,0.7,0.02,1.06c-0.03,0.81,0.15,3.18-1,3.34c0.36-0.68,0.37-1.76,0.32-2.52c-0.04-0.56,0.09-1.16-0.41-1.52c-0.39-0.29-1.05-0.42-1.51-0.56c-1.17-0.38-1.43-1.06-1.46-2.21c-0.03-0.99,0.1-2.05-0.53-2.9c-0.7,0.61-1.4,1.69-1.81,2.52c-0.18,0.36-0.54,1.11-0.53,1.5c0.02,1.01,1.45,2.31,2.02,3.05c1.02,1.32,1.63,2.63,2.39,4.09c0.9,1.74,3.67,3.2,5.37,3.94c1.03,0.45,2.15,0.6,3.25,0.82c1.24,0.24,2.41,0.68,3.61,1.08c1.22,0.4,2.42,0.61,3.71,0.62c1.11,0,2.48,0.11,3.47,0.68c0.78,0.45,0.64,0.7-0.01,1.18c-0.57,0.42-2.4,0.32-3.1,0.36c-0.86,0.04-2.16,0.25-2.52,1.18c-0.17,0.43-0.67,1.2-0.63,1.67c0.06,0.6,0.24,1.1,0.38,1.68c0.21,0.86-0.94,1.92-1.25,2.71c-0.21,0.54-0.31,0.97-0.23,1.56c0.22,1.53-0.56,1.32-1.7,1.9c-1.22,0.62-0.64,2.2-0.39,3.22c0.4,1.67,0.94,3.29,1.39,4.94c0.48,1.73,0.54,3.21,0.61,4.97c0.06,1.67,0.77,3.31,1.19,4.91c0.42,1.62,0.4,2.34-0.52,3.71c-0.87,1.28-1.83,2.51-2.73,3.77c-0.38,0.53-1.68,1.89-1.25,2.62c0.85,1.43,3.64,1.7,5.04,2.41c2.28,1.14,4.43,2.47,7.06,2.48c4,0.01,8.02-0.92,11.94-1.61c3.91-0.69,7.87-1.19,11.81-1.65c1.86-0.22,3.27-1.83,4.52-3.1c1.35-1.37,2.71-2.7,4.16-3.97c1.52-1.34,3.05-2.69,4.67-3.92C100.53,156.56,102.68,155.66,102.68,154.38M101.18,154.89c-0.72,1.46-2.46,2.38-3.69,3.37c-1.62,1.31-3.21,2.65-4.73,4.07c-1.36,1.26-2.55,2.65-3.84,3.98c-1.32,1.35-2.77,1.57-4.61,1.7c-4.04,0.27-7.99,0.81-11.98,1.53c-3.76,0.68-7.88,1.55-11.7,0.88c-2.11-0.37-3.93-1.61-5.85-2.47c-0.68-0.31-3.08-0.76-2.97-1.79c0.09-0.87,0.23-0.77,1.06-1.05c0.54-0.18,1.19,0.3,1.68,0.46c1.11,0.37,2.2,0.82,3.26,1.31c1.86,0.87,3.72,2.21,5.83,2.29c1.45,0.05,3.03-0.56,4.45-0.85c1.74-0.35,3.46-0.71,5.22-0.95c3.49-0.48,7.02-1.09,10.54-1.31c1.59-0.1,2.84-0.4,4.05-1.49c1.04-0.93,1.83-2.08,2.71-3.15c2.1-2.52,5.01-4.93,7.89-6.48C99.4,154.47,100.24,154.56,101.18,154.89M64.04,167.21c0.08-0.44,0.3-0.85,0.49-1.26C64.79,166.35,64.37,166.97,64.04,167.21M67.79,166.93c0.2-1.34,1.85-2.61,1.46-4.01c-0.93,1-1.9,2.01-2.47,3.27c-0.65-1.01,1.4-2.61,1.22-3.76c-0.74,0.37-1.27,1.09-1.99,1.52c0.21-0.63,0.41-1.34,0.23-2c-1.44,0.88-1.84,2.84-3.22,3.78c0.56-1.22,1.81-2.39,1.97-3.77c-2.05,0.03-2.67,3.6-4.21,4.54c0.06-0.32,3.01-4.92,2.46-5.02c-0.57-0.1-1.49,1.41-1.7,1.75c-0.63,0.99-1.21,2.16-2.26,2.79c0.38-1.18,1.16-2.18,1.82-3.2c0.05-0.08,1.09-2.1,0.57-1.78c-0.92,0.57-1.5,1.54-2.05,2.44c-0.46,0.75-0.89,1.85-1.85,2.06c0.56-1.71,2.23-2.93,2.46-4.77c-1.8,0.6-1.97,3.78-3.71,4.03c0.24-1.66,2.22-2.73,1.96-4.52c-1.55,0.94-1.64,3.45-3.46,4.03c0.35-1.3,1.27-2.52,1.81-3.76c0.57-1.31,4-0.83,5.19-0.9c4.14-0.25,8.36-1.13,12.42-1.98c3.92-0.83,7.56-2.15,11.19-3.83c1.83-0.85,3.49-1.87,5.21-2.92c1.81-1.11,2.82-1.16,4.34,0.33c0.81,0.79,1.75,1.53,2.48,2.39c0.41,0.48,0.21,0.55-0.22,0.81c-2.31,1.42-4.41,3.21-6.3,5.15c-0.94,0.96-1.86,1.97-2.71,3.02c-0.7,0.86-1.3,1.72-2.41,2.04c-2.62,0.76-5.57,0.67-8.27,1.04c-2.73,0.38-5.44,0.97-8.21,0.99c0.23-1.13,1.29-1.87,1.47-3.01c-1.17,0.21-2.57,2.1-2.22,3.27C68.45,166.93,68.12,166.93,67.79,166.93M72.51,164.14c-0.49-0.06-2.25,1.01-1.67,1.58C71.48,166.35,72.45,164.73,72.51,164.14M65.27,164.95C65.64,164.19,66.02,164.57,65.27,164.95M53.76,163.8c-0.55-1.04,1.28-3.2,2.22-3.52C55.85,161.38,54.67,163.2,53.76,163.8M56.04,139.03c0.59-0.12,0.76,0.35,0.65,0.86c-0.11,0.54-0.57,0.95-0.88,1.39c0.61-0.22,1.45-0.8,1.49-1.51c0.06-1.17-1.2-1.26-2.01-1.23c0-0.85-0.04-1.55,0.75-2.06c0.54-0.35,1.88-0.88,1.73,0.29c0.44-0.5,0.91-1.08,0.98-1.76c-0.67-0.08-0.96-0.08-1.42-0.58c-0.55-0.6-0.69-1.49-1.06-2.2c-0.35-0.68-0.92-1.6-0.57-2.39c1.01-2.25,4.03-1.84,6.11-1.86c1.9-0.02,4.51,0.32,6.17,1.3c1.49,0.88,2.86,1.94,4.02,3.21c1.03,1.13,1.69,3.1,3.01,3.88c-0.98-1.78-1.95-3.78-3.52-5.13c-1.1-0.95-2.29-1.82-3.6-2.46c-1.3-0.63-2.77-0.74-4.06-1.36c-0.85-0.41-0.53-4.01-0.37-4.7c0.2-0.88,0.72-2.32,1.47-2.89c1.35-1.03,4.14-0.41,5.74-0.51c2.39-0.15,4.85-0.77,6.67,1.14c1.72,1.81,3.42,3.59,5.31,5.23c0.85,0.73,1.7,1.47,2.58,2.15c0.71,0.55,1.6,1.19,1.49,2.21c-0.02,0.19-0.38,1.05-0.58,0.93c-0.38-0.23-0.73-0.5-1.09-0.76c-1.05-0.76-1.85-0.8-3.12-0.78c-1.02,0.02-1.81,1.1-2.4,1.79c-1.31,1.55-0.18,4.2,1.71,4.57c-0.22,0.7-0.87,1.15-1.45,1.55c-0.72,0.49-1.41,1.39-2.26,1.64c-0.92,0.27-1.56-1.21-2.15-1.66c-1.09-0.82-2.3,1.6-2.85,2.24c-0.59,0.69-1.33,1.17-1.97,1.79c-0.73,0.71-0.98,1.83-1.34,2.76c-0.59,1.5,1.04,3.13,0.44,4.55c-0.46,1.1-0.97,2.04-1.19,3.22c-0.09,0.5-0.02,0.94,0.03,1.45c0.05,0.54,0.37,0.84-0.29,1c-1.08,0.26-1.69,0.88-2.54,1.6c0.53-0.22,1.15-0.21,1.71-0.28c0.73-0.08,0.72,0.96,0.78,1.38c0.14,0.93-1.94,1.07-2.6,1.16c-2.69,0.36-5.35,0.77-8.08,0.56c-0.76-0.06-0.92-0.06-1.33-0.68c-0.7-1.06-0.86-2.44-1.24-3.63c-0.45-1.41-0.51-2.63-0.45-4.09c0.06-1.42-0.44-2.73-0.8-4.09c-0.39-1.5-0.77-3-1.19-4.49c-0.14-0.51-0.95-3.1,0.29-2.88C53.75,139.09,55.43,140.34,56.04,139.03M70.7,157.16c0-0.85,0.24-1.65,0.23-2.5C71.41,155.17,71.32,156.76,70.7,157.16M73.7,156.63c0.17-1.06,0.61-1.96,0.69-3.05c0.12-1.62-0.41-3.25-1.12-4.68c-0.67-1.34-1.47-2.7-1.42-4.25c0.99,0.26,1.52,1.55,2.04,2.32c0.7,1.05,1.52,2.01,1.79,3.28C76.02,151.92,76.34,156.54,73.7,156.63M76.19,155.86c0.89-2.76,1.15-5.99-0.47-8.59c-0.79-1.26-1.95-2.56-2.34-4.01c-0.32-1.19-0.74-3.51,0.92-3.88c0.03,1.18,0.6,2.11,1.27,3.03c1.32,1.82,3.7,3.16,4.27,5.46c0.31,1.26,0.31,2.42,0.32,3.71c-0.39-0.47-0.38-1.36-0.6-1.92c-0.28-0.71-0.61-1.41-1.02-2.05c-0.95-1.51-2.55-2.5-3.66-3.9c-0.7-0.88-0.79-2.01-1.07-3.06c-0.72,1.2,0.12,3.13,1.07,4c1.23,1.13,2.51,2.06,3.31,3.55c0.75,1.41,0.9,3.14,0.62,4.71C78.65,153.8,77.45,156.51,76.19,155.86M78.44,155.59c0.02-0.48,0.24-0.86,0.49-1.25c0.29,0.22,0.61,0.39,0.76,0.74C79.29,155.3,78.87,155.46,78.44,155.59M72.94,155.64c-0.01-1.15,0.01-2.3-0.14-3.44c-0.18-1.38-0.74-2.67-0.93-4.05c0.97,0.72,1.52,2.67,1.76,3.79C73.86,152.99,73.99,154.96,72.94,155.64M69.43,154.92c-0.12-0.41-0.24-0.82-0.26-1.25C69.58,153.93,69.74,154.52,69.43,154.92M81.18,154.31c0.21-0.33,0.44-0.52,0.74-0.76C81.88,154.02,81.69,154.36,81.18,154.31M71.93,154.39c-0.55-0.81-1.26-1.66-1.5-2.63c-0.05-0.21,0.53-0.37,0.72-0.43c0.29-0.09,0.71-0.32,0.8,0.01C72.15,152.13,72.48,153.68,71.93,154.39M66.63,148.69c-0.73,0.58-0.76,1.68-1.63,2.21c-1.02,0.62-2.02,1-3.19,1.27c-2.1,0.48-4.33-0.04-6.4-0.38c0.16,1.18,2.07,1.27,2.96,1.51c0.99,0.27,2.32-0.01,3.3-0.25c1.05-0.25,2.32-0.69,3.18-1.35c0.52-0.39,0.98-0.7,1.37-1.23C66.58,149.97,66.54,149.3,66.63,148.69M82.16,153.05c0.16-0.99,0.62-1.96,0.84-2.94c0.39-1.71-0.14-3.17-0.76-4.74c-0.53-1.35-1.17-3.08-0.3-4.43c1.19-1.82,3.43-2.84,4.2-4.95c0.62-1.7,0.27-4.75,2.07-5.75c-0.05,0.34-0.15,0.67-0.24,1c1.37-0.35,2.66-0.18,4.05-0.27c0.68-0.05,1.34-0.27,1.83-0.73c0.86-0.8,0.84-2.77,2.1-3.19c0.68-0.23,1.38,0.18,2.03,0.23c0.99,0.07,1.27-0.11,2.14-0.61c0.53-0.31,0.97-0.84,1.55-1.04c-0.1,0.89-0.62,2.08-1.56,2.35c-1.16,0.32-2.1-0.59-3.18-0.36c-1.58,0.34-1.32,2.11-2.08,3.13c-0.4,0.53-1.03,0.83-1.38,1.4c-0.4,0.65-0.6,0.58-1.33,0.35c-0.27-0.09-0.42-0.14-0.62-0.36c-0.17-0.19,0.1-0.39-0.21-0.44c-1.27-0.18-2.09-0.03-2.88,1.01c-0.33,0.43-0.77,0.82-0.84,1.36c-0.19,1.41-0.24,3.39-1.45,4.35c-1.13,0.9-2.52,1.6-3.3,2.87c-1.04,1.7,0.39,3.95,0.92,5.6c0.68,2.1,0.24,3.89-0.7,5.81C82.86,153.17,82.67,153.05,82.16,153.05M80.91,153.07c0.06-1.75,0.57-3.67-0.05-5.39c-0.57-1.56-1.79-3.44-1.75-5.14c0.02-1.18,0.29-1.79,0.79-2.88c0.69-1.52,2.74-2.66,2.93-4.4c0.11-0.97-0.04-1.63-0.59-2.45c-0.31,0.2-0.62,0.45-1,0.51c0.16-1.37,2.12-0.97,2.41,0.11c0.21,0.79,0.29,1.24,0.2,2.04c-0.07,0.61-0.21,1.22-0.32,1.83c0.79-0.89,1.08-1.68,1.21-2.85c0.05-0.52-0.11-1.1-0.18-1.62c-0.04-0.31-0.98-0.9-1.22-1.1c-1.74-1.52-4.12,1.36-2.08,2.85c-0.44,0.38-0.85-0.14-1.11-0.45c-0.41-0.5-0.19-1.17-0.16-1.8c0.07-1.28,1.19-1.55,2.21-1.74c0.57-0.11,0.88-0.26,1.38,0.01c0.66,0.36,1.05,0.57,1.52,1.15c0.62,0.79,0.64,2.17,0.49,3.1c-0.17,1.05-0.67,2.1-1.51,2.78c-0.86,0.69-1.84,1.19-2.68,1.92c-0.71,0.62-1.14,2-1.2,2.92c-0.11,1.87,1.47,3.15,1.99,4.8c0.22,0.68,0.18,1.34,0.19,2.05C82.39,150.53,81.91,152.26,80.91,153.07M84.66,152.78c0.04-0.99,0.21-1.96,0.33-2.95c0.26-2.21-1.4-3.79-1.58-5.83c-0.07-0.85-0.3-2.25,0.65-2.71c0.05,2.21,2.19,4.13,2.94,6.16C87.7,149.35,87.22,152.78,84.66,152.78M88.14,150.75c0.04-1.36,0.35-2.68-0.4-3.95c-0.66-1.11-1.95-2.48-2.16-3.78c0.38,0.18,0.69,0.48,1.01,0.74c0.1-0.62-0.26-1.35-0.27-2c1.17,0.71,2,2.96,2.22,4.23C88.69,146.94,89.13,150.08,88.14,150.75M64.61,146.96c-0.84-0.53-0.92-1.76-2.02-1.98c0.1,0.49,0.33,0.99,0.26,1.5c-1.1-0.88-2.43-0.93-3.76-0.72c0-0.33-0.01-0.67-0.01-1c-1.09,0.19-1.13,2.05-1.28,2.87c-0.11,0.63-1.61,3.68,0.42,3.28c1.45-0.29,2.44-1.22,3.67-1.94C62.76,148.46,64.4,148.12,64.61,146.96M70.39,150.41c-0.08-0.17-0.17-0.33-0.25-0.5C70.77,149.77,70.81,150.46,70.39,150.41M90.89,149.48c0-0.63,0.26-1.26,0.23-1.88c-0.13-2.29-1.48-4.13-1.8-6.35c1.44,0.99,1.9,2.72,2.34,4.29C91.87,146.33,92.25,149.72,90.89,149.48M89.64,149.49c-0.01-1.52-0.07-3.11-0.68-4.53c-0.7-1.63-1.47-3.17-1.65-4.95c0.6,0.65,0.65,1.64,0.94,2.43c0.35,0.92,0.8,1.8,1.15,2.73C89.83,146.33,90.7,148.41,89.64,149.49M59.88,149.25c0.37-0.63,0.99-1.17,1.74-1.27C61.47,148.67,60.55,149.22,59.88,149.25M61.36,146.99c-0.25,0.13-0.68,0.41-0.98,0.38c-0.54-0.07-0.45-0.44-0.52-0.91c-0.05-0.31,0.71-0.28,0.87-0.24C61.1,146.29,61.23,146.69,61.36,146.99M71.11,147.15c-0.38-1.11-0.47-2.08-0.53-3.25C70.99,144.38,71.58,146.64,71.11,147.15M75.81,141.61c-0.17-0.26-1.16-2.46-0.42-2.21C76.23,139.68,76.63,141.05,75.81,141.61M94.05,139.2c-0.38-0.33-0.66-0.77-1.01-1.13c-0.52-0.54-0.91-0.66-1.63-0.92c-0.97-0.35-1.74,1.42-2.62,1.6c0.2-1.46,1.57-3.18,3.22-2.93C93.32,136.01,95.06,137.89,94.05,139.2M88.27,136.5c-0.01-0.94-0.05-1.63,0.34-2.49c0.42-0.92,0.64-1.91,1.88-1.78c-0.39,0.66-1.1,1.08-1.48,1.76c0.53-0.11,1.02-0.35,1.55-0.47c0.88-0.21,1.79,0.06,2.67-0.13c0.86-0.18,1.64-0.59,2.51-0.71c0.02,1.77-2.14,1.85-3.36,2.05c-0.66,0.11-1.66,0.13-2.24,0.48C89.48,135.61,88.92,136.11,88.27,136.5M94.51,135.7c0.49-0.76,1.69-1.62,2.48-2.02C96.96,134.94,95.67,135.69,94.51,135.7M55.5,133.79c0.59,0.19,1.73,0.71,0.79,1.2C55.44,135.43,55.19,134.41,55.5,133.79M91.22,130.48c0.39-0.28,0.77-0.26,1.25-0.26C92.12,130.5,91.65,130.46,91.22,130.48M90.2,128.48c-2.04,1.01-3.94-0.37-5.44-1.71c-1.87-1.68-3.8-3.31-5.53-5.13c-1.35-1.43-2.7-3.27-4.88-3.26c-0.81,0-1.62,0.25-2.44,0.27c-0.87,0.02-1.73,0.03-2.6,0.03c-1.43,0.01-3.35-0.27-4.63,0.53c-1.11,0.69-1.79,2.24-2.28,3.41c-0.33,0.78-1.54,2.97-2.76,2.09c-0.27-0.2-0.07-1.23,0.12-1.51c0.85-1.23,1.45-2.6,2.08-3.95c0.42-0.89,0.93-2.45,1.77-3.05c0.75-0.54,2.43-0.24,3.29-0.28c1.45-0.06,2.9-0.17,4.34-0.27c2.15-0.15,5.06-0.82,6.84,0.74c2.23,1.95,4.08,4.29,6.21,6.34c1.04,1.01,2.05,2.06,3.15,3.01C88.43,126.54,89.6,127.35,90.2,128.48M50.15,122.83c0.51-0.9,1.34-1.55,2.11-2.21c0.87-0.75,1.63-1.62,2.42-2.46c1.55-1.64,2.75-3.61,3.8-5.59c1.11-2.08,1.91-4.3,2.66-6.54c0.74-2.19,1.68-4.35,2.3-6.57c0.95,0.57,1.55,1.55,2.23,2.39c0.74,0.92,0.96,1.75,0.67,2.89c-0.93,3.7-2.35,7.21-3.84,10.71c-0.72,1.69-1.42,3.39-2.28,5.01c-0.65,1.22-1.72,3.56-3.15,4.07c-1.01,0.36-2.14-0.24-3.09-0.54C52.72,123.6,51.45,123.15,50.15,122.83M133.64,92.1c0.02,2.24-0.07,4.4-0.94,6.51c-1.72,4.15-5.48,6.87-8.66,9.82c-0.82,0.77-1.48,1.68-2.23,2.52c-0.69,0.77-1.54,1.44-2.02,2.38c-1.06,2.05-1.91,3.95-3.69,5.51c-1.68,1.47-3.44,2.66-5.69,2.97c-1.23,0.17-2.21-0.13-3.4-0.45c-1.23-0.32-1.2-1.36-0.69-2.27c1.16-2.05,2.85-3.85,4.1-5.87c1.5-2.43,2.96-4.88,4.4-7.35c1.3-2.21,2.6-4.42,3.67-6.76c0.67-1.47,1.22-4.84,3.18-4.97c0.97-0.06,2.05,0.19,3.02,0.32C127.98,94.92,130.5,92.13,133.64,92.1M43.12,118.89c1.95-0.66,4.04-1.25,5.62-2.62c3.44-2.96,6.32-6.55,8.57-10.49c1.04-1.81,2.05-3.71,2.68-5.7c0.22-0.71,0.45-1.44,0.83-2.09c0.21-0.35,1.18-1.47,1.47-0.71c0.07,0.18,0.28,0.52,0.25,0.72c-0.42,2.74-1.53,5.44-2.49,8.04c-0.98,2.68-2.01,5.46-3.49,7.91c-1.47,2.43-3.44,4.35-5.53,6.24c-0.85,0.76-1.63,1.65-2.69,2.13c-0.94,0.42-2.18-0.48-2.9-1C44.66,120.77,43.25,119.95,43.12,118.89M104.64,119.43c-1.4,0.21,0.3-2.16,0.52-2.46c2.93-4.01,5.66-8.19,7.99-12.58c1.14-2.15,2.18-4.36,3.16-6.6c0.35-0.8,1.44-5.29,2.93-4.64c0.63,0.28,0.39,0.96,0.36,1.52c-0.05,1.1-0.75,2.11-1.22,3.07c-0.53,1.08-1.03,2.18-1.58,3.24c-1.24,2.37-2.56,4.71-3.94,6.99c-1.36,2.26-2.82,4.47-4.3,6.66C107.52,116.19,106.45,118.66,104.64,119.43M103.11,118.12c-0.32-1.24-0.53-2.5-0.91-3.73c-0.2-0.63-0.7-1.93-0.09-2.48c1.19-1.08,2.88-1.41,4.34-1.95c0.71-0.26-0.42-3.92-0.44-4.62c-0.03-1.36,0.91-1.55,1.97-1.97c0.49-0.19,0.95-0.36,1.39-0.65c0.71-0.46,0.85-0.57,1-1.41c0.25-1.46-0.68-2.88-0.34-4.36c0.2-0.88,2.73-1.53,3.39-1.94c0.56-0.35,0.48-1.12,0.4-1.68c-0.15-1.02-0.2-2.03-0.21-3.06c1.03,0.33,1.31,1.24,1.53,2.21c0.26,1.13,0.64,2.27,0.53,3.43c-0.08,0.82-2.18,1.26-2.79,1.53c-1.21,0.55-1.03,1.66-0.87,2.72c0.13,0.94,0.47,2.15,0.15,3.07c-0.77,2.19-4.82,0.82-4.46,3.93c0.14,1.17,0.51,2.14,0.39,3.33c-0.17,1.69-4.21,0.61-4.29,2.62C103.73,114.79,104.97,116.99,103.11,118.12M99.6,116.4c0.28-0.43,0.53-0.75,0.99-1.01c-0.47-0.34-0.89-0.66-1.5-0.49c-0.02-2.17,1.25-4.66,2-6.66c0.87-2.3,1.75-4.61,2.74-6.86c0.97-2.22,2.06-4.38,3.24-6.49c1.04-1.87,2.09-4.43,3.77-5.81c0.29-0.24,1.27,0.23,1.4,0.51c0.45,0.94,0.79,2.05,0.85,3.1c0.04,0.66,0.07,1.09-0.13,1.71c-0.17,0.53-1.39,0.86-1.85,1.05c-0.77,0.31-1.83,0.77-1.78,1.76c0.04,0.88,0.86,4.12-0.05,4.7c-0.85,0.54-1.7,0.9-2.63,1.25c-0.68,0.25-1.37,0.64-1.44,1.44c-0.09,1.06,0.31,2.14,0.38,3.2c0.09,1.23-0.07,1.79-1.35,2.24c-0.87,0.3-2.39,0.63-2.93,1.43c-0.51,0.76-0.1,1.96,0.09,2.75c0.29,1.21,0.47,2.44,0.72,3.66C101.15,117.88,100.25,117.02,99.6,116.4M42.35,117.4c-0.83-1.08-1.72-2.11-2.55-3.18c-0.76-0.98-1.83-1.99-2-3.28c1.11,0.21,2.25,2.12,2.84,2.97C41.06,114.53,42.68,116.6,42.35,117.4M45.24,111.76c0-0.33,0.35-0.15,0.35-0.15l-0.16,5.4l-0.45,0.18M46.59,116.36c-0.34-1.1-0.1-2.25-0.04-3.37c0.03-0.58-0.23-1.92,0.29-2.33c0.31-0.25,0.59-0.52,0.96-0.68c0.47-0.2,0.51-0.11,0.76,0.28c0.35,0.53,0.73,1.06,1.02,1.63c0.41,0.81,0.66,1.2,0.22,2.02C49.24,114.96,47.79,116.17,46.59,116.36M97.58,114.67c0.83-5.21,2.93-10.13,4.93-14.97c1.02-2.48,2.08-4.94,3.22-7.36c0.45-0.96,1.83-5.2,3.37-5.02c1.2,0.14,0.42,1.99,0.12,2.53c-2.38,4.23-4.84,8.44-6.8,12.89c-0.97,2.21-1.82,4.48-2.62,6.75C99.55,110.19,98.52,114.89,97.58,114.67M64.08,114.96c0.07-1.84,1.13-3.6,1.71-5.31c0.34-1.01,0.66-2.02,0.99-3.03c0.19-0.57,0.33-1.93,1.14-1.94c0.35,0,0.79,0.82,1,1.06c0.67,0.78,1.54,1.59,1.79,2.62c0.12,0.47-0.46,0.64-0.46,1.18c-0.01,0.43,0.63,1.06,1.08,0.82c0.48-0.26,0.48-0.61,1.05-0.21c1.28,0.89,2.49,2.36,3.37,3.64c0.16,0.24,0.29,0.54,0.34,0.82c-1.79,0.02-3.57,0.3-5.37,0.3C68.5,114.9,66.29,114.94,64.08,114.96M67.02,114.27c0.59-0.3,0.46-0.78,0.35-1.32c-0.07-0.37-0.92-0.42-1.26-0.51c-0.1,0.47-0.19,0.94-0.29,1.41C65.81,113.95,66.87,114.22,67.02,114.27M96.32,113.93c-1.45-0.62-4.04-2.21-4.64-3.75c-1.2-3.07-1.8-6.32-2.52-9.51c-0.74-3.28-1.29-6.52-1.63-9.86c-0.33-3.19-0.88-6.35-1.14-9.55c-0.05-0.64-0.81-6.34,1-5.69c0.65,0.23,0.97,0.27,1.04,1c0.62,6.64,1.27,13.3,2.68,19.84c0.71,3.31,1.44,6.62,2.51,9.83c0.55,1.64,1.2,3.2,1.99,4.74C95.97,111.67,97.02,113.18,96.32,113.93M70.2,113.91c0.13-0.45,0.37-0.85,0.18-1.28c-0.32-0.75-1.44-0.29-1.48,0.4C68.86,113.67,69.59,114.44,70.2,113.91M73.2,113.63c0.04-0.38,0.09-0.76,0.14-1.13c-0.39-0.04-0.77-0.09-1.16-0.13c-0.02,0.2-0.22,1.02-0.11,1.16C72.18,113.66,73,113.61,73.2,113.63M96.81,111.93c-1.49-1.98-2.13-5.01-2.81-7.36c-0.83-2.85-1.44-5.76-2.04-8.67c-1.27-6.13-2.4-12.63-2.45-18.91c0.42,0.03,0.83,0.02,1.25-0.01c0,0.52,0.13,1,0.26,1.5c0.72-0.37,0.77-0.28,0.95,0.49c0.11,0.5,0.19,1,0.32,1.5c0.2-0.32,0.44-0.63,0.49-1c0.51,0.54,0.57,2.56,0.53,3.24c1.04-0.66,0.73-2.23,0.72-3.26c0.54,0.58,0.3,1.52,0.28,2.23c-0.03,1.1,0.26,2.17,0.26,3.27c0.28-0.22,0.6-0.41,0.74-0.76c0.45,0.48,0.3,1.5,0.45,2.11c0.22,0.92-0.11,1.33-0.28,2.18c-0.4,2.11-0.42,4.28-0.53,6.43c-0.03,0.6-0.33,8.29,0.78,8.28c1.43-0.01-0.66-4.21,1.11-4.49c0.25-0.04,0.08-1.64,0.08-1.77c0.36,0.1,0.7,0.29,1,0.49c0.07-0.42,0.17-0.83,0.24-1.25c0.25,0.17,0.49,0.35,0.76,0.49c0.11-0.58,0.27-1.16,0.23-1.75c0.29,0.16,0.35,0.48,0.51,0.75c0.05-0.05,0.58-0.78,0.49-0.75c0.31-0.11,0.56,0.31,0.75,0.49c0.2-0.63,0.17-1.43-0.52-1.75c0,0.33,0.01,0.67,0.01,1c-0.36-0.44-0.28-1.06-0.58-1.53c-0.31-0.49-0.69-0.35-0.69-0.97c-0.01-0.49-0.01-0.99-0.01-1.48c-0.33,0.17-0.66,0.34-1,0.51c0-0.58-0.01-1.17-0.02-1.75c-0.35,0.15-0.52,0.47-0.74,0.76c-1.46-2.2,1-4.12,2.2-5.77c0.47,0.73-0.16,1.77-0.07,2.57c0.13,1.14,1.28,2.02,2.12,2.67c0.4-1.27-1.41-2.04-0.78-3.24c0.28,0.39,0.26,0.77,0.26,1.25c0.25-0.13,0.46-0.29,0.75-0.26c-0.13-0.5-0.06-0.99-0.01-1.5c0.5,0.6,0.27,1.75,0.52,2.5c0.62-0.79,0.48-1.81,0.47-2.75c0.39,0.45,0.2,2,0.77,1.99c0.58,0,0.23-2.44,0.23-2.75c0.55,0.66,0.15,1.71,1.02,2.24c0-0.43,0.04-0.87,0.24-1.25c0.25,0.17,0.49,0.35,0.75,0.49c0.12-0.25,0.28-0.47,0.24-0.75c0.58,0.08,0.84,0.27,1.25,0.67c0.38,0.36,0,1.12-0.15,1.51c-0.8,2.07-1.96,3.99-2.87,6.01c-0.94,2.09-1.83,4.2-2.71,6.32c-0.89,2.14-1.77,4.29-2.51,6.49C98.8,107.45,97.91,112.12,96.81,111.93M44.81,112.38c-1.11-0.55-3-0.02-3.02-1.81c-0.02-1.5-0.03-2.94-0.29-4.42c0.94,0.79,1.69,2.32,2.03,3.48c-0.33,0.1-0.66,0.2-1,0.26c0.16,1.29,1.3-0.07,1.62,0.41C44.46,110.78,45.25,111.83,44.81,112.38M68.24,110.43c0.12-0.09,0.61-0.62,0.34-0.77c-0.23-0.13-0.84-0.66-1.08-0.54c-0.15,0.07-0.39,0.86-0.33,1.02C67.34,110.58,67.86,110.43,68.24,110.43M52.79,110.31c-1.98-2.53-0.77-5.93-0.57-8.8c0.12-1.8,0.55-3.51,0.85-5.29c0.14-0.8,0.25-1.65,0.49-2.42c0.16-0.51,0.96-0.05,1.08-0.76c0.33,0.36,0.39,1.04,0.51,1.5c0.11-0.18,0.54-0.43,0.75-0.26c0.1,0.08,0.01,0.85,0.01,1c0.23-0.12,0.75-0.5,0.75-0.06c0.03,2.64-0.8,5.35-1.25,7.94C55.03,105.4,55,108.98,52.79,110.31M89.78,108.99c-0.86-0.48-1.62-1.18-2.37-1.81c-0.82-0.7-5.35-6.85-5.57-7.87c-0.89-4.24-1.79-8.41-2.28-12.72c-0.24-2.14-0.57-4.26-0.8-6.4c-0.1-0.94-0.85-4.33,0.13-4.68c1.17-0.42,2.66-0.19,3.87-0.18c0.45,0,2.11-0.23,2.48,0.2c0.46,0.52-0.01,2.13,0.01,2.77c0.05,1.48,0.28,2.97,0.43,4.44c0.32,3.15,0.8,6.27,1.22,9.41c0.42,3.16,0.87,6.29,1.58,9.41c0.35,1.52,0.73,3.03,1.08,4.55c0.18,0.74,0.79,1.96,0.33,2.69C89.86,108.86,89.82,108.93,89.78,108.99M104.02,107.11c-0.75,0.04-1.03,0.19-0.89,0.94c0.05,0.26,0.56,0.05,0.67-0.06C103.98,107.81,104.01,107.35,104.02,107.11M56.24,105.03c0.08-2.24,0.71-4.41,0.99-6.63c0.14-1.11,0.34-2.22,0.51-3.32c0.17-1.11,0.13-2.28,0.63-3.31c0.82,0.56,0.36,1.98,0.29,2.77c-0.14,1.5-0.33,3-0.48,4.5C57.99,100.96,58.16,103.86,56.24,105.03M80.97,101.56c-1.69-1.37-3.62-2.92-4.1-5.15c-0.77-3.62-0.57-7.38-1.19-11.01c-0.3-1.79-0.37-3.61-0.51-5.42c-0.05-0.65-0.7-4.08,0.28-4.4c0.44-0.14,1.09-0.12,1.47,0.15c1.28,0.88,0.89,3.88,1,5.17c0.2,2.49,0.55,4.97,0.98,7.43c0.42,2.47,0.92,4.92,1.41,7.37c0.21,1.06,0.4,2.13,0.65,3.19C81.13,99.65,81.51,100.87,80.97,101.56M106.91,100.84c0.19-0.14,0.47-0.44,0.37-0.71c-0.13-0.33-0.64-0.26-0.96-0.31C106.32,100.25,106.16,101.27,106.91,100.84M59.44,98.5c-0.01-1.15-0.2-3.6,0.71-4.51c0.53,0.81,0.68,1.35,0.44,2.3C60.4,97.04,60.03,97.99,59.44,98.5M75.67,96.36c-0.79-0.75-2.64-1.95-2.64-3.17c0-1.15,0.53-3.2-1.17-3.55c-0.05,0.45-0.3,0.9-0.51,1.3c-0.35,0.67-0.56,0.33-1.1-0.04c-0.38-0.26-0.62-1.06-0.83-1.46c-0.37-0.68-0.19-1.75-0.27-2.5c-0.11-1.05-0.15-2.11-0.22-3.16c-0.14-2.06-0.37-4.09-0.42-6.16c-0.01-0.51-0.07-1.08,0.14-1.56c0.28-0.64,1.07-0.4,1.63-0.46c1.03-0.11,3.46-0.68,3.74,0.84c0.64,3.47,0.32,7.08,0.91,10.56c0.31,1.8,0.27,3.67,0.5,5.49C75.58,93.67,76.52,95.27,75.67,96.36M112.85,88.28c-0.35,0.18-0.43,0.35-0.67,0.03c-0.12-0.15-0.3-0.23-0.45-0.36c-0.33-0.28-0.38-0.03-0.38-0.53c0-0.49,0.1-0.4,0.57-0.52c5.13-1.3,9.96-4.78,13.55-8.58c2.62-2.77,4.23-6.39,5.67-9.88c1.64-3.96,2.93-8.06,4.06-12.19c1.17-4.27,2.31-8.57,3.36-12.87c1.03-4.2,1.54-8.58,2.29-12.85c0.92,0.87,1.09,2.68,1.39,3.85c0.43,1.71,0.73,3.45,1.01,5.19c0.57,3.55,1.18,7.15,1.45,10.73c0.26,3.46-1.05,6.16-2.17,9.34c-0.44,1.26-1.62,4.92,0.5,5.33c0.58,0.11,0.9-1.68,0.99-2.03c0.32-1.25,0.02-2.53-0.01-3.79c-0.04-1.22,0.29-2.56,0.82-3.66c0.59,0.69,0.44,1.75,0.35,2.57c-0.13,1.23-0.09,2.45-0.06,3.69c0.07,2.79-0.02,5.6,0.08,8.39c0.04,1.05,0.17,2.1,0.13,3.15c-0.05,1.25-0.56,2.31-0.91,3.49c-0.73,2.44-0.47,5.29-1.97,7.48c-1.76,2.56-4.8,4.29-7.52,5.64c-3.22,1.59-6.58,3.35-10.21,3.64c-2,0.16-4.62-1.05-6.38-1.87c-1.19-0.55-2.34-1.19-3.47-1.86C114.25,89.46,113.04,89.07,112.85,88.28M111.39,92.3c-0.75-0.21-1.27,0.26-1.24,1.01C110.79,93.32,111.39,93.01,111.39,92.3M68.1,88.68c-1.87-1.17-1.06-4.88-1.18-6.69c-0.06-0.93-0.94-5.7,0.56-6.06c0.07,2.45,0.5,4.87,0.59,7.33C68.13,84.63,69.05,87.45,68.1,88.68M72.6,87.89c0.24-0.75,0.74-1.38,0.61-2.2c-0.14-0.83-0.41-1.72-1.29-2.02c-0.49-0.16-0.72,2.1-0.76,2.34C71.05,86.79,71.88,87.73,72.6,87.89M109.33,86.07c0.48-0.76,1.56-0.84,2.35-1.07c1.36-0.38,2.6-1.02,3.81-1.73c2.51-1.47,4.9-3.05,6.95-5.14c4.19-4.28,6.45-9.66,8.38-15.22c0.97-2.8,1.73-5.65,2.43-8.53c0.71-2.94,1.62-5.81,2.31-8.76c1.41-6.08,2.61-12.19,3.77-18.31c1.94,0.36,0.65,4.36,0.48,5.54c-1.14,7.72-3.33,15.28-5.25,22.84c-1.84,7.23-4.09,15.17-8.55,21.27c-1.47,2.01-3.46,3.54-5.54,4.88c-2.1,1.35-4.27,2.86-6.59,3.81C112.7,86.12,110.52,86.68,109.33,86.07M96.33,86.18c-0.01-0.92-0.02-1.83-0.02-2.75C96.77,83.98,96.77,85.61,96.33,86.18M66.08,86.44c-1.28-0.59-2-1.77-2.53-2.99c-0.25-0.56,0.29-1.25,0.51-1.74c0.31-0.7,0.3-1.34,0.09-2.06c-0.16-0.55-0.44-1.09-0.57-1.64c-0.23-1-0.86,0.35-0.99,0.71c-0.17,0.48-0.55,1.29-0.51,1.8c0.04,0.58,0.32,1.4,0.23,1.96c-0.9-0.51-1.19-1.19-1.59-2.11c-0.25-0.59-0.36-2.04-0.2-2.66c0.1-0.38,0.13-1.18,0.44-1.43c0.49-0.4,5.03-0.64,5.04-0.21c0.02,1.96-0.04,3.91,0.16,5.87C66.27,83.04,66.84,85.47,66.08,86.44M107.06,83.84c-0.48-0.88,0.34-2.11,1.31-1.96c0.81,0.12,2.47,0.72,3.23,0.32c1.06-0.56,1.11-2,2.01-2.69c0.87-0.67,2.23,0.17,3.17-0.08c0.74-0.2,1.06-0.13,1.35-0.83c0.42-0.98,0.07-2.19,0.67-3.11c0.5-0.76,1.95-0.68,2.74-0.86c1.16-0.26,1.96-0.83,1.97-2.11c0.01-0.81-0.65-2.79,0.03-3.42c1-0.91,2.25-1.42,3.27-2.27c1.26-1.05,0.16-2.92-0.04-4.23c-0.08-0.49-0.21-0.93,0.17-1.31c1.19-1.24,3.15-1.9,2.9-3.9c-0.14-1.1-0.67-2.12-0.84-3.22c-0.21-1.34,1.81-2.36,2.55-3.21c1.4-1.58-1.44-3.41-0.45-5.08c0.56-0.95,1.65-1.43,2.31-2.29c0.77-1,0.78-1.76,0.37-2.95c-0.31-0.91-1.06-2.31-0.71-3.28c0.36-1.02,1.72-1.66,2.45-2.43c0.99-1.05-0.88-3.41-1.09-4.52c-0.37-1.99,2.17-2.13,2.69-3.71c0.49-1.5-2.73-4.71-0.1-5.36c0.1,0.45-0.16,0.9-0.2,1.33c-0.14,1.3,1.21,2.31,1.55,3.49c0.52,1.82-1.32,2.18-2.1,3.39c-0.46,0.71-0.51,0.79-0.35,1.6c0.12,0.57,0.34,1.1,0.54,1.65c0.4,1.08,0.83,2.11,0.11,3.08c-0.63,0.84-1.93,1.4-2.31,2.42c-0.66,1.78,1.43,3.43,0.58,5.19c-0.46,0.96-2.73,2.2-2.58,3.28c0.16,1.09,0.68,2.11,0.79,3.18c0.07,0.67,0.17,1.02-0.32,1.53c-0.39,0.4-0.89,0.75-1.31,1.13c-0.89,0.8-1.57,1.54-1.26,2.8c0.27,1.08,0.69,2.11,0.88,3.21c0.19,1.16-1.21,1.8-2.07,2.39c-0.97,0.67-1.09,1.59-0.8,2.66c0.19,0.7,0.93,2.61,0.31,3.24c-0.88,0.88-1.72,1.49-2.77,2.16c-1.04,0.67-1.27,1.41-1.26,2.62c0.01,0.85,0.27,2.79-0.53,3.36c-0.85,0.6-2.18,0.46-3.08,0.94c-0.7,0.37-1.15,0.91-1.35,1.68c-0.17,0.67-0.11,1.95-0.63,2.47c-0.81,0.8-2.85-0.03-3.88,0.16c-1.67,0.31-1.54,2.49-2.94,3.13c-0.68,0.31-1.87-0.29-2.57-0.39C108.44,82.87,107.87,83.18,107.06,83.84M95.31,83.94c-0.01-0.75-0.01-1.5-0.02-2.25C95.72,82.19,95.71,83.42,95.31,83.94M98.8,82.91c-0.49-1.45-1.14-2.83-1.83-4.19c-0.62-1.23-1.19-2.53-0.72-3.91c0.95-2.81,2-5.58,2.91-8.4c0.83,0.17,1.07,1,1.35,1.7c0.44,1.06,0.82,2.15,1.29,3.2c0.46,1.06,1.49,2.25,1.23,3.48c-0.17,0.81-0.28,1.62-0.41,2.44c-0.2,1.26-1.45,2.21-1.85,3.44C100.46,81.65,100.03,82.87,98.8,82.91M105.55,82.35c-0.22-0.47-0.5-0.97-0.51-1.5c0.29,0.05,0.58,0.12,0.88,0.16c0.36,0.05,0.63-0.04,0.63,0.37C106.55,81.92,106.06,82.33,105.55,82.35M72.01,78.14c-0.65,0.01-0.6-0.07-0.89,0.41c-0.19,0.31-0.29,0.67-0.39,1.01c-0.22,0.77-0.29,1.93,0.6,2.36c0.47,0.22,0.69,0.31,1.05-0.11c0.23-0.27,0.45-0.86,0.4-1.21C72.64,79.7,72.19,78.97,72.01,78.14M108.54,80.82c0.38-0.26,0.8-0.48,1.24-0.62c0.62-0.2,0.71-0.21,0.89,0.43c0.17,0.59,0.71,0.59,0.66-0.08c-0.03-0.44-0.47-0.87-0.07-1.16c4.32-3.1,7.25-8.12,9.63-12.76c2.6-5.07,4.68-10.32,6.31-15.78c1.63-5.44,3.25-11,4.41-16.56c0.61-2.91,1.13-5.85,1.56-8.79c0.2-1.35,0.31-2.69,0.43-4.05c0.11-1.26,0.65-2.87,0.39-4.11c0.52,0.07,0.67,0.63,0.81,1.05c0.2,0.6,0.87,0.88,1.11,1.47c0.4,1-0.96,1.57-0.8,2.58c0.16,1.01,0.98,1.91,1.11,2.93c0.06,0.45,0.33,1.18-0.02,1.54c-0.86,0.91-1.83,1.5-2.53,2.57c-0.63,0.96,1.24,3.42,1.26,4.54c0.02,1.16-1.15,1.75-1.87,2.46c-1.17,1.15-0.39,2.49-0.11,3.86c0.3,1.48,0.57,2.51-0.58,3.56c-0.49,0.45-2.22,1.54-2.07,2.35c0.11,0.62,0.19,1.22,0.41,1.81c0.47,1.26,0.62,1.95-0.15,3.09c-0.61,0.9-1.66,1.44-2.3,2.37c-0.42,0.61,0.36,2.44,0.57,3.12c0.35,1.14,0.58,1.99-0.53,2.79c-0.48,0.35-2.35,1.34-2.34,2.01c0.02,1.12,0.52,2.12,0.69,3.22c0.21,1.35-0.27,1.96-1.43,2.6c-0.85,0.47-2.1,1.1-2.49,2.02c-0.65,1.52,0.94,3.75-1.08,4.64c-1,0.44-3.49,0.38-3.68,1.81c-0.07,0.54-0.07,1.14-0.25,1.66c-0.31,0.88-0.28,0.97-1.15,1.27c-1.11,0.38-2.24-0.33-3.31,0.32c-0.58,0.36-1.27,2.28-1.91,2.33C110.45,81.37,109.2,81.57,108.54,80.82M104.52,78.61c1.16,0.3,2.14,0.53,3.31,0.24c1.07-0.26,2.04-0.78,2.89-1.47c4.12-3.34,6.34-8.24,8.75-12.82c2.67-5.06,4.68-10.56,6.31-16.04c3.29-11.05,5.52-22.6,5.43-34.14c2.07,1.06,2.11,3.69,1.84,5.7c-0.32,2.34-0.4,4.71-0.74,7.06c-0.35,2.42-0.88,4.81-1.4,7.2c-1.08,4.94-2.39,9.81-3.77,14.67c-1.35,4.73-2.84,9.45-4.98,13.89c-2.06,4.28-4.35,8.67-7.54,12.22c-1.48,1.65-3.07,2.98-4.87,4.26c-0.74,0.53-1.79,0.96-2.72,0.9C106.12,80.23,104.65,79.65,104.52,78.61M105.76,77.6c1.64-0.05,3.11-1.28,4.34-2.24c0.71-0.56,1.41-1.12,2.07-1.73c0.61-0.57,1.18-1.42,2.05-1.6c-0.15,0.95-0.78,1.77-1.33,2.52c-0.65,0.88-1.32,1.71-2.23,2.33C109.81,77.46,106.22,79.43,105.76,77.6M116.75,76.5c-0.72-0.4-1.41,0.29-0.99,1.01C116.23,77.27,116.65,77.08,116.75,76.5M104.98,74.85c0.6-0.01,1.57,0.11,2.08-0.22c1.17-0.75,2.27-1.57,3.37-2.4c0.88-0.66,2.06-1.52,2.25-2.69c-0.43,0.02-1.32-0.75-1.01-1.24c0.32-0.52,1.84,0,2.07,0.41c0.12,0.21,0.65,0.88,0.58,1.11c-0.14,0.46-0.22,0.88-0.52,1.26c-1.5,1.93-3.56,3.74-5.67,4.97c-0.57,0.34-1.53,0.88-2.18,0.59C105.19,76.28,104.53,75.81,104.98,74.85M112.53,51.79c-0.66-0.13-1.41-1.1-2.06-1.04c-0.91,0.08-1.98,0.52-2.3,1.45c-0.27,0.79-0.7,1.69-0.8,2.51c-0.13,1.02,0.33,2.03,0.69,2.96c0.47,1.2,0.78,2.47,1.16,3.7c0.62,2.03,2.07,4.77,0.46,6.69c0.42,0.14,0.72,0.38,1.06,0.66c0.25,0.21,0.6,1.25,0.57,1.57c-0.06,0.8-1.36,1.85-1.93,2.31c-0.87,0.7-1.76,1.5-2.89,1.66 s-2.14-0.28-2.93-1.15c-0.99-1.1-1.32-2.73-1.89-4.06c-0.62-1.47-1.67-3.6-1.15-5.23c1-3.11,2.69-5.98,4.16-8.88c0.66-1.3,1.24-2.64,1.92-3.92c0.71-1.34,1.43-1.9,2.9-2.24c0.88-0.2,1.55-0.1,2.05,0.79C111.93,50.28,112.39,50.98,112.53,51.79M120.84,71.96c0.41-0.29-0.08-1.04-0.52-0.75C119.81,71.55,120.48,72.15,120.84,71.96M109.95,71.06c-0.05-0.62-0.06-1.28-0.76-1.49C109.2,70.09,109.39,70.87,109.95,71.06M113.9,65.52c-0.32,0.28-0.65,0.51-0.99,0.76c-0.6-1.1-0.38-2.55-0.3-3.74c0.1-1.48-0.2-3.67,0.47-5.01c0.65,0.59,0.4,1.62,0.33,2.37c-0.13,1.29-0.03,2.58-0.02,3.88c0.89-0.58,1.03-2.05,0.97-3.01c0.61,0.36,0.88,1.34,1.08,1.96c0.14,0.44,0.33,0.72-0.14,0.92c-0.33,0.14-0.82,0.2-1.03,0.55c-0.13,0.23,0.4,0.86,0.7,0.8c0.4-0.07,0.95-0.38,1.32-0.37c0.43,0.01,0.63,0.15,0.81,0.53c0.08,0.16,0.83-0.13,1.04-0.17c0.27,1.14-1.13,2.72-1.94,3.32c-0.5,0.37-1.31-0.66-1.56-0.95C114.21,66.84,114.1,66.18,113.9,65.52M71.14,64.65c-0.35,0.51-0.77,1.42-0.68,2.05c0.09,0.63,0.23,2.09,1.21,2.02c0.7-0.05,0.97-1.53,0.87-2.03C72.38,65.86,72.1,64.84,71.14,64.65M116.31,67.25c0.39-0.32,0.39-0.61,0.41-1.08c0.02-0.69-0.3-0.69-0.91-0.68C115.07,65.49,115.22,67.81,116.31,67.25M88.67,67.75c0.09-2.65,0.81-5.27,1.33-7.86c0.57-2.85,1.14-5.7,1.81-8.53c1.23-5.2,2.38-10.64,5.44-15.11c1.11-1.62,3.1-3.36,5.17-3.38c1.95-0.02,4.95,1.09,4.97,3.5c0.05,5.97-2.66,11.01-5,16.35c-1.17,2.66-2.24,5.35-3.51,7.96c-0.68,1.39-1.38,2.76-2.13,4.11c-0.47,0.86-0.73,2.08-1.74,2.48C93.17,68.02,90.62,67.73,88.67,67.75M124.9,65.43c-0.36-0.75-0.8-0.95-1.16-0.11C123.5,65.88,124.73,65.54,124.9,65.43M117.14,64c0-0.68,0.36-1.45,0.98-1.76c0,0.33,0.01,0.67,0.01,1c0.79-0.5,0.56-2.19,0.72-3.01c-0.49-0.09-1.38,0.64-1.39-0.18c-0.01-0.61-0.21-1.22-0.38-1.8c-0.39,0.52-0.58,1.03-0.86,1.61c-0.24,0.5-0.33,0.39-0.9,0.35c-0.33-0.03-0.66-0.01-0.98,0.07c-0.02-2.94,0.09-5.88,0.14-8.82c0.02-1.21,0-2.42,0.04-3.63c0.03-0.82,0.09-2.13-0.81-2.55c0.02,1.69-0.15,3.32-0.21,5c-1.69-1.28,0.8-4.5-1.3-5.49c0.01,0.84,0.32,2.16-0.47,2.75c-0.55-1.02,0.23-2.9-1.03-3.49c0.01,0.84,0.16,2.09-0.48,2.75c-1-1.84,0.34-4.41,1.26-5.98c2.1-3.58,3.97-7.3,5.78-11.03c0.91-1.87,1.75-3.76,2.67-5.63c0.45-0.93,0.92-1.86,1.42-2.76c0.19-0.35,0.37-0.85,0.69-1.1c0.26-0.19,0.8-0.3,0.94-0.61c0.09-0.19-0.26-1.21-0.26-1.5c0.48,0.14,0.59,0.56,0.76,0.99c1.25-0.9,2.28-2.41,2.97-3.78c-1.08,0.04-1-1.26-1.02-1.99c-0.4,0.21-0.65,0.57-0.91,0.93c-0.48,0.66-0.75,0.54-1.49,0.4c-0.43-0.08-0.95-0.43-1.04-0.91c-0.12-0.58,0.53-0.71,1-0.97c1.39-0.77,4.9-1.4,6.08,0.1c0.7,0.89,1.38,1.78,1.39,2.97c0.01,1.5-0.65,16.65-1.8,16.41c-0.25-0.05-0.48-0.07-0.69-0.22c-0.55-0.41-0.89-0.53-0.52-1.23c0.45-0.85,1.46-1.53,1.62-2.51c-0.8,0.01-1,0.23-1-0.58c-0.01-0.72-0.01-1.44-0.02-2.16c-0.67,0.4-0.94,1.31-1.23,1.98c-0.17,0.39-0.23,0.65-0.7,0.4c-0.3-0.16-0.72-0.29-1.05-0.36c0.21,0.77,1.27,3.68,0.29,3.93c-0.44,0.11-0.61,0.16-0.98,0.45c-0.44,0.34,0.15,0.56,0.45,0.75c0.21,0.14,0.77-0.01,1.04,0c0.76,0.03,1.45,0.48,2.23,0.55c0.59,0.05,0.58,0.12,0.48,0.7c-0.19,1.07-0.95,1.88-1.04,2.98c-0.08,0.99,0.15,2.33-0.61,3.12c-0.49-0.89-0.27-2.28-0.28-3.25c-1.13,1.47-0.75,4.24-0.86,6.05c-0.06,0.92-0.11,1.85-0.23,2.77c-0.02,0.17-0.02,0.53-0.15,0.67c-0.22,0.23-1.17-0.17-1.18-0.52c-0.01-0.64-0.01-1.29-0.02-1.94c-0.45,0.29-0.75,0.85-1.08,1.26c-0.52,0.64-0.82,0.51-1.65,0.52c0.25,0.84,0.55,1.68,0.7,2.54c0.23,1.3-0.14,0.7-0.98,1.04c-0.38,0.15-0.67,0.25-0.47,0.67c0.23,0.49,0.65,0.42,1.14,0.47c0.3,0.03,0.35,1.98,0.42,2.26c0.35-0.18,0.68-0.43,0.88,0.08c0.13,0.33,0.02,0.75-0.04,1.08c-0.13,0.69-0.41,1.51-0.81,2.09c-0.75-0.56-0.52-2.17-0.53-3c-2.12,1.23,0.43,5.11-1.19,6.76c-0.61-1.12-0.22-3-0.18-4.22c0.05-1.51,0.06-3.06-0.39-4.52c-0.19,0.2-0.41,0.36-0.67,0.48c-0.19,0.07-0.28-0.59-0.31-0.75c-0.33-2.25-0.07-4.7-0.09-6.97c-0.79,0.94-0.76,2.15-0.73,3.3c0.04,1.39-0.04,2.79-0.11,4.18c-0.16,2.85-0.05,5.67-0.02,8.52c1.06-1.26,0.87-3.19,0.77-4.72c-0.04-0.7-0.38-2.86,0.66-3.05c0.02,2.45,0.02,4.9,0.09,7.35c0.01,0.28,0.02,5.15-0.79,4.89C118.27,64.03,117.74,63.83,117.14,64M142.88,63.02c0.01-0.79-0.11-1.76,0.23-2.5C143.58,61.03,143.47,62.62,142.88,63.02M71.34,58.65c-1.11,0.55-1.75,3.99-0.08,4.21c0.77,0.1,1.26-1.4,1.19-1.97C72.35,60.05,71.85,59.29,71.34,58.65M111.63,62.54c-0.28-0.5-0.63-4.5-0.04-4.5c0.41,0,0.25,0.34,0.26,0.72C111.85,59.74,112.27,61.71,111.63,62.54M127.59,57.91c0.06-0.44-0.42-0.81-0.76-0.57c-0.35,0.25-0.4,0.68-0.49,1.08C126.82,58.39,127.2,58.16,127.59,57.91M115.84,58.26c-0.02-2.43,0.2-4.85,0.23-7.27c0.01-1.18-0.04-2.37-0.06-3.55c-0.02-0.9,0.32-1.68-0.72-1.67c-0.2,0-0.18,6.12-0.18,6.55c-0.01,1.38-0.02,2.76-0.02,4.14c0,0.38,0,0.76,0,1.14C115.09,58.27,115.19,58.26,115.84,58.26M117.09,58c0.43-0.82,0.29-1.8,0.29-2.69c0-1.06,0.17-2.11,0.16-3.17c-0.02-2.3-0.04-4.6-0.06-6.9c-0.73,0.17-0.77,1.17-0.77,1.76c0,1.15,0.03,2.28-0.06,3.44c-0.12,1.57-0.1,3.14-0.08,4.71C116.57,55.81,116.12,58.04,117.09,58M111.57,56.29c-0.53-0.35-0.89-0.78-1.46-1.09c-0.71-0.38-1.14,0.34-1.54,0.86c-1.31-0.8-0.04-2.82,1.3-2.59C110.8,53.64,112.35,55.31,111.57,56.29M112.81,55.03c-0.73-0.64-1.6-2.09-2.65-2.18c-0.46-0.04-0.9-0.04-1.37-0.03c-0.05-1.45,1.56-1.72,2.52-0.89C111.91,52.45,113.57,54.11,112.81,55.03M130.01,49.63c-0.26-0.08-0.58-0.23-0.85-0.12c-0.21,0.08-0.58,0.49-0.4,0.77C129.2,50.92,129.87,49.96,130.01,49.63M123.76,49.44c-0.02-0.89,0.51-2.08,1.48-2.26C125.01,48.07,124.84,49.28,123.76,49.44M120.26,49.47c0.44-2.29,0.23-4.68,0.19-7c-1.41,0.3-0.71,4.96-0.7,5.89C119.76,49.04,119.5,49.51,120.26,49.47M124.97,44.93c0.48-1.99,0.21-4.21,0.2-6.25c-0.95,0.15-0.88,2.42-0.91,3.17C124.22,42.75,124.3,44.24,124.97,44.93M121.97,44.45c0.03-0.76,0.61-3-0.53-3.25C121.53,42.27,120.73,43.79,121.97,44.45M117.45,42.24c-0.86,0.02-1.86,1.84-0.67,2.11C117.7,44.57,117.6,42.73,117.45,42.24M123.21,43.69c0.73-1.01,0.48-2.59,0.47-3.75C122.54,40.12,122.39,43.1,123.21,43.69M131.94,41.62c-0.63-0.11-1.23,0.37-1.24,1.01C131.34,42.64,131.95,42.33,131.94,41.62M119.7,42.22c0.19-1.08-1.36-0.79-2.01-0.73C117.68,42.52,119.01,42.59,119.7,42.22M116.69,41c-0.39-0.11-2.6-0.18-1.99,0.77c0.2,0.31,0.93,0.28,1.21,0.26C116.42,41.97,116.68,41.5,116.69,41M117.69,41.24c0.71-1.54,2.01-2.75,2.71-4.27c-0.47-0.23-1.02-0.07-1.5,0.01c-0.01-0.9-0.04-1.63-0.27-2.5c-0.64,0.53-1.1,1.71-1.23,2.51c-0.4-0.26-0.82-0.53-1.26-0.74c-0.28,0.79,0.23,1.92,0.4,2.69C116.71,39.63,116.64,41.45,117.69,41.24M112.39,36.04c-0.17-0.1-0.46-0.75-0.18-0.75c0.31,0,0.62-0.01,0.92-0.01C112.9,35.59,112.72,35.82,112.39,36.04M126.39,35.41c0.09-0.5,0.21-2.66-0.86-1.81C124.67,34.28,125.49,35.46,126.39,35.41M133.88,34.1c-0.05-0.32-0.22-1.54-0.82-0.93C132.38,33.86,133.36,34.02,133.88,34.1M99.32,27.9c0.35-1.91-2.07-1.44-2.28-2.98c3.38,0.93,6.79,1.94,9.98,3.43c1.58,0.74,3.12,1.52,4.72,2.22c0.71,0.31,3.24,1.02,3.04,1.95c-0.06,0.31-0.2,1.06-0.59,0.95c-0.66-0.18-1.19-0.21-1.88-0.21c-1.1,0.01-1.77-1.41-2.31-2.18c-1.05-1.48-3.46-2.24-5.17-2.42C102.85,28.45,101.1,29.02,99.32,27.9M112.84,30.28c0.45-0.36,1.2-0.36,1.75-0.49c0.52-0.12,1.68-0.67,1.48,0.2c-0.21,0.91-0.47,1.28-1.4,1.15C114.03,31.06,113.38,30.63,112.84,30.28M96.59,29.92c-0.3-0.46-0.79-0.32-1.25-0.24C95.48,28.62,97.2,29.18,96.59,29.92M98.09,29.66c0.19-0.28,0.45-0.38,0.75-0.51C98.67,29.44,98.38,29.54,98.09,29.66M97.75,19.41c0.83,0.5,0.84,1.83,1.49,2.52c0.7,0.73,1.7,1.68,2.82,1.28c1.12-0.39,1.88-0.95,2.84-1.65c1.02-0.74,1.91-1.21,3.17-0.81c0.63,0.2,1.49,1.54,1.74,2.11c0.54,1.19,0.47,2.53,1.19,3.68c0.61,0.98,1.53,1.6,2.64,1.79c1.35,0.24,2.41-0.89,3.68-1.1c-0.97,1.97-3.74,2.32-5.57,1.47c-2-0.93-1.54-3.9-2.79-5.4c-0.88-1.06-1.35-1.94-2.81-1.44c-1.01,0.34-1.66,1.27-2.64,1.64c-1.22,0.46-1.97,0.76-3.18,0.15c-0.98-0.49-1.58-1.26-1.96-2.27C98.14,20.75,97.84,20.09,97.75,19.41M93.58,28.45c0.83-0.13,0.75-1.38,0.73-2.01c0.52,0.34,0.78,1.33,0.58,1.9c-0.19,0.52-0.11,0.9-0.68,0.76C93.9,29.02,93.68,28.75,93.58,28.45M97.33,28.42c0-0.73,0.44-1.5,1.24-1.51C98.57,27.58,98,28.32,97.33,28.42M95.82,27.93c0.06-0.72-0.04-1.63,0.73-2.01C96.76,26.58,96.87,28.12,95.82,27.93M135.31,26.09c-0.22-0.29-0.4-0.6-0.76-0.74c-0.18,0.31-0.19,0.66-0.24,1C134.66,26.29,135,26.27,135.31,26.09M105.78,23.34c-0.2-1.04,1.8-1.23,2-0.27C107.07,23.21,106.53,23.56,105.78,23.34M123.51,20.19c-0.55-0.1-0.66,0.21-0.83,0.67c-0.19,0.51,0.05,0.73,0.35,1.12c0.23,0.3,0.74-0.4,0.8-0.56C123.96,21,123.76,20.51,123.51,20.19M99.46,14.9c0.51-0.86,2.22-0.22,2.98-0.05c3.97,0.86,7.86,2.06,11.63,3.59c1.55,0.63,3.14,1.27,4.61,2.08c0.28,0.15,2.2,1.23,1.26,1.57c-1.19,0.44-2.67-0.84-3.63-1.37c-1.81-0.98-3.79-1.75-5.72-2.46c-1.89-0.69-3.84-1.19-5.76-1.77C103.05,15.95,101.12,15.78,99.46,14.9M102.76,20.62c0.6,0.12,1.14,0.21,1.75,0.23C104.12,21.69,102.75,21.7,102.76,20.62M126.25,19.42c-0.3-0.16-0.65-0.38-1-0.36c-0.52,0.04-0.53,0.33-0.7,0.77c-0.12,0.31,0.74,0.37,0.91,0.41C125.79,20.31,126.17,19.66,126.25,19.42M97.5,19.17c-0.2-0.23-0.45-0.43-0.51-0.75C97.3,18.51,97.9,18.82,97.5,19.17M102.91,9.62c0.59-0.47,1.46-0.2,2.13-0.04c3.37,0.82,6.75,1.61,10.04,2.69c1.57,0.51,3.15,1.07,4.64,1.77c0.99,0.46,2.55,1.07,3,2.16c-1.17,0.63-3.47-0.89-4.56-1.32c-1.79-0.72-3.58-1.4-5.41-2.02c-1.69-0.57-3.41-1.06-5.09-1.66C106.11,10.64,104.38,10.39,102.91,9.62M109.46,14.31c-0.05-1.51-2.52-2.62-3.69-1.67c-0.63,0.51,0.81,1.63,1.22,1.78C107.74,14.69,108.67,14.28,109.46,14.31M108.41,9.07c0.16-0.27,0.46-0.31,0.75-0.26c-0.39-1.94-2.82-3.14-2.79-5.23c1.09,0.05,1.76,1.45,2.26,2.25c0.84,1.33,1.99,2.46,2.53,3.97C110.37,9.77,108.95,9.76,108.41,9.07M103.9,7.86c0.22-0.29,0.39-0.61,0.74-0.76c0,0.32,0.01,0.64,0.01,0.96C104.65,8.3,103.98,8,103.9,7.86"/></g><g id="jack"><text transform="scale(0.56453 1)" font-family="Bitstream Vera Serif" font-weight="bold" font-size="40">J</text></g><g id="diamond"><path style="fill:#e6180a" d="M0,0C-2.56,0-5.12,0-7.68,0C -6.8053,0.039-6.061,0.605-5.358,1.0728C-3.779,2.264-2.3,3.63 -1.132,5.228C-0.587,6.032 -0.0144,6.936 0,7.94M-7.68,0C-6.57,-0.035 -5.622,-0.7413 -4.776,-1.393C-3.281,-2.648 -1.987,-4.141 -0.895,-5.757C-0.494,-6.426 -0.022,-7.135 0,-7.94C0,-5.293 0,-2.647 0,0M0,-7.94C0.038,-6.758 0.758,-5.734 1.438,-4.82C2.65,-3.310 4.086,-1.974 5.666,-0.857C6.28,-0.474 6.932,-0.0185 7.68,0C5.12,0 2.56,0 0,0M 7.68,0C6.57,0.035 5.622,0.741 4.776,1.392C 3.281,2.648 1.987,4.141 0.895,5.757C0.494,6.426 0.0225,7.135 0,7.94C0,5.293 0,2.647 0,0"/></g><g id="base"><path style="fill:#FFFFFF;stroke:#000000;stroke-width:2.5" d="M 0,0C0,3.78 3.09,6.87 6.87,6.87L159.715,6.87C163.485,6.87 166.575,3.78 166.575,0L166.575,-228.4C166.575,-232.18 163.485,-235.27 159.715,-235.27L6.87,-235.27C3.09,-235.27 0,-232.18 0,-228.4L0,0 z"/></g></defs><g id="jack_diamond" transform="translate(-1675.75,-243.137)"><use xlink:href="#base" x="1675.75" y="243.137" xlink:type="simple" xlink:show="embed" xlink:actuate="onLoad"></use><g fill="none" stroke="black" stroke-width="1"><path d="M 1683.75 68.02L1683.75 245.407"/><path d="M 1683.75 245.407L1816.03 245.407"/><path d="M 1835.33 189.107L1835.33 11.47"/><path d="M 1835.33 11.47L1703.05 11.47"/></g><g><use xlink:href="#diamond" x="713.264" y="16.05" transform="scale(2.4) rotate(180,713.264,16.05)" xlink:type="simple" xlink:show="embed" xlink:actuate="onLoad"></use><rect x="1693.33" y="19.536" width="9.69257" height="37.968" fill="white"/></g><g><use xlink:href="#diamond" x="753.017" y="91.0328" transform="scale(2.4)" xlink:type="simple" xlink:show="embed" xlink:actuate="onLoad"></use><rect x="1816.49" y="199.495" width="9.69257" height="37.968" fill="white"/></g><g transform="rotate(-1.80,1759.54,128.439)"><line x1="1722.98" y1="181.484" x2="1796.1" y2="75.3933" stroke="black" stroke-width="7.25"/><circle cx="1725.4" cy="178.426" r="2.2" fill="white"/><circle cx="1725.4" cy="178.426" r=".7" fill="black"/><circle cx="1728.82" cy="173.452" r="2.2" fill="white"/><circle cx="1728.82" cy="173.452" r=".7" fill="black"/><circle cx="1732.25" cy="168.479" r="2.2" fill="white"/><circle cx="1732.25" cy="168.479" r=".7" fill="black"/><circle cx="1735.68" cy="163.505" r="2.2" fill="white"/><circle cx="1735.68" cy="163.505" r=".7" fill="black"/><circle cx="1739.11" cy="158.532" r="2.2" fill="white"/><circle cx="1739.11" cy="158.532" r=".7" fill="black"/><circle cx="1742.54" cy="153.558" r="2.2" fill="white"/><circle cx="1742.54" cy="153.558" r=".7" fill="black"/><circle cx="1745.96" cy="148.585" r="2.2" fill="white"/><circle cx="1745.96" cy="148.585" r=".7" fill="black"/><circle cx="1749.39" cy="143.611" r="2.2" fill="white"/><circle cx="1749.39" cy="143.611" r=".7" fill="black"/><circle cx="1752.82" cy="138.638" r="2.2" fill="white"/><circle cx="1752.82" cy="138.638" r=".7" fill="black"/><circle cx="1756.25" cy="133.664" r="2.2" fill="white"/><circle cx="1756.25" cy="133.664" r=".7" fill="black"/><circle cx="1759.67" cy="128.69" r="2.2" fill="white"/><circle cx="1759.67" cy="128.69" r=".7" fill="black"/><circle cx="1763.1" cy="123.717" r="2.2" fill="white"/><circle cx="1763.1" cy="123.717" r=".7" fill="black"/><circle cx="1766.53" cy="118.743" r="2.2" fill="white"/><circle cx="1766.53" cy="118.743" r=".7" fill="black"/><circle cx="1769.96" cy="113.77" r="2.2" fill="white"/><circle cx="1769.96" cy="113.77" r=".7" fill="black"/><circle cx="1773.39" cy="108.796" r="2.2" fill="white"/><circle cx="1773.39" cy="108.796" r=".7" fill="black"/><circle cx="1776.81" cy="103.823" r="2.2" fill="white"/><circle cx="1776.81" cy="103.823" r=".7" fill="black"/><circle cx="1780.24" cy="98.8493" r="2.2" fill="white"/><circle cx="1780.24" cy="98.8493" r=".7" fill="black"/><circle cx="1783.67" cy="93.8757" r="2.2" fill="white"/><circle cx="1783.67" cy="93.8757" r=".7" fill="black"/><circle cx="1787.1" cy="88.9022" r="2.2" fill="white"/><circle cx="1787.1" cy="88.9022" r=".7" fill="black"/><circle cx="1790.53" cy="83.9287" r="2.2" fill="white"/><circle cx="1790.53" cy="83.9287" r=".7" fill="black"/><circle cx="1793.95" cy="78.9551" r="2.2" fill="white"/><circle cx="1793.95" cy="78.9551" r=".7" fill="black"/></g><use xlink:href="#jack" x="1684.78" y="39.79" style="fill:#e6180a" xlink:type="simple" xlink:show="embed" xlink:actuate="onLoad"></use><use xlink:href="#jack" x="1834.3" y="217.087" transform="rotate(180,1834.3,217.087)" style="fill:#e6180a" xlink:type="simple" xlink:show="embed" xlink:actuate="onLoad"></use><use xlink:href="#diamond" x="1689.4" y="58.02" transform="rotate(180,1689.4,58.02)" xlink:type="simple" xlink:show="embed" xlink:actuate="onLoad"></use><use xlink:href="#diamond" x="1829.67" y="198.857" xlink:type="simple" xlink:show="embed" xlink:actuate="onLoad"></use><use xlink:href="#jack_1" transform="matrix(-0.989999,-1.591889e-3,1.591889e-3,-0.989999,1828.046,183.0043)" id="use1587" x="0.0000000" y="0.0000000" width="2178.4751" height="1215.6875" xlink:type="simple" xlink:show="embed" xlink:actuate="onLoad"></use><use xlink:href="#jack_1" transform="matrix(0.989996,2.857262e-3,-2.857262e-3,0.989996,1691.285,73.66360)" id="use1588" x="0.0000000" y="0.0000000" width="2178.4751" height="1215.6875" xlink:type="simple" xlink:show="embed" xlink:actuate="onLoad"></use></g></svg>