<?xml version="1.0" encoding="UTF-8"?>
<svg xmlns="http://www.w3.org/2000/svg" xmlns:xlink="http://www.w3.org/1999/xlink" version="1.1" height="263" width="188" viewBox="-1.3 -236.8 188 263" preserveAspectRatio="xMidYMid meet" zoomAndPan="magnify" contentScriptType="application/ecmascript" contentStyleType="text/css"><defs><g id="jack_2"><g><path style="fill:#1C1585;" d="M334.7,168.45l-1.48-0.79c-2.67,1.91-5.3,3.63-8.51,4.49c-4.24,1.13-7.75,1.62-12.14,1.85c-7,0.36-14.08-2.22-20.65-4.33l-1.79,8.47c4.73,2.33,9.28,4.86,13.77,7.63c4.04,0.88,8.8-0.37,12.85-0.81c4.38-0.48,8.25-0.46,12.68-0.21c3.65-3.03,7.26-6.09,11.06-8.94l-2.83-2.27L334.7,168.45"/><path style="fill:#1C1585;" d="M299.52,136.25l5.67-2.35v-0.3c-1.37,0.31-2.7,0.82-4.04,1.24c0.77-2.76,2.1-5.77,2.29-8.63c0.29-4.48,0.58-8.95,0.88-13.43c0.43-6.52,0.43-13.11,0.17-19.64l-1.72-0.29l-3.21,2.16c-3.17,5.04-6.35,10.08-9.52,15.12c-1.38,2.19-1.31,4.98-1.53,7.47c-0.26,2.98-0.68,5.66-1.34,8.58l-0.6,0.79l-0.03,0.15c-1.2,1.18-2.13,2.7-3.15,4.04c-0.98,1.29-2.56,2.21-3.82,3.21l-1.25,0.44l-0.02,0.02c1.46,2.61,3.26,4.89,6,6.23c2.89,1.42,5.91,2.27,8.98,3.24l2.29-4.47L299.52,136.25"/><polyline style="fill:#1C1585;" points="334.03,100.96 334.04,96.22 325.41,96.2 333.06,99.79 334.03,100.96 "/><path style="fill:#1C1585;" d="M345.99,134.54l-3.96-1.23l-3.61-2.97l0.09-0.18c-7.88-10.02-12.63-21.55-15.89-33.79l0.12-0.17h-0.48c-3.27-2.53-6.25-4.51-9.92-6.42v0.27l0.06,0.03c0.91,11.28,1.78,22.19,4.38,33.22h0.11c1.14,3.52,2.3,6.82,3.84,10.17c1.62,1.46,3.19,2.95,4.85,4.37l0.06,0.16l0.05,0.05c0.13,0.48,0.28,0.95,0.45,1.42l1.98,0.27l0.27-2.63l1.28-1.46l2.61-0.18l1.51,1.29l1.03,2.61l-0.77,2.46l3.97,0.96l0.17-1.1l1.64-1.53l1.69,0.25l1.3,2.03c3.61-1.08,7.06-2.52,10.69-3.54l0.13-0.62c-2.53-1.33-4.99-2.61-7.63-3.79L345.99,134.54"/><path style="fill:#F8C20F;" d="M283.06,131.6c1.37-1.8,2.74-3.61,4.11-5.42c0.95-4.18,1.32-8.26,1.69-12.54l-0.7-1.59c-4.28,6.74-9.8,13.46-11.91,21.21l1.56,1.73c0.58-0.21,1.17-0.41,1.75-0.62L283.06,131.6"/><path style="fill:#E61408;" d="M325.65,138.02c-2.06-2.2-3.98-3.46-6.59-4.97c-3.09-0.33-6.37-1.29-9.46-0.53c-3.5,0.87-6.73,2.35-10.06,3.73l-3.95,3.58c-0.86,1.68-1.72,3.35-2.58,5.03l4.24,1.01l5.5-5.65l8.08-3.16l7.78,0.57l5.24,3.9l2.25-1.93c-0.13-0.51-0.26-1.01-0.39-1.52L325.65,138.02"/><path style="fill:#F8C20F;" d="M304.58,108.76c-0.32,4.95-0.65,9.9-0.97,14.85c-0.26,3.91-1.4,7.44-2.46,11.23c3.38-1.07,6.78-1.92,10.22-2.77c3,0.38,6,0.88,9.02,1c-1.38-3.27-2.81-6.38-3.62-9.83c-0.91-3.84-1.64-7.66-2.33-11.55c-1.26-7.1-1.46-14.41-2.04-21.6c-1.1-0.58-2.19-1.16-3.29-1.74l-4.71,2.64C304.65,96.91,304.58,102.84,304.58,108.76"/><path style="fill:#1C1585;" d="M353.77,137.89l0.88,0.11c0.86-0.28,1.74-0.67,2.3-1.41c0.24-0.66,0.47-1.31,0.71-1.97c-1.43,0.89-2.7,2.15-4,3.22L353.77,137.89"/><path style="fill:#1C1585;" d="M319.18,79.69l-0.01,6.36l8.52,0.01l-0.11-0.12c2.36-6.65,4.72-13.3,7.07-19.96c2.22-6.28,3.43-13.09,5.12-19.54l-2.99-2.56c-1.3-0.3-2.57-0.49-3.9-0.66c-4.07,6.25-8.27,12.39-12.36,18.65l-0.31,5.46h-0.24l-0.39,12.5L319.18,79.69"/><path style="fill:#E61408;" d="M350.78,53.22l-3.07-0.93c-0.8-1.44-1.47-2.71-2.59-3.91c-1.73-0.81-3.05-1.31-4.91-1.64l-0.3-0.3c-1.73,6.46-3.02,13.25-5.25,19.56c-2.36,6.65-4.72,13.3-7.07,19.96c2.62,2.86,5.24,5.73,7.86,8.59c2.64-2.11,4.36-3.84,6.14-6.74c1.86-3.04,4.02-6.03,5.52-9.28c3.18-6.9,6.18-13.68,8.14-21.04C354.39,55.52,352.45,54.4,350.78,53.22"/><path style="fill:#E61408;" d="M350.47,25.71l5.16,2.64c1.78-1.8,3.63-3.06,5.75-4.47l4.37-1.05c-4.36-3.79-8.64-7.66-13.16-11.26c-2.42,3.84-4.77,7.72-7.2,11.55C347.1,23.98,348.81,24.79,350.47,25.71"/><path style="fill:#E61408;" d="M324.66,104.03c3.68,9.34,7.6,18.19,13.85,26.13c1.83-3.65,3.45-7.51,5.64-10.96c2.7-4.25,5.47-8.45,8.04-12.77l-1.72-1.61l-8.31,5.92c-3.03-3.65-6.06-7.3-9.09-10.95c-3.23-1.51-6.45-3.02-9.68-4.54c-0.26,0.37-0.52,0.74-0.78,1.11L324.66,104.03"/><path style="fill:#F8C20F;" d="M337.51,44.07c0.9,0.89,1.8,1.78,2.69,2.67c1.35,0.24,2.71,0.48,4.06,0.72c1.44,1.55,2.41,2.96,3.44,4.82c3.17,0.96,5.17,2.14,7.34,4.69c2.35-8.06,3.55-16.37,5.06-24.62c-1.22-2.48-4.71-3.93-6.99-5.19c-2.57-1.42-5.09-2.75-7.79-3.92c-3.77,6.79-8.55,12.98-12.4,19.75C334.46,43.36,335.99,43.72,337.51,44.07"/><path style="fill:#E61408;" d="M359.65,104.55l2.59-0.5c3.71-4.11,6.17-8.94,7.93-14.15l-4.32-2.54c-2.12,0.04-3.92,0.44-5.99,0.92l1.78,3.92l-4.32,0.06l1.25,3.62c-1.25-0.12-2.5-0.23-3.74-0.35l-0.43,1.35l0.32,2.61l-1.51-1.17c2,2.09,3.97,4.16,6.11,6.1L359.65,104.55"/><path style="fill:#1C1585;" d="M386.12,49.84h-0.01l0.11-1.11l-2.76-5.02l-0.79,0.16c0.41,2.08,0.79,4.18,1.24,6.26h-0.04l0.42,2.75 h0.31c0,1.18,0.03,2.25,0.2,3.41l-0.21,0.01c-0.14,5.4,0.33,10.93,0.35,16.35c0.01,5.01-1.02,9.52-2.42,14.28h0.06c-1.11,4.79-3.81,10.09-6.73,14v0.22h-0.17l-2.66,3.57l0.07,0.11c-2.35,2.59-4.68,4.93-7.31,7.24v0.59l0.93-0.07l7.8,2.48l-0.07,0.08l3.45,0.01l0.01,0.17l1.04-0.21c2.58-3.99,4.78-7.78,6.81-12.07l-0.08-1.54h0.46l0.05-28.25h-0.12L386.12,49.84"/><path style="fill:#E61408;" d="M366.72,112.59c-0.52,0.04-1.04,0.07-1.56,0.11c-3.43,3.53-7.03,6.87-10.53,10.37c-3.3,3.3-5.94,7.63-8.62,11.44c2.53,1.13,5.06,2.25,7.58,3.38c4.12-3.38,8.11-6.61,11.7-10.56c1.77-1.94,3.09-4.48,4.57-6.65c1.35-1.99,3.11-3.77,4.65-5.62L366.72,112.59"/><path style="fill:#F8C20F;" d="M343.49,120.22c-1.69,3.37-3.38,6.74-5.08,10.11l3.61,2.97l3.96,1.23c4.1-5.81,8.29-11.12,13.32-16.15c4.56-4.55,9.44-8.77,13.79-13.56l-0.07-0.11c3.98-5.34,8.02-11.17,9.55-17.79h-0.06c1.4-4.75,2.43-9.27,2.42-14.28c-0.01-5.48-0.07-10.88-0.42-16.35c0.09,0,0.19-0.01,0.28-0.01c-0.88-5.81-1.1-12.73-4.69-17.6c-4.16-5.65-8.54-10.71-14.11-15.02c0.92,2.77,2.33,5.34,3.61,7.95c1.29,2.62,1.98,5.65,2.91,8.41c1.78,5.3,2.79,10.57,3.5,16.11h-0.38c-0.64,8.56-0.67,17.13-2.99,25.41c-2.28,8.12-4.63,16.1-10.41,22.51c-0.92,0.18-1.84,0.35-2.76,0.53c-3.18-2.87-6.16-5.93-9.19-8.95l-0.45,0.53l0.19,6.69l2.26,3.39C349.48,110.97,346.44,115.58,343.49,120.22"/><path style="fill:#F8C20F;" d="M354.39,96.89l0.43-1.35c1.25,0.12,2.5,0.23,3.74,0.35l-1.25-3.62l4.32-0.06l-1.78-3.92c1.33-0.31,2.65-0.62,3.98-0.93l-2.37-1.97c-2.51-0.4-4.96-0.84-7.43-1.43c-1.91,2.78-3.76,5.25-6.04,7.72c1.85,3.24,3.75,5.53,6.71,7.82L354.39,96.89"/><path style="fill:#F8C20F;" d="M319.59,79.85c0.18-5.79,0.36-11.57,0.54-17.36c-3.14,4.67-6.05,9.48-9.17,14.18C313.84,77.72,316.71,78.79,319.59,79.85"/></g><path d="M341.05,176.3c0-0.66,0.04-0.72-0.5-1.07c-2.63-1.76-4.79-4.67-5.97-7.59c-0.61-1.52-0.69-3.21-1.1-4.79c-0.4-1.57-1.34-3.36-1.11-5.01c0.13-0.89,1.24-2.17,1.96-2.66c0.43-0.29,1.15-0.47,1.63-0.72c1.78-0.92,1.29-3.16,0.88-4.67c1.23-0.24,2.11-0.5,3.2-1.15c0.83-0.5,0.9-1.61,1.3-2.39c0.52-1.04,1.13-2.23,1.91-3.11c0.59-0.66,1.6-0.88,2.41-1.11c1.16-0.34,2.25-0.85,3.35-1.34c2.25-1,4.64-1.52,6.91-2.46c0.86-0.36,1.55-0.88,2.01-1.7c0.52-0.93,0.77-2.02,1.52-2.82c0.86-0.92,1.94-1.66,2.85-2.54c1.03-0.99,2.04-2.02,2.95-3.13c1.76-2.16,3.03-4.68,4.73-6.89c0.79-1.03,1.6-2.06,2.47-3.02c0.77-0.85,1.64-1.97,2.79-2.32c1.07-0.33,2.27-0.16,3.38-0.29c1.04-0.12,1.66-1.43,2.13-2.22c0.8-1.34,1.55-2.69,2.27-4.07c1.26-2.41,3.4-5,3.41-7.83c0.03-13.23,0.05-26.46,0.07-39.7c0.01-3.26-0.05-6.53,0.02-9.79c0.03-1.13,0.15-2.27,0.04-3.4c-0.15-1.44-0.9-2.22-1.69-3.36c-1.68-2.41-3.02-5.02-4.76-7.41c-1.74-2.38-3.61-4.65-5.59-6.83c-3.16-3.49-6.59-6.73-10.18-9.77c-1.97-1.67-3.91-3.38-5.9-5.03c-1.89-1.57-3.69-3.33-5.85-4.53c0.02,0.15-0.24,0.76-0.23,0.76c0.94,0.71,1.89,1.35,2.53,2.37c0.3,0.48,0.11,1.26,0.02,1.78c-0.17,1.06-0.35,2.12-0.53,3.17c-0.38,2.25-0.84,4.5-1.56,6.67c-0.81-0.17-1.76-0.8-2.5-1.19c-0.84-0.45-1.88-0.96-1.74-2.11c0.24-1.97,0.75-3.97,0.76-5.96c-1.05,0.9-1.66,2.22-2.34,3.39c-0.85,1.46-1.8,2.88-2.71,4.31c-0.96,1.51-1.87,3.06-2.89,4.53c-0.79,1.15-1.87,2.33-2.09,3.76c1.43-0.1,2.99,0.76,4.26,1.34c1.61,0.73,3.19,1.58,4.7,2.51c2.89,1.78,5.78,3.92,8.29,6.21c0.94,0.86,0.87,1.73,0.68,2.9c-0.28,1.72-0.95,3.58-0.96,5.31c-1.23-0.35-1.67,0.11-1.75,1.25c-1.32-0.27-2.36-1.51-3.75-1.76c0.13-0.65,1.73-1.88,1.51-2.5c-0.09-0.23-0.92-0.4-1.13-0.49c-0.64-0.28-1.22-0.68-1.82-1.04c-0.92-0.55-1.27,0.21-1.3,1.02c-1.47-0.83-2.73-1.96-4.24-2.76c0.62-0.63,1.26-1.14,1.26-2.06c0-0.48-1.35-0.5-1.66-0.56c-0.93-0.18-1.41-1.37-2.45-1.38c-0.42,0-0.47,0.27-0.43,0.62c0.05,0.59-0.08,1.06-0.22,1.63c-1.53-1.07-3.22-1.73-5-2.26c0.55-0.84,1.22-1.81,0.51-2.75c-0.88,0.76-1.35,1.88-1.94,2.86c-0.71,1.19-1.48,2.34-2.2,3.51c-1.45,2.37-3.2,4.59-4.38,7.11c1.27-0.84,2.01-2.65,2.81-3.9c0.47-0.74,0.99-1.45,1.42-2.22c0.36-0.64,0.73-1.35,1.36-1.76c0.79-0.52,2.28-0.19,3.12,0.11c0.85,0.3,2.35,0.92,2.8,1.78c0.49,0.93,0.07,2.29-0.12,3.25c-0.35,1.71-0.76,3.41-1.18,5.1c-0.84,3.48-1.78,6.94-2.84,10.35c-1.07,3.43-2.23,6.83-3.41,10.22c-0.59,1.7-1.21,3.39-1.86,5.06c-0.59,1.5-1.47,2.93-1.9,4.49c-0.92-0.3-1.7-0.91-2.5-1.43c-0.96-0.63-1.92-1.27-2.87-1.92c-0.89-0.61-1.86-1.27-1.87-2.47c-0.01-1.49,0-2.98,0-4.47c0-1.48,0.22-2.93,0.24-4.41c0.01-0.75,0.09-1.45,0.22-2.19c0.13-0.71,0.02-1.41,0.09-2.13c0.07-0.74,0.12-1.48,0.2-2.21c0.06-0.6,0.39-1.45,0.27-2.04c-0.49,0.42-0.87,0.99-1.16,1.56c-0.5,1-0.33,2.22-0.35,3.3c-0.03,1.48-0.21,2.93-0.27,4.4c-0.11,2.82-0.24,5.65-0.25,8.48c-1.7-0.22-1.39-3.53-1.33-4.67c0.13-2.86,0.35-5.73,0.36-8.58c-0.74,0.65-1.2,1.54-1.74,2.35c-0.71,1.05-1.41,2.1-2.11,3.16c-1.4,2.11-2.76,4.25-4.17,6.35c-2.85,4.27-5.64,8.58-8.38,12.92c-2.74,4.35-5.43,8.72-8.14,13.09c-1.32,2.13-2.65,4.25-4,6.36c-0.45,0.71-2.37,2.62-1.89,3.52c0.6,1.13,0.22,2.39,0.12,3.58c-0.03,0.31-0.19,2.88-0.62,2.87c-0.12,0-0.4,0.07-0.45-0.06c-0.4-0.99-1.34-1.86-1.47-2.94c-1.41,1.2-0.01,2.62,0.69,3.75c0.99,1.61,0.99,3.47,0.54,5.25c-0.8-0.9-1.26-1.99-1.77-3.06c-0.48-1.01-1.19-2.04-1.22-3.19c-0.65,0.55-1.23,1.45-1.5,2.25c0.74,0.11,2.5,1.57,1.67,2.36c-0.62,0.59-0.81,0.76-1.68,0.44c-0.5-0.18-1.02-0.55-1.5-0.8c-0.21,0.71-0.69,1.31-1.12,1.89c-0.46,0.63-0.84,1.32-1.24,1.99c-0.79,1.32-1.85,2.59-2.37,4.05c-0.24,0.69-0.28,0.81-0.04,1.49c0.59,1.65,2.04,2.86,3.25,4.06c0.64,0.64,1.18,1.36,1.79,2.03c0.66,0.73,1.49,1.35,1.95,2.24c-0.67-0.11-1.35-0.04-2-0.3c-0.72-0.29-1.48-0.38-2.25-0.46c0.92,1.3,1.94,2.22,3.22,3.14c0.27,0.19,0.95-0.11,1.22-0.18c0.53-0.15,1.27-0.44,1.81-0.21c0.61,0.27,0.64,1.23,0.82,1.78c0.29,0.87,0.66,1.72,1.17,2.49c-1.5,0-2.33-1.43-3.75-1.51c0.65,1,0.94,2.27,1.94,3.01c1.1,0.82,2.21,1.64,3.05,2.74c-0.84-0.46-1.5-1.29-2.44-1.58c-1.04-0.32-2.23-0.18-3.3-0.18c0.08,0.6,0.76,0.87,1.25,1.07c0.8,0.31,1.48,0.74,1.99,1.44c-0.87-0.21-1.73-0.32-2.5,0.25c0.26,0.29,0.63,0.4,0.94,0.63c0.48,0.35,0.92,0.74,1.36,1.13c0.69,0.59,1.58,0.93,2.44,0.51c-0.1,0.6-0.88,1.5-1.54,1.35c-0.62-0.13-2.01-0.56-2.21,0.39c0.68,0.14,1.31,0.71,1.87,1.09c1,0.68,2.09,0.16,3.09,0.62c1.13,0.52,1.96,1.28,3.28,1.3c-0.49,0.99-1,1.85-1,3c0,1.22,0.58,2.05,1.12,3.09c0.37,0.71-0.1,1.56-0.45,2.17c-0.46,0.82-0.8,1.59-0.98,2.53c-0.2,1.07-0.43,2.13-0.69,3.19c-0.24,0.95-0.69,1.94-0.78,2.92c-0.09,0.92-0.14,1.02,0.5,1.69c0.31,0.32,0.87,0.41,1.27,0.54c0.61,0.2,1.17,0.53,1.74,0.82c1.29,0.64,2.56,1.34,3.81,2.07c1.31,0.76,2.61,1.54,3.92,2.31c1.1,0.65,2.39,1.78,3.71,1.88c4.15,0.3,8.27-0.5,12.38-0.92c2.13-0.22,4.25-0.56,6.4-0.54c0.97,0.01,1.93,0.05,2.9,0.07c1.08,0.01,2.14,0.25,3.22,0.26c0.85,0.01,1.61-1.03,2.16-1.56c0.96-0.91,1.99-1.77,3-2.63C336.56,179.12,338.67,177.47,341.05,176.3M291.06,175.96c2.57,0.39,5.07,1.97,7.36,3.14c1.29,0.66,2.55,1.38,3.78,2.15c1.12,0.7,2.08,1.67,3.25,2.28c1.19,0.61,2.62-0.2,3.8-0.48c1.54-0.37,3.1-0.68,4.67-0.91c2.99-0.45,5.97-0.67,8.99-0.81c1.4-0.06,2.78,0.24,4.16,0.2c1.39-0.05,2.28-1.28,3.18-2.18c0.98-0.99,2.16-1.75,3.26-2.6c1.12-0.87,2.26-1.93,3.69-2.23c0.76-0.16,1.04,0.07,1.74,0.41c0.48,0.23,0.96,0.49,0.75,1.02c-0.33,0.82-1.86,1.45-2.54,1.94c-1.05,0.76-2.09,1.53-3.11,2.33c-1.03,0.8-2.03,1.65-2.96,2.57c-0.81,0.8-1.54,1.77-2.81,1.56c-3.71-0.61-7.63-0.36-11.35,0.04c-1.82,0.2-3.6,0.59-5.41,0.86c-0.97,0.15-1.96,0.24-2.93,0.41c-0.94,0.16-1.87,0.41-2.83,0.35c-1.28-0.07-2.22-0.76-3.25-1.45c-1.18-0.79-2.37-1.59-3.61-2.29c-2.48-1.42-5.11-2.61-7.64-3.95C290.43,177.85,290.71,176.66,291.06,175.96M306.29,182.24c-1.1-0.57-3.54-1.64-3.84-3.01c-0.16-0.7,0.26-1.64,0.43-2.32c0.23-0.89,0.51-1.77,0.96-2.58c0.42-0.75,1.72-0.39,2.37-0.25c1.28,0.28,2.6,0.42,3.91,0.51c3.15,0.19,6.32-0.06,9.44-0.51c2.42-0.35,4.8-1.02,7.06-1.97c1.18-0.5,2.33-1.08,3.44-1.72c0.93-0.55,1.93-1.51,3.01-1.7c1.32-0.24,2.75,2.34,2.97,3.42c0.11,0.55,0.2,0.91-0.32,1.29c-1.78,1.32-3.68,2.51-5.23,4.11c-1.09,1.13-2.45,2.75-4.21,2.45c-1.62-0.28-3.37-0.25-5-0.1c-1.71,0.16-3.43,0.22-5.14,0.37C312.76,180.49,309.67,182.12,306.29,182.24M301.05,178.73c0.06-1.65,0.76-3.44,1.26-5c0.75,0.83-0.2,2.95-0.45,3.88C301.69,178.22,301.78,178.82,301.05,178.73M299.8,177.98c0.01-1.52,0.6-3.06,1.01-4.5c0.53,0.58,0.08,1.6-0.07,2.25C300.55,176.49,300.53,177.52,299.8,177.98M298.55,176.98c0.05-1.32,0.4-2.83,1.01-4c0.43,0.56-0.02,1.42-0.19,2C299.18,175.63,299.14,176.53,298.55,176.98M297.05,176.47c0.02-0.43,0.14-0.84,0.25-1.25C297.63,175.6,297.45,176.21,297.05,176.47M295.81,175.72c0-0.25,0-0.5,0-0.75C296.01,175.19,296,175.49,295.81,175.72M294.31,175.22c0.01-1.16,0.35-2.79,1.01-3.75c0.35,0.55-0.02,1.32-0.17,1.87C294.97,173.98,294.86,174.78,294.31,175.22M297.56,174.72c0-0.75,0.17-1.58,0.5-2.25C298.56,172.99,298.05,174.34,297.56,174.72M293.06,174.22c0.05-1.11,0.24-2.26,0.76-3.25C294.21,171.6,293.67,173.79,293.06,174.22M296.31,173.97c0.04-0.7,0.08-1.32,0.25-2C297.01,172.44,296.72,173.55,296.31,173.97M306.61,143.24c-0.33,0.64-0.91,1.1-1.43,1.57c-0.66,0.59-1.21,1.29-1.83,1.92c0.9-0.53,1.65-1.27,2.46-1.93c0.88-0.72,1.89-1.28,2.88-1.83c1.99-1.1,4.02-1.48,6.26-1.47c2.01,0,4.32,0.35,5.65,2.09c1.42,1.86,3.07,3.53,4.55,5.33c1.39,1.7,2.14,3.8,2.91,5.83c0.79,2.08,0.86,4.48,1.88,6.45c0.99,1.9,2.08,3.84,2.18,6.04c0.01,0.27-0.61,1.05-0.81,1.25c-0.63,0.64-1.6,1.07-2.38,1.49c-1.02,0.55-2.07,1.04-3.15,1.46c-2.15,0.84-4.41,1.4-6.69,1.72c-2.1,0.3-4.2,0.28-6.31,0.38c-1.59,0.08-3.63,0.29-4.97-0.76c-2.89-2.26-2.58-5.97-3.17-9.23c-0.16-0.84-0.73-1.44-1.19-2.14c-0.52-0.79-0.89-1.78-1.01-2.72c-0.13-0.97,0.1-1.88-0.27-2.82c-0.27-0.68-1.24-1.7-1.22-2.43c0.03-0.92,0.22-1.88,0.06-2.79c-0.13-0.79-0.45-1.6-0.31-2.42c0.19-1.1,1.36-2.07,2.08-2.83C303.67,144.46,305.31,143.41,306.61,143.24M301.58,162.73c0.01,0.22-0.01,1.29-0.41,1.24c-0.92-0.11-0.92-0.09-1.28-0.95c-0.09-0.23,0.17-1.25,0.31-1.46c0.35-0.55,1.09-0.26,1.62-0.21c0.62,0.07,0.92-0.01,1.3,0.47c0.43,0.55,0.63,0.96,0.87,1.62c0.6,1.65,0.22,3.53,0.66,5.23c0.23,0.91,0.53,1.8,0.91,2.66c0.14,0.31,0.71,1.06,0.51,1.41c-0.37,0.64-2.42-0.21-2.79-0.48c-0.87-0.62-1.63-1.72-1.88-2.78c-0.26-1.15-0.29-2.85,0.08-3.98C301.76,164.64,302.72,163.38,301.58,162.73M300.81,171.73c-0.88-0.58-1.17-1.9-1.42-2.85c-0.28-1.06-0.32-2.07-0.32-3.16c0.75,0,1.25-0.24,1.25,0.58c0,0.75-0.07,1.55,0.04,2.29C300.49,169.46,301.42,170.91,300.81,171.73M299.31,171.23c-1.3-1.06-1.42-3.7-1.49-5.25c-0.5,0.97-0.25,2.45-0.26,3.5c-0.55-0.47-0.86-1.45-0.71-2.15c0.1-0.49,0.13-0.91,0.45-1.3c0.31-0.38,0.76-0.32,0.98,0.04c0.49,0.78,0.3,1.8,0.49,2.66C298.93,169.5,299.63,170.41,299.31,171.23M318.57,168.01c-1.4-0.29-2.94,0.97-4.28,1.24c-1.69,0.34-3.53,0.68-5.2,0.13c-0.92-0.3-1.61-1.07-2.52-1.39c0.31,0.96,1.54,1.76,2.44,2.06c2.18,0.75,4.69,0.21,6.87-0.3C316.62,169.58,318.4,168.86,318.57,168.01M295.07,169.22c-0.18-0.86-0.23-1.62-0.25-2.5c-0.51,0.79-0.33,1.7-0.75,2.5c-0.61-0.43-0.29-1.39-0.09-1.97c0.35-1.07,1.05-1.13,2.05-0.77c0.53,0.19,0.46,0.52,0.52,1.06c0.03,0.22,0.15,1.07,0.02,1.19c-0.44,0.4-0.54-0.36-0.57-0.58c-0.06-0.38-0.17-0.78-0.17-1.17C295.5,167.65,295.72,168.74,295.07,169.22M316.08,163.76c-0.54-0.27-1.16-0.29-1.75-0.4c-0.8-0.15-1.51-0.37-2.34-0.31c-0.67,0.05-1.33,0.13-1.97,0.35c-0.67,0.23-1.24,0.7-1.94,0.85c0.03-0.78,0.12-1.48,0.25-2.25c-0.93,0.2-1.59,2.75-1.12,3.45c0.32,0.48,0.97,0.66,1.46,0.89c0.71,0.34,1.36,0.76,2.1,1.05c1.33,0.52,2.67,0.68,3.93-0.05c0.51-0.29,0.78-0.85,0.87-1.42C315.68,165.18,315.95,164.49,316.08,163.76M331.32,165.03c-1.05,0.21-1.66,1.42-2.79,1.56c-0.61,0.08-2.81-0.16-2.97,0.68C327.15,167.51,331.25,167.34,331.32,165.03M309.32,165.74c0.88,0.25,1.79,0.61,2.7,0.67c1.08,0.07,1.78-0.23,2.8-0.41c-0.03,1.17-1.43,1.58-2.4,1.4C311.18,167.18,310,166.93,309.32,165.74M325.07,166.52c-0.31-0.91-0.97-1.77-1-2.75c0.58,0.84,1.63,1.76,2.73,1.41c1.17-0.37,2.53-0.93,2.52-2.4c-0.74,0.46-1.08,1.1-1.94,1.42c-0.64,0.23-1.91,0.71-2.06-0.42c0.51,0,1,0,1.5-0.08c0.88-0.13,2-1.29,2.33-2.09c0.21-0.52,0.05-0.95-0.58-0.83c0.48-0.83-0.5-1.62-1.25-1.75c0.32,0.51,0.65,1.01,1,1.5c-0.88,0.04-1.87,0.28-2.74,0.23c-0.53-0.03-0.68-0.14-0.95-0.59c-0.14-0.24,0.09-0.45-0.31-0.39c-0.14,0.02-0.4,0.39-0.5,0.5c-0.27-1.49-0.46-2.95-0.49-4.47c-0.03-1.5-0.69-2.87-2.31-2.99c-0.65-0.05-1.23,0.12-1.78,0.47c-0.73,0.46-1.59,0.35-2.29,0.79c-0.18,0.11-0.71,0.3-0.71,0.53c0,0.52,0,1.05,0,1.57c0,0.68,0.64,1.21,1.34,0.84c-0.23-0.28-0.59-0.46-0.75-0.8c-0.18-0.4-0.17-1.01-0.25-1.45c0.59,0.12,1.72,0.71,2.29,0.32c0.6-0.42,1.39-1.41,2.11-1.56c1.79-0.37,1.74,2.93,1.84,4c0.16,1.69-0.04,3.4,0.16,5.09C323.13,163.78,323.41,166.52,325.07,166.52M312.32,166c0.06-0.5,0.57-0.67,1-0.75C313.47,165.91,312.78,165.94,312.32,166M332.82,165.79c-0.35-0.65-0.5-1.38-0.84-2.04c-0.42-0.82-0.79-1.65-0.94-2.56c-0.2-1.22-0.96-3.68,0.55-4.41c0,0.9-0.04,1.89,0.14,2.77c0.16,0.79,0.53,1.55,0.77,2.32C332.83,162.93,333.62,164.77,332.82,165.79M295.08,160.47c0,0.83-0.18,1.73,0.09,2.54c0.25,0.76,0.81,1.63,0.65,2.47c-1.16-0.19-1.87-1.41-1.95-2.5C293.8,162.04,293.81,160.48,295.08,160.47M293.08,161.22c0.04,0.67-0.09,1.38,0.13,2.04c0.23,0.7,0.71,1.45,0.62,2.22c-1.06,0.04-1.63-0.86-1.8-1.82C291.88,162.84,292.09,161.44,293.08,161.22M311.07,165c0.12-0.84,0.64-1.24,1.42-1.29c0.78-0.05,1.56,0.04,1.58,1.04c-0.44-0.07-0.96-0.26-1.4-0.17C312.13,164.69,311.62,164.91,311.07,165M309.82,165c-0.25-0.48,0.07-0.82,0.5-1C310.32,164.38,310.15,164.78,309.82,165M298.33,160.73c0,0.5,0,1,0,1.5c0.28-0.39,0.56-0.77,1-1c0.04,0.6-0.11,1.2-0.16,1.8c-0.05,0.6,0.21,1.15,0.4,1.7C297.75,165.68,296.32,161.11,298.33,160.73M296.83,164.72c-0.76-1-1.66-4.15,0.26-4.5c-0.11,0.85-0.56,1.82-0.45,2.68C296.7,163.47,297.24,164.17,296.83,164.72M326.58,163.28c-0.05-0.52,0.29-0.7,0.75-0.75C327.43,163.08,327.13,163.38,326.58,163.28M314.33,162.75c-0.11-0.47-0.21-0.89-0.75-1C313.72,162.16,313.97,162.52,314.33,162.75M325.58,162.27c0.28-0.82,2.26-1.72,2.5-0.5c-0.36-0.02-0.97-0.18-1.3-0.04C326.37,161.9,325.98,162.08,325.58,162.27M291.08,158.96c-0.05-0.34,0.28-0.53,0.5-0.75c-0.36-0.08-0.71-0.37-0.75-0.75c0.33,0,0.67,0,1,0c-0.26-0.27-0.86-0.75-0.18-0.75c1.74,0,3.49,0.01,5.23,0.01c2.24,0,4.71,0.84,4.7,3.51c-1.67,0-2.84-1.64-4.52-1.68C295.04,158.5,293.13,159.45,291.08,158.96M285.59,157.2c0.78,0.04,1.45,0.5,2.25,0.25C287.53,158.37,285.94,157.85,285.59,157.2M329.59,157.53c-0.27-0.88-0.5-1.71-0.65-2.62c-0.12-0.71,0.47-1.75,0.79-2.37c0.75-1.44,2.6-2.37,4.12-2.75c-1.8-0.97-3.49,1.71-5,2.24c-0.01-1.64,1.25-2.29,2.48-3.05c0.4-0.25,1.52-0.25,2.02-0.2c0.59,0.07,1.55,0.21,1.95,0.67c0.52,0.6-0.18,1.43-0.7,1.75c-0.51,0.31-1.5,0.34-2.1,0.43c-1.27,0.19-2.56,1.44-2.91,2.65c0.51-0.31,0.88-0.73,1.37-1.05c0.7-0.45,1.75-0.41,2.55-0.46c1.03-0.06,1.85-0.56,2.84-0.73c0.06,0.67-0.25,1.49-0.8,1.89c-0.26,0.19-0.67,0.64-0.99,0.71c-1.24,0.26-2.67,0.44-3.6,1.39C330.49,156.52,330.35,157.67,329.59,157.53M289.84,152.96c0.66,0.22,1.32,0.64,2,0.75c-1.28-1-2.11-2.63-3.44-3.53c-0.95-0.65-2.44-0.63-3.05-1.73c1.62,0.35,3.21,0.42,4.38,1.76c0.66,0.76,1.13,1.29,1.94,1.92c0.85,0.66,2.17,0.73,3.2,0.79c1.31,0.08,2.65,0.02,3.92,0.42c1.61,0.51,2.54,2,2.54,3.63c-1.4-0.02-2.71-1.16-4.05-1.52c-1.64-0.44-3.43-0.31-5.12-0.63C291.36,154.68,289.95,153.87,289.84,152.96M290.34,154.96c0.74-0.15,1.81,0.51,2.5,0.75C292.12,156.39,290.75,155.65,290.34,154.96M285.34,153.7c0.5,0.08,0.99,0.26,1.5,0.25c0.51,0,1-0.18,1.5-0.25C287.72,154.88,285.7,155.34,285.34,153.7M286.84,152.96c-0.36-0.37-0.68-0.72-0.75-1.25C286.49,151.93,287.15,152.45,286.84,152.96M285.61,142.2c1.08,0.39,1.61,1.42,2.17,2.34c0.62,1.01,1.53,1.85,2.68,2.21c1.07,0.33,2.17,0.45,3.28,0.47c1.36,0.02,2.56,0.39,3.86,0.76c-0.46-0.39-0.93-0.74-1.25-1.25c1.33-0.11,2.66,1.02,3.19,2.13c0.25,0.52,0.6,1.19,0.53,1.78c-0.07,0.69-0.23,1.4-0.24,2.09c-0.78,0.01-1.37-0.3-1.86-0.88c-0.58-0.69-1.02-1.22-1.76-1.75c-0.95-0.68-2.04-1.05-3.17-1.29c-0.52-0.11-1.05-0.21-1.58-0.31c-0.7-0.14-1.43-0.01-2.13-0.18c-1.06-0.26-1.42-0.86-2.1-1.67c-0.46-0.55-0.61-1.31-0.81-1.98C286.2,143.83,285.74,143.06,285.61,142.2M321.35,150.27c0.31,0.18,0.65,0.2,1,0.25c-0.12-0.9-0.62-1.11-1.43-0.93c-2.12,0.48-4.38,1.41-6.57,1.41c0.05,0.33,0.18,0.66,0.3,0.98c0.18,0.49,0.11,0.47,0.6,0.42c0.32-0.03,0.72-0.22,1.05-0.29c0.49-0.11,1.01,0.11,1.5,0.1c0.63-0.02,1.22-0.25,1.82-0.42C320.47,151.55,321.32,151.33,321.35,150.27M291.6,150.46c0.44,0.11,3.85,0.69,3.25,1.5c-0.3,0.4-1.43,0.02-1.75-0.09C292.48,151.66,291.69,151.18,291.6,150.46M316.35,151.51c0.52-0.42,1.3-0.52,1.94-0.62c0.94-0.15,1.85-0.61,2.81-0.62c-0.33,1.03-1.15,0.98-2.04,1.16c-0.46,0.09-0.92,0.28-1.4,0.23C317.23,151.62,316.79,151.43,316.35,151.51M327.35,151.28c-1.53-2.3-3.73-5.27-3.22-8.21c0.12-0.68,1.03-1.67,1.74-1.79c-0.17,0.6-0.51,1.14-0.63,1.75c-0.15,0.74-0.12,1.5-0.12,2.25c0.27-0.54,0.51-1.08,0.8-1.62c0.26-0.48,0.41-1.15,0.85-1.5c1.17-0.93,2.44-0.67,3.85-0.62c-0.56,0.7-1.65,0.8-2.39,1.24c-0.73,0.44-1.58,0.88-1.86,1.75c1.4-0.65,2.63-1.45,4.12-1.92c1.13-0.35,2.66-1,2.89-2.32c-0.66,0.33-1.3,0.77-1.97,1.06c-0.59,0.25-1.16-0.43-1.78-0.57c0.48-0.47,1.33-0.62,1.91-0.98c0.99-0.6,0.82-1.09,0.57-2.11c-0.11-0.45-0.23-0.54-0.63-0.77c-0.45-0.26-0.54-0.1-1.02,0.12c-0.24,0.11-0.98,0.3-1.08,0.56c-0.15,0.39-0.24,0.75-0.24,1.18c-0.94-0.69-0.27-2.31,0.75-2.49c1.01-0.17,2.87-0.65,3.49,0.53c0.45,0.86,1.45,2.47,0.84,3.5c-0.66,1.11-1.43,2.04-2.33,2.96c1.22-0.18,2.45-0.85,3.7-0.69c0.69,0.09,1.38,0.17,1.95,0.6c0.53,0.4,0.85,1.1,1.6,1.1c-0.82,1.19-4.12-0.15-5.29-0.33c-1.8-0.28-3.97,0.06-4.97,1.81c1.71-0.81,3.32-1.63,5.29-1.13c2.03,0.52,3.88,0.64,5.96,0.64c-0.76,1.3-2.46,1.04-3.7,0.8c-1.42-0.28-3.48-0.89-4.84-0.24c-1.1,0.52-1.81,1.11-2.72,1.92c1.03-0.2,1.88-0.95,2.95-1.11c1.49-0.23,3.06,0.36,4.53,0.53c0.62,0.07,1.31,0.17,1.93,0.07c0.37-0.06,0.97-0.36,1.34-0.21c0.6,0.24-0.21,1.06-0.5,1.25c-1.82,1.16-4.48,0.08-6.43-0.16c-1.21-0.14-2.13,0.69-3.07,1.32C328.83,149.97,328.35,151.13,327.35,151.28M290.35,149.71c0.3-0.21,0.63-0.29,1-0.25C291.16,149.78,290.68,149.89,290.35,149.71M315.85,149.51c0.65-0.44,1.49-0.82,2.25-1c0.92-0.21,1.62,0.13,2.5,0.25c-0.49-1.01-1.86-0.87-2.75-0.68C317.41,148.18,315.11,148.66,315.85,149.51M327.1,148.28c0-0.53,0-1.02-0.25-1.5c-0.34,0.38-0.24,1.04-0.25,1.5C326.76,148.28,326.95,148.3,327.1,148.28M292.1,148.22c0.15-0.62-0.3-0.53-0.75-0.62c-1.44-0.29-2.26-1.24-3.5-1.89C287.76,148.09,290.38,148.21,292.1,148.22M318.61,144.76c-0.02,0.23,0.05,0.66-0.13,0.81c-0.41,0.34-0.82,0.69-1.23,1.03c-0.68,0.57-1.13,0.02-1.89,0.15c0.69,0.9,1.96,0.3,2.82,0.07c0.72-0.2,0.68-0.3,0.98-1.02C319.34,145.38,319.14,144.84,318.61,144.76M298.36,146.23c0.16-1.01,0.93-1.82,1.57-2.57c0.79-0.93,1.65-1.77,2.61-2.52c2.5-1.96,6.1-3,9.23-3.27c3.18-0.28,6.5,0.6,9.19,2.25c0.86,0.53,1.56,1.08,2.15,1.92c0.22,0.31,0.51,0.81,0.51,1.2c0,0.45-0.59,0.43-1,0.54c0.46,0.6,1.09,1.24,1.25,2c-0.95-0.13-1.65-1.19-2.26-1.83c-0.71-0.76-1.42-1.62-2.39-2.05c-1.96-0.88-4.25-1.13-6.39-1.01c-4.62,0.27-8.61,2.1-11.85,5.42C300.07,147.22,299.34,146.91,298.36,146.23M307.11,146.74c0-0.3,0.08-0.6-0.25-0.75C306.91,146.27,306.92,146.51,307.11,146.74M290.61,145.96c0.55-0.45,1.71-0.11,2.32-0.02c1.04,0.16,2.13,0.51,3.17,0.53c-0.57,0.54-1.68,0.09-2.34,0.01C292.69,146.35,291.61,146.5,290.61,145.96M308.11,145.99c0.18-0.31,0.2-0.65,0.25-1C307.93,145.13,307.82,145.66,308.11,145.99M300.61,144.73c-0.67,0-1.41,0.58-1.5,1.25C299.89,146,300.51,145.51,300.61,144.73M309.11,145.74c0.12-0.49,0.29-0.99,0.25-1.5C308.95,144.57,308.76,145.31,309.11,145.74M294.11,144.47c0.68-4.2,4.66-7.99,8.52-9.37c1.59-0.57,3.1-1.43,4.77-1.72c1.66-0.29,3.28-0.63,4.95-0.87c0.76-0.11,1.54,0.07,2.29,0.17c0.78,0.11,1.56,0.13,2.33,0.28c1.69,0.33,3.33,0.99,4.75,1.96c1.31,0.9,4.74,3.09,3.4,4.98c-0.64,0.9-1.75,0.04-2.36-0.44c-1.06-0.85-2.2-1.56-3.36-2.27c-0.68-0.42-1.55-0.5-2.33-0.61c-1.05-0.15-2.06-0.31-3.13-0.32c-1.1-0.01-2.23-0.13-3.32,0.01c-1.23,0.16-2.51,0.47-3.69,0.84c-2.13,0.67-4.14,1.77-5.9,3.14c-1.78,1.38-2.89,3.3-4.56,4.77C295.98,145.44,294.64,144.75,294.11,144.47M311.36,144.75c0.2-0.37,0.29-0.83,0.25-1.25C311.26,143.75,311.08,144.38,311.36,144.75M310.36,144.75c0-0.25,0-0.5,0-0.75c-0.29,0.17-0.38,0.46-0.5,0.75C310.02,144.75,310.2,144.77,310.36,144.75M289.11,143.96c0.53-0.39,1.45,0.08,2,0.25C290.62,144.69,289.58,144.3,289.11,143.96M341.36,144.3c-0.45-0.56,0.02-1.41-0.65-1.59c-0.21-0.06-0.45-0.02-0.67,0.01c-0.73,0.09-0.71,0.05-0.99-0.57c-0.16-0.35-0.13-1.08,0.23-1.32c0.63-0.42,0.71-0.37,1.46-0.21c0.43,0.09,0.83,0.29,0.9,0.8C341.75,142.22,342.22,143.72,341.36,144.3M312.86,144.25c0.1-0.37,0.33-0.86,0.25-1.25c-0.53,0.25-0.63,0.73-0.75,1.25C312.52,144.25,312.71,144.28,312.86,144.25M302.86,142.48c-0.67,0.09-1.15,0.58-1.25,1.25C302.29,143.72,302.86,143.16,302.86,142.48M279.13,135.19c1.91-0.63,3.31-2.31,4.59-3.77c0.73-0.83,1.39-1.76,2.22-2.49c0.58-0.51,1.62-1.05,1.45-1.97c0.44,0.12,0.89,0.48,1.25,0.75c0.12-0.78-0.13-1.57-0.06-2.35c0.08-0.8,0.06-1.6,0.06-2.4c0.7,0.44,0.27,1.42,0.75,2c0.16-1,0.04-2.01,0.02-3.02c-0.02-1.22,0.24-2.42,0.24-3.63c0-1.17,0-2.34,0.01-3.51c0.01-1.2,0.25-2.39,0.26-3.59c0.71,0.87,0.18,2.85,0.05,3.83c-0.25,1.87,0.19,3.79,0.19,5.67c0.71-0.9,0.56-2.21,0.52-3.28c-0.06-1.58,0.24-3.14,0.24-4.72c0.53,0.58,0.31,1.63,0.29,2.34c-0.04,1.21,0.22,2.48,0.45,3.66c0.34-0.64,0.25-1.39,0.25-2.08c0-1.03-0.01-2.07,0.03-3.1c0.06-1.79,0.35-3.57,0.74-5.32c0.62,0.68,0.16,1.96,0.05,2.75c-0.18,1.29-0.03,2.73,0.19,4c0.46-0.62,0.48-1.41,0.52-2.14c0.05-0.86,0.2-1.71,0.24-2.57c0.09-1.76,0.51-3.52,0.51-5.28c0.63,0.69,0.35,2.09,0.28,2.92c-0.13,1.52-0.04,3.06-0.05,4.58c0.81-1.02,0.48-2.47,0.51-3.67c0.04-1.54,0.5-3.03,0.5-4.58c0.33,0.4,0.29,0.98,0.36,1.46c0.1,0.69,0.21,1.37,0.38,2.04c0.41-0.78,0.29-1.7,0.41-2.54c0.14-0.98,0.1-1.97,0.1-2.96c0.34,0.4,0.35,2.25,0.75,2.25c0.51,0,0.62-4.6,0.76-5.25c0.35,0.42,0.3,1.05,0.32,1.56c0.04,0.82,0.2,1.62,0.17,2.44c0.43-0.81,0.28-1.78,0.36-2.66c0.1-1.12,0.4-2.21,0.4-3.34c0.74,0.7,0.5,2.35,0.49,3.25c0.42-0.78,0.5-1.77,0.58-2.64c0.05-0.55,0.03-1.63,0.68-1.86c0,0.67,0,1.33,0,2c0.51-0.65,0.52-1.48,0.75-2.25c0.27,0.27,0.39,0.64,0.5,1c0.39-0.74,0.53-1.92,0.5-2.75c0.29,0.36,0.37,0.81,0.5,1.25c0.16-0.26,0.29-0.53,0.5-0.75c0.61,1.2,0.25,2.95,0.24,4.25c0,1.68-0.01,3.36-0.01,5.04c-0.01,3.42-0.11,6.83-0.18,10.25c-0.03,1.68-0.2,3.35-0.3,5.03c-0.09,1.55-0.04,3.19-0.31,4.71c-0.58,3.35-1.03,6.55-2.37,9.71c-0.42,0.99-1,1.91-1.86,2.57c-0.97,0.74-1.94,1.39-2.75,2.31c-0.83,0.94-1.52,1.84-2.06,2.97c-0.23,0.48-0.74,2.11-1.23,2.38c-0.36,0.2-1.04-0.15-1.37-0.28c-0.69-0.27-1.37-0.54-2.07-0.79c-1.58-0.54-3.16-1.03-4.68-1.71c-0.73-0.33-1.51-0.63-2.19-1.06c-0.61-0.38-1.08-0.94-1.59-1.44C280.36,137.6,279.15,136.49,279.13,135.19M281.11,142.45c1.18,0.37,2.3-0.29,3.5-0.24C284.24,143.08,280.95,143.84,281.11,142.45M321.61,142.52c-0.01-0.51-0.67-1.58-1.18-1.07C320.05,141.83,321.34,142.48,321.61,142.52M334.87,141.54c0.17-0.98,0.73-1.89,0.35-2.91c-0.46-1.21-0.92-2.04-1.89-2.9c-1.65-1.46-4.39-1.09-5.44,0.92c-0.33,0.64-0.46,0.83-0.37,1.52c0.07,0.52,0.17,1.28-0.62,0.85c-0.29-0.16-0.4-0.51-0.52-0.8c-0.2-0.45-0.6-0.78-0.95-1.12c-0.79-0.79-1.61-1.56-2.44-2.32c-1.48-1.35-2.55-2.87-3.5-4.64c-1.97-3.68-2.9-8.1-3.62-12.19c-0.79-4.5-1.65-8.96-2.13-13.5c-0.46-4.42-0.79-8.94-0.79-13.39c0-0.36,0.01-0.34,0.4-0.31c1.24,0.07,2.49,1.29,3.46,1.95c1.59,1.08,3.28,2.05,4.68,3.38c0.63,0.6,0.82,1.52,1.01,2.33c0.26,1.12,0.57,2.23,0.93,3.32c0.78,2.38,1.6,4.75,2.46,7.1c0.8,2.19,1.9,4.28,2.84,6.41c1,2.28,2.1,4.52,3.35,6.68c2.25,3.9,4.88,7.93,8.41,10.78c1.79,1.44,4.04,1.94,6.11,2.83c2.17,0.93,4.25,2.1,6.53,2.77c-0.48,0.49-1.28,0.6-1.91,0.77c-0.89,0.24-1.67,0.74-2.52,1.08c-0.9,0.36-1.84,0.57-2.74,0.94c-0.92,0.37-1.94,0.92-2.94,0.47c-0.75-0.34-1.14-1.38-1.89-1.8c-1.03-0.57-1.68-0.29-2.57,0.32c-0.63,0.43-0.35,2.04-1.17,1.91C336.52,141.88,335.73,141.54,334.87,141.54M306.12,140.49c-0.58,0.16-1.19,0.45-1.5,1C305.29,141.87,306.6,141.42,306.12,140.49M318.87,140.51c0-0.6-0.51-0.82-1-1C317.85,140.04,318.34,140.53,318.87,140.51M309.87,139.5c-0.58,0.05-1.63-0.04-1.75,0.75C308.78,140.2,309.54,140.19,309.87,139.5M316.12,139.01c-0.5,0-1,0-1.5,0C314.78,139.81,315.97,139.84,316.12,139.01M312.87,139.5c-0.36-0.57-1.22-0.54-1.75-0.25C311.54,139.79,312.3,139.8,312.87,139.5M331.12,139.41c-0.69,0.14-0.87-0.09-1.12-0.69c-0.13-0.31,0.22-1.13,0.54-1.26c0.67-0.28,0.81,0.33,1.1,0.82C331.85,138.66,331.5,139.21,331.12,139.41M361.91,116.09c-0.7-0.14-1.36,0.65-1.77,1.1c-0.7,0.76-1.49,1.45-2.22,2.18c-1.58,1.57-3.23,3.13-4.62,4.87c-1.4,1.76-2.94,3.39-4.2,5.26c-0.62,0.93-1.24,1.86-1.86,2.8c-0.42,0.65-1,1.5-1.87,1.52c0.34-1.99,1.76-3.64,2.91-5.22c1.33-1.83,2.73-3.55,4.22-5.25c1.56-1.78,3.19-3.48,4.79-5.21c1.5-1.63,2.86-3.39,4.6-4.77c0.66-0.53,1.6-1.38,2.53-1.26C364.42,113.74,361.95,114.41,361.91,116.09c0.79-0.78,1.55-1.59,2.38-2.33c0.98-0.86,1.72-0.83,2.93-0.53c1.1,0.27,2.16,0.59,3.24,0.93c0.96,0.3,2,0.44,2.86,0.98c0.53,0.33,0.19,0.6-0.1,1.03c-0.67,0.99-1.68,1.79-2.45,2.71c-0.85,1.02-1.66,2.05-2.39,3.17c-1.48,2.26-2.94,4.47-4.67,6.56c-0.81,0.97-1.6,2.06-2.61,2.82c-0.94,0.71-1.98,1.32-2.96,1.98c-1.12,0.75-2.33,1.31-3.55,1.88c-1.24,0.58-2.75,1.61-4.16,0.96c-1-0.46-2.01-0.92-2.9-1.58c-1.01-0.75,0.23-2.11,0.79-2.78c1.09-1.3,2-2.75,3.01-4.11c1.11-1.49,2.3-2.93,3.52-4.34c1.19-1.39,2.5-2.68,3.75-4.01c0.56-0.6,1.13-1.19,1.71-1.78C360.85,117.14,361.24,116.45,361.91,116.09M276.63,132.44c0.79,0.37,1.59,0.97,2,1.75C277.7,134.17,276.74,133.38,276.63,132.44M302.13,133.98c0.04-1.47,0.89-2.99,1.22-4.42c0.41-1.78,0.73-3.57,0.91-5.39c0.17-1.78,0.3-3.55,0.45-5.33c0.15-1.77,0.1-3.58,0.3-5.34c0.42-3.61,0.1-7.3,0.17-10.93c0.04-1.86,0.17-3.72,0.09-5.59c-0.08-1.83-0.32-3.63-0.32-5.47c0-0.36,0.06-0.27,0.42-0.27c0.15,0,0.41,3.54,0.41,3.88c0.01,1.67-0.26,3.36-0.01,5.02c0.24,1.66-0.16,3.33-0.04,5c0.14,1.89,0.18,3.77,0.18,5.66c0,3.61-0.32,7.21-0.26,10.81c0.03,1.7,0.13,3.4-0.05,5.09c-0.09,0.84-0.21,1.68-0.22,2.53c-0.01,0.67,0.22,1.46-0.05,2.11c-0.31,0.74-0.47,1.49-1.22,1.89C303.48,133.57,302.86,133.88,302.13,133.98M279.63,133.69c-0.45-0.71-3.23-5.26-1.32-5.25c0.4,0,1.38,2.39,1.57,2.72C280.31,131.94,281.21,133.49,279.63,133.69M340.88,131.55c0.76-0.21,1.4-0.76,2.13-1.05c0.45-0.18,0.6-0.31,0.79,0.2c0.21,0.56,0.12,1.68-0.16,2.2c-0.29,0.54-0.49,0.34-1,0.15C341.98,132.8,340.99,132.33,340.88,131.55M311.45,90.5c0.95,0.6,0.46,2.38,0.5,3.3c0.1,2,0.48,4,0.48,6.01c0,1.93,0.33,3.79,0.56,5.69c0.24,2,0.44,4.01,0.87,5.98c0.82,3.75,1.2,7.51,2.26,11.21c0.53,1.85,0.96,3.75,1.66,5.55c0.34,0.86,0.76,1.69,1.16,2.52c0.28,0.58,0.83,1.31,0.69,2c-0.83-0.11-2.3-0.54-2.78-1.26c-0.86-1.3-1.03-3.1-1.36-4.59c-0.39-1.72-0.76-3.44-1.09-5.17c-0.65-3.37-1.06-6.78-1.65-10.16c-0.6-3.43-0.41-6.96-0.84-10.41C311.46,97.63,311.45,94.05,311.45,90.5M308.13,132.16c-0.9-0.01-1.88-1.28-1.72-2.2c0.17-1.03,0.3-2.28,1.28-2.91c1.03-0.66,1.95-0.86,3.16-1.04c1.07-0.16,2.17,0.64,3.01,1.15c1.78,1.07,1.63,5.13-0.97,4.58c-0.59-0.13-0.78-0.53-1.1-0.98c-0.22-0.31-0.8-1.08-1.21-0.56c-0.2,0.26-0.41,0.52-0.61,0.78c-0.15,0.2-0.13,0.48-0.31,0.66C309.34,131.96,308.58,132.1,308.13,132.16M281.38,132.2c-0.4-1.22-0.57-2.5-0.4-3.78c0.08-0.6,0.21-1.19,0.31-1.78c0.03-0.2-0.06-0.8,0.1-0.94c0.37-0.32,1.72,0.29,2.06,0.42c0.34,0.13,1.91,0.67,1.8,1.19c-0.16,0.75-0.28,1.25-0.75,1.85C283.72,130.17,282.64,131.8,281.38,132.2M344.88,131.31c0-0.83,0.1-1.53-0.51-2.15c-0.39-0.4-1.51,0.47-1.95,0.57c-0.93,0.22-0.3-1.48-0.12-1.88c0.25-0.55,1.48-1.09,1.96-1.43c0.64-0.45,1.39-1.1,2.22-1.11c0.54-0.01,0.38,0.14,0.33,0.56c-0.06,0.48-0.08,0.91-0.06,1.39C346.83,128.7,346.47,130.79,344.88,131.31M339.38,130.55c0.01-1.97,1.3-4.17,2.15-5.89c1-2.02,2.29-3.88,3.32-5.89c2-3.9,4.44-7.6,7.31-10.92c0.23-0.27,0.57-0.62,0.93-0.68c0.9-0.13,0.85-0.03,0.85,0.85c0,0.72-0.87,1.42-1.31,1.89c-0.72,0.77-1.29,1.7-1.91,2.55c-1.54,2.12-2.97,4.31-4.36,6.53c-1.36,2.18-2.76,4.36-4.04,6.59c-0.58,1.01-1.08,2.07-1.59,3.12C340.49,129.22,340.18,130.7,339.38,130.55M326.44,98.52c0.13-0.04,0.97-0.33,1.02-0.19c0.19,0.52,0.47,1.94,1.14,1.94c0.2,0,0.12-0.81,0.08-1c1.12,0.65,1.39,2.86,1.74,4c0.5-0.93,0.17-2.03,0-3c1.48,1.06,0.93,3.38,2.24,4.5c0-1.4-0.57-2.64-0.74-4c1.79,1.42,0.96,4.78,2.99,6c-0.51-1-0.75-2.64-0.74-3.75c0.55,0.39,0.77,1.18,0.99,1.79c0.33,0.91,0.73,1.79,1,2.72c0.55-1-0.23-2.21-0.24-3.25c0.6,0.45,0.84,1.26,1.06,1.94c0.3,0.94,0.63,1.87,0.93,2.81c0.38-0.76-0.05-1.99-0.24-2.75c0.54,0.31,0.75,0.98,0.96,1.52c0.28,0.74,0.66,1.45,0.79,2.23c0.34-0.62,0.11-1.35,0-2c0.42,0.24,0.62,0.71,0.82,1.12c0.24,0.5,0.59,0.93,0.9,1.38c1,1.43-0.41,3.5-1.5,4.47c-1.23,1.1-2.96,2.25-3.24,4.02c1.03-0.59,1.81-1.59,2.66-2.39c0.2-0.18,1.3-0.87,1.6-0.6c0.36,0.33,0.19,1.44,0.28,1.91c0.09,0.49,0.25,1,0.21,1.5c-0.01,0.16-0.14,0.72,0,0.85c0.11,0.09,0.5,0.07,0.5-0.11c0-1.38,0.01-2.76,0.01-4.14c0.52,0.52,0.63,1.56,0.75,2.25c0.53-1,0.5-2.41,0.51-3.5c0.7,0.75,0.4,2.03,1.25,2.75c-0.27-1.59-0.24-3.14-0.24-4.75c0.54,0.35,0.61,1.2,0.7,1.78c0.04,0.28-0.04,0.63,0.04,0.9c0.04,0.13,0.51,0.08,0.51,0.06c0-1.41,0-2.83,0.01-4.24c0.59,0.64,0.6,1.96,0.61,2.78c0.02,1.23-0.59,2.13-1.1,3.22c-0.62,1.32-1.34,2.59-2.08,3.85c-0.73,1.26-1.48,2.5-2.07,3.84c-0.58,1.32-1.09,2.67-1.73,3.96c-0.27,0.54-0.7,0.11-1.05-0.25c-1.09-1.11-2.12-2.63-2.95-3.95c-0.95-1.53-1.86-3.08-2.72-4.67c-1.68-3.08-3.19-6.26-4.52-9.5c-1.33-3.24-2.48-6.55-3.43-9.91c-0.16-0.57-1.43-4.42-0.51-4.42c0.98,0,1.23,0.23,1.99,0.85C326.01,97.45,326.28,98.02,326.44,98.52M279.39,126.69c0.02-0.66,0.57-1.59,1.25-1.75C280.43,125.62,280.22,126.56,279.39,126.69M306.64,126.49c0.55-3.32,7.13-3.75,7.75-0.24c-1.29-0.17-2.38-1.06-3.75-1.01C309.21,125.3,308.01,126.27,306.64,126.49M347.89,126.31c0-0.97-0.01-1.8-0.25-2.75c-0.79,0.5-1.59,0.9-2.54,0.9c-0.67,0-0.37-0.5-0.26-0.93c0.13-0.48,0.24-1.07,0.55-1.47c1.06-1.38,3.57-2.51,5.25-2.74c0,1.36-0.11,2.79-0.38,4.13C350.02,124.72,349.39,126.27,347.89,126.31M338.9,124.3c0.24-0.97,0.28-1.97,0.44-2.96c0.14-0.89,0.5-1.91-0.01-2.75c-0.48-0.8-1.79,1.48-1.93,1.71c-0.44,0.74-1.07,1.86-0.75,2.74c0.67-0.45,1.05-1.09,1.5-1.75c0.17,0.67,0.29,1.37,0.24,2.06C338.35,123.81,338.25,124.38,338.9,124.3M308.4,123.35c-0.25-0.1-1-0.23-1.12-0.47c-0.41-0.8-0.6-1.4-0.43-2.3c0.12-0.65,0.02-1.49,0.31-2.09c0.49-1.05,1.55-1.25,2.55-1.28c1.13-0.03,1.81,0.4,2.74,0.97c0.52,0.32,0.87,1.94,0.86,2.57c-0.02,0.8-0.28,2.09-1.27,2.15c-1.05,0.05-0.92-1.71-2-1.66C309.14,121.28,309.21,123.08,308.4,123.35M351.91,117.82c-1.05,0.14-1.89,0.77-3,0.75c0-0.69,0.04-1.51,0.51-2.03c0.72-0.77,1.85-1.1,2.78-1.54c1.02-0.48,2.08-1.01,3.21-1.17c0,1.93-0.21,4.22-1.21,5.93c-0.25,0.43-0.86,0.79-1.23,1.12c-0.18,0.16-1.13-0.07-1.27-0.27C351.13,119.73,352.09,118.71,351.91,117.82M306.91,116.99c0.17-1.11,1.38-2.29,2.55-2.28c1.22,0.01,2.75,0.66,2.96,2.04c-0.93-0.25-1.81-0.51-2.78-0.51C308.64,116.25,307.86,116.84,306.91,116.99M356.92,112.58c-0.99-0.28-2.17,0.55-3.11,0.83c-0.39,0.12-0.93,0.23-1.27-0.09c-0.52-0.49-0.21-1.05,0.01-1.56c0.39-0.94,1.5-1.41,2.41-1.75c1.22-0.44,2.04-0.69,3.28-0.24c0.81,0.29,1.97,0.71,2.04,1.68c0.07,0.95-0.26,2.32-0.8,3.12c-0.29,0.43-0.7,0.84-1.14,1.12c-0.6,0.38-0.92,0.14-1.52-0.13C355.98,115.18,356.79,113.18,356.92,112.58M366.92,112.1c0.22-1.17,1.49-1.93,2.32-2.66c1.17-1.03,2.2-2.21,3.2-3.39c1.98-2.34,3.9-4.75,5.38-7.44c2.81-5.09,5.22-10.66,6.38-16.38c0.35-1.75,0.86-3.45,0.88-5.24c0.02-1.62,0.02-3.24,0.02-4.86c0.01-4.88,0-9.76,0.03-14.64c0.02-2.17-0.43-4.29-0.79-6.42c-0.32-1.93-0.96-4.05-0.94-6.01c0.02-2.17,2.02,3.2,2.02,3.2c0.4,0.93,0.29,2.26,0.34,3.25c0.32,7.11,0.15,14.25,0.03,21.37c-0.04,2.3-0.01,4.58,0.04,6.88c0.05,2.3-0.13,4.59-0.13,6.89c0,2.39-0.01,4.78-0.01,7.17c0,2.24,0.12,4.49-0.06,6.72c-0.24,2.99-1.55,5.78-3.06,8.32c-0.75,1.27-1.57,2.5-2.39,3.73c-0.53,0.79-0.98,2.14-2.05,2.34c-1.93,0.36-3.96-0.45-5.76-1.07C370.61,113.23,368.78,112.38,366.92,112.1M307.7,113.93c-1.03-0.94-1.23-3.09-0.41-4.26c0.43-0.61,1.38-0.82,2.06-0.92c0.94-0.13,1.26,0.54,1.68,1.2c0.5,0.8,0.89,1.27,0.89,2.22c0,0.47-0.45,1.75-1.1,1.6c-0.61-0.14-0.81-1.5-1.6-1.28c-0.3,0.08-0.55,0.77-0.67,0.99C308.33,113.86,308.1,113.85,307.7,113.93M346.41,114.06c-0.38-0.72-0.25-1.6-0.25-2.38c0-1.12,0-2.25,0.01-3.37c0.62,0.68,0.42,1.94,0.58,2.78C346.95,112.06,347.32,113.32,346.41,114.06M291.17,112.46c0-0.67,0-1.33,0-2C291.58,110.92,291.53,112,291.17,112.46M347.42,112.31c0-1.08,0-2.17,0.01-3.25C348.03,109.7,348.23,111.76,347.42,112.31M364.67,111.34c-0.08-0.93,1.69-1.73,2.32-2.2c1.18-0.89,2.19-2.14,3.15-3.26c1.94-2.25,3.6-4.76,5.14-7.29c3.17-5.21,5.38-10.82,6.88-16.71c0.77-3,0.98-6.07,1.23-9.15c0.25-3.05,0.1-6.09,0.1-9.14c0-3.08-0.25-6.16-0.4-9.24c-0.08-1.53-0.03-3.05-0.34-4.55c-0.33-1.58-0.68-3.14-0.98-4.73c-0.28-1.49-0.6-2.98-0.99-4.44c0.92,0.45,1.1,1.66,1.36,2.54c0.46,1.56,0.84,3.15,1.14,4.75c0.59,3.15,0.95,6.31,1.11,9.51c0.08,1.56,0.32,3.1,0.37,4.66c0.05,1.7-0.02,3.39-0.02,5.09c-0.01,3.25-0.01,6.5-0.29,9.74c-0.27,3.21-1.07,6.18-1.97,9.26c-0.85,2.93-1.92,5.83-3.26,8.57c-1.28,2.61-2.79,5.2-4.55,7.52c-0.87,1.15-1.82,2.23-2.67,3.4c-0.79,1.08-1.84,1.94-2.74,2.93C368.18,109.77,366.52,111.81,364.67,111.34M363.43,107.59c0,0.55,0.01,0.98-0.16,1.49c-0.13,0.4-0.46,1.16-0.9,1.31c-0.76,0.26-2.6-0.61-3.18-1.06c-0.19-0.15-0.85-0.97-0.48-1.15c0.72-0.35,1.41-0.34,2.18-0.41C361.74,107.7,362.58,107.59,363.43,107.59M348.42,110.56c0-1.17,0-2.33,0.01-3.5c0.32,0.4,0.24,0.94,0.29,1.41c0.08,0.7,0.14,1.4,0.2,2.09C348.76,110.56,348.58,110.58,348.42,110.56M342.17,109.55c-0.91-1.44-1.92-2.81-2.91-4.19c-0.94-1.31-2.03-2.53-2.93-3.86c-0.58-0.86-0.48-1.71-0.41-2.69c0.1-1.28,0.32-2.52,0.57-3.78c0.14-0.71,0.74-1.3,1.23-1.8c0.68-0.69,1.34-1.39,1.95-2.16c1.29-1.64,2.39-3.42,3.6-5.12c0.47-0.67,0.69-0.44,0.9,0.28c0.43,1.52,1.14,3.06,2.23,4.21c1.14,1.2,1.81,2.88,2.73,4.27c0.49,0.75,0.4,2.04,0.29,2.93c-0.28,2.39-2.31,4.47-3.62,6.38c-0.69,1-1.37,2-1.91,3.08C343.44,107.96,343.01,109.01,342.17,109.55M349.42,109.31c0-1.17,0-2.33,0.01-3.5c0.29,0.31,0.27,0.78,0.27,1.18c0.01,0.55,0.22,1.06,0.22,1.61C349.92,109.12,350.06,109.42,349.42,109.31M364.93,106.34c-0.77,0.13-1.47,0.22-2.25,0.25c0.2-1.07,1.47-1.78,2.38-2.18c1.03-0.46,2.26-1.16,3.38-1.31c0,1.45,0.21,3.65-0.98,4.77c-0.86,0.8-1.24,1.08-2.37,0.68C364.39,108.3,364.83,106.86,364.93,106.34M311.17,108.5c-0.67-0.2-1.25-0.42-1.96-0.53c-0.65-0.11-1.39,0.25-2.04,0.27c0.03-1.11,1.31-1.49,2.25-1.5C310.15,106.74,311.72,107.61,311.17,108.5M350.43,107.82c0.11-0.73,0.01-1.52,0-2.25c0.56,0.53,0.44,1.56,0.5,2.25C350.76,107.82,350.59,107.83,350.43,107.82M350.45,96.57c0.84,0.17,1.46,0.95,2.02,1.53c0.74,0.75,1.41,1.56,2.11,2.35c1.17,1.31,2.77,2.29,3.6,3.88c-0.77,0.14-2.49,0.53-3.02-0.25c-0.6-0.88-1.51-1.94-1.72-3.01c-0.35,0.67,0,2.25,0.52,2.77c0.26,0.26,0.71,0.93,1.07,0.98c2.3,0.31,4.63,0.66,6.83-0.29c1.04-0.45,1.98-1.81,2.67-2.67c0.91-1.13,1.71-2.34,2.42-3.6c1.4-2.47,2.46-5.1,3.39-7.78c1.03-2.98,1.89-6.01,2.64-9.07c0.35-1.41,0.62-2.83,1.15-4.19c0.6-1.52,0.75-2.95,0.94-4.56c0.18-1.51,0.54-3,0.76-4.51c0.23-1.58,0.25-3.18,0.48-4.76c0.21-1.44,0.19-2.87,0.19-4.32c0-1.59,0.04-3.13-0.26-4.7c-0.58-3.09-0.97-6.18-1.76-9.24c-0.8-3.11-1.78-6.16-2.9-9.17c-0.75-2.02-1.47-4.06-2.35-6.03c-0.77-1.72-2.15-3.46-2.43-5.35c1.16,0.38,1.67,1.6,2.22,2.58c0.79,1.42,1.55,2.84,2.25,4.3c1.37,2.87,2.39,5.85,3.26,8.91c0.85,2.99,1.84,5.93,2.46,8.97c0.59,2.92,1.01,5.94,1,8.93c-0.01,6.23-0.94,12.46-2.47,18.5c-1.53,6.06-3.23,12.1-5.63,17.88c-0.78,1.87-1.71,3.61-2.79,5.32c-1.04,1.64-2.07,3.33-3.44,4.73c-1.4,1.42-3.89,2.04-5.83,2.09c-1.24,0.03-2.38,0.04-3.51-0.51c-1.3-0.64-2.12-2.87-2.66-4.12C350.9,100.36,350.53,98.53,350.45,96.57M309.68,104.25c-0.97,0-2.22,2.74-2.84,0.86c-0.2-0.6-0.01-1.46,0.01-2.09c0.02-0.8,0.71-1.18,1.34-1.37c0.72-0.22,1.33,0.05,2.06,0.23c0.66,0.16,0.69,1.34,0.81,1.85c0.19,0.78,0.09,1.37-0.64,1.75C309.76,105.81,309.68,104.64,309.68,104.25M294.43,104.72c0-0.25,0-0.5,0-0.75C294.64,104.19,294.62,104.49,294.43,104.72M355.45,95.58c-0.66-0.48-2.01-0.66-1.94,0.5c0.05,0.87,0.65,1.94,0.93,2.75c-0.99-0.28-3.21-2.45-2.61-3.5c0.35-0.62,1-1.03,1.5-1.52c0.65-0.63,1.27-1.31,1.88-1.97c1.3-1.39,2.41-2.94,3.49-4.5c0.54-0.78,0.92-1.48,2-1.3c0.62,0.1,1.86,0.54,2.25,1.06c-1.21,0.58-2.72,0.57-4,0.99c0.58,1.33,1.81,2.35,2.24,3.75c-1.41-0.05-2.98-0.53-4.32-0.15c-0.69,0.2,1.17,3.38,1.31,3.89C357.28,95.8,356.36,95.43,355.45,95.58c0.57,0.31,3.22,1.2,3.54,0.55c0.66-1.35-1.04-2.46-1.03-3.8c1.09,0,2.06,0.13,3.13,0.32c1.58,0.27,1.13-1.24,0.63-2.06c-0.29-0.47-0.59-0.92-0.81-1.42c-0.28-0.63-0.03-0.72,0.59-0.9c0.91-0.27,2.07-0.49,3.02-0.42c1.16,0.1,2.15,0.49,3.21,0.99c1.04,0.49,1.64,1.1,1.49,2.31c-0.24,2-1.18,3.83-2.12,5.58c-0.95,1.79-1.97,3.53-3.17,5.17c-1.14,1.55-2.29,2.7-4.32,2.08c-0.76-0.23-1.52-1.14-2.14-1.63c-1.45-1.16-1.66-3.13-2.31-4.77C354.86,96.9,354.46,95.87,355.45,95.58M335.68,104.04c0.08-0.08,0.17-0.17,0.25-0.25C335.85,103.87,335.76,103.96,335.68,104.04M369.44,101.35c-0.54,0.3-1.41,0.96-2,0.38c-0.54-0.54,0.27-1.67,0.62-2.09c0.55-0.66,1.18-1.47,1.93-1.91c0.64-0.38,1.66-1.11,2.41-1.11c0.77,0,0.14,4.56-0.03,5.21c-0.19,0.72-1.01,1.66-1.79,1.58c-0.63-0.06-0.63-0.11-0.8-0.71C369.66,102.25,369.56,101.8,369.44,101.35M333.93,102.79c0.08-0.08,0.17-0.17,0.25-0.25C334.1,102.62,334.02,102.7,333.93,102.79M306.94,100.74c0.33-2.16,3.71-1.74,4,0.26c-0.72-0.03-1.42-0.27-2.12-0.43C308.19,100.43,307.56,100.72,306.94,100.74M307.19,98.49c-0.64-0.9-0.7-2.49-0.13-3.42c0.22-0.36,0.89-1.13,1.41-0.87c0.48,0.23,1.45,0.48,1.72,0.95c0.38,0.66,0.51,1.18,0.46,1.94c-0.04,0.54-0.06,1.52-0.77,0.98c-0.47-0.36-0.86-1.25-1.49-0.75C307.92,97.69,307.9,98.38,307.19,98.49M373.7,94.61c-0.54,0.32-1.67,1.18-2.29,0.8c-0.78-0.47-0.32-1.97,0.04-2.55c0.56-0.9,1.5-1.5,2.24-2.23c0.57-0.57,1.46-1.13,2.26-1.26c0.25,0.91,0.46,1.83,0.64,2.75c0.2,1.02-0.04,2.04-0.22,3.04c-0.08,0.44-0.34,0.83-0.53,1.23c-0.15,0.31-1.04,0.32-1.36,0.39C373.62,96.96,373.77,95.18,373.7,94.61M322.2,95.52c-2.17-1.51-4.26-3.12-6.49-4.54c-1.11-0.71-2.24-1.37-3.43-1.93c-0.99-0.47-2.09-1.24-3.24-1.15c-1.32,0.1-2.83,1.39-3.88,2.11c-1.15,0.78-2.49,2.17-3.95,2.23c0.69-1.2,2.11-1.91,3.22-2.65c1.43-0.97,2.89-1.68,4.51-2.28c1.17-0.43,2.99,0.75,3.98,1.27c1.75,0.91,3.46,1.91,5.12,2.98C318.74,91.99,322.83,94.47,322.2,95.52M358.71,85.58c-0.42,1.5-6.73,10.52-8.24,8.8c-0.08-0.09-0.54-0.5-0.48-0.61c0.62-1.11,1.5-1.79,2.35-2.72c0.78-0.86,1.54-1.72,2.16-2.71c0.66-1.06,2.12-3.87,3.76-2.98C358.41,85.44,358.56,85.51,358.71,85.58M310.2,93.75c-0.48-0.14-1.03-0.49-1.54-0.46c-0.66,0.04-1.31,0.18-1.96,0.2c0.34-1.01,1.23-1,2.15-1.22C309.45,92.12,310.6,93.09,310.2,93.75M343.03,47.8c2.46,0.05,3.21,2.81,4.29,4.47c0.56,0.86,1.84,0.85,2.73,1.1c1.08,0.31,2.23,0.95,2.97,1.8c0.91,1.04,1.34,1.75,1.53,3.13c0.2,1.44-0.79,3.28-1.22,4.62c-0.56,1.72-1.2,3.38-2,5c-0.81,1.63-1.4,3.36-2.08,5.04c-0.7,1.72-1.54,3.39-2.38,5.05c-1.7,3.38-3.56,6.6-5.68,9.73c-0.82,1.22-1.56,2.46-2.48,3.61c-0.38,0.48-1.5,2.15-2.29,1.76c-1.2-0.59-2.16-1.5-3.06-2.47c-0.98-1.07-1.99-2.13-2.92-3.24c-0.46-0.54-0.21-0.98-0.04-1.6c0.38-1.36,1.31-2.58,1.85-3.89c0.63-1.52,1.29-3.03,1.88-4.56c1.25-3.24,2.32-6.56,3.42-9.86c1.11-3.3,2.06-6.64,3-9.99C341.45,54.28,342.12,51.01,343.03,47.8M355.96,84.58c0.25,1.06-1.13,2.42-1.74,3.12c-1.03,1.19-1.94,2.54-3.06,3.65c-0.36,0.35-1.8,2.04-2.41,1.4c-0.82-0.86,1.27-2.85,1.77-3.4c1.41-1.53,2.5-3.4,4.09-4.74C354.92,84.37,355.59,84.56,355.96,84.58M307.37,91.35c-0.51-0.27-0.81-0.24-0.71-0.82c0.06-0.34,0.38-0.69,0.69-0.86c0.64-0.33,2.04-1.17,2.73-0.43c0.52,0.55,0.46,2.03-0.51,1.7c-0.32-0.11-0.76-0.64-1.09-0.61C308.11,90.37,307.6,91.11,307.37,91.35M351.74,70.32c0.05,2.39,0.8,4.69,1.13,7.04c0.16,1.14,0.39,2.34,0.3,3.49c-0.09,1.25-0.17,2.42-0.04,3.67c0.06,0.64-0.55,1.29-0.88,1.79c-0.44,0.66-0.95,1.28-1.46,1.89c-0.71,0.84-1.58,2.56-2.83,2.6c-0.94,0.03-1.88-1.47-2.19-2.18c-0.64-1.47-1.3-3.18-0.96-4.81c0.24-1.17,0.91-2.21,1.52-3.22c0.74-1.23,1.36-2.54,1.98-3.83c0.59-1.24,1.08-2.52,1.67-3.75C350.32,72.26,350.81,70.53,351.74,70.32M376.96,87.86c-0.89,0-1.47,0.88-2.25,1.15c-1.05,0.36-1.78-0.14-1.4-1.28c0.5-1.5,2.41-3.35,3.91-3.86c1.45-0.5,1.99,3.44,1.86,4.37c-0.07,0.5-0.15,0.75-0.39,1.19 s-1.2,1.12-1.55,0.41C376.83,89.25,376.97,88.5,376.96,87.86M368.96,87.85c0-0.96-0.18-1.91-0.2-2.88c-0.03-1.05-0.04-2.1-0.29-3.13c-0.79,1.61-0.51,3.77-0.51,5.5c-1.16-0.37-0.69-2.76-0.56-3.61c0.18-1.13,0.55-3.44-0.68-4.15c0,1.31-0.05,2.62-0.08,3.93c-0.03,1.08,0.1,2.33-0.43,3.32c-0.53-0.55-0.39-1.28-0.29-1.95c0.13-0.93,0.05-1.91,0.05-2.85c0-2.04,0.01-4.07,0.01-6.11c0-2.1,0.01-4.19,0.01-6.29c0-1.86-0.26-3.89,0.04-5.73c0.19-1.17,1.46-1.1,1.97-2.07c-0.35-0.09-1.43-0.24-1.63-0.56c-0.44-0.72-0.37-1.52-0.35-2.33c0.02-0.96,0.02-1.92-0.01-2.87c-0.61,0.79-0.5,1.77-0.51,2.71c0,1.12-0.06,2.23-0.08,3.35c-0.02,1.09-0.19,2.17-0.18,3.26c0,1.1,0.24,2.18,0.24,3.28c0,1.09-0.25,2.16-0.25,3.26 s-0.01,2.2-0.01,3.3c0,2.27,0.03,4.54-0.08,6.81c-0.03,0.54-0.46,0.99-0.92,1.17c-0.33,0.12-0.47,0.19-0.63-0.13c-0.27-0.53,0.57-1.38,0.7-1.99c0.2-0.94,0.19-1.91,0.19-2.86c0-2.31,0.32-4.89-0.24-7.15c-0.88,1.29-0.6,3.12-0.53,4.58c0.08,1.72,0.33,3.84-0.49,5.42c-0.33-0.39-0.27-0.99-0.25-1.47c0.03-0.84,0.07-1.7-0.02-2.54c-0.17-1.58,0.17-3.19-0.21-4.75c-0.55,0.8-0.54,1.78-0.52,2.71c0.03,1.26,0.01,2.52,0,3.77c0,0.89,0.04,1.66,0.24,2.53c0.18,0.81-0.04,1.34-0.89,1.57c-0.28,0.07-0.64,0.03-0.56,0.36c0.08,0.32,0.2,0.67,0.2,1.01c0,0.42-0.89,0.46-1.25,0.54c0.14-0.77-0.18-1.54-0.21-2.3c-0.04-0.93,0.22-1.86,0.22-2.79c0-1.97,0.01-3.95,0.01-5.92c0-0.87,0-1.74,0-2.61c0-0.46,0-0.92,0-1.37c0-0.01,0.46-0.01,0.48-0.01c0.12,0,0.99-0.05,1,0.04c0.04,0.35-0.02,0.94,0.18,1.25c0.39,0.6,0.57,0.34,1.15,0.02c0.37-0.21-0.03-0.85-0.25-1.07c-0.49-0.48-0.8,0.07-0.8-0.74c0-0.82,0.33-0.42,0.75,0c0.28-0.83,0.54-1.68,0.86-2.5c0.31-0.8,0.78-1.61,0.65-2.5c-0.18,0.11-0.96,0.38-1.03,0.14c-0.15-0.47-0.33-0.93-0.47-1.4c-0.28,0.36-0.46,0.7-0.66,1.1c-0.21,0.42,0.02,0.36-0.49,0.32c-0.28-0.02-0.58-0.13-0.86-0.18c0.02,1.4,0.91,2.89,1.24,4.25c-0.39-0.12-0.81-0.16-1.21-0.07c-0.51,0.12-0.46-0.45-0.52-0.86c-0.12-0.91-0.02-1.9-0.02-2.82c-0.61,0.29-0.7,0.95-0.74,1.55c-0.02,0.31-0.02,0.62-0.02,0.92c0,0.58,0.03,0.52-0.56,0.52c-0.38,0-0.19-0.72-0.19-0.94c0-0.38-0.24-0.31-0.55-0.31c-0.47,0-0.07,1.1-0.95,1c0.14-0.78,0.74-1.45,0.75-2.25c-1.08-0.06-2.16-0.19-3.24-0.27c-0.43-0.03-1.04-0.02-0.95-0.53c0.26-1.33,0.84-2.64,1.23-3.94c0.42-1.43,0.83-2.86,1.2-4.3c0.71-2.79,1.05-5.66,1.63-8.48c0.59-2.83,0.98-5.7,1.56-8.53c0.31-1.51,0.68-3,0.92-4.52c0.16-1.06,0.69-2.26-0.16-3.15c-0.81-0.86-1.55-1.54-2.56-2.17c-1.29-0.8-0.81-1.58,0.07-2.48c1.53-1.57,3.74-2.5,5.8-3.11c1.3-0.39,2.11-0.02,2.79,1.1c2.05,3.35,3.4,7.05,4.79,10.7c0.73,1.91,1.35,3.83,1.91,5.8c0.41,1.45,1.42,3.23,1.29,4.76c-0.04,0.5,0.03,0.27-0.37,0.47c-0.19,0.09-0.43,0.12-0.63,0.18c0.18,0.85,0.95,1.79,1.39,2.53c0.18,0.29,0.54,0.9,0.15,1.06c-0.42,0.17-0.86,0.16-1.3,0.17c0,1.07,1.13,0.71,1.39,1.34c0.27,0.65,0.49,1.47,0.61,2.16c-0.92-0.46-0.75-0.1-0.75,0.73c0,3.05,0.09,6.13-0.03,9.18c-0.06,1.48-0.24,2.94-0.24,4.42s0.04,2.96-0.26,4.42c-0.54-0.46-0.5-1.29-0.5-1.94c0-1.17,0-2.35,0.01-3.52c0.02-2.16,0.25-4.31,0.29-6.47c0.03-1.69-0.04-3.37,0.05-5.06c0.05-1.01,0.25-2.9-0.81-3.51c-0.01,4.89-0.21,9.77-0.31,14.66c-0.05,2.46,0.07,4.92,0.11,7.38c0.02,1.16,0.02,2.33-0.03,3.49c-0.04,1.01,0.06,2.37-0.57,3.23c-0.35-0.42-0.37-1.23-0.5-1.75c-0.63,0.99-0.7,2.22-0.74,3.36c-0.02,0.72,0.11,1.42,0.1,2.14c-0.01,0.68-0.21,1.34-0.38,2c-0.37-0.41-0.23-1.06-0.24-1.56c-0.01-0.68-0.11-1.34-0.08-2.02c0.03-0.73,0.53-2.28,0.08-2.92c-0.07-0.11-0.58-0.17-0.74-0.37c-0.18-0.22-0.26-0.62-0.26-0.89c-0.88,0-1.4,0.91-0.92,1.67c0.2,0.31,0.71,0.45,0.86,0.78c0.32,0.71,0.18,1.46,0.13,2.22c-0.07,1.09-0.08,2.17-0.08,3.26C369.46,87.63,369.65,87.9,368.96,87.85M364.71,86.34c-0.7-0.61-0.99-2.3,0.25-2.5C364.96,84.56,365.19,85.73,364.71,86.34M328.71,85.78c-0.59-1.11,0.49-2.65,0.93-3.64c0.65-1.48,1.23-2.99,1.77-4.52c1.11-3.17,2.16-6.41,3.13-9.62c1-3.32,1.95-6.65,2.87-10c0.9-3.31,1.63-6.62,2.42-9.95c0.2-0.82,0.18-0.74,0.97-0.6c0.48,0.08,0.98-0.09,0.96,0.45c-0.12,3.34-1.26,6.64-2.1,9.87c-0.92,3.52-2.06,6.97-3.21,10.41c-1.14,3.4-2.26,6.81-3.56,10.15c-0.63,1.63-1.26,3.32-2.09,4.86C330.48,83.78,329.58,85.94,328.71,85.78M358.71,84.58c-0.68-1.05-0.34-2.34-0.47-3.51c-0.03-0.29-0.5-0.41-0.55-0.11c-0.18,1.06-0.23,2.05-0.23,3.12c-0.83-0.13-0.76-1.38-0.75-2c-0.3,0.39-0.53,0.78-0.75,1.22c-0.26,0.52-0.33,0.57-0.88,0.33c-1.08-0.47-1.15-1.77-1.02-2.82c0.06-0.48,0.52-0.68,0.68-1.11c0.21-0.58-0.25-0.93-0.61-1.4c-0.66-0.87,0.02-2.08-0.15-2.98c1.25,0.76,0.57,3.79,2.24,4c0.14-0.82,0.53-1.82,1-2.5c0.7,0.67,0.41,1.96-0.5,2.25c0.68,1.19,2.23,0.75,2.5,2.25C359.36,82.15,359.25,83.91,358.71,84.58M378.47,81.62c-0.74,0.39-1.29,1.21-2.07,1.53c-0.11,0.04-1.16,0.4-1.18,0.17c-0.05-0.54-0.14-1.05-0.03-1.58c0.41-1.91,2.04-2.99,3.39-4.23c0.39-0.36,0.45-0.45,0.82-0.03c0.64,0.72,0.91,2.02,1.11,2.93c0.17,0.79,0.42,1.92,0.09,2.71c-0.12,0.27-0.79,0.85-1.09,0.83C378.7,83.9,378.58,82.17,378.47,81.62M354.97,83.07c0.2-0.37,0.29-0.83,0.25-1.25C354.67,81.94,354.52,82.74,354.97,83.07M361.22,82.09c0.42-2.09,0.2-4.24,0.33-6.35c0.05-0.86,0.42-3.61-0.81-3.9c0,1.67-0.01,3.33-0.01,5c0,1.53-0.17,3.13-0.06,4.65C360.7,81.92,360.67,82.22,361.22,82.09M356.47,79.83c-0.95-0.13-1.39,0.81-0.92,1.55c0.3,0.48,0.72-0.06,0.97-0.28C356.76,80.89,356.52,80.07,356.47,79.83M372.03,47.85c-0.58-0.01-0.5-0.01-0.5,0.52c-0.01,2.24-0.01,4.48-0.01,6.71c0,2.25,0.19,4.55-0.26,6.77c-0.82-0.25-2-0.12-2,1c0.71,0.09,1.31,0.21,2,0c0.02,3.74-0.01,7.5-0.02,11.25c-0.65,0-1.25-0.6-1.25-1.25c0.17,0.08,0.33,0.17,0.5,0.25c0-3.08,0.01-6.17,0.02-9.25c-1.02,0.15-0.81,2.32-0.79,3c0.06,1.75-0.09,3.53,0.27,5.25c-0.59-0.03-0.85,0.61-1.09,1.03c-0.27,0.47-0.92,0.58-1.16,1.08c-0.47,0.98,0.57,2.37,0.49,3.39c-1.01-0.2-2.04,0-2,1.25c1.15-0.09,2.02-0.12,3-0.74c0.09,0.29,0.51,0.99,0.89,0.84c0.88-0.35,1.71-0.46,1.88-1.55c0.17-1.09-0.01-2.3-0.01-3.4c0-3.01,0.01-6.03-0.01-9.04c-0.01-1.37-0.08-2.81,0.14-4.16c0.22-1.33,0.12-2.76,0.13-4.11C372.26,53.72,372.15,50.8,372.03,47.85M358.72,79.08c-0.49-0.41-0.38-1.08-0.3-1.63c0.11-0.85,0.08-1.73,0.06-2.59c-0.04-1.36-0.39-3,0.26-4.28c1.07,0.64,0.55,3.16,0.5,4.17C359.18,75.87,359.86,78.33,358.72,79.08M379.98,75.37c-0.74,0.15-1.27,1.07-1.96,1.14c-0.49,0.05-1.01,0.33-1.07-0.22c-0.06-0.57-0.11-0.9,0.07-1.43c0.51-1.52,1.93-3.09,3.28-3.9c0.6-0.37,0.95,1.09,1.14,1.52c0.47,1.05,0.65,1.76,0.78,2.9c0.06,0.6-0.17,1.9-0.98,1.96C380.34,77.41,380.13,75.96,379.98,75.37M369.73,77.6c0.28-1.02,0.94-2.1,1.5-3c0.41,0.43,0.07,1.4,0.01,1.92C371.13,77.41,370.44,77.44,369.73,77.6M367.23,77.1c0.35-0.66,0.15-1.5,0.07-2.2c-0.09-0.85,0.05-1.7,0.12-2.54c0.08-1,0.07-2.01,0.08-3.02c0-0.39,0.08-5.24-0.08-5.24c-0.56,0-0.27-0.01-0.42,0.4c-0.58,1.63-0.25,3.77-0.26,5.47c0,0.76-0.01,1.52-0.02,2.27c0,0.35-0.07,4.86,0.08,4.86C366.95,77.1,367.09,77.1,367.23,77.1M311.98,76c0.11-0.74,0.56-1.37,0.94-2c0.41-0.69,0.76-1.45,1.36-2.01c0.79-0.74,1.38-0.02,2.17,0.46c0.51,0.31,0.54,1.53,0.53,2.06c0,1.01-0.17,1.39-0.73,2.25c-0.16,0.24-0.73-0.07-0.99-0.15c-0.3-0.09-0.21-0.68-0.31-0.9c-0.15-0.34-0.52-1.43-1.05-1.23C313.06,74.8,313.16,76.04,311.98,76M356.98,74.83c-0.72-0.97,0.12-1.72,0-2.75C358.11,72.3,357.75,74.39,356.98,74.83M354.98,74.82c-0.33-0.36-0.7-0.65-0.83-1.13c-0.14-0.54-0.28-1.08-0.42-1.63c1.32,0.01,0.63,1.79,1.75,2C355.36,74.37,355.26,74.64,354.98,74.82M355.48,73.83c0.01-0.49,0-1.42,0.75-1.25C356.16,73.03,355.86,73.55,355.48,73.83M368.49,73.1c0.66-0.83,0.5-1.96,0.5-2.94c0-1.35,0.01-2.7,0.01-4.06c-1.17,0.22-0.75,2.26-0.76,3.06C368.24,70.26,367.67,72.18,368.49,73.1M353.99,70.57c0.85-0.43,2.02,0.26,1.5,1.25C354.89,71.68,354.08,71.24,353.99,70.57M356.99,71.08c0.34-0.61,0.63,0.23,0.75,0.5C357.44,71.46,357.19,71.34,356.99,71.08M315.49,70.51c0.01-0.54,0.41-1.13,0.96-1.21c0.63-0.09,0.54,1.22,0.54,1.71C316.47,70.93,315.99,70.67,315.49,70.51M380.99,69.12c-0.73,0.13-1.26,0.9-1.83,1.32c-0.83,0.61-1.21-0.51-1.07-1.2c0.3-1.5,1.4-3,2.2-4.28c0.57-0.91,1.01,0.21,1.35,0.74c0.41,0.65,0.91,1.57,1,2.33c0.1,0.79,0.34,1.77-0.33,2.33C381.53,71,381.07,69.81,380.99,69.12M352.99,70.07c-0.35-0.53-0.46-1.1,0.08-1.49c0.84-0.62,1.06-0.77,2.1-0.67c1.3,0.12,2.5,0.89,3.82,0.92c-0.33,2.07-3.19,0.74-4.45,0.86C354.03,69.73,353.51,69.99,352.99,70.07M364.5,65.84c-0.56-0.13-0.52,0.2-0.58,0.62c-0.05,0.33-0.12,0.67-0.12,1.01c0,0.18,0.18,0.63,0.1,0.81c-0.22,0.49-1.1,0.61-0.48,1.29c0.58,0.64,1.98,0.05,1.5-0.88C364.44,67.78,364.5,66.85,364.5,65.84M352.75,67.32c0.01-0.88,0.65-1.5,1.56-1.5c0.79,0,1.71-0.12,2.44,0.25C356.12,67.34,353.94,67.28,352.75,67.32M369,62.85c-0.38,0.08-0.81,0.37-0.97,0.75c-0.23,0.58,0.2,0.67,0.63,0.95C369.55,65.13,369.32,63.28,369,62.85M381,62.87c-0.72,0.15-0.94,0.87-1.5,1.25c-1.02,0.69-0.91-0.48-0.8-1.19c0.18-1.16,0.87-2.96,2.05-3.44c0.66-0.26,0.76,0.43,1.05,0.96c0.33,0.6,0.71,1.31,0.8,1.99c0.03,0.25,0.09,2.13-0.46,1.89C381.55,64.07,381.09,63.54,381,62.87M364.5,63.59c0-1.75,0.01-3.5,0.01-5.25c-0.6,0.44-0.71,1.86-0.72,2.54C363.77,61.62,363.51,63.34,364.5,63.59M363,62.34c0-0.61,0.3-1.36-0.5-1.25C362.54,61.59,362.59,62.01,363,62.34M369,62.1c0.21-0.73,0.45-1.46,0.7-2.18c0.24-0.69,0.66-1.44,0.73-2.17c0.03-0.29,0.15-0.48-0.17-0.65c-0.24-0.13-0.62,0.03-0.75,0.25c-0.2-0.61-0.49-1.88-1.25-2c0.06,0.69-0.29,1.36-0.5,2c-0.31-0.18-0.65-0.2-1-0.25c0.05,1.5,0.96,2.92,1.34,4.35C368.29,62.12,368.27,62.1,369,62.1M379.01,58.62c-0.26-0.89,0.04-1.73,0.37-2.56c0.11-0.28,0.69-2.01,0.99-1.9c1.72,0.59,1.98,2.69,1.89,4.22c-0.65,0-1.21-0.69-1.75-1C380.31,58.01,379.71,58.61,379.01,58.62M367.52,56.1c0.01-0.67,0.17-1.34,0-2c-0.46,0.21-0.57,0.65-0.57,1.11C366.96,55.69,366.87,56.25,367.52,56.1M354.77,56.07c-0.83-1.12-1.91-2.06-3.12-2.75c-0.65-0.37-1.35-0.67-2.07-0.86c-0.56-0.15-1.29-0.14-1.62-0.69c-0.43-0.71-0.71-1.44-1.21-2.12c-0.55-0.75-1.14-1.46-1.89-2.01c-0.79-0.58-1.78-0.8-2.72-1c-1.01-0.22-1.74-0.71-2.49-1.41c-1.51-1.41-3.59-2.42-5.71-2.43c-0.21,0-0.74-0.14-0.39-0.5c0.4-0.41,2.79,0.19,3.19,0.32c1.67,0.56,2.74,1.68,4.09,2.72c0.73,0.56,1.39,0.61,2.24,0.8c0.88,0.2,1.68,0.63,2.42,1.13c1.39,0.95,1.93,2.41,3.07,3.55c1.17,1.17,3.16,1.42,4.56,2.3c0.65,0.42,1.88,1.74,1.78,2.6C354.88,55.86,354.86,55.95,354.77,56.07M370.52,55.85c0.2-1,0.95-5.46-0.49-5.75c0,1.14,0,2.27-0.01,3.41C370.02,54.26,369.82,55.34,370.52,55.85M361.15,55.59c0.17-0.38,0.6-1.93-0.46-1.54c-0.25,0.09-0.32,0.84-0.38,1.08C360.22,55.43,360.89,55.5,361.15,55.59M369.02,54.6c0.12-0.97,0.01-1.79,0.01-2.75C368.29,52.38,368.32,54.05,369.02,54.6M378.77,53.62c-0.68-1.01-0.21-2.15,0.1-3.21c0.05-0.19,0.38-1.29,0.51-1.27c0.6,0.09,0.95,0.41,1.34,0.85c0.79,0.87,1.31,1.74,1.21,2.93c-0.06,0.7-0.54,0.35-0.92,0.1c-0.43-0.29-0.8-0.63-1.25-0.89C379.63,52.71,379.57,53.77,378.77,53.62M363.02,53.59c-0.05-0.33-0.08-0.6-0.21-0.9c-0.09-0.2-0.78,0.08-0.96,0.13c-0.41,0.11,0.07,0.58,0.25,0.66C362.37,53.58,362.73,53.59,363.02,53.59M359.52,53.58c0.57-0.34,0.14-1.33-0.5-1C358.35,52.93,358.9,53.7,359.52,53.58M361.27,53.34c0.27-1.61,1.03-3.15,1.26-4.75c-0.38-0.08-0.88,0.15-1.25,0.25c-0.1-0.6-0.23-1.21-0.5-1.75c-0.76,0.55-0.55,2-1.75,2c0.17,1.26,1.03,2.43,1.34,3.68C360.53,53.43,360.6,53.33,361.27,53.34M349.28,50.31c-0.21-0.39-0.3-1-0.13-1.41c0.24-0.59,1.06-0.1,1.63-0.08C350.52,49.41,349.96,50.21,349.28,50.31M377.78,49.11c-0.55-1.66,0.26-3.43,0.76-5c1.45,0.3,2.18,2.12,2.86,3.24c0.2,0.33,0.1,1.13,0.13,1.52c-1,0.03-1.75-0.94-2.5-1.5C378.81,47.98,378.62,49.27,377.78,49.11M367.29,43.35c-0.27,0.05-0.75,0.27-0.75,0.6c0,0.34-0.18,1.02,0.2,1.19C367.65,45.55,367.47,43.75,367.29,43.35M342.03,45.05c-0.28-0.53-0.24-1.17-0.25-1.75c0.57,0.11,1.16,0.26,1.75,0.25C343.41,44.27,342.69,44.83,342.03,45.05M376.79,39.36c1.3,0.05,2.89,1.59,3.34,2.76c0.19,0.49,0.33,1.89-0.43,1.64c-0.56-0.19-1.12-0.83-1.66-1.14c-0.21,0.58-0.39,1.16-0.71,1.69c-0.38,0.61-1.1-1.03-1.14-1.15c-0.2-0.53,0.06-1.15,0.17-1.67C376.5,40.78,376.65,40.07,376.79,39.36M369.04,42.85c0.16-0.85-0.91-0.75-1.5-0.75C367.52,42.92,368.41,43.19,369.04,42.85M366.29,42.09c-0.38-0.2-1.87-0.29-1.41,0.42C365.32,43.21,366.15,42.83,366.29,42.09M357.54,42.83c-2.91-2.03-5.64-4.32-8.64-6.22c-1.51-0.95-3.09-1.79-4.7-2.57c-1.07-0.52-2.85-0.79-3.57-1.81c-0.9-1.29,1.47-0.66,2.04-0.41c1.49,0.62,1.84-0.23,2.28-1.47c0.28-0.77,0.48-1.56,0.66-2.35c0.14-0.59,0.45-1.32,0.29-1.94c-0.13-0.51-0.63-0.71-0.84-1.14c-0.68-1.36,1.26-0.87,1.83-0.59c2.24,1.1,4.46,2.19,6.62,3.45c2,1.16,4.06,2.23,5.79,3.78c0.23,0.21,0.2,1.2,0.25,1.53c-0.83-0.1-1.54-0.68-2.17-1.17c-0.8-0.62-1.64-1.19-2.5-1.74c-1.53-0.99-3.28-2.41-5.07-2.88c-0.78-0.2-0.99,0.16-1.54,0.66c-0.54,0.48-0.72,1.35-0.89,2.02c-0.22,0.85-0.46,1.69-0.62,2.56c-0.11,0.61,0.46,0.94,0.86,1.34c1.18,1.19,2.93,2.03,4.34,2.93c0.95,0.61,1.92,1.18,2.86,1.81C355.81,39.28,358.99,41.33,357.54,42.83M367.04,42.34c0.14-0.51,1.91-3.49,1.46-3.78c-0.32-0.21-0.82-0.47-0.96-0.85c-0.08-0.21-0.05-0.73-0.24-0.87c-0.59-0.44-0.69,1.15-0.75,1.5c-0.42-0.07-0.83-0.18-1.25-0.25c0,0.82,0.44,1.57,0.69,2.33C366.21,41.1,366.4,41.93,367.04,42.34M358.04,40.33c-0.95-0.41-2.02-1.31-2.67-2.11c-0.45-0.55-2.09-2.7-0.77-3.16c0.98-0.34,2.39,1.39,2.8,2.06C357.92,37.94,358.77,39.41,358.04,40.33M375.29,39.86c-0.69-0.94-0.77-2.3-0.7-3.43c0.02-0.31,0.08-0.57,0.16-0.87c0.09-0.36,0.39-0.17,0.65-0.09c1.17,0.36,2.81,0.99,3.36,2.18c0.2,0.42,0.3,1.46-0.46,1.29c-0.24-0.05-1.57-0.63-1.74-0.45C376.15,38.92,375.81,39.55,375.29,39.86M359.05,34.58c-0.82,0.2-1.5,0.24-2.34,0.15c-0.35-0.03-1.94-0.53-1.44-1.17c0.43-0.55,1.4-0.75,2.12-0.55C358.19,33.24,359.02,33.63,359.05,34.58M373.3,34.36c-0.57-1.07-0.68-2.06-0.74-3.25c1.31,0.21,2.46,1.4,3.14,2.48c0.28,0.45,0.54,1.31-0.35,0.92C374.67,34.2,374.01,34.26,373.3,34.36M347.56,32.56c1.64-0.39,2.93,0.05,4.5,0.51c-0.53-0.9-1.6-1.52-2.24-2.39c-0.56-0.75-1.02-1.92-1-2.87c1.06-0.12,2.21,0.99,2.78,1.78c0.75,1.04,1.47,1.86,1.04,3.17c-0.42,1.28-1.08,1.69-2.4,1.49C349.31,34.11,347.55,33.8,347.56,32.56M361.94,33.84c0.25-0.42,0.4-0.62,0.28-1.1c-0.16-0.66-0.29-0.56-0.96-0.67c-0.43-0.07-0.3,0.92-0.27,1.09C361.06,33.54,361.5,34.06,361.94,33.84M353.3,34.07c0-0.29,0-1.25,0.57-0.68C354.24,33.75,353.63,33.93,353.3,34.07M363.81,31.34c0.2-1.07-1.42-0.6-2-0.5c0.01-0.6,0.01-1.19,0.18-1.77c0.14-0.5,0.39-1.05,0.33-1.58c-0.07-0.57,0.02-0.2-0.39-0.42c-0.6-0.33-1.18-1.1-1.85-1.23c0.05,0.73-0.23,1.41-0.81,1.85c-0.52,0.4,0.56,1.71,0.82,2.11c0.49,0.76,0.76,1.3,1.58,1.71C362.34,31.85,363.2,31.75,363.81,31.34M341.31,30.3c0.29-0.93,0.55-1.18,1.45-0.77c0.45,0.21,0.91,1.28,0.8,1.77C342.71,31.18,342.02,30.73,341.31,30.3M371.31,29.35c-0.31-0.25-0.49-0.6-0.5-1C371.12,28.61,371.58,28.92,371.31,29.35M356.09,15.33c2.25,0.9,1.14,3.79,0.78,5.57c-0.25,1.2-0.56,2.39-0.77,3.6c-0.15,0.91-0.25,2.01-0.87,2.75c-0.14,0.17-0.53,0.02-0.73,0c-0.37-0.05-0.33-0.09-0.49-0.45c-0.3-0.7,0.21-1.7,0.37-2.38c0.23-0.97,0.42-1.94,0.61-2.92C355.38,19.44,355.58,17.36,356.09,15.33M356.57,26.33c0.01-1.43,0.52-2.79,0.83-4.16c0.36-1.6,0.65-3.22,0.94-4.84c1.29,0.25,2.26,1.4,3.2,2.23c1.07,0.94,2.37,1.73,3.05,3.03c-1.38,0.68-2.96,0.8-4.27,1.64C359.13,24.99,357.98,26.06,356.57,26.33M343.82,26.3c0.06-0.13,0.35-0.91,0.57-0.68C344.77,26.01,344.28,26.4,343.82,26.3M345.82,22.81c0.39-0.84,1.29-2.78,2.26-3c0,0.9-0.18,1.77-0.34,2.65c-0.12,0.62,0,0.89-0.66,0.81C346.64,23.22,346.18,23.06,345.82,22.81"/></g><g id="heart"><path style="fill:#E6180A;" d="M-7.67,3.93c0.01-4.71,5.91-8.14,7.64-11.87c1.75,3.72,7.66,7.12,7.7,11.83c0.01,2.22-1.71,4.03-3.82,4.03C1.73,7.92,0,6.13,0,3.91c0,2.23-1.71,4.03-3.82,4.03C-5.94,7.95-7.66,6.15-7.67,3.93z"/></g><g id="jack"><text transform="scale(0.56453 1)" font-family="Bitstream Vera Serif" font-weight="bold" font-size="40">J</text></g><g id="base"><path style="fill:#FFFFFF;stroke:#000000;stroke-width:2.5" d="M 0,0C0,3.78 3.09,6.87 6.87,6.87L159.715,6.87C163.485,6.87 166.575,3.78 166.575,0L166.575,-228.4C166.575,-232.18 163.485,-235.27 159.715,-235.27L6.87,-235.27C3.09,-235.27 0,-232.18 0,-228.4L0,0 z"/></g></defs><g id="jack_heart" transform="translate(-1675.75,-486.275)"><use xlink:href="#base" x="1675.75" y="486.275" xlink:type="simple" xlink:show="embed" xlink:actuate="onLoad"></use><g fill="none" stroke="black" stroke-width="1"><path d="M 1684.88 311.157L1684.88 488.545"/><path d="M 1684.88 488.545L1816.03 488.545"/><path d="M 1834.2 432.245L1834.2 254.607"/><path d="M 1834.2 254.607L1703.05 254.607"/></g><g><use xlink:href="#heart" x="713.264" y="117.357" transform="scale(2.4) rotate(180,713.264,117.357)" xlink:type="simple" xlink:show="embed" xlink:actuate="onLoad"></use><rect x="1693.33" y="262.673" width="9.69257" height="37.968" fill="white"/></g><g><use xlink:href="#heart" x="753.017" y="192.34" transform="scale(2.4)" xlink:type="simple" xlink:show="embed" xlink:actuate="onLoad"></use><rect x="1816.49" y="442.632" width="9.69257" height="37.968" fill="white"/></g><g transform="rotate(-1.80,1759.54,371.576)"><line x1="1718.98" y1="430.417" x2="1800.09" y2="312.736" stroke="black" stroke-width="7.25"/><circle cx="1721.4" cy="427.358" r="2.2" fill="white"/><circle cx="1721.4" cy="427.358" r=".7" fill="black"/><circle cx="1724.73" cy="422.523" r="2.2" fill="white"/><circle cx="1724.73" cy="422.523" r=".7" fill="black"/><circle cx="1728.07" cy="417.689" r="2.2" fill="white"/><circle cx="1728.07" cy="417.689" r=".7" fill="black"/><circle cx="1731.4" cy="412.854" r="2.2" fill="white"/><circle cx="1731.4" cy="412.854" r=".7" fill="black"/><circle cx="1734.73" cy="408.019" r="2.2" fill="white"/><circle cx="1734.73" cy="408.019" r=".7" fill="black"/><circle cx="1738.06" cy="403.184" r="2.2" fill="white"/><circle cx="1738.06" cy="403.184" r=".7" fill="black"/><circle cx="1741.4" cy="398.35" r="2.2" fill="white"/><circle cx="1741.4" cy="398.35" r=".7" fill="black"/><circle cx="1744.73" cy="393.515" r="2.2" fill="white"/><circle cx="1744.73" cy="393.515" r=".7" fill="black"/><circle cx="1748.06" cy="388.68" r="2.2" fill="white"/><circle cx="1748.06" cy="388.68" r=".7" fill="black"/><circle cx="1751.39" cy="383.845" r="2.2" fill="white"/><circle cx="1751.39" cy="383.845" r=".7" fill="black"/><circle cx="1754.72" cy="379.011" r="2.2" fill="white"/><circle cx="1754.72" cy="379.011" r=".7" fill="black"/><circle cx="1758.06" cy="374.176" r="2.2" fill="white"/><circle cx="1758.06" cy="374.176" r=".7" fill="black"/><circle cx="1761.39" cy="369.341" r="2.2" fill="white"/><circle cx="1761.39" cy="369.341" r=".7" fill="black"/><circle cx="1764.72" cy="364.506" r="2.2" fill="white"/><circle cx="1764.72" cy="364.506" r=".7" fill="black"/><circle cx="1768.05" cy="359.672" r="2.2" fill="white"/><circle cx="1768.05" cy="359.672" r=".7" fill="black"/><circle cx="1771.39" cy="354.837" r="2.2" fill="white"/><circle cx="1771.39" cy="354.837" r=".7" fill="black"/><circle cx="1774.72" cy="350.002" r="2.2" fill="white"/><circle cx="1774.72" cy="350.002" r=".7" fill="black"/><circle cx="1778.05" cy="345.167" r="2.2" fill="white"/><circle cx="1778.05" cy="345.167" r=".7" fill="black"/><circle cx="1781.38" cy="340.333" r="2.2" fill="white"/><circle cx="1781.38" cy="340.333" r=".7" fill="black"/><circle cx="1784.71" cy="335.498" r="2.2" fill="white"/><circle cx="1784.71" cy="335.498" r=".7" fill="black"/><circle cx="1788.05" cy="330.663" r="2.2" fill="white"/><circle cx="1788.05" cy="330.663" r=".7" fill="black"/><circle cx="1791.38" cy="325.828" r="2.2" fill="white"/><circle cx="1791.38" cy="325.828" r=".7" fill="black"/><circle cx="1794.71" cy="320.994" r="2.2" fill="white"/><circle cx="1794.71" cy="320.994" r=".7" fill="black"/><circle cx="1798.04" cy="316.159" r="2.2" fill="white"/><circle cx="1798.04" cy="316.159" r=".7" fill="black"/></g><use xlink:href="#jack" x="1684.78" y="282.927" style="fill:#e6180a" xlink:type="simple" xlink:show="embed" xlink:actuate="onLoad"></use><use xlink:href="#jack" x="1834.3" y="460.225" transform="rotate(180,1834.3,460.225)" style="fill:#e6180a" xlink:type="simple" xlink:show="embed" xlink:actuate="onLoad"></use><use xlink:href="#heart" x="1689.4" y="301.157" transform="rotate(180,1689.4,301.157)" xlink:type="simple" xlink:show="embed" xlink:actuate="onLoad"></use><use xlink:href="#heart" x="1829.67" y="441.995" xlink:type="simple" xlink:show="embed" xlink:actuate="onLoad"></use><use xlink:href="#jack_2" transform="matrix(0.990001,0.000000,0.000000,0.990000,1451.738,301.8314)" id="use1589" x="0.0000000" y="0.0000000" width="2178.4751" height="1215.6875" xlink:type="simple" xlink:show="embed" xlink:actuate="onLoad"></use><use xlink:href="#jack_2" transform="matrix(-0.990000,-2.043122e-4,2.043122e-4,-0.990000,2067.342,441.4238)" id="use1590" x="0.0000000" y="0.0000000" width="2178.4751" height="1215.6875" xlink:type="simple" xlink:show="embed" xlink:actuate="onLoad"></use></g></svg>