<?xml version="1.0" encoding="UTF-8"?>
<svg xmlns="http://www.w3.org/2000/svg" xmlns:xlink="http://www.w3.org/1999/xlink" version="1.1" height="263" width="188" viewBox="-1.3 -236.8 188 263" preserveAspectRatio="xMidYMid meet" zoomAndPan="magnify" contentScriptType="application/ecmascript" contentStyleType="text/css"><defs><g id="king_3"><g><polyline style="fill:#F8C20F;" points="96.52,542.69 97.5,543.91 99.73,542.78 99.19,541.87 96.74,541.21 96.52,542.69 "/><path style="fill:#F8C20F;" d="M95.78,567.39c0.89,7.3,1.53,14.57,1.94,21.91h3.55c0.13-5.08-0.07-10.37,0.47-15.43c0.15-1.42,0.31-2.85,0.46-4.27c0.12-1.13,0.96-2.27,0.96-3.41c0-2.72,0-5.45,0-8.17c-0.46-0.69-0.69-1.33-0.96-2.12h-2.02l0.98-1.44l-0.61-0.84l-1.57-0.99l-0.92,2.4l1.92,0.87h-2.94l-1.26,1.9V567.39"/><polyline style="fill:#F8C20F;" points="97.49,591.16 101.74,591.16 101.74,589.66 97.49,589.66 97.49,591.16 "/><path style="fill:#1C1585;" d="M67.59,550.84l-0.07,0.79l1.71,0.32c0.98,0.82,2.57,1.7,3.22,2.79c0.75,1.24,1.88,2.58,2.35,3.96c0.97,2.84,2.23,5.82,1.76,8.9c-0.46,2.96-0.79,6.24-2.31,8.9c-1.48,2.59-2.96,5.6-5.66,7.17c-0.73,0.42-1.45,0.84-2.18,1.27l-0.65-0.63l0.29,0.51c0.04,2.92,0.08,5.84,0.13,8.76c0.02,1.19,0.21,2.7,0.68,3.8c0.61,1.42,1.5,2.46,2.46,3.67l-0.58,0.04l0.02,0.04l4.5-0.22c1.62-1.63,3.13-3.15,4.46-5.02c1.4-1.96,2.3-4.07,3.32-6.26c0.96-2.04,2.29-3.79,3.58-5.65c1.17-1.68,2.07-3.52,3.04-5.32c0.28-2.11,0.59-4.2,0.94-6.3l3.62-4.78l0.92-5.05c-2.67-0.22-5.15-0.41-7.58-1.58c-1.17-0.56-2.04-1.14-3.07-1.93c-0.95-0.73-2.09-1.37-2.82-2.33c-0.98-1.29-1.97-2.59-2.96-3.88c-0.51-0.67-0.76-1.61-1.09-2.38c-1.17-2.73-2.35-5.46-3.52-8.19l-1.66-0.53C69.5,544.73,68.24,547.76,67.59,550.84"/><path style="fill:#F8C20F;" d="M103.07,538.82c0-2.47,0-4.94,0-7.41c0-1.99-0.31-3.94-0.54-5.92h-5.7v4.55h-0.9v8.78l0.52,1.04C98.72,539.86,100.86,539.28,103.07,538.82"/><path style="fill:#F8C20F;" d="M102.41,591.34l-6.19,0.57l-2.94,2.66l-0.03,3.22l1.16,0.9l0.87-2.71l2.76-1.55l0.47,0.36l-1.12,4.11l0.98,3.28l1.94,2.22l2.2-4.64c-0.73-1.82-1.5-3.62-2.28-5.43l2.04,0.14c0.66,0.57,1.32,1.14,1.98,1.71c0.53,0.46,0.88,1.5,1.24,2.11l0.77-1.28l-0.59-3.38L102.41,591.34"/><path style="fill:#F8C20F;" d="M109.95,492.25c-0.51-1.33-1.02-2.67-1.53-4c-0.39-1.02-0.95-1.75-1.6-2.65c-0.65-0.9-1.37-2.47-2.28-3.11c-1.19-0.84-2.37-1.68-3.56-2.52l-4.21-1.14l-5.13,0.54l-3.37,1.71l-0.35-0.59c-2.29-1.64-4.89-2.8-7.06-4.57l-2.57,4.55l-0.04,0.44l-0.24-0.69c-3.03,4.58-5.91,9.24-8.77,13.93l1.09,4.23c0.89,1.25,1.71,2.6,2.69,3.77c0.97,1.16,2.18,2.17,3.25,3.23v1.13l0.56-0.45l3.56,2.67l-2.44,8.28h0.95l0.01,0.51c0.5,0.9,0.99,1.81,1.49,2.71c0.45,0.82,1.45,1.56,2.09,2.24c1.31,1.4,2.99,2.31,4.64,3.23l3.28,0.29c1.22-0.94,2.43-1.87,3.69-2.75l1.41,1.96c3-0.24,6-0.24,9-0.3l3.25-1.68c1.33-1.79,3.37-3.74,3.4-6.14l-2.7-0.07h2.82c0-4.13,0-8.26,0-12.39c0-3.83-0.35-7.83,0.16-11.63L109.95,492.25"/><path style="fill:#E61408;" d="M76.84,506.06c-4.49,3.63-8.97,7.26-13.46,10.89l-0.6,1.13c0.27,1.39,0.51,2.59,0.46,4c-0.06,1.51,0.1,3.22-0.21,4.71c-0.37,1.77-0.73,3.54-1.1,5.31c-0.29,1.39-1.22,2.8-1.81,4.08c-2.65,5.78-7.95,9.45-13.12,12.81c-0.21,0.13-0.42,0.27-0.63,0.41l-0.24-0.07l-0.05,0.09c3.24,1.45,6.37,2.87,9.45,4.62c3.11,1.76,6.15,3.62,9.19,5.5c0.97-2.6,1.71-5.29,2.5-7.95l0.08,0.02c3.67-11.56,7.26-23.12,10.69-34.76c0.8-2.7,1.6-5.41,2.39-8.11L76.84,506.06"/><path style="fill:#E61408;" d="M14.23,584.33l-0.38-0.28l-0.05-0.14l-1.3-1.28c-3.79,5.67-7.48,11.4-11.2,17.11l2.27,1.03l13.41-13.73L14.23,584.33"/><path style="fill:#E61408;" d="M67.39,598.6c-0.39-0.91-0.78-1.82-1.17-2.73c-0.05-3.68-0.11-7.36-0.16-11.04c-0.29-0.68-0.95-1.15-1.47-1.65c-0.16-5.48-0.41-11.1-3.15-16c-2.72-1.54-5.46-3.18-8.31-4.48c-2.93-1.34-6.04-2.37-9.04-3.54l-0.8,0.52l0.53,2.29c1.29,0.27,3.11,0.31,4.25,0.95c1.56,0.88,3.13,1.76,4.69,2.64c1.09,1.37,2.18,2.75,3.28,4.12c0.86,1.08,1.16,2.66,1.63,3.93c0.47,1.29,1.08,2.49,1.15,3.86c0.09,1.88,0.18,3.75,0.28,5.63l-1.72,5.27l-1.69,1.92l-6.16-3.63l3.59,15.5c5.4-0.37,10.81-0.74,16.21-1.11L67.39,598.6"/><path style="fill:#F8C20F;" d="M51.2,546.27c1.32-1.12,2.65-2.23,3.97-3.35c1.07-0.9,1.84-2.06,2.7-3.16c0.89-1.14,1.56-2.05,2.15-3.35c0.6-1.31,1.6-2.79,1.89-4.2c0.37-1.77,0.73-3.54,1.1-5.31c0.3-1.45,0.16-3.09,0.22-4.57c0.06-1.5-0.15-2.73-0.44-4.21c-0.13-0.64-0.25-1.29-0.38-1.93c-0.12-0.62-0.12-1.62-0.43-2.18c-0.85-1.54-1.7-3.09-2.55-4.63l-20.65,32.15c0.03,1.96-0.01,3.83-0.18,5.79c2.59,0.7,5.19,1.39,7.78,2.09L51.2,546.27"/><path style="fill:#F8C20F;" d="M64.35,575.06c0.08,2.71,0.16,5.41,0.24,8.12c0.61,0.59,1.22,1.18,1.83,1.77c1.35-0.79,2.51-1.43,3.61-2.53c1.2-1.2,2.06-2.11,2.89-3.56c1.5-2.63,2.73-5.33,3.2-8.35c0.5-3.22,0.64-6.09-0.42-9.21c-1.01-2.96-2.24-5.79-4.68-7.84c-0.59-0.5-1.18-1-1.78-1.49c-0.67-0.13-1.33-0.25-2-0.38c-1.55,5.28-3.28,10.42-5.49,15.46C62.61,569.71,63.48,572.39,64.35,575.06"/><path style="fill:#F8C20F;" d="M24.89,596.07c3.68-0.79,7.37-1,11.08-1.59c0.71-0.11,1.65,0.14,2.36,0.21c1.15,0.1,2.3,0.21,3.45,0.31c1.68,0.15,3.37,0.62,5.02,0.93l-8.74-26.53c-2.34,0.1-4.67,0.21-7.01,0.36l-1.64-0.72l-6.62,27.18L24.89,596.07"/><path style="fill:#F8C20F;" d="M57.38,588.38l1.72-5.27c-0.09-1.81-0.18-3.62-0.27-5.42c-0.07-1.38-0.58-2.5-1.06-3.81c-0.47-1.27-0.77-2.99-1.63-4.06c-1.12-1.41-2.25-2.83-3.37-4.24c-1.6-0.9-3.21-1.81-4.81-2.71c-0.71-0.4-1.95-0.42-2.74-0.59c-0.77-0.16-1.55-0.33-2.32-0.49l3.86,23.25c2.98,1.76,5.95,3.51,8.93,5.27L57.38,588.38"/><path style="fill:#F8C20F;" d="M14.23,584.33l2.15,1.6l6.61-11.07l-0.15-5.38l-2.02-0.03c-1.37,2.02-2.45,4.16-3.88,6.13c-1.43,1.98-2.73,3.99-3.96,6.1c0.29,0.79,0.58,1.58,0.87,2.37L14.23,584.33"/><path style="fill:#F8C20F;" d="M55.23,636.07l-1.97-1.83l-5.2,1.38l0,0.08c-2.29,0.49-4.63,1.21-6.97,1.44c-2.7,0.26-5.39,0.47-8.1,0.62l-1.12,1.88c-0.01-0.52-0.06-1.03-0.09-1.55c-3.67-0.78-7.3-1.52-10.9-2.57l-2.3,2.55l0.82,4.42l1.72,0.59c1,0.85,1.85,1.62,2.67,2.64c1.8-0.72,3.61-1.43,5.53-1.8l-0.19,0.32l1.57,0.69l1.94,2.26l0.82,0.01l2.13-2.05l2.08-0.91c1.42,0.11,2.7,0.3,4.09,0.6l1.31,1.28l1.62,0.1l1.52-2.06l1.69-1.02c1.31-0.09,2.33-0.04,3.62,0.19l0.96,1.09l-2.12,0.53l-0.53,1.07l0.48,2.01l1.66,0.33c0.99,1.1,1.76,1.72,3.04,2.48l1.31-1.25c-0.07-1.24-0.22-2.02-0.68-3.17l2.84-0.41l2.24,1.37l1.53-1.13l-6.34-6.69L55.23,636.07M57.55,642.49l0.4,1.54l-0.63-1.14l-3.59,1.64l0.19-2.15l1.1-1.32l2.13-0.12L57.55,642.49"/><polyline style="fill:#F8C20F;" points="44.8,646.28 43.7,646.27 43.84,651.21 45.46,651.6 46.8,650.07 46.76,648.45 44.8,646.28 "/><path style="fill:#F8C20F;" d="M33.14,647.49l-3.2-0.56l-2.14,0.67l0.04,2.32l2.82,1.25l0.79,2.99l1.15,0.45l1.72-0.8l0.03-3.1c1.05,0.1,2.07,0.11,3.12,0.11l1.03-0.7l0.43-1.52l-1.71-1.47L33.14,647.49"/><polyline style="fill:#F8C20F;" points="22.97,645.78 21.44,650.55 22.24,651.07 23.42,650.78 24.44,649.93 24.97,648.61 24.69,646.79 22.97,645.78 "/><path style="fill:#F8C20F;" d="M16.32,644.4l1.07-1.42l1.92-0.57l-0.26-0.85l-1.82-0.12c-1.47,1.69-2.8,3.18-3.87,5.14l-2.76,1.77l0.25,0.68l2.1,0.31l1.79-1.28l0.9-1.54l1.19,0.76l1.27,0.22l0.97-0.33l0.35-1.26l-0.28-0.68L16.32,644.4"/></g><path d="M34.54,650.94c0.4-0.07,0.92,0.13,1.31,0.2c0.5,0.08,1.05-0.06,1.54-0.12c1.19-0.13,1.36-1,1.66-2c0.29-0.99-1.04-1.75-1.68-2.13c-0.7-0.4-1.98-0.18-2.78-0.46c1.06-1.41,2.53-1.7,4.2-1.87c1.25-0.13,3.57,0.36,4.05,1.71c0.24,0.65-0.22,1.61-0.25,2.3c-0.03,0.66,0.34,1.84,0.74,2.38c0.38,0.52,1.58,1.12,2.2,0.92c0.75-0.24,1.27-1.02,1.27-1.8c-0.77,0.83-1.3,1.5-2.51,0.97c0.51-0.37,0.38-1.03,0.27-1.55c-0.19-0.89,0.04-1.82-0.22-2.7c1.04,0.07,2.05,1,2.23,2.02c1.02-1.05-1.48-2.46-0.89-3.73c0.15-0.32,0.69-0.77,0.99-0.95c0.79-0.47,1.68-0.78,2.6-0.82c1.2-0.05,1.71-0.01,2.6,0.8c-1.15,0.14-1.95,0.91-2.5,1.85c-0.23,0.39-0.36,0.84-0.17,1.29c0.32,0.78,0.59,0.85,1.34,1.25c0.44,0.23,0.99,0.21,1.45,0.44c0.43,0.22,0.71,0.79,1.1,1.1c0.81,0.67,2,1.6,2.92,0.5c0.79-0.95,0.46-2.32,0.2-3.37c-0.14-0.59,0.01-0.72,0.71-0.76c1.03-0.06,1.54,0.3,2.38,0.8c0.61,0.35,1.71,0.92,2.29,0.23c0.39-0.46,0.8-0.78,0.89-1.38c0.06-0.42-0.64-0.98-0.89-1.24c-0.7-0.73-1.37-1.49-2.05-2.22c-0.63-0.68-1.28-1.35-1.97-1.98c-0.63-0.58-1.41-1.03-1.64-1.9c-0.18-0.68-0.21-1.19-0.19-1.9c0.02-0.97-1.33-1.85-1.32-2.92c0.01-1.07,0.57-2.08,0.58-3.19c0.01-1.09-0.47-2.13-0.43-3.19c0.03-0.86,1.4-1.6,1.91-2.32c0.26-0.37,0.25-1.22,0.33-1.67c0.09-0.46-0.03-0.88-0.19-1.3c-0.01-0.02-0.02-0.04-0.03-0.06c1.47-0.45,2.8-0.8,4.07-1.7c0.96-0.68,1.54-2.99,1.07-4.05c-0.26-0.6-0.54-1.25-1.12-1.63c-0.14-0.09-0.52-0.4-0.7-0.34c-0.11,0.03-0.66,0.77-0.76,0.87c-1.18,1.1-2.71,1.3-4.26,1.33c0.41-0.73,1.37-0.8,2.01-1.23c-0.49-0.41-1.32-0.09-1.87,0.05c-0.94,0.24-1.25,0.6-1.73,1.43c-0.35,0.6-0.69,1.28-1.32,1.59c-0.77,0.38-1.51,0.74-2.37,0.87c0.88-0.78,1.93-1.25,2.52-2.28c0.63-1.11,0.93-2.02,1.92-2.88c1.14-0.99,3.38-1.38,4.82-1.73c0.49-0.12,0.86,0.11,1.31,0.25c-0.26,0.49-0.64,0.94-0.77,1.49c1.17-0.02,1.69-1.44,2.46-2.09c1.16-0.97,2.12-1.65,2.82-3.05c0.51-1.01,1.5-1.39,2.55-1.58c1.44-0.26,2.57-0.78,3.75-1.65c0.19,1.33-1.69,2.43-2.78,2.72c0.77,0.69,2.08-0.28,2.71-0.73c0.97-0.68,0.66-2.04,0.94-2.98c0.29-0.99,1.54-1.66,1.96-2.67c0.17-0.39,0.16-1.03,0.4-1.35c0.41-0.54,0.79-0.97,1.29-1.43c2.83-2.57,4.27-6.18,5.9-9.54c1.79-3.68,4.79-6.67,6.3-10.49c0.79-1.97,0.67-4.24,1.01-6.31c0.14-0.93,1.49-2.05,2.05-2.75c0.99-1.21,1.7-2.64,2.19-4.13c0.36-1.11,0.37-3.42,1.71-3.85c1.08,4.04,1.12,8.45,1.7,12.59c0.59,4.24,1.01,8.66,1.07,12.94c0.01,1.14-0.49,2.35-1.18,3.28c-0.38,0.5-0.98,0.74-1.5,1.05c-0.58,0.34-0.89,1-1.3,1.5c-0.74,0.91-1.06,2.21-0.77,3.37c0.28,1.1,1.08,2.49,2.33,2.53c0.09-1.09-0.39-1.97,0.28-3c0.6-0.91,1.6-1.27,2.52-1.72c0.18,1.06,0.12,1.87-0.31,2.88c-0.23,0.54-0.46,1.04-0.56,1.61c-0.13,0.67,0.16,1.09,0.42,1.72c0.35,0.84,0.92,1.56,1.33,2.37c0.53,1.02,0.73,2.16,1.24,3.19c0.66-0.4,0.7-1.55,0.82-2.22c0.22-1.25,0.83-2.45,1.41-3.57c0.61-1.19,0.57-1.94-0.19-3.06c-0.64-0.95-1.18-1.96-1.15-3.14c1.05,0.01,2.08,0.42,2.69,1.32c0.31,0.46,0.79,0.93,0.86,1.48c0.08,0.67,0.15,1.3,0.14,1.98c1.16-0.01,1.64-1.42,1.91-2.32c0.34-1.13-0.02-2.13-0.41-3.18c-0.37-0.97-1.32-1.62-2.14-2.19c-0.93-0.64-1.59-1.5-2.09-2.51c-0.51-1.04-0.38-2.2-0.37-3.34c0.04-4.37,0.79-8.72,0.91-13.09c0.05-2.07,0.37-4.23,0.82-6.25c0.5-2.27,0.31-4.43,0.56-6.71c0.13-1.24,1.21-1.73,1.92-2.62c0.48-0.6,0.41-1.57,0.44-2.28c0.02-0.77,0.52-1.6-0.31-1.8c-0.51-0.14-1-0.51-0.99-1.08c0-0.22-0.54-0.13-0.75-0.13c0.64-1.88,0.56-2.97-0.2-4.76c0.54-0.1,1.09-0.35,1.61-0.51c0.63-0.19,1.33-0.36,0.71-1c-0.46-0.47-0.82-0.83-1.16-1.41c-0.32-0.54-0.71-0.96-1.36-1.09c0.13-0.84,1.8-1.58,1.52-2.52c-0.14-0.45-0.2-1.16-0.53-1.5c-0.35-0.37-0.9-0.83-0.86-1.4c0.26-3.25,0.71-6.47,0.97-9.72c0.09-1.14,0.09-2.17,1.11-2.92c1.9-1.39,3.65-3.01,4.67-5.18c0.47-0.99,0.56-1.85,0.63-2.93c-0.46,0.51-0.41,1.46-0.82,2.07c-0.52,0.77-1.06,1.51-1.55,2.3c-0.79,1.27-2.51,2.67-3.96,3.07c1.47-1.31,2.78-2.55,3.96-4.16c0.6-0.82,1.06-1.69,1.53-2.58c0.29-0.56,0.73-1.81,0.61-2.45c-0.64,0.64-0.96,1.53-1.4,2.29c-0.61,1.07-1.31,2.16-2.08,3.13c-0.71,0.91-1.46,1.58-2.41,2.22c-0.76,0.51-2,1.24-2.95,1.23c-1.28-0.01-2.18-0.69-3.05-1.48c-0.28-0.26-0.42-0.95-0.42-1.33c0.01-0.8,0.25-0.99,0.76-1.62c0.23-0.28,0.72-0.69,1.11-0.49c0.46,0.23,1.36,0.45,1.47,0.97c0.1,0.44-0.21,1.03-0.63,1.2c-0.59,0.25-1.11-0.33-0.45-0.55c0.34-0.12,0.44-0.58,0.51-0.9c-0.89-0.08-2.36,0.8-1.52,1.83c0.68,0.84,2.08,0.49,2.77-0.12c1.65-1.45,3.37-2.6,4.46-4.57c2.15-3.89,3.65-8.4,3.7-12.89c0.02-2.23-0.17-4.49-0.17-6.73c0-2.11-0.47-4.12-0.9-6.18c-0.87-4.18-3.53-8.5-7.22-10.7c-1.64-0.97-3.27-1.5-5.13-1.87c-1.73-0.35-3.67,0.04-5.38,0.35c-0.88,0.16-1.67,0.59-2.45,1c-0.79,0.42-1.71,0.38-2.52,0.73c-0.92,0.4-1.35,1.42-1.87,2.21c-0.38,0.57-0.18,2.12-0.19,2.77c-1.15-1.68,0.16-3.41,1.1-4.81c0.64-0.96,0.1-1.67-0.72-2.23c-0.7-0.47-1.44-1.08-2.29-1.23c0.19,1.34,1.28,2.4,1.46,3.77c-0.66-0.01-1.34,0.02-2-0.05c-0.68-0.08-1.46-0.57-1.37,0.43c0.06,0.64,0.82,1.15,1.15,1.68c0.37,0.6-0.62,1.21-1.04,1.45c-0.48,0.28-1.28,0.7-0.45,1.12c0.49,0.25,1.28,0.18,1.71,0.51c1.08,0.82-0.56,2.62-0.84,3.59c0.63,0.33,2.27-0.27,2.81-0.68c0.54-0.42,0.45,0.4,0.44,0.66c-0.01,1.36-0.47,2.71-0.54,4.05c-1.4-0.01-2.53-2.27-3.04-3.33c-0.67-1.37-1.51-2.93-1.57-4.5c-0.06-1.71,0.04-3.23,0.54-4.88c0.42-1.38,1.71-2.88,1.75-4.32c-1.62,0-2.38,3.08-2.76,4.29c-0.48,1.54-0.54,3.73-0.22,5.33c0.16,0.85,0.21,1.95,0.55,2.74c0.57,1.32,1.2,2.64,2.04,3.82c0.67,0.93,2.18,1.84,2.19,3.1c-1.69-0.21-3.17-2.62-3.87-4c-0.8-1.59-1.67-3.55-1.78-5.35c-0.12-1.93-0.04-3.87,0.56-5.71c0.29-0.9,0.57-1.81,1.02-2.64c0.45-0.8,1.11-1.62,1.04-2.59c-0.84,0.47-1.32,1.65-1.82,2.43c-0.72,1.14-1.29,2.03-1.47,3.38c-0.28,2.11-0.24,4.1,0,6.21c0.26,2.23,1.29,4.34,2.49,6.19c0.86,1.34,2.25,2.27,3.01,3.66c0.24,0.44-0.09,1.13-0.24,1.56c-0.07,0.2-0.16,0.38-0.23,0.58c-0.26-0.29-0.54-0.57-0.56-0.97c-0.03-0.38,0.06-0.89-0.11-1.22c-0.48-0.95-1.38-0.18-1.81,0.42c-0.27-0.3-0.52-0.63-0.81-0.89c-0.51-0.45-0.59-0.45-1.1-0.01c-0.61,0.52,0.79,1.56,1.15,1.89c-0.61,0.1-1.62,0.77-1.28,1.52c0.41,0.9,1.64-0.2,1.77-0.77c0.38,0.37,0.76,0.76,1.24,1c0.43,0.22,1.03,0.11,0.99,0.77c-0.06,1.11-0.74,2.13-0.79,3.24c-1.36-0.05-2.76-1.31-3.75-2.16c-1.22-1.05-2.23-2.11-3.14-3.45c-0.86-1.26-1.62-2.55-2.14-3.99c-0.46-1.28-1.06-2.89-1.07-4.26c-0.35,0.3-0.62,0.67-0.9,1.03c-0.54,0.68-0.08,0.74,0.29,1.46c0.51,0.98,0.79,2.08,1.28,3.08c0.99,2.04,2.24,3.91,3.79,5.55c0.78,0.82,1.63,1.57,2.56,2.23c0.82,0.59,1.88,1,2.26,2.02c0.17,0.46-0.79,0.43-1.07,0.31c-0.57-0.24-1.1-0.57-1.64-0.88c-0.82-0.47-1.64-1.23-2.31-1.9c-1.44-1.42-2.77-2.93-3.84-4.67c-0.91-1.45-2.19-3.76-2.19-5.51c-0.73,0.6-1.47,1.85-1.78,2.73c1.85,0.4,2.88,2.67,3.8,4.11c0.61,0.95,1.22,1.94,2.01,2.75c0.84,0.85,1.81,1.55,2.35,2.65c0.38,0.77-4.19,3.85-4.62,4.17c-1.39,1.04-2.73,2.13-4.08,3.23c-1.14,0.93-2.85,1.81-3.67,3.05c-0.84-0.99-1.25-2.27-1.65-3.48c-0.45-1.37-1.04-2.56-1.68-3.85c-0.12-0.25-0.28-0.27-0.48-0.07c-0.34,0.33-0.42,0.3-0.17,0.71c0.54,0.9,1.04,1.73,1.47,2.69c1.33,2.97,1.72,6.15,2.12,9.35c0.19,1.46-0.15,3.25-0.3,4.72c-0.17,1.66-0.55,3.29-1.06,4.87c-1.04,3.17-2.42,6.11-4.43,8.79c-0.97,1.3-2.22,2.32-3.41,3.42c-1.25,1.15-2.51,2.31-3.97,3.18c-0.91,0.54-1.9,1.23-2.92,1.54c-0.58,0.18-0.99,0.37-1.57,0.25c-2.13-0.45-4.29-1.01-6.32-1.81c-0.41-0.15,0.18-1.17,0.43-1.41c0.67-0.66,1.74-0.86,2.61-1.12c1.28-0.38,2.44-1.02,3.56-1.74c1.9-1.21,3.63-2.61,5.26-4.16c2.92-2.79,5.17-6.75,5.91-10.71c0.75-4.01,0.87-8.46-0.89-12.26c-0.7,0.4-0.08,1.81,0.11,2.34c0.42,1.19,0.56,2.42,0.6,3.67c0.05,2.18-0.03,4.25-0.55,6.39c-1.09,4.54-3.74,7.94-7.02,11.15c-1.61,1.57-3.35,2.83-5.34,3.87c-0.94,0.49-1.94,0.86-2.94,1.2c-0.45,0.15-1.23,0.65-1.59,0.28c-0.64-0.66,1.14-0.95,1.5-1.07c1.39-0.48,2.73-1.12,3.99-1.87c2.4-1.44,4.5-3.31,6.36-5.39c1.28-1.44,2.17-3.14,3.13-4.79c0.98-1.7,1.19-3.63,1.56-5.51c0.33-1.68,0.23-3.71-0.06-5.38c-0.19-1.07-0.44-2.06-0.75-3.1c-0.12-0.58-0.91,0.61-0.89,0.59c-0.43,0.43-0.8,1.28-0.9,1.87c0.19-0.06,0.71,0.06,0.57,0.36c-0.29,0.6-0.31,0.78-0.98,0.71c-0.62-0.05-0.45-0.08-0.8,0.36c-1.13,1.41-2.74,3.48-3.1,5.27c0.51,0.02,1.19,0.36,1.41,0.84c0.36,0.81-0.07,1.02-0.61,1.66c-0.34,0.4-1.19-0.01-1.56-0.19c-0.15-0.07-0.61-0.38-0.76-0.32c-0.14,0.06-0.82,1.32-0.77,1.49c0.02,0.05,0.48,0.23,0.57,0.3c0.44,0.3,0.82,0.9,0.75,1.47c-0.19,1.68-2.17,0.89-3.1,0.72c0.41,0.77,1.81,1.41,2.6,0.78c0.5-0.4,0.92-0.59,1.07-1.21c0.18-0.73,0.26-1.06,0.1-1.79c0.45-0.07,1.06-0.33,1.5-0.23c-0.35,0.54-0.76,1.2-0.53,1.87c0.12,0.36,0.63,0.66,0.91,0.91c0.24,0.22,0.84-0.01,1.15-0.05c0.99-0.13,0.46-1.23,0.31-1.81c-0.2-0.8-0.8-0.91-1.58-0.92c0.59-0.81,0.84-1.58,0.86-2.59c0.01-0.98-1.07-1.46-1.56-2.17c0.62-0.15,1.4-0.18,1.79-0.76c0.41-0.62,0.23-2.62,0.75-2.97c0.16-0.1,0.79,0.2,1,0.21c0.74,0.02,1.25-0.46,1.75-0.93c0.33,1.39,0.22,2.83,0.21,4.25c-0.45-0.2-1-0.63-1.49-0.65c-0.29-0.01-0.76,0.27-1.03,0.37c-0.39,0.14-0.3,0.29-0.34,0.71c-0.06,0.67-0.21,1.38,0.61,1.67c0.55,0.2,1.43-0.23,1.98-0.36c-0.59,2.11-1.04,3.92-2.25,5.77c-2.2,3.38-4.89,6.46-8.48,8.43c-1.06,0.58-5.03,3.16-4.91,0.38c-1.13,0.63-0.47,1.54-0.58,2.53c-0.1,0.9-0.05,2.49-1.22,2.7c-0.12-0.77-0.21-1.48-0.23-2.25c-1.04,0.6-1.6,2.06-2.23,3.03c-1,1.53-2.01,3.06-3.02,4.58c-2.07,3.12-4.14,6.25-6.15,9.42c-2.04,3.23-4.11,6.45-6.13,9.7c-1.85,2.98-4.09,5.86-5.61,9.02c0.53-0.21,1.59-0.43,1.8-1.07c0.23-0.72,0.26-1.42,0.48-2.15c0.44,0.61,0.81,1.9,0.72,2.65c-0.1,0.92-1,1.59-1.03,2.59c0.86-0.28,1.57-0.92,2.27-1.48c0.29,1.29-1.42,2.7-2.26,3.38c-0.44,0.36-1.39-0.04-1.71-0.39c-0.57-0.63-1.03-1.15-1.05-2.04c-0.74,0.43-1.11,1.32-1.51,2.03c-0.56,1-1.3,1.9-1.79,2.93c0.72-0.14,1.37,1.14,1.72,1.62c0.47,0.64,1.15,1.3,0.99,2.16c-1.19-0.15-2.71-2.38-2.71-3.53c-0.48,0.4-1.37,1.5-0.71,1.95c0.72,0.49,1.36,1.41,1.7,2.19c0.3,0.7,0.2,0.77-0.13,1.47c-0.66,1.36-2.14,2.62-3.22,3.64c-1.29,1.21-2.72,2.28-4.21,3.24c-0.39,0.25-0.8,0.41-1.23,0.6c-0.39,0.16-0.74-0.33-0.93,0.04c-0.36,0.69-0.91,1.29-1.17,2.04c0.17-0.08,0.33-0.16,0.5-0.24c-0.22,0.71-0.73,1.79-0.36,2.53c0.47,0.95,0.95,1.87,1.34,2.85c0.74,1.86,3.12,2.69,4.99,2.51c0.43-0.05,0.9-0.19,1.33-0.11c0.38,0.07-0.05,1.11-0.09,1.35c-0.16,1.03,0.26,1.98,0.84,2.79c1.25,1.74,3.65,1.7,5.55,1.72c-0.06,1.1-1.18,1.79-1.4,2.86c-0.08,0.42-0.19,0.87-0.03,1.29c0.24,0.61,0.7,0.08,1.2-0.03c1.74-0.37,2.26,1.52,2.47,2.85c0.11,0.68,0.16,1.38,0.27,2.06c0.19,1.19,1.14,1.97,1.95,2.77c0.87,0.86,1.2,1.59,1.34,2.81c0.24,2.1,1.05,4.25,0.02,6.24c-0.35,0.66-0.67,1.11-1.19,1.64c-0.53,0.53-0.42,1.1-0.62,1.8c-0.45,1.53-1.63,2.09-2.78,3.06c-1,0.85-1.11,2.28-1.88,3.26c-0.54,0.7-0.95,1.03-1.69,1.51c-0.54,0.34-1.36,0.27-1.98,0.33c0,1.48,1.74,2.08,2.98,2.03c1.4-0.06,2.59-1.37,2.78-2.71c0.96,0.32,1.81,0.93,2.87,0.68c0.78-0.19,0.79-0.33,1.04-1.09c0.17-0.52,0.04-0.97-0.27-1.4c-0.32-0.43-0.59-0.89-1.08-1.16c-0.21-0.11-0.45-0.18-0.67-0.23c-0.37-0.09-0.03-0.55,0.2-0.62c0.95-0.29,1.97-0.6,2.91-0.08c0.45,0.25,1.12,0.46,1.41,0.9c0.25,0.38,0.58,1.14,0.38,1.55c-0.22,0.45-0.64,0.79-0.95,1.19c-0.38,0.49-0.51,1.01-0.58,1.62c-0.11,0.94,0.01,2.32,1.04,2.73c1.24,0.5,2.1-0.44,2.93-1.24c1.09-1.05-0.78-3.43,0.23-4.31c0.44-0.38,0.83-0.57,1.38-0.72c1.11-0.3,2.1-0.5,3.19-0.07c0.85,0.34,1.79,0.92,1.98,1.91c-1.59-0.02-3.98-0.25-4.39,1.7c-0.49,2.32,2.55,1.89,3.2,3.44c0.32,0.77,0.3,2.71,1.07,2.97c0.37,0.12,0.84,0.24,1.23,0.19c0.77-0.11,1.69-0.52,1.84-1.4C34.69,652.6,34.55,651.88,34.54,650.94M31.27,652.16c0.35,0.22,0.67,0.5,0.99,0.76c0.01-0.75,0.02-1.5,0.02-2.25c-0.63,0.21-2-0.21-2.65-0.34c-0.64-0.12-1.08-0.27-1.67-0.55c-0.18-0.09,0-1.41,0-1.65c0.02-0.6,2.09-1.02,2.51-0.96c1.02,0.16,2.04,0.83,3.05,0.72c1.34-0.15,2.91-0.91,4.22-0.21c0.2,0.11,0.94,0.89,0.91,1.1c-0.07,0.6-0.03,0.87-0.47,1.26c-0.48,0.42-0.73,0.67-1.41,0.67c-1.04-0.01-2-0.88-2.99-0.77c0.02,0.62,0.25,1.21,0.36,1.82c0.07,0.41,0.23,1.69-0.3,1.89c-0.86,0.32-1.19,0.57-2.03,0.22C31.26,653.62,31.31,652.66,31.27,652.16M21.79,650.56c0.4-0.76,0.48-1.62,0.7-2.44c0.08-0.3,0.3-1.36,0.59-1.55c0.32-0.2,1.05,0.26,1.25,0.47C25.57,648.41,23.66,651.97,21.79,650.56M53.56,648.64c0.33,0.17,0.66,0.34,0.99,0.51c-0.35-0.67-0.64-1.51-0.73-2.26c-0.49,0.08-0.94,0.46-1.39,0.66c-0.89,0.38-1.12,0.6-1.96,0.12c-0.54-0.3-0.27-1.34-0.26-1.92c0-0.36,1.42-0.58,1.64-0.63c-0.17,0.28-0.46,0.37-0.76,0.49c0.35,0.19,0.77,0.24,1.15,0.25c0.16,0,0.71,0.11,0.84,0.02c0.16-0.11,0.11-0.47,0.26-0.62c0.24-0.24,0.59-0.29,0.91-0.32c0.77-0.07,1.37-0.4,2.1-0.53c-0.31-0.18-0.65-0.2-1-0.26c0.43-0.62,1.63-0.45,2.26-0.48c-0.04,0.59,0.04,1.42-0.57,1.74c-0.58,0.3-1.56,0.15-2.2,0.23c0.4,0.54,0.85,1.14,1.11,1.76c0.32,0.77,0.26,1.39,0.2,2.19c-0.02,0.2-0.63,0.53-0.77,0.65c-0.32,0.25-0.42,0.31-0.81,0.13C53.96,650.1,53.55,649.31,53.56,648.64M11.06,648.7c0.82-1.01,2.06-1.56,2.93-2.54c0.97-1.1,1.57-2.46,2.62-3.5c0.51-0.5,1.58-1.01,2.28-0.63c-0.42,0.37-1.04,0.37-1.47,0.71c-0.65,0.52-1.16,0.85-1.39,1.67c-0.31,1.11,2.39,1.54,3.08,1.13c0.39,0.79-0.11,1.8-1.02,1.88c-0.91,0.07-1.88-0.6-2.24-1.41c-0.7,0.79-1.08,1.8-2.02,2.36C13.06,648.8,11.88,649.15,11.06,648.7M32.06,648.66c-0.63-1.12-3-1.05-4-0.54c0.37,0.62,1.23,0.21,1.78,0.33C30.52,648.59,31.38,649,32.06,648.66M37.81,648.73c-0.67-1.2-2.49-0.59-3.5-0.29c0.36,0.34,0.95,0.23,1.38,0.17C36.43,648.5,37.09,648.72,37.81,648.73M33.08,646.93c-0.8-1.35-1.85-2.53-3.47-2.79c0.83-0.64,2.81-0.22,3.78-0.21c1.58,0.02,3.15-0.21,4.72-0.2c-0.59,0.73-1.72,0.62-2.42,1.19c-0.5,0.41-1,0.82-1.5,1.23C33.79,646.48,33.71,647.02,33.08,646.93M57.88,642.44c1,0.34,1.44,1.3,1.99,2.12c0.11,0.16,1.71,2.07,1.4,2.19c-0.98,0.37-1.97-0.4-2.3-1.35C58.64,644.44,58,643.44,57.88,642.44M50.58,646.61c0.22-0.22,0.56-0.4,0.51-0.75C50.8,645.99,50.21,646.27,50.58,646.61M39.61,643.99c0.74-0.59,2.6-0.63,3.51-0.72c1.42-0.14,2.82-0.41,4.25-0.46c-0.55,1.03-1.86,1.37-2.48,2.38c-0.26,0.42-0.18,0.57-0.7,0.54c-0.78-0.04-1.43-0.86-2.12-1.12C41.24,644.32,40.5,644,39.61,643.99M20.62,642.55c0.92-0.73,2.48-0.09,3.46,0.18c1.46,0.41,3,0.91,4.53,0.91c-0.49,0.45-1.27,0.35-1.85,0.63c-0.81,0.39-1.64,0.72-2.52,0.91c-0.56,0.11-1.03-0.65-1.32-1.01C22.37,643.48,21.47,642.82,20.62,642.55M54.11,643.9c0.11-0.68,0.03-1.84,0.63-2.27c0.63-0.45,1.62-0.68,2.28-0.11c0.85,0.73-0.35,1.05-0.95,1.31C55.41,643.12,54.82,643.77,54.11,643.9M48.37,642.84c0.24-0.95,2.92-1.28,3.65-1.6c1.05-0.47,2.69-1.71,3.89-1.07c-0.41,0.52-1.15,0.7-1.56,1.24c-0.5,0.67-0.74,1.44-0.98,2.23c-0.77-0.14-1.38-0.76-2.18-0.89C50.21,642.58,49.34,642.62,48.37,642.84M36.61,643.46c-0.35-0.67-0.21-1.57,0.02-2.25c-0.43,0.21-0.82,0.45-1.26,0.65c-0.66,0.3-1.24,0.22-1.97,0.21c-0.29,0-1.42-0.63-1.06-0.94c0.4-0.34,0.97-0.54,1.29-0.95c-0.38,0.2-0.83,0.24-1.25,0.24c-0.01-1.12,1.69-1.17,2.45-0.91c1.11,0.38,1.85,1.19,2.83,1.78c0.66,0.4,1.47-0.17,2.18-0.1c0.77,0.07,1.56,0.75,2.34,0.46c0.51-0.19,1.05-0.38,1.48-0.74c0.15-0.13,1.19-0.83,0.95-1.15c-0.44-0.6-0.66-0.94-1.34-1.22c-0.93-0.39-1.77-0.23-2.55,0.4c-1.06,0.85-1.88,0.93-3.21,0.98c-0.58,0.03-0.94-0.05-1.06-0.71c-0.13-0.69,0.28-0.88,0.81-1.16c0.99-0.53,2.37-0.3,3.46-0.45c1.48-0.21,2.95-0.46,4.42-0.75c1.5-0.31,3-0.66,4.47-1.11c0.81-0.25,2.51-1.2,3.38-0.96c0.75,0.21,0.99,0.17,0.84,0.98c-0.09,0.48-0.41,1.08-0.91,1.28c-0.99,0.39-2.32-0.23-3.34-0.2c-0.83,0.02-1.42,0.81-2.01,1.29c-0.53,0.42-1.65,0.51-1.86,1.23c-0.12,0.41,0.23,0.98,0.63,1.12c0.34,0.11,0.71-0.04,1.03-0.13c0.64-0.17,1.31-0.02,1.97-0.07c0.71-0.05,1.04-0.07,1.64-0.43c0.47-0.28,0.9-0.66,1.43-0.84c0.46-0.16,1.03-0.31,1.5-0.42c0.5-0.11,1.1-0.2,0.87,0.46c-0.33,0.9-1.79,1.22-2.6,1.48c-2.32,0.76-4.6,1.62-7.03,2.01C42.32,642.98,39.43,643.02,36.61,643.46M35.62,643.2c-0.35-0.18-0.56-0.16-0.4-0.56c0.09-0.22,0.45-0.4,0.66-0.44C35.92,642.58,35.84,642.9,35.62,643.2M30.62,642.9c0-0.42,0.01-0.83,0.01-1.25c0.31,0.06,0.57,0.3,0.66,0.6C31.52,642.97,31.27,642.91,30.62,642.9M29.12,642.88c0.11-0.47,0.22-0.89,0.76-0.99C29.88,642.74,30,642.96,29.12,642.88M27.62,642.62c0.06-0.34,0.08-0.69,0.26-1c0.33,0.2,0.49,0.63,0.49,1C28.12,642.62,27.87,642.62,27.62,642.62M26.37,642.61c-0.28-0.51-0.15-0.98,0.02-1.5c-0.42-0.03-1.32,0.05-1.61-0.38c-0.34-0.52,0.49-1.13,1-1.02C26.66,639.88,27.21,642.07,26.37,642.61M23.38,642.07c-0.18-0.31-0.19-0.66-0.24-1C23.61,641.16,23.85,641.82,23.38,642.07M21.88,641.81c-0.06-0.13-0.56-0.85-0.49-1.01c0.09-0.19,0.85-0.22,1-0.24C22.36,641.04,22.31,641.52,21.88,641.81M20.38,641.54c-0.2-0.38-0.24-0.82-0.24-1.25c0.25,0,0.5,0.01,0.75,0.01C20.86,640.78,20.81,641.25,20.38,641.54M40.64,640.75c0.03-0.84,0.68-1,1.35-1.26c0.65-0.25,1.22,0.04,1.85,0.27c0.19,0.07-0.19,0.57-0.28,0.7c-0.21,0.33-0.66,0.41-1,0.55C41.86,641.29,41.34,640.91,40.64,640.75M27.9,639.87c-0.27-0.41-0.86-2.01,0.02-2C28.69,637.88,28.44,639.55,27.9,639.87M49.91,639.76c-0.22-0.04-0.78-0.03-0.95-0.17c-0.19-0.16-0.29-0.73-0.39-0.96c-0.11-0.28,1.05-0.81,1.3-0.81c0.54-0.01,1.38,0.03,1.26,0.72C50.98,639.34,50.69,639.52,49.91,639.76M30.65,639.65c0-0.5,0.01-1,0.02-1.5C31.55,638.31,31.26,639.33,30.65,639.65M29.15,639.63c0-0.5,0.01-1,0.02-1.5c0.73,0.14,0.7,0.93,0.73,1.51C29.65,639.64,29.4,639.64,29.15,639.63M23.41,639.32c-0.54-0.84-0.46-1.57-0.22-2.5C23.98,637.21,24.19,638.81,23.41,639.32M19.16,639.28c-0.24-0.39-0.87-1.26,0.01-1.25C19.79,638.04,19.56,639.02,19.16,639.28M26.16,638.85c0-0.42,0.01-0.83,0.01-1.25C26.86,637.75,27.08,639.09,26.16,638.85M24.66,638.84c-0.24-0.46-0.23-0.99-0.23-1.5C25.43,637.37,25.71,639.04,24.66,638.84M49.17,638.84c0.41-0.2,0.81-0.36,1.25-0.49C50.03,638.03,48.74,638.23,49.17,638.84M35.17,638.2c0.29,0.13,0.59,0.2,0.74,0.51C35.57,638.73,35.22,638.57,35.17,638.2M21.67,638.56c-0.21-0.4-0.21-2.62,0.52-1.99c0.19,0.16,0.22,1.08,0.17,1.35C22.28,638.38,22.23,638.67,21.67,638.56M20.42,637.79c0-0.33,0.01-0.67,0.01-1C20.74,637.08,20.83,637.55,20.42,637.79M54.43,637.4c-0.05-0.25,0.13-0.88,0.51-0.49C55.31,637.29,54.68,637.45,54.43,637.4M22.95,634.82c-0.55,0.3-0.71,0.69-1.15,0.02c-0.33-0.48-0.67-1-0.79-1.58c-0.27-1.34-0.26-2.61-0.25-3.97c0.59,0.37,0.88,1.37,0.98,2.01c0.52-0.95,0.58-2.2,0.79-3.24c0.76,0.21,1.24,1.21,1.73,1.77c-0.11-1.08,1.21-0.55,1.76-0.7c1.13-0.31,1.18-0.92,1.45-1.99c0.11-0.4,0.48-0.36,0.65-0.04c0.29,0.51,0.01,1.11-0.28,1.53c-0.57,0.85-1.54,1.17-2.09,1.97c0.95-0.41,2-1.32,3.02-1.47c-0.01,0.68,0.12,1.71-0.39,2.25c-0.48,0.51-1.33,0.58-1.98,0.71c-0.82,0.16-1.6,0.61-2.44,0.62c-0.87,0-1.7-0.35-1.72-1.39c-0.57,1.15,0.36,2.13,0.22,3.25c0.11-0.21,0.19-1.18,0.26-1.25c0.21-0.18,1.44-0.05,1.81-0.1c1.08-0.16,2.09-0.57,3.14-0.86c2.3-0.64,2.04-3.95,1.74-5.77c-0.36-2.14-0.1-4.28-0.4-6.4c-0.05-0.39,0.2-1.15,0.49-1.41c0.53-0.48,0.97-0.2,1.57,0.02c0.54,0.19,0.94,0.44,1.43,0.75c0.45,0.27,1.17,0,1.63-0.1c-0.13,0.43-0.18,1.12-0.56,1.38c-0.48,0.31-1.09-0.25-0.96,0.61c1.25,0.03,2.11-1.02,3.26-1.31c1.19-0.3,2.49-0.68,3.25-1.72c0.44-0.61,0.88-1.21,1.33-1.82c0.45-0.62,0.91-0.82,1.58-1.13c1.32-0.62,2.05,1.45,3.13,1.62c0.02-2.07-1.19-4.26-3.51-4.29c-0.77-0.01-1.53,0.12-2.29,0.26c-0.66,0.12-1.7,0.06-2.27,0.42c-0.53,0.32-1.06,0.65-1.61,0.94c-0.78,0.41-1.73,0.21-2.56,0.22c-1.2,0.01-2.4,0.05-3.61,0.04c-1.26-0.02-2.11-0.35-3.14-1.04c-0.62-0.42-1.74-1.54-1.95-2.26c-0.29,0.48-0.88,0.34-0.75-0.26c-0.33,0.09-0.66,0.19-1,0.24c0.04-0.16-0.03-0.34,0-0.5c-0.45,0.12-0.88,0-1.25-0.26c0.06,0.34-0.07,0.94-0.44,0.56c-0.21-0.21-0.37-0.58-0.43-0.87c-0.16-0.76-0.4-1.47-0.61-2.21c-0.27,0.47-0.72,1.35-1.27,1.49c0.05-0.54,0.1-0.99-0.16-1.5c-0.22-0.43-0.63-0.76-0.86-1.18c-0.31-0.58-0.07-0.86,0.21-1.43c0.26-0.51,0.36-1.04,0.58-1.56c0.25-0.6,0.7-0.64,1.28-0.84c0.46-0.15,0.82,0.31,1,0.73c0.48,1.1,0.51,2.17,0.21,3.31c-1.01-0.93-0.73-2.37-1.14-3.56c-0.1-0.28-0.2-0.2-0.49-0.21c-0.17,0-0.2,0.48-0.23,0.62c-0.5,2,2.06,2.99,2.6,4.65c0.42-0.78,0.33-1.88,0.53-2.74c-0.25-0.04-0.5-0.05-0.75-0.01c0-0.33,0.01-0.67,0.01-1c0.36,0.05,0.58,0.4,0.49,0.76c0.3-0.54,0.26-1.15,0.27-1.75c0.5,0.32,0.83,1.45,0.73,2.01c0.61-1.28-0.24-2.06-0.47-3.25c1.29,0.04,2.32,1.86,2.22,3.02c1.07-1.93-1.45-3.4-1.44-5.27c0.65,0.16,1.05,1.07,1.35,1.6c0.44,0.76,0.97,1.53,1.11,2.42c0.59-1.07-0.63-2.38-1-3.34c-0.24-0.63-0.36-1.59,0.16-2.1c0.4-0.4,1.62-0.73,1.31,0.19c-0.22,0.66-0.39,1.28,0.21,1.7c0.67,0.48,1.07,0.82,1.31,1.63c0.2,0.69,0.27,1.4,0.28,2.12c0.01,0.61,0.32,1.21,0.21,1.83c0.28-0.51,0.14-1.13,0.12-1.68c-0.03-0.69,0.25-1.34,0.41-2c0.33-1.31-0.24-2.64-0.7-3.81c1.41-0.69,2.33,1.03,2.1,2.22c-0.29,1.55-0.65,2.97-0.42,4.55c0.37-0.69,0.29-1.52,0.51-2.26c0.27-0.92,0.53-1.84,0.93-2.72c0.79-1.74,2.91-2.42,4.64-2.7c-0.32,0.64-1.08,0.71-1.66,0.99c-0.82,0.39-1.31,0.87-1.73,1.73c-0.73,1.48-1.37,2.82-1.43,4.48c0.28-0.41,0.23-0.94,0.45-1.37c0.35-0.69,0.81-0.41,1.06,0.13c0.35-1.2,1.35-1.97,2.28-2.73c-0.79-0.1-1.48,0.37-2.25-0.02c0.15-0.41,0.41-0.86,0.77-1.12c0.55-0.4,1.25-0.52,1.78-0.91c0.57-0.42,1.2-0.74,1.54-1.36c0.28-0.52,0.21-1.25,0.21-1.82c-0.74,0.16-0.99,1.14-1.8,0.96c-0.2-0.04-0.38-0.9-0.26-1.08c0.27-0.42,0.71-0.45,1.18-0.59c0.95-0.3,1.54,0.61,1.88,1.31c0.38,0.79,0.08,1.56,0.22,2.38c0.12,0.68,1.35,1.14,1.28,1.88c-0.3,2.68-1.24,5.12-2.12,7.65c1.01-1.11,1.24-2.42,1.73-3.79c0.49-1.38,1.92-1.93,2.59-3.16c-0.45,0.36-0.9,0.73-1.51,0.73c0.02-1.55-0.79-2.25-1.46-3.51c0.9-0.43,2.23,0.59,2.23,1.52c0.5-0.96-0.28-1.72-0.72-2.51c1.19,0.23,1.32,0.21,1.69,1.38c0.23,0.71-0.05,1.69-0.23,2.39c0.39-0.38,0.77-0.73,1.26-0.99c0.18,0.89-0.66,1.98-1.03,2.74c1.03-1.06,1.85-2.71,1.79-4.23c2.28,0.1,1.11,3.32,0.7,4.51c0.52-0.57,1.25-2.63,2.06-2.73c0.32-0.04,0.82,0.31,0.79,0.64c-0.03,0.34,0.07,1.04-0.1,1.33c-0.2,0.35-0.88,0.69-1.2,0.93c-0.6,0.46-1.21,1.05-1.33,1.83c1.02-1.41,2.35-1.73,4.02-1.71c-0.49,0.84-2.03,1.04-2.77,1.72c0.64-0.22,1.42-0.65,2.1-0.39c0.45,0.18,0.4,0.22,0.26,0.66c-0.11,0.34-0.26,0.66-0.38,1c0.76-0.59,2.08-1.35,2.82-0.49c0.55,0.64,0.47,0.78-0.17,1.32c-0.69,0.57-1.61,0.81-2.37,1.29c-0.74,0.47-1.37,1.06-1.97,1.69c-0.65,0.68-0.32,2.34-0.13,3.17c0.19-0.78-0.01-2.77,1.03-2.99c-0.01,0.59,0.13,1.18,0.23,1.75c0.48-0.88,0.24-2.76,1.53-2.98c0.06,0.91-0.03,1.86,0.72,2.51c0.01-1.12-0.12-2.63,1.03-3.24c-0.01,0.77,0.16,1.57,0.21,2.34c0.06,0.86-0.71,1.42-1.23,1.97c-0.5,0.53-1.18,0.89-1.63,1.47c-0.58,0.74-0.86,1.29-1.18,2.17c0.66-0.85,0.95-1.61,1.9-2.23c0.95-0.62,1.88-1.48,2.89-1.97c0.51,1.16-0.3,2.37-1.31,3.01c-0.59,0.38-1.1,0.74-1.63,1.21c-0.5,0.44-1.02,0.71-1.61,0.24c-0.01,0.78,0.19,1.57,0.37,2.32c0.22,0.87,0.79,1.65,0.98,2.49c0.47,2.18,0.64,4.25,0.85,6.45c0.1,1.05,0.33,2.08,0.6,3.09c0.1,0.38,0.73,1.77,0.52,2.19c-0.25,0.52-0.78,0.21-1-0.09c-0.59-0.81-1.3-0.79-2.24-0.94c0.15,0.77,1.22,2.11,0.31,2.79c-1.11,0.85-2.89,0.83-4.21,1.1c-1.74,0.35-3.5,0.74-5.28,0.75c-4.4,0.04-9.02,0.29-13.23-1.18C23.74,635.83,23.04,635.53,22.95,634.82M48.71,634.84c-0.28-0.42-0.72-0.98-0.48-1.5C48.69,633.6,49.08,634.37,48.71,634.84M50.71,634.36c-0.36-2.09-0.57-4.16-0.79-6.26c-0.1-0.87,0.06-1.34,0.63-1.99c-0.32,0.16-1,0.49-0.88-0.22c0.08-0.44,0.21-0.75,0.63-0.98c0.43-0.24,0.84-0.43,1.36-0.39c0.74,0.06,0.72,0.24,0.4,0.87c0.81-0.01,1.93,0.07,2.55-0.6c0.5-0.55,0.77-1.88,1.48-2.11c-0.01,1.04-0.05,2.13-0.9,2.87c-0.45,0.4-2.82,0.76-2.74,1.63c0.09,1.02,0.32,1.99,0.56,2.98c0.28,1.15,0.26,2.08-0.03,3.23c-0.61-0.65-0.57-1.7-0.76-2.51c-0.24-1.07-0.99-2.14-0.43-3.25C49.37,628.92,53.57,633.84,50.71,634.36M46.01,629.56c-0.39,0.4-0.65,0.93-1.05,1.35c-0.51,0.54-1.03,0.77-1.7,1.11c-1.17,0.59-2.64,0.59-3.91,0.38c-1.33-0.22-2.62-0.31-3.96-0.44c-0.82-0.08-1.06-0.09-1.68-0.63c-0.43-0.38-0.88-1.05-1.46-1.16c0.13,0.37,0.26,0.73,0.39,1.1c0.08,0.23-0.05,0.75,0.09,0.9c0.18,0.22,1.87,0.48,2.13,0.54c1.36,0.28,2.75,0.03,4.12,0.03c1.39-0.01,2.78,0.44,4.13-0.09C44.36,632.15,46.18,631.16,46.01,629.56M53.73,632.89c0.01-1.01,0.02-2.02-0.3-3c-0.27-0.81-0.81-1.92-0.39-2.76c0.88,0.53,1.15,1.89,1.33,2.82C54.49,630.59,54.78,633.16,53.73,632.89M44.79,627.05c-0.7-0.58-1.24-1.13-1.82-1.83c-0.41-0.49-1.24-1.04-1.9-0.96c0.39,0.69,1.68,1.38,1.48,2.27c-1.66-1.52-4.32-1.25-6.25-0.32c-0.54,0.26-1.07,0.43-1.65,0.54c-0.46,0.09-1,0.49-0.36,0.81c0.59,0.3,0.84,0.35,0.51,1.02c-0.28,0.58-0.49,0.98-1.04,1.35c0.3,0.41,1.58,0.37,1.99,0.15c0.29-0.16,0.09-0.64,0.42-0.61c0.42,0.04,0.79,0.09,1.2,0.02c1.63-0.28,3.09-0.78,4.66-1.22c-0.57,1.05-2.35,1.95-3.52,1.96c0.74,0.7,2.59-0.4,3.25-0.83C42.63,628.84,44.56,628.17,44.79,627.05M37.01,629.22c0-0.42,0.01-0.83,0.01-1.25C37.76,628.1,37.94,629.45,37.01,629.22M21.27,628.8c-1.16-1.59-3.22-2.31-3.84-4.29c-0.29-0.94-0.33-1.99-0.4-2.96c-0.07-0.91-0.75-1.7-0.91-2.55c1.48-0.22,2.69,2.56,2.46,3.78c0.68-1.32-0.65-2.96-1.44-3.87c-0.96-1.1-2.65-0.55-3.77-0.19c-0.64-1.28,1.76-1.71,2.52-1.72c1.26-0.02,2.51,0.54,3.17,1.66c0.36,0.62,0.63,1.19,0.89,1.86c0.2,0.53,0.1,1.12,0.16,1.68c0.12,1.23,1.34,2.44,1.2,3.61c-0.76-0.01-1.36-0.68-1.99-1.02C19.92,625.65,22.38,627.55,21.27,628.8M26.27,628.6c-0.06-0.41-0.19-0.75-0.39-1.1c-0.45-0.78-1.48,0.04-2.01,0.22c-0.5,0.15-0.39-0.21-0.69-0.57c-1.12-1.35-1.12-2.87-1.07-4.57c0.03-0.82,0.65-4.44,1.97-3.95c1.41,0.52,2.58,1.81,4.02,2.24c-0.16-0.33-0.33-0.67-0.49-1c1.78-0.06,1.2,4.92,1.19,6.01c-0.59-0.09-1.12-0.86-1.49-1.27c0.07,0.46,0.32,1.05,0.23,1.5c-1.12-0.19-2.11-0.29-3.25-0.28c0.33,0.18,0.65,0.18,1,0.26c0.61,0.14,0.78,0.28,1.16,0.75C26.82,627.3,27.43,628.83,26.27,628.6M24.52,628.33c0.19-0.28,0.46-0.37,0.76-0.49C25.28,628.29,25.02,629.23,24.52,628.33M35.77,628.45c-0.6-1.18,1.06-1.96,1.96-2.07c1.21-0.15,2.06,1.04,2.04,2.11c-0.71-0.01-1.62-0.8-2.21-1.15C37.16,627.11,36.1,628.24,35.77,628.45M40.28,627.5c-0.13-0.43-0.34-0.83-0.49-1.26c0.5-0.25,1.28-0.07,1.57,0.43C41.82,627.44,40.89,627.49,40.28,627.5M24.29,626.33c-0.32-0.46-0.24-0.97-0.23-1.5c-0.56,0.27-0.85,0.92-1.02,1.49C23.45,626.53,23.87,626.42,24.29,626.33M36.32,624.21c-0.81,0.14-1.36,1.26-2.02,1.73C35.5,626.69,35.98,625.05,36.32,624.21M49.57,624.35c0.08-0.99,0.48-1.94,1.52-2.23c-0.61-0.41-1.33-0.04-2-0.02c-0.02-1.24,1.24-1.94,2.16-2.52c0.74-0.47,1.83-1.64,2.73-1.68c0.71-0.03,0.36,0.62,0.08,1c-0.39,0.55-0.83,0.71-1.44,1.03c-0.89,0.46-1.82,0.88-2.78,1.18c0.77,0.3,1.9-0.27,2.62-0.52c0.74-0.25,1.22-0.85,1.9-1.18c-0.12,1.27-0.42,2.05-1.28,2.99c0.43-0.13,0.83-0.34,1.26-0.49c0.36,1.4-0.63,1.65-1.82,1.71C51.48,623.65,50.56,624.06,49.57,624.35M20.6,621.04c-0.45-2.69-2.54-3.87-4.7-5.05c0.54-0.56,1.33-0.23,1.98-0.1c0.67,0.13,1.23,1.04,1.69,1.51C20.36,618.22,21.54,619.9,20.6,621.04M60.39,617.71c0.02,1.31,0.55,2.27-1.03,2.89c-0.85,0.32-2.51,1-3.38,0.44c-0.39-0.25-1.22-0.72-0.43-1.1c0.51-0.24,1.02,0,1.53-0.2c0.6-0.24,1.31-0.4,1.78-0.85C59.27,618.49,59.79,617.82,60.39,617.71M47.85,620.83c-0.73-1.1-0.22-2.59,0.74-3.39c0.81-0.68,2.2-1.82,3.31-1.82c-0.03,0.89-0.7,1.54-1.36,2.05c-0.85,0.67-1.35,1.18-1.77,2.2C48.58,620.38,48.52,620.96,47.85,620.83M44.61,620.3c0.01-1.34-0.97-2.02-1.72-3.02c-0.48,0.58-0.02,1.8-0.03,2.5c0.44-0.12,0.81-0.39,1.25-0.49C44.16,619.64,44.33,620.07,44.61,620.3M21.36,619.8c-0.23-0.45-0.33-0.97-0.52-1.45c-0.29-0.74-0.65-1.25-1.12-1.9c-0.49-0.67-2.44-1.88-3.31-1.71c0.82-1.29,3.08,0.33,3.74,1.04C20.89,616.58,22.22,618.75,21.36,619.8M20.17,614.54c0.04-1.17,1.35-1.83,2.39-1.78c1.21,0.06,2.06,0.69,2.71,1.68c0.25,0.38,0.46,1.03,0.84,1.26c0.41,0.25,1.02,0.27,1.48,0.4c0.72,0.2,1.05,0.18,1.78,0.02c0.53-0.12,0.87,0.27,1.03,0.77c0.27-0.3,0.62-0.79,1.03-0.92c0.19-0.09,0.38-0.08,0.56,0.01c0.26,0.28,0.29,0,0.57-0.07c0.73-0.2,2.1,0.22,2.34,1.04c0.49-0.3,1.41-0.84,1.25,0.26c0.32-0.31,0.64-0.62,0.96-0.94c0.25-0.24,0.33-0.63,0.52-0.93c0.55-0.82,1.06-1.34,2.05-1.57c1.3-0.31,4.19-0.44,4.23,1.52c-1.03-0.28-2.03-0.54-2.84,0.29c-0.8,0.83-1.45,1.85-2.26,2.65c-0.7,0.69-1.8,1.38-2.83,1.2c-0.59-0.1-1.05-0.15-1.57-0.45c-0.46-0.26-0.91-0.52-1.41-0.69c-0.76-0.25-2.28-0.5-3.06-0.27c-0.98,0.3-2.12,0.96-3.14,1.01c-0.46,0.02-0.97,0.11-1.33-0.23c-0.37-0.35-1.09-0.79-1.31-1.25c-0.55-1.14-1.03-2.01-1.9-2.94C21.69,614.01,20.82,614.32,20.17,614.54M56.12,619.16c0.42-0.59,1.83-0.79,2.51-0.72C58.14,619.27,56.93,619.1,56.12,619.16M21.88,618.06c-0.25-0.85-1.22-1.86-0.72-2.76C21.96,615.71,22.48,617.33,21.88,618.06M55.89,617.66c0.75-0.61,2.57-1.08,3.51-1.21C59.12,617.85,56.91,617.86,55.89,617.66M8.97,609.42c-0.01,0.74,0.01,1.44,0.09,2.17c0.06,0.48,0.57,1.3,1.05,1.44c0.76,0.21,1.53,0.42,2.29,0.63c0.43,0.12,1.31-0.38,1.78-0.44c-0.98-0.52-3.87,0.5-4.24-1.29c1.37,0.47,2.74,0.74,4.15,0.22c0.56-0.21,1.55-0.72,2.14-0.65c0.81,0.1,1.44,0.28,2.2,0.52c-0.5,0.41-1.38,0.63-2.01,0.73c0.7,0.37,1.53,0.38,2.24,0.77c-0.36,0.31-0.86,0.14-1.29,0.2c-0.63,0.09-1.26,0.21-1.87,0.4c-1.28,0.41-2.6,0.61-3.94,0.54c-1.06-0.05-2.43-0.89-2.9-1.84C8.21,611.92,7.74,609.99,8.97,609.42M67.23,608.78c-1.45-0.79-2.81,2.43-3.04,3.47c0.5-0.1,0.88-0.42,1.26-0.74c-0.14,0.78-1.1,1.67-1.79,1.93c-0.58,0.22-1.07,0.39-1.68,0.49c-0.59,0.1-1.16-0.26-1.06,0.53c1.52,0.01,3.32-0.04,4.38-1.3C66.39,611.85,66.49,610.27,67.23,608.78M28.67,613.88c0.41-1.67,1.87-1.09,3.2-1.32c1.39-0.24,2.78-0.52,3.3,1.13c0.66-0.68-0.27-1.41-0.7-1.86c-0.19-0.19-0.97-0.15-1.24-0.19c-0.38-0.05-0.61-0.28-0.92-0.51c-0.52-0.38,0.83-1.42,0.99-1.65c0.47-0.68,0.86-1.24,0.44-2.06c-0.3,0.36-0.47,0.84-0.73,1.23c-0.36,0.53-0.93,0.61-1.52,0.67c-1.16,0.13-1.96-0.36-3.01-0.71c0.24,0.55,1.16,1.74,0.84,2.34c-0.49,0.92-1.16,1.83-1.14,2.9C28.33,613.87,28.52,613.91,28.67,613.88M52.68,613.13c0.64-1.04,2.05-1.28,3.13-1.6c0.65-0.19,1.28-0.46,1.88-0.78c0.73-0.38,1.46-1.17,2.29-1.3c-0.07,1.44-1.9,2.46-3.15,2.7C55.46,612.41,54.06,613.1,52.68,613.13M44.44,612.54c0.01-0.64,0.38-1.4,0.27-2C44.2,610.9,44.03,612.06,44.44,612.54M9.96,610.43c0.78,0.17,1.43,0.57,2.27,0.47c0.9-0.11,1.79-0.24,2.68-0.4c1.46-0.27,3.73-0.23,4.54,1.29c-2.18-0.77-3.85-0.84-6.05-0.25C12.12,611.89,10.32,612.12,9.96,610.43M52.19,612.12c0.05-1.48,1.92-1.91,3.08-2.13c1.31-0.25,2.43-1.1,3.71-1.3c-0.34,1.16-1.51,1.56-2.58,1.78C54.89,610.79,53.68,611.82,52.19,612.12M31.45,611.66c-0.46-0.35-0.4-1.16,0.26-1.25C31.71,610.88,31.73,611.26,31.45,611.66M30.2,611.39c0-0.25,0.01-0.5,0.01-0.75C30.41,610.87,30.39,611.16,30.2,611.39M43.7,611.29c0.17-0.49,0.44-0.97,0.52-1.5c-0.63,0.13-0.81,0.99-1.02,1.49C43.37,611.28,43.54,611.3,43.7,611.29M26.45,611.1c-0.16-0.33-0.33-0.67-0.49-1C25.69,610.47,26.05,611.01,26.45,611.1M51.96,610.62c-0.77-1.51,1.79-2.31,2.78-2.47c1.58-0.26,2.91-1.05,4.51-1.2c-0.53,1.02-2.02,2.1-3.18,2.15c-0.76,0.04-1.61,0.03-2.34,0.28C53,609.62,52.57,610.22,51.96,610.62M10.98,608.69c0.77,0.97,2.48,0.12,3.47-0.13c1.02-0.26,2.73-0.46,3.02,0.95c-1.14-0.01-2.21,0.12-3.32,0.37c-0.83,0.19-1.85,0.44-2.68,0.15c-0.27-0.1-1.04-0.45-1.1-0.72c-0.16-0.73-0.43-1,0.18-1.45C11.74,607,12.23,608.73,10.98,608.69M60.71,610.46c-0.05-0.96-0.65-2.59-0.23-3.45c0.55-1.14,1.31-1.87,2.61-1.95c1.32-0.08,2.46,0,3.76,0.23c1.03,0.19,2.16-0.61,3.16-0.74c-0.46,2.46-3.83,0.59-5.03,1.94c-0.67,0.76-1.45,1.48-1.98,2.35C62.44,609.79,61.9,610.51,60.71,610.46M39.46,610.24c0-0.63,0.23-1.39,0.02-2C38.9,608.7,38.86,609.77,39.46,610.24M38.71,610.23c0.01-0.75,0.02-1.5,0.02-2.25C38.21,608.49,38.08,609.76,38.71,610.23M26.97,609.86c0.04-0.51-0.12-1.01-0.23-1.5C26.37,608.79,26.57,609.52,26.97,609.86M2.02,604.1c-0.87,0.44-1.65-0.83-1.18-1.56c0.48-0.75,1.34-1.22,2.21-1.43c-0.12,0.59-0.67,1.03-1.02,1.49c0.71-0.5,1.93-0.92,2.75-0.47c-0.42,0.56-1.4,0.74-2.01,0.98c0.67,0.22,1.35-0.23,2,0.02c-0.3,0.48-0.8,0.77-1.12,1.24c-0.38,0.56-0.66,1.31-0.66,1.99c0.41-0.76,0.71-1.57,1.52-1.98c-0.25,0.83-0.42,1.31-0.34,2.2c0.09,0.95,1.22,1.28,1.92,1.52c0.84,0.29,1.75-0.14,2.55-0.34c1.08-0.26,0.82,0.34,0.57,1.17c-1.59-0.61-3.58,0.71-5.11-0.17c-0.73-0.42-1.83-0.87-2.06-1.79C1.79,605.91,1.75,605.16,2.02,604.1M12.98,608.21c0.09-0.44,0.32-0.85,0.51-1.24c-0.91,0.17-1.73,0.1-2.24-0.77c0.68-0.16,1.3-0.2,2-0.23c-2.03-1.61-4.51,1.75-6.71,1.63c-0.72-0.04-1.15-0.38-1.77-0.75c-0.64-0.35,0.61-2.88,1.86-1.73c0.45,0.41,0.17,1.13-0.14,1.53c0.91,0.01,1.63-0.33,2.51-0.47c-0.31-0.18-0.65-0.2-1-0.26c0.12-0.55,0.5-1,0.77-1.49c-0.17,0.27-0.46,0.3-0.75,0.24c-0.02-0.88,1.22-1.13,1.89-1.25c0.89-0.17,1.57-0.1,2.37,0.29c-0.39,0.33-0.95,0.39-1.36,0.69c-0.58,0.41-1.14,0.79-1.66,1.28c1.46-0.38,2.96-1.42,4.54-0.78c1,0.4,1.59,0.71,2.3,1.51c0.48,0.54,1.46,0.83,1.63,1.6c-0.85-0.26-1.55-0.43-2.46-0.52C14.56,607.42,13.7,608.1,12.98,608.21M61.49,608.22c0.36-1.01,1.55-1.73,1.78-2.73C62.38,605.69,60.22,607.3,61.49,608.22M52.24,607.87c-0.18-0.9-0.76-2.15-1.67-2.5c-0.49-0.19-1.01-0.3-1.49-0.51c-0.28-0.12,0.6-1.15,0.7-1.27c-0.54-0.08-1.36-0.21-1.74-0.62c-0.46-0.5-0.05-1.38-0.41-1.94c-0.41-0.63-0.64-0.99-1.34-1.3c-0.95-0.41-1.59-1.25-2.51-1.67c-0.42-0.19-0.89-0.27-1.31-0.48c-0.49-0.25-1.08-0.75-1.66-0.72c-0.46,0.03-2.1,0.43-2.27-0.11c-0.15-0.47-0.18-1.02-0.18-1.52c2.74,0.03,6.04-0.06,8.51,1.36c0.62,0.36,0.91,1.15,1.2,1.76c0.46,0.96,1.1,1.86,1.67,2.76c1.14,1.79,2.51,3.45,3.6,5.27c0.19,0.31,0.57,0.91,0.19,1.12C53.14,607.74,52.7,607.81,52.24,607.87M35.75,606.95c0.28-0.37,0.49-0.78,0.51-1.24C35.89,605.98,35.63,606.53,35.75,606.95M16.51,605.25c-0.02-0.34,0.14-0.7,0.51-0.75C16.89,604.8,16.79,605.07,16.51,605.25M66.03,604.27c0.63-1.03,2.08-1.26,3.17-1.48c1.3-0.27,2.58-0.61,3.86-0.94c-0.07,1.61-2.14,1.93-3.37,1.95c-0.7,0.01-1.45-0.07-2.13,0.15C67.09,604.08,66.45,605,66.03,604.27M6.53,603.65c-0.18-0.31-0.19-0.66-0.24-1c0.41,0.12,0.82,0.24,1.25,0.26C7.42,603.4,6.96,603.52,6.53,603.65M100.29,603.63c-1.5-0.22-2.21-3.01-2.57-4.18c-0.23-0.75,0.43-1.65,0.64-2.34c0.2-0.65,0.19-1.99,0.96-2.28c0.72-0.26,1.09,0.99,1.26,1.45c0.35,0.98,1.03,1.78,1.4,2.75C102.52,600.39,100.72,602.32,100.29,603.63M20.79,602.55c-1.7-1.2,0.05-2.91,0.89-4.13c0.98-1.44,2.45-2.08,4.18-2.06c-0.01,0.83-0.81,0.88-1.41,1.18c-0.23,0.12-0.74,0.24-0.85,0.48c-0.3,0.62-0.97,1.51-0.99,2.21c-0.01,0.31,0.2,1.1-0.34,1.09C21.47,601.3,21.21,602.05,20.79,602.55M64.22,585.75c0.37-0.46,0.55-0.94,0.77-1.49c0.97,0.71,0.72,2.75,0.71,3.78c-0.04,2.71-0.67,6.15,0.4,8.72c0.55,1.31,1.72,2.65,1.98,4.03c-0.56,0.09-0.91,0.2-1.44,0.01c-0.62-0.22-1.08-0.46-1.64-0.8c-0.96-0.6-1.84-1.27-2.67-2.03c-1.7-1.55-3.19-3.07-4.54-4.94c-0.69-0.95-1.45-1.71-0.92-2.91c0.42-0.95,1.1-1.76,1.46-2.75c0.75-2.07,1.24-4.08,1.21-6.29c-0.05-4.3-1.25-8.96-3.86-12.46c-1.22-1.65-2.89-3.48-4.6-4.61c-1-0.66-2.05-1.14-3.17-1.58c-1-0.38-2.07-0.51-3.09-0.84c-1.1-0.36-1.25-1.87,0.25-1.61c2.78,0.49,5.53,1.87,8.05,3.1c2.41,1.17,4.95,2.22,7.1,3.85c1.03,0.77,1.71,1.24,2.08,2.5c0.73,2.49,1.35,5.01,1.63,7.6C64.24,579.92,63.64,582.87,64.22,585.75M27.56,600.62c-0.54-0.13-1.25-0.66-1.24-1.26C26.98,599.25,28.01,599.9,27.56,600.62M84.55,577.96c1.26-0.79,1.43-3.18,3.04-3.47c0.21,1.96-0.3,4.56-1.34,6.28c-1.75,2.86-3.83,5.51-5.37,8.5c-1.6,3.09-2.85,6.1-5.19,8.75c-0.63,0.72-1.5,1.54-2.41,1.9c-0.89,0.35-2.2,1-3.21,0.59c-1.35-0.55,0.29-1.98,0.84-2.54c2.22-2.28,4.11-5.12,5.8-7.81c1.82-2.89,3.44-5.99,4.8-9.12c1.31-3.02,2.39-6.13,3.64-9.18c0.67-1.65,1.33-3.3,1.86-4.99c0.4-1.27,0.42-3.05,1.3-4.1c0.55-0.64,2.35-0.14,3.07-0.09c1.82,0.11,1.03,2.54,0.67,3.67c-0.46,1.45-1.21,2.75-2.22,3.89c-1.1,1.23-2.21,2.45-3.32,3.67C85.69,574.83,84.55,576.68,84.55,577.96M28.34,597.62c0.1-0.61,0.7-0.93,1.17-1.24c0.34-0.22,0.78-0.79,1.19-0.84c0.63-0.08,1.27-0.19,1.91-0.13c0.22,0.02,0.45,0.03,0.66,0.12c0.43,0.18,0.27,0.2,0.25,0.63c-0.03,0.79-0.02,1.12-0.57,1.69c-0.32,0.33-0.89,0.61-1.32,0.74C30.62,598.91,29.29,598.1,28.34,597.62M74.48,584.86c0.95-0.04,3.65-0.07,4.07-1.12c0.25-0.61-0.07-1.33-0.28-1.9c-0.28-0.79-0.45-1.61-0.48-2.45c1.33-0.04,2.47-0.54,3.76-0.71c-2.17,6.27-5.7,12.31-9.85,17.48c-0.66,0.82-1.6,1.51-2.33,2.28c-0.88,0.94-1.96-0.16-2.2-1.06c-0.23-0.85-0.51-1.56,0.46-1.9c0.8-0.29,1.56,0.12,2.38-0.08c1.93-0.48,0.49-3.03,0.97-4.32c0.46-1.23,4.16-0.52,4.24-1.55C75.36,587.89,74.5,586.46,74.48,584.86M26.33,598.6c0.01-1.08,0.59-2.56,1.78-2.73c-0.06,0.44-0.34,2.46-0.82,2.55C26.97,598.47,26.66,598.55,26.33,598.6M105.6,597.68c-0.85-0.76-0.9-2.36-2.02-2.89c-1.05-0.52-2.51-1.19-3.73-1.04c-1.4,0.18-2.55,0.41-3.73,1.24c-1.12,0.79-1.52,1.87-2.04,3.06c-1.63-0.52-0.33-3.75,0.45-4.46c1.33-1.22,3.33-1.25,5.01-1.63c1.9-0.44,3.49,0.35,5.09,1.23C105.89,593.89,106.24,596.51,105.6,597.68M23.61,595.82c0-2.32,3.04-2.44,4.78-2.64c2.62-0.3,5.26-0.51,7.9-0.49c2.69,0.03,5.71-0.33,8.32,0.42c0.87,0.24,1.99,1.16,1.76,2.19c-1.86-0.1-3.7-0.45-5.55-0.64c-0.95-0.1-1.91-0.19-2.87-0.21c-0.98-0.02-1.97-0.35-2.95-0.11c-1.82,0.44-3.99,0.51-5.86,0.51C27.25,594.86,25.51,595.84,23.61,595.82M82.99,560.44c0.29,0.09,1.34,0.28,1.49,0.52c0.39,0.58-0.38,0.96-0.69,1.25c-0.92,0.86-0.21,2.16,0.15,3.12c0.5,1.3-0.55,1.75-1.53,2.24c-1.27,0.63-1.31,1.4-0.87,2.67c0.15,0.45,0.43,0.98,0.47,1.44c0.07,0.73-0.49,0.88-1.03,1.21c-0.42,0.25-0.97,0.32-1.37,0.6c-0.7,0.49-0.64,0.82-0.56,1.59c0.07,0.68,1.19,2.31,0.36,2.82c-0.74,0.46-2.6,0.59-2.81,1.53c-0.23,1.03,0.41,2.1,0.48,3.13c0.13,1.89-3.17,0.58-3.62,2.16c-0.22,0.79-0.19,1.11-0.03,1.92c0.1,0.5,0.26,0.96,0.44,1.44c0.17,0.43,0.51,0.85-0.16,0.93c-1.07,0.12-2.11,0.29-3.15,0.56c-2.26,0.57,0.57,4.71-2.01,4.71c-1.13-0.01-2.29-0.05-2.06-1.52c0.19-1.19,1.42-2.04,2.16-2.91c0.97-1.13,1.91-2.28,2.75-3.52c1.84-2.72,3.39-5.58,4.83-8.52c1.37-2.79,2.43-5.6,3.61-8.47c0.57-1.38,1.13-2.77,1.56-4.2C81.92,563.57,82.21,561.91,82.99,560.44M25.4,592.59c0.2-1.18,3.51-1.36,4.44-1.46c2.53-0.29,5.03-0.45,7.58-0.41c1.29,0.03,2.6,0.23,3.9,0.31c1.01,0.06,2.43,0.03,3.34,0.51c-0.68,0.62-2.63,0.22-3.46,0.22c-1.69-0.02-3.39-0.17-5.08-0.13c-1.77,0.05-3.56,0.31-5.33,0.42C28.98,592.14,27.17,592.25,25.4,592.59M97.92,590.85c0.63-0.79,3.15-1.21,3.5,0.04C100.25,590.88,99.09,590.86,97.92,590.85M26.44,588.85c0.64-2,3.75-1.48,5.32-1.44c3.26,0.08,6.71-0.38,9.95,0.25c0.44,0.09,1.17,0.21,1.45,0.58c0.34,0.46-0.39,1.11-0.65,1.51c-0.46,0.7-1.82-1.59-2.46-1.33c-1,0.41-1.55,1.7-2.75,0.83c-0.35-0.25-0.87-0.7-1.34-0.66c-0.46,0.03-1.14,0.62-1.5,0.87c-1.19,0.8-1.66-0.38-2.7-0.68c-0.53-0.15-0.83-0.17-1.27,0.21c-0.51,0.45-0.86,0.66-1.49,0.92c-0.32,0.13-1.06-0.66-1.26-0.85C27.41,588.76,26.83,588.78,26.44,588.85M44.46,562.79c4.16,0.04,8.92,2.91,10.92,6.59c1.12,2.05,2.15,4.15,2.75,6.42c0.26,1,0.57,2.11,0.66,3.14c0.1,1.1-0.02,2.27-0.04,3.37c-0.02,2.07-0.86,4.34-1.89,6.11c-0.27,0.46-0.58,0.63-1.04,0.91c-0.5,0.3-0.91-0.46-1.14-0.79c-0.83-1.22-0.27-2.31,0.23-3.53c0.56-1.35,0.86-2.79,0.93-4.24c0.14-2.91-0.62-5.8-1.84-8.42c-0.96-2.08-2.42-4.37-4.4-5.64c-0.74-0.47-1.53-0.86-2.36-1.15c-0.8-0.27-2.04-0.31-2.56-1.06C44.38,564.04,44.47,563.3,44.46,562.79M66.43,589.52c0.01-1.21,0-2.36,0.21-3.55c0.23-1.33,2.15-1.99,3.09-2.76c1.45-1.19,2.73-2.62,3.65-4.26c0.53-0.94,1.19-1.87,1.62-2.86c1.23-2.83,1.89-6.31,1.92-9.38c0.04-4.12-1.33-7.98-3.58-11.39c-0.51-0.77-1.08-1.5-1.78-2.11c-0.74-0.64-1.82-1.24-2.44-1.97c-0.45-0.53-0.67-0.67-0.63-1.36c0.09-1.46,0.76-2.95,1.15-4.35c0.28,0.4,0.24,0.77,0.24,1.25c0.65-0.79,1.24-1.75,1.53-2.73c0.68,0.91-0.73,2.73-0.79,3.74c0.67-0.93,1.13-1.66,1.53-2.73c0.75,0.88-0.75,3.48-0.8,4.49c0.37-0.56,0.65-1.17,1.02-1.74c0.62,0.66-0.28,2.18-0.28,3c0.42-0.62,0.72-1.79,1.52-1.98c-0.25,0.87-0.36,1.94-0.78,2.74c0.52-0.28,0.75-0.73,1.01-1.24c0.55,0.69-0.25,1.95-0.28,2.75c0.27-0.4,0.49-0.84,0.76-1.24c0.34,0.42,0.24,1,0.23,1.5c0.04-0.03,0.76-0.73,0.75-0.46c-0.01,0.49-0.01,0.98-0.02,1.46c0.22-0.22,0.56-0.4,0.51-0.74c0.33,0.13,0.24,0.59,0.21,0.89c-0.03,0.34,0.28,0.59,0.29,0.12c0.34,0.42,0.24,1,0.23,1.5c0.29-0.23,0.51-0.46,0.76-0.74c0.27,0.37,0.26,1.06,0.23,1.5c0.24-0.2,0.44-0.44,0.75-0.49c0,0.42-0.01,0.83-0.01,1.25c0.82-0.64,2.1,0.05,2.55,0.89c0.22,0.42,0.66,0.9,0.58,1.38c-0.77,5.08-3.2,9.78-5.04,14.52c-0.92,2.37-2.08,4.75-3.34,6.96c-1.21,2.13-2.66,4.54-4.36,6.31C68.06,588.32,67.35,589.36,66.43,589.52M11.48,584.7c0.5,0.31,3,3.57,2.21,3.77c-0.63,0.16-1.47-1.39-1.71-1.74C11.59,586.18,11.11,585.36,11.48,584.7M100.38,589.01c-1.22,0.18-1.88-0.21-2.04-1.45c-0.62-4.96-0.84-9.94-1.36-14.9c-0.25-2.34-0.47-4.7-0.78-7.03c-0.27-2-0.77-5.03,0.12-6.93c0.47-1.02,0.99-2.07,2.16-2.43c0.53-0.16,2.69-0.44,3.06,0.13c0.35,0.53,0.7,1.05,1.04,1.58c0.26,0.4,0.28,1,0.37,1.47c0.44,2.38-0.1,5.19-0.48,7.55c-0.43,2.74-0.96,5.69-0.92,8.46c0.02,1.17-0.19,2.28-0.25,3.44c-0.05,1.32,0.02,2.63-0.04,3.95c-0.06,1.3-0.3,2.57-0.31,3.87C100.96,587.4,101.12,588.62,100.38,589.01M12.49,583.21c0.55,0.39,0.91,1.03,1.32,1.54c0.46,0.57,1.13,1.2,1.14,1.98C13.86,586.72,12.01,584.26,12.49,583.21M27.21,586.61c-0.01-1.38,2.28-1.23,3.19-1.22c3.57,0.05,7.28-0.19,10.81,0.37c0.59,0.09,1.25,0.31,1.24,1.01c-2.41-0.03-4.81-0.3-7.22-0.32C32.54,586.41,29.89,586.55,27.21,586.61M53.22,585.88c-0.5-1.04,0.56-2.52,0.79-3.55c0.33-1.43,0.6-3.4,0.26-4.84c-0.27-1.12-0.67-2.19-1.05-3.28c-0.61-1.76-1.65-3.55-3.04-4.8c-0.83-0.74-1.75-1.36-2.74-1.85c-0.75-0.38-1.82-0.44-2.26-1.26c0.83-0.44,1.9,0.03,2.69,0.35c0.99,0.41,1.92,0.89,2.68,1.66c1.47,1.49,2.75,3.4,3.52,5.35c0.79,2,0.99,4.13,0.97,6.26C55.01,581.73,55.04,584.82,53.22,585.88M37.73,584.72c0.1-0.44,0.37-0.78,0.58-1.16c0.31-0.55,0.76-0.22,1.23,0.06c0.45,0.28,0.9,0.55,1.45,0.55c0.4,0,0.94,0.09,0.99,0.59C40.56,584.75,39.15,584.73,37.73,584.72M33.98,584.43c0.87-1.49,2.18-1.5,3,0.04C35.95,584.38,35.04,584.66,33.98,584.43M27.98,584.37c0.54-0.87,1.62-1.18,2,0.02C29.33,584.49,28.6,584.72,27.98,584.37M30.98,584.4c0.16-0.48,0.67-1.29,1.26-1.24c0.58,0.05,1.03,0.8,1.24,1.26C32.65,584.42,31.82,584.41,30.98,584.4M65.75,583.01c0.87-0.57,1.79-0.97,2.59-1.66c0.82-0.71,1.7-1.43,2.38-2.29c1.25-1.61,2.38-3.71,2.87-5.68c0.28-1.11,0.54-2.21,0.73-3.35c0.25-1.45-0.07-3.32-0.21-4.8c-0.14-1.59-0.5-3.18-1.23-4.6c-0.91-1.78-1.83-3.42-3.11-4.97c-0.65-0.79-2.73-2.16-2.2-3.34c0.46-0.99,1.98,0.32,2.49,0.68c3.6,2.58,5.38,7.38,6.17,11.57c0.18,0.95,0.09,1.89-0.03,2.84c-0.13,1.02-0.04,2.06-0.27,3.07c-0.48,2.09-1.14,4.09-2.02,6.05c-0.83,1.85-2.03,3.6-3.42,5.07c-0.73,0.77-1.54,1.52-2.5,2.03C66.93,584.2,66.12,584.23,65.75,583.01M51.74,583.62c-0.35-1.15-1.11-2.1-1.69-3.13c-0.72-1.27-1.26-2.66-1.81-4.01c-0.58-1.41-1.12-2.83-1.58-4.29c-0.42-1.34-1.02-2.7-1-4.13c0.89-0.06,1.98,0.44,2.55,1.11c0.4,0.48,0.64,0.67,0.57,1.29c-0.05,0.54-0.26,0.98-0.1,1.52c0.28,0.94,1.7-0.53,2.34-0.06c0.88,0.63,1.3,1.69,1.44,2.76c0.06,0.46-0.3,0.99-0.48,1.4c-0.1,0.25-1.07,0.39-1.29,0.64c-0.85,0.95,1.07,1.71,1.67,2.01c0.73,0.36,0.95,1.96,0.91,2.65C53.22,582.23,52.78,583.63,51.74,583.62M39.01,581.98c-0.58,0.56-1.45,1.42-2.27,0.87c-0.36-0.24-0.93-0.71-1.38-0.49c-0.51,0.26-1.03,0.47-1.57,0.69c-0.25,0.1-1.08-0.4-1.4-0.49c-0.72-0.2-0.71,0.08-1.38,0.3c-0.57,0.19-0.95-0.04-1.47-0.24c-0.51-0.19-1.01-0.09-1.53-0.02c-0.05-1.48,1.93-1.48,2.99-1.47c3.01,0.04,6.19-0.22,9.15,0.42c0.45,0.1,0.56,0.29,0.87,0.64c0.1,0.11-0.25,0.76-0.41,0.78C39.93,583.06,39.32,582.52,39.01,581.98M65.26,582.26c-0.54-1.04-0.03-1.94,0.91-2.43c1.04-0.54,1.84-1.28,2.58-2.17c1.49-1.8,2.24-3.82,2.72-6.08c0.45-2.15,0.55-4.32,0.08-6.46c-0.47-2.15-1.25-4.16-2.41-6.03c-0.56-0.91-1.37-1.44-2.09-2.18c-0.46-0.47-0.79-0.7-0.65-1.38c0.11-0.53,0.42-1.01,0.99-0.84c2.08,0.64,3.21,3.16,4.17,4.94c1.02,1.91,1.48,3.89,1.88,6.01c0.43,2.28,0.15,4.42-0.27,6.68c-0.37,1.99-1.42,4.2-2.63,5.8C69.23,579.84,67.56,581.94,65.26,582.26M99.52,581.37c0.82-3.13,0.5-6.52,1-9.72c0.51-3.28,1.3-6.52,1.82-9.8c0.28-1.7-0.46-5.35-2.81-4.9c-2.42,0.46-2.58,3.25-2.55,5.23c0.06,3.47,0.97,6.9,1.39,10.34c0.2,1.61,0.53,3.2,0.65,4.82c0.08,1.04-0.18,2.95,0.38,3.88C99.44,581.24,99.48,581.31,99.52,581.37M36.53,580.21c-0.19-0.42-0.43-0.75-0.74-1.09c-0.85-0.96-2.3,1.4-3.55,0.45c-0.32-0.25-0.88-0.68-1.31-0.54c-0.31,0.1-0.79,0.88-1,0.84c-0.36-0.05-0.95-0.28-1-0.69c-0.05-0.38-0.35-1.21,0.23-1.34c3.03-0.68,5.82-0.21,8.86-0.12c0.9,0.03,2.02,0.5,2.02,1.52c-0.28-0.08-0.72-0.32-1-0.29C38.11,579.04,37.54,580.19,36.53,580.21M18.79,579.02c-0.8-0.04-0.9-0.55-1.1-1.21c-0.04-0.15,1.02-1.21,1.2-1.18c0.78,0.12,0.92,0.42,0.91,1.16C19.8,578.27,19.39,579.13,18.79,579.02M81.55,578.43c-0.28-0.89-1.02-1.89-1.1-2.8c-0.05-0.55-0.28-1.1,0.21-1.47c0.42-0.33,1.04-0.38,1.49-0.63c0.61-0.34,0.81-0.54,1.19-1.13c0.36-0.55-0.56-2.56-0.63-3.21c-0.06-0.56,0.27-0.84,0.81-1.08c0.49-0.22,1.18-0.4,1.6-0.73c0.61-0.47,0.34-1.06,0.2-1.7c-0.07-0.33-0.93-2.66-0.79-2.75c0.63-0.39,2.45-1.44,2.79-0.28c0.26,0.89-0.4,2.03-0.71,2.84c-0.6,1.57-1.07,3.2-1.62,4.79c-0.57,1.63-1.26,3.21-1.9,4.82C82.67,576.17,82.51,577.67,81.55,578.43M29.06,576.88c0-1.03,0.58-1.47,1.59-1.58c1.81-0.2,3.62,0.07,5.43,0.15c0.69,0.04,2.39-0.32,2.79,0.45c0.23,0.46,0.4,0.67-0.12,0.94c-1.15,0.59-3.45-0.13-4.73-0.15C32.35,576.67,30.72,576.84,29.06,576.88M17.32,575.76c0.11-0.53,0.69-1.04,1.02-1.46c0.34-0.43,0.46-1.23,0.64-1.75c0.31-0.88,1.27-2.29,2.17-2.62c0.92-0.34,0.83-0.07,1.04,0.84c0.12,0.53-0.33,1.44-0.46,1.93c-0.21,0.77-0.56,2.59-1.41,2.85c0.06-1.1,0.27-2.14,0.29-3.25c-0.47,0.71-0.52,1.7-1.04,2.36C18.94,575.44,18.36,575.77,17.32,575.76M65.58,575.26c-1.19-0.68-1.51-1.91-1.56-3.19c-0.03-0.6,0.48-1.12,0.81-1.61c0.42-0.62,0.52-1.2,0.57-1.95c0.06-0.78-0.21-1.17-0.57-1.86c-0.34-0.64-0.65-0.84-1.13-1.34c-0.5-0.53-0.43-1.06-0.19-1.74c0.18-0.49,0.35-1.19,0.95-1.32c0.01,0.52,0.16,1.04,0.24,1.55c0.14,0.93,0.26,1.04,1.18,1.17c0.84,0.13,1.57-0.87,2.41-0.93c0.51-0.02,0.41,0.11,0.32,0.5c-0.23,0.92-1.76,2.35-1.31,3.25c0.53,1.05,1.85,1.85,2.07,3.01c-1.25-0.01-2.5-0.03-3.75-0.04C65.63,571.8,66.34,574.4,65.58,575.26M35.59,574.45c0.27-0.47,0.78-1.11,1.36-1.18c0.46-0.06,0.44,0.02,0.6,0.45c0.12,0.32,0.24,0.66,0.29,1C37.12,574.71,36.24,574.81,35.59,574.45M32.84,574.42c0.08-0.51,0.53-1.82,1.05-1.64c0.61,0.21,1.09,1.06,1.2,1.67C34.36,574.29,33.63,574.67,32.84,574.42M29.59,574.39c0.15-0.75,0.72-1.4,1.42-1.69c0.27-0.12,0.96,1.38,1.08,1.72C31.3,574.6,30.4,574.39,29.59,574.39M68.1,573.79c-0.83,0.27-2.22-0.54-1.54-1.55C67.25,571.17,68.02,573.27,68.1,573.79M99.35,574.12c-0.66-1.25-0.6-2.81-0.82-4.18c-0.27-1.68-0.78-3.42-0.81-5.13c-0.01-0.67-0.27-2.79,0.5-3.2c0.54-0.29,0.77,0.52,1.18,0.65c0.4,0.13,1.05-0.19,1.37-0.45c0.94-0.76,0.59,1.8,0.52,2.18c-0.38,1.89-0.68,3.79-1.06,5.69C99.97,571.01,100.27,573.02,99.35,574.12M38.1,572.98c-0.34-0.24-0.8-0.81-1.24-0.82c-0.56-0.02-0.93,0.66-1.49,0.62c-0.52-0.04-0.88-0.75-1.39-0.75c-0.48-0.01-1.04,0.49-1.54,0.62c-0.42,0.11-0.91-0.55-1.3-0.64c-0.49-0.12-0.97,0.23-1.43,0.36c-0.46,0.12-0.08-2.39-0.07-2.72c0.93,0.35,1.68,0.78,2.71,0.76c0.95-0.01,1.86-0.56,2.81-0.64c0.64-0.05,2.42-0.08,2.75,0.64C38.19,571.01,38.62,572.39,38.1,572.98M63.38,570.24c-0.12-0.77-0.55-1.44-0.7-2.21c-0.1-0.51-0.28-0.9-0.04-1.37c0.19-0.37,0.79-0.18,1.14-0.17c0.71,0.02,0.96,1.36,0.94,1.91C64.69,569.25,64.46,570.23,63.38,570.24M33.5,558.43c0.08,1.01-0.59,2.04-0.8,3.01c-0.22,1.03-0.37,2.12-0.2,3.17c0.06,0.4,1.71,4.29,1.57,4.36c-0.4,0.23-0.8,0.41-1.26,0.51c-1.22,0.27-2.1,0.02-2.73-1.13c-0.55-1.02-0.9-1.96-0.99-3.11c-0.04-0.52-0.14-0.96,0.04-1.45c0.54-1.5,1.02-3.55,2.1-4.77C31.83,558.34,32.65,558.42,33.5,558.43M35.75,558.45c0.04,1.6,0.26,5.49,2.44,5.78c0.12-0.53,0.15-1.07,0.21-1.61c0.15-1.42-1.39-2.8-1.65-4.16c1.36-0.08,1.89,0.33,2.56,1.49c0.59,1.02,0.9,2.02,1.12,3.17c0.19,0.99-0.09,2.23-0.43,3.16c-0.41,1.15-0.83,2.11-2.11,2.55c-1.02,0.36-2.34,0.1-3.07-0.67c-0.75-0.79-0.95-1.96-1.2-2.99c-0.51-2.09,0-4.63,1.38-6.3C35.18,558.66,35.49,558.5,35.75,558.45M69.92,567.06c-0.02,0.38-0.21,0.9-0.57,1.11c-0.48,0.28-0.75-0.09-1.14-0.36c-0.37-0.27,0.16-0.8,0.4-0.9C69.01,566.74,69.53,566.96,69.92,567.06M28.97,561.38c-0.31,1.19-1.02,2.69-0.92,3.93c0.03,0.34,0.15,0.81,0.12,1.16c-0.05,0.54-0.12,0.4-0.69,0.39c-0.66-0.01-1.52,0.06-2.13-0.22c-1.65-0.77-0.56-2.65,0.13-3.77c0.34-0.56,0.82-1.03,1.42-1.29C27.39,561.38,28.42,561.47,28.97,561.38M38.27,557.48c0.01-0.42,0.01-0.83,0.01-1.25c4.13,0.24,8.34,2.22,12.11,3.79c1.97,0.82,3.9,1.74,5.81,2.7c0.87,0.44,1.73,0.89,2.57,1.39c0.75,0.45,1.83,0.89,2.42,1.54c0.3,0.33,0.83,1.23-0.05,0.97c-1.7-0.5-3.22-1.86-4.82-2.64c-1.89-0.92-3.79-1.86-5.72-2.69C46.66,559.59,42.5,558.27,38.27,557.48M61.94,564.59c-1.72-0.21-3.17-1.26-4.63-2.1c-1.73-0.99-3.61-1.78-5.42-2.6c-3.71-1.66-7.5-2.86-11.36-4.05c-1.13-0.34-2.19-0.4-2.23-1.81c-0.03-1.05-0.14-2.34,0.22-3.34c0.21-0.57,0.42-0.73,1.07-0.72c0.85,0,1.74,0.39,2.55,0.61c1.13,0.31,2.27,0.61,3.38,0.99c2.16,0.73,4.24,1.78,6.31,2.72c3.79,1.71,8.09,3.81,10.97,6.88C63.83,562.26,62.72,563.74,61.94,564.59M67.48,561.03c-0.01,1.32,0.08,3.25-1.84,2.75c-0.54-0.14-0.38-1.46-0.05-1.75C66.15,561.56,66.73,561.12,67.48,561.03M37.47,561.97c-0.41-0.36-0.5-0.98-0.48-1.51C37.37,560.76,37.67,561.5,37.47,561.97M73.19,541.59c0.52,0,1-0.12,1.5-0.23c-0.38-0.36-0.67-0.7-1.22-0.79c-0.12-0.02-0.72,0.07-0.78,0.02c-0.07-0.06-0.13-0.68-0.16-0.79c-0.3-1.31-0.19-2.14,0.11-3.43c0.74-3.18,1.73-6.32,2.8-9.4c1.03-2.97,1.58-6.26,2.99-9.07c0.62,0.37,0.98,1.05,1.33,1.66c0.43,0.73,0.98,1.35,1.54,1.98c0.58,0.65,1.17,1.3,1.86,1.85c0.63,0.5,1.47,1.02,1.76,1.81c0.39,1.04-0.06,2.15-0.03,3.21c0.04,1.36,0.17,2.71,0.13,4.07c-0.07,2.22,0.78,5.02,0.04,7.16c-0.18,0.51-0.93,0.66-1.09,1.13c-0.25,0.72,1.28,1.1,1.55,1.72c0.49,1.14,0.38,2.57,0.63,3.77c0.31,1.5,0.75,2.99,1.5,4.34c0.72,1.29,1.7,2.42,2.8,3.39c0.78,0.68,2.51,1.37,2.84,2.4c0.25,0.8-0.64,1.81-1.27,2.17c0.32,0.38,0.61,0.77,0.94,1.13c0.4,0.45,0.83,0.58,1.41,0.74c0.8,0.22,0.29,0.8-0.02,1.13c-0.32,0.33-1.05,0.34-1.49,0.4c-2.13,0.3-4.34-0.15-6.37-0.83c-2.1-0.71-3.79-2.1-5.39-3.57c-1.65-1.53-2.72-3.56-3.82-5.49c-0.95-1.66-1.67-3.43-2.39-5.19C74.2,545.19,73.2,543.46,73.19,541.59M99.48,561.37c-0.43-0.61-0.96-1.12-1.74-0.77c0.04-0.9,0.52-1.5,1-2.23c0.57-0.87,1.64-0.11,2.25,0.21c0.27,0.14,0.38,0.63,0.47,0.91c0.2,0.61-0.03,0.53-0.4,0.74C100.48,560.53,100.11,561.49,99.48,561.37M63.74,560.24c-0.72,0.31-1.56-0.39-2.08-0.8c-0.8-0.63-1.64-1.19-2.51-1.73c-2.07-1.29-4.21-2.4-6.35-3.56c-2.01-1.08-4.1-1.89-6.24-2.67c-2.2-0.81-4.53-1.16-6.71-1.94c-0.36-0.13-1.1-0.41-1.13-0.83c-0.04-0.49,0.91-0.69,1.27-0.63c4.43,0.71,8.88,2.91,12.9,4.84c2.15,1.03,4.1,2.38,6.09,3.67C60.2,557.38,63.38,558.63,63.74,560.24M64.26,558.5c-0.96-0.2-1.8-0.85-2.61-1.37c-0.91-0.59-1.9-1.05-2.77-1.71c-0.43-0.32-0.79-0.6-0.78-1.15c0.03-1.6,0.87-3.33,1.39-4.82c0.65-1.87,1.25-3.76,1.86-5.65c1.2-3.76,2.62-7.45,3.83-11.21c1.14-3.56,2.27-7.13,3.42-10.68c0.59-1.83,1.15-3.68,1.72-5.53c0.5-1.62,0.86-3.36,1.5-4.92c0.22-0.54,0.36-1.01,0.76-1.42c0.44-0.44,0.88-0.84,1.36-1.24c0.85-0.7,1.76-1.38,2.8-1.73c1.03-0.35,1.94,0.39,2.51,1.17c0.44,0.59,0.71,0.78,0.62,1.49c-0.24,1.85-0.98,3.73-1.54,5.51c-0.68,2.15-1.22,4.34-1.86,6.51c-1.26,4.27-2.82,8.44-4.1,12.7c-1.25,4.18-2.72,8.26-4.06,12.42c-0.69,2.17-1.43,4.3-2.18,6.44C65.55,555.01,65.34,557.01,64.26,558.5M36.96,557.59c-0.61,0.16-0.96,0-1.54-0.21c-0.46-0.17-0.38-0.84-0.39-1.25c-0.04-1.94,0.23-3.82,0.3-5.75c0.04-0.92-0.36-2.73,0.6-3.32c0.5-0.3,1.1,0.04,1.56,0.21c0.44,0.16,0.38,0.86,0.37,1.25c-0.02,1.94-0.1,3.82-0.27,5.75C37.5,555.18,37.95,557.05,36.96,557.59M29.27,557.38c0.39-0.33,1.1-0.39,1.3-0.91c0.16-0.41-0.49-1.28-0.28-1.58c0.24-0.35,1.61-0.23,1.96-0.23c0.74,0.01,1.21,0.07,1.91,0.33c0.51,0.19,0.52,1.91,0.37,2.35c-0.09,0.26-1.85,0.28-2.13,0.29C31.35,557.69,30.3,557.61,29.27,557.38M94.02,557.06c0.53-0.27,1.03,0.02,1.5,0.27C95.08,557.91,94.23,557.78,94.02,557.06M87.02,557.73c0-0.37-0.04-0.69-0.07-1.05c-0.03-0.26-0.52-0.81-0.69-0.39C86.01,556.92,86.17,557.75,87.02,557.73M32.28,555.91c0,0.42-0.01,0.83-0.01,1.25c0.43,0,1.48,0.08,1.54-0.53c0.03-0.27-0.31-0.7-0.55-0.75C32.93,555.8,32.62,555.86,32.28,555.91M101.8,554.39c-0.18,0-0.59-0.09-0.75-0.01c-0.11,0.06-0.2,0.43-0.38,0.54c-0.35,0.22-1.16,0.2-1.54,0.06c-0.43-0.16-0.31-0.21-0.18-0.64c0.06-0.21,0.12-0.44,0.21-0.64c0.2-0.43,0.21-0.29,0.65-0.19c0.25,0.06,0.5,0.11,0.75,0.12c-0.38-0.72-1.03-1.38-0.73-2.26c-0.53,0.12-0.93,0.2-1.44,0.01c-0.36-0.13,0.63-0.86,0.96-0.82c0.51,0.06,1.07,0.37,1.55,0.56c0.61,0.25,1.02,0.52,0.92,1.27c1.19-0.13,1.76,0.22,2.49,1.15c0.32,0.41,0.57,0.78,0.82,1.23c0.15,0.28,0.36,1.19,0.2,1.45c-0.51,0.86-1.39,1.73-2.27,0.68C102.49,556.24,101.91,555.28,101.8,554.39M85.79,555.22c-0.42-0.07-0.74-0.12-1.16-0.05c-0.27,0.04-0.63,0.84-0.43,1.02C84.98,556.9,85.63,556.08,85.79,555.22M89.64,546.26c-1.63,0.91-0.55,3.16-1.05,4.49c-1.57-0.9-1.21-3.69-1.2-5.19c0.01-0.85,0.01-1.81,0.34-2.61c0.28-0.69,0.61-1.98,1.46-2.19c0.11,0.59,0.24,1.15,0.23,1.75c0.29-0.54,0.24-1.18,0.44-1.75c0.26-0.77,0.64-1.42,1.24-1.94c1.08-0.93,2.91-0.97,4.13-0.31c1.06,0.57,0.96,2.79,0.95,3.86c-0.01,0.83-0.16,1.5-0.36,2.3c-0.15,0.63,0.29,1.28,0.32,1.91c-0.64-0.02-1.21-0.46-1.74-0.77c0.31,1.1,0.61,2.21,1.07,3.26c0.28,0.66,0.3,1,0.07,1.69c-0.21,0.65-0.86,0.55-1.45,0.55c0.09,0.24,0.44,0.55,0.49,0.76c0.08,0.29-0.21,0.94-0.26,1.25c0.84,0.03,1.3-0.43,1.63-1.13c0.16-0.33,0.3-0.75,0.55-1.04c0.16-0.19,0.82-0.74,1.1-0.54c0.38,0.28,0.64,2.01,0.65,2.38c0,0.38-0.06,0.71-0.13,1.08c-0.1,0.49-0.6,0.29-1.06,0.29c0.01,0.55,0.18,1.26-0.43,1.51c-2.28,0.92-4.3-0.71-5.71-2.38c-0.89-1.04-1.31-2.26-1.69-3.55C88.86,548.65,89.27,547.45,89.64,546.26M88.3,554.75c-0.48-0.25-0.97-0.26-1.5-0.27C86.75,555.57,88.11,556,88.3,554.75M31.3,553.9c-0.11-0.62,0.7-1.13,1.04-1.54c0.28-0.34,0.41-1.22,0.97-1.21c0.39,0,1.07-0.16,1.16,0.39c0.08,0.53,0.37,2.1-0.3,2.33C33.15,554.22,32.35,554.16,31.3,553.9M86.05,554.23c0.04-0.77,0.37-1.54,0.21-2.31c-0.19-0.89-0.59-1.5-1.41-1.95c-0.14,0.38-0.37,0.7-0.54,1.06c-0.31,0.68-0.28,0.8-0.08,1.53C84.39,553.15,85.39,554.14,86.05,554.23M47.35,549.57c0.14-0.86,1.17-1.34,1.85-1.7c1.11-0.59,2.2-1.26,3.19-2.04c1.7-1.33,3.35-2.85,4.72-4.51c2.87-3.46,4.91-7.48,5.8-11.9c0.47-2.33,0.64-4.64,0.72-7.01c0.04-1.17-0.02-2.24-0.21-3.39c-0.15-0.88-0.13-1.79,0.6-2.42c1.68-1.46,3.55-2.81,5.36-4.1c0.19-0.13,0.96-0.59,1.16-0.38c0.34,0.35,0.01,1.04-0.1,1.5c-0.83,3.43-2.16,6.64-3.26,9.99c-1.18,3.58-2.19,7.23-3.39,10.81c-1.13,3.4-2.16,6.86-3.37,10.23c-0.31,0.87-2.99,9.36-3.48,9.25c-1.66-0.37-3.03-1.43-4.53-2.16C50.87,550.99,49.04,549.87,47.35,549.57M106.57,552.94c0.94-0.69,1.11-1.85,1.65-2.81c0.62-1.1,1.35-2.17,1.67-3.41c-0.96-0.05-1.59,2.06-1.98,2.76C107.52,550.17,106.06,552.18,106.57,552.94M99.62,548.12c0.54-1.69,3.08-0.25,3.91,0.32c0.49,0.34,0.7,1.72,0.2,2.1c-0.68,0.52-1.73-0.08-2.34-0.4c-0.73-0.38-1.35-0.84-2.12-1.17c-0.71-0.31-1.47-0.07-2.19-0.41c-0.31-0.15-0.41-0.48-0.34-0.82c0.09-0.42,0.64-0.46,0.98-0.58C98.57,546.85,99.16,547.55,99.62,548.12M33.59,549.93c0.25-0.5,0.48-0.98,1.01-1.24c0.17,0.33,0.18,0.71,0.09,1.06c-0.11,0.46-0.07,0.45-0.53,0.37C33.96,550.08,33.78,550.04,33.59,549.93M107.38,546.95c-0.52,0.08-0.7,0.25-0.95,0.69c-0.1,0.18-0.34,0.88-0.07,1.05c0.22,0.14,0.73-0.24,0.81-0.42C107.36,547.83,107.35,547.42,107.38,546.95M95.37,548.07c-0.05-0.25,0.13-0.88,0.51-0.49C96.25,547.96,95.62,548.13,95.37,548.07M45.38,546.8c0.14-0.13,0.84-0.65,0.77-0.81c-0.16-0.35-0.24-0.87-0.74-0.73c-0.2,0.06-0.77,0.69-0.77,0.89C44.63,546.57,45.05,546.63,45.38,546.8M108.13,546.96c0.04-0.34,0.15-0.67,0.01-1c-0.32,0.22-0.5,0.61-0.51,1C107.79,546.95,107.98,546.99,108.13,546.96M97.66,544.35c0.57-0.26,1.19-0.14,1.79-0.27c0.67-0.14,1.26-0.55,1.95-0.63c1.33-0.15,3.04,0.34,3.03,1.88c-0.02,1.46-2.48,0.55-3.34,0.4C100.17,545.57,97.8,545.58,97.66,544.35M109.89,545.98c0.81-1.55,0.52-3.55,0.8-5.24c-0.61,0.49-0.61,1.81-0.68,2.54C109.94,543.98,109.42,545.37,109.89,545.98M107.94,541.2c-0.53-0.1-0.65,0.21-0.93,0.58c-0.19,0.24-0.88,0.48-0.8,0.78c0.21,0.79,0.84,2.07,0.68,2.88c0.88-0.13,1.29-1.14,1.46-1.88c0.14-0.62,0.21-0.82,0-1.41C108.24,541.83,108.02,541.54,107.94,541.2M96.16,544.33c0.47,0.11,0.89,0.22,0.99,0.76C96.72,545.01,96.21,544.84,96.16,544.33M86.65,544.98c-0.27-1.14-0.43-2.1-0.46-3.27c-0.03-1.07,0.41-1.8,1.52-1.64c0.68,0.1,0.41,0.41,0.23,0.92C87.55,542.14,87.45,544.03,86.65,544.98M49.41,543.59c0.75-0.04,1.95-0.22,1.3-1.16C49.99,541.39,49.47,542.91,49.41,543.59M75.93,541.87c-0.54,0.06-1.36,1.04-0.65,1.49c0.2,0.12,0.72-0.14,0.74-0.37C76.05,542.6,75.99,542.26,75.93,541.87M96.94,541.59c0.89,0.14,1.74,0.54,2.49,1.03c-0.43,0.58-1.37,0.56-2,0.51C96.64,543.05,96.63,542.18,96.94,541.59M83.68,541.7c-0.85-0.17-0.74,0.9-0.77,1.49C83.73,543.18,84.04,542.37,83.68,541.7M100.69,540.88c-0.09,0.54-0.06,1.17-0.76,0.87c-0.55-0.24-1.04-0.74-0.72-1.34c0.53-0.98,2.44-1.19,3.43-1.1c0.44,0.04,1.23,0.05,1.56,0.38c0.3,0.31,0.28,0.37,0.27,0.8c-0.01,0.55,0,0.52-0.48,0.8C102.85,541.97,101.7,541.5,100.69,540.88M82.94,541.44c-0.11-0.55-1.24-1.46-1.74-0.77C80.64,541.44,82.52,541.65,82.94,541.44M77.32,541.38c0.05-0.3,0.29-0.82,0.01-1.03c-0.22-0.17-1.04-0.07-1.15,0.18C75.71,541.58,76.45,541.57,77.32,541.38M97.94,541.18c-0.52,0.09-0.7-0.79-0.21-0.91C98.32,540.13,98.28,540.97,97.94,541.18M75.44,540.61c0.35-1.39,0.5-2.84,0.79-4.24c-0.41,0-0.96,0.18-1.05-0.26c-0.08-0.38-0.28-0.67-0.69-0.76c-0.12,0.91-1.22,0.94-1.23,1.63c0,0.78,0.82,1.79,1.14,2.48C74.67,539.99,74.74,540.74,75.44,540.61M83.45,540.2c0.34-1.04,0.76-2.11,0.98-3.19c0.11-0.53-1.09-0.87-1.17-1.56c-0.5,0.1-0.77,0.57-1.09,0.92c-0.37,0.4-0.51,0.52-0.3,1.1c0.2,0.55,0.38,1.12,0.62,1.66C82.69,539.64,82.77,540.32,83.45,540.2M55.4,539.15c0.3-0.16,0.54-0.84,0.32-1.13c-0.16-0.21-0.99-0.29-1.2-0.16c-0.21,0.14-0.48,0.94-0.31,1.15C54.43,539.29,55.08,539.15,55.4,539.15M110.96,539.73c-0.13-0.29-0.19-0.6-0.49-0.75C110.46,539.51,110.3,539.84,110.96,539.73M96.71,539.59c-0.48-0.92-0.48-1.92-0.47-2.94c0.01-1.07-0.04-2.15,0.22-3.19c0.09-0.37,0.2-1.13,0.47-1.39c0.39-0.38,0.88-1.08,1.37-1.31c0.4-0.19,1.13-0.16,1.57-0.1c0.87,0.12,0.97,0.17,1.57,0.8c0.76,0.8,1.21,1.81,1.32,2.94c0.08,0.88,0.15,2.22-0.13,3.05c-0.21,0.63-0.27,0.96-0.92,1.25c-0.77,0.35-1.74,0.52-2.58,0.62C98.66,539.38,97.04,539.26,96.71,539.59M88.97,538.25c0.02-2.03-0.21-4.05-0.19-6.08c0.02-1.54-0.45-4.01,0.31-5.42c0.63,0.41,0.45,1.64,0.48,2.25c0.39-0.71,0.09-2.19,1.03-2.49c0,0.88-0.01,10-0.18,10c-0.55-0.01-0.42-0.08-0.41-0.61c0.01-1.35,0.03-2.7,0.04-4.05c0.01-0.73-0.55-0.81-0.53-0.02c0.03,1.37-0.01,2.75-0.02,4.12C89.49,536.59,89.59,537.85,88.97,538.25M86.97,538.23c-0.65-1.25-0.21-2.81-0.24-4.14c-0.04-1.87-0.18-3.73-0.16-5.61c-0.66,1.27-0.28,3.39-0.3,4.77c-0.02,1.66,0.12,3.36-0.3,4.98c-0.52-0.63-0.25-2.11-0.31-2.86c-0.12-1.46-0.13-2.87-0.12-4.33c0.01-1.17-0.25-2.34-0.14-3.51c0.03-0.34,0.04-2.53,0.94-1.8c0.1,0.09-0.01,0.84-0.01,1c0.33-0.32,0.83-0.86,0.92-0.04c0.22,2.14,0.07,4.39,0.04,6.54c-0.01,0.87-0.07,1.74-0.02,2.61C87.32,536.57,87.48,537.6,86.97,538.23M46.98,537.4c0.47-0.22,1.1-1.06,0.79-1.54c-0.51-0.76-0.66-1.33-1.64-1.16c-0.38,0.06-0.95,1.3-0.84,1.64c0.11,0.34,0.09,0.59,0.44,0.69C46.14,537.16,46.56,537.28,46.98,537.4M97.73,537.6c0.32-1.28,0.29-2.53,0.23-3.84c-0.05-1.23,1.13-1.96,2.08-2.39c-0.48-0.86-1.29-0.17-1.77,0.23c-0.71,0.58-0.83,1.03-0.93,1.93C97.23,534.57,97.01,536.71,97.73,537.6M87.98,537.49c-0.53-1.03-0.23-2.62-0.21-3.73c0.02-1.67,0.04-3.34,0.05-5.02c0-0.19-0.21-2.63,0.52-2c0.26,0.22-0.02,1.54-0.02,1.87c-0.01,1.22,0.32,2.48,0.2,3.69c-0.09,0.96-0.31,1.92-0.26,2.89C88.29,535.9,88.47,536.88,87.98,537.49M46.65,536.67c-0.15-0.08-0.71-0.27-0.78-0.42c-0.05-0.13,0.2-0.69,0.33-0.74C46.47,535.42,47.45,536.38,46.65,536.67M91.23,537.03c0.03-2.92-0.24-5.83-0.16-8.76c0.02-0.8,0.04-1.97,0.78-2.49c0.4,0.81,0.23,1.82,0.22,2.7c0,0.91-0.14,1.95-0.21,2.87c-0.08,1.05-0.08,2.11-0.1,3.17C91.75,535.32,91.84,536.43,91.23,537.03M92.74,536.04c-0.4-0.76-0.26-1.69-0.32-2.52c-0.07-1.02-0.19-2.04-0.12-3.06c0.07-0.98,0.26-1.95,0.27-2.94c0.01-0.89-0.16-1.89,0.28-2.72c0.46,0.58,0.38,1.79,0.42,2.5c0.08,1.62-0.07,3.24-0.21,4.84C92.97,533.24,93.48,535.12,92.74,536.04M93.75,535.81c-0.41-0.79-0.23-1.74-0.22-2.58c0.01-1.07,0.01-2.15,0.04-3.22c0.04-2.07,0.29-4.13,0.31-6.2c0.44,0.55,0.48,1.95,0.47,2.63c-0.01,1.69,0,3.38-0.05,5.07c-0.02,0.73-0.2,1.45-0.21,2.18C94.09,534.37,94.2,535.23,93.75,535.81M57.96,534.25c0.51-0.15,0.25-0.56,0.15-0.93c-0.03-0.09-0.32-0.96-0.57-0.47c-0.12,0.24-0.61,0.88-0.45,1.11C57.28,534.25,57.63,534.31,57.96,534.25M94.77,534.07c0.02-1.42,0.03-2.84,0.04-4.26c0.01-1.29-0.34-2.74,0.05-3.99c0.81,0.91,0.29,2.7,0.22,3.78C95.01,530.74,95.54,533.11,94.77,534.07M107.27,533.95c0.33-0.42,0.46-0.84,0.45-1.37c0-0.35-0.03-1.54-0.68-1.13c-0.27,0.17-0.36,1.21-0.42,1.45C106.53,533.3,106.94,533.76,107.27,533.95M78.78,532.4c0.12-0.51,0.27-1.01,0.02-1.5c-0.55,0.26-0.77,0.92-0.77,1.49C78.28,532.39,78.53,532.4,78.78,532.4M51.03,531.93c-0.29,0.04-0.38-0.09-0.47-0.33c-0.15-0.38,0.14-0.46,0.44-0.72c0.27-0.23,0.39,0.35,0.46,0.5C51.59,531.68,51.28,531.75,51.03,531.93M107.55,530.7c0.12,0.38,1.09,1.66,1.51,0.85c0.13-0.26-0.09-0.85-0.35-0.92C108.28,530.53,107.99,530.61,107.55,530.7M106.42,531.44c0.46-0.4-0.25-1.17-0.74-0.78c-0.1,0.07-0.16,0.63-0.07,0.71C105.77,531.52,106.2,531.44,106.42,531.44M90.05,531.02c0-0.5,0.01-1,0.02-1.5C89.56,529.84,89.66,530.62,90.05,531.02M80.55,530.17c0.01-1.07-1.67-1.06-1.75-0.15C78.76,530.49,80.3,530.22,80.55,530.17M77.8,530.14c-0.04-0.19-0.11-0.78-0.4-0.79c-0.29,0-0.91-0.15-1.09,0.13c-0.11,0.19,0.15,0.74,0.37,0.76C77.08,530.3,77.4,530.22,77.8,530.14M107.31,530.2c0.58-0.86,0.85-1.88,1.24-2.83c0.25-0.61,0.41-0.81-0.11-1.25c-0.19-0.16-0.33-0.3-0.49-0.5c-0.34-0.42-0.23-0.41-0.67-0.19c-0.39,0.2-0.73,0.6-1.13,0.83c-0.48,0.27-0.08,0.71,0.07,1.17C106.46,528.24,106.61,529.65,107.31,530.2M97.34,526.84c0.56,0.04,0.96-0.09,1.37-0.49c0.11-0.11,0.28-0.46,0.4-0.49c0.56-0.15,1.54,1.11,2.09,1.28c0.37,0.11,0.48-0.07,0.47,0.46c-0.01,0.3-0.06,0.54-0.13,0.84c-0.2,0.83-2.08,1.39-2.86,1.08c-0.82-0.33-0.88-0.47-1.29-1.26C97.13,527.78,97.08,527.32,97.34,526.84M78.56,529.4c0.42-0.79,0.64-2.03,0.84-2.9c0.11-0.45,0.46-1.25-0.08-1.44c-0.46-0.17-0.72-0.77-0.96-1.16c-0.39,0.31-0.5,0.79-0.85,1.12c-0.15,0.14-0.67,0.32-0.66,0.47c0.01,0.3,0.06,0.56,0.15,0.84C77.34,527.25,77.7,528.83,78.56,529.4M95.82,529.08c0.01-1.12,0.04-2.15,0.29-3.25c0.53,0.66,0.23,2.12,0.21,2.9C96.32,529.15,96.27,529.12,95.82,529.08M60.16,528.45c0-0.34-0.02-2.29-0.96-1.28C58.62,527.76,59.37,529.21,60.16,528.45M98.57,528.61c-0.23-0.47-0.44-0.89-0.99-1.01C97.64,528.15,98.14,528.37,98.57,528.61M53.09,526.38c-0.28-0.51-0.15-0.98,0.02-1.5C54,525.05,53.99,526.24,53.09,526.38M79.73,513.66c1.22,0.69,1.68,2.33,2.35,3.47c0.86,1.46,2.04,2.9,3.45,3.85c0.78,0.52,1.62,0.92,2.4,1.45c0.57,0.39,1.35,1.06,2.08,1c0.58-0.05,1.79-0.83,1.53-1.53c-0.09-0.23-0.26-1.09-0.5-1.15c-0.41-0.12-0.72-0.11-1.13,0.02c0.17,0.11,1.22,0.47,1.24,0.51c0.22,0.36-0.3,1.08-0.57,1.25c-0.54,0.34-0.86-0.15-1.3-0.49c-0.56-0.43-0.86-0.51-0.58-1.21c0.27-0.69,0.24-0.75,0.93-0.97c0.44-0.14,1.26-0.61,1.71-0.44c1.46,0.55,1.46,1.35,1.79,2.79c0.17,0.73-0.8,2.21-1.38,2.54c-1.09,0.62-1.96,0.77-3.21,0.66c-2.08-0.19-4.15-1.27-5.63-2.74C80.79,520.57,77.62,516.69,79.73,513.66M96.11,524.65c-0.62-0.38-1.01-0.54-1.29-1.21c-0.31-0.75,0.1-1.37,0.76-1.59c0.66-0.22,1.46,0.33,1.47,0.99C97.06,523.63,96.59,524.1,96.11,524.65M60.34,522.45c0.19-0.32,0.37-0.64,0.56-0.96c0.08-0.13-0.51-0.71-0.74-0.62c-0.21,0.08-0.48,0.81-0.61,1.01C59.46,522.04,60.12,522.52,60.34,522.45M97.54,508.09c0.57-0.1,0.65,0.32,0.87,0.76c0.72,1.5,1.41,3.12,2.3,4.53c0.98,1.57,2.77,3.76,4.74,4.04c0.02-2.1-0.29-4.63,0.22-6.69c0.11-0.45,1.16-2.75,0.79-3.08c-0.9-0.78-1.86-1.27-2.88-1.86c-0.45-0.26-0.71-0.73-1.02-1.13c-0.12-0.15,0.55-1.13,0.74-1.28c0.84-0.65,1.78-1.16,2.71-1.64c0.25-0.13,1.14-0.49,1-0.91c-0.23-0.65-0.55-0.94-1.07-1.38c-0.85-0.72-1.68-1.46-2.5-2.21c-0.36-0.34-1.04-0.79-1.02-1.36c0.02-0.49,0.66-1.13,1.02-1.42c0.46-0.37,0.95-0.73,1.45-1.05c0.25-0.16,0.44-0.52,0.63-0.76c0.54-0.7-1.21-3.43-1.5-4.23c-0.41-1.15-0.51-2.35-0.72-3.54c-1.01,0.28-1.69,1.34-2.35,2.07c-0.72,0.8-1.16,1.86-1.62,2.82c-0.88,1.86-2.12,3.92-2.15,6.04c-0.52-0.59-0.2-1.82-0.08-2.49c0.23-1.26,0.33-2.55,0.61-3.8c0.29-1.3,0.61-2.66,1.09-3.9c0.32-0.86,1.5-2.6,1.28-3.53c-1.32,0.37-2.62,0.79-4.01,0.92c-1.53,0.14-3.01-0.2-4.49-0.51c-0.02,1.06,0.39,2.07,0.71,3.06c0.4,1.22,0.61,2.48,0.88,3.73c0.29,1.32,0.46,2.65,0.75,3.97c0.22,1.01,0.64,2.24,0.26,3.26c-0.9-0.22-1.06-1.63-1.25-2.36c-0.33-1.25-0.92-2.42-1.35-3.63c-0.57-1.62-1.32-4.41-3.29-4.83c0.1,2.11-1.08,4.2-1.51,6.21c-0.2,0.95,0.88,1.73,1.46,2.31c0.79,0.8,1.53,1.82,1.71,2.95c0.33,2.1-4.02,2.29-5.09,3.52c-0.46,0.53-0.42,0.89,0.17,1.32c1.36,0.99,2.89,1.64,4.21,2.71c0.51,0.42,0.86,0.71,1.18,1.31c0.45,0.83-0.24,1.14-0.83,1.75c-0.87,0.92-2.61,1.42-3.7,2.08c-0.28,0.17-0.36,1.3-0.37,1.65c-0.01,0.76-0.02,1.52-0.03,2.28c-0.02,1.35-0.36,2.84-0.79,4.12c1.22,0.38,2.19-0.59,3.09-1.27c0.79-0.6,1.73-1.29,2.33-2.1c1.19-1.62,2.62-3.58,3.18-5.54c0.81,0.53,0.34,2.14,0.16,2.88c-0.52,2.07-0.84,4.4-2.11,6.18c-0.28,0.39-0.8,0.33-1.18,0.53c-0.53,0.29-1.05,0.6-1.51,0.99c-0.32,0.27-0.48,0.67-0.78,0.96c-0.64,0.61-0.79,0.44-1.65,0.24c-0.8-0.18-1.96-1.56-2.45-2.14c-1.31-1.56-2.57-3.81-3.12-5.78c-0.71-2.58,0.66-5.61,1.35-8.07c0.78-2.78,1.67-5.52,2.44-8.3c0.76-2.75,1.46-5.51,2.17-8.27c0.56-2.17,0.92-5.13,2.37-6.92c1.21-1.5,4.34-2.06,6.13-2.04c2.16,0.02,4.32,0.18,6.25,1.3c0.86,0.5,2.13,1.04,2.74,1.83c0.73,0.93,1.45,1.86,2.16,2.8c2.62,3.46,3.93,8.11,3.91,12.41c0,0.94,0.16,1.87,0.2,2.8c0.05,1.2-0.24,2.37-0.26,3.57c-0.05,2.25-0.37,4.49-1.05,6.64c-0.64,2.04-1.11,3.93-2.25,5.79c-0.53,0.86-1.09,1.77-1.86,2.44c-1.07,0.94-1.63,0.84-2.76,0.01c-0.8-0.57-2-0.68-2.49-1.63c-0.55-1.06-0.93-2.19-1.33-3.31C97.79,512.38,96.69,509.71,97.54,508.09M95.16,520.32c0.75-0.56,1.9-0.38,1.74,0.77C96.21,521.03,95.52,521,95.16,520.32M93.66,520.55c-0.31-0.43-0.67-0.83-0.87-1.33c-0.29-0.73-0.21-1.02-0.05-1.8c0.41-2.03,1.19-3.97,1.6-6.02c0.15-0.79-0.03-2.81,1.1-2.96c1.28-0.17,1.29,1.7,1.48,2.52c0.5,2.16,1.44,4.07,2.12,6.16c0.25,0.78,0.35,0.9-0.04,1.61c-0.12,0.22-0.67,1.17-0.93,1.08c-0.78-0.26-1.56-1.13-2.46-0.87C94.67,519.21,94.33,519.95,93.66,520.55M59.39,516.44c0.09-0.18,0.56-0.89,0.45-1.04c-0.29-0.38-0.45-0.75-0.97-0.53c-0.17,0.07-0.58,0.87-0.53,1.04C58.41,516.15,59.17,516.57,59.39,516.44M86.19,516.73c0.06-1.08,0.28-2.13,0.32-3.21c0.04-0.84,0.16-2,0.4-2.81c0.26-0.88,1.78-1.45,2.52-1.89c0.89-0.54,1.56-1.17,2.62-1.27c1.77-0.17-0.89,4.64-1.26,5.07c-0.69,0.8-1.32,1.74-2.07,2.48C88.07,515.73,87.17,516.71,86.19,516.73M104.2,516.16c-1.82-1.16-2.96-2.85-4.01-4.71c-0.58-1.03-1-1.99-1.25-3.15c-0.22-1,0.7-2.21,1.22-3.06c0.25-0.41,0.36-0.78,0.85-0.41c1.11,0.84,2.97,1.68,3.76,2.83c0.82,1.16-0.16,3.02-0.26,4.28C104.43,513.03,104.93,515.25,104.2,516.16M67.87,500.28c0.03,1.7,1.74,3.42,2.77,4.65c0.52,0.63,1.23,1.5,0.45,2.22c-0.73,0.67-1.5,1.3-2.31,1.88c0.01-0.71-0.06-1.38-0.1-2.07c-0.04-0.71,0.51-1.2,0.47-1.83c-0.05-0.84-0.09-1.43-1.06-1.71c-0.69-0.2-1.34,0.14-2.05-0.1c-0.71-0.25-1.29-0.51-2.05-0.47c-0.76,0.04-0.74,1.07-0.78,1.58c-0.02,0.29,0.15,0.58,0.14,0.87c-0.02,1.03-0.78,1.87-0.81,2.91c-0.45-0.48-0.92-0.93-1.23-1.51c-0.8,0.58,0.57,1.94,0.94,2.42c0.64,0.84,1.25,1.7,1.9,2.53c1.45,1.83,3.79-1,4.98-1.97c0.84-0.68,1.74-1.29,2.59-1.97c0.34-0.27,0.76-0.69,0.63-1.14c-0.17-0.53-0.29-1.05-0.58-1.52c-0.56-0.9-1.27-1.7-1.94-2.52C69.19,501.77,68.73,500.82,67.87,500.28M63.02,508.98c0.95,0.14,1.59-0.01,2.52-0.25c0.69-0.18,1.51,0.67,2.22,0.8c-0.15,0.81-1.76,2.3-2.64,2.01C64.32,511.27,63.25,509.8,63.02,508.98M67.53,508.61c-0.54,0.07-1.24-1.28-0.43-1.44c0.09-0.02,0.95,0.53,0.98,0.62C68.23,508.2,67.78,508.41,67.53,508.61M64.28,508.32c-0.71,0.06-0.84-1.26-0.19-1.44C65.4,506.52,64.54,507.99,64.28,508.32M94.13,498.81c-0.07,0.36,0.14,0.69,0.49,0.75c-0.07-0.5-0.44-0.92,0.1-1.13c0.39-0.15,0.9-0.14,1.32-0.08c1.2,0.2,2.17,0.68,2.95,1.63c1.18,1.45,1.3,4.73-0.11,6.13c-1.69,1.67-3.95,2.17-6.05,1.02c-1.92-1.05-2.23-4-1.47-5.85C91.83,500.12,92.75,498.82,94.13,498.81M67.81,505.64c-1.18,0.32-0.42-0.97-0.22-1.44C68.44,504.82,68.55,504.85,67.81,505.64M93.32,504.55c-0.29-0.04-0.51,0.12-0.75,0.24c-0.06-0.13-0.12-0.44-0.22-0.54c-0.2-0.18-0.66-0.15-0.46,0.12c0.32,0.42,0.66,0.87,0.67,1.42C93.12,505.7,93.6,505.1,93.32,504.55M65.02,505.08c-0.64-0.64-0.93-0.69-0.39-1.41c0.24,0.24,0.49,0.48,0.73,0.72C65.56,504.59,65.17,504.88,65.02,505.08M111.31,505.49c0-0.25,0.01-0.5,0.01-0.75C111.11,504.96,111.13,505.25,111.31,505.49M85.6,501.47c0.51-0.83,1.49-1.1,2.33-1.47c1.12-0.49,1.97-0.63,3.19-0.72c0.14,0.82-0.5,1.21-1.12,1.53c-0.37,0.19-1.67,0.37-1.91,0.69c-0.42,0.54,1.01,0.92,1.28,1.16c0.64,0.57,0.95,0.99,0.94,1.86c-0.86-0.01-1.58-0.72-2.2-1.23C87.31,502.63,86.37,502.16,85.6,501.47M103.12,500.15c-1.11-0.17-2.09-0.66-3.24-0.79c0.02-0.71,0.4-1.53,1.03-1.86c0.82-0.43,1.37,0.04,2.08,0.53c0.46,0.32,3.86,2.42,2.9,3.04c-1.24,0.8-2.94,2.51-4.47,2.54c-0.37,0.01-0.47-0.71-0.56-0.95c-0.14-0.38,0.08-0.69,0.44-0.89C101.97,501.39,102.95,500.99,103.12,500.15M96.08,503.83c0.28-0.55,0.04-1.3,0.02-1.89c0-0.13-1.72-0.13-2-0.13c0.11,0.7,0.24,1.28,0.23,2C94.94,503.74,95.49,503.65,96.08,503.83M99.09,503.36c-0.38-0.33-1.07-0.27-1.25,0.24C98.25,503.53,98.67,503.42,99.09,503.36M93.09,502.8c-0.09-0.33-0.19-0.66-0.24-1c-0.38,0.09-0.57,0.4-0.68,0.74C91.99,503.11,92.82,503.24,93.09,502.8M111.35,501.74c0-0.25,0.01-0.5,0.01-0.75C111.15,501.21,111.17,501.5,111.35,501.74M97.6,501.59c-0.05-0.35-0.06-0.69-0.24-1C97.07,500.96,97.32,501.31,97.6,501.59M93.35,501.55c0.04-0.29-0.12-0.51-0.24-0.75c0.48-0.16,0.39-0.58,0.26-1c-0.42,0.37-0.7,0.78-1.01,1.24C92.68,501.24,92.98,501.49,93.35,501.55M67.12,499.77c0.12-0.6-0.8-1.17-1.26-0.71c-0.38,0.37-0.66,1.17-0.75,1.69C65.86,500.65,66.5,500.16,67.12,499.77M111.37,499.99c0.02-2.33,0.05-4.67,0.07-7c-0.75,0.79-0.28,2.53-0.29,3.5C111.15,497.48,110.65,499.15,111.37,499.99M102.51,487.14c0.27,0.99,0.51,2.08,1,2.99c0.52,0.95,1.21,2.09,0.14,2.96c-0.92,0.76-1.8,1.66-2.5,2.63c-0.55,0.77-0.97,1.78-1.79,2.32c-1.27,0.84-1.47-1.06-1.42-2c0.05-0.98,0.31-2.15,0.67-3.05c0.41-1.02,0.76-2.16,1.34-3.1c0.51-0.83,1.12-2.23,2.06-2.63C102.17,487.19,102.33,487.15,102.51,487.14M89.25,487.75c1.62,1.01,2.24,3.61,2.73,5.32c0.27,0.92,0.54,1.84,0.79,2.77c0.11,0.39,0.27,2.61-0.6,2.19c-0.82-0.39-1.21-1.2-1.66-1.94c-0.6-0.98-1.34-1.88-2.03-2.8c-0.67-0.89-0.75-1.58-0.3-2.63C88.59,489.72,88.68,488.62,89.25,487.75M95.15,497.32c-0.58-0.9-0.43-2-0.53-3.01c-0.12-1.17-0.28-2.34-0.47-3.5c-0.17-1.04-0.29-2.14-0.61-3.15c-0.25-0.78-0.89-1.87-0.61-2.71c0.35-1.03,1.87-0.44,2.63-0.46c0.45-0.01,3.17-1,2.94,0.11c-0.33,1.66-0.83,3.29-1.3,4.91c-0.47,1.63-0.62,3.23-0.93,4.89C96.16,495.1,96.22,497.53,95.15,497.32M77.19,493.88c0.67-0.09,1.36-1.17,0.76-1.69c-0.45-0.39-1.54,0.13-2,0.43c-0.11-0.4-0.19-0.85-0.46-1.17c-0.21-0.25-0.83-0.41-1.1-0.17c-0.59,0.51,0.43,1.77,0.55,2.33c-0.61-0.01-1.86,0.63-1.26,1.37c0.64,0.8,1.66-0.01,2.25-0.36c-0.01,0.33,0.1,0.79,0.3,1.05c0.23,0.3,0.85,0.66,1.27,0.47C78.24,495.8,77.39,494.36,77.19,493.88M74.52,485.35c-0.35,1.15-1.31,2.08-1.87,3.14c-0.23,0.46,0.13,0.61,0.6,0.71c1.27,0.28,0.96-1.01,1.55-1.65c0.51-0.56,0.49-0.7,0.49-1.46C75.3,485.68,74.89,485.43,74.52,485.35M86.27,485.97c-0.81-1.24-0.31-4.45,1.55-4.48c0.13,0.7-0.42,1.8-0.63,2.46C86.96,484.62,86.87,485.51,86.27,485.97"/></g><g id="club"><path d="M3.35,4.66c0-1.81-1.51-3.28-3.38-3.28s-3.38,1.47-3.38,3.28c0,1.81,1.51,3.28,3.38,3.28S3.35,6.47,3.35,4.66z"/><path d="M7.71-1.55c0-1.81-1.51-3.28-3.38-3.28S0.95-3.36,0.95-1.55c0,1.81,1.51,3.28,3.38,3.28S7.71,0.26,7.71-1.55z"/><path d="M-0.95-1.57c0-0.66-0.2-1.28-0.55-1.8c-0.6-0.89-1.65-1.48-2.83-1.48c-1.87,0-3.38,1.47-3.38,3.28  c0,1.81,1.51,3.28,3.38,3.28S-0.95,0.24-0.95-1.57z"/><path d="M3.94-7.94c-1.67,0-2.55,1.36-3.01,2.72C0.47-3.86,0.43-2.5,0.43-2.5h-0.86c0,0-0.16-5.43-3.5-5.44H3.94z"/><path d="M-2.32,2.25c1.9-1.9,1.9-4.75,1.9-4.75l0.85-0.01c0,0,0,2.91,1.85,4.76"/><path d="M-1.94-3.85c1.9,1.9,4.75,1.9,4.75,1.9v0.85c0,0-2.91,0-4.76,1.85"/><path d="M1.87-3.86c-1.9,1.9-4.75,1.9-4.75,1.9v0.85c0,0,2.91,0,4.76,1.85"/></g><g id="base"><path style="fill:#FFFFFF;stroke:#000000;stroke-width:2.5" d="M 0,0C0,3.78 3.09,6.87 6.87,6.87L159.715,6.87C163.485,6.87 166.575,3.78 166.575,0L166.575,-228.4C166.575,-232.18 163.485,-235.27 159.715,-235.27L6.87,-235.27C3.09,-235.27 0,-232.18 0,-228.4L0,0 z"/></g><g id="king"><text transform="scale(0.56453 1.05741)" font-family="Bitstream Vera Serif" font-weight="bold" font-size="43">K</text></g></defs><g id="king_club" transform="translate(-2010.9,-0.0)"><use xlink:href="#base" x="2010.9" y="0" xlink:type="simple" xlink:show="embed" xlink:actuate="onLoad"></use><g fill="none" stroke="black" stroke-width="1"><path d="M 2020.77 -175.117L2020.77 2.27"/><path d="M 2020.77 2.27L2151.17 2.27"/><path d="M 2168.6 -54.03L2168.6 -231.667"/><path d="M 2168.6 -231.667L2038.2 -231.667"/></g><g><use xlink:href="#club" x="852.91" y="-85.2573" transform="scale(2.4) rotate(180,852.91,-85.2573)" xlink:type="simple" xlink:show="embed" xlink:actuate="onLoad"></use><rect x="2028.48" y="-223.601" width="9.69257" height="37.968" fill="white"/></g><g><use xlink:href="#club" x="892.663" y="-10.2745" transform="scale(2.4)" xlink:type="simple" xlink:show="embed" xlink:actuate="onLoad"></use><rect x="2151.64" y="-43.6428" width="9.69257" height="37.968" fill="white"/></g><g transform="rotate(-1.80,2094.69,-114.699)"><line x1="2052.05" y1="-52.8349" x2="2137.33" y2="-176.563" stroke="black" stroke-width="7.25"/><circle cx="2054.47" cy="-55.8933" r="2.2" fill="white"/><circle cx="2054.47" cy="-55.8933" r=".7" fill="black"/><circle cx="2057.83" cy="-60.7766" r="2.2" fill="white"/><circle cx="2057.83" cy="-60.7766" r=".7" fill="black"/><circle cx="2061.2" cy="-65.6598" r="2.2" fill="white"/><circle cx="2061.2" cy="-65.6598" r=".7" fill="black"/><circle cx="2064.57" cy="-70.543" r="2.2" fill="white"/><circle cx="2064.57" cy="-70.543" r=".7" fill="black"/><circle cx="2067.93" cy="-75.4263" r="2.2" fill="white"/><circle cx="2067.93" cy="-75.4263" r=".7" fill="black"/><circle cx="2071.3" cy="-80.3095" r="2.2" fill="white"/><circle cx="2071.3" cy="-80.3095" r=".7" fill="black"/><circle cx="2074.66" cy="-85.1928" r="2.2" fill="white"/><circle cx="2074.66" cy="-85.1928" r=".7" fill="black"/><circle cx="2078.03" cy="-90.076" r="2.2" fill="white"/><circle cx="2078.03" cy="-90.076" r=".7" fill="black"/><circle cx="2081.39" cy="-94.9592" r="2.2" fill="white"/><circle cx="2081.39" cy="-94.9592" r=".7" fill="black"/><circle cx="2084.76" cy="-99.8425" r="2.2" fill="white"/><circle cx="2084.76" cy="-99.8425" r=".7" fill="black"/><circle cx="2088.12" cy="-104.726" r="2.2" fill="white"/><circle cx="2088.12" cy="-104.726" r=".7" fill="black"/><circle cx="2091.49" cy="-109.609" r="2.2" fill="white"/><circle cx="2091.49" cy="-109.609" r=".7" fill="black"/><circle cx="2094.86" cy="-114.492" r="2.2" fill="white"/><circle cx="2094.86" cy="-114.492" r=".7" fill="black"/><circle cx="2098.22" cy="-119.375" r="2.2" fill="white"/><circle cx="2098.22" cy="-119.375" r=".7" fill="black"/><circle cx="2101.59" cy="-124.259" r="2.2" fill="white"/><circle cx="2101.59" cy="-124.259" r=".7" fill="black"/><circle cx="2104.95" cy="-129.142" r="2.2" fill="white"/><circle cx="2104.95" cy="-129.142" r=".7" fill="black"/><circle cx="2108.32" cy="-134.025" r="2.2" fill="white"/><circle cx="2108.32" cy="-134.025" r=".7" fill="black"/><circle cx="2111.68" cy="-138.908" r="2.2" fill="white"/><circle cx="2111.68" cy="-138.908" r=".7" fill="black"/><circle cx="2115.05" cy="-143.792" r="2.2" fill="white"/><circle cx="2115.05" cy="-143.792" r=".7" fill="black"/><circle cx="2118.42" cy="-148.675" r="2.2" fill="white"/><circle cx="2118.42" cy="-148.675" r=".7" fill="black"/><circle cx="2121.78" cy="-153.558" r="2.2" fill="white"/><circle cx="2121.78" cy="-153.558" r=".7" fill="black"/><circle cx="2125.15" cy="-158.441" r="2.2" fill="white"/><circle cx="2125.15" cy="-158.441" r=".7" fill="black"/><circle cx="2128.51" cy="-163.325" r="2.2" fill="white"/><circle cx="2128.51" cy="-163.325" r=".7" fill="black"/><circle cx="2131.88" cy="-168.208" r="2.2" fill="white"/><circle cx="2131.88" cy="-168.208" r=".7" fill="black"/><circle cx="2135.24" cy="-173.091" r="2.2" fill="white"/><circle cx="2135.24" cy="-173.091" r=".7" fill="black"/></g><use xlink:href="#king" x="2014.9" y="-199.117" xlink:type="simple" xlink:show="embed" xlink:actuate="onLoad"></use><use xlink:href="#king" x="2174.47" y="-30.28" transform="rotate(180,2174.47,-30.28)" xlink:type="simple" xlink:show="embed" xlink:actuate="onLoad"></use><use xlink:href="#club" x="2024.55" y="-185.117" transform="rotate(180,2024.55,-185.117)" xlink:type="simple" xlink:show="embed" xlink:actuate="onLoad"></use><use xlink:href="#club" x="2164.82" y="-44.28" xlink:type="simple" xlink:show="embed" xlink:actuate="onLoad"></use><use xlink:href="#king_3" transform="matrix(0.990000,0.000000,0.000000,0.990000,2058.172,-647.2718)" id="use1575" x="0.0000000" y="0.0000000" width="2178.4751" height="1215.6875" xlink:type="simple" xlink:show="embed" xlink:actuate="onLoad"></use><use xlink:href="#king_3" transform="matrix(-0.990000,0.000000,0.000000,-0.990000,2131.263,417.7458)" id="use1576" x="0.0000000" y="0.0000000" width="2178.4751" height="1215.6875" xlink:type="simple" xlink:show="embed" xlink:actuate="onLoad"></use></g></svg>