<?xml version="1.0" encoding="UTF-8"?>
<svg xmlns="http://www.w3.org/2000/svg" xmlns:xlink="http://www.w3.org/1999/xlink" version="1.1" height="263" width="188" viewBox="-1.3 -236.8 188 263" preserveAspectRatio="xMidYMid meet" zoomAndPan="magnify" contentScriptType="application/ecmascript" contentStyleType="text/css"><defs><g id="king_4"><g><path style="fill:#1C1585;" d="M398.52,511.06l-2.79-4.01l-1.27-0.08c0.32,2.87,1.01,5.71,1.12,8.6c0.12,3.17,0.24,6.34,0.36,9.51c0.1,2.63-0.57,5.32-0.61,7.97c-0.05,2.9-0.06,5.79-0.02,8.69c0.16,11.97-0.91,23.76-7.24,34.24c-0.03,0.04-0.05,0.08-0.08,0.12v0.19h-0.11c-3.07,5.07-6.03,9.86-9.51,14.68c-3.01,4.18-6.4,8.06-9.42,12.23l2.64,3.34c3.16-1.08,7.49-2.52,9.8-4.98c1.46-1.55,3.29-3.06,4.53-4.81c1.12-1.58,1.9-3.52,2.82-5.23l-0.32-4.34l0.87-2.31l4.65-3.39c2.42-4.18,5.08-8.01,5.09-13.05c0.02-6.18,0.04-12.35,0.05-18.53c0.02-8.53,0.05-17.05,0.07-25.58C399.17,519.89,399.67,515.36,398.52,511.06"/><path style="fill:#E61408;" d="M329.97,569.03c6.31-0.59,12.57-1.27,18.85-2.11l-0.46-0.32l-0.19-0.01c-4.82-3.81-9.86-6.03-15.44-8.55l0.02-0.02c-3.43-1.13-7.77-0.91-11.37-1.3c-2.25,3.9-5.02,7.61-7.47,11.41C319.27,568.54,324.6,568.81,329.97,569.03"/><path style="fill:#E61408;" d="M378.28,522.75c-1.6,4.04-3.19,8.09-4.79,12.13c-1.22,3.08-0.55,7.56-0.7,10.87c3.38-0.79,6.96-2.12,10.42-2.44c3.77-0.36,7.55-0.71,11.32-1.07l0.67-0.7c0.13-8.2,0.75-16.29,0.43-24.48c-0.15-3.91-0.36-8.54-1.99-12.12c-1.96-4.32-4.16-7.74-6.92-11.62l-1.17-0.04c-0.66,4.3-1.12,8.61-2.35,12.78C381.55,511.62,379.92,517.18,378.28,522.75"/><path style="fill:#E61408;" d="M370.12,524.72c0.51-1.7,1.03-3.39,1.54-5.09c0.42-1.38,1.26-3.04,1.23-4.5c-8.68,6.98-19.19,9.83-30.19,9.88c-0.69,0.8-0.77,2.04-1,3.02c-0.54,2.28-1.09,4.56-1.63,6.84c-0.78,3.28-1.78,6.44-1.84,9.82c3.55,2.08,7.1,4.16,10.65,6.23c3.43,2.01,5.84,5.38,9.44,7.2C362.33,547.01,366.29,535.89,370.12,524.72"/><path style="fill:#E61408;" d="M382.43,585.32c1.82-3.01,3.64-6.02,5.46-9.03H388v-0.19c1.55-2.56,2.65-5.35,3.87-8.08c1.19-2.67,1.48-5.54,2.01-8.42c-4.2-0.45-7.82-0.51-12.03-0.19l-0.5,0.59h-5.67c-0.22,2.66-1.05,5.32-1.05,7.96l-0.06,0.07 h-0.27c-1.17,7.49-8.67,13.32-15.35,15.52v3.17h0.13c0.2,2.72,1.08,5.16,1.88,7.77c2.32,2.67,4.66,5.18,7.19,7.65l1.29,0.3C373.78,596.74,378.1,591.03,382.43,585.32"/><polyline style="fill:#E61408;" points="358.96,568.04 358.96,569.83 359.48,568.04 358.96,568.04 "/><path style="fill:#1C1585;" d="M368.88,546.55c3.23-8.19,7.24-16.48,9.73-24.92c1.69-5.73,3.38-11.47,5.06-17.2c1.13-3.84,1.39-8.01,2-11.96c-2.56-2.8-4.66-5.07-7.84-7.09l-0.12,0.72c1.48,2.71,2.51,5.49,3.62,8.38c-0.28,7.85-1.85,15.36-8.3,20.55c-1.68,7.57-4.72,15-7.23,22.32c-2.46,7.17-5.07,14.29-7.63,21.43l3.16,3.72c1.29-2.67,2.64-5.31,3.88-8C366.35,551.99,367.09,548.66,368.88,546.55"/><path style="fill:#F8C20F;" d="M349.97,524.64c8.17-0.94,16.16-4.08,22.59-9.24c6.7-5.38,8.48-12.69,8.77-20.93c-1.47-3.83-3.03-7.31-5-10.9l-4.93-3.42l-1.29,0.47c-2.33,3.63-4.54,7.34-6.97,10.9c-2.49,3.66-5.19,7.4-7.25,11.32c-2.1,4.01-5,7.71-7.42,11.55c-2.24,3.56-4.5,7.19-6.92,10.62C344.39,524.99,347.15,524.96,349.97,524.64"/><path style="fill:#F8C20F;" d="M342.38,562.39c2.17,0.75,4.01,2.79,5.79,4.2c3.81,0.18,7.63,0.36,11.44,0.54l0.65-2.66c-6.7-6.92-13.91-13.63-23.15-16.87c0.12,2.54-0.1,4.31-0.71,6.78c-1.29,1.19-2.51,2.35-3.67,3.66L342.38,562.39"/><path style="fill:#F8C20F;" d="M365.81,580.31c1.97-1.8,4.85-4,6.02-6.46c1.35-2.85,2.37-5.35,3.09-8.41c0.62-2.63,1.2-5.69,0.79-8.39c-0.21-1.39-0.12-3.41-0.79-4.66c-0.83-1.56-1.66-3.12-2.48-4.68l-2.72-2.33c-4,5.59-6.3,13.17-9.07,19.45c-2.75,6.25-2.57,12.16-1.99,18.83C361.34,582.78,363.39,581.76,365.81,580.31"/><path style="fill:#E61408;" d="M362.03,602.01l-2.12-1.38c-4.17,5.1-8.42,9.47-14.12,12.84l3.83,0.72l2.31,2.83l1.45,0.6c1.58-1.98,4-3.43,6.18-4.73c2.72-1.62,4.7-3.32,7-5.5l-1.18-2.64L362.03,602.01"/><path style="fill:#E61408;" d="M298.05,602.48l-1.91-3.88l-0.15-2.13l0.25-0.38c-1.33,1.9-2.4,3.92-3.53,5.95c0.94,1.5,1.67,2.93,3.03,4.06l5.77,1.88l1.88-0.55l-3-0.63L298.05,602.48"/><path style="fill:#E61408;" d="M325.88,598.65l0.95-9.55l3.68-0.37l-0.62-0.24c-3.14,0.08-5.89-0.39-8.99-0.94c-1.7,0.5-3.47,1.23-5.22,1.46c0.68,4.84,1.06,9.63,1.4,14.51l-2.88,0.64c2.18-0.17,4.73-0.8,6.88-0.36c2.74,0.55,5.48,1.1,8.22,1.65l-4.16-1.31L325.88,598.65"/><polyline style="fill:#E61408;" points="335.73,589.69 335.43,589.55 332.75,589.54 333,589.64 335.73,589.69 "/><polyline style="fill:#E61408;" points="309.84,589.33 309.47,589.43 313.34,589.13 309.84,589.33 "/><path style="fill:#E61408;" d="M307.75,599.17l-1.41-8.18l1.48-1.1c-2.53,0.7-5.07,1.35-7.62,1.99l-1.69,2.5l-1.14,0.09l-0.05,0.07l1.37,0.6c1.55,3.76,2.82,7.75,5.07,11.14l-0.35,1.14c2.27-0.67,4.44-1.48,6.66-2.33l-0.48,0.11L307.75,599.17"/><path style="fill:#E61408;" d="M342.39,606.99c3.05-3.76,5.87-7.64,8.57-11.66l1.54-0.17l-1.22-0.33l-0.63-0.82c-1.22-0.73-2.66-2.01-4.04-2.33c-1.91-0.45-3.82-0.89-5.72-1.34l-3,0.4l-1.19-0.57l1.14,0.69c-1.31,5.45-2.88,10.51-4.79,15.78l-0.17-0.05c2.86,1.44,6.04,2.65,8.7,4.44l-1.92-1.47L342.39,606.99"/><path style="fill:#F8C20F;" d="M353.37,608.05c2.25-2.47,4.49-4.92,6.61-7.51l-1.57-1.84l-2.58-1.17l-1.38-1.85l-1.61-0.56c-0.63,0.07-1.25,0.14-1.88,0.21c-3.41,5.07-6.84,10.03-11.3,14.23c1.85,1.42,3.7,2.83,5.55,4.25C348.14,612.08,350.69,610.15,353.37,608.05"/><path style="fill:#F8C20F;" d="M336,598.49l1.84-7.63c-0.63-0.39-1.27-0.77-1.9-1.16c-0.98-0.02-1.96-0.04-2.94-0.06c-0.77-0.31-1.55-0.62-2.32-0.93c-1.28,0.13-2.57,0.26-3.85,0.39c-0.5,5.03-1.01,10.03-1.69,15.04c2.64,0.83,5.27,1.67,7.91,2.5L336,598.49"/><path style="fill:#F8C20F;" d="M316.46,594.57c-0.26-1.87-0.53-3.74-0.79-5.61c-2.45,0.19-4.91,0.37-7.36,0.56c-0.66,0.49-1.31,0.98-1.97,1.47c0.85,4.9,1.8,9.45,3.25,14.21c2.5-0.56,4.99-1.12,7.49-1.68L316.46,594.57"/><path style="fill:#F8C20F;" d="M302.36,604.17c-1.2-3.02-2.44-6.02-3.67-9.03c-0.47-0.21-0.95-0.41-1.42-0.62c-0.43,0.65-0.85,1.3-1.28,1.95l0.15,2.13c1.36,2.77,2.78,5.49,4.25,8.2c1.01,0.21,2.01,0.42,3.02,0.63c0.12-0.38,0.23-0.77,0.35-1.15L302.36,604.17"/><path style="fill:#F8C20F;" d="M356.06,649.09l-2.36-0.84l-1.04-1.82c-1.02-0.18-2.01-0.48-3.01-0.75c-1.03-0.97-1.91-1.91-2.79-3.02l-0.97-3.2l-1.97-1.82c-5.63,2.61-11.31,4.68-17.38,5.96c-5.92,1.24-11.65,1.54-17.7,1.45l-1.23,0.86l-1.06,2.27l0.58,0.92c-0.18,4.33-2.14,7.68-5.17,10.69l-0.13,1.13l1.05,0.07l1.11-1.93l0.83-0.19l0.09,2.89l0.8,0.07c1.11-0.39,2.18-0.88,3.26-1.34l1.67-2.64l0.22-2.31l-0.73-0.74c-1.17,0.55-2.12,0.9-3.39,1.16c0.32-0.83,0.63-1.67,1.02-2.48l2.25-0.96c1.92,1.13,3.71,2.06,5.77,2.89l-0.07,2.52l1.85,0.8l0.77-0.64l1.29-0.21l0.25-0.62l-0.49-1.1l0.43-0.52l3.2,0.28c0.67,1.55,1.29,2.61,2.35,3.92c1.5,0.64,2.63,1.16,4.24,1.27c1.72-0.68,2.67-1.46,4.07-2.69l0.69-4.12l3.88-1.86l0.15,2.43l2.46,0.01l0.77-1.2l0.74-0.4c-0.65-0.76-0.95-1.77-1.34-2.68c1.2-1.77,1.85-3.32,2.57-5.34l3.97,0.41l2.76,1.67l-3.58,1.32l1.72,2.55l2.98,1.4l3.32-0.3c0.99-0.6,1.54-1.37,2.25-2.27l-0.18-0.55L356.06,649.09"/></g><path d="M311,654.49c-1.12-0.09-2.04,0.74-3.1,0.96c-0.42,0.09-1.13,0.48-0.73-0.31c0.22-0.44,0.45-0.94,0.58-1.41c-0.34,0.05-0.67,0.15-1,0.25c0.45-0.84,0.88-1.96,2.01-1.99c-0.37,0.48-0.75,0.94-1,1.5c0.56-0.11,1.49-0.81,2.06-0.6c1.56,0.58,2.71,1.78,4.38,2.16c0.74,0.17,1.58,0.65,1.28,1.52c-0.28,0.84-0.5,1.58,0.45,1.88c0.6,0.2,1.42,0.8,2,0.42c0.34-0.22,0.59-0.61,1.03-0.58c0.16,0.01,0.97,0.15,1.05-0.07c0.26-0.71-0.06-1.26-0.27-1.94c0.85-0.2,2.37-0.54,3.13,0.13c0.64,0.56,0.84,1.92,1.38,2.63c1.35,1.78,3.64,2.35,5.81,2.21c1.03-0.07,1.93-0.73,2.66-1.39c0.7-0.63,1.48-1.61,1.62-2.57c0.15-1.04,0.17-2.21,0.9-3.04c0.62-0.71,1.93-0.98,2.76-1.41c0.27,0.92-0.18,1.74-0.03,2.65c0.01,0.07,2.26-0.18,2.57-0.16c0.62,0.02,0.64-0.05,0.82-0.61c0.2-0.63,1.41-0.94,1.35-1.4c-0.1-0.62-0.67-1.18-1.2-1.46c0.13,0.43,0.35,0.83,0.49,1.25c-0.3,0-0.55,0.13-0.74,0.36c-0.29,0.36-0.06,0.9-0.56,0.86c-0.65-0.06-1.34-0.32-1.95,0.02c0-0.41-0.2-2.21,0.15-2.52c0.28-0.25,0.75-0.88,1.11-0.97c0.35-0.1,0.9,0.18,1.25,0.25c0.03-0.98,0.81-1.78,1.29-2.58c0.49-0.82,0.85-1.95,1.74-2.44c1.57-0.85,4.09,0.21,5.23,1.3c-0.35,0.05-2.79,0.42-3,0.74c-0.15,0.24,0.2,1.06,0.29,1.3c0.23,0.6,0.5,0.99,0.95,1.46c0.83,0.88,1.71,1.36,2.8,1.83c0.96,0.41,2.07,0.23,3.09,0.13c1.03-0.1,2.14-0.63,2.75-1.53c0.27-0.41,0.86-0.96,0.75-1.49c-0.18-0.9-1.94-1.09-2.61-1.44c-0.56-0.29-1.07-0.69-1.38-1.24c-0.19-0.34-0.33-0.97-0.79-1.03c-0.58-0.08-1.23-0.08-1.78-0.29c-0.94-0.35-1.95-1.16-2.43-2.06c-0.71-1.35-1.2-2.77-1.51-4.23c-0.12-0.56-0.61-0.87-1-1.26c-0.78-0.77-0.61-1.77-0.33-2.72c0.33-1.12,0.58-2.25,0.62-3.42c0.04-1.18-0.12-2.37-0.45-3.5c-0.3-1.02-0.83-2.19-0.23-3.21c0.57-0.98,1.82-1.4,2.84-1.72c0.7-0.22,2.08,0.65,2.64,0.98c1.1,0.66,2.36,0.93,3.61,1.13c1.01,0.17,2.24-0.2,3.12-0.67c1.15-0.61,1.15-2.32,1.16-3.45c0-0.67-0.03-2.35,1.09-2c1.12,0.35,2.07,0.73,3.26,0.57c1.3-0.17,1.75-1.23,2.36-2.23c1.1-1.82-0.84-3.64-0.38-5.39c0.23-0.85,0.55-1.88,1.7-1.7c-0.45-0.74-1.02-0.54-1.64-0.2c-0.68,0.37-0.78,0.9-0.86,1.64c-0.15,1.33,0.57,2.83,0.71,4.15c0.13,1.2-0.89,2.57-1.99,2.99c-1.19,0.46-3.19,0.04-3.49-1.36c1.3,0,3.53,0.3,4.25-1.11c0.8-1.56,0.15-3.23-0.17-4.84c-0.19-0.98,2.06-3.41,3.05-2.63c0.9,0.71,1.4,0.9,0.8,1.99c-0.52,0.94-1.28,0.26-1.91-0.14c-0.22,0.56,0.13,1.31,0.76,1.41c0.32,0.05,0.85-0.19,1.17-0.26c0.36-0.08,0.35-0.24,0.51-0.58c0.42-0.91,0.49-1.08,0.26-2.04c-0.14-0.58-0.57-1.06-0.94-1.52c4.2-0.13,8.35-2.7,11.82-4.84c3.79-2.34,6.98-5.44,9.11-9.37c0.71-1.31,1.03-2.79,1.12-4.27c0.07-1.05-0.63-2.61-0.26-3.56c0.5-1.29,2.7-2.12,3.69-3.02c1.46-1.33,2.55-2.92,3.58-4.58c1.14-1.85,2.36-4,2.96-6.09c0.25-0.88,0.13-1.81,0.19-2.71c0.08-1.16,0.21-2.29,0.22-3.46c0.01-2.46-0.02-4.92-0.01-7.38c0.02-4.95,0.03-9.89,0.05-14.84c0.04-10.11,0.05-20.22,0.11-30.34c0.02-3.36-3.01-5.93-5.02-8.27c-1.08-1.28-1.59-2.88-2.31-4.37c-0.86-1.79-1.9-3.46-3.07-5.06c-2.21-3.06-4.67-5.93-7.43-8.51c-2.68-2.51-5.61-5.27-8.76-7.18c-0.58-0.35-2.32-1.67-2.68-0.78c-0.34,0.84-0.98,1.58-1.37,2.41c1.74-0.2,3.95,2.53,4.89,3.71c1.18,1.49,3.13,3.94,3.09,5.93c-0.02,0.82-0.22,0.78-0.98,0.98c-0.73,0.19-1.72-0.22-2.4-0.45c-1.08-0.36-2.08-0.67-3.24-0.63c-0.92,0.03-1.86,0.13-2.75,0.31c-0.82,0.17-1.82,0.49-2.65,0.21c-0.69-0.23-1.33-0.5-1.98-0.83c-0.14,0.43-0.36,0.82-0.5,1.25c0.96-0.16,1.88,0.41,2.83,0.45c0.94,0.04,1.82-0.26,2.73-0.45c1.28-0.27,3.4-0.6,4.2,0.78c-0.91-0.21-2.67,0.57-3.5,0.9c-1.02,0.39-2.47,1.05-2.51,2.33c1.13,0.06,2.14,0.33,3.25,0.51c-0.45,1.01-1.78,1.4-2.13,2.36c-0.15,0.41-0.14,0.4,0.27,0.55c1.15,0.41,3.19-0.66,4.06,0.32c0.55,0.62,1.03,1.51,1.7,0.56c0.42-0.59,0.89-1.31,1.1-2.01c0.45,0.32,0.96,0.42,1.5,0.5c0.03-0.92,0.26-1.87,0.05-2.78c-0.22-0.99-0.78-1.94-0.78-2.97c0.55,0,1.02,0.01,1.55,0.14c1.59,0.38,0.98,3.9,0.92,5.05c-0.11,2.13-0.8,4.24-1.68,6.17c-1.82,4.01-4.63,6.94-8.18,9.46c-3.53,2.5-7.43,4.37-11.58,5.57c-2.11,0.6-4.3,0.83-6.46,1.21c-1.89,0.33-4.13,0.7-5.92-0.22c-0.31,0.6-0.72,1.14-1.01,1.75c2.07-0.51,4.38-0.5,6.5-0.73c2.4-0.23,4.68-0.88,7.05-1.3c2.09-0.37,4.01-1.35,5.94-2.18c2.21-0.95,4.28-2.13,6.25-3.5c3.45-2.4,6.29-5.59,7.98-9.48c0.87-2.02,1.49-4.21,1.62-6.41c0.13-2.29,0.33-4.77-0.24-7.02c-0.52-2.08-1.29-4.25-2.63-5.95c-0.79-0.99-1.61-2.09-2.56-2.92c-0.7-0.62-1.73-1-2.17-1.88c-0.75-1.49,1.2-0.78,1.85-0.29c2.19,1.66,4.03,3.96,5.42,6.31c1.55,2.62,2.27,5.11,2.74,8.08c0.08,0.56,0.58,0.99,0.6,0.17c0.02-0.94-0.05-1.88-0.25-2.79c-0.29-1.25-0.74-2.47-1.2-3.67c-0.44-1.13-1.21-2.14-1.54-3.32c2.03,1.67,4.47,3.45,6,5.62c0.48,0.7,0.63,0.86,0.58,1.68c-0.09,1.55-0.78,3.04-0.84,4.57c-0.03,1.43-0.27,2.78-0.47,4.2c-0.39,2.79-1.29,5.61-2.02,8.32c-1.6,5.96-3.43,12.01-5.83,17.7c-1.21,2.86-2.42,5.71-3.64,8.56c-1.19,2.79-2.67,5.64-3.49,8.56c-0.81,2.88-2.37,5.44-3.48,8.21c-1.12,2.81-2.47,5.56-3.82,8.27c-0.75-0.77-1.67-1.57-2.22-2.51c-0.65-1.1,0.19-2.47,0.58-3.52c0.51-1.35,1.06-2.67,1.42-4.08c0.69-2.7,2.14-5.24,3.05-7.89c1.88-5.49,3.81-10.95,5.58-16.47c0.91-2.84,1.56-5.71,2.4-8.55c0.32-1.08,0.61-2.33,1.38-3.19c0.9-1.01,1.96-1.84,2.82-2.91c0.76-0.93,1.5-2.21,2.06-3.28c0.69-1.31,1.4-2.62,1.82-4.04c0.78-2.68,1.09-5.45,1.09-8.25c-0.65,0.47-0.53,1.43-0.51,2.13c0.05,1.15-0.25,2.31-0.52,3.42c-0.57,2.33-1.43,4.6-2.68,6.65c-3.3,5.43-9.25,9.13-14.92,11.7c-3.29,1.49-6.88,2.46-10.43,3.07c-1.76,0.3-3.54,0.5-5.33,0.58c-0.9,0.04-1.79,0.05-2.69,0.04c-0.8-0.01-1.92-0.29-2.6,0.28c-0.65,0.54-0.01,0.66-0.05,1.29c-0.05,0.95-0.3,1.87-0.5,2.8c-0.47,2.15-0.93,4.31-1.43,6.46c-0.48,2.09-0.99,4.19-1.52,6.28c-0.2,0.78-0.8,2.96,0.04,3.54c1.71,1.15,3.68,1.88,5.45,2.95c2,1.2,3.89,2.58,5.75,3.97c3.65,2.73,7,5.68,10.09,9.03c0.68,0.74,1.41,1.72,1.09,2.77c-0.84-0.5-1.35-1.36-2.03-2.04c-0.95-0.96-1.87-1.91-2.9-2.79c-1.99-1.7-3.99-3.39-6.04-5c-1.95-1.53-3.97-2.98-6.13-4.22c-1.14-0.65-2.31-1.24-3.53-1.73c-0.94-0.38-2.13-0.58-2.85-1.34c-0.69-0.73-1.22-1.42-1.17-2.49c0.12-2.55,1.22-5.06,1.82-7.53c0.68-2.81,1.24-5.66,1.95-8.46c-0.78,0.45-1.19,1.45-1.59,2.21c-0.18,0.35-0.19,0.79-0.22,1.17c-0.05,0.65-0.34,1.15-0.61,1.73c-0.29,0.6-0.67,1.26-1.23,1.66c-0.68,0.48-1.08,0.17-1.59,0.95c-0.21,0.32-0.41,0.66-0.54,1.02c1-0.25,1.51-0.37,2.06,0.56c0.35,0.59,0.59,1.57,0.22,2.22c-0.56,0.99-0.8,1.43-1.77,2.02c-0.53,0.32-1.52-0.64-2.04-0.81c0.1,0.7,0.37,1.41,0.51,2.12c0.1,0.54-0.36,1.13-0.52,1.63c2.17,0.34,4.15,1.93,4.44,4.21c0.26,2.06,0.12,4.64-1.58,6.14c-0.85,0.74-1.75,1.5-2.84,1.85c-1.85,0.59-3.97-0.24-5.84-0.42c-1.02-0.1-2.05-0.17-3.07-0.26c-0.62-0.05-1.69-0.51-2.1,0.1c-0.31,0.46-3.4,4.92-2.88,5.18c0.21,0.11,0.49,0.2,0.65,0.38c0.07,0.08,0.38,0.52,0.42,0.54c0.62,0.14,1.8-1.78,2.26-2.15c0.91-0.72,2.16-0.31,2.94,0.41c0.97,0.91,2.05,0.06,2.94-0.5c0.74-0.47,2.23,0.3,2.67,0.95c0.27,0.41,0.36,0.8,0.54,1.24c0.27,0.66,1.2-0.02,1.59-0.18c0.86-0.35,1.85-0.48,2.58,0.22c0.38,0.36,1.01,0.76,1.2,1.26c0.18,0.49,0.29,1.01,0.49,1.49c-0.03-0.06,2.96-0.77,3.18-0.82c0.35-0.07,1.04,0.63,1.33,0.83c0.39,0.27,0.3,1.09,0.13,1.46c-0.69,1.47-4.46,1.25-5.75,1.32c-2.75,0.15-5.41,0.53-8.17,0.51c-2.73-0.02-5.49-0.29-8.22-0.47c-1.13-0.07-2.33,0.08-3.44-0.11c-0.13-0.02-1.63-0.35-1.58-0.44c-0.35,0.54-0.78,1.09-0.98,1.71c1.77-0.58,3.66-0.57,5.49-0.35c1.81,0.22,3.62,0.05,5.43,0.24c3.71,0.39,7.53,0.39,11.22-0.19c1.9-0.3,3.79-0.36,5.7-0.57c1.92-0.21,3.81-0.66,5.73-0.87c1.85-0.2,3.71-0.23,5.57-0.27c1.79-0.04,3.92-0.07,5.67,0.29c1.29,0.28,0.58,2.1-0.39,2.28c-0.79,0.15-1.59-0.03-2.37-0.11c-0.98-0.11-1.98,0.02-2.96,0.07c-1.87,0.1-3.71,0.31-5.55,0.64c-3.76,0.69-7.65,1.03-11.47,1.21c-1.85,0.09-3.62,0.28-5.47,0.05c-1.81-0.21-3.73-0.36-5.55-0.38c-1.96-0.01-3.91-0.09-5.86-0.29c-1.93-0.2-4-0.03-5.89-0.44c-0.41-0.09-0.38,0.07-0.55,0.43c-0.17,0.34-0.36,0.66-0.52,1c1.94-0.51,3.39-0.55,5.3,0.13c0.88,0.31,0.44,3.74,0.43,4.35c-0.01,2.15,0.57,4.68-0.05,6.76c-0.42,1.39-3.64,1.22-4.72,1.26c0-1.02-0.24-1.99-0.24-3c-0.4,0.45-0.35,1.23-0.32,1.78c0.02,0.45,0.33,1.28-0.31,1.22c-0.18-0.02-0.21-1.98-0.26-2.25c-0.04-0.23,0-2.86-0.61-2.26c-0.18,0.22,0,1.29,0,1.52c0,0.99-0.01,1.99-0.01,2.98c-0.5-0.95-0.49-2.04-0.49-3.08c0-1.15-0.25-2.27-0.24-3.42c-0.75,0.83-0.27,3.46-0.27,4.5c-0.48-0.89-0.38-1.95-0.43-2.92c-0.06-1.28-0.05-2.54-0.05-3.83c-0.73,0.66-1.35,1.56-1.91,2.37c-0.49,0.71-0.69,0.73-0.26,1.46c0.82,1.37,0.3,3.41,0.39,4.92c0.08,1.48,0.93,1.53,2.2,1.36c3.17-0.4,6.22-1.04,9.44-1.07c1.49-0.02,2.96-0.26,4.45-0.22c1.58,0.04,3.16,0.18,4.74,0.23c3.1,0.09,6.17,0.88,9.23,1.27c1.46,0.18,2.93,0.3,4.36,0.68c1.67,0.43,3.36,1.03,5.06,1.33c0.87,0.16,0.77-0.07,0.92-0.88c0.06-0.35,0.01-0.73-0.16-1.04c-0.29,0.35-0.24,0.81-0.25,1.25c-1.77,0-3.61-0.84-5.32-1.25c-1.85-0.45-3.88-0.39-5.65-1.13c-0.79-0.33-0.79-0.52-1-1.36c-0.37-1.46,0.14-3.01,0.22-4.47c0.09-1.7-0.25-3.53,0.14-5.2c0.12-0.52,0.08-1.16,0.57-1.43c1.38-0.73,3.35-0.51,4.86-0.68c1-0.11,2.01-0.21,3-0.41c0.77-0.16,1.62-0.44,2.41-0.22c0.34,0.09,1.1,0.11,1.11,0.57c0.04,2.26,0.04,4.55,0,6.81c-0.03,2.32-0.57,4.42-0.08,6.76c0.49-0.62,0.34-1.63,0.29-2.35c-0.07-1.1-0.03-2.21-0.02-3.31c0.03-2.39,0.22-4.79,0.31-7.18c0.02-0.48,0.38-1,0.57-1.44c0.22-0.5,1.2-0.32,1.62-0.36c0.44-0.04,0.87,0.21,1.31,0.07c0.6-0.18,1.2-0.32,1.82-0.39c0.73-0.08,4.16-0.41,4.66,0.5c0.15,0.27-0.12,0.97-0.17,1.25c-0.13,0.66-0.13,1.35-0.19,2.03c-0.19,1.96-0.13,3.82,0.16,5.77c0.25,1.67,0.2,3.36,0.41,5.04c0.23,1.88,0.59,3.73,1.08,5.56c0.41,1.54,0.77,3.12,1.63,4.49c0.96,1.53,2.12,2.91,3.4,4.19c1.28,1.27,2.66,2.43,3.83,3.8c0.87,1.02,2.31,2.26,2.51,3.66c-1.04,0.14-1.98,0.67-3.05,0.77c-1.21,0.11-1.44-1.83-2.04-2.57c-1.19-1.47-2.7-2.65-4.27-3.68c-1.52-0.99-2.58-2.56-4.18-3.44c-0.64-0.36-1.19-0.5-1.68-1.08c-0.65-0.76-1.34-1.48-2.29-1.87c-0.26-0.11-1.83-0.36-1.9-0.48c-0.34-0.56-0.29-1.82-0.31-2.45c-0.07-2.22,0-4.48,0.03-6.7c0.03-2.06,0.37-4.06,0.33-6.12c-0.05-2.31-0.01-4.62,0-6.93c-0.61,0.65-0.49,2.93-0.51,3.77c-0.05,1.97-0.02,3.95-0.02,5.93c-0.01,2.04-0.01,4.09-0.02,6.13c-0.01,1.8,0.18,3.65-0.27,5.42c-1.04-0.46-1.93-1.17-2.99-1.59c-1.06-0.43-2.13-0.79-3.24-1.07c-1.11-0.27-2.26-0.66-3.39-0.8c-1.08-0.13-2.13,0.36-3.19,0.25c-0.92-0.09-1.66-0.8-2.58-0.89c-1.01-0.1-1.98,0.13-2.92-0.31c-0.96-0.45-1.95-0.8-3.01-0.88c-1.14-0.09-2.23,0.32-3.33-0.12c-2.04-0.81-4.23-0.87-6.38-0.53c-1.07,0.17-2.04,0.59-3.08,0.88c-1.25,0.35-2.52,0.2-3.8,0.19c-1.05,0-1.98,0.51-3.07,0.49c-1.13-0.03-2.19,0.45-3.19,0.9c-0.99,0.45-2.09,0.26-3.13,0.45c-1.15,0.21-2.22,0.64-3.23,1.22c-0.85,0.49-1.81,1.37-1.96,2.39c-0.26-0.15-0.5-0.34-0.75-0.5c-0.79,1.58-1.76,3.05-2.71,4.53c-0.93,1.45-2.25,3.06-2.82,4.69c0.93,0.2,1.36,1.16,1.72,1.94c0.41,0.91,1.1,1.46,2,1.87c0.79,0.37,1.75,0.3,2.58,0.67c0.83,0.36,1.73,0.7,2.18,1.55c-0.52,0.15-0.96,0.52-1.5,0.64c-1.53,0.33-3.95,0.38-5.43-0.18c-1.06-0.4-2.47-0.91-2.44-2.35c0.01-0.63-0.12-1.32,0.16-1.91c0.3-0.63,0.71-1.26,0.73-1.98c-1.1,0.64-1.57,2.27-2.45,3.18c-0.13,0.13,0.36,0.85,0.45,1.02c0.44,0.85,0.66,1.82-0.32,2.38c-0.77,0.44-1.69,0.25-2.46,0.66c0.02-0.43,0.14-0.84,0.25-1.25c-0.36,0.29-3.13,4.53-2.57,4.86c0.86,0.52,1.37,1.09,2.39,1.34c0.96,0.23,1.91-0.46,1.91-1.45c-0.83,0.14-1.31,0.46-2.18,0.24c-0.27-0.07-0.7-0.5-0.79-0.77c-0.13-0.43,0.16-0.81,0.33-1.22c0.74-1.75,2.87-0.78,3.92,0.08c0.53,0.43,0.9,1.11,1.53,1.39c0.87,0.4,1.42,0.55,2.36,0.35c0.79-0.17,1.55-0.55,2.3-0.85c0.77-0.3,1.52-0.13,2.27,0.06c-0.54,1.05-1.75,1.57-2.81,1.93c-1.42,0.48-2.51,0.44-3.91-0.09c-1.17-0.44-1.49-2.28-2.53-2.96c-1.11-0.73-2.79-0.08-2.75,1.33c0.58-0.13,1.17-0.47,1.72-0.69c0.45-0.18,1,0.56,1.22,0.9c0.57,0.85,1.07,2.46,1.93,3.06c0.49,0.34,1.05,0.9,1.61,1.12c0.58,0.22,1.37,0.13,1.98,0.07c1.01-0.11,2.51-0.71,3.03-1.66c-1.81,0.24-3.98,2.3-5.5,0.23c1.19-0.03,2.54-0.15,3.61-0.71c0.8-0.42,1.67-1.33,2.65-1.21c0.84,0.09,1.14,2.14,1.47,2.79c0.37,0.7,2.24,1.26,2.95,1.32c1.06,0.09,2.13-0.45,3.03-0.96c0.75-0.43,1.92-0.67,2.27-1.57c0.08-0.2,2.79,0.46,2.28,1.17c-0.21,0.29-1.11,0.35-1.43,0.63c-0.85,0.73,0.28,2.37-0.99,2.48c-0.63,0.05-1-0.37-1.33,0.28c-0.51,1.03-0.18,2.02-1.15,2.81c-0.75,0.62-1.9,1.07-1.76,2.24c0.21,1.66,0.61,3.27,0.78,4.94c0.15,1.52,0.98,3.05,0.93,4.56c-0.03,1.11-0.68,2.17-0.58,3.3c0.09,1.05,0.58,2.01,0.81,3.03c0.26,1.14,0.52,2.28,0.8,3.41c0.26,1.05-0.45,2.34-0.85,3.28c-0.26,0.63,0.44,1.55,0.39,2.23c-0.1,1.25-0.35,2.43-0.84,3.59c-0.49,1.15-1.32,2.06-1.88,3.17c-0.53,1.02-1.38,1.45-2.05,2.3c-0.35,0.44-0.81,0.76-0.72,1.32c0.11,0.67,0.91,0.68,1.42,0.74c0.91,0.11,1.69-1.28,1.82-2.08c0.39,0.75,0.15,1.96-0.01,2.75c2.03,0.01,3.68-0.25,5.16-1.76C311.14,658.68,311,656.5,311,654.49M305.23,661.72c0-1.12,0.07-2.15,0.26-3.25c0.58,0.43,0.66,1.32,0.82,1.97C306.5,661.23,305.99,661.74,305.23,661.72M307.23,660.98c-0.6-0.86-0.7-1.97-0.88-2.97c-0.04-0.2,0.57-0.78,0.7-0.94c0.64-0.83,2.63-1.89,3.7-1.33c-0.42,1.25-1.66,1.23-2.75,1.49c0.63,0.38,1.23,0.75,2,0.76c-0.03,1.66-1.55,0.84-2.5,0.49C307.64,659.31,308.72,660.7,307.23,660.98M327.98,660.8c-0.64-1.16,0.6-2.58,0.76-3.75c-1.1,0.92-1.53,3.68-3.51,2.49c0.54-0.93,1.54-1.54,2.01-2.49c-0.77,0.11-2.45,1.75-3.13,0.87c-0.9-1.17,1.8-1.45,2.38-1.62c-0.43-0.22-2.79-0.47-2.29-1.32c0.84-1.41,3.69,1.07,4.66,0.93c1-0.15,1.77-1.74,2.63-2.27c0.5-0.31,1.18-0.25,1.75-0.31c-0.37,0.62-1.18,0.87-1.75,1.24c0.87,0.26,1.64-0.11,2.5-0.24c-0.02,1.18-1.65,1.27-2.51,1.49c0.87,0.58,2.25,0.04,2.24,1.26c-0.95-0.02-1.81-0.09-2.75-0.26c0.64,0.58,1.39,1.04,2.24,1.26c-0.42,1.31-1.39,1.02-2.25,0.24c0.07,0.39,0.49,1.07,0.33,1.46c-0.2,0.47-0.96,0.79-1.33,0.41c-0.63-0.65-0.47-2.56-0.49-3.38C328.89,657.98,329.86,660.55,327.98,660.8M302.23,660.71c-0.05-0.25,0.12-0.88,0.5-0.5C303.11,660.59,302.48,660.76,302.23,660.71M317.24,658.51c-0.44-0.83-0.16-1.88,0.01-2.75c-0.42,0.36-0.56,0.73-0.75,1.25c-0.34-0.37-0.18-0.89-0.05-1.31c0.13-0.43,0.9-0.64,1.28-0.84c0.26-0.14,0.98,0.52,1.07,0.72c0.28,0.56,0.49,1.11,0.7,1.7C318.39,657.12,318.16,658.69,317.24,658.51M304.49,658.47C304.21,657.08,305.87,658.75,304.49,658.47M305.24,657.22c-0.01-0.53,0.5-0.96,1-1C306.24,656.8,305.81,657.2,305.24,657.22M328,655.3c0.09-0.37,0.52-1.47,1.13-1C329.94,654.95,328.28,655.27,328,655.3M322.75,654.53c-0.72-0.2-1.43-0.79-2-1.26c0.08,0.44,0.31,0.85,0.5,1.25c-0.72-0.09-1.43-0.15-2.14-0.25c-0.81-0.12-0.13-1.24,0.17-1.51c0.67-0.59,1.82-0.78,2.65-1.03c1.31-0.39,2.52-0.08,3.8,0.27c0.33,0.09,1.51,0.88,1.35,1.35c-0.3,0.9-0.56,0.99-1.38,0.51c-0.57-0.34-1.06-0.86-1.7-1.08c0.25,1.13-1.55,0.62-2,0.24C322.25,653.43,322.9,654.04,322.75,654.53M311.26,651.99c1.15-0.29,1.99,0.66,3,1.01c-0.08-0.17-0.17-0.34-0.25-0.5c0.54,0.08,1.21,0.42,1.4,0.97c0.13,0.4-0.1,0.34-0.25,0.68c-0.19,0.42-0.23,0.36-0.66,0.24C313.35,654.07,311.29,653.48,311.26,651.99M329.51,653.06c0.41-1.45,2.13-3.2,3.67-3.36c0.99-0.11,1.94-0.12,2.94-0.11c0.41,0,0.84,0.31,1.2,0.48c0.51,0.23,0.55,0.6,0.77,1.13c0.33,0.78-1.05,1.41-1.54,1.68c-0.77,0.43-1.58,0.64-2.29,0.12c-0.3-0.23-0.64-0.74-1-0.86C332.04,651.71,330.84,653.74,329.51,653.06M315.26,652.25c-0.12-0.87,1.09-0.75,1.73-0.74c0.76,0,1.51,0.01,2.27,0.01c-0.21,1.16-0.9,1.32-1.93,1.52C316.45,653.2,316.01,652.66,315.26,652.25M326.52,650.79c0.63-0.04,1.26,0,1.88-0.13c0.59-0.14,1.25-0.49,1.87-0.36c-0.15,0.82-0.88,1.64-1.47,2.18c-0.23,0.21-1.09-0.26-1.31-0.44C327.1,651.73,326.59,651.33,326.52,650.79M352.77,650.64c-0.36,0.72-0.36,2.02-1.56,1.64c-0.68-0.22-0.32-0.52-0.14-1.07c0.17-0.51,0.38-1.03,0.46-1.57c-0.74,0.92-1.35,2.06-2.69,1.52c-0.08-0.03,1.66-2.54,1.7-2.76c-0.51,0.46-1.08,1.02-1.75,1.24c-0.37,0.13-0.68,0.12-1.01-0.05c-0.3-0.16-0.63-0.62-0.29-0.83c2.66-1.68,6.2-0.23,8.85,0.6c0.48,0.15,0.55,0.14,0.36,0.71c-0.1,0.28-0.35,0.62-0.66,0.7c-0.67,0.17-1.44-0.57-2-0.87c0.32,0.34,0.66,0.65,0.88,1.08c0.26,0.51,0.55,0.85-0.04,1.16C353.81,652.68,352.88,651.65,352.77,650.64M341.51,651.6c-0.08-0.08-0.17-0.17-0.25-0.25C341.35,651.43,341.43,651.51,341.51,651.6M310.77,650.74c0.78-0.62,2.26-0.25,3.19-0.33c1.51-0.13,3-0.32,4.52-0.24c1.54,0.08,3-0.38,4.53-0.39c1.76-0.01,3.5-0.27,5.21-0.66c3.23-0.72,6.44-1.58,9.56-2.69c1.49-0.53,2.99-1.07,4.45-1.68c1.35-0.56,2.67-1.51,4.08-1.89c-0.26,0.96-1.77,1.33-2.56,1.68c-1.52,0.67-3.08,1.25-4.63,1.83c-1.48,0.55-2.96,1.07-4.46,1.57c-1.52,0.51-2.91,1.21-4.5,1.48c-3.02,0.51-5.88,1.45-8.97,1.42c-1.64-0.02-3.27,0.16-4.91,0.16C314.43,651,312.6,650.75,310.77,650.74M307.52,650.73c0.49-0.7,2.28-0.26,3-0.24C309.87,651.12,308.28,651.14,307.52,650.73M339.77,649.84c0.22-1.32,1.61-3.08,3.01-3.24C343.05,647.79,341.14,650.61,339.77,649.84M336.27,648.58c0.64-0.99,3.12-1.85,4.26-1.74c-0.16,0.99-0.92,1.92-1.23,2.89C339.18,650.11,336.65,648.78,336.27,648.58M311.27,649.24c-0.09-0.33-0.19-0.66-0.25-1C311.55,648.31,311.74,648.96,311.27,649.24M320.27,649.02c-0.25-0.45-0.07-1.17,0.5-1.25C320.74,648.25,320.7,648.73,320.27,649.02M315.77,649.01c-0.19-0.77,0.28-0.44,0.5,0C316.11,649.01,315.93,649.04,315.77,649.01M314.52,649c-0.58-0.41-0.48-2.38-0.49-3c0.98-0.18,0.72,0.75,0.68,1.39C314.69,647.97,314.91,648.51,314.52,649M324.52,648.79c0.03-0.54,0.39-0.97,0.63-1.44c0.38-0.74,0.61-0.93,1.35-1.29c0.59-0.29,1.24-0.25,1.87-0.27c0.93-0.03,0.67,0.46,0.67,1.27c0.55-0.36,0.76-1.34,0.13-1.78c-0.77-0.53-1.4-0.85-2.37-0.56c-0.6,0.18-1.17,0.47-1.78,0.6c-0.29,0.06-1.19-0.16-1.29,0.23c-0.07,0.28-0.41,0.47-0.68,0.49c-0.03-1.28,1.21-1.29,2.2-1.48c4.37-0.84,9.02-1.92,13.06-3.83c1.43-0.68,2.8-1.48,4.25-2.12c0.34-0.15,1.19-0.59,1.54-0.24c0.25,0.25-0.24,1.21-0.28,1.52c-0.09,0.72-0.01,1.06,0.52,1.63c0.23,0.25,0.54,0.34,0.75,0.61c-0.61,0.38-1.31,0.81-2,0.99c0.02-0.62,0.06-1.06-0.25-1.6c-0.26-0.45-0.88-0.71-1.32-0.48c-1.27,0.64-0.55,2.05,0.57,2.33c-0.75,0.92-2.36,1.45-3.51,1.49c0.33-0.93,1.2-1.56,1.51-2.5c-0.74-0.24-1.43-0.41-2.21-0.5c-0.78-0.1-1.31,0.49-1.82,0.96c-0.39,0.36-0.88,1.15-0.38,1.55c0.53,0.42,1.3,0.43,1.9,0.73c-0.86,1.47-3.94,1.78-5.41,2.12C329.64,647.79,327.13,648.69,324.52,648.79M307.02,648.48c0-0.6-0.18-0.75,0.53-0.74c0.77,0.01,1.55-0.27,2.22,0.25C309.28,648.42,307.63,648.45,307.02,648.48M317.03,647.51c0.5,0,1,0,1.5,0.01C318.37,648.35,317.18,648.32,317.03,647.51M351.78,647.63c-0.94-0.56,0.3-0.93,0.75-1C352.45,647.14,352.48,647.8,351.78,647.63M311.03,647.24c0.02-0.52,0.01-1.03,0.25-1.5C311.87,646.09,311.49,646.96,311.03,647.24M315.53,647.01c0-0.28-0.09-1.59,0.57-0.93C316.58,646.55,316.16,647.13,315.53,647.01M320.03,646.77c0-0.12-0.08-1.87,0.5-1.25C320.9,645.89,320.56,646.84,320.03,646.77M332.53,646.41c0.55-0.28,1.23-0.52,0.96-1.21c-0.16-0.43-0.32-0.85-0.49-1.28c-0.09-0.24-0.83-0.18-1.06-0.21c-0.3-0.04-0.57,0.33-0.79,0.51c-0.26,0.21-0.07,0.83-0.05,1.13C331.17,646.18,331.65,646.55,332.53,646.41M309.78,646.49c-0.27-0.16-0.3-0.46-0.25-0.75c0.29,0.13,0.59,0.2,0.75,0.5C310.12,646.32,309.95,646.4,309.78,646.49M321.53,646.28c0.05-0.34,0.07-0.69,0.25-1C322.09,645.68,322.29,646.44,321.53,646.28M332.28,645.82c-0.18-0.31-0.2-0.66-0.25-1c0.33,0,0.67,0,1,0C332.95,645.26,332.66,645.59,332.28,645.82M345.29,644.86c0.34-0.57,1.06-1.34,1.75-0.97c0.75,0.39,1.21,0.66,1.49,1.48C347.44,645.34,346.39,644.86,345.29,644.86M307.36,623.98c-0.13,1.06,1.39,1.71,2.24,1.72c0.54,0.01,1.28-0.52,1.35,0.2c0.04,0.4-0.39,1.03-0.61,1.35c1.17-0.16,1.31-1.66,2.32-2.11c0.52-0.23,1.04-0.47,1.56-0.71c1.34-0.62,2.19-2.89,3.84-3.05c1.13-0.11,2.14,0.4,2.64,1.44c0.24,0.49,0.55,0.75,0.77,0.06c0.19-0.58,0.06-1.1-0.24-1.57c-0.65-1.03-1.35-1.79-2.62-1.95c-2.25-0.28-4.39,0.8-6.68,0.64c-0.85-0.06-2.6-0.34-2.12-1.56c0.22-0.54,2.52,0.14,3.08,0.31c-0.83-0.88-0.7-1.39-0.49-2.5c-1.02,0.02-2.28-0.83-3.16-1.31c-1.09-0.59-1.93-1.43-2.08-2.71c0.29,0.16,0.35,0.48,0.5,0.75c0.52-1.41-0.86-3.28-1.74-4.26c0.33,0.77,1.1,1.63,0.99,2.5c-0.85-0.57-0.89-1.77-1.74-2.38c-0.79-0.57-1.92,0.23-2.75,0.37c0.03-1.78,2.54-1.67,3.7-1.32c1.56,0.47,1.54,2.35,2.79,3.09c0.03-0.69,0.71-2.22,0.04-2.68c-0.31-0.21-0.67-0.33-0.96-0.58c-0.53-0.44,0.56-0.71,0.82-0.64c1.17,0.28,1.09,1.53,0.97,2.45c-0.12,0.93-0.63,1.75-0.63,2.7c0.59-0.88,1.07-1.88,1.24-2.93c0.19-1.12-0.45-2.21-0.47-3.32c2.33-0.33,2.49,2.69,2.49,4.26c0.74-0.47,1.15-1.66,1.26-2.5c0.86,0.22,1.47,1.99,1.74,2.76c0.46-0.86-0.25-1.86-0.24-2.75c0.35,0.25,0.52,0.71,0.69,1.08c0.31,0.67,0.83,1.13,1.3,1.67c-0.26-1.58-1.17-2.86-1.23-4.5c0.83,0.49,1.02,1.61,1.51,2.37c0.53,0.81,1.42,1.84,1.22,2.89c0.6-1.29-0.25-2.06-0.49-3.25c0.9,0.49,2.21,2.45,1.99,3.51c0.26-0.15,0.5-0.33,0.75-0.5c0.14,0.41,0.39,0.76,0.75,1c-0.01-0.96,0.64-1.75,0.25-2.72c-0.14-0.34-0.79-1.84,0.16-1.31c2.03,1.14,0.42,3.35,0.33,5.03c0.32-0.27,0.62-0.56,1-0.75c0,0.5,0,1,0,1.5c1.07-1.36,0.08-3.03,0.57-4.5c0.24-0.71,0.78-0.62,1.39-0.53c1.31,0.18,2.59,0.73,3.86,1.08c1.27,0.35,2.76,0.72,3.85,1.5c0.53,0.37,0.71,0.84,0.89,1.44c0.27,0.88,0.78,1.67,1.33,2.4c0.46,0.61,2.09,2.25,1.76,3.18c-0.42,1.15-0.77,2.08-2.09,2.41c-0.2,0.05-0.4,0.06-0.6,0.05c0.18-1.03,0.51-3.22-0.99-3.5c0.57,0.7,0.75,1.37,0.74,2.25c-0.89-0.34-1.6-2.22-1.99-3c-0.3-0.6-0.69-1.15-1.23-1.56c-0.49-0.37-1.17-0.63-1.44-1.22c-0.27-0.59,0.17-1.15,0.32-1.69c0.21-0.74-0.3-1.05-0.96-1.24c-0.54-0.16-1.22,0.44-1.74,0.22c-0.57-0.24-1.11-0.58-1.69-0.79c-0.06,0.29-0.25,0.51-0.5,0.63c-0.16,0.08-0.51-0.01-0.49,0.22c0.11,1.06,0.42,2.07,0.48,3.15c0.31-0.41,0.6-0.92,1-1.25c0.23,0.47,0.35,1,0.49,1.5c0.06-0.13,0.37-0.87,0.57-0.69c0.8,0.76,1.3,1.6,1.43,2.7c0.49-0.67,0.45-1.46,0.51-2.25c0.57,0.34,0.74,1.18,0.74,1.79c0,0.59,0.77,0.85,0.99,1.47c0.43-0.76-0.11-1.5-0.24-2.25c0.81,0.48,1.34,1.54,1.15,2.44c-0.04,0.2-0.21,0.61-0.16,0.81c0.01,0.06,0.29,0.17,0.34,0.31c0.15,0.39,0.11,0.82-0.1,1.19c0.43-0.26,0.66-0.65,1-1c0.76,1.46-1.89,2.55-2.83,2.99c-1.92,0.9-3.61,2.48-3.69,4.74c-0.06,1.8,0.85,3.42,1.65,4.96c0.9,1.71,1.58,3.08,1.56,5.05c-0.82-0.1-1.42-1.15-1.67-1.85c-0.4-1.14-0.52-1.94-0.56-3.16c-2.01-0.02-2.85,3.4-2.63,4.93c0.07,0.47,0.21,1.05-0.01,1.52c-0.21,0.47-0.8,0.79-1.2,1.11c-0.52,0.42-0.71,1.5-0.52,2.13c0.06,0.23,0.48,0.56,0.61,0.21c0.21-0.58,0.56-0.77,1.11-0.52c0.7,0.33,0.51,0.83,0.42,1.52c-0.15,1.07-1.75,1.28-2.63,1.45c-2.88,0.56-5.92,0.66-8.84,0.82c-1.36,0.08-2.75,0.09-4.09-0.2c-1.27-0.28-1.7-0.5-1.92-1.77c-0.11-0.74,0.06-1.54-0.27-2.22c-0.41-0.85-0.72-1.6-0.88-2.54c-0.19-1.07,0.64-2.23,0.53-3.38c-0.11-1.24-0.64-2.38-0.93-3.58c-0.3-1.2-0.12-2.44-0.39-3.64c-0.19-0.85-1.1-2.15-0.42-2.98C305.61,623.95,306.45,623.88,307.36,623.98M336.54,644.08c-0.17-0.95,1.32-1.03,2-0.99C338.51,644.35,337.44,644.16,336.54,644.08M323.81,640.03c0.2-0.96,2.52-0.72,2.95-0.09c0.22,0.32,0.42,0.73,0.55,1.1c0.4-1.1-1.22-2.93-1.67-3.88c-0.63-1.3-0.31-2.42,0.41-3.57c0.4-0.64,1.48,1.95,1.63,2.18c0.78,1.2,1.36,3.27,2.63,4.03c0.01-1,0.3-1.98,0.29-2.99c-0.01-0.96-0.4-1.79-0.69-2.69c-0.27-0.83-0.15-1.7-0.42-2.53c-0.26-0.78-0.7-1.5-0.93-2.29c-0.31-1.11-0.35-2.5,0.3-3.5c0.62,0.77,0.18,2.31,0.46,3.25c0.33,1.11,1,2.15,1.77,3.01c-0.38-1.21-1.25-2.29-1.39-3.58c-0.15-1.42,0.01-2.65,0.66-3.92c0.25,0.42,0.06,0.95,0.04,1.39c-0.03,0.58,0.18,1.28,0.38,1.83c0.51,1.4,1.65,2.52,2.34,3.82c0.75,1.4,1.46,3.04,1.46,4.65c0,1.43-0.96,2.65-1.01,4.07c0.84-1.32,1.51-2.69,1.52-4.29c0.01-1.73-0.6-3.26-1.54-4.69c-0.81-1.25-2.23-2.22-2.33-3.83c-0.08-1.32,0.35-3.27,1.66-3.95c-0.11,0.63-0.58,1.15-0.64,1.79c-0.08,0.73-0.12,1.47-0.13,2.21c0.46-0.85,0.31-1.9,0.78-2.79c1.64-3.1,6.52-2.42,7.66-6.12c0.77-2.49-2.7-3.32-3.78-4.86c-0.53-0.75-0.69-2.44,0.44-2.63c0.68-0.12,1.08-0.28,1.69,0.03c0.8,0.4,0.54,1.96,0.52,2.64c-1.19,0-1.24-1.93-2-1.76c-0.13,3.26,7.07,3.99,5.13,7.83c-0.78,1.54-2.12,2.83-3.73,3.47c-1.51,0.61-3.31,1.2-4.19,2.68c0.36-0.27,0.81-0.42,1.25-0.5c-0.18,1.01-0.88,1.96-0.94,3c-0.09,1.49,0.76,2.89,1.18,4.28c0.23,0.75,0.23,1.49,0.23,2.26c0,0.18-0.19,1.58-0.01,1.72c0.11,0.09,0.5,0.06,0.5-0.11c0.01-1.1,0.08-2.2-0.02-3.29c-0.1-1.02-0.61-1.94-0.86-2.92c-0.46-1.72-0.46-4.75,1.67-5.43c-0.14,1.04-0.68,2-0.84,3.05c-0.23,1.52,0.5,2.94,0.96,4.34c0.54,1.67,0.76,3.41,0.22,5.11c-0.29,0.92-0.57,2.36-1.45,2.83c-1.71,0.93-3.87,1.24-5.73,1.76c-0.73,0.2-2.81,1.33-3.45,0.69C326.25,641.81,325.41,640.3,323.81,640.03M341.55,642.35c0.13-0.47,0.56-0.63,1-0.75C342.57,642.12,342.05,642.57,341.55,642.35M344.55,641.11c0.02-0.52,0.01-1.03,0.25-1.5c0.46,0.35,0.72,0.92,0.75,1.5C345.22,641.11,344.88,641.11,344.55,641.11M331.3,640.56c0.9-1.26,0.87-3.06,0.52-4.5c-0.52,0.58-0.23,1.55-0.37,2.25C331.32,638.97,330.8,639.93,331.3,640.56M329.05,640.3c0.15-1.18-1.29-2.93-2.24-3.51C326.81,637.89,328.3,639.59,329.05,640.3M321.32,635.53c-0.88,0.51-1.6,1.44-2.46,2.04c-1.15,0.79-2.88,0.98-4.23,0.95c-1.71-0.04-3.63,0.81-5.31,0.23c0.08,0.68,0.7,0.88,1.28,0.82c0.34-0.03,0.69-0.22,0.76,0.15c0.06,0.34,0.18,0.44,0.52,0.42c1.31-0.09,2.58-0.45,3.88-0.58c1.21-0.12,2.39-0.47,3.38-1.18C320.01,637.72,321.47,636.81,321.32,635.53M337.81,639.83c0.02-0.97,0.61-1.83,0.98-2.69c0.45-1.06,0.58-2.21,0.34-3.34c-0.46-2.13-1.73-4.29-1.26-6.53c0.74-3.47,4.96-4.2,6.83-6.77c0.74-1.01,1.16-1.86,1.43-3.1c0.05-0.25,0.01-0.55,0.01-0.81c0.75,0.45,0.4,1.82,0.24,2.5c0.65-0.85,0.76-1.7,0.76-2.75c0.91,0.2,1.25,1.38,1.11,2.2c-0.2,1.14-0.81,2.05-1.54,2.91c-1.37,1.61-3.71,1.94-4.99,3.72c-1.14,1.58-1.13,3.4-0.92,5.26c0.26,2.3-0.13,4.38-0.47,6.63c1.06-1.49,1.43-3.42,1.38-5.22c-0.04-1.44-1.02-3.52-0.25-4.86c0.55-0.97,1.25-2.59,2.66-2.4c-0.11,0.79-0.57,1.5-0.71,2.3c-0.19,1.15,0.24,2.37,0.5,3.48c0.31,1.3,0.18,2.65,0.18,3.97c0.42-0.8,0.52-1.81,0.37-2.69c-0.15-0.88-0.57-1.95-0.1-2.81c1.38,1.36,0.95,5.42,0.17,6.93C343.34,638.07,340.1,639.08,337.81,639.83M319.33,633.77c-0.13-0.76-0.63-2.09-1.49-2.25c0.07,0.42,0.18,0.83,0.25,1.25c-1.08-0.16-2.09-0.6-3.14-0.89c-0.52-0.15-2.15-1.02-2.54-0.55c-0.58,0.7-0.18,1.24,0.42,1.68c-1.01,0.31-1.57,1.72-1.72,2.67c-0.28,1.64,1.02,1.48,2.09,1.08C315.34,635.92,317.19,634.6,319.33,633.77M312.07,636.24c0.22-0.84,1.77-1.04,2.5-0.99C314.18,636.04,312.89,636.55,312.07,636.24M343.82,636.1c0.11-0.58,0.29-1.16,0.26-1.75C343.71,634.72,343.51,635.69,343.82,636.1M342.57,635.6c0.34-1.68,0.26-3.39,0.27-5.09c0-0.78-0.28-1.53-0.23-2.31c0.05-0.87,0.24-1.72,0.24-2.59c-1.27,0.92-0.69,2.96-0.55,4.24c0.1,0.99,0.11,2.02,0.09,3.01C342.38,633.66,342,634.93,342.57,635.6M312.32,634.49c-0.19-0.77,0.28-0.44,0.5,0C312.66,634.5,312.48,634.52,312.32,634.49M314.58,633.75c-0.5-0.84-0.13-1.4,0.85-1.09C316.61,633.04,315.09,633.61,314.58,633.75M313.08,633.25c0.33-0.61,0.62,0.23,0.75,0.5C313.52,633.63,313.28,633.51,313.08,633.25M327.34,629.3c-0.61-1.93-0.43-3.32,0.77-4.97c0.44-0.6,1.24-1.3,1.91-1.62c0.65-0.31,1.86-1.07,2.6-0.9c-0.13,0.71-0.79,1.31-1.23,1.85c-0.37,0.45-0.47,0.68-1.06,0.4c-0.47-0.22-0.92,0.35-1.19,0.64c-0.58,0.6-1.12,1.36-1.33,2.17C327.62,627.58,327.81,628.71,327.34,629.3M334.1,627.82c0.1-0.6,0.42-1.15,0.51-1.75C334.06,626.38,333.68,627.3,334.1,627.82M324.85,627.79c0.38-1.31,1.14-2.45,1.51-3.74C325.33,624.32,324.04,626.89,324.85,627.79M324.1,626.29c0.3-0.47,0.66-0.93,0.76-1.5C324.31,624.93,323.78,625.78,324.1,626.29M352.11,622.88c-0.84-0.95-0.89-1.52-0.36-2.67c0.85-1.84,4.19,0.49,5.32-1.63c0.4-0.75,0.29-0.89,0.03-1.71c-0.16-0.5-0.77-0.58-1.21-0.47c0.15,0.23,0.76,1.33,0.55,1.52c-0.37,0.32-1.21,1.38-1.74,0.67c-1.01-1.33,0.13-2.79,1.63-2.76c0.51,0.01,1.32,0.45,1.66,0.82c0.48,0.53,0.2,1.59,0.17,2.22c-0.05,1.2-1.97,1.91-2.53,2.77c0.58-0.16,1.17-0.33,1.75-0.49c0.26,1.25-1.04,1.85-1.98,2.06C354.17,623.48,353.31,623.07,352.11,622.88c0.65,0.44,1.75,1.02,2.55,0.94c1.02-0.11,1.95-0.53,2.95-0.67c-0.33,2.45-3.34,2.49-5.13,1.81c-1.05-0.39-2.04-0.75-2.81-1.59c-0.33-0.36,0.45-0.88,0.78-0.85C351.06,622.6,351.54,622.78,352.11,622.88M323.11,624.78c0.31-0.54,0.74-1.1,0.76-1.75C323.21,623.24,322.61,624.17,323.11,624.78M308.86,624.48c-0.37-1.21-1.73-1.92-0.99-3.25c0.62,0.45,1.14,1.22,1.94,0.92c0.58-0.21,1.89-0.96,2.06,0.1c0.58-0.21,1.14-0.65,1.75-0.74c0,0.25,0,0.5,0,0.75c1.69-1.1,3.49-1.82,5.5-1.98c-0.59,0.74-1.67,0.92-2.47,1.33c-0.94,0.47-1.53,1.48-2.28,2.17c-0.6,0.55-1.48,0.74-2.27,0.68C310.99,624.38,309.98,624.44,308.86,624.48M322.36,624.03c0.46-0.79,1.32-1.21,1.76-1.99C323.39,622.16,321.61,623.1,322.36,624.03M346.11,623.36c1.01-1.69,3.72-2.41,4.13-4.54c0.19-0.99,0.01-2.07-0.71-2.84c-0.6-0.64-2.27-0.62-2.39-1.61c0.56,0,1.2-0.03,1.75,0.11c0.67,0.17,1.08,0.8,1.54,1.28c0.76,0.79,1.04,2.2,0.78,3.25c-0.27,1.15-0.96,2.28-1.81,3.08C348.73,622.74,347.01,623.22,346.11,623.36M335.87,621.83c0.91-1.36,2.56-2.05,2.26-3.99c0.42,0.05,0.66,0.53,1,0.75c-0.06-1.73-1.76-2.36-2.91-3.29c-1.12-0.9-2.18-2.57-1.48-4.03c0.3-0.64,0.7-1.37,1.43-1.62c0.81-0.28,1.69,0.02,2.46,0.23c1.47,0.4,2.91,1.7,1.78,3.21c-0.5-0.53-0.35-1.52-0.93-2.03c-0.61-0.55-1.48-1.38-2.36-0.7c-0.83,0.64-1.4,1.11-1.59,2.16c-0.21,1.17,1.86,2.15,2.61,2.76c1.09,0.89,2.18,2.04,2.02,3.56C339.95,620.7,337.42,621.6,335.87,621.83M333.12,621.57c-0.08-0.33,0.25-0.38,0.5-0.5C333.7,621.4,333.37,621.44,333.12,621.57M330.37,621.06c0.23-0.91,0.46-2.49-0.74-2.75c0.14,0.38,0.4,0.85,0.44,1.25c0.05,0.46-0.14,1.04-0.2,1.5C330.03,621.06,330.21,621.07,330.37,621.06M343.62,620.6c0.06-1.74,1.33-3.87-0.73-5c1.04-0.97,2.09,1.03,2.21,1.81C345.3,618.62,344.66,619.99,343.62,620.6M349.13,619.37c-0.06-1.11-0.45-2.16-0.49-3.25C349.94,616.37,350.19,618.71,349.13,619.37M300.89,615.7c1.14,0,2.19,0.28,3.34,0.16c0.88-0.09,2.33-0.42,2.91-1.14c-1.16,0.34-2.54,0.63-3.75,0.48c-0.69-0.08-1.4-0.35-2.07-0.52c-0.66-0.16-0.94-0.71-1.38-1.22c-0.34-0.39-0.49-0.92-0.56-1.43c-0.12-0.92,0.08-1.16,0.55-1.97c0.34-0.59,1.11-0.45,1.61-0.3c0.56,0.17,1.06,0.59,1.62,0.69c0.01-0.35,0.08-0.7,0.34-0.95c0.16-0.16,1.04-0.01,1.23,0.13c0.91,0.68,1.21,2.01,1.68,2.98c0.55,1.12,1.98,2.16,2.23,3.36c-1.44,0.01-2.58,1.55-4.05,1.66C303.14,617.75,300.92,617.65,300.89,615.7M357.39,614.4c1.51,0.01,2.77-0.14,4.25-0.48c-0.1,0.46-0.46,0.89-0.75,1.25c0.13,0,0.95-0.08,1,0c0.16,0.27-0.36,0.61-0.5,0.75c0.66-0.03,1.38-0.32,2,0.01c-0.48,1.48-2.05,1.91-3.41,1.55c-0.59-0.16-0.94-0.8-1.26-1.27C358.33,615.63,357.5,615.12,357.39,614.4M353.14,616.89c-0.03-1.73,1.63-2.15,3.01-2.24c-0.42,0.5-1.07,0.7-1.56,1.11C354.15,616.1,353.83,617.02,353.14,616.89M351.89,616.13c-0.52-0.59-1.01-1.35-1.64-1.82c-0.56-0.41-1.61-1.1-2.35-0.95c0.16-1.04,1.47-1.59,2.18-2.2c1.1-0.96,2.25-1.86,3.33-2.84c1.1-1,2.11-2.08,3.11-3.19c0.94-1.04,1.75-2.27,2.82-3.18c0.85-0.73,1.9-0.27,2.68,0.35c1.17,0.93,2.98,1.91,3.63,3.31c0.38,0.78,0.45,0.9,0.02,1.64c-0.66,1.14-1.81,1.9-2.82,2.7c-1.21,0.96-2.33,2.06-3.68,2.82c-1.34,0.75-2.73,0.38-4.13,0.79c-0.63,0.18-1.14,0.57-1.64,0.98C352.83,614.99,352.49,615.73,351.89,616.13M341.65,611.85c1.03,0.16,2.73,1.37,2.74,2.51c-0.67,0-2.36,0.33-2.95-0.05C340.64,613.77,341.32,612.49,341.65,611.85M305.4,614.22c-0.43-0.68-1.45-0.35-2.05-0.62c-0.74-0.32-1.29-0.67-1.69-1.4c-0.6,0.77,0.62,1.54,1.19,1.79C303.54,614.31,304.64,614.22,305.4,614.22M290.16,610.17c0.64,0,1.39-0.02,2,0.2c0.66,0.23,1.28,0.76,1.93,1.05c1.17,0.53,2.82,0.08,4.07,0.03c-0.14,0.72-1.03,0.87-1.62,1c-0.96,0.23-1.87,0.94-2.89,0.92C292.06,613.36,290.54,611.61,290.16,610.17M345.65,613.1c-1.19-0.54-1.66-1.32-0.76-2.44c1.74-2.2,3.98-4.11,5.86-6.2c0.97-1.08,1.87-2.23,2.73-3.4c0.71-0.95,1.37-2.25,2.47-2.8c0.83-0.42,2.38,0.46,2.85,1.14c0.82,1.19,0.04,2.12-0.71,3.06c-1.81,2.27-3.96,4.35-6.11,6.3C350.2,610.38,347.98,612.35,345.65,613.1M310.4,612.99c0.35-2.06,2.27-4.41,0.77-6.5c-0.54,0.66,0.02,2.17-0.26,3.02c-0.37,1.14-1.01,2.25-1.01,3.48C310.05,612.99,310.25,613.02,310.4,612.99M346.65,612.36c0.04-0.42-0.05-0.88-0.25-1.25c-0.55,0.17-0.76,0.71-0.75,1.25C345.98,612.36,346.32,612.36,346.65,612.36M293.66,610.68c0.75-0.64,4.25-1.36,4.5,0.02C296.67,610.93,295.05,611.61,293.66,610.68M340.41,609.59c0.63-1.08,1.66-1.84,2.5-2.75c0.92-0.98,1.69-2.08,2.51-3.15c1.74-2.27,3.3-4.6,4.9-6.97c0.78-1.17,1.48-1.41,2.85-1.21c0.95,0.14,2.1,1.11,1.86,2.12c-0.3,1.23-1.32,2.29-2.05,3.29c-0.9,1.24-1.98,2.31-2.98,3.46c-1.82,2.1-3.58,4.47-5.88,6.08c-0.62,0.43-1.24,0.7-2,0.26C341.51,610.39,340.95,610.03,340.41,609.59M319.92,608.02c-0.61-0.12-1.24-1.17-0.37-1.4c1.29-0.32,2.62,0.04,3.9,0.23c1.51,0.23,2.94,0.63,4.39,1.13c1.2,0.42,2.39,0.85,3.61,1.21c0.83,0.25,2.25,0.62,2.47,1.63c-1.01-0.01-1.98-0.51-2.89-0.91c-1.15-0.5-2.36-0.84-3.56-1.19c-1.15-0.34-2.3-0.61-3.47-0.87c-0.67-0.15-2.11-1.01-2.78-0.81C320.65,607.22,320.22,607.52,319.92,608.02M348.91,609.37c-0.77-0.45-1.27,0.27-1.25,1C348.32,610.39,348.81,610.05,348.91,609.37M343.41,608.6c-0.58,0.1-0.99,0.67-1,1.25C343.13,609.88,343.85,609.38,343.41,608.6M335.91,608.58c-0.54,1.02-1.54,1.27-2.56,0.87c-2.06-0.8-4.11-1.58-6.22-2.24c-1.15-0.36-2.33-0.74-3.53-0.94c-1.01-0.17-2.07-0.16-3.02-0.58c-0.39-0.18-0.23-1.07,0.15-1.25c0.68-0.32,2.34,0.13,3.05,0.23c1.52,0.21,3.01,0.58,4.48,0.99C330.88,606.39,333.57,607.12,335.91,608.58M321.16,609.53c0.08-0.08,0.17-0.17,0.25-0.25C321.33,609.36,321.24,609.44,321.16,609.53M339.41,608.68c-1.22-0.35-2.31-0.99-3.48-1.48c-0.85-0.36-1.95-0.7-2.08-1.77c-0.11-0.82,0.33-1.66,0.66-2.38c0.48-1.05,0.88-2.14,1.26-3.23c0.79-2.27,1.42-4.6,1.94-6.95c0.31-1.38,0.93-1.83,2.22-2.03c1.58-0.24,3.43,0.39,4.96,0.77c1.48,0.37,3.02,0.87,4.22,1.85c0.42,0.34,0.99,0.65,1.19,1.15c0.22,0.56-0.13,1.19-0.3,1.71c-0.37,1.15-1.36,2.08-2.06,3.03c-0.92,1.25-1.76,2.55-2.69,3.79C343.69,605.23,341.93,607.71,339.41,608.68M299.41,608.45c-0.25-1.03-1.7-1.03-2.53-0.99c-1.33,0.06-2.48,0.35-3.53-0.75c-0.46-0.48-0.69-1.37-0.68-2.03c-1.33,1.04,0.36,3.43,1.64,3.59c0.74,0.09,1.49,0.06,2.23-0.01C297.53,608.16,298.43,608.45,299.41,608.45M351.42,606.88c-0.77-0.45-1.28,0.27-1.25,0.99C350.74,607.87,351.31,607.46,351.42,606.88M346.17,605.61c-0.42,0.06-0.69,0.16-0.85,0.55c-0.13,0.31-0.44,0.71-0.04,0.95c0.25,0.15,0.85-0.16,0.95-0.41C346.4,606.34,346.35,605.96,346.17,605.61M311.68,605.24c1.28-0.85,2.77-0.99,4.25-0.99c-0.01,0.77-1.18,1.96-1.89,2.16c-0.75,0.21-0.97,0.42-1.58-0.06C312.13,606.09,311.84,605.63,311.68,605.24M301.42,606.21c0.87-0.11,0.65-1.4-0.16-1.15c-0.36,0.11-0.51,0.55-0.88,0.28c-0.33-0.25-0.59-0.61-0.83-0.94c-0.62-0.86-1.16-1.79-1.65-2.74c-0.68-1.32-1.59-2.95-1.66-4.46c-0.04-0.86,0.49-2.51,1.71-2.05c0.67,0.25,0.94,1.21,1.14,1.82c0.37,1.11,0.82,2.18,1.28,3.25c0.55,1.28,1.12,2.55,1.68,3.83c0.41,0.92,1.21,1.87,1.1,2.94C302.48,606.91,301.79,606.89,301.42,606.21M299.42,606.45c-1.89-1.94-4.55-4.7-4.97-7.52c0.72,0.36,0.84,1.22,1.29,1.81c0.54,0.68,1.24,0.65,1.63,1.45c0.41,0.84,0.8,1.66,1.36,2.41C299.02,605,299.8,605.9,299.42,606.45M395.02,507.53c1.78,0.95,3.01,3.34,3.41,5.26c0.46,2.21,0.05,4.61,0.05,6.85c-0.01,2.8-0.02,5.59-0.03,8.39c-0.02,5.34-0.04,10.68-0.06,16.01c-0.02,5.32-0.04,10.65-0.06,15.97c-0.02,4.74,0.82,10.05-1.1,14.53c-0.85,1.99-1.65,4.07-3.12,5.71c-0.96,1.08-2.02,2.08-3.15,2.98c-0.79,0.63-2.7,1.43-3.07,2.4c-0.23,0.63,0.15,1.37,0.25,1.99c0.14,0.88,0.09,1.78,0.09,2.66c-0.02,2.23-1.15,4.35-2.56,6.07c-1.72,2.09-3.66,4-5.82,5.64c-2.14,1.63-4.82,3.48-7.48,4.07c-1.01,0.22-1.79-1.04-2.31-1.78c-0.35-0.5-0.6-0.9-0.4-1.51c0.26-0.83,1.09-1.59,1.64-2.24c0.69-0.8,1.36-1.61,2.02-2.44c1.3-1.65,2.62-3.28,3.9-4.94c2.64-3.43,5.01-7.08,7.43-10.66c4.67-6.9,8.78-15.06,9.91-23.4c0.26-1.95,0.74-3.87,0.99-5.83c0.27-2.17,0.27-4.24,0.16-6.42c-0.22-4.4-0.34-8.83-0.28-13.23c0.03-2,0.6-3.91,0.6-5.91c-0.01-2.27,0.27-4.51,0.12-6.79c-0.14-2.13-0.19-4.25-0.31-6.38C395.71,512.17,395.08,509.89,395.02,507.53M316.92,606.26c-0.01-0.63,0.14-0.96,0.45-1.52c0.19-0.34,1.11-0.36,1.43-0.11c0.38,0.28,0.4,1.2-0.17,1.06c-0.43-0.11-0.83-0.46-1.21-0.69C317.32,605.46,317.26,605.92,316.92,606.26M295.42,605.69c0.29-0.23,0.69-0.17,1,0C296.14,605.92,295.73,605.86,295.42,605.69M329.93,605.06c0.06-2.19,0.56-4.34,1.11-6.45c0.55-2.16,0.84-4.41,1.44-6.54c0.3-1.05,0.63-2.15,1.9-2.11c0.61,0.02,1.19-0.01,1.78,0.17c0.23,0.07,1.13,0.79,1.13,1.01c0.08,2.63-1.04,5.48-1.91,7.94c-0.44,1.23-0.96,2.42-1.39,3.65c-0.31,0.87-0.41,2.23-1.26,2.76C332.01,605.95,330.67,605.18,329.93,605.06M306.92,605.73c-0.33-0.61-0.63-1.13-1.24-1.5c0.08,0.46,0.33,1.04,0.24,1.5c-0.76-0.77-1.29-1.83-1.69-2.82c-0.36-0.89-0.64-2.16-1.54-2.69c0.52,1.04,0.86,2.16,1.24,3.25c-0.78-0.47-1.12-1.38-1.45-2.18c-0.41-1.02-1.07-1.99-1.28-3.08c-0.27,0.16-0.31,0.46-0.25,0.75c-0.87-0.49-1.08-1.75-1.37-2.63c-0.32-0.98-0.81-2.1-0.05-2.96c0.76-0.87,1.62-1.51,2.75-1.83c0.83-0.24,2.35-0.71,3.2-0.31c1.36,0.64,1.25,3.84,1.41,5.02c0.39,2.77,1.24,5.57,2.04,8.25c-0.39-0.03-0.73-0.36-0.75-0.75c-0.23,0.46-0.08,1.02,0,1.5c-0.8-0.48-0.97-1.52-1.74-2.01C306.52,603.93,307.33,605.09,306.92,605.73M353.68,604.14c-0.79-0.11-1.28,0.51-1.25,1.25C353.14,605.41,353.81,604.92,353.68,604.14M328.68,604.42c-0.88-0.03-2.38-0.04-2.84-0.97c-0.37-0.73-0.11-1.65,0.02-2.4c0.2-1.13,0.18-2.29,0.36-3.42c0.38-2.33,0.42-4.71,0.81-7.04c0.23-1.39,1.09-1.55,2.29-1.67c0.87-0.09,2.46,0.2,2.78,1.14c0.35,1.02-0.14,2.27-0.35,3.27c-0.31,1.53-0.59,3.07-0.95,4.58c-0.33,1.38-0.77,2.74-1.03,4.14C329.64,602.81,329.5,604.05,328.68,604.42M309.68,604.49c-1.34-4.15-2.37-8.27-2.91-12.61c-0.15-1.19,0.88-1.74,1.92-1.84c0.78-0.08,1.05-0.1,1.75,0.23c0.5,0.24,0.44,1.17,0.55,1.62c0.27,1.11,0.29,2.29,0.49,3.42c0.4,2.28,0.8,4.58,1.1,6.88c0.11,0.86-0.09,1.21-0.88,1.66C311.15,604.15,310.3,604.47,309.68,604.49M293.44,601.43c0.53,0.29,0.98,0.7,1.5,1.01c-0.28-0.42-0.65-1.01-0.75-1.5c0.99,0.59,2.07,2.39,2.24,3.51c-0.88,0.03-1.25-0.21-1.79-0.86C294.07,602.88,293.55,602.35,293.44,601.43M348.68,602.87c-0.78,0.11-1.14,0.8-0.76,1.5C348.63,604.16,348.64,603.49,348.68,602.87M332.18,602.81c-0.75-0.14-0.75,0.67-0.75,1.25C332.1,604.04,332.53,603.43,332.18,602.81M300.43,603.7c0.38-0.67,0.07-1.48-0.75-1.5C299.67,602.79,299.9,603.41,300.43,603.7M324.43,603.42c-2.03-0.04-4.62,0.08-6.54-0.63c-1.13-0.43-1.03-3.91-1.11-4.84c-0.21-2.55-0.77-5.67-0.1-8.17c0.27-1.01,1.92-1.28,2.77-1.49c0.91-0.23,2.28-0.2,3.21-0.09c1.46,0.15,3.57-0.07,3.78,1.79c0.12,1.02-0.17,2.12-0.22,3.14c-0.07,1.34-0.33,2.66-0.44,4c-0.1,1.27-0.26,2.54-0.43,3.81C325.26,601.67,325.19,603.03,324.43,603.42M316.68,603.01c-0.95-0.2-2.15,0.67-3.09-0.01c-1.13-0.8-1.12-3.96-1.28-5.15c-0.16-1.21-0.28-2.43-0.43-3.64c-0.16-1.27-0.54-2.62-0.23-3.9c0.14-0.57,0.4-0.66,0.94-0.79c0.46-0.11,1.19-0.42,1.68-0.25c0.45,0.15,1.13,0.19,1.29,0.69c0.68,2.05,0.33,4.16,0.5,6.27C316.24,598.49,316.61,600.74,316.68,603.01M302.43,603.21c-0.18-0.31-0.2-0.65-0.25-1C302.45,602.48,302.59,602.86,302.43,603.21M328.19,601.55c-0.85-0.16-0.74,0.9-0.75,1.5C328.31,603.03,328.4,602.24,328.19,601.55M311.43,602.99c-0.09-0.53-0.42-1-1-1C310.41,602.52,310.91,603,311.43,602.99M315.44,602.25c0.03-0.29-0.09-1.75-0.75-1.25C314.1,601.45,314.94,602.27,315.44,602.25M368.69,601.99c-1.24-0.46-2.91-2.07-3.26-3.36c-0.27-1.05,2.2-2.95,2.81-3.68c1.23-1.46,2.34-3,3.4-4.59c2.11-3.17,3.98-6.49,5.69-9.89c1.71-3.38,2.54-6.83,3.04-10.56c0.24-1.83,0.55-3.63,0.74-5.47c0.09-0.88,0.1-3.9,1.09-4.34c0.86-0.4,11-1.67,11.15,0.23c0.14,1.84-0.55,3.66-1.11,5.38c-0.62,1.89-1.25,3.75-2.07,5.56c-1.76,3.88-4,7.55-6.27,11.15c-2.26,3.58-4.7,7-7.29,10.35c-1.32,1.7-2.65,3.39-3.98,5.08C371.51,599.3,370.47,601.26,368.69,601.99M355.69,600.9c-0.09,0.3-0.17,0.6-0.23,0.9c-0.04,0.21,0.55,0.3,0.73,0.2C356.88,601.63,356.27,600.91,355.69,600.9M350.94,600.38c-0.38-0.05-1.68,0.56-1.19,1.06C350.28,601.97,350.94,600.89,350.94,600.38M333.19,600.07c-0.71,0-1.02,0.61-1,1.25C332.83,601.3,333.3,600.7,333.19,600.07M299.44,601.2c0.05-0.33-0.06-0.67-0.23-0.95c-0.07-0.12-0.69-0.78-0.79-0.5C298.17,600.47,298.63,601.19,299.44,601.2M296.44,600.94c0.08-0.08,0.17-0.17,0.25-0.25C296.61,600.77,296.52,600.85,296.44,600.94M310.44,600.49c0.2-0.35,0.25-2.06-0.49-1.5c-0.18,0.13-0.17,0.68-0.14,0.86C309.88,600.32,309.88,600.61,310.44,600.49M328.69,600.3c0-0.15,0.01-2.06-0.75-1.25c-0.17,0.17-0.03,0.72-0.01,0.92C327.97,600.46,328.3,600.3,328.69,600.3M314.94,600c0.36-0.62-0.06-1.23-0.75-1.25C314.2,599.32,314.19,600.14,314.94,600M295.94,599.94c-0.16-0.5-0.42-0.98-0.49-1.5C295.84,598.74,296.24,599.47,295.94,599.94M352.95,598.64c0.03-0.29-0.09-1.75-0.75-1.25C351.61,597.83,352.45,598.65,352.95,598.64M333.7,597.07c-0.61,0.53-0.78,0.82-0.06,1.29c0.18,0.12,0.39-0.29,0.4-0.44C334.08,597.61,333.89,597.3,333.7,597.07M298.2,598.45c0.12-0.22,0.2-0.59,0.08-0.82c-0.09-0.18-0.5-0.85-0.82-0.69C296.8,597.27,297.78,598.39,298.2,598.45M309.95,597.99c0.3-0.54,0.2-1.37-0.5-1.5C309.44,597.04,309.49,597.62,309.95,597.99M371.01,580.7c-1.8-0.02-2.58,3.04-3.23,4.26c-1.16,2.19-2.61,4.25-4.19,6.16c-0.48,0.57-1.76,2.4-2.6,1.64c-1.18-1.07-1.41-3.29-1.67-4.76c-0.17-0.95-0.34-1.91-0.32-2.88c0-1.47,0.16-1.1,1.42-1.5c3.72-1.18,7.31-3.93,9.73-6.94c1.74-2.16,3.13-4.59,4.1-7.18c0.99-2.64,1.08-5.47,1.98-8.11c0.26-0.77,2.14-1.09,2.86-1.16c0.51-0.05,1.05,0,1.56,0.01c0.63,0-0.59,7.62-0.67,8.34c-0.43,3.75-1.34,7.55-2.83,11.03c-1.35,3.15-3.21,6.2-5.02,9.11c-1.91,3.08-4.23,6.17-6.89,8.64c-1.04,0.96-1.88-0.15-2.5-0.97c-0.4-0.53-1.08-1.38-1.07-2.08c0.01-0.96,1.54-1.92,2.12-2.57c1.09-1.21,2.09-2.54,3.08-3.84c0.96-1.26,1.78-2.61,2.72-3.88C370.14,583.27,371.23,581.7,371.01,580.7M328.7,597.55c0.53-0.43,0.56-1.18,0.26-1.75C328.4,596.11,328.21,597.1,328.7,597.55M314.95,597c-0.08-0.3-0.17-0.6-0.23-0.91c-0.05-0.24-0.58,0.03-0.66,0.2c-0.09,0.17-0.33,0.79-0.11,0.96C314.09,597.36,314.82,597.08,314.95,597M334.72,594.07c-0.72-0.14-1.36,1.29-0.61,1.39C334.89,595.56,335,594.59,334.72,594.07M309.46,594.99c0.29-0.5,0.17-0.98,0.01-1.5C308.9,593.75,308.53,595.21,309.46,594.99M314.46,594.75c0-0.37-0.04-0.69-0.08-1.05c-0.06-0.52-0.66-0.74-0.77-0.11C313.51,594.17,313.8,594.76,314.46,594.75M329.46,594.3c0.29-0.5,0.17-0.98,0.01-1.5C328.94,593.1,328.5,594.54,329.46,594.3M335.48,591.07c-0.55,0.26-0.76,0.92-0.76,1.5C335.54,592.55,335.84,591.74,335.48,591.07M308.97,592.23c0.44-0.58,0.42-1.5-0.49-1.5C308.46,591.28,308.51,591.87,308.97,592.23M313.97,592c0.2-0.35,0.26-2.05-0.5-1.5C312.97,590.85,313.23,592.13,313.97,592M330.23,591.31c0-0.33,0-0.67,0-1C329.03,590.49,329.03,591.12,330.23,591.31M334.5,584.68c-1.75,0.46-1.33-3.86-1.27-4.7c0.09-1.29,0.05-2.58,0.14-3.86c0.06-0.79-0.19-3.19,0.63-3.61c1.85-0.92,1.57,2.55,1.5,3.46c-0.08,0.94-0.24,1.85-0.22,2.8c0.02,1.76,0.38,3.7-0.4,5.35C334.76,584.37,334.71,584.54,334.5,584.68M328.51,582.3c-0.02,0.52,0.5,1.46-0.15,1.65c-0.86,0.27-1.36-0.49-1.73-1.12c-0.56-0.95-0.93-1.91-1.26-2.96c-0.28-0.82,1.47-1.75,1.19-2.75c-0.28-1.02-1.84-3.21-0.84-4.15c0.63-0.59,1.23-0.64,2.07-0.68c0.09,0.63-0.52,1.29-0.26,1.91c0.33,0.76,0.7,1.22,1.24,1.85c-0.21-0.61-0.8-1.35-0.79-2c0-0.72,0.88-1.49,1.51-1.63c0.9-0.19,1.63-0.09,2.51,0.15c0.83,0.23,0.78,1.04,0.78,1.79c-0.01,3.32-0.27,6.62-0.29,9.96C330.89,584.31,328.91,584.27,328.51,582.3M324.79,572.29c-0.14,0.45-0.37,0.84-0.5,1.3c-0.24,0.9,1.01,2.26,1.32,3.05c0.35,0.87-0.78,2.26-1.16,3.02c-0.29,0.6,0.8,2.3,0.99,2.88c0.14,0.44,0.57,1.19-0.01,1.32c-0.83,0.18-1.7,0.04-2.53-0.04c-0.64-0.06-1.66,0.08-2.17-0.41c-0.48-0.47-0.24-1.63-0.24-2.23c0-1.43,0.01-2.86,0.02-4.29c0-0.77-0.54-4.71,0.83-4.81C322.55,571.99,323.64,572,324.79,572.29M319.25,583.89c-1.55,0.16-1.07-3.96-1.03-4.77c0.07-1.36,0.03-2.72,0.06-4.08c0.02-0.72-0.6-2.95,0.43-3.18c2.02-0.46,1.36,4.75,1.32,5.76C320,578.58,320.72,583.83,319.25,583.89M308.5,583.23c0-0.5,0-1,0.01-1.5C308.85,582.15,308.84,582.81,308.5,583.23M358.75,583.16c-0.1-0.57-0.17-1.05-0.13-1.63c0.04-0.49,0.89-0.79,1.26-0.92c1.07-0.4,2.09-0.91,3.1-1.43c1.98-1.01,3.63-2.55,5.15-4.15c2.97-3.12,4.29-7.88,5.04-12c0.51-2.79,0.19-5.69-0.7-8.37c-0.45-1.34-1.04-2.63-1.75-3.85c-0.53-0.91-1.85-1.83-1.76-2.98c0.1-1.26,0.96-1.61,1.97-0.84c4.32,3.27,5.11,10.23,4.36,15.17c-0.83,5.49-2.49,10.64-6.31,14.81c-1.38,1.52-2.93,2.91-4.7,3.96C362.6,581.93,360.78,583.16,358.75,583.16M328.26,582.3c-0.11-0.61-0.42-1.17-0.46-1.79c-0.04-0.53,0.61-1.07,0.91-1.45c0.74-0.94,1.48-2.24,0.07-3c0.12,0.5,0.33,1.17,0.07,1.65c-0.32,0.59-0.7,1.11-1.1,1.65C327.06,580.28,327.41,581.58,328.26,582.3M368.12,549.44c1.89,0.4,3.23,3.25,3.72,4.89c0.57,1.91,1.19,4.15,0.99,6.17c-0.46,4.56-1.56,8.9-4.08,12.79c-1.87,2.86-5.35,5.92-8.79,6.63c-0.4,0.08-1.38,0.19-1.33-0.52c0.05-0.99,2.71-1.71,3.43-2.13c1.88-1.08,3.52-2.67,4.93-4.3c3.08-3.58,4.33-8.29,4.35-12.93c0.01-2.84-1.44-5.88-2.99-8.2C367.75,550.97,367.82,550.4,368.12,549.44M308.52,579.48c0-0.75,0-1.5,0.01-2.25C308.94,577.74,308.92,578.97,308.52,579.48M358.52,577.41c-0.46-2.16-0.24-4.33,0.27-6.46c0.08-0.34,0.35-1.04,0.76-1.06c0.62-0.03,1.23-0.05,1.85-0.08c1.12-0.04,2.02-0.81,2.89-1.41c1.58-1.08,2.41-4.09,1.62-5.84c-0.52-1.15-1.11-2-1.83-3.01c-0.69-0.96,0.36-2.41,0.74-3.29c0.28-0.66,1.14-3.61,2.06-3.59c0.45,0,0.63,0.65,0.71,1.04c0.2,1.04,0.21,2.16-0.42,3.06c-0.58,0.83-1.54,1.79-1.06,2.89c0.73-0.72,1.48-1.66,2.51-1.88c1-0.22,2,0.52,1.89,1.63c-0.04,0.42,0.05,1.29-0.24,1.61c-0.8,0.88-1.73,1.42-2.63,2.17c-0.11,0.09,0.06,0.6,0.08,0.74c0.04,0.22,0.6,0.28,0.76,0.32c1.34,0.36,1.38,1.56,1.19,2.73c-0.07,0.39-0.2,1.02-0.57,1.23c-1.02,0.59-1.32,0.98-2.48,0.61c-0.86-0.28-1.48-0.22-1.03,0.84c0.25,0.59,0.97,2.69,0.31,3.27c-0.81,0.68-2.18,2.22-3.14,0.77c-0.3-0.45-0.1-1.06-0.27-1.56c-0.28-0.79-0.37-1.15-1.15-1.5c-0.16,1.32,0.15,2.67-0.24,3.94C360.69,575.83,359.76,577,358.52,577.41M359.81,568.41c0.89-0.04,1.96-0.12,2.75-0.58c0.67-0.39,1.62-1.23,1.78-2.03c0.22-1.1,0.28-1.99-0.09-3.06c-0.27-0.79-1.17-1.41-1.17-2.31c1.14-0.17,2.03,1.38,2.26,2.31c0.31,1.31,0.21,2.39-0.23,3.65c-0.32,0.89-1.45,2-2.35,2.3C362.01,568.94,360.06,569.68,359.81,568.41M360.31,567.41c0-1.39,0.92-3.86,1.95-4.84c0.12-0.11,0.41-0.51,0.62-0.38c0.17,0.11,0.67,0.32,0.73,0.51c0.4,1.17,0.61,2.24-0.19,3.31C362.53,567.21,361.76,567.39,360.31,567.41M356.81,566.4c0.23-0.92,0.14-1.76-0.74-2.25c-0.2,0.69-1,1.97-1.74,2.01c-1.44,0.07-2.19-0.05-3.38-0.87c-2.41-1.65-4.7-3.44-7.16-5.02c-1.13-0.73-2.27-1.46-3.45-2.1c-1.12-0.61-2.43-0.92-3.47-1.67c-1.04-0.75-0.28-1.76,0.16-2.67c0.12-0.24,0.26-0.49,0.33-0.75c0.31,0.37,0.41,0.94,0.69,1.36c0.4,0.59,0.98-0.47,1.07-0.85c0.09-0.39,0.37-1.5,0.15-1.8c-0.2-0.27-0.31-0.65-0.66-0.58c-0.39,0.08-0.67,0.13-0.99,0.37c0-0.69-0.03-1.38-0.02-2.06c0.01-0.89-0.13-1.35,0.92-1.08c2.8,0.73,5.46,2.56,7.78,4.22c2.49,1.79,5,3.57,7.35,5.54c1.18,0.99,2.31,2.04,3.39,3.14c0.87,0.88,2.51,2.13,2.82,3.39c0.12,0.47,0.15,0.62-0.11,1.03c-0.1,0.16-0.52,1.01-0.71,1.01C358.27,566.76,357.49,566.75,356.81,566.4M320.84,558.52c0-0.71-0.06-0.71,0.61-0.82c2.02-0.35,4.16,0.01,6.2,0.14c2.08,0.14,4.12,0.53,6.11,1.14c4,1.24,7.83,3.08,11.28,5.46c0.75,0.52,1.83,1.21,2.02,2.17c-0.57-0.06-1.15-0.13-1.72-0.19c-0.56-0.07-1.01-0.7-1.44-1.01c-0.98-0.71-1.95-1.43-2.98-2.07c-1.98-1.23-4.15-2.21-6.32-3.06c-2.2-0.86-4.57-1.31-6.88-1.76c-1.14-0.22-2.28-0.23-3.43-0.28C323.11,558.18,322.01,558.52,320.84,558.52M333.59,557.57c1.58-0.81,3-0.46,4.49,0.37c2.35,1.32,4.72,2.52,7,3.99c1.74,1.12,4.49,2.26,5.48,4.19c-1.31,0.62-2.42-0.25-3.42-1.02c-1.4-1.08-2.95-1.99-4.44-2.94c-1.56-0.99-3.21-1.75-4.88-2.52c-0.81-0.38-1.63-0.73-2.46-1.07C334.73,558.32,333.95,558.23,333.59,557.57M351.33,559.88c-0.34,0.64-0.24,1.77,0.11,2.38c0.35,0.6,0.44,0.85,1.08,1.1c0.5,0.2,1.02,0.09,1.54,0.04c0.29-0.02,0.47-0.86,0.42-1.14c-0.09-0.52-0.27-0.93-0.55-1.37C353.42,560.09,352.19,560.06,351.33,559.88M349.08,561.12c0.31-0.6,1.53-3.96,0.03-3.83c-0.63,0.05-1.02,1.32-1.02,1.83C348.1,560.07,347.9,560.96,349.08,561.12M376.86,559.85c-0.46-0.01-0.74-0.73-0.68-1.13c0.08-0.51,0.75-0.82,1.18-0.95c2.51-0.76,5.26-1.2,7.87-1.44c2.58-0.23,5.57-0.53,8.12-0.05c0.76,0.14,0.72,0.54,0.91,1.21c0.05,0.18-0.6,1.23-0.79,1.28c-1.08,0.31-2.36,0-3.47,0c-1.59,0-3.19-0.07-4.77,0.07c-1.3,0.12-2.61,0.13-3.9,0.34C379.84,559.42,378.37,559.8,376.86,559.85M346.34,559.36c0.43-0.6,0.71-1.43,0.81-2.15c0.07-0.51,0.06-2.5-0.85-1.89C345.19,556.05,344.58,559.13,346.34,559.36M371.73,517.2c-0.51,3.2-1.55,6.28-2.58,9.35c-1.13,3.38-2.18,6.77-3.39,10.12c-2.41,6.65-4.84,13.29-7.21,19.95c-0.22,0.62-0.45,0.82-1.04,0.66c-1.62-0.42-2.99-2.15-4.25-3.17c-0.94-0.75-2.79-1.73-3.08-2.99c-0.35-1.51,1.08-3.93,1.58-5.32c0.88-2.44,1.69-4.9,2.52-7.36c0.79-2.37,1.38-4.82,2.09-7.22c0.36-1.23,0.68-2.47,0.98-3.72c0.27-1.14,0.36-2.56,0.91-3.6c0.44-0.82,1.83-1.14,2.62-1.47c1.37-0.57,2.76-1.12,4.09-1.78c1.14-0.56,2.28-1.16,3.35-1.83C369.36,518.18,370.45,517.23,371.73,517.2M344.6,555.86c0.16-0.75-0.65-1.82-1.18-2.27c-0.4-0.33-0.72-0.44-1.23-0.4c-0.25,0.02-1.38-0.07-1.58,0.16c-0.19,0.2,0.14,1.13,0.24,1.37c0.21,0.49,0.48,0.79,0.93,1.08C342.58,556.32,343.75,555.97,344.6,555.86M377.6,555.72c0.15-1.59-2.13-2.19-1.78-3.51c0.17-0.65,0.66-1.2,0.51-1.91c-0.03-0.14-0.29-0.95-0.21-1.08c0.13-0.2,0.9-0.09,1.08-0.03c1.46,0.5-0.2,3.12,0.48,3.97c0.44,0.57,0.8,0.88,1.12,1.55C379.15,555.42,378.17,555.74,377.6,555.72M331.6,555.56c1.13-0.64,2.59-2.07,2.6-3.51c0-0.9,0.01-1.81,0.01-2.71c0-0.83-0.71-1.51-1.13-2.16c-0.94-1.42-2.64-1.21-3.96-1.88c-0.54-0.27-0.43-0.25-0.77,0.2c-0.62,0.83-1.29,1.85-1.73,2.79c0.54-0.09,1.04-0.15,1.6-0.18c0.52-0.03,0.87,0.79,1.01,1.19c0.36,1.04,0.38,2.17,0.38,3.25c0.75-0.44,1.4-1.25,2.26-1.49c0.2,0.9,0.36,1.68-0.02,2.56C331.63,554.13,331.12,555.04,331.6,555.56M327.1,555.05c1.58-0.81,0.37-3.03-1.22-2.65C324.13,552.81,325.44,555.94,327.1,555.05M378.61,552.23c0.38-0.65,1.1-1.13,1.39-1.83c0.19-0.45,0.34-0.92,0.49-1.38c0.14-0.42,0.06-0.86,0.57-0.74c0.7,0.17,1.14,0.83,0.84,1.52c-0.32,0.73-1.18,1.43-1.29,2.19c0.95,0,1.73,0.26,2.46,0.88c0.75,0.62,0.15,1.76-0.63,1.97c-0.82,0.22-0.94-1.33-1.39-1.74C380.43,552.53,379.4,552.37,378.61,552.23M384.36,551.24c0.03-1.14,2.03-3.03,3.06-3.39c0.97-0.35,1.57-0.03,2.4,0.54c0.75,0.52,1.39,1.02,1.83,1.83c0.53,0.95-2.5,3-3.19,3.33c-0.51,0.25-0.61,0.32-1.13,0.11C386.12,553.18,385.5,551.85,384.36,551.24M393.36,553.78c-0.56-1.05,0.13-2.75,1.41-2.74C394.92,551.03,394.52,554,393.36,553.78M333.11,552.07c-0.14-0.53-0.43-1.4-0.95-1.67c-0.66-0.36-1.33,0.52-1.78-0.24c-0.32-0.54-1.79-3.19-1.07-3.58c0.65-0.35,1.36-0.01,2.02,0.2c0.76,0.24,1.08,0.83,1.53,1.44c0.54,0.75,0.72,1.14,0.75,2.1C333.64,550.89,333.65,551.71,333.11,552.07M343.89,544.85c0.14,0.72,0.36,1.57-0.01,2.25c-1.4-0.46-0.91-2.21-0.61-3.25c0.58-1.99,1.14-4.16,1.15-6.24c-0.68,1.12-0.99,2.42-1.26,3.69c-0.27,1.28-0.35,2.91-1.14,4c-0.3,0.42-1.02,0.38-1.5,0.16c-1.02-0.45-2.22-0.99-1.95-2.25c0.71-3.25,1.45-6.5,2.18-9.74c0.35-1.55,0.68-3.11,1.07-4.64c0.22-0.84,0.25-2.53,1-3.1c0.65-0.51,1.72-0.36,2.49-0.36c1.35,0,2.64-0.11,3.99-0.23c1.4-0.13,2.79-0.28,4.18-0.52c1.06-0.19,2.67-0.93,3.73-0.71c-0.21,4.42-1.89,8.59-3.18,12.77c-0.66,2.16-1.23,4.35-2.04,6.46c-0.79,2.1-1.28,4.32-2.24,6.36c-0.45,0.96-1.06,0.93-1.85,0.46c-0.65-0.38-1.29-0.8-1.87-1.28c-0.51-0.42-0.94-0.87-1.16-1.5C344.61,546.39,344.63,545.36,343.89,544.85M393.13,547.03c0.97,0.15,2.18,1.56,1.81,2.56c-0.22,0.6-1.25-0.52-1.46-0.78C393.04,548.24,392.77,547.73,393.13,547.03M373.88,548.12c-0.34,0.04-1.11-0.29-1.15-0.63c-0.1-0.86-0.16-0.94,0.61-1.34c2.84-1.46,6.46-1.7,9.55-2.26c1.78-0.33,3.59-0.46,5.39-0.67c0.9-0.11,1.8-0.23,2.7-0.28c0.93-0.06,2.05-0.41,2.95-0.05c0.87,0.35,0.82,0.39,1,1.32c0.32,1.69-5.81,1.08-6.71,1.17C383.29,545.85,378.68,546.96,373.88,548.12M383.88,546.74c0.53-0.46,1.33-0.43,1.98-0.45c0.9-0.02,1.87-0.47,2.77-0.28C387.79,546.81,384.88,547.29,383.88,546.74M375.14,544.71c-0.81-1.52,0.01-3.96,0.02-5.61c0.02-2.22,0.26-4.43,0.27-6.65c0.98,0.93,0.39,3.39,0.4,4.57c0.02,2.21-0.17,4.46-0.19,6.68c1.05-2.04,0.53-4.42,0.75-6.61c0.27-2.61,0.08-5.31,0.54-7.89c0.45,0.55,0.29,1.45,0.25,2.1c-0.06,0.95-0.02,1.91-0.02,2.85c0,1.03,0.02,2.07-0.04,3.1c-0.06,0.89-0.24,1.82,0.03,2.7c0.57-0.77,0.56-1.82,0.54-2.73c-0.02-1.35,0.21-2.68,0.24-4.03c0.04-2.58,0.27-5.14,0.27-7.73c0.78,0.95,0.24,3.6,0.23,4.73c0,1.03,0.05,2.06,0,3.09c-0.05,1.07-0.41,2.22,0.23,3.19c0.51-2.05,0.51-4.46,0.52-6.56c0.01-2.4,0.27-4.79,0.27-7.2c0.53,0.58,0.3,1.64,0.25,2.35c-0.07,1.12,0,2.3,0.23,3.4c0.55-1.08,0.51-2.84,0.51-4.03c0.01-1.57,0.01-3.15,0.02-4.72c0.91,1.05,0.49,3.48,0.48,4.75c0.86-1.08,0.63-2.78,0.58-4.06c-0.07-1.82,0.2-3.63,0.2-5.44c0.66,0.73,0.26,2.23,0.4,3.14c0.05,0.34-0.16,2.16,0.08,2.36c0.7,0.58,0.51-2.88,0.52-3.28c0.01-1.68,0-3.36,0.02-5.03c0.01-1.53,0.4-2.84,0.76-4.32c0.37-1.5,0.39-3.56,1.28-4.85c0.79,0.6,1.08,1.79,1.29,2.7c0.39,1.67,0.75,3.36,1.03,5.05c0.57,3.36,0.43,6.89-0.02,10.25c-0.47,3.57-1.3,7.08-2.04,10.6c-0.37,1.74-0.73,3.48-1.07,5.22c-0.17,0.87-0.34,1.75-0.5,2.62c-0.15,0.82,0,1.68-0.31,2.48c-0.43,1.14-1.42,1.31-2.5,1.51C378.81,543.77,376.96,544.2,375.14,544.71M373.64,544.71c0.02-1.7,0.24-3.56,0.52-5.24c0.51,0.62,0.37,1.81,0.24,2.54C374.3,542.57,374.49,544.8,373.64,544.71M383.9,542.74c0.01-1.96,0.49-3.88,0.74-5.82c0.28-2.19,0.67-4.33,1.23-6.47c1.14-4.33,2.03-8.71,2.1-13.2c0.07-4.13-0.04-8.58-1.46-12.49c-0.63-1.72-1.5-3.32-1.26-5.2c0.22-1.76,0.2-4.22,1.06-5.8c1.5,0.82,2.54,2.96,3.44,4.34c1.21,1.83,2.21,3.72,3.06,5.74c1.63,3.85,2.41,8.15,2.36,12.33c-0.02,2.25,0.38,4.5,0.37,6.76c0,2.34-0.15,4.68-0.3,7.01c-0.14,2.12-0.66,4.16-0.49,6.28c0.08,1.05-0.12,2.1-0.1,3.16c0.01,0.39,0.4,2.12-0.14,2.37c-1.37,0.62-3.26,0.32-4.74,0.48C387.82,542.44,385.87,542.74,383.9,542.74M374.16,538.71c0-0.67,0-1.33,0.01-2C374.55,537.18,374.54,538.23,374.16,538.71M351.76,509.88c1.59-1.22,4.1-0.82,5.87-1.88c1.78-1.07,4.07-2.58,4.41-4.84c-0.94-0.08-1.83,0.33-2.72,0.54c-0.99,0.24-2.11,0.17-3.12,0.04c-0.51-0.07-1.05,0.09-1.16,0.64c1.06,0.06,2.12,0.26,3.18,0.12c0.94-0.12,1.87-0.38,2.82-0.35c-1.11,1.38-2.57,2.72-4.24,3.36c-0.76,0.29-1.52,0.61-2.31,0.79c-0.34,0.08-2.16-0.04-2.29,0.16c-0.43,0.65-1.03,1.35-1.19,2.14c1.15,0.03,1.87,1.19,2.43,2.03c0.43,0.65,0.65,1.87-0.2,2.01c-1.16,0.19-2.05,1.11-3.18,1.42c-0.89,0.25-2.25,1.29-2.56-0.22c-0.45,0.38-0.76,0.97-1.01,1.5c0.53,0.18,1,0.36,1.55,0.45c0.51,0.08,0.96-0.13,1.41-0.35c0.73-0.34,1.56-0.45,2.27-0.83c0.72-0.39,2.74-1.31,2.81-2.24c0.04-0.6-0.24-1.25-0.43-1.81C353.68,511.31,353.07,510.35,351.76,509.88M348.99,514.87c0-0.42,0-0.83,0.01-1.25c0.42,0.07,0.83,0.18,1.25,0.25c-0.1-0.6-0.25-1.14-0.24-1.75c0.56,0.34,0.92,0.92,1.5,1.26c0.16-0.72-0.65-1.69-0.99-2.25c-0.89,0.74-2.04,2.6-2.26,3.74C348.49,514.87,348.74,514.87,348.99,514.87M355.78,503.39c0.96-0.85,2.06-1.11,3.26-1.49c-0.32-0.63-1.53-1.14-2.08-0.61C356.53,501.7,355.61,502.77,355.78,503.39M372.54,500.2c0.08-1.16,0.64-2.21,1.51-2.99c0.29,0.57-0.07,1.23-0.32,1.75C373.47,499.49,373.25,500.34,372.54,500.2M369.05,499.44c0.13-0.96,1.22-1.53,1.87-2.11c0.77-0.7,1.54-1.71,2.64-1.88c0.19,0.85-0.71,2.14-1.37,2.59C371.15,498.77,370.36,499.45,369.05,499.44M375.3,497.96c-0.7-0.54-0.71-1.96-0.74-2.75C375.36,495.61,375.89,497.23,375.3,497.96M368.31,495.94c0.74-1.22,2.72-1.4,4.01-1.49C371.97,496.11,369.64,496.64,368.31,495.94M367.82,491.19c-0.46-0.77-1.74-0.98-2.47-1.41c-0.48-0.28-0.54-0.42-0.99,0c-0.34,0.32-0.6,0.73-0.79,1.14C365.07,490.55,366.33,491.23,367.82,491.19M365.58,488.18c0.95-0.75,2.24-0.34,3.25-0.99c-0.49-0.4-1.58-0.3-2.19-0.41c-0.56-0.1-0.51-0.1-0.76,0.38C365.73,487.47,365.48,487.84,365.58,488.18"/></g><g id="diamond"><path style="fill:#e6180a" d="M0,0C-2.56,0-5.12,0-7.68,0C -6.8053,0.039-6.061,0.605-5.358,1.0728C-3.779,2.264-2.3,3.63 -1.132,5.228C-0.587,6.032 -0.0144,6.936 0,7.94M-7.68,0C-6.57,-0.035 -5.622,-0.7413 -4.776,-1.393C-3.281,-2.648 -1.987,-4.141 -0.895,-5.757C-0.494,-6.426 -0.022,-7.135 0,-7.94C0,-5.293 0,-2.647 0,0M0,-7.94C0.038,-6.758 0.758,-5.734 1.438,-4.82C2.65,-3.310 4.086,-1.974 5.666,-0.857C6.28,-0.474 6.932,-0.0185 7.68,0C5.12,0 2.56,0 0,0M 7.68,0C6.57,0.035 5.622,0.741 4.776,1.392C 3.281,2.648 1.987,4.141 0.895,5.757C0.494,6.426 0.0225,7.135 0,7.94C0,5.293 0,2.647 0,0"/></g><g id="base"><path style="fill:#FFFFFF;stroke:#000000;stroke-width:2.5" d="M 0,0C0,3.78 3.09,6.87 6.87,6.87L159.715,6.87C163.485,6.87 166.575,3.78 166.575,0L166.575,-228.4C166.575,-232.18 163.485,-235.27 159.715,-235.27L6.87,-235.27C3.09,-235.27 0,-232.18 0,-228.4L0,0 z"/></g><g id="king"><text transform="scale(0.56453 1.05741)" font-family="Bitstream Vera Serif" font-weight="bold" font-size="43">K</text></g></defs><g id="king_diamond" transform="translate(-2010.9,-243.137)"><use xlink:href="#base" x="2010.9" y="243.137" xlink:type="simple" xlink:show="embed" xlink:actuate="onLoad"></use><g fill="none" stroke="black" stroke-width="1"><path d="M 2020.27 68.02L2020.27 245.407"/><path d="M 2020.27 245.407L2151.17 245.407"/><path d="M 2169.1 189.107L2169.1 11.47"/><path d="M 2169.1 11.47L2038.2 11.47"/></g><g><use xlink:href="#diamond" x="852.91" y="16.05" transform="scale(2.4) rotate(180,852.91,16.05)" xlink:type="simple" xlink:show="embed" xlink:actuate="onLoad"></use><rect x="2028.48" y="19.536" width="9.69257" height="37.968" fill="white"/></g><g><use xlink:href="#diamond" x="892.663" y="91.0328" transform="scale(2.4)" xlink:type="simple" xlink:show="embed" xlink:actuate="onLoad"></use><rect x="2151.64" y="199.495" width="9.69257" height="37.968" fill="white"/></g><g transform="rotate(-1.80,2094.69,128.439)"><line x1="2049.27" y1="194.334" x2="2140.1" y2="62.5436" stroke="black" stroke-width="7.25"/><circle cx="2051.69" cy="191.275" r="2.2" fill="white"/><circle cx="2051.69" cy="191.275" r=".7" fill="black"/><circle cx="2054.89" cy="186.627" r="2.2" fill="white"/><circle cx="2054.89" cy="186.627" r=".7" fill="black"/><circle cx="2058.1" cy="181.979" r="2.2" fill="white"/><circle cx="2058.1" cy="181.979" r=".7" fill="black"/><circle cx="2061.3" cy="177.331" r="2.2" fill="white"/><circle cx="2061.3" cy="177.331" r=".7" fill="black"/><circle cx="2064.5" cy="172.684" r="2.2" fill="white"/><circle cx="2064.5" cy="172.684" r=".7" fill="black"/><circle cx="2067.71" cy="168.036" r="2.2" fill="white"/><circle cx="2067.71" cy="168.036" r=".7" fill="black"/><circle cx="2070.91" cy="163.388" r="2.2" fill="white"/><circle cx="2070.91" cy="163.388" r=".7" fill="black"/><circle cx="2074.11" cy="158.74" r="2.2" fill="white"/><circle cx="2074.11" cy="158.74" r=".7" fill="black"/><circle cx="2077.32" cy="154.092" r="2.2" fill="white"/><circle cx="2077.32" cy="154.092" r=".7" fill="black"/><circle cx="2080.52" cy="149.444" r="2.2" fill="white"/><circle cx="2080.52" cy="149.444" r=".7" fill="black"/><circle cx="2083.72" cy="144.796" r="2.2" fill="white"/><circle cx="2083.72" cy="144.796" r=".7" fill="black"/><circle cx="2086.93" cy="140.148" r="2.2" fill="white"/><circle cx="2086.93" cy="140.148" r=".7" fill="black"/><circle cx="2090.13" cy="135.5" r="2.2" fill="white"/><circle cx="2090.13" cy="135.5" r=".7" fill="black"/><circle cx="2093.34" cy="130.852" r="2.2" fill="white"/><circle cx="2093.34" cy="130.852" r=".7" fill="black"/><circle cx="2096.54" cy="126.204" r="2.2" fill="white"/><circle cx="2096.54" cy="126.204" r=".7" fill="black"/><circle cx="2099.74" cy="121.556" r="2.2" fill="white"/><circle cx="2099.74" cy="121.556" r=".7" fill="black"/><circle cx="2102.95" cy="116.908" r="2.2" fill="white"/><circle cx="2102.95" cy="116.908" r=".7" fill="black"/><circle cx="2106.15" cy="112.26" r="2.2" fill="white"/><circle cx="2106.15" cy="112.26" r=".7" fill="black"/><circle cx="2109.35" cy="107.612" r="2.2" fill="white"/><circle cx="2109.35" cy="107.612" r=".7" fill="black"/><circle cx="2112.56" cy="102.964" r="2.2" fill="white"/><circle cx="2112.56" cy="102.964" r=".7" fill="black"/><circle cx="2115.76" cy="98.3158" r="2.2" fill="white"/><circle cx="2115.76" cy="98.3158" r=".7" fill="black"/><circle cx="2118.96" cy="93.6678" r="2.2" fill="white"/><circle cx="2118.96" cy="93.6678" r=".7" fill="black"/><circle cx="2122.17" cy="89.0198" r="2.2" fill="white"/><circle cx="2122.17" cy="89.0198" r=".7" fill="black"/><circle cx="2125.37" cy="84.3718" r="2.2" fill="white"/><circle cx="2125.37" cy="84.3718" r=".7" fill="black"/><circle cx="2128.57" cy="79.7238" r="2.2" fill="white"/><circle cx="2128.57" cy="79.7238" r=".7" fill="black"/><circle cx="2131.78" cy="75.0759" r="2.2" fill="white"/><circle cx="2131.78" cy="75.0759" r=".7" fill="black"/><circle cx="2134.98" cy="70.4279" r="2.2" fill="white"/><circle cx="2134.98" cy="70.4279" r=".7" fill="black"/><circle cx="2138.18" cy="65.7799" r="2.2" fill="white"/><circle cx="2138.18" cy="65.7799" r=".7" fill="black"/></g><use xlink:href="#king" x="2014.9" y="44.02" style="fill:#e6180a" xlink:type="simple" xlink:show="embed" xlink:actuate="onLoad"></use><use xlink:href="#king" x="2174.47" y="212.857" transform="rotate(180,2174.47,212.857)" style="fill:#e6180a" xlink:type="simple" xlink:show="embed" xlink:actuate="onLoad"></use><use xlink:href="#diamond" x="2024.55" y="58.02" transform="rotate(180,2024.55,58.02)" xlink:type="simple" xlink:show="embed" xlink:actuate="onLoad"></use><use xlink:href="#diamond" x="2164.82" y="198.857" xlink:type="simple" xlink:show="embed" xlink:actuate="onLoad"></use><use xlink:href="#king_4" transform="translate(1769.457,-416.0703)" id="use1577" x="0.0000000" y="0.0000000" width="2178.4751" height="1215.6875" xlink:type="simple" xlink:show="embed" xlink:actuate="onLoad"></use><use xlink:href="#king_4" transform="matrix(-1.000000,0.000000,0.000000,-1.000000,2419.875,672.9645)" id="use1578" x="0.0000000" y="0.0000000" width="2178.4751" height="1215.6875" xlink:type="simple" xlink:show="embed" xlink:actuate="onLoad"></use></g></svg>