<?xml version="1.0" encoding="UTF-8"?>
<svg xmlns="http://www.w3.org/2000/svg" xmlns:xlink="http://www.w3.org/1999/xlink" version="1.1" height="263" width="188" viewBox="-1.3 -236.8 188 263" preserveAspectRatio="xMidYMid meet" zoomAndPan="magnify" contentScriptType="application/ecmascript" contentStyleType="text/css"><defs><g id="king_2" x="0" y="0"><g><polyline style="fill:#E61408;" points="432.73,605.23 433.17,597.5 426.66,607.44 432.73,605.23 "/><path style="fill:#1C1585;" d="M447.71,609.33l8.36-6.5l1.22-0.05c3.6,1.71,7.67,3.11,11.03,5.23c3.36,2.12,5.33,6.16,7.45,9.38l3.09,0.19l-4.81-15.45c-3.45-2.19-6.33-4-10.2-5.25l-2.06-7.11l1.28-7.37c-2.88,0.38-4.7,0.37-7.54-0.21c0.13,1.91,0.54,4,0.4,5.91c-0.13,1.79-0.91,3.71-1.34,5.46l-2.23,2.94v0.57c-1.19,0.73-1.93,1.88-3.11,2.68c-1.6,1.07-3.2,2.15-4.8,3.22l0.01-0.13l-0.07,0.05c-1.16,3.99-2.21,7.92-3.1,11.97l1.66-0.75L447.71,609.33"/><path style="fill:#E61408;" d="M464.93,555.19l-0.01,3.96l6.37-0.32l0.4-20.9l-6.75,10.39c0,1.73-0.3,3.68,0.29,5.35L464.93,555.19"/><polyline style="fill:#E61408;" points="470.91,560.32 457.28,560.15 451.28,569.6 471.21,569.52 470.91,560.32 "/><path style="fill:#F8C20F;" d="M464.93,555.19l0.3-1.52c-0.35-1.39-0.7-2.77-1.05-4.16c-2.08,3.15-4.16,6.27-6.08,9.52l6.02,0.21L464.93,555.19"/><polyline style="fill:#E61408;" points="528.98,565.57 530.44,565.57 530.44,564.2 528.98,564.2 528.98,565.57 "/><polyline style="fill:#F8C20F;" points="525.75,551.92 529.52,551.94 528.83,550.31 526.75,550.02 525.75,551.92 "/><polyline style="fill:#1C1585;" points="512.69,554.99 512.69,554.72 511.75,555.28 512.17,555.84 512.69,554.99 "/><path style="fill:#1C1585;" d="M500.18,522.45l-1.27,2.35c-0.23,8.43-2.06,16.52-4.07,24.67l-0.16-0.25v2.17l4.44,1.94l2.62,4.78l-0.43,0.86h1.14c0.22-0.72,0.51-1.44,0.77-2.15l1.24,0.83l-0.27-2.19l2.5-6.89l1.22,1.62c-2.42-10.57-0.31-21.64,1.75-32.02 h-1.29L500.18,522.45"/><path style="fill:#E61408;" d="M516.59,565.53l-4.76-4.3l-1.34-2.59l1.68-2.79l-0.43-0.57l-1.11,0.66l-1.99-1.79l-0.74-3.95l-1.22-1.62l-2.5,6.89l0.27,2.19l0.14,0.09c2.93,6.19,4.49,12.5,5.32,19.29c0.83,6.77-0.1,13.42,0.14,20.19l0.75,0.04c1.18-2.86,2.16-5.41,2.81-8.42c0.63-2.96,1.83-5.22,3.21-7.93l4.01-3.62v-9.95l-0.26-0.34l-0.88,0.13L516.59,565.53"/><path style="fill:#E61408;" d="M500.65,606.41c4.23-9.61,0.8-19.72-2.89-28.8c1.27-2.68,0.74-6.53,1.85-9.23c1.32-3.22,2.18-6,2.85-9.41h-1.14l0.43-0.86l-2.62-4.78l-4.44-1.94v-2.17l0.16,0.25c2.01-8.15,3.84-16.24,4.07-24.67l1.27-2.35c2.92-1.52,5.84-3.05,8.76-4.57c2.32-4.75,3.16-10.29,4.56-15.41l0.52-0.7c0.58-2.18,1.22-4.34,1.88-6.5l-0.49-1.04l-11.64-6.02c-7.33,10.33-13.77,21.32-20.53,32.03l-3.31,40.78l1.41,47.2h22.5L500.65,606.41"/><path style="fill:#F8C20F;" d="M521.7,530.23c-0.03,4.69-0.32,9.03-0.93,13.68l1.77,0.4c0.69-1.47,1.39-2.92,2-4.42c0.52-1.28,2.37-2.45,3.36-3.32c-0.69-2.77-1.46-4.96-1.51-7.83l-0.87-2.1l-1.44-0.54C523.32,527.5,522.54,528.87,521.7,530.23 "/><path style="fill:#F8C20F;" d="M533.73,552.56l-17.86,0.26l1.25-0.74c-0.83-4.6-1.76-8.83-1.57-13.48c0.13-3.11,0.26-6.22,0.39-9.33c0.08-1.91,0.98-3.74,1.17-5.65c0.5-5.11,0.97-10.24,1.74-15.33c0.39-2.58,0.91-5.15,1.36-7.71c0.38-2.18,1.74-4.46,2.56-6.51c-4.06,2.21-6.51,4.72-9.27,8.41c-1.14,4.16-2.38,8.33-3.22,12.56c-0.76,3.85-2.11,7.89-2.48,11.77c-0.89,9.34-0.88,18.1,0.85,27.34l1.99,1.79c0.77-0.46,1.54-0.92,2.3-1.37c-0.82,1.36-1.64,2.72-2.46,4.07l1.34,2.59c2.61,2.35,4.77,4.3,7.88,5.91c0.3-0.04,0.59-0.09,0.89-0.13l0.09-11.21c4.72-0.3,9.4-0.55,14.08-1.18v-1.34L533.73,552.56"/><polyline style="fill:#F8C20F;" points="528.82,563.88 530.62,563.93 533,559.59 534.67,559.53 534.77,554.62 528.86,557.05 528.82,563.88 "/><path style="fill:#F8C20F;" d="M510.21,590.19c0.51-11.24-0.76-22.19-5.61-32.44c-0.46-0.31-0.92-0.62-1.38-0.93c-1.22,3.28-1.62,6.67-2.95,9.93c-1.33,3.25-1.59,6.73-3.09,9.91c3.69,9.08,7.71,20.14,3.47,29.75l2.61,0.02c3.43-2.4,5.32-4.29,6.84-8.23C510,595.5,510.06,592.88,510.21,590.19"/><path style="fill:#F8C20F;" d="M450.57,598.86c1.34-1.77,2.68-3.53,4.02-5.3c0.43-1.75,1.21-3.67,1.34-5.46c0.14-1.91-0.27-4-0.4-5.91c2.84,0.58,4.66,0.59,7.54,0.21l-1.28,7.37l2.06,7.11c3.04,0.98,6.08,1.96,9.12,2.94l1.52-4.28l-3.52-22.78c-7.28,0.37-14.51-0.41-21.81,0.1c-2.88,4.37-2.82,10.99-3.61,16.02c-0.73,4.66-0.82,9.38-1.1,14.09L450.57,598.86"/><path style="fill:#F8C20F;" d="M486.11,655.47c-1.34-1.96-3.15-3.48-4.45-5.42c-1.48-2.21-2.26-4.09-2.91-6.68c-10.99,4.01-23.06,6.71-34.37,2.6c-0.97,2.29-1.96,5.95-3.89,7.69c-2.43,2.17-3.82,4.69-5.81,7.25c1.15,0.16,2.04,0.43,3.13,0.85c1.7-0.89,2.99-1.18,4.89-1.49l1.06-1.05l-0.21-3.25c-0.75-0.35-1.33-0.92-1.84-1.57l1.62-1.06l2.12,0.37l2.04,1.39l0.1,1.94l-0.81,2.03l0.17,3.02l0.48,0.22l1.07-0.32l0.67-1.5l-0.14-3.78c0.77-0.71,1.48-1.24,2.37-1.8l3.15-0.18l0.86,1.33l-2.5,1.12l-1.8,1.99l0.93,2.63l2.34,0.1l0.22,2.65l3.7,0.25l2.35-1.16l0.23-1.78l1.4-0.2l0.96-0.66l0.54-2.55c-1.34-0.8-2.55-1.67-4.08-2.05l1.07-1.52l4.23-0.08l3.03,2.48l0.94,5.05l0.78,0.17l0.71-0.74l0.6-1.42c-0.63-1.23-1.26-2.47-1.88-3.71l1.38-3.39l2.96-0.85l2.38,2.02l-1.62,0.35l-1.81,2.6l1.74,2.71l1.62-0.45l0.48,2.14l3.72,0.88l1.5-2.31l0.5-2.43c0.93,0.31,1.87,0.63,2.8,0.95c1.47-0.04,2.86,0.02,4.32,0.14l0.54-0.89C488.28,657.28,487.25,656.6,486.11,655.47"/></g><path d="M461.16,662.05c0.98-0.03,1.53-0.03,2.11-0.86c0.56-0.8,0.59-1.69,0.73-2.64c0.14-0.95-3.22-2.6-3.9-2.23c1.06-1.82,4.17-1.47,5.7-0.59c0.85,0.49,1.86,1.45,1.85,2.51c0,0.66-0.68,2.43-0.03,3.01c0.37,0.33,1.94,2.24,2.56,1.19c0.55-0.95,1.39-1.84,0.86-2.97c-0.32-0.68-1.67-2.25-1.4-3.02c0.19-0.57,0.33-1.44,0.7-1.91c0.33-0.41,0.82-0.66,1.21-1c0.23-0.21,1.51-0.39,1.82-0.33c0.71,0.14,1.33,0.29,1.71,0.97c-1.02-0.08-1.97,0.68-2.48,1.53c-0.22,0.37-0.62,1.08-0.66,1.51c-0.08,0.89,0.9,1.93,1.42,2.57c0.62,0.76,1.6,0.76,2.22,1.52c0.7,0.86,1.44,0.9,2.39,1.32c0.77,0.34,1.92,1.02,2.57,0.11c0.49-0.68,1-1.35,1.32-2.13c0.23-0.57,0.16-1.9,0.82-2.18c0.52-0.22,1.26,0.42,1.71,0.61c0.7,0.31,1.39,0.02,2.12,0.15c0.99,0.18,2.96,0.76,3.37-0.7c0.24-0.85-0.97-1.1-1.52-1.33c-0.96-0.41-1.78-1.48-2.39-2.3c-0.32-0.43-0.53-0.87-0.75-1.35c-0.27-0.6-0.84-0.99-1.27-1.47c-0.48-0.54-0.9-1.12-1.37-1.67c-0.44-0.51-1-0.77-1.37-1.36c-1.53-2.39-2.11-5.34-1.03-7.96c0.48-1.16,0.72-2.25,0.86-3.49c0.14-1.26,0.29-2.66,1.21-3.62c1.48-1.57,3.82-1.85,5.73-2.61c2.44-0.98,2.95-3.04,4.03-5.16c0.61-1.19,2.71-1.24,3.63-2.26c1.11-1.22,2.28-3.01,2.57-4.65c0.17-0.95-1.15-2.27-0.82-3.17c0.49-1.35,2.53-2.23,3.63-2.99c1.6-1.11,2.96-2.47,4.07-4.07c2.26-3.27,4.06-7.11,5.69-10.73c1.66-3.7,2.58-7.46,3.71-11.32c0.51-1.76,1.27-3.43,2.34-4.93c0.87-1.22,2.22-3.13,3.73-3.59c0.05,1.73,0.28,3.43,0.3,5.17c0.02,1.76,0.04,3.53,0.06,5.29c0.03,3.42,0.4,6.85,0.34,10.27c-0.03,1.66-0.13,3.33,0.02,4.99c0.13,1.47,0.07,3.26,0.48,4.67c0.17,0.57,2.8,4.89,3.71,4.34c1.35-0.78,2.97-2.83,3.58-4.27c0.8-1.88,0.26-4.78,0.24-6.78c-0.05-5.16-0.11-10.32-0.16-15.48c-0.06-5.17-0.35-10.37-0.21-15.54c0.03-1.16,0.07-2.3,0.51-3.39c0.42-1.04,1.11-1.97,1.63-2.96c0.7-1.33,1.08-4.43,2.79-4.92c0.19-0.05,0.6,0.11,0.75-0.06c0.09-0.1,0.08-0.75-0.11-0.76c-0.99-0.08-2.17-0.72-2.49-1.71c-0.17-0.53,0.04-0.96,0.43-1.3c0.3-0.26,0.6-0.49,1-0.54c0.34-0.04,1.09,0.19,1.2-0.19c0.06-0.22,0.11-0.43,0.15-0.66c0.17-0.88-3.85-0.28-4.11-0.22c-1.92,0.44-3.84,0.96-5.82,0.98c-2.18,0.02-4.33-0.25-6.49-0.54c-0.77-0.1-2.03-0.38-2.77-0.01c-0.32,0.16-1.27,0.35-1.38,0.74c-0.09,0.35-0.76,2.42,0.23,2.41c0.81-0.01,0.87,0.02,1.36-0.62c0.25-0.32,0.3-0.75,0.26-1.15c0.89,1.02,0.62,1.79-0.45,2.47c-0.59,0.38-0.64,0.54-1.27,0.28c-0.61-0.26-1.11-0.35-1.46-0.91c-1.36-2.13,0.63-4.3,2.93-4.34c1.44-0.03,2.86-0.33,4.29-0.36c1.65-0.03,3.3,0.04,4.95-0.08c1.55-0.12,3.07-0.18,4.63-0.2c1.71-0.02,3.4,0.17,5.1,0.19c0-0.25,0.03-1.5-0.37-1.5c-2.05,0.03-3.52-0.47-5.27-1.51c-0.45-0.27-0.8-1.29-0.1-1.53c0.79-0.27,1.15-0.41,1.96-0.27c1.4,0.25,2.29,0.89,3.49,1.56c0.07-0.44-0.18-0.85-0.13-1.29c0.06-0.57,0.17-1.14,0.1-1.71c-0.18-1.28-0.49-2.18-0.36-3.49c0.11-1.17-0.55-2.14-0.57-3.29c-0.02-0.97,0.01-1.88-0.91-2.46c-0.93-0.58-2.15-0.73-3.21-0.74c-1.02-0.01-1.27-1.05-1.46-1.86c-0.29-1.27-0.79-2.5-1.32-3.69c-0.47-1.07,0.38-2.48-0.13-3.67c-0.42-0.98-0.95-1.9-2.01-2.21c-0.47-0.14-1.19-0.42-1.37,0.08c-0.19,0.53-0.37,1.12-0.87,1.45c-0.01-0.88,0.15-1.94-0.28-2.75c-0.67,0.78-0.5,2.1-0.47,3.05c0.05,1.41-0.16,2.81-0.2,4.21c-0.68-0.19-1.33-0.52-2.01-0.73c0.18-0.31,0.19-0.66,0.24-1c0.25,0.33,0.58,0.66,1.01,0.74c0.02-0.57,0.06-1.13,0.11-1.7c0.05-0.5-0.24-0.96-0.2-1.46c0.04-0.5-0.08-0.54-0.48-0.74c-0.54-0.27-0.72-0.83-0.99-1.33c-0.42,0.38-0.51,0.98-0.89,1.4c-0.35,0.38-1.02,0.55-1.09,1.13c-0.15-0.27-0.21-0.59-0.24-0.89c-0.04-0.6,0.09-0.15,0.36-0.42c0.77-0.69,0.58-1.66,0.66-2.6c0.09-1.12-0.14-1.78-0.34-2.84c-0.69,0.51-0.7,1.67-0.81,2.43c-0.18,1.22-0.44,2.42-0.6,3.64c-0.33,2.71-0.86,5.43-0.95,8.17c-0.1,2.71-0.02,5.51,0.3,8.2c0.16,1.33,0.27,2.7,0.55,4.02c0.19,0.91,1.15,2.85,0.76,3.74c-0.09,0.22-0.12,0.59-0.38,0.53c-0.26-0.07-0.78-0.09-0.99-0.26c-1.41-1.07-1.19-4.26-1.39-5.78c-0.16-1.24-0.35-2.46-0.44-3.71c-0.11-1.25,0.17-2.51,0.14-3.76c-0.13-5.25,0.65-10.62,1.4-15.81c0.77-5.32,1.57-10.69,2.69-15.95c0.52-2.45,1.06-4.86,1.73-7.27c0.48-1.7,1.02-3.87,2.73-4.75c-0.24,0.89-0.72,1.69-1.08,2.53c-0.41,0.94-0.62,1.95-0.89,2.94c-0.57,2.07-0.89,4.13-1.24,6.24c-0.38,2.31-0.66,4.62-0.93,6.94c-0.27,2.27-0.71,4.61-0.57,6.91c0.39-0.5,0.26-1.31,0.34-1.9c0.12-0.91,0.28-1.82,0.44-2.72c0.07-0.38,0.75-3.64,0.96-3.66c0.16-0.02,0.36-0.01,0.51-0.08c0.58-0.27,0.97-0.77,0.5-1.39c-0.54-0.72-0.79-0.96-0.45-1.83c0.23-0.58,0.67-1.08,0.81-1.7c-0.3,0-0.61,0.05-0.91,0.01c-0.22-0.03-0.08-1.43-0.06-1.63c0.13-1.45,0.55-2.88,0.95-4.28c0.39-1.38,0.78-2.84,1.35-4.16c0.29-0.67,1.29-2.56,2.08-2.36c1.07,0.25,1.92,1.17,2.98,1.35c-1.17-2.18-4.27-2.87-6.29-1.45c-2.06,1.45-3.51,3.81-5.67,5.07c0.28-1.01,0.6-2,0.88-3.01c0.34-1.22,0.34-1.84-0.69-2.65c-1.45-1.13-3.37-2.04-5.03-2.84c-2-0.96-3.95-2.01-5.94-2.97c-0.99-0.48-3.21,3.89-3.54,4.61c0.88-0.54,2.21-3.99,3.34-3.68c1.83,0.51,3.48,2.09,5.39,2.33c-0.54,2.05-1.54,3.93-2.03,6.02c-0.48,2.05-1,4.2-0.69,6.31c0.34,2.29,0.52,4.54,1.04,6.8c0.43,1.86,1.6,4.18,1.14,6.12c-0.47,1.93-2.56-1.05-2.95-1.62c-0.51-0.74-0.93-1.52-1.38-2.29c-0.82-1.4-1.96-3.13-2.2-4.76c0.91-0.03,1.13-0.47,1.42-1.23c0.28-0.72-0.43-1.4-0.92-1.85c-0.82-0.73-2.49-1.69-3.56-1.89c0.01,1.62-0.32,3.23-0.06,4.84c0.21,1.25,1.89,0.97,2.62,1.66c1.01,0.94,1.52,2.69,2.18,3.89c0.81,1.47,2.79,5.21,0.65,6.41c-0.33,0.18-0.97,0.57-1.31,0.32c-0.99-0.74-1.42-1.73-2.04-2.77c-0.76-1.27-1.55-2.46-2.63-3.49c-1.84-1.76-3.91-3.12-6.55-2.54c-0.99,0.21-1.75,1.35-1.97,2.27c-0.7,2.92,0.65,5.83,2.23,8.22c0.8,1.21,1.71,2.36,2.63,3.49c1.06,1.3,2.52,2.4,3.12,4.01c0.23,0.6-0.1,0.98-0.7,1.25c-1.67,0.74-4.66-1.21-5.8-2.29c-0.58-0.55,0.16-2.26-0.99-2.54c-1-0.22-1.54-0.37-2.58-0.2c-0.41,0.07-2.1,0.01-1.7,0.8c0.53,1.07,1.02,2.06,1.69,3.05c0.16,0.24,1.21,0.61,1.49,0.57c0.48-0.06,0.86-0.71,0.99-1.12c1.45,0.91,3.02,1.65,4.44,2.59c0.92,0.61,2.95,2.26,2.49,3.55c-0.38,1.04-1.71,1.33-2.72,1.46c-1.37,0.16-2.84-0.23-4.18-0.49c-0.56-0.11-1.14-0.3-1.47-0.79c-0.38-0.55-0.42-1.14-1.07-1.48c-1.26-0.69-3.45,1.06-4.22,1.94c-0.44,0.51,3.07,4.56,4.56,2.12c0.91-1.46,2.72-0.68,4.05-0.46c1.17,0.19,3.98,0.45,4.32,2c0.3,1.35-1.76,2.4-2.72,2.86c-1.51,0.72-3.64,2.23-5.34,2.23c-0.1-1.07-0.31-2.24-1.75-1.75c-0.97,0.33-1.66,1.58-2.21,2.34c-0.6,0.83-1.41,1.97,0.13,2.21c1.17,0.18,2.15,0.45,3.35,0.45c1.29-0.01,1.24-1.21,1.05-2.21c-0.12-0.59,3.77-1.63,4.3-1.72c0.62-0.1,1.12,0.29,1.68,0.55c1.27,0.6-0.38,1.96-0.97,2.38c-1.68,1.21-3.33,2.47-4.83,3.9c-1.47,1.4-2.82,2.99-3.89,4.71c-1,1.62-2.2,3.74-2.17,5.69c-0.81-1.19-0.51-2.95-0.58-4.31c-0.09-1.71-0.11-3.42-0.21-5.12c-0.1-1.75,0.19-3.45,0.17-5.2c-0.01-1.7-0.11-3.35,0.03-5.05c0.28-3.52,0.07-7.08,0.34-10.6c0.13-1.69,0.16-3.35,0.14-5.04c-0.02-1.91,0.21-3.81,0.19-5.71c-0.87,0.51-1.32,1.56-1.81,2.39c-0.72,1.23-1.52,2.41-2.27,3.63c-1.73,2.79-3.59,5.51-5.35,8.28c-1.77,2.79-3.53,5.6-5.34,8.38c-0.84,1.28-1.69,2.56-2.52,3.85c-0.72,1.11-1.72,2.3-2.12,3.58c-0.06,0.19,0.31,0.67,0.38,0.84c0.27,0.65,0.11,1.59,0.07,2.28c-0.1,1.74-0.11,3.48-0.35,5.21c-0.1,0.7-0.27,0.54-0.98,0.57c-1.52,0.06-3.05,0-4.57,0.01c0.26-0.48,0.5-0.97,0.99-1.26c-0.02,1.42,1.79,0.54,1.48-0.58c-0.12-0.4-0.28-0.8-0.67-1c-0.8-0.42-5.09,7.19-5.69,8.15c-1.03,1.63-2.08,3.26-3.14,4.88c-0.84,1.29-2.33,2.87-2.56,4.43c1.41-0.41,1.83,1.79,2.3,2.67c0.81,1.51,1.78,2.72,3.36,3.43c3.23,1.45,7.34,1.55,10.34-0.57c0.99-0.69,1.76-1.58,2.4-2.6c0.55-0.85,0.41-2.2,1.29-2.84c0.46-0.34,0.98-0.27,1.48-0.11c0.61,0.19,0.64,1.01,0.78,1.53c0.42,1.58-1.64,2.33-2.58,3.14c-1.36,1.18-2.3,2.75-3.03,4.38c-1.04,2.3-1.06,5-0.88,7.48c0.21,2.86,1.25,5.07,2.55,7.57c-1.84-0.47-3.51-3.01-4-4.73c-0.55-1.93-0.83-3.99-0.54-5.99c0.09-0.59,1.45-4.75,0.81-4.75c-1.39,0.02-2.72,0.35-4.13,0.29c-1.5-0.05-2.82-0.71-4.3-0.71c0.17,2.19,0.98,4.23,0.77,6.45c-0.2,2.13-0.74,4.3-1.84,6.15c-0.94,1.56-2.29,2.78-3.64,3.98c-1.35,1.19-3.22,3.23-5.08,3.53c0.5-0.85,1.49-1.21,2.18-1.87c0.82-0.77,1.64-1.53,2.41-2.36c1.6-1.74,2.78-3.85,3.47-6.11c1.21-3.94,0.93-8.88-1.91-12.13c-0.81-0.92-2.67-2.3-2.8-3.58c-0.05-0.53,0.03-0.98,0.12-1.5c-1.18,0.7-1.83,2.43-2.55,3.54c-1.18,1.8-2.33,3.62-3.48,5.43c-2.35,3.7-4.77,7.36-7.16,11.03c-0.99,1.52-2.17,3.03-2.81,4.75c-0.66,1.79-1.34,3.49-2.42,5.08c-0.98,1.43-2.59,2.23-3.53,3.67c-0.95,1.48-2.14,3.05-2.78,4.69c-0.17,0.47-0.06,0.25,0.28,0.5c0.94,0.69,2.06,1.24,3.14,1.7c0.78,0.33,1.97,0.66,2.44,1.43c0.54,0.87,0.1,2.29-0.12,3.28c-0.11,0.48-0.63,0.74-0.88,1.13c-0.32,0.51-0.46,1.1-0.54,1.69c-0.29,2.35,2.23,3.7,3.96,4.6c0.87,0.45,1.84,1,2.86,0.8c1.18-0.22,2.4-0.58,3.59-0.23c1.95,0.57,0.92,4.39,1.12,5.81c0.35,2.51,2.07,3.61,3.67,5.41c0.32,0.38,0.02,1.73-0.02,2.2c-0.1,1.38,0.19,2.63,0.49,3.96c0.45,1.96-1.1,4.42-1.92,6.15c-0.47,0.99-0.98,2-1.71,2.83c-0.73,0.82-1.71,1.37-2.46,2.17c-0.84,0.9-1.4,2.08-2.12,3.07c-0.27,0.38-1.94,1.36-1.81,1.76c0.25,0.69,1.18,0.66,1.77,0.65c0.87-0.01,1.48,0.27,2.28,0.56c0.54,0.2,1.16-0.53,1.59-0.75c0.72-0.37,1.47,0.15,2.2-0.09c0.86-0.28,1.99-0.77,2.37-1.66c0.33-0.77-0.07-2.21-0.19-3.03c-0.12-0.85-0.91-1.53-1.69-1.8c0.44-0.39,1.27-1.05,1.89-0.82c0.89,0.32,2.06,0.49,2.67,1.23c0.56,0.67,1.03,1.54,0.53,2.38c-0.48,0.81-1.12,1.66-1.14,2.63c-0.02,0.86,0.05,1.93,0.97,2.34c0.93,0.41,1.71,0.18,2.14-0.83c0.74-1.69-0.45-3.57,0.45-5.25c-0.38,0.06-0.68,0.31-0.99,0.51c-0.32-0.94-0.74-1.9-1.28-2.74c1.61-0.34,3.12,0.16,4.75,0.2c-0.62,0.77-1.72,0.88-2.23,1.77c1.86-0.65,3.11-0.82,5-0.3c-0.97,0.51-4.09,1.75-4.11,3.1c0,0.82,0.33,2.03,0.84,2.71c0.29,0.4,0.59,0.74,1.09,0.86c0.39,0.09,0.98-0.12,1.02,0.46c0.05,0.88,0.48,1.97,1.4,2.2c0.96,0.23,1.83,0.51,2.82,0.55c0.75,0.03,1.79-0.85,2.44-1.18C461.07,663.97,461.19,662.78,461.16,662.05M456.42,663.85c-0.76,0.18-1.58,0.24-1.79-0.67c-0.13-0.57,0.46-1.59,0.76-2.07c-1.11-0.09-2.12,0.54-3.25,0.54c-0.01-0.78-0.97-2.13-0.58-2.78c0.26-0.45,0.93-0.47,1.31-0.77c0.41-0.32,0.71-0.9,1.25-1.03c0.83-0.2,1.55,0.66,2.07,1.16c0.38,0.36,1.43,0.77,1.43,1.37c0.01,0.57-0.42,0.78-0.99,0.76c0.02,0.97,0.77,1.75,0.78,2.74c0.63-0.84,0.81-1.97,1.37-2.87c0.52-0.83-0.01-1.93,0.78-2.6c0.43-0.36,1.15-0.48,1.67-0.24c0.44,0.2,0.3,0.73,0.63,0.92c0.16,0.08,0.6-0.21,0.83-0.11c0.85,0.35,0.86,0.79,0.5,1.6c-0.25,0.56-0.34,1.47-1.02,1.55c-0.77,0.09-1.29-0.38-2.04-0.52c0.1,0.64,0.63,1.58,0.39,2.19c-0.4,0.99-1.03,0.8-1.86,0.33c-0.2,0.66-0.25,1.07-0.96,1.17C457.07,664.59,456.58,664.64,456.42,663.85M476.37,658.89c-0.78,0.14-1.46,0.64-2.24,0.77c0.19-1.04-1.52-1.99-0.97-2.77c0.8-1.13,1.55-1.49,2.92-1.5c-0.19,0.71-0.67,1.34-0.98,2.01c1.24,0.19,1.9,0.8,2.27,1.97c0.3-0.3,0.37-0.59,0.75-0.33c0.26,0.17,0.44,0.52,0.51,0.82c0.25-0.6,0.42-1.22,0.67-1.82c0.14-0.34,0.81-0.87,0.74-1.24c-0.08-0.4,0-0.81,0.04-1.21c-0.51,0.01-1,0.21-1.01-0.49s-0.5-0.5-1.01-0.49c0.2-0.68,0.96-1.09,1.64-0.79c0.35,0.15,0.56,0.53,0.84,0.76c0.33,0.27,0.79,0.35,1.19,0.47c0.28,0.09-0.07,1.76,0.07,2.06c0.23,0.49-0.42,0.65-0.54,1.09c-0.16,0.6,0.38,1.26-0.02,1.83c-0.55,0.76-1.07,2.83-2.3,2.2c-0.51-0.26-1.79-0.57-2.09-1C476.37,660.48,476.39,659.8,476.37,658.89M469.41,662.22c-0.29-0.54-0.41-1.39-0.38-2c0.02-0.3,0.23-0.6,0.33-0.88c0.1-0.3-0.56-0.44-0.74-0.61C470.64,657.66,471.71,661.88,469.41,662.22M447.41,662.2c-0.41-0.21-0.2-0.95-0.13-1.29c0.16-0.74,0.19-1.52-0.15-2.21c1-0.52,1.87,0.1,1.96,1.23C449.16,660.89,448.33,662.04,447.41,662.2M437.4,661.55c-0.23-0.69-0.82-1.27-1.52-1.48c0.33,0.55-0.36,0.69-0.74,0.76c0.7-1.24,1.74-2.28,2.46-3.53c0.28,0.39,0.26,0.77,0.26,1.25c0.41-0.3,0.62-0.77,1.01-1.11c0.54-0.47,1.01-0.06,1.48,0.34c0.12-0.54,0.23-1.08,0.35-1.62c0.1-0.46,1.08-0.38,1.37-0.4c0.46-0.03,1.19-0.12,1.35,0.54c0.09,0.36-0.36,1.15-0.56,1.46c0.8,0.17,0.78,0.69,0.79,1.39c0,0.35-1.3,0.82-1.65,0.92c-0.64,0.19-1.3,0.56-1.76-0.16c-0.34-0.54-0.61-1.21-0.63-1.87C439.04,659.18,439.24,661.49,437.4,661.55M456.13,659.35c-0.42,0.01-0.83,0.01-1.25,0.01C455.1,659.94,456.02,660.08,456.13,659.35M482.6,656.58c-0.07-1.1-0.73-1.84-0.98-2.84c-0.1-0.47-0.03-0.34,0.34-0.51c0.33-0.16,0.73-0.33,1.1-0.4c0,0.33,0.01,0.67,0.01,1c0.45-0.08,1.05-0.35,1.5-0.27c-0.1,0.54-0.52,0.65-0.99,0.76c0.14,0.74,0.86,1.87,1.52,2.23c0-0.42-0.01-0.83-0.01-1.25c0.75,0.13,1.32,0.66,1.82,1.2c0.68,0.73,1.58,1.24,2.21,2.01c-0.94,0.5-1.57-0.04-2.46-0.26c-0.69-0.17-1.32,0.38-1.96,0.18C483.72,658.13,483.81,656.58,482.6,656.58M477.1,656.89c0.24-0.44,0.48-0.85,0.99-1.01c0.12,0.36,0.29,0.78,0.14,1.16C478.02,657.61,477.55,657.1,477.1,656.89M457.11,657.34c-0.35-1.08-1.24-1.77-1.78-2.73c1.83-0.28,3.44-0.04,5.25-0.06c-0.57,0.69-1.38,1.14-1.99,1.8C458.06,656.94,457.93,657.34,457.11,657.34M468.61,656.97c-1.04-1.21-2.13-1.97-3.53-2.71c0.52-0.53,1.36-0.53,2.04-0.66c1.07-0.19,2.08-0.71,3.2-0.64c-0.09,0.8-0.54,1.5-0.85,2.22C469.2,655.76,469.16,656.55,468.61,656.97M438.59,656.29c0.05-0.5,0.56-0.68,0.99-0.76C439.49,656.07,439.07,656.18,438.59,656.29M477.32,653.63c0.01-0.66,0.32-1.73,1-2.01c0.69-0.29,1.72-0.13,2.39,0.1c0.4,0.14,0.42,0.44,0.12,0.78c-0.38,0.44-1.07,0.28-1.57,0.39C478.58,653.04,478,653.47,477.32,653.63M459.07,653.82c-0.02-1.24,0.94-1.73,1.45-2.71c0.36-0.69-1.79-1.9-0.67-2.47c1.31-0.67,3.04-0.31,4.46-0.58c1.61-0.3,3.21-0.66,4.82-0.98c1.67-0.34,3.24-0.87,4.84-1.44c1.51-0.54,3.12-1.53,4.75-1.53c-0.41,0.51-0.93,0.88-1.34,1.41c-0.61,0.77-0.58,1.02-0.14,1.9c0.19,0.37,1.28,0.87,1.7,0.83c0.41-0.04,0.82-0.07,1.22-0.14c0.28-0.05,0.32,0.7,0.35,0.9c0.14,0.82-7.33,2.41-7.71,2.41c0.25-1.36,1.91-2.02,2.34-3.33c0.46-1.41-2.85-1.15-3.58-0.87c-0.81,0.31-3.2,1.34-3.15,2.49c0.04,0.98,2.91,1.37,3.64,1.72c-1.18,1.2-3.97,1.26-5.51,1.55C464.08,653.42,461.58,653.79,459.07,653.82M476.32,653.39c-0.69-0.44-1.28-0.87-2.01-1.23c0.49-0.72,1.97-0.77,2.74-0.78C476.86,652,476.74,652.89,476.32,653.39M441.07,653.76c0.18-0.91,1.59-1.7,2.24-0.77C442.65,653.33,441.82,653.74,441.07,653.76M456.07,653.36C456.58,652.3,456.85,653.51,456.07,653.36M454.56,653.12c-0.03-0.14,0.01-0.93,0.31-0.7c0.25,0.19,0.3,0.4,0.44,0.69C455.06,653.12,454.81,653.12,454.56,653.12M453.06,653.14c0.03-0.58,0.01-1.37,0.73-1.51c0,0.41,0.01,0.82,0.01,1.23C453.82,653.31,453.47,653.13,453.06,653.14M451.81,653.15c-0.39-0.72-0.47-4.51,0.63-4.51C452.9,648.64,452.41,652.73,451.81,653.15M450.06,652.92c-0.02-0.53,0.15-1.14,0.74-1.26C450.86,652.23,450.77,653.04,450.06,652.92M465.05,652.26c0.35-0.27,0.65-0.44,0.84-0.84c0.3-0.63,0.33-0.65,0.06-1.28c-0.23-0.54-0.31-0.77-0.78-1.11c-0.36-0.26-1.08-0.01-1.5,0.04c-0.66,0.07-1.29,1.4-0.89,1.89C463.29,651.59,464.02,652.84,465.05,652.26M448.56,652.68c0.02-0.69,0.12-1.5,0.98-1.51c0.07,0.32-0.08,0.7-0.15,1.01C449.27,652.8,449.18,652.68,448.56,652.68M447.06,652.45c0-1.3,0.16-2.71,0.35-4c0.05-0.34,0.04-1.06,0.59-0.76c0.75,0.4-0.15,3.39-0.18,4.03C447.8,652.51,447.83,652.44,447.06,652.45M457.05,652.09c0.61-0.58,2.17-1.46,2.99-1.03C459.44,651.77,457.96,652.08,457.05,652.09M446.05,652.21c-0.61-0.43-0.46-1.49,0.23-1.75C446.29,650.98,446.43,651.77,446.05,652.21M464.28,650.02c-0.2,0.59,0.24,1.25,0.52,1.75c-0.43,0.02-0.96-0.11-1.04-0.57C463.67,650.66,463.62,650.15,464.28,650.02M455.55,651.86c-0.38-0.22-0.67-0.55-0.76-0.99C455.29,650.86,455.78,651.36,455.55,651.86M444.3,651.98c-0.01-0.62-0.31-1.36,0.49-1.26C444.76,651.2,444.72,651.68,444.3,651.98M465.05,651.51c0.17-0.55,0.06-1.23-0.52-1.49C465.52,649.22,466.26,651.8,465.05,651.51M469.28,649.72c0.24-0.43,0.56-0.77,0.99-1.01c0.12,0.86,1.24,1.4,2.02,1.48C471.59,650.83,469.93,650.18,469.28,649.72M453.53,649.88c-0.01-0.61-0.31-1.35,0.49-1.26C453.99,649.11,453.95,649.58,453.53,649.88M443.53,649.99c0.14-0.55,0.62-0.94,0.73-1.51c0.57,0.18,1.13,0.63,1.26,1.24C444.85,649.89,444.23,649.94,443.53,649.99M473.52,648.92c-0.12-0.52-0.57-0.77-1.01-0.99c0.39-0.17,1.02-0.06,1.41,0.1C474.62,648.31,474.21,649.04,473.52,648.92M450.52,649.16c0-0.23,0-0.46-0.01-0.69c0-0.08,0.44-0.12,0.5-0.06C451.42,648.77,450.9,649.23,450.52,649.16M449.02,648.93c0-0.23,0-0.46-0.01-0.69c0-0.08,0.44-0.12,0.5-0.06C449.95,648.56,449.37,648.96,449.02,648.93M446.01,648.21c0-0.25-0.02-1.67,0.74-1.01c0.17,0.14,0.01,0.77,0.01,0.96C446.76,648.26,446.09,648.21,446.01,648.21M478.51,647.62c-0.66-0.2-0.82-0.93-0.52-1.49C478.31,646.46,478.62,647.17,478.51,647.62M447.72,643.94c-0.33-0.16-0.75-0.15-1.05-0.31c-0.63-0.34-0.67-0.61-0.95-1.27c-0.29-0.69-0.36-1.92,0.15-2.53c0.23-0.27,0.7-0.53,0.94-0.2c0.24,0.34,0.6,0.54,0.96,0.72c1.02,0.51,1.8,0.56,2.92,0.31c-0.24,0.71-1.32,0.51-1.89,0.46c-0.97-0.07-1.61-0.28-2.36-0.92c0.47,0.79,1.64,1.7,2.58,1.56c1.17-0.18,2.63-0.15,2.92-1.62c-0.29-0.04-0.5,0.13-0.75,0.26c0.07-0.44,0.25-0.77,0.49-1.14c0.12-0.18,0.92-0.89,1.02-0.52c0.38,1.32-0.12,2.86-0.51,4.12c-0.17,0.55-0.38,0.56-0.92,0.76c-0.82,0.3-1.91,0.09-2.79,0.31c0.69,0.35,2.12,0.54,2.83,0.23c1.28-0.56,1.56-2,1.88-3.21c0.43-1.6-0.15-2.95-0.4-4.54c-0.25-1.61-0.14-3.23-0.44-4.84c-0.16-0.83-0.32-2.3,0.87-2.39c0.76-0.05,1.54-0.06,2.26,0.25c0.81,0.34,1.33,1.04,2.27,0.92c0.73-0.1,0.03,0.95-0.19,1.12c-0.33,0.27-0.78,0.38-1.19,0.38c0.82,0.49,1.49-0.18,2.07-0.7c0.6-0.54,1.35-0.97,2.16-1.09c-0.6-0.22-1.28,0.14-1.85-0.18c-0.79-0.45-1.54-0.7-2.44-0.85c-1.25-0.21-2.56-0.72-2.74-2.15c0.53,0.12,2.21-0.13,2.01,0.73c0.31-0.2,0.62-0.45,0.99-0.51c-0.02,0.16,0.04,0.34,0.01,0.5c0.77-0.38,1.43-0.52,2,0.23c0.19-0.69,0.72-1.61,1.48-1.77c0.06,0.34,0.16,0.67,0.26,1c0.98-1.28,2.05-2.02,3.67-2.04c1.59-0.02,2.81,0.8,2.83,2.47c-0.58-0.1-1.5-1.42-2.05-1.28c-0.44,0.1-0.88,0.19-1.32,0.29c-0.81,0.18-1.85,1.78-2.12,2.55c0.76-0.95,1.4-1.95,2.68-1.99c0.66-0.02,1.32-0.23,1.8,0.35c0.41,0.5,0.51,0.96,0.52,1.59c2.59-0.57,0.61-4.22-1.09-4.66c-1.03-0.27-2.04-0.21-3.09-0.1c-0.86,0.09-2.44,0.71-3.23,0.33c-0.97-0.47-1.39-1.31-2.54-1.48c-1.21-0.18-2.44-0.09-3.47,0.61c-0.96,0.65-0.96,2.01-2.29,2.1c-1.07,0.07-1.86-1.46-2.5-2.1c-0.94-0.97-2.51,0.1-3.39-0.66c-0.58-0.49-1.01-0.71-1.13-1.48c-0.08-0.59-0.14-1.23-0.13-1.83c0.74,0.18,1.18,0.9,1.81,1.27c0.89,0.52,2.2,0.65,3.21,0.68c-1.05-0.92-3.81-0.84-4.03-2.46c0.25,0,0.5-0.01,0.75-0.01c-0.17-0.68-0.23-1.3-0.27-2c0.69,0.21,0.93,1.04,1.41,1.5c0.61,0.58,1.21,1.37,2.12,1.46c-0.8-0.63-1.93-1.2-2.27-2.22c0.81-0.07,1.49,0.38,2.26,0.48c-0.83-0.73-1.91-1.2-2.39-2.23c-0.42-0.89-0.04-2.53,1.09-2.75c-0.12,0.76-0.58,1.22-0.16,1.95c0.46,0.81,0.65,1.53,1.7,1.53c-0.17-0.31-0.49-0.52-0.76-0.74c0.29-0.24,0.69-0.18,1-0.01c-0.36-0.58-1.17-1.03-1.27-1.74c0.25,0,0.5-0.01,0.75-0.01c-0.12-0.41-0.24-0.82-0.26-1.25c1.59,0.38,1.8,2.71,2.04,3.98c0.31-0.7,0.1-1.74,0.73-2.26c0.33,0.46,0.43,0.95,0.52,1.5c0.22-0.44,0.08-1.98,0.48-2.26c0.22-0.16,0.63,0.04,0.75,0.24c0.03-0.92,0.05-2.76,1.22-3.01c0.02,0.99,0.51,2.05,0.78,2.99c0.51-0.99-0.3-2.2,0.22-3.25c1.04,0.6,1.53,2.4,1.54,3.48c0.59-1.1-0.36-2.49-0.43-3.62c-0.06-0.91-0.14-2.65,0.86-3.13c0.01,1.1,0.18,1.97,0.53,2.99c0.32-0.66,0.02-1.53,0.23-2.25c0.45,0.33,0.61,0.99,0.77,1.49c0.35-0.7,0.41-1.4,0.84-2.09c0.45-0.73,1-1.11,1.88-0.68c-0.38,0.37-0.92,0.97-0.99,1.51c0.59-0.1,1.17,0.29,1.51,0.73c0.1-0.37,0.32-0.87,0.24-1.25c0.99,0.62,0.3,2.17,0.03,3c0.21-0.16,0.57-0.38,0.85-0.42c0.48-0.06,0.52,0.03,0.54,0.53c0.02,0.77-0.63,1.43-0.86,2.13c0.69-0.5,0.89-1.04,1.26-1.77c0.17-0.33,0.17-0.32,0.2-0.65c0.01-0.16,0.51-0.18,0.51,0.02c0.01,0.55,0.01,1.09,0.02,1.64c0.84-1.08,0.42-2.02,0.21-3.25c0.98,0.21,1.36,1.38,1.27,2.28c-0.11,1.02-0.46,1.76-0.72,2.71c1.51,0.46,2.24-1.32,2.22-2.52c-0.31,0.46-0.48,1.01-0.73,1.51c-0.4-0.5-0.13-1.62,0.09-2.16c0.46-1.15,1.47,1.19,1.6,1.6c0.54,1.78-1.41,3.53-1.39,5.3c0.37-0.58,0.68-1.25,1.28-1.64c0.71-0.46,1.52-0.86,1.94-1.64c-0.47,0.23-0.96,0.49-1.49,0.52c0.01-0.36,0.22-3.14,1.07-3.01c0.44,0.06,1.21,0,1.48,0.44c0.32,0.51,0.77,1,0.86,1.6c0.18,1.13,0.05,2.19-0.63,3.14c-0.66,0.9-1.67,1.61-2.21,2.57c0.73-0.35,1.42-0.88,2.24-1.02c-0.04,0.58-0.01,1.17-0.12,1.75c-0.11,0.51-0.4,0.97-0.34,1.51c1.06-0.7,1.22-2.37,1.21-3.51c0.95,0.23,0.89,1.51,0.99,2.25c0.29,2.08-1.77,3.73-2.54,5.48c-0.9,2.04,0.38,4.21,1.09,6.09c0.25,0.65-0.14,0.7-0.57,1.07c-0.46,0.4-0.74,1.01-0.86,1.6c-0.22,1.1,0.09,2.49,1.35,2.75c-0.21-0.79-0.67-1.34-0.77-2.19c-0.09-0.75,1.41-1.27,1.98-1.22c2.19,0.18,2.37,2.41,2.07,4.12c-0.29,1.77-1,3.47-1.33,5.25c-0.07,0.38-0.77,0.29-0.96,0.05c-0.73-0.9,0.5-2.51,0.28-3.53c-0.61,1.01-0.98,2.12-1.09,3.3c-0.03,0.34,0.02,0.79-0.09,1.12c-0.12,0.38-0.79,0.06-0.85-0.21c-0.18-0.79-0.19-1.47-0.1-2.28c0.18-1.85,2.09-2.94,2.46-4.68c0.07-0.39-0.1-0.96-0.14-1.35c-0.07-0.73-0.79-1.12-1.49-0.88c0.86,0.71,1.47,1.4,0.93,2.56c-0.77,1.62-2.37,2.95-2.94,4.62c-0.46,1.36-0.36,3.1-2.03,3.48c-3.83,0.87-7.75,1.73-11.71,1.45c-1.86-0.13-3.72-0.1-5.56-0.43c-1.19-0.21-3.32-0.36-4.07-1.5C445.61,644.88,446.89,644.16,447.72,643.94M444.75,647.14c0.02-0.04-0.17-0.13,0.08-0.09C444.86,647.18,444.77,647.1,444.75,647.14M469.73,645.21c-0.01-0.5-0.01-1-0.02-1.5C470.16,644.02,470.64,645.41,469.73,645.21M469.18,640.22c-0.82,0.71-1.31,1.58-2.29,2.17c-1.23,0.73-2.59,0.76-3.95,1.07c-1.32,0.3-2.74,0.6-4.05,0.09c-0.59-0.22-1.2-0.43-1.7-0.83c-0.44-0.36-0.88-0.83-1.49-0.86c-0.03,1.54,1.41,2.21,2.73,2.55c1.33,0.33,2.62,0.14,3.92-0.22c1.47-0.4,3.01-0.52,4.46-1C467.8,642.85,469.66,641.46,469.18,640.22M444.97,644.72c-1.55-0.88-1.81-3.27-1.05-4.74c0.66,0.42,0.49,1.37,0.65,2.02C444.78,642.85,445.66,643.84,444.97,644.72M474.28,625.41c-1.4-0.53-2.71,2.22-2.72,3.28c-0.55-0.58,0.05-2.5,0.45-3.06c1.47-2.08,4.64-1.02,6.15-2.92c0.63-0.79,1.25-2.4,0.07-3.09c0.01,0.97,0.01,1.81-0.59,2.6c-0.52,0.69-1.55,0.92-2.37,0.93c0.4-0.54,1.17-0.63,1.56-1.22c0.23-0.35,0.98-1.38,0.66-1.8c-0.06-0.08-1.06-0.37-1.25-0.49c-0.18,0.56-0.31,0.99-0.67,1.46c-0.29,0.39-1.04,0.39-1.08-0.19c-0.09-1.23,0.59-2.24,1.79-2.56c0.9-0.24,2.27,0.27,2.77,1.05c0.25,0.4,0.6,0.96,0.62,1.45c0.05,1.38-0.82,2.71-1.84,3.52c-1.2,0.95-2.22,2.05-3.15,3.27c-1.32,1.74-0.12,4.46,1.02,5.93c0.22,0.29,0.45,0.56,0.7,0.83c-0.99-1.85-2.24-4.06-1.32-6.18c0.86-1.98,2.72-3.78,4.96-4.11c-0.33-0.58-0.14-1.27,0-1.87c0.22-0.88,0.21-1.74,0.2-2.64c1.04-0.01,1.04,1.24,1.27,1.99c0.82-1.04,0.02-2.44-1.03-2.99c0.71-0.55,1.71,0.56,1.94,1.17c0.35,0.96,0.35,1.88-0.14,2.81c0.62-0.37,1.1-0.95,1.74-1.27c0.13,1.32-1.23,2.41-2.31,2.87c-1.1,0.47-2.71,0.53-3.66,1.29c-1.12,0.89-2.15,1.58-2.52,3c-0.42,1.57,0.1,2.39,0.36,3.91c0.47-0.88,0.02-2.2,0.27-3.19c0.42-1.69,1.74-2.76,3.28-3.43c0.99-0.43,2.09-0.63,3.05-1.11c0.85-0.42,1.47-1.18,2.31-1.61c-0.59,3.71-7.89,1.86-7.94,6.34c1.25-1.74,2.46-2.4,4.47-3.09c1.81-0.63,3.11-1.57,4.1-3.21c0.26-0.44,0.76-0.41,0.63,0.2c0.74-1.4-0.77-2.51-1.04-3.74c1.43,0.45,1.84,1.84,1.89,3.19c0.05,1.16-1.56,2.68-2.48,3.15c-1.43,0.72-3.05,1.01-4.45,1.77c-1.17,0.63-1.88,1.76-2.35,2.97c0.24-0.13,0.58-0.17,0.49-0.5c0.48,0.58,0.46,1.53,0.51,2.23c0.09,1.25,0.43,2.46,0.64,3.7c0.36,2.03,0.11,4.46-1.32,6.06c-0.25,0.29-0.69,1.04-1.08,1.1c-0.53,0.07-1.38,0.42-1.75-0.12c-1.3-1.86,0.96-4.72,0.29-6.84c-0.79-2.51-2.73-4.63-3.05-7.29C472.15,627.64,472.89,625.85,474.28,625.41M478.95,641.87c0.17-1.05,0.66-2.01,0.83-3.07c0.16-1.04,0.23-2.12,0.3-3.17c0.11-1.55,0.06-3.39,1.73-4.13c1.96-0.87,4.31-0.99,6.16-2.1c0.72-0.43,1.49-1.18,1.91-1.91c0.32-0.56,0.47-1.51,1.16-1.75c0.02,2.11-0.76,3.44-2.49,4.64c-1.57,1.09-3.45,0.99-5.06,1.89c-1.81,1.02-2.71,2.62-2.94,4.65C480.38,638.54,480.47,640.84,478.95,641.87M466.66,638.74c0.42,0,0.83-0.01,1.25-0.01c-0.23-1.03-1.58-1.49-2.03-2.48c-0.25,0.44-0.15,0.94-0.55,1.32c-0.53,0.51-0.56-0.4-1.05-0.57c-0.83-0.29-2.19-0.41-2.89,0.3c0.69,0.34,1.36,1.18,1.27,1.99c-0.95-0.79-1.58-0.64-2.76-0.47c0.07-0.55,0.41-1.14,0.99-1.26c-0.27-0.27-0.64-0.39-1-0.49c0.26-0.37,0.42-0.81,0.49-1.26c-0.56,0.1-2.55,1.92-2.42,2.54c0.24,1.14,0.1,3.47,1.73,3.46c-0.17-0.49-0.44-0.97-0.52-1.49c1.14,0.67,2.12,0.84,3.38,0.29c1.1-0.48,2.14-1.43,3.36-1.61c-1.09,0.9-2.51,1.51-3.22,2.79c1.04-0.15,1.71-0.89,2.53-1.46C465.74,639.96,466.7,639.5,466.66,638.74M476.69,641.14c0.37-1.16,0.87-2.19,0.91-3.43c0.04-1.05-0.39-2.46-0.98-3.32c-0.52,0.82,0.35,2.16,0.5,2.99c0.25,1.32-0.7,2.51-0.93,3.76C476.35,641.14,476.54,641.17,476.69,641.14M460.43,640.06c0.25-0.41,0.46-0.78,1-0.51C461.2,639.87,460.82,640.05,460.43,640.06M447.92,639.19c0.47,0.1,0.9,0.2,1.01,0.74C448.42,639.87,447.85,639.86,447.92,639.19M449.92,639.42c-0.36-0.42-0.66-0.63-1.13-0.92c-0.21-0.13-0.88,0.14-1.13,0.19C447.67,636.17,451.49,638.39,449.92,639.42M444.92,639.22c-0.56-0.49-0.79-1.24-1.27-1.79c-0.4-0.47-0.91-0.82-1.41-1.18c-1.11-0.76-2.09-1.81-2.13-3.23c0.59,0.17,0.89,0.91,1.22,1.36c0.49,0.66,1.24,1.11,1.86,1.64C443.95,636.65,445.76,638.06,444.92,639.22M463.41,638.78c-0.35-0.48-0.53-1.15-0.52-1.75c0.75-0.01,1.04,0.05,1.29,0.78C464.34,638.27,463.86,638.7,463.41,638.78M452.15,637.9c-0.66-0.46-1.19-0.92-1.77-1.48c0.13,0.49,0.3,0.99,0.27,1.5c-0.66-0.29-1.26-0.69-2.01-0.75c-0.67-0.05-1.45,0.41-1.99,0.79c0.08-0.94-0.59-1.74-0.94-2.55c-0.39-0.89-0.53-1.71-0.36-2.67c0.15-0.83,1.02-4.29,2.21-4.29c0,0.42,0.01,0.83,0.01,1.25c0.43-0.3,0.27-0.84,0.84-0.63c0.58,0.22,1.12,1.06,1.64,1.43c0.67,0.47,1.31,0.95,1.76,1.65c0.5,0.78,0.28,1.82,0.31,2.69C452.15,635.78,452.8,637.05,452.15,637.9M444.89,636.22c-1.15-0.9-3.48-1.5-3.53-3.21C442.18,633.29,445.61,635.09,444.89,636.22M479.36,633.36c-0.4-0.76,0.3-2.4,0.8-3.01c1.06-1.27,3-1.54,4.48-2.06c2.02-0.7,3.15-1.84,4.38-3.53c1.21,0.74-0.15,2.34-0.77,2.95c-1.28,1.27-3.38,1.52-4.99,2.17c-0.84,0.34-1.66,0.79-2.37,1.36C480.18,631.81,480.06,632.81,479.36,633.36M443.61,633.74c-0.6-0.4-1.46-0.55-1.88-1.18c-0.43-0.65-0.5-1.56-0.94-2.27c-0.94-1.55-0.27-4.01-1.71-5.29c-0.36-0.33-1.08-0.45-1.54-0.63c-0.83-0.32-1.79,0.44-2.51,0.75c-1.05,0.46-2.34,0.52-3.46,0.39c-0.89-0.09-2.01-1.03-2.32-1.82c-0.3-0.75-0.67-2.3,0.49-2.54c0.02,1.21,1.15,2.9,2.41,3.14c0.46,0.08,0.91,0.07,1.38,0.07c-0.69-0.33-1.44-0.49-2.15-0.84c-0.21-0.1-0.93-1.94-0.85-2.17c0.06-0.2,0.21-1.06,0.39-1.12c0.33-0.12,0.97-0.52,1.31-0.49c0.99,0.1,0.97,1.16,1.02,1.87c0.15-0.13,0.32-0.25,0.44-0.4c0.29-0.34,0.25-0.41,0.61-0.13c0.31,0.24,0.45,0.89,0.46,1.26c-1.33,0.01-2.75-0.12-3.02-1.72c-0.41,0.86-0.07,1.6,0.66,2.1c1.97,1.33,4.23-0.56,6.44-0.33c0.42,0.05,0.84,0.7,1.12,0.99c1.21,1.22,0.78,3.26,1.05,4.8c0.18,1.03,0.79,1.81,1.43,2.6c0.54,0.65,1.48,1.06,1.66,1.96c-0.59-0.11-1.17-0.54-1.76-0.73C442.74,632.36,443.96,633.12,443.61,633.74M472.85,632.93c-0.64-0.81-1.26-1.92-1.28-2.99C472.08,630.45,473.11,632.23,472.85,632.93M479.08,630.86c0.02-0.7,0.44-2.24,1.11-2.64c1.45-0.85,3.21-0.76,4.66-1.68c0.65-0.41,1.24-0.86,1.72-1.47c0.38-0.49,0.79-1.15,1.43-1.3c-0.1,1.07-0.13,2-1.02,2.74c-1.22,1.02-2.78,1.2-4.25,1.66C481.17,628.66,480.39,629.98,479.08,630.86M444.08,630.98c-1.32-0.34-2.08-1.6-2.43-2.83c-0.51-1.79-0.8-3.79-0.91-5.64c0.71,0.38,1.14,1.22,1.27,1.99c0.29-0.55,0.24-1.15,0.23-1.75c0.94,0.18,1.29,1.27,1.77,1.98c0.18-0.26,0.23-0.58,0.49-0.75c0.41,0.79-0.08,1.6-0.45,2.29c-0.44,0.85-0.51,1.77-0.5,2.71c-0.25-0.12-0.47-0.28-0.75-0.24C443.02,629.47,444.22,630.24,444.08,630.98M444.82,630.22c-0.43-0.25-0.86-0.49-1.01-0.99C444.28,629.23,445.18,629.65,444.82,630.22M460.82,629.8c0.22-0.22,0.55-0.41,0.49-0.75C461.01,629.2,460.76,629.45,460.82,629.8M445.28,626.47c0.15-1.23,2.62-1.07,3.38-0.73c0.81,0.36,1.54,0.83,2.32,1.23c0.51,0.26,0.79,0.1,0.86,0.69c0.05,0.46,0.15,0.62-0.17,0.94c-0.29,0.28-0.47,0.44-0.87,0.57C448.46,629.92,447.36,626.8,445.28,626.47M445.07,629.47c-0.27-0.29-1.06-1-0.84-1.49c0.26-0.57,1.07-0.66,1.57-0.52C445.37,628.07,445.75,629,445.07,629.47M452.8,628.14c-0.19-0.31-0.21-0.65-0.26-1C452.83,627.43,453.09,627.76,452.8,628.14M434.04,626.83c0.49-0.76,1.78-1.32,2.64-1.43c0.91-0.12,2.56-0.13,2.61,1.12c-0.87,0.01-1.75-0.02-2.61,0.16C435.84,626.86,434.86,627.27,434.04,626.83M452.53,625.64c-0.03-1.68,1.33-1.98,2.73-2.21c1.33-0.21,2.86,0.22,3.27,1.64C456.49,625.4,454.61,625.62,452.53,625.64M495.96,619.44c-0.15,0.94-1.39,1.73-2.23,2.02c0.99,0.37,1.93-0.63,2.74-1.03c-0.4,1.45-1.69,2.52-3.22,2.53c0.46,0.24,0.99,0.23,1.5,0.23c-0.26,0.83-0.97,1.12-1.69,1.48c-1.17,0.57-2.41-0.96-3.36-1.44c-0.83-0.42-2.32-1.37-2.13-2.51c0.04-0.23,0.02-0.94,0.33-0.97c1.29-0.14,2.89,0.57,4.16,0.79C493.73,620.81,494.49,619.87,495.96,619.44M445.26,623.97c0.73-0.01,2.25-0.56,2.51,0.47C447.01,624.39,445.49,625.08,445.26,623.97M450.99,622.16c-0.01-0.5-0.01-1-0.02-1.5C450.64,621.04,450.68,621.77,450.99,622.16M454.24,621.87c0.62-0.54,1.22-0.76,1.99-1.02c-0.38-0.33-0.95-0.27-1.41-0.25c-0.79,0.03-1.55-0.28-2.34-0.21c0.08,0.45,0.34,1.04,0.27,1.5c0.26-0.2,0.35-0.47,0.49-0.75C453.56,621.41,453.88,621.63,454.24,621.87M451.99,621.9c0.04-0.42-0.06-0.88-0.26-1.25C451.48,621.01,451.68,621.61,451.99,621.9M438.97,620.03c0.14,0.72-0.97,0.93-1.54,1.13c-0.32,0.12-2.3,0.67-2.19-0.19c0.11-0.87,0.08-1.32,1.08-1.41C437.31,619.46,438.1,619.45,438.97,620.03M461.72,620.29c0.01-0.63,0.31-1.17,0.48-1.75C461.61,618.83,461.27,619.75,461.72,620.29M471.38,611.44c-1.77,0.01-3-0.46-4.47-1.43c-0.62-0.41-1.18-0.96-1.82-1.31c-0.66-0.36-1.46-0.4-2.06-0.86c-0.56-0.43-0.91-0.94-1.59-1.23c-0.85-0.36-1.78-0.35-2.68-0.41c-1.63-0.12-3.61-0.46-4.88,0.83c-0.53,0.54-0.79,0.68-1.52,0.86c-0.86,0.22-1.54,0.88-2.24,1.38c-1.43,1.03-2.73,2.35-3.95,3.62c-1.14,1.18-1.51,2.68-1.98,4.2c-0.26,0.86-1.07,1.35-1.49,2.12c-0.25,0.46-0.26,1.29-0.86,1.27c-0.24-0.01-0.46-0.12-0.68-0.21c-0.88-0.41-0.25-2.44-0.01-3.08c0.52-1.42,1.55-2.45,2.62-3.47c1.26-1.2,2.51-2.43,3.81-3.59c2.54-2.28,5.06-4.71,8.02-6.46c1.29-0.76,2.4-0.39,3.68,0.17c1.64,0.72,3.23,1.56,4.83,2.37c1.38,0.7,2.77,1.39,4.09,2.19C469.44,609.15,470.94,609.94,471.38,611.44M489.96,619.25c0.57-0.87,3.03-0.58,3.26,0.46C492.14,619.7,490.95,619.76,489.96,619.25M460.47,620.06c0.24-0.89,0.62-1.84,0.72-2.76C460.47,617.66,459.87,619.42,460.47,620.06M455.21,619.61c-0.43-0.3-1.42-0.54-1.25,0.26C454.39,619.87,454.83,619.82,455.21,619.61M496.7,618.68c-0.23-0.66-0.67-1.3-0.77-1.99C497.15,616.69,497.8,618.93,496.7,618.68M492.95,618.22c0.5-0.89,1.76-0.82,2,0.23C494.26,618.66,493.56,618.64,492.95,618.22M432.7,618.85c0.44-0.83,1.17-0.79,1.99-0.77C434.7,619.21,433.48,619.37,432.7,618.85M473.16,614.42c0.45,0.26,2.24,2.07,1.87,2.76c-0.12,0.23-0.39,1.04-0.64,1.12c-1.23,0.35-1.44-0.24-1.52-1.36C472.82,616.06,472.95,615.28,473.16,614.42M448.7,618.68c-0.08-0.08-0.17-0.17-0.25-0.25C448.53,618.51,448.62,618.59,448.7,618.68M430.45,618.87c-0.02-0.65,0.28-1.38,0.98-1.51C431.49,618.06,431.27,618.84,430.45,618.87M459.95,618.06c0.52-1.02,0.45-2.43,0.21-3.5c-0.39,0.43-0.13,1.04-0.24,1.54c-0.16,0.65-0.38,1.29-0.47,1.96C459.6,618.07,459.8,618.1,459.95,618.06M458.94,617.82c0.34-1.08,0.46-2.11,0.26-3.23c-0.2-1.13,0.04-1.92,0.17-3.03c-0.87,0.51-0.79,1.76-0.68,2.61c0.07,0.54,0.18,1.07,0.15,1.62c-0.04,0.7-0.4,1.34-0.41,2.03C458.6,617.83,458.79,617.86,458.94,617.82M441.91,614.25c0.35-1.5,0.45-2.96,1.52-4.17c1.04-1.16,2.4-2.1,3.61-3.06c2.62-2.09,5.53-4.6,8.67-5.86c1.57-0.63,3.27,0.02,4.74,0.62c1.61,0.66,3.26,1.24,4.84,1.98c3.25,1.53,6.3,3.49,9.19,5.61c0.82,0.59,1.03,2.24,1.36,3.14c0.59,1.58,1.58,3.01,2.1,4.6c-1.2-0.01-2-0.08-2.69-1.16c-1.98-3.05-4.06-6.77-7.42-8.53c-1.66-0.87-3.36-1.65-5.01-2.52c-1.79-0.94-3.56-2.04-5.54-2.5c-1.33-0.31-2.67,0.93-3.61,1.69c-1.46,1.18-2.94,2.31-4.39,3.5c-1.45,1.19-2.91,2.42-4.13,3.85C444.3,612.44,443.28,613.97,441.91,614.25M470.15,613.71c0.15,0.5,0.27,0.93,0.36,1.45c0.07,0.44-0.48,1.1-0.58,1.55C471.37,616.5,471.87,613.72,470.15,613.71M449.65,613.67c-0.17-0.48-0.42-0.99-0.46-1.5c-0.02-0.29,0.15-1.01,0.45-1.13c0.36-0.15,0.8,1.56,0.87,1.79C450.75,613.59,450.31,613.56,449.65,613.67M525.64,612.38c-0.51-2.25-0.3-4.63-0.32-6.92c-0.03-2.39-0.05-4.78-0.08-7.17c-0.06-4.58-0.32-9.21-0.15-13.78c0.17-4.64-0.07-9.29-0.14-13.93c-0.03-2.27-0.05-4.53-0.07-6.8c-0.01-1.2-0.03-2.4-0.04-3.6c-0.01-0.84-0.27-1.76,0.02-2.58c0.22-0.62,0.21-0.99,0.82-1.23c0.59-0.23,0.98-0.25,1.62-0.25c0.71-0.01,1-0.24,1,0.51c0.06,4.21,0.39,8.4,0.4,12.61c0.01,4.27-0.24,8.51-0.24,12.78c0,4.65,0.2,9.3,0.22,13.95c0.01,2.22,0.33,4.42,0.35,6.63c0.02,2.06,0.58,4.94-0.59,6.76C527.73,610.44,526.82,611.77,525.64,612.38M524.63,611.64c-0.86-0.71-1.41-1.69-1.91-2.67c-0.5-0.98-0.19-2.08-0.41-3.12c-0.48-2.28-0.32-4.66-0.31-6.98c0.01-4.93-0.36-9.82-0.41-14.74c-0.06-5.24,0.01-10.5-0.3-15.73c-0.13-2.21-0.16-4.33-0.19-6.53c-0.01-1.21-0.65-4.62,0.49-5.5c0.33-0.26,1.01-0.27,1.39-0.2c0.76,0.15,0.92,0.28,1.13,1.03c0.27,0.95,0.22,1.95,0.21,2.93c0,1.12,0.17,2.22,0.21,3.33c0.1,2.3-0.02,4.62-0.05,6.92c-0.06,4.78,0.04,9.57,0.09,14.35c0.05,4.83,0.1,9.67,0.15,14.5c0.03,2.41,0.05,4.82,0.08,7.23c0.01,0.92-0.01,1.85,0.07,2.77C524.94,609.95,525.12,611,524.63,611.64M451.14,612.41c-0.76-1.17-0.95-2.71,0.46-3.51c0.06,0.71-0.21,1.38-0.13,2.09C451.51,611.46,451.58,612.09,451.14,612.41M451.88,611.4c0.07-0.93,0.22-2.17,1.48-2.02C453.26,610.13,452.7,611.26,451.88,611.4M455.1,608.61c0-0.63,0.32-1.37,0.98-1.51C455.95,607.7,455.9,608.75,455.1,608.61M453.85,608.63c0-0.48,0.21-1.13,0.74-1.26C454.65,607.94,454.56,608.75,453.85,608.63M457.95,594.83c1.28-0.28,3.37,1.09,4.42,1.71c2.12,1.23,4.32,2.3,6.45,3.53c1.45,0.83,4.08,1.9,4.78,3.51c0.23,0.53,1.06,4.1,0.3,3.97c-1.46-0.24-2.75-1.28-4-2.01c-1.46-0.85-2.92-1.68-4.44-2.44c-1.36-0.68-2.76-1.31-4.21-1.77c-1.17-0.37-2.66-0.76-3.25-1.95c-0.26-0.52-0.15-1.21-0.08-1.77C458.02,596.68,457.96,595.76,457.95,594.83M483.12,563.32c0.74,0.52,1.24,0.97,2.08,1.34c0.86,0.38,1.52,0.38,2.43,0.1c3.02-0.9,5.28-3.44,7.34-5.7c0.85-0.93,1.42-1.86,2.01-2.97c0.44-0.83,1.02-1.99,2.04-2.19c0.2,2.04-1.58,4.18-2.61,5.78c-0.77,1.18-1.58,2.34-2.4,3.49c-0.32,0.45-1,1.66-1.67,1.58c-0.65-0.08-2.04-0.44-2.41,0.41c-0.66,1.5-0.7,3.46-0.74,5.08c0.81-0.18,5.47-2.25,4.63-3.61c-0.29-0.47-0.67-0.54-0.58-1.08c0.17-1.09,6.29-9.4,7.57-8.18c0.49,0.48-0.84,2.27-1.1,2.7c-1.02,1.67-1.78,3.54-2.68,5.28c-0.96,1.86-1.89,4.16-2.37,6.21c-0.52,2.23,0.05,4.47,0.71,6.6c1.33,4.29,1.7,8.6,1.65,13.09c-0.02,2.17,0.02,4.35-0.39,6.48c-0.17,0.92-1.14,4.92,0.16,5.35c0.53,0.17,0.89-0.73,1.01-1.09c0.51-1.54,0.37-3.75,0.25-5.34c-0.13-1.82-0.16-3.73-0.05-5.55c0.11-1.89-0.08-3.9-0.38-5.77c-0.3-1.83-0.97-3.98-0.72-5.84c0.08-0.59,0.48-0.86,0.8-0.24c0.96,1.88,2.09,3.77,2.67,5.81c0.65,2.28,0.92,4.56,1.17,6.91c0.26,2.46,0.47,4.86,0.4,7.33c-0.06,2.25-0.16,4.82-1.48,6.74c-0.42,0.61-0.52,0.62-1.25,0.81c-0.47,0.12-1.05,0.01-1.53-0.07c-2.19-0.38-3.9-2.13-5.01-3.98c-3.34-5.62-5.42-11.9-6.79-18.26C484.39,577.6,483.23,570.41,483.12,563.32M444.58,607.22c-0.01-0.39-0.22-3.8,0.47-3.26C445.52,604.36,445.01,606.93,444.58,607.22M501.57,606.13c0.34-2.29,0.95-4.46,0.93-6.79c-0.02-2.57-0.13-5.13-0.4-7.69c-0.25-2.38-0.64-4.88-1.42-7.14c-0.82-2.36-2.13-4.53-2.92-6.9c-0.3-0.92,0.23-1.81,0.48-2.7c2.08,1.11,2.53,4.82,3.09,6.86c0.49,1.78,0.81,3.59,1.25,5.38c0.42,1.75,0.53,3.35,0.71,5.14c0.31,3.01,0.26,6.11,0.22,9.14C503.49,602.71,503.5,606.11,501.57,606.13M446.07,606.21c-0.01-1.17-0.02-2.33-0.04-3.5C446.83,603.2,446.83,605.68,446.07,606.21M447.56,605.19c-0.01-0.59-0.14-1.16-0.17-1.75c-0.03-0.59,0.18-1.16,0.13-1.75C448.32,602.19,448.32,604.66,447.56,605.19M449.05,604.18c-0.01-1.17-0.02-2.33-0.04-3.5C449.81,601.17,449.81,603.65,449.05,604.18M504.04,603.35c-0.01-1.62,0.23-4.47,1.83-5.44c0.28-0.16,0.45-0.27,0.76-0.32c0.19-0.03,0.67,1.59,0.71,1.67c0.35,0.92,0.58,1.93,0.06,2.85c-0.26,0.46-0.51,0.8-1.07,0.83C505.54,602.99,504.8,603.31,504.04,603.35M450.54,603.16c0-0.15-0.16-4.36,0.46-3.76C451.49,599.89,451,602.84,450.54,603.16M452.03,602.15c0.09-0.65-0.54-3.5,0.38-3.5C452.66,598.64,452.58,601.76,452.03,602.15M508.52,600.55c0.06-1.81,0.34-3.61,0.41-5.42c0.08-1.92,0.01-3.85,0.02-5.77c0.01-3.67-0.05-7.34-0.57-10.98c-0.53-3.69-1.58-7.33-2.46-10.95c-0.43-1.77-0.93-3.46-1.69-5.12c-0.76-1.67-1.3-2.85-0.93-4.71c1.49,0.28,1.98,2.59,2.44,3.74c0.75,1.86,1.53,3.69,2.05,5.63c1.02,3.77,1.92,7.87,2,11.79c0.04,2.06,0.46,4.01,0.19,6.08c-0.26,1.93,0.04,3.98-0.04,5.94c-0.08,1.93-0.24,3.82-0.22,5.75C509.73,597.77,509.71,599.76,508.52,600.55M453.52,601.13c-0.01-0.84-0.01-1.68-0.02-2.53c0-0.19-0.1-1.48,0.49-0.98c0.32,0.28,0.07,1.46,0.04,1.83C453.99,599.99,454.39,601.16,453.52,601.13M455.01,600.11c0-0.15-0.16-4.36,0.46-3.76C455.96,596.84,455.48,599.78,455.01,600.11M456.5,599.6c-0.01-0.99-0.02-1.98-0.06-2.97c-0.01-0.24-0.06-1.81,0.51-1.28c0.48,0.46,0.04,3.32,0.05,3.95C457,599.69,456.92,599.61,456.5,599.6M469.37,586.46c0,0.46,0.09,1.88-0.38,2.16c-0.65,0.38-1.44,0.68-1.83,1.36c0.5-0.03,1.92-0.46,2.27-0.02c0.74,0.92,1.64,1.87,2.08,2.98c0.45,1.16-0.07,2.32-0.02,3.5c0.52-0.34,0.72-0.98,0.98-1.51c0.83,0.77,0.46,2.19,0.18,3.09c-0.24,0.77-2.63,0.11-2.82-0.29c-0.27-0.58-0.54-1.16-0.81-1.73c-0.34-0.71,2.56-3.84,0.77-3.52c-0.55,0.1-0.83,0.55-1.34,0.75c-0.52,0.21-1.18,0.03-1.67-0.2c-1.03-0.46-1.42-1.72-1.69-2.71c-0.28-1.04,0.05-2.12,0.61-3.02C466.49,586,468.13,586.69,469.37,586.46M504.23,597.35c-0.02-1.19-0.08-2.4,0.23-3.55c0.3-1.11,0.89-2.05,1.26-3.11c0.33-0.98,1.04,0.18,1.24,0.54c0.6,1.1,1.14,2.27,1.33,3.52c0.11,0.72,0.16,1.5-0.44,2c-0.56,0.47-1.21-0.44-1.37-0.93C505.91,596.52,505.19,597.36,504.23,597.35M446.43,593.2c0.67,0.38,1.15,1.25,1.27,1.99c0.45-0.91-0.38-1.95-0.09-2.9c0.28-0.93,1.15-2.21,1.77-2.96c0.43-0.52,1.4-0.42,2.01-0.43c-0.36-0.67-1.23-0.81-1.71-1.37c-0.57-0.67-0.65-1.9-0.98-2.71c-0.38-0.92-0.83-1.83-0.63-2.83c0.24-1.17-0.14-2.15-0.02-3.29c0.08-0.69,0.23-0.81,0.89-0.55c0.99,0.4,1.57,1.65,1.75,2.62c0.22,1.16-0.86,1.9-1.16,2.86c-0.22,0.71-0.12,0.86,0.63,0.81c0.7-0.05,0.88-0.2,1.57,0.1c1.03,0.45,1.14,1.72,1.28,2.73c0.13,0.89-0.07,3.44-1.11,3.86c-0.4,0.16-1.1-0.13-1.5-0.21c0,0.25,0.01,0.5,0.01,0.75c-0.61,0.01-1.18-0.3-1.75-0.48c-0.2,0.59,0.27,1.09,0.64,1.48c0.46,0.5,0.67,1.09,0.88,1.72c0.36,1.07-0.91,2.53-1.71,3.03c-0.38,0.24-1.18,0.61-1.64,0.47c-1.02-0.3-1.1-0.3-1.2-1.36C445.54,595.45,445.95,594.16,446.43,593.2M510.23,596.79c0.09-5.27,0.6-10.48,0.32-15.76c-0.29-5.45-1.84-10.76-1.9-16.22c-0.17,0.17-0.33,0.34-0.5,0.51c-0.39-1.29,0.01-3.06,0.16-4.38c0.19-1.64,0.34-3.27,0.74-4.88c0.5,0.72,0.19,1.87,0.06,2.65c-0.21,1.27-0.25,2.57-0.24,3.85c0.46-0.94,0.38-2.02,0.55-3.03c0.07-0.39-0.13-1.45,0.15-1.73c0.69-0.69,0.18,2.87,0.16,3.15c-0.17,1.77-0.25,3.59-0.32,5.37c0.29-0.57,0.97-6.26,1-6.26c0.85-0.01,0.49,2.88,0.46,3.49c0.26-0.53,0.23-1.39,0.73-1.76c0.29,0.56,0.26,1.13,0.27,1.75c0.29-0.17,0.63-0.62,0.9-0.36c1.11,1.06,2.22,2.02,3.49,2.89c1.22,0.84,2.51,1.26,3.8,1.93c0.64,0.33,0.42,1.73,0.39,2.3c-0.07,1.34,0.01,2.69,0.02,4.03c0.01,1.41,0.03,2.48-0.96,3.58c-1.05,1.18-2.21,2.27-3.16,3.53c-1.9,2.52-2.39,5.61-3.19,8.58C512.91,591,511.47,596.99,510.23,596.79M462.46,595.29c-1.03-0.69-2.78-1.44-4-1.66c-1.52-0.25-2.57,1.25-4,1.49c0.14-0.91,0.59-1.73,0.91-2.58c0.38-1.03,0.53-2.12,0.67-3.2c0.13-1.01,0.12-1.98,0.08-2.99c-0.04-1.08-0.47-2.41-0.06-3.44c0,0.48,6.28,0.33,6.28,0.48c0.02,0.98-0.45,1.93-0.46,2.93c-0.02,1.17-0.29,2.33-0.22,3.5c0.06,1.08,0.23,2.22,0.55,3.25C462.4,593.68,462.9,594.69,462.46,595.29M471.6,584.94c0.65,1.24,0.49,2.78,0.58,4.13c0.03,0.37,0.51,2.73-0.49,2.23c-1.12-0.55-1.52-2.16-1.41-3.29C470.38,586.93,470.56,585.52,471.6,584.94M505.33,583.09c1.42-0.12,2.63,3.51,2.98,4.51c0.12,0.35,0.26,2.2-0.34,2.21c-0.68,0.01-0.77-0.01-1.27-0.46c-0.22-0.2-0.49-0.72-0.57-1.02c-0.46,0.75-0.67,1.78-1.57,2.04c-1.05,0.3-0.94-1.4-0.92-2C503.68,586.44,504.49,584.78,505.33,583.09M446.66,591.2c0.02-1.88,0.12-4.28,0.94-6.01C449.41,586.06,448.87,591.15,446.66,591.2M469.36,585.96c-0.47-1.35-2.31-1.23-2.68-2.72c-0.34-1.37,0.26-2.67,1.25-3.59c0.42-0.39,1.04-0.9,1.63-0.79c0.63,0.13,1.61,0.15,1.76,0.96c0.21,1.15,0.59,2.77,0.02,3.87c-1.14-0.65-1.37-2.11-2.53-2.72C469.51,582.29,471.17,584.94,469.36,585.96M503.76,576.35c0.89,0,1.41,0.89,1.9,1.5c0.57,0.71,1.45,1.4,1.69,2.32c0.17,0.67,0.84,2.35-0.4,2.52c-0.79,0.11-1.49-0.93-1.64-1.61c-0.52,0.83-0.64,1.64-1.47,2.24c-0.84,0.61-1.25-0.89-1.25-1.52C502.6,579.87,503.49,578.22,503.76,576.35M455.73,573.35c-0.18,0.95-1.31,1.35-1.48,2.27c1.06-0.77,2.34-0.76,3.5-0.23c0.64,0.29,1.23,0.54,1.43,1.2c0.15,0.5,0.44,1.2,0.35,1.72c0.57-1.12,0.23-2.31,1.37-3.11c0.53-0.38,1.18-0.9,1.84-0.94c0.71-0.04,1.32,0.41,2.01,0.5c-0.29-0.53-0.71-0.97-1.02-1.49c0.87-0.01,1.75-0.05,2.63,0c0.58,0.04,0.7,0.14,0.83,0.7c0.09,0.41,0.15,0.93-0.17,1.29c-0.6,0.65-1.08,1.62-2.06,1.4c-0.98-0.21-1.39-0.9-2.2-1.38c-0.28,0.96,0.13,1.86,0.12,2.84c-0.01,1.08-1.7,1.39-2.52,1.43c-0.9,0.05-2.15,0.46-2.9-0.36c-0.37-0.4-0.36-1.05-0.34-1.55c0.02-0.56-0.23-1.02-0.78-0.81c-0.43,0.17-0.67,0.61-1.06,0.86c-0.56,0.36-0.98,0.06-1.56-0.13c-0.92-0.31-1.52-0.93-1.86-1.87c-0.19-0.52-0.32-1.01-0.14-1.55c0.2-0.62,0.54-0.71,1.1-0.93C453.8,572.85,454.8,572.7,455.73,573.35M496.28,578.43c-1.06-0.94-1.16-2.84-1.25-4.15c-0.15-2.32,0.67-4.31,1.56-6.4c0.75-1.77,1.67-3.47,2.42-5.23c0.5-1.17,1.13-3.23,2.57-3.52c-0.41,1.74-1.53,3.24-2.29,4.83c-0.79,1.66-1.48,3.36-2.21,5.04c-0.63,1.44-1.43,3.06-1.16,4.68c0.15,0.92,0.13,1.81,0.44,2.71C496.57,577.03,496.86,577.87,496.28,578.43M502.2,570.37c1.51,0.24,3.96,2.04,4.46,3.55c0.29,0.9,1.06,2.39-0.45,2.41c-0.61,0.01-0.91-0.03-1.37-0.5c-0.18-0.19-0.42-0.88-0.6-0.98c-0.57-0.31-1.32,1.98-1.6,2.37c-0.74,1.05-1.74,0.21-1.85-0.83C500.6,574.43,501.62,572.2,502.2,570.37M496.76,575.92c-0.48-2.63-0.08-5.13,1.03-7.54c0.56-1.21,1.18-2.38,1.71-3.6c0.37-0.86,0.77-1.92,1.63-2.41c-0.16,2.72-1.67,4.57-2.5,7.03C498.32,570.29,498.19,576.17,496.76,575.92M456.73,573.09c1.67-0.02,3.33-0.04,5-0.05C461.73,574.99,456.75,575.19,456.73,573.09M499.22,572.65c0.03-0.65,1.64-9.13,3.01-8.58c1.23,0.5,2.73,2.41,2.7,3.77c-0.02,0.72-0.28,1.77-1.11,1.89c-0.68,0.09-1.5-0.64-2.13-0.85c-0.13,0.77-0.14,1.78-0.41,2.5C500.9,572.38,500.21,572.63,499.22,572.65M449.97,572.41c0.03-1.46,1.67-1.61,2.8-1.61c1.85,0.01,3.71,0.04,5.56,0.02c0.95-0.01,12.51-0.21,12.39,0.53c-0.11,0.7-0.13,1.05-0.95,1.08c-3.22,0.11-6.41-0.16-9.63-0.12C456.75,572.34,453.37,572.23,449.97,572.41M451.93,569.14c0.24-1.16,1.17-2.1,1.73-3.12c0.36-0.66,0.91-1.9,1.78-2c2.19-0.25,4.54,0.03,6.75,0.01c2.31-0.02,4.63-0.1,6.94-0.07c1.45,0.02,1.51,0.87,1.52,2.11c0.01,0.76,0.32,2.57-0.52,2.88c-1.27,0.46-2.67,0.36-4,0.31c-1.52-0.05-3.05,0.01-4.57,0.02C458.35,569.31,455.14,569.11,451.93,569.14M519.82,566.31c-1.65,0.58-2.82-1.28-3.25-2.53c-0.27-0.77-1.08-3.63,0.34-3.66c0.84-0.02,1.52,0.02,2.33,0.23c0.69,0.19,0.91,1.05,1.04,1.7C520.49,563.01,520.79,565.68,519.82,566.31M529.16,565.39c-0.29-2.18,2.39-0.41,0.39,0.01M510.9,565.28c-0.01-0.58-0.01-1.17-0.02-1.75C510.53,563.92,510.54,564.89,510.9,565.28M529.13,563.58c-0.01-1.09-0.66-4.24,0.48-4.97c0.41-0.27,1.15-0.63,1.61-0.31c0.57,0.4,0.66,0.87,0.92,1.52C532.63,561,530.24,563.55,529.13,563.58M494.96,547.44c0.15,1.13-1.13,1.68-1.8,2.34c-1.13,1.14-2.38,2.17-3.46,3.36c-1.03,1.14-1.93,2.39-2.69,3.72c-0.6,1.04-1.59,2.46-1.39,3.73c0.18,1.14,0.96,2.16,2.25,1.73c2.39-0.79,4.18-2.95,5.73-4.82c0.77-0.93,1.48-1.9,2.05-2.96c0.38-0.71,0.93-1.85,1.87-1.88c0.02,2.57-2.42,4.99-4.02,6.77c-1.73,1.91-4.13,4.41-6.89,4.46c-1.42,0.03-2.13-0.35-2.43-1.77c-0.57-2.67,1.63-6.29,3.21-8.3C489.34,551.31,491.86,548.46,494.96,547.44M507.37,562.56c-0.02-2.27,0.78-4.53,0.68-6.76c0.71,0.76,0.17,2.29,0.03,3.17C507.91,560.09,508.11,561.6,507.37,562.56M470.62,562.95c-2.08,0.02-4.15,0.13-6.23,0.06c-2.34-0.08-4.69,0.25-7.02,0.07c-0.42-0.03-1-0.06-1.01-0.58c-0.01-0.54,0.25-1,0.67-1.36c1.57-1.32,3.76-0.78,5.68-0.72c2.36,0.08,4.74-0.07,7.09,0.08C470.82,560.57,470.61,562.27,470.62,562.95M511.32,558.02c0.81,0.56,1.43,1.4,2.31,1.85c0.37,0.19,1.89,0.83,1.17,1.4c-0.57,0.46-0.75,0.27-1.47,0.08c-0.54-0.15-0.73-0.43-1.12-0.85C511.76,560.02,511.33,558.69,511.32,558.02M493.99,550.45c0.01,0.57,0.01,1.15,0.02,1.72c0,0.25,1.89-0.34,1.78,0.22c-0.19,0.92-0.82,1.84-1.29,2.64c-1.34,2.34-4.44,6.71-7.57,6.26c-0.31-0.04-0.58-0.85-0.5-1.15c0.58-2.21,1.73-4.1,3.19-5.85C490.76,552.94,492.2,550.95,493.99,550.45M506.58,559.32c-0.02-1.98,0.48-4.33,0.94-6.26c0.57,0.89-0.1,2.31-0.18,3.25C507.25,557.25,507.48,558.69,506.58,559.32M493.76,552.71c-1.21-0.28-2.94,1.74-3.69,2.51c-0.8,0.82-2.4,2.7-1.88,3.96c0.42,1.03,2.84-1.46,3.14-1.8C492.2,556.43,494.08,554.12,493.76,552.71M519.58,558.93c-0.98-0.86-2.27-1.75-2.28-3.22C518.33,555.72,520.97,558.01,519.58,558.93M505.58,558.58c0.3-1.56,0.44-3.15,0.7-4.72c0.24-1.43,0.48-3.09,0.46-4.54c0.69,0.73,0.04,2.88,0,3.76c-0.07,1.52-0.27,3.14-0.51,4.64C506.12,558.29,506.24,558.67,505.58,558.58M534.45,557.78c0.32-0.59,0.26-0.57-0.11-1.13c-0.23-0.35-0.52-0.68-0.91-0.23C532.78,557.15,533.56,558.4,534.45,557.78M471.37,539.19c-0.06,3.48-0.23,7-0.41,10.48c-0.1,1.92-0.2,3.8-0.18,5.73c0.01,0.92,0.37,2.73-0.84,3.07c-0.77,0.22-2.5,0.69-2.87-0.3c-0.59-1.57-0.41-3.71-0.38-5.37c0.04-2.02,0.01-4.04,0.14-6.05c0.1-1.56,0.95-2.67,1.82-3.91C469.49,541.65,470.05,539.93,471.37,539.19M465.57,558.5c-0.01-0.94-0.28-1.87-0.18-2.81c0.1-0.92,0.13-1.84,0.12-2.77c-0.01-1.09-0.02-2.18-0.04-3.27c-0.01-0.75-0.19-1.85,0.47-2.4c0.87,1.67,0.1,3.72,0.07,5.48C465.98,554.23,466.58,557.19,465.57,558.5M502.07,557.62c-0.4-0.62-0.58-1.34-0.87-2.01c-0.34-0.78-0.92-1.49-1.45-2.15c-1.17-1.47-2.62-1.79-4.26-2.49c-0.65-0.28-0.44-0.47-0.3-1.1c0.52-2.27,1.29-4.46,1.79-6.74c0.52-2.38,0.94-4.78,1.45-7.16c0.48-2.25,0.77-4.39,0.88-6.69c0.06-1.19,0.05-2.34-0.01-3.53c-0.04-0.75-0.07-1.68,0.58-2.18c1.29-0.98,2.99-1.54,4.42-2.29c0.81-0.42,1.66-0.76,2.45-1.22c0.68-0.4,1.36-0.92,2.16-1.03c0.16,0.76-0.35,2.24-0.93,2.72c-1.84,1.54-4.02,2.37-6.02,3.64c-1.19,0.76-0.68,3.1-0.73,4.26c-0.1,2.22-0.47,4.4-0.78,6.59c-0.29,2.08-0.58,4.15-1.02,6.2c-0.44,2.08-1.27,4.08-1.69,6.15c-0.15,0.7,0.89,1.42,1.39,1.74c0.94,0.6,1.79,1.2,2.61,1.96c0.36,0.32,0.72,1.37,0.59,1.84c-0.19,0.63-0.59,1.33-0.53,1.99c1.23-1.39,1.97-3.12,2.68-4.81c0.81-1.94,1.01-4.11,1.96-5.98c1.13,1.33-0.86,4.81-1.34,6.1c-0.46,1.19-0.98,2.35-1.45,3.54C503.3,555.87,502.98,557.09,502.07,557.62M462.26,552.29c-0.27,0.41-0.8,1.95-0.25,2.32c0.18,0.13,0.61,0.55,0.82,0.46c0.6-0.26,0.38-1.18,0.29-1.64C463.03,552.94,462.67,552.56,462.26,552.29M511.28,554.27c0.02-0.68,0.11-1.33,0.23-2c0.53,0.14,1.07,0.32,0.88,0.89C512.23,553.62,511.68,554.04,511.28,554.27M510.18,544.78c1.53,0.3,2.83,2.64,3.36,3.96c0.26,0.63,0.58,1.73,0.08,2.33c-0.68,0.82-2-0.17-2.63-0.55c-0.18,0.57-0.5,2.47-1.22,2.59c-1.01,0.17-1.05-2.01-1.15-2.63C508.36,548.82,509.24,546.15,510.18,544.78M520.42,543.67c-0.79-0.15-2.22-0.61-2.75,0.28c0.61-0.01,1.36-0.03,1.89,0.32c0.68,0.44,0.99,0.85,1.16,1.65c0.09,0.46,0.6,1.59,0.24,2c-0.44,0.43-1.06,0.07-1.5,0.76c1.4-0.02,3.09,0.95,4.33,0.01c0.63-0.47,1.1-1.15,1.81-1.51c0.82-0.42,1.69-0.51,2.59-0.59c-0.36,0.62-1.07,1-1.3,1.7c-0.21,0.62,0.05,1.12-0.57,1.55c-0.5,0.34-0.73,0.46-1.34,0.29c0,0.36,0.21,1.21-0.18,1.42c-1.26,0.66-3.47,0.68-4.85,0.55c-1.08-0.11-2.05,0.04-2.52-1.15c-1.14-2.9-1.64-6.36-1.76-9.46c-0.04-1.13,0.14-2.18,1.28-2.66c1.09-0.46,2.19-0.48,3.35-0.43C521.98,538.47,520.81,542.92,520.42,543.67M502.76,552.36c-0.77-1-1.77-1.83-2.81-2.55c-0.81-0.56-1.59-1.11-1.23-2.21c1.1-3.44,1.65-6.87,2.25-10.42c0.33-1.94,0.54-3.91,0.67-5.88c0.06-0.9,0.09-1.8,0.1-2.7c0.01-0.66-0.14-1.57,0.23-2.17c0.51-0.82,1.99-1.22,2.8-1.63c0.53-0.27,2.54-1.63,3.1-1.08c0.24,0.23-0.21,1.23-0.33,1.54c-0.66,1.64-2.98,1.4-3.61,2.96c-0.3,0.75-0.18,1.72-0.22,2.5c-0.07,1.2-0.11,2.39-0.2,3.59c-0.17,2.38-0.65,4.72-1.09,7.07c-0.22,1.2-0.44,2.39-0.7,3.58c-0.16,0.77-1.07,2.79-0.53,3.51c0.61,0.83,2.41,1.58,2.29,2.74C503.45,551.79,503.48,552.49,502.76,552.36M526.25,551.61c0.35-1.8,2.33-1.29,3-0.03C528.22,551.52,527.32,551.82,526.25,551.61M507.25,527.56c0.04,4.44-1.1,8.82-0.73,13.26c0.17,2.04-0.71,3.94-1.23,5.87c-0.17,0.63-0.46,2.94-1.51,2.68c-1.17-0.29-1.89-1.22-1.68-2.43c0.56-3.28,1.23-6.54,1.73-9.83c0.24-1.57,0.48-3.14,0.63-4.72c0.08-0.9-0.34-2.9,0.34-3.6C505.45,528.13,506.23,527.48,507.25,527.56M527.22,548.6c0.07-0.56,0.73-0.94,1.24-1.01C528.35,548.17,527.77,548.52,527.22,548.6M523.44,545.64c0.63-0.54,1.6-1.47,2.41-1.66c0.9-0.2,2.82-0.35,2.59,1.1c0.99-0.89,2.37-0.69,3.47-0.15c0.54,0.27,1.45,0.46,1.59,1.11c0.16,0.77,0.21,1.44,0.22,2.23c-1.01-0.02-1.87-0.05-2.78-0.52c-0.88-0.45-1.24-1.4-2.19-1.84c-0.86-0.39-1.85,0.01-2.72,0.15C525.18,546.2,524.2,546.04,523.44,545.64M522.47,548.4c0.1-0.62-0.26-1.35-0.27-2c0.4-0.03,2.11,0.14,1.94,0.68C523.93,547.77,523.2,548.38,522.47,548.4M523.18,544.15c0.35,0.05,0.69,0.06,1,0.24C523.84,544.7,523.34,544.55,523.18,544.15M524.67,543.38c0.58-0.9,0.84-1.76,1.84-2.28c0.35-0.18,0.93-0.3,1.31-0.21c0.75,0.17,0.86,0.34,1.33,0.94c0.06-0.29,0.24-0.5,0.37-0.75c0.28-0.58,2.38,0.27,2.83,0.42c0.74,0.25,0.91,0.85,1.21,1.5c0.22,0.46-0.64,1.23-1.09,1.19c-1.36-0.12-2.64-0.64-3.96-0.96C527.24,542.9,525.94,543.33,524.67,543.38M510.6,537.03c0.86,1.36,1.98,2.86,2.23,4.48c0.11,0.71,0.1,2.02-0.56,2.44c-0.77,0.51-1.7-0.66-2.58-0.24c-0.76,0.37-1.34,1.12-1.99,0.14c-0.4-0.59-0.41-1.8-0.21-2.5C507.9,539.91,508.86,537.33,510.6,537.03M521.67,543.91c-0.26-0.66-0.47-2.28,0.47-2.5C522.15,542.1,522.34,543.45,521.67,543.91M522.42,543.65c0-0.25-0.01-0.5-0.01-0.75C522.62,543.13,522.61,543.42,522.42,543.65M523.66,542.39c0.25-0.41,0.46-0.78,0.99-0.51C524.43,542.2,524.05,542.38,523.66,542.39M526.64,540.36c-0.49-0.88-0.02-1.36,0.62-1.93c0.68-0.61,1.54-0.01,2.11,0.4c-0.04-1.13,1.05-1.29,1.93-0.94c0.63,0.25,0.98,0.6,1.48,1.06c0.17,0.16,0.1,1.18-0.06,1.35c-0.56,0.61-1.81,0.22-2.48,0.07C529.04,540.09,527.83,539.96,526.64,540.36M525.61,538.12c-0.73,0.96-1.78,1.07-1.72,2.52c-1.09,0.05-1.43-0.96-0.96-1.82C523.48,537.84,524.57,537.87,525.61,538.12M524.88,539.88c0.04-0.36,0.39-0.58,0.75-0.51C525.46,539.66,525.17,539.75,524.88,539.88M521.88,539.91c-0.3-0.53-0.25-1.35,0.23-1.75C522.4,538.68,522.39,539.53,521.88,539.91M523.83,535.14c0.79-0.01,1.71-0.15,2.5-0.03c0.41,0.07,0.65,0.19,0.86,0.52c0.34,0.54,0.24,0.64,0.05,1.25c-0.13,0.41-1.95,0.24-2.31,0.22C523.81,537.08,523.86,535.95,523.83,535.14M517.61,537.45c-0.65-1.2-0.02-2.62-0.27-3.89c-0.12-0.71-0.77,0.67-0.76,0.66c-0.43-0.47-0.49-2.29-0.49-2.9c-0.01-1.04,0.64-2.36,0.43-3.34c0.67,0.72,0,1.9,1.03,2.49c-0.01-0.67-0.01-1.33-0.02-2c0.71,0.46,0.77,1.94,0.78,2.68c0-0.1-0.87,0.23-0.98,0.34c-0.45,0.42-0.68,0.59-0.18,1.1c0.51,0.51,1.21,2.35,2.04,1.51c0.37-0.37,0.42-0.89,0.87-1.21c0.37-0.26,0.82-0.41,1.27-0.46c-0.01,1.52-0.14,3-0.2,4.5c-1.04-0.2-0.77-1.94-0.78-2.7c0-0.15-0.5-0.02-0.49,0.45c0.01,0.76-0.21,1.51-0.23,2.27c-0.79-0.11-0.71-1.16-0.77-1.74C517.97,535.71,518.39,536.93,517.61,537.45M510.58,535.28c-0.85-0.15-0.84,1.4-1.78,1.26c-0.5-0.08-1.03,0.02-1.13-0.55c-0.08-0.44-0.12-0.89-0.07-1.33c0.21-1.65,1.38-3.89,2.78-4.88c0.53-0.38,0.6,0,0.91,0.5c0.75,1.18,1.44,2.48,1.75,3.85c0.17,0.77,0.18,2.09-0.69,2.51C511.5,537.04,510.75,535.96,510.58,535.28M523.09,536.15c0-0.25,0-0.5-0.01-0.75C523.29,535.62,523.28,535.91,523.09,536.15M533.08,535.29c0.69-0.95,0.88-2.62,0.96-3.76c-0.44,0.09-0.85,0.31-1.24,0.51c0.43-1.07,0.91-2.21,1.19-3.33c0.37-1.49-0.98-1.85-1.26-3.17c-0.37,0.32-0.48,0.82-0.73,1.22c-0.25,0.4-0.86,0.69-0.64,1.25c0.3,0.79,0.55,1.61,0.76,2.43c0.4,1.54-0.76,0.26-1.37,1.34c-0.13,0.21,0.21,0.67,0.3,0.89c0.24,0.54,1.34-0.04,1.22,0.71c-0.05,0.32-0.13,0.61-0.09,0.93C532.24,534.84,532.47,535.41,533.08,535.29M522.58,534.65c0.07-0.36,0.36-0.71,0.74-0.76C523.43,534.45,523.13,534.75,522.58,534.65M524.32,534.13c-0.02-0.5,0.23-1.13,0.76-1.3c0.44-0.14,1.36-0.09,1.65,0.33c0.08,0.12,0.46,0.64,0.28,0.72C526.17,534.25,525.21,534.13,524.32,534.13M522.05,532.41c0.02-0.78,0.1-1.49,0.23-2.25C522.74,530.63,523.06,532.64,522.05,532.41M524.03,530.64c-0.01-0.61-0.03-4.87,1.28-3.74c0.63,0.55,0.85,1.47,0.61,2.28c-0.18,0.6-0.17,0.83-0.69,1.14C524.8,530.58,524.54,530.6,524.03,530.64M511.26,528.02c-0.68,0.14-1.52,1.28-2.29,0.93c-0.88-0.39-0.86-1.61-0.6-2.4c0.55-1.74,1.8-3.18,3.13-4.36c0.43-0.38,0.44-0.04,0.63,0.27c0.94,1.53,2.2,4.95,1.07,6.61C512.57,529.99,511.37,528.72,511.26,528.02M502.18,520.86c-0.46,0.83-1.49-0.81-1.71-1.14c-0.8-1.23-1.59-2.48-2.54-3.6c-0.8-0.94-3.88-4.13-5.13-2.36c-0.32,0.45-0.8,0.92-0.87,1.46c-0.25,2.22,1.78,5.04,3.15,6.59c1.2,1.35,4.35,3.48,3.41,5.59c-0.87-0.25-1.44-1.06-2-1.71c-0.73-0.84-1.49-1.63-2.18-2.52c-1.42-1.83-2.61-3.83-3.34-6.04c-0.62-1.86-0.57-4.82,1.86-5.25c2.27-0.41,4.34,1.27,5.78,2.82C500.12,516.33,501.78,518.63,502.18,520.86M520.74,526.17c0-0.29,0.1-3.37-0.53-2.74c-0.28,0.27-0.02,1.3,0.01,1.64C520.26,525.57,519.98,526.23,520.74,526.17M519.22,524.69c-0.01-0.66,0.14-2.12-0.77-2.24C518.59,523.13,518.6,524.23,519.22,524.69M525.47,524.12c0.21-0.86,0.82-1.26,1.45-1.82c0.19-0.17,0.12-0.9-0.16-0.99c-0.48-0.17-0.8-0.19-1.32-0.19c0.08-1.27,0.4-2.47,0.71-3.7c0.09-0.34,0.28-0.85,0.25-1.21c-0.03-0.35-0.7,0.03-0.77,0.16c-0.23-0.66-0.52-1.28-0.52-2c-0.56,0.4-0.45,1.41-0.48,2.01c-0.43-0.01-0.84-0.13-1.25-0.24c0,1.17,1.92,4,0.67,4.78c-0.34,0.21-0.8,0.4-0.98,0.79C522.81,522.24,524.84,524.14,525.47,524.12M497.96,524.16c-0.44-0.71-1.09-1.25-1.65-1.84c-0.77-0.8-1.37-1.78-1.98-2.7c-0.75-1.14-2.65-3.72-1.58-5.16c0.38-0.51,1.03-0.41,1.58-0.41c1.42,0.02,2.74,1.81,3.54,2.77c0.84,1,2.63,3,2.45,4.44c-0.09,0.59-0.77,0.89-1.17,1.23c-0.51,0.42-0.43,0.92-0.43,1.52C498.72,524.3,498.22,524.16,497.96,524.16M512.18,520.51c-0.58,0.3-1.26,1.23-1.97,1.16c-0.92-0.1-0.78-1.58-0.47-2.16c0.41-0.77,2.45-4.35,3.49-3.52c0.53,0.43,0.66,1.27,0.84,1.89c0.27,0.92,0.84,1.9,0.61,2.89c-0.19,0.85-0.19,2-1.29,1.73C512.46,522.28,512.4,521.34,512.18,520.51M498.7,522.15c-0.15-1.96-1.08-4.03-2.49-5.41c-0.31-0.31-1.26-0.84-1.7-0.57c-0.67,0.41-0.04,1.58,0.13,2.04C495.19,519.73,497.11,521.72,498.7,522.15M513.61,513.99c-0.79-0.18-0.83,1.16-1.67,1.22c-0.55,0.04-0.83,0.15-1.13-0.35c-0.19-0.32-0.13-0.81-0.04-1.15c0.31-1.13,0.96-2.19,1.76-3.04c0.09-0.09,1.96-1.64,2.04-1.42c0.46,1.33,0.99,2.66,1.18,4.07c0.1,0.7,0.15,2.03-0.72,2.29C513.99,515.93,513.82,514.78,513.61,513.99M534.37,515.03c0-0.5-0.01-1-0.02-1.5C533.75,513.83,533.34,515.23,534.37,515.03M509.62,514.54c-0.88-1.61-1.18-3.77-1.57-5.55c-0.44-2.02-0.83-4.07-0.83-6.14c0-1.9,0.28-3.86,0.77-5.69c0.44-1.6,1.07-3.64,2.29-4.82c0.5-0.49,0.65,0.48,0.74,0.78c0.19,0.63-0.31,1.5-0.5,2.09c-0.34,1.07-0.69,2.13-0.95,3.22c-0.5,2.09-0.65,4.28-0.55,6.43c0.08,1.93,0.6,3.9,1,5.79C510.27,511.79,510.78,513.7,509.62,514.54M529.86,514.08c0.19-0.37,0.36-2.62-0.52-2c-0.25,0.17-0.23,0.99-0.21,1.23C529.19,513.8,529.28,514.19,529.86,514.08M533.6,512.79c0-0.33-0.01-0.67-0.01-1C533.35,512.06,533.36,512.52,533.6,512.79M530.33,510.82c-0.2-0.83,0-1.68,0.19-2.49c0.05-0.21,0.49-1.41,0.19-1.56c-0.42-0.21-0.87-0.43-0.94-0.95c-0.67,0.2-0.87,0.95-1.64,1.01c-0.39,0.02,0.88,3.42,0.94,3.75c-0.58,0.01-1.17,0.01-1.75,0.02c0.01,0.73,0.07,1.24,0.85,1.26c1.28,0.06,3.13,0.56,3.58-0.89C531.93,510.44,530.54,510.7,530.33,510.82M533.07,510.29c0-0.42-0.01-0.83-0.01-1.25C532.78,509.38,532.79,509.95,533.07,510.29M510.82,509.77c-2.55-4.65-1.11-10.89,0.69-15.52c0.53-1.37,1.85-0.76,2.82-0.26c0.36,0.19,1,0.59,1.16,0.96c0.27,0.65-0.23,1.5-0.43,2.1c-0.32,0.99-0.76,1.93-1.09,2.92c-0.36-0.48-0.11-1.23,0.02-1.75c0.22-0.9,0.19-1.83,0.18-2.75c-1.67,2.25-1.94,4.83-1.92,7.52c1.45-0.76,0.31,1.84,0.09,2.51c-0.23,0.71-0.46,1.42-0.67,2.13C511.47,508.28,511.4,509.32,510.82,509.77M514.54,507.49c-0.4,0.41-0.95,1.09-1.58,1.09c-0.85,0.01-0.49-1.42-0.34-1.82c0.39-1.04,1.67-2.57,2.84-2.74c0.81-0.12,1.25,2.13,1.3,2.65c0.05,0.52,0.09,3.37-1.25,2.62C514.92,508.95,514.75,508.08,514.54,507.49M532.55,508.3c0-0.5-0.01-1-0.02-1.5C532.2,507.18,532.25,507.91,532.55,508.3M532.02,505.55c0-0.33-0.01-0.67-0.01-1C531.78,504.82,531.78,505.28,532.02,505.55M531.26,504.06c0-0.25-0.01-0.5-0.01-0.75C531.04,503.54,531.06,503.83,531.26,504.06M515.99,502.47c-0.77,0.37-1.34,1.03-2.24,1.02c0.01-1.03,0.72-1.91,1.32-2.68c0.51-0.66,1.16-1.93,2.08-2.06c0.42-0.07,0.34,0.13,0.44,0.53c0.33,1.26,0.48,2.53,0.35,3.84c-0.05,0.52-0.59,1.08-1.11,0.84C516.34,503.74,516.17,502.92,515.99,502.47M524.73,501.63c0.64-0.18,1.84-0.32,1.37-1.18c-0.41-0.76-1.66-0.45-1.63,0.43c-0.53-0.36-2.41-1.57-2.18-0.06c0.13,0.84,0.95,0.27,1.35,0.63c0.33,0.29,0.09,1.06,0.1,1.44C524.5,502.9,524.96,502.37,524.73,501.63M530.48,501.82c0.07-0.39-0.16-0.88-0.26-1.25c-0.28,0.36-0.23,0.82-0.24,1.25C530.14,501.82,530.33,501.85,530.48,501.82M529.46,500.08c0-0.25,0-0.5-0.01-0.75C529.25,499.56,529.27,499.85,529.46,500.08M524.21,500.13c0.37-0.71,0.6-1.46,0.84-2.22c0.1-0.32,0.05-0.74-0.17-1c-0.13-0.16-0.83-0.71-1-0.47c-0.18,0.27-0.4,0.5-0.65,0.71C522.58,497.69,523.72,499.69,524.21,500.13M528.45,498.09c0.04-0.29-0.13-0.5-0.26-0.75c-0.2,0.22-0.19,0.47-0.24,0.75C528.1,498.09,528.29,498.12,528.45,498.09M517.94,497.95c0.33-0.56,0.86-1.07,1.49-1.27C519.44,497.46,518.79,498.42,517.94,497.95"/></g><g id="heart"><path style="fill:#E6180A;" d="M-7.67,3.93c0.01-4.71,5.91-8.14,7.64-11.87c1.75,3.72,7.66,7.12,7.7,11.83c0.01,2.22-1.71,4.03-3.82,4.03C1.73,7.92,0,6.13,0,3.91c0,2.23-1.71,4.03-3.82,4.03C-5.94,7.95-7.66,6.15-7.67,3.93z"/></g><g id="base"><path style="fill:#FFFFFF;stroke:#000000;stroke-width:2.5" d="M 0,0C0,3.78 3.09,6.87 6.87,6.87L159.715,6.87C163.485,6.87 166.575,3.78 166.575,0L166.575,-228.4C166.575,-232.18 163.485,-235.27 159.715,-235.27L6.87,-235.27C3.09,-235.27 0,-232.18 0,-228.4L0,0 z"/></g><g id="king"><text transform="scale(0.56453 1.05741)" font-family="Bitstream Vera Serif" font-weight="bold" font-size="43">K</text></g></defs><g id="king_heart" transform="translate(-2010.9,-486.275)"><use xlink:href="#base" x="2010.9" y="486.275" xlink:type="simple" xlink:show="embed" xlink:actuate="onLoad"></use><g fill="none" stroke="black" stroke-width="1"><path d="M 2018.9 311.157L2018.9 488.545"/><path d="M 2018.9 488.545L2151.17 488.545"/><path d="M 2170.47 432.245L2170.47 254.607"/><path d="M 2170.47 254.607L2038.2 254.607"/></g><g><use xlink:href="#heart" x="852.91" y="117.357" transform="scale(2.4) rotate(180,852.91,117.357)" xlink:type="simple" xlink:show="embed" xlink:actuate="onLoad"></use><rect x="2028.48" y="262.673" width="9.69257" height="37.968" fill="white"/></g><g><use xlink:href="#heart" x="892.663" y="192.34" transform="scale(2.4)" xlink:type="simple" xlink:show="embed" xlink:actuate="onLoad"></use><rect x="2151.64" y="442.632" width="9.69257" height="37.968" fill="white"/></g><g transform="rotate(-1.80,2094.69,371.576)"><line x1="2052.83" y1="432.306" x2="2136.54" y2="310.846" stroke="black" stroke-width="7.25"/><circle cx="2055.25" cy="429.248" r="2.2" fill="white"/><circle cx="2055.25" cy="429.248" r=".7" fill="black"/><circle cx="2058.55" cy="424.455" r="2.2" fill="white"/><circle cx="2058.55" cy="424.455" r=".7" fill="black"/><circle cx="2061.86" cy="419.663" r="2.2" fill="white"/><circle cx="2061.86" cy="419.663" r=".7" fill="black"/><circle cx="2065.16" cy="414.87" r="2.2" fill="white"/><circle cx="2065.16" cy="414.87" r=".7" fill="black"/><circle cx="2068.46" cy="410.078" r="2.2" fill="white"/><circle cx="2068.46" cy="410.078" r=".7" fill="black"/><circle cx="2071.77" cy="405.285" r="2.2" fill="white"/><circle cx="2071.77" cy="405.285" r=".7" fill="black"/><circle cx="2075.07" cy="400.493" r="2.2" fill="white"/><circle cx="2075.07" cy="400.493" r=".7" fill="black"/><circle cx="2078.37" cy="395.7" r="2.2" fill="white"/><circle cx="2078.37" cy="395.7" r=".7" fill="black"/><circle cx="2081.67" cy="390.908" r="2.2" fill="white"/><circle cx="2081.67" cy="390.908" r=".7" fill="black"/><circle cx="2084.98" cy="386.115" r="2.2" fill="white"/><circle cx="2084.98" cy="386.115" r=".7" fill="black"/><circle cx="2088.28" cy="381.323" r="2.2" fill="white"/><circle cx="2088.28" cy="381.323" r=".7" fill="black"/><circle cx="2091.58" cy="376.53" r="2.2" fill="white"/><circle cx="2091.58" cy="376.53" r=".7" fill="black"/><circle cx="2094.89" cy="371.737" r="2.2" fill="white"/><circle cx="2094.89" cy="371.737" r=".7" fill="black"/><circle cx="2098.19" cy="366.945" r="2.2" fill="white"/><circle cx="2098.19" cy="366.945" r=".7" fill="black"/><circle cx="2101.49" cy="362.152" r="2.2" fill="white"/><circle cx="2101.49" cy="362.152" r=".7" fill="black"/><circle cx="2104.8" cy="357.36" r="2.2" fill="white"/><circle cx="2104.8" cy="357.36" r=".7" fill="black"/><circle cx="2108.1" cy="352.567" r="2.2" fill="white"/><circle cx="2108.1" cy="352.567" r=".7" fill="black"/><circle cx="2111.4" cy="347.775" r="2.2" fill="white"/><circle cx="2111.4" cy="347.775" r=".7" fill="black"/><circle cx="2114.71" cy="342.982" r="2.2" fill="white"/><circle cx="2114.71" cy="342.982" r=".7" fill="black"/><circle cx="2118.01" cy="338.19" r="2.2" fill="white"/><circle cx="2118.01" cy="338.19" r=".7" fill="black"/><circle cx="2121.31" cy="333.397" r="2.2" fill="white"/><circle cx="2121.31" cy="333.397" r=".7" fill="black"/><circle cx="2124.62" cy="328.605" r="2.2" fill="white"/><circle cx="2124.62" cy="328.605" r=".7" fill="black"/><circle cx="2127.92" cy="323.812" r="2.2" fill="white"/><circle cx="2127.92" cy="323.812" r=".7" fill="black"/><circle cx="2131.22" cy="319.02" r="2.2" fill="white"/><circle cx="2131.22" cy="319.02" r=".7" fill="black"/><circle cx="2134.52" cy="314.227" r="2.2" fill="white"/><circle cx="2134.52" cy="314.227" r=".7" fill="black"/></g><use xlink:href="#king" x="2014.9" y="287.157" style="fill:#e6180a" xlink:type="simple" xlink:show="embed" xlink:actuate="onLoad"></use><use xlink:href="#king" x="2174.47" y="455.995" transform="rotate(180,2174.47,455.995)" style="fill:#e6180a" xlink:type="simple" xlink:show="embed" xlink:actuate="onLoad"></use><use xlink:href="#heart" x="2024.55" y="301.157" transform="rotate(180,2024.55,301.157)" xlink:type="simple" xlink:show="embed" xlink:actuate="onLoad"></use><use xlink:href="#heart" x="2164.82" y="441.995" xlink:type="simple" xlink:show="embed" xlink:actuate="onLoad"></use><use xlink:href="#king_2" transform="matrix(0.990000,0.000000,0.000000,0.990000,1638.359,-170.9284)" id="use1573" x="0.0000000" y="0.0000000" width="2178.4751" height="1215.6875" xlink:type="simple" xlink:show="embed" xlink:actuate="onLoad"></use><use xlink:href="#king_2" transform="matrix(-0.990000,0.000000,0.000000,-0.990000,2551.075,914.1410)" id="use1574" x="0.0000000" y="0.0000000" width="2178.4751" height="1215.6875" xlink:type="simple" xlink:show="embed" xlink:actuate="onLoad"></use></g></svg>