<?xml version="1.0" encoding="UTF-8"?>
<svg xmlns="http://www.w3.org/2000/svg" xmlns:xlink="http://www.w3.org/1999/xlink" version="1.1" height="263" width="188" viewBox="-1.3 -236.8 188 263" preserveAspectRatio="xMidYMid meet" zoomAndPan="magnify" contentScriptType="application/ecmascript" contentStyleType="text/css"><defs><g id="queen"><text transform="scale(0.56453 1)" font-family="Bitstream Vera Serif" font-weight="bold" font-size="41">Q</text></g><g id="club"><path d="M3.35,4.66c0-1.81-1.51-3.28-3.38-3.28s-3.38,1.47-3.38,3.28c0,1.81,1.51,3.28,3.38,3.28S3.35,6.47,3.35,4.66z"/><path d="M7.71-1.55c0-1.81-1.51-3.28-3.38-3.28S0.95-3.36,0.95-1.55c0,1.81,1.51,3.28,3.38,3.28S7.71,0.26,7.71-1.55z"/><path d="M-0.95-1.57c0-0.66-0.2-1.28-0.55-1.8c-0.6-0.89-1.65-1.48-2.83-1.48c-1.87,0-3.38,1.47-3.38,3.28  c0,1.81,1.51,3.28,3.38,3.28S-0.95,0.24-0.95-1.57z"/><path d="M3.94-7.94c-1.67,0-2.55,1.36-3.01,2.72C0.47-3.86,0.43-2.5,0.43-2.5h-0.86c0,0-0.16-5.43-3.5-5.44H3.94z"/><path d="M-2.32,2.25c1.9-1.9,1.9-4.75,1.9-4.75l0.85-0.01c0,0,0,2.91,1.85,4.76"/><path d="M-1.94-3.85c1.9,1.9,4.75,1.9,4.75,1.9v0.85c0,0-2.91,0-4.76,1.85"/><path d="M1.87-3.86c-1.9,1.9-4.75,1.9-4.75,1.9v0.85c0,0,2.91,0,4.76,1.85"/></g><g id="base"><path style="fill:#FFFFFF;stroke:#000000;stroke-width:2.5" d="M 0,0C0,3.78 3.09,6.87 6.87,6.87L159.715,6.87C163.485,6.87 166.575,3.78 166.575,0L166.575,-228.4C166.575,-232.18 163.485,-235.27 159.715,-235.27L6.87,-235.27C3.09,-235.27 0,-232.18 0,-228.4L0,0 z"/></g><g id="queen_3"><path style="fill:#E61408;" d="M306.81,374.26l-2.28-7.45l0.61-2.25l2-1.4l-0.11-2.41c-2.05-5.22-4-10.46-6.24-15.6c-1.57-0.44-3.02-0.79-4.63-1c-3.96,5.86-7.82,11.76-11.59,17.75l9.79,8.56l10.97,14.73l2.29-0.14C307.2,381.43,306.7,377.91,306.81,374.26"/><path style="fill:#F8C20F;" d="M338.57,390.97c-3.92,2.97-7.68,5.2-12.04,7.48l-5.13,1.5c0.27,1.24,0.57,2.43,0.92,3.65c-0.54,1.76-1.15,3.29-1.96,4.95l2.1-0.65l0.3-0.84l-0.16-0.98l2.28-0.08l0.5-0.89l-1.47-1.44l3.44-1.76l2.89,1.36l1.55,2.92l1.37-0.09l-0.04-1.16l-1.52-1.39l-0.38-1.35l2.36-2.74l2.66,0.17l0.27,0.5l-1.81,1.54l0.32,1.07l1.32-0.06l1.66-0.79l0.88,1.28l1.23,0.51l0.64-0.77l-0.43-1.4l-1.47-0.75l2.46-0.72l-0.06-1.43l-3.74,1.1c0.52-1.18,1.06-2.33,1.63-3.48l2.21-1.08l3.03,0.01l1.26,2.15l1.8,0.6l-0.08-1.23l-1.8-0.99l-0.91-0.85l0.17-0.95c0.37-0.99,0.88-1.84,1.42-2.75l1.71-0.45l0.5,0.32l-1.4,1.84l1.09,0.42l1.3-0.68l1.92-0.31l0.55-1.25c-1.55-0.5-3.02-1.31-4.55-1.91c-0.95-1.08-1.86-2.06-2.96-2.99C342.53,387.88,340.61,389.42,338.57,390.97"/><path style="fill:#F8C20F;" d="M325.62,337.38c3,0.01,5.85-0.29,8.83-0.5c1.34,2.77,2.56,5.6,3.82,8.41l3.19-0.89l-0.13-0.43l-0.05,0l-0.61-1.96l-0.03-0.37l-0.14-0.46c-0.31-3.27-0.17-6.64-0.57-9.88c-0.44-3.64-0.48-8.15-2.25-11.48l-2.21-2.86l-3.29-2.29l-3.48-0.58l-4.58,0.38l-2.5,0.77c-0.9,1.15-1.79,2.14-2.84,3.16l-1.72,0.47l-1.97-0.11l-1.71-1.15l-0.61,0.6c-3.84,6.59-8.55,12.55-12.13,19.31l1.61,1.31l2.07,1.15c4.26-0.35,8.13-1.38,12.23-2.56l1.85-1.47C320.89,336.3,323.2,336.72,325.62,337.38"/><path style="fill:#E61408;" d="M345.15,288.45l-0.2-19.62l-0.65-0.29c-7.53,11.84-15.28,23.58-22.44,35.65l22.21,5.3L345.15,288.45"/><path style="fill:#E61408;" d="M325.96,313.89l5.65,0.37c1.29,0.9,2.57,1.79,3.86,2.69c0.8,1.03,1.59,2.06,2.39,3.09c2,7.27,2.13,14.49,2.81,21.96l0.61,1.96c0.59,0.06,1.19,0.12,1.78,0.18l4.87-2.07l-0.04-22.33l-1.07-4.9l-24.53-6.03c-0.46,2.2-0.68,4.23-0.82,6.47C322.97,314.81,324.46,314.35,325.96,313.89"/><path style="fill:#E61408;" d="M372.13,339.87l-0.34,0.82c-1.31,1.84-2.61,3.67-3.59,5.71l-0.93-0.13l-1.45,0.99l-2.99-0.15c-2.32-0.83-4.64-1.63-6.94-2.5l-3.5-0.51c-1.99,3.25-3.86,6.5-5.66,9.86c-2.91,12.61-5.38,25.43-9.69,37.65l1.53-0.63c1.84-1.39,3.61-2.76,5.3-4.33c1.33-5.71,1.7-11.42,1.68-17.28l1.54-2.6c8.79-6.1,17.06-12.69,24.66-20.24l-0.62-0.02l0.91-0.1l1.52-1.99l1.43-3.58l-0.14-4.06l-1.01-0.85l-1.25,3.25L372.13,339.87"/><path style="fill:#1C1585;" d="M375.95,320.07L372,320.8l-1.07-0.11l-0.54,0.12l-0.29-0.21c-0.72-0.12-1.44-0.27-2.16-0.42l-1.72-1.24c-0.7-0.86-1.46-1.69-2.06-2.63l-0.38-0.28c-2.07-3.85-4.38-7.61-6.56-11.41l-4.07,0.01c-1.88,3.77-3.81,7.5-5.8,11.21c1.22,8.73,0.78,17.58,0.66,26.38l2.87,0.02c0.77-1.35,1.41-2.75,2.08-4.16c1.85-2.58,3.76-5.03,5.78-7.49l0.31-0.22c1.2-1.36,2.84-2.42,4.23-3.58l4.42-2.49l4.61-1.32l6.42-0.56l2.89,0.58l2.06-0.29l2.42-4.16l-0.69-0.77C382.28,318.64,379.11,319.34,375.95,320.07"/><path style="fill:#E61408;" d="M386.81,304.34l-0.04-0.03l-0.47,0c-1.97-1.1-3.55-2.86-5.4-4.15c-2.03-1.42-4.04-2.66-6.2-3.88l-1.18-0.1l0.01,0l-0.81,1.13l-1.34-0.11l-0.98,0.7l0.58,1.54l-1.12,1.16l-1.73-0.76l-0.35-0.06l-0.7,0.51l0.13,0.84l-0.32,1.19l-1.19,0.6l-0.38,1.32l2.25,3.68l1.06,1.15l1.07,0.64l1,0.28c5.53-0.77,10.62-2.48,15.93-4.18L386.81,304.34"/><path style="fill:#F8C20F;" d="M397.14,284.98l-0.3,2.32c-1.43,4.5-3.29,8.65-5.5,12.82l0.62-2.31c-0.2-5.33-0.62-10.5-1.56-15.76l-1.99-4.47l-1.63-2.16l-2.14-1.83l-2.68-1.05l-3.25-0.22l-3.36,0.43l-0.72,0.47l-1.12,2.71l-1.2,1.52l-2.15,0.79l-1.73,0.17c-0.27,3.48-0.55,6.95-0.88,10.43l2.86,4.72l-1.51-1.12l-2.03-0.7l-2.71,2.65l-2.81,1.64l1.58,3.86c-0.92-1.69-1.82-3.38-2.82-5.02l-0.91-0.92l-0.99,1.23c-0.49,1.57-0.98,3.11-1.33,4.72l-1.28,1.87c3.33,5.84,6.36,11.94,10.62,17.16l1.72,1.24c1.36,0.28,2.68,0.47,4.06,0.62c6.42-1.17,12.73-2.58,18.83-4.93l2.09-2.43l4.34-8.41c0.71-6.54,0.58-13.19,0.69-19.76L397.14,284.98M386.78,305.9c-5.28,1.84-10.53,3.35-16.08,4.1c-0.55-0.16-1.1-0.31-1.65-0.47c-0.78-0.85-1.57-1.7-2.35-2.55c-0.95-1.78-1.91-3.56-2.85-5.35l1.4,1.53c0.55-0.28,1.09-0.55,1.64-0.83l0.32-1.19c-0.08-0.5-0.15-0.99-0.23-1.49c0.38,0.07,0.77,0.13,1.15,0.2l1.73,0.76l1.12-1.16c-0.21-0.55-0.41-1.09-0.62-1.64l0.45-0.65c0.63,0.05,1.27,0.11,1.9,0.16l0.81-1.13c-1-0.89-1.97-1.85-3.08-2.6l1.29,0.53c2.19,1.63,4.56,2.83,6.79,4.38c2.58,1.8,5.06,4.3,7.78,5.82c0.66-0.01,1.32-0.01,1.98-0.02L386.78,305.9"/><path style="fill:#F8C20F;" d="M372.31,322.98l-4.61,1.32l-4.42,2.49c-4.09,3.39-7.23,6.98-10.32,11.29c-0.55,1.17-1.11,2.34-1.66,3.51l1.22,1.73c3.42,1.31,6.86,2.55,10.31,3.79l2.99,0.15c0.97-0.67,1.94-1.33,2.91-2c1.28-2.03,2.56-4.06,3.85-6.09c0.44-1.14,0.88-2.29,1.32-3.43l0.26-1.48l8-9.78l0.28-1.31c-1.24-0.25-2.47-0.5-3.71-0.75L372.31,322.98"/><path d="M322.85,406.5c0.92-0.23,2.16,0.21,2.76-0.78c0.3-0.5,0.17-0.66-0.25-1c-0.29-0.23-0.86-0.8-0.5-1.19c0.59-0.63,2.11-1.02,2.95-0.91c0.4,0.05,1.08,0.05,1.39,0.33c0.73,0.62,1.14,0.85,1.41,1.8c0.27,0.93,0.86,1.56,1.69,2.03c0.76,0.43,1.05-0.58,1.07-1.15c0.03-1.02-0.87-1.76-1.46-2.51c-0.4-0.52-0.03-1.03,0.18-1.55c0.39-0.98,1.63-1.5,2.58-1.75c0.51-0.13,0.99,0,1.44,0.25c-0.78,0.22-2.32,1.6-1.7,2.5c0.59,0.84,2.74,0.2,3.44-0.24c0.31,1.03,2.17,2.25,3.24,2.26c0-0.7-0.01-1.39-0.06-2.09c-0.05-0.61-0.43-1.12-0.67-1.66c0.52-0.17,1-0.43,1.26-0.92c0.33-0.62,0.99-1.55-0.12-1.57c-0.62-0.01-1.27-0.06-1.88,0.11c-0.56,0.16-1.01,0.57-1.5,0.88c-0.01-1.06,0.78-2.22,1.55-2.92c0.95-0.86,1.96-1.06,3.18-1.16c1.16-0.1,1.78,1.13,2.19,2.02c0.48,1.05,1.86,1.05,2.84,1.1c0-0.67,0.02-1.74-0.5-2.25c-0.61-0.6-1.79-0.68-2.23-1.53c-0.73-1.4,1.28-3.94,2.77-3.72c-0.52,0.51-1.95,1.71-1.14,2.5c0.64,0.62,1.98,0.07,2.69-0.14c1.04-0.31,2.36,0.15,3.28-0.52c0.53-0.39,0.88-0.49,0.8-1.17c-0.11-0.95-1.52-0.73-2.11-0.86c-0.51-0.11-0.91-0.5-1.36-0.75c-0.5-0.28-1.08-0.38-1.6-0.62c-0.96-0.45-1.4-1.2-2.09-1.93c-0.29-0.31-0.68-0.5-0.98-0.8c-0.36-0.35-0.44-0.85-0.57-1.32c-0.28-1,0.19-2.14,0.37-3.12c0.26-1.52,0.23-3.13,0.38-4.67c0.13-1.38,0.41-2.69,0.36-4.09c-0.05-1.42-0.2-2.94,0.35-4.29c1.17-2.93,4.7-4.56,7.14-6.24c1.49-1.03,2.92-2.14,4.38-3.22c1.49-1.1,2.69-2.52,4.09-3.73c1.43-1.23,2.78-2.55,4.22-3.77c1.25-1.06,2.55-2.06,3.77-3.16c2.27-2.06,4.43-4.5,5.2-7.55c0.55-2.21-0.48-4.46,0.07-6.63c0.36-1.37,1.51-2.58,2.29-3.73c0.97-1.42,2.05-2.76,3.16-4.08c1.09-1.29,2.27-2.54,3.25-3.92c1.01-1.42,1.82-2.96,2.6-4.5c0.58-1.15,2.15-1.25,3.22-1.64c1.37-0.5,2.52-1.66,3.33-2.84c1.02-1.49,1.69-3.19,2.64-4.72c0.88-1.41,1.55-2.86,1.65-4.54c-0.71,0.58-1.01,1.58-1.39,2.38c-0.55,1.16-1.25,2.24-1.83,3.38c-0.89,1.75-1.8,3.76-3.5,4.87c-2.55,1.69-5.97,2.25-8.9,2.97c-3.29,0.81-6.58,1.66-9.96,2c-2.13,0.21-4.27-0.61-5.68-2.21c-2.33-2.63-3.87-5.87-5.52-8.94c-0.82-1.53-1.52-3.11-2.34-4.63c-0.4-0.76-0.83-1.5-1.27-2.25c-0.09-0.14-1.02-1.58-0.1-1.33c0.39,0.11,0.59,1.06,0.72,1.36c0.31,0.72,0.66,1.43,1,2.13c0.8,1.65,1.8,3.19,2.67,4.8c1.53,2.83,2.87,6.3,5.36,8.44c2.58,2.22,5.77,2,8.89,1.38c3.66-0.72,7.22-1.87,10.87-2.62c1.49-0.31,2.94-0.68,4.09-1.74c1.19-1.09,2.02-2.39,2.78-3.8c0.79-1.45,1.62-2.86,2.3-4.36c0.68-1.49,1.83-2.91,2.02-4.54c0,0-0.6-0.22-0.72-0.3c-0.46-0.35-0.54-1-0.77-1.5c-1.29,1.1-0.45,3.33-0.94,4.74c-0.16,0.47-1.11,2.08-1.77,1.25c-0.46-0.57,0.44-1.49,0.7-2c-1.3-0.67-1.98,0.94-1.96,2.01c0.03,1.36,0.22,2.7-0.16,4.03c-0.24,0.84-1.09,2.58-2.16,2.53c-0.71-0.03-0.89-0.62-0.58-1.11c0.34-0.54,0.66-0.9,1.33-0.98c-0.23-1.24-1.87-0.87-2.39-0.06c-0.96,1.5-1.99,5.13-4.14,5.37c-0.5,0.06-1.14-0.19-1.43-0.58c-0.11-0.14,0.22-0.57,0.3-0.71c0.2-0.38,0.22-0.3,0.65-0.26c0.18,0.02,0.42,0.1,0.59,0.1c0.42,0.01,0.36,0.23,0.52-0.23c0.19-0.53-0.19-1-0.53-1.34c-0.29-0.28-1.33-0.08-1.72-0.09c-1.22,0-2.55,1.97-3.19,2.81c-0.62,0.81-1.74,2.31-2.95,2.02c-0.56-0.13-2.13-0.47-1.26-1.37c0.55-0.56,1.6-0.26,2.28-0.24c-0.07-0.48-0.28-0.88-0.59-1.26c-0.38-0.46-0.98-0.25-1.5-0.21c-2.36,0.18-3.3,2.54-5.51,3.02c-0.7,0.15-1.68-0.01-1.99-0.75c-0.19-0.43-0.1-0.41,0.22-0.76c0.33-0.36,0.8-0.61,1.16-0.12c0.33,0.46,0.79,0.33,0.87-0.23c0.17-1.38-1.15-1.72-2.2-1.94c-0.49-0.11-1.02,0.06-1.49-0.14c-0.57-0.25-1.12-0.54-1.61-0.92c-0.96-0.75-0.01-2.46,1.02-1.49c0.4,0.37,0.44,0.67,0.86,0.1c0.12-0.16,0.24-0.61,0.39-0.56c0.82,0.26,1.51,0.87,2.33,1.18c0.85,0.32,1.77,0.48,2.68,0.45c2.14-0.07,4.37-0.76,6.44-1.27c2.19-0.54,4.3-1.37,6.47-2.01c1.66-0.49,3.56-0.99,4.75-2.35c2.17-2.46,3.82-5.38,5.08-8.4c0.67-1.61,1.38-3.22,2.12-4.8c0.32-0.67,0.79-1.33,1.02-2.03c0.22-0.69,0.1-1.45,0.1-2.16c-0.94,1.05-1.24,2.9-1.81,4.18c-0.75,1.7-1.46,3.4-2.33,5.04c-0.76,1.42-1.53,2.85-2.31,4.26c-0.72,1.31-1.55,2.7-2.83,3.54c-2.86,1.86-6.12,2.68-9.37,3.58c-1.6,0.44-3.21,0.81-4.83,1.15c-1.6,0.33-3.33,0.63-4.94,0.18c-1.31-0.38-2.26-1.77-2.96-2.85c-0.98-1.51-1.84-3.12-2.72-4.7c-0.85-1.52-1.72-3.03-2.53-4.58c-0.72-1.38-1.95-3.11-1.92-4.72c1.08,1.22,1.75,2.72,2.47,4.16c0.79,1.57,1.64,3.11,2.45,4.67c0.82,1.58,1.72,3.13,2.68,4.63c0.79,1.22,1.68,2.16,3.15,2.46c1.5,0.32,3.4-0.2,4.85-0.6c1.77-0.5,3.56-0.92,5.34-1.37c1.57-0.39,3.1-0.89,4.64-1.39c1.33-0.43,2.76-0.96,3.72-2.03c2.33-2.62,3.85-5.81,5.22-9.01c0.73-1.7,1.47-3.4,2.15-5.12c0.34-0.87,0.69-1.73,0.83-2.65c0.13-0.86,0.62-1.7,0.55-2.58c0.08,0.17,0.16,0.33,0.25,0.5c0.48-0.6,0.35-1.6,0.31-2.31c-0.08-1.2-0.04-2.41-0.03-3.61c0.01-2.5-0.63-4.93-1.21-7.33c-0.67,0.53-0.34,1.34-0.21,2.04c0.2,1.03-0.04,1.98,0.27,3.02c0.29,0.97,0.19,1.93,0.25,2.92c0.07,1.12,0.05,2.14-0.11,3.26c-0.5-0.08-2-0.38-2,0.49c0,0.85,1.5,0.58,2,0.51c0.12,2.08-0.87,4.11-1.63,5.99c-0.44,1.08-0.88,2.17-1.38,3.23c-0.37,0.8-0.76,1.76-1.53,2.26c0.1-0.53-0.19-1.04-0.21-1.56c-0.03-0.74-0.02-1.47-0.02-2.21c0-0.59-0.16-1.16-0.21-1.74c-0.06-0.77,0.01-1.52-0.12-2.29c-0.21-1.28-0.39-2.57-0.54-3.86c-0.11-0.93-0.13-2.15-0.83-2.86c-0.54,1.02,0.19,2.88,0.36,3.95c0.24,1.5,0.35,3.02,0.6,4.52c0.47,2.81,0.47,6.1-0.18,8.87c-0.3,1.27-1.67,4.19-3.12,4.39c0.01-2.53,0.46-5.1,0.22-7.63c-0.22-2.43-0.28-4.85-0.67-7.27c-0.34-2.1-0.87-4.19-1.74-6.14c-0.43-0.96-0.94-1.89-1.55-2.75c-0.31-0.43-0.63-0.85-0.99-1.24c-0.31-0.34-0.84-0.66-0.93-1.14c-0.28-1.41-0.54-3.34,0.29-4.62c0.2,0.85,0.22,1.69,0.24,2.55c0.01,0.54,0.11,1.3,0.74,1.46c0-0.79-0.29-2.79,0.79-2.84c1.32-0.06,2.75,2.25,3.39,3.19c0.5,0.73,0.93,1.52,1.24,2.35c0.28,0.75,0.55,1.67,1.29,2.09c0.15-0.72-0.42-1.49-0.68-2.12c-0.37-0.93-0.69-1.79-1.22-2.64c-0.48-0.77-1.02-1.51-1.64-2.18c-0.77-0.82-1.75-1.4-2.52-2.22c-0.51-0.54-0.63-1.31-0.63-2.02c0-0.13,0.12-1.09-0.07-1.09c-0.83,0-0.26,2-1.19,2.5c0.11-0.6-0.22-1.19-0.23-1.79c-0.01-0.77-0.01-1.54,0-2.31c0-0.11,0.11-0.9-0.07-0.9c-0.45,0-0.42,0.11-0.43,0.52c0,0.24,0.16,4.67-0.77,3.98c-0.43-0.33-0.24-1.63-0.24-2.1c0-1.47,0.01-2.93,0.02-4.4c-0.7,0.49-0.55,1.69-0.52,2.42c0.05,1.26,0.06,2.6-0.26,3.83c-0.6-0.89-0.3-1.85-0.74-2.75c-0.91,0.62-0.24,2.11-1.26,2.75c0-0.52,0.07-2-0.66-2.01c-0.1,0-0.13,0.8-0.14,0.88c-0.06,0.43-0.33,0.89-0.7,1.12c0.02-0.65,0.06-1.29,0.15-1.93c0.08-0.62-0.3-1.17-0.29-1.78c0.03-1.16,0.78-2.15,0.92-3.29c0.26,0.51,0.25,1.07,0.22,1.62c-0.01,0.24,0.34,0.68,0.49,0.32c0.17-0.39,0.05-1.13,0.07-1.55c0.03-0.71,0.04-1.48-0.28-2.14c-0.33,0.38-0.08,1.07-0.01,1.5c-0.77-0.66-1.4-1.16-1.99-2.01c-0.39,0.28-0.43,0.82-0.68,1.19c-0.31,0.45-0.63,0.61-0.46,1.21c0.3,1.06,0.88,1.96,0.87,3.09c-0.68-0.36-1.61-0.22-2,0.49c0.77,0.41,1.5,0.56,1.87,1.41c0.28,0.63,0.29,1.69-0.38,2.1c0-0.66,0.18-2.12-0.74-2.25c-0.08,0.44-0.24,0.89-0.51,1.25c-0.22-0.68-0.51-1.33-0.74-2c-0.36,0.4-0.28,1.05-0.43,1.54c-0.17,0.54-0.6,0.08-0.66-0.24c-0.27-1.55-0.07-2.97,0.04-4.52c0.12-1.59,0.11-2.96,0.69-4.47c1.19-3.11,2.34-6.23,3.53-9.34c1.14-2.97,2.23-5.95,3.44-8.89c0.61-1.47,1.25-2.94,1.79-4.44c0.45-1.26,0.81-2.59,1.73-3.6c0.07,0.35,0.34,0.69,0.5,1c0.43-0.55-0.1-1.48-0.21-2.06c-0.14-0.72,0.41-1.67,0.01-2.33c-0.37-0.62-1.62-0.72-2.24-0.9c-1.32-0.37-2.64-0.78-3.92-1.27c-1.23-0.46-2.39-1.04-3.59-1.56c-0.54-0.23-2.18-1.06-2.73-0.48c-1.34,1.37-2.26,3.34-3.29,4.95c-1.19,1.86-2.41,3.71-3.62,5.57c-2.36,3.62-4.55,7.36-6.99,10.93c-2.36,3.44-4.43,7.06-6.76,10.53c-1.18,1.76-2.26,3.58-3.4,5.36c-0.5,0.79-1,1.59-1.54,2.35c-0.54,0.75-1.17,1.56-1.35,2.49c0.81-0.4,0.75-0.22,0.76,0.6c0.06,3.08-0.09,6.15-0.07,9.23c0.01,1.41,0.1,2.86-0.03,4.27c-0.12,1.37-0.76,2.63-1.28,3.89c-1.2,2.89-2.33,5.8-3.43,8.72c-1.07,2.83-2.29,5.61-3.33,8.46c-0.15,0.41-0.97,1.52-1.55,1.01c-0.73-0.64-1.06-0.81-0.91-1.81c0.11-0.73,0.21-1.43,0.21-2.17c-0.61,0.43-0.65,1.29-0.94,1.91c-0.14,0.29-0.53,1.31-0.87,1.34c-0.54,0.04-0.94,0.08-1.46-0.05c-0.83-0.21-1.81-0.56-1.97-1.48c-0.19-1.05,0.13-2.21,0.28-3.25c0.18-1.16,0.39-2.3,0.5-3.46c0.11-1.2,0.36-2.39,0.54-3.58c0.14-0.93,0.66-2,0.47-2.95c-1.1,0.64-1.79,2.33-2.48,3.36c-1.12,1.66-2.12,3.39-3.19,5.08c-2.03,3.23-4.07,6.46-6.19,9.63c-2.07,3.11-3.94,6.32-5.96,9.46c-1,1.54-1.95,3.11-2.95,4.65c-0.53,0.81-1.08,1.6-1.4,2.52c-0.31,0.88-0.48,1.81-0.74,2.71c-0.2-0.32-0.44-0.62-0.5-1c-1.79,1.52-2.54,3.87-3.85,5.76c-0.83,1.2-1.54,2.42-2.28,3.68c-0.75,1.26-1.71,2.38-2.56,3.58c-1.7,2.43-2.98,5.13-4.62,7.61c-0.79,1.18-1.54,2.39-2.37,3.55c-0.67,0.93-1.63,1.91-1.83,3.08c-0.09,0.55,0.04,0.34,0.48,0.66c0.5,0.37,0.95,0.79,1.44,1.18c1.14,0.93,2.08,2.17,3.01,3.29c1.91,2.3,3.42,4.88,5.03,7.39c1.71,2.66,3.05,5.47,4.32,8.36c0.59,1.33,1.13,2.65,1.59,4.02c0.48,1.41,1.14,2.82,1.13,4.33c-1.65-1.84-2.8-4.1-4.22-6.11c-1.58-2.23-3.17-4.45-4.87-6.58c-1.65-2.05-3.39-4.03-5.12-6.02c-0.86-0.98-1.78-1.86-2.75-2.73c-0.56-0.5-1.1-1.01-1.65-1.52c-0.39-0.35-0.84-0.92-1.38-1.04c-0.46-0.1-0.39-0.13-0.61,0.3c-0.1,0.2-0.24,0.34-0.29,0.58c0.97-0.13,1.77,0.78,2.38,1.4c1.01,1.01,2.03,2.01,3.01,3.05c2,2.12,4.02,4.34,5.83,6.62c1.78,2.23,3.44,4.57,5.14,6.86c0.91,1.22,1.74,2.46,2.5,3.77c0.63,1.08,1.55,2.14,1.76,3.4c-1-0.12-1.67-1.3-2.24-2.01c-0.87-1.07-1.6-2.24-2.49-3.3c-1.98-2.35-3.8-4.83-5.81-7.15c-1.87-2.17-3.87-4.32-5.95-6.29c-0.88-0.83-1.79-1.61-2.66-2.45c-0.84-0.81-1.8-1.71-3-1.9c0.03,0.25-0.3,0.59-0.25,0.75c0.05,0.17,0.68,0.43,0.81,0.52c0.46,0.32,0.92,0.66,1.37,1c0.92,0.7,1.76,1.45,2.58,2.25c1.84,1.79,3.62,3.6,5.39,5.45c3.44,3.58,6.43,7.64,9.43,11.6c0.73,0.96,1.43,1.93,2.1,2.93c0.56,0.84,0.85,1.8,1.39,2.64c0.54,0.84,1.44,1.35,2.12,2.06c0.78,0.8,1.2,1.96,1.76,2.92c1.13,1.92,2.61,3.37,4.72,4.17c0.97,0.37,2,0.68,3.03,0.84c0.46,0.07,1.86,0.47,1.98,1.05c0.16,0.81,0.29,1.52,0.64,2.27c0.4,0.86,0.24,1.46-0.02,2.33c-0.25,0.82-0.36,1.8-0.8,2.54c-0.35,0.58-0.92,1.09-0.93,1.82C321,408.9,323.71,408.23,322.85,406.5M321.6,408c-0.02-0.64,0.29-1.25,1.01-1.24C322.71,407.4,322.23,407.98,321.6,408M331.61,404.05c0.65,0.13,2.05,1.54,1.15,1.88C331.63,406.37,331.23,404.81,331.61,404.05M323.61,405.76c0.29-0.53,0.96-0.79,1.5-0.49C324.84,405.82,324.15,405.93,323.61,405.76M322.61,405.5c-0.13-0.06-0.5-0.13-0.5-0.33c0-0.27-0.02-0.55,0.35-0.42C322.78,404.88,322.88,405.31,322.61,405.5M322.86,403.75c-0.05-0.52,0.29-0.7,0.75-0.75C323.72,403.56,323.42,403.87,322.86,403.75M338.87,402.07c0.38-0.19,0.72-0.21,1.13-0.13c0.26,0.05,0.66,0.73,0.5,0.92c-0.38,0.47-0.42,0.65-0.99,0.38C339.14,403.06,338.93,402.47,338.87,402.07M335.12,402.31c0.28-0.89,1.24-1.62,2.17-1.27c0.28,0.1-0.4,0.97-0.56,1.09C336.14,402.56,335.85,402.43,335.12,402.31M329.62,402.04c-0.15-0.85,1.1-1.04,1.75-0.99C331.13,402.05,330.54,402.21,329.62,402.04M324.12,402.26c-0.05-0.25,0.12-0.88,0.5-0.5C325,402.15,324.37,402.31,324.12,402.26M325.62,401.78c-0.52-0.52-0.98-1.24-0.99-2C325.29,399.93,326.24,401.14,325.62,401.78M322.12,401.5c0.05-0.33,0.22-1.54,0.82-0.93C323.62,401.26,322.65,401.42,322.12,401.5M327.13,401.28c-0.6-0.4-1-1.29-0.99-2C326.72,399.59,327.66,400.58,327.13,401.28M339.38,400.33c0.02-0.6,1.13-1.85,1.58-1.15C341.57,400.11,340.03,400.15,339.38,400.33M331.13,399.55c-0.46-0.69-1.02-1.38-0.99-2.25C330.83,397.42,331.96,399.06,331.13,399.55M328.13,399.54c0.05-0.36,0.4-0.58,0.75-0.5C328.72,399.32,328.43,399.41,328.13,399.54M336.14,398.81c0-0.63-0.09-0.71,0.47-0.97c0.3-0.14,0.7-0.27,1.03-0.27C337.79,398.43,336.92,399.08,336.14,398.81M321.14,399c-0.2-0.94-1.12-0.95-1.9-0.98c-1.16-0.04-2.43-0.38-3.49-0.84c-1.17-0.5-2.09-1.32-2.95-2.24c-0.83-0.89-1.84-1.95-1.88-3.24c0.95,0.03,2.05,1.09,2.24,2.01c0.49-1.26-1.2-2.37-1.99-3.01c1.17-1.02,2.83,1.27,3.74,1.77c-0.18-0.56-0.42-1.16-0.49-1.75c1.01,0.04,2.18,0.9,2.58,1.82c0.48,1.09,1.09,2.08,1.9,2.95c-0.17-0.71-0.1-1.5-0.12-2.22c-0.02-0.81,1.18-1.52,1.76-1.93c0.29-0.21,0.72-0.46,0.86-0.82c0.15-0.35-0.24-0.95,0.04-1.26c0.17-0.21,0.77-0.21,1-0.25c0.05,0.68,0.22,1.29-0.09,1.91c-0.21,0.42-0.91,0.85-1.31,1.11c-1.29,0.83-1.35,1.85-0.37,2.98c-0.04-1.05-0.04-1.59,0.78-2.38c0.45-0.43,1.35-1.01,1.99-1.11c0.07,0.39-0.15,0.88-0.26,1.25c0.36-0.27,0.81-0.42,1.25-0.49c-0.08,0.62-0.49,1.19-0.76,1.75c1-0.9,2.11-1.47,2.76-2.71c0.55-1.07,0.89-2.52,2.33-2.67c0.4-0.04,1-0.26,1.32,0.03c0.32,0.29,0.29,0.99,0.36,1.38c-0.5-0.06-0.67-0.57-0.75-1c-1.26,0.27-1.56,1.71-1.72,2.8c-0.21,1.42-0.62,2.83-1.86,3.72c-1.32,0.94-2.97,1.16-4.55,1.19c-0.92,0.02-1.86,0.03-2.78-0.1c-0.77-0.1-1.59-0.55-2.37-0.42c1.69,1.32,3.92,1.07,5.92,0.99c2.29-0.09,4.47-0.9,6.34-2.22c3.72-2.64,4.63-7.77,4.01-12.04c-0.21-1.43-0.42-2.75-0.42-4.2c-0.01-1.5-0.01-2.98-0.15-4.48c-0.15-1.48-0.26-2.95-0.32-4.43c-0.05-1.36-0.52-2.89-0.31-4.24c0.32-2.06,3.19-3.39,4.79-4.3c0.57-0.32,0.6-0.15,0.76,0.4c0.29,0.98,0.07,2.05,0.04,3.05c-0.05,1.38-0.2,2.75-0.28,4.13c-0.15,2.8-0.75,5.54-0.98,8.33c-0.21,2.52-0.6,5.13-1.1,7.62c-0.54,2.7-1.67,5.14-2.53,7.73c1.24-1.59,2.01-3.52,2.47-5.47c0.19-0.81,0.37-2.99,1.67-2.66c0.46,0.12,0.61,0.71,0.88,1.06c0.33,0.44,0.83,0.3,1.27,0.1c0.15,1.68-0.69,3.47-1.55,4.86c-0.46,0.75-0.91,1.55-1.51,2.2c-0.69,0.74-1.66,1.23-2.53,1.75C329.3,396.55,325.4,398.82,321.14,399M332.64,398.81c-0.68-0.45-1.25-1.43-1.24-2.26C332.07,396.82,333.21,398.06,332.64,398.81M345.65,396.36c0.81-0.45,1.63,0.44,1.49,1.26C346.37,397.65,345.74,397.14,345.65,396.36M335.15,396.31c0.5-0.87,1.77-2,2.76-1.24c0.19-0.9-0.87-1.2-1.49-1.51c0.51-0.77,1.53-1.44,2.32-1.88c0.47-0.27,0.58-0.49,0.86,0.05c0.27,0.52,0.32,0.93,0.87,1.23c0.29,0.16,1.18-0.15,1.3-0.47c0.17-0.46,0.02-0.91-0.38-1.18c-0.29-0.2-0.73-0.09-0.67-0.53c0.17-1.24,1.77-1.83,2.51-2.65c0.33-0.38,0.55-0.19,0.76,0.17c0.29,0.5,0.69,0.97,1.23,1.21c0.99,0.42-2.99,3.56-3.3,3.82c-0.88,0.75-1.79,1.42-2.75,2.05c-0.37,0.24-0.8,0.52-1.24,0.62c-0.43,0.1-0.16-0.14-0.47-0.27C336.74,395.41,335.89,396.2,335.15,396.31M325.15,395.26c1.3-0.9,2.39-2.58,2.27-4.24c-0.69,0.5-0.79,1.51-1.19,2.2C325.94,393.74,324.76,394.58,325.15,395.26M342.41,394.34c0.11-0.77,1.02-1.41,1.76-1.49c-0.04,0.45,0.02,0.99-0.41,1.24C343.31,394.36,342.92,394.34,342.41,394.34M328.16,394.29c0.12-0.71,0.26-1.57,0.51-2.25c0.34-0.91,0.98-1,1.9-0.99c0.69,0-0.16,1.56-0.36,1.77C329.6,393.43,329.07,394.15,328.16,394.29M347.91,392.87c-0.38-0.76,0.55-1.5,1.26-1.49C349.28,392.17,348.62,392.7,347.91,392.87M316.68,388.98c-0.64-0.55-1.36-0.72-2.13-0.34c-0.53,0.26-1.3,1.23-1.94,1.05c-1.13-0.31-1.4-1.56-1.75-2.55c-0.44-1.23-1.32-2.89-0.65-4.18c0.91,0.47,1.7,0.8,2.75,0.6c0.79-0.15,2.11-0.55,2.51-1.32c-0.66,0-1.31,0.1-1.96,0.23c-0.58,0.12-1.19,0.53-1.8,0.29c-0.19-0.08-0.87-0.22-0.96-0.41c-0.22-0.43-0.62-0.97-0.68-1.46c-0.06-0.49,0.26-0.94,0.16-1.43c1.31,0.04,2.32,1.66,3.74,1.12c0.56-0.21,1.31-0.64,1.65-1.15c0.35-0.51,0.67-1.33,1.36-1.45c0,0.67,0.01,1.35-0.15,2c-0.15,0.6-0.51,1.13-0.62,1.75c1.63-1.04,1.34-3.89,1.17-5.51c-0.11-1.08-0.31-2.14-0.5-3.2c-0.16-0.95-0.34-2.14,0.26-2.98c0.78-1.09,3.04,0.15,4.13,0.21c-0.01,0.53-0.28,1.04-0.51,1.5c0.93-0.55,1.37-2.01-0.01-2.31c-1.27-0.28-2.48-0.68-3.72-0.17c-0.4,0.17-1.23,0.54-1.4,0.95c-0.26,0.63,0.6,1.49,0.75,2.1c0.26,1.03,0.13,2.1,0.13,3.15c-0.62-0.1-1.16-0.54-1.75-0.76c0.17,0.33,0.33,0.67,0.5,1c-0.59,0.28-1.27,0.05-1.88,0.2c-0.71,0.18-1.4,0.42-2.12,0.53c0.1-0.64,0.49-1.17,0.76-1.75c-0.75,0.26-1.22,1.13-2.01,1.24c-0.63-3.72,0.64-7.5,2.19-10.83c0.63-1.36,1.26-2.75,1.94-4.08c0.61-1.19,1.42-2.46,2.74-2.95c2.57-0.96,5.12-0.83,7.75-0.25c2.69,0.59,4.94,1.94,7.2,3.46c-0.59-1.14-1.73-1.73-2.8-2.35c-1.31-0.76-2.57-1.21-4.03-1.61c-1.39-0.39-2.85-0.78-4.31-0.66c-1.29,0.1-2.53,0.82-3.84,0.72c-1.37-0.1-0.92-1.87-0.82-2.84c0.11-1.07-0.31-2.06,0.82-2.74c1.33-0.79,3.12-1.88,4.71-1.95c0.64-0.03,1.26,0.43,1.89,0.26c0.4-0.11,1.27-0.72,1.68-0.59c0.13,0.04,0.32,0.42,0.44,0.54c0.66,0.68,1.5,0.36,2.32,0.52c0.51,0.1,0.9,0.47,1.34,0.73c0.46,0.27,0.96,0.36,1.46,0.53c0.82,0.29,1.56,1.07,2.21,1.63c0.74,0.65,1.51,1.58,1.91,2.48c0.37,0.83,0.34,1.97,0.21,2.85c-0.14,0.96-0.2,2.16-0.76,2.98c-0.9,1.32-3.06,1.83-3.19,3.63c-0.19,2.59,0.06,5.26,0.3,7.84c0.24,2.62,0.35,5.22,0.38,7.85c0.01,0.92,0.31,2.18-0.17,3.01c-0.46,0.81-0.97,2.03-1.73,2.57c-0.84,0.6-1.81,0.76-2.57,1.55c-0.85,0.88-1.15,2.04-1.85,3.02c-1-0.61-1.41-2.11-2.52-2.54c-0.79-0.31-1.18-0.69-1.77,0c-0.26,0.29-0.46,0.5-0.5,0.9c-0.02,0.26-0.03,0.62-0.24,0.81c-0.93,0.79-2.3,1.71-3.46,1.04c-0.39-0.22-1.25-0.75-1.25-1.25C315.68,389.38,315.83,389.17,316.68,388.98M349.42,391.13c0.05-0.36,0.4-0.58,0.75-0.5C350,390.9,349.68,390.95,349.42,391.13M337.92,390.57c0.08-1.97,1.27-4.04,1.95-5.86c0.78-2.09,1.17-4.29,1.63-6.47c0.43-2.02,1.11-3.96,1.56-5.98c0.5-2.25,0.79-4.54,1.25-6.79c0.8-3.92,2.77-7.34,4.96-10.64c1.18-1.78,2.38-3.54,3.61-5.28c0.85-1.19,2.08-3.65,3.74-3.85c1.6-0.2,3.24,1.06,4.74,1.45c-0.23,1.28-2.15,2.35-3.04,3.14c-1.53,1.35-3.03,2.73-4.5,4.14c-2.74,2.61-4.99,5.19-6.42,8.74c-0.63,1.58-1.41,3.17-1.87,4.81c-0.54,1.96-1.07,3.93-1.62,5.89c-0.56,1.97-1.19,3.9-1.9,5.83c-0.62,1.67-1.57,3.54-1.57,5.35c0.67-0.43,0.94-1.31,1.18-2.02c0.33-0.99,0.77-1.94,1.08-2.94c0.7-2.2,1.3-4.41,2.29-6.51c0.44,0.46,0.1,1.33,0.04,1.86c-0.12,0.93-0.21,1.89-0.3,2.83c-0.15,1.77-0.17,3.66-0.58,5.4c-0.35,1.52-0.86,2.93-2.08,3.96C340.84,388.69,339.6,390.27,337.92,390.57M308.43,388.95c-0.96-0.8-0.99-1.83-0.99-3c0.83,0.21,1.61,1.28,1.99,2.01C308.91,388.06,308.73,388.56,308.43,388.95M331.43,388.55C331.28,387.75,332.48,388.03,331.43,388.55M345.18,388.36c-0.05-0.25,0.12-0.88,0.5-0.5C346.06,388.24,345.43,388.41,345.18,388.36M309.69,386.96c-0.41-0.24-0.63-0.51-0.83-0.94c-0.47-1.05,0.66-1.45,0.96-0.32C309.91,386.07,309.98,386.65,309.69,386.96M330.94,386.8c0.12-0.52,0.23-1,0.76-1.25C331.75,386.13,331.65,386.92,330.94,386.8M308.2,383.95c-1.07-3.31-0.78-6.68-1.3-10.07c-0.28-1.78-0.68-3.47-1.28-5.17c-0.34-0.97-1.17-2.69-0.21-3.56c1.57-1.42,3.95-2.42,6.02-2.86c0.42-0.09,1.13-0.31,1.12,0.22c0,0.94-0.49,1.86-0.82,2.71c-0.39,1-0.86,1.98-1.2,3c-0.33,0.99-0.59,2.01-0.78,3.04c-0.19,0.99-0.53,2.19-0.46,3.2c0.13,2.09,0.66,3.97,0.26,6.09c-0.15,0.77-0.27,1.49-0.35,2.26C309.12,383.4,308.89,383.96,308.2,383.95M337.45,383.82c0.17-0.26,2.33-3.62,1.93-3.78c-0.45-0.17-0.57-0.5-0.66-0.97c-0.67,0.32-1.22,0.76-2,0.74c0.02,0.59,0.22,1.16,0.36,1.73c0.14,0.58,0.1,1.18,0.13,1.77c-0.28-0.01-0.57-0.06-0.84-0.13c-0.92-0.2-0.68-0.85-0.63-1.72c0.08-1.21,0.34-2.4,0.52-3.6c0.17-1.12,0.19-2.29,0.55-3.37c0.29-0.86,1.02-1.59,1.21-2.46c0.14-0.65-0.46-1.33-0.4-2.04c0.04-0.57,0.32-1.22,0.65-1.68c-1.06-0.35-0.99-1.63-0.89-2.53c0.17-1.47,0.25-2.94,0.28-4.42c0.03-1.75-0.09-3.4,0.14-5.14c0.1-0.8,0.34-1.5,0.68-2.22c0.31-0.65,0.97-1.22,1.1-1.93c-0.36-0.08-0.69-0.18-1.04-0.29c-0.49-0.16-0.46-0.29-0.34-0.75c0.21-0.76,0.53-1.52,0.89-2.22c-0.29-0.08-0.8-0.06-0.96-0.37c-0.25-0.49,0.09-1.49,0.19-2c0.23-1.12,2.22-1.31,3.1-1.56c2.03-0.58,3.99-1.38,6.05-1.84c0.66-0.15,4.8-0.83,4.57,0.68c-0.13,0.8-0.86,1.67-1.26,2.36c-0.58,1-1.15,2.01-1.69,3.03c-0.41,0.78-0.77,1.59-1.26,2.33c-0.41,0.61-1.14,1.11-1.4,1.79c-0.22,0.58-0.28,1.22-0.37,1.83c-0.15,0.93-0.46,1.84-0.71,2.75c-0.56,2.08-0.94,4.18-1.31,6.29c-0.17,0.98-0.36,1.95-0.57,2.92c-0.08,0.38-0.16,0.78-0.38,1.11c-0.16,0.23-0.83,0.39-0.83,0.6c0.01,0.38,0.44,2,0.04,2.18c-0.41,0.18-0.87,0.28-1.3,0.41c0.09,0.5,0.39,0.93,0.52,1.42c0.16,0.57,0.1,1.18,0.1,1.76c0,1.34-0.53,2.6-0.88,3.87c-0.33,1.19-0.47,2.57-1.05,3.67C339.39,382.6,338.13,383.94,337.45,383.82M330.72,380.55c-0.67,0.11-1.23,0.71-1.82,1.02c-0.65,0.33-1.32,0.66-2.06,0.69c-0.85,0.04-1.71,0.25-2.56,0.2c-0.68-0.05-1.37-0.32-2.05-0.2c0.67,2,3.28,1.25,4.73,0.87C328.41,382.74,330.25,382.16,330.72,380.55M321.96,382.75c-0.22-0.51-0.41-0.88-1-1C321.18,382.16,321.44,382.68,321.96,382.75M328.24,374.79c0.15,0.43,0.36,0.82,0.49,1.25c-1.95,0-3.8-0.51-5.75-0.02c0.14-0.58,0.49-1.14,0.51-1.75c-0.77,0.22-1.78,1.07-2.12,1.76c-0.36,0.75-0.56,0.84-0.13,1.54c0.29,0.48,0.72,0.81,1.22,1.07c1.06,0.55,2.06,0.54,3.21,0.49c0.91-0.05,1.8-1.32,2.79-1.09c-1.25,0.99-3.58,2.56-5.25,1.83c-0.53-0.24-0.98-0.59-1.5-0.86c0.13,1.08,1.54,1.73,2.49,1.75c1.08,0.03,2.05-0.47,2.97-0.98c0.9-0.5,1.93-0.93,2.71-1.6c0.33-0.28,0.26-0.34,0.2-0.79C329.99,376.5,329.2,374.98,328.24,374.79M311.72,379.47c0.3-0.21,0.63-0.29,1-0.25c-0.11-0.46-0.07-1.15,0.51-1.25c0,0.33-0.17,0.81,0.02,1.12c0.19,0.31,1.15,0.12,1.47,0.14C314.15,380.22,312.51,380.04,311.72,379.47M324.22,378.76c-0.27-0.16-0.25-0.4-0.25-0.67c0-0.18,0.65-0.08,0.75-0.08C324.6,378.31,324.5,378.57,324.22,378.76M322.98,378c0.17-1.19,2.15-2.02,2.75-0.74c-0.5-0.13-1.06-0.19-1.53,0.07C323.8,377.56,323.45,377.94,322.98,378M321.98,377.75c-0.05-0.25,0.13-0.88,0.5-0.5C322.86,377.65,322.23,377.81,321.98,377.75M311.81,377.55c0-0.05,0-0.11,0-0.17c0.03,0,0.05,0,0.08,0C311.91,377.48,311.84,377.47,311.81,377.55M314.73,377.48c-0.51-0.26-0.96-0.49-1.25-1.01C313.89,376.53,315.14,376.88,314.73,377.48M327.23,377.28c0.05-0.36,0.4-0.58,0.75-0.5C327.81,377.06,327.52,377.15,327.23,377.28M306.23,376.93c-0.67-0.88-1.04-1.95-1.47-2.96c-0.46-1.08-0.99-2.12-1.5-3.17c-1.08-2.19-2.34-4.31-3.63-6.39c-1.31-2.11-2.81-4.05-4.34-6c-0.74-0.94-1.48-1.89-2.27-2.79c-0.39-0.44-0.79-0.88-1.22-1.29c-0.16-0.15-1.23-0.88-1.19-1.08c0.29-1.38,1.33-2.45,2.07-3.6c0.46-0.71,1.26-2.06,2.22-1.18c4.22,3.84,6.65,9.54,9.36,14.45c0.7,1.26-0.02,2.31,0.1,3.62c0.11,1.23,0.74,2.39,1.09,3.57c0.38,1.27,0.65,2.51,0.88,3.82C306.48,374.83,306.86,376.14,306.23,376.93M320.53,367.24c-0.41-0.34-1-0.25-1.5-0.26c0.33-0.24,1.9-1.05,2.1-0.46c0.09,0.24,0.28,0.49,0.4,0.73c0.2-0.15,0.98-1.1,0.69-1.29c-1.22-0.77-2.75-0.36-4.1-0.22c-0.59,0.06-2.74,0.26-2.71,1.23c0.03,0.63,1.03,0.75,1.53,0.76C318.13,367.75,319.48,367.91,320.53,367.24M316.78,367.23c-0.07-0.85,1.16-0.5,1.76-0.49C318.11,367.16,317.35,367.23,316.78,367.23M347.28,365.87c0.58-3.74,2.92-6.9,5.45-9.59c1.39-1.47,2.88-2.82,4.37-4.18c1.49-1.37,2.89-3.04,4.66-4.07c1.33-0.77,2.78-0.2,4.2-0.21c1.59-0.01,3.13-0.46,4.65-0.86c-0.46,0.96-1.35,1.61-2.13,2.29c-0.97,0.85-1.92,1.71-2.9,2.54c-2.08,1.76-3.98,3.71-6.03,5.5c-1.95,1.7-4.05,3.18-6.2,4.61c-1.11,0.74-2.24,1.49-3.27,2.34C349.3,364.92,348.38,365.83,347.28,365.87M341.03,365.83c0.45-0.57,0.43-1.18,0.01-1.75C340.28,364.43,340.39,365.43,341.03,365.83M316.53,365.23c0.83-0.74,1.31-1.09,2.43-1.08c0.79,0,1.32,0.72,2.07,0.85c-0.12-0.68-0.44-0.96-0.95-1.38c-0.24-0.2-1.29-0.44-1.6-0.38C317.79,363.4,315.73,364.17,316.53,365.23M343.04,363.84c0.13-0.99-0.68-1.25-1.5-1.26C341.62,363.68,341.93,363.93,343.04,363.84M305.54,363.68c-1.94-3.03-3.58-6.25-5.53-9.28c-0.92-1.44-1.92-2.85-2.95-4.22c-0.7-0.92-2.14-2.07-2.2-3.29c-0.02-0.39,0.29-1.1,0.51-1.43c0.39-0.57,0.82-0.63,1.46-0.75c1.02-0.19,2.12,0.29,3.02,0.72c1.46,0.7,1.92,2.48,2.39,3.89c0.71,2.13,1.59,4.21,2.35,6.33c0.61,1.69,1.23,3.39,1.82,5.09C306.8,361.86,307.05,363.37,305.54,363.68M340.79,363.33c-0.09-0.4-0.32-0.72-0.75-0.81c-0.43-0.08-1.31,0.16-0.9,0.74C339.48,363.75,340.36,363.56,340.79,363.33M320.3,362.24c-0.45-0.33-1.04-0.03-1.54-0.09c-0.71-0.08-1.58-0.59-2.21-0.92c0.14,1.02,0.95,1.26,1.8,1.52C319.08,362.97,319.68,362.64,320.3,362.24M307.8,362.45c0-0.71,0.18-1.51-0.28-2.11c-0.5-0.65-1.1-1.3-1.2-2.16c0.9,0.23,1.44,1.29,2.24,1.76c0.28-1.13,0.26-2.29,0.26-3.44c0-0.42-0.17-0.32-0.54-0.39c-0.47-0.09-0.81-0.45-1.21-0.68c0.07,0.66-0.77,2.07-1.38,1.08c-0.87-1.41-1.32-3.13-1.89-4.68c-0.67-1.8-1.32-3.6-2-5.39c-0.15-0.4-0.28-0.65,0.28-0.7c0.73-0.06,2.16-0.33,2.82,0.02c0.48,0.25,0.96,0.32,1.03,0.87c0.05,0.44-0.04,1.03,0.19,1.42c0.46,0.78,0.93,1.64,1.73,2.13c0.03-1.14,0-2.44,0.52-3.5c0.71,0.42,0.87,1.33,1.06,2.05c0.07,0.27,0.23,0.65,0.13,0.92c-0.1,0.3-1.18,0.64-1.46,0.78c0.53,0.41,1.14,0.57,1.74,0.86c0.42,0.2,0.43,1.12,0.48,1.51c0.12,0.93,0.32,1.86,0.47,2.79c0.26,1.53,1.02,3.55,0.65,5.09c-0.2,0.86-0.74,0.85-1.54,1.12c-0.22,0.07-1.1-0.72-1.35-0.86C308.55,361.5,308.28,362.14,307.8,362.45M341.3,362.33c0.21-0.75,0.63-1.41,0.81-2.18c0.2-0.81-0.51-1.51-0.54-2.32C339.46,358.26,340.11,361.3,341.3,362.33M328.8,361.54c-0.09-0.59-0.45-1.23-0.99-1.5C327.9,360.61,328.31,361.23,328.8,361.54M310.31,359.71c-0.3-0.03-0.64,0-0.92,0.11c-0.47,0.19-0.28,0.45-0.16,0.89C309.44,361.47,310.4,360.28,310.31,359.71M327.3,360.78c-0.1-0.36-0.31-0.68-0.49-1C326.54,360.15,326.89,360.7,327.3,360.78M312.55,360.47c-0.69-0.72-0.61-2.02-0.7-2.94c-0.15-1.44-0.48-2.86-0.52-4.32c0.92,0.9,0.68,2.49,0.99,3.64C312.58,357.85,313.31,359.53,312.55,360.47M325.81,360.03C325.97,359.23,324.76,359.49,325.81,360.03M324.31,359.76c-0.13-0.29-0.19-0.6-0.5-0.75C323.93,359.31,324.05,359.56,324.31,359.76M323.56,359.76c-0.22-0.29-0.4-0.61-0.75-0.75C322.84,359.4,323.16,359.74,323.56,359.76M313.31,359.47c0.16-0.89-0.27-1.8-0.41-2.67c-0.19-1.17-0.27-2.4-0.32-3.59c0.64,0.61,0.62,1.73,0.76,2.53c0.22,1.26,0.41,2.43,0.46,3.72C313.64,359.47,313.47,359.48,313.31,359.47M346.32,357.37c0.05-1.29,0.71-2.44,1.24-3.58c0.57-1.22,1.14-2.44,1.72-3.66c0.53-1.13,1.05-2.27,1.69-3.35c0.43-0.72,1.1-2.15,2.07-2.19c0.63-0.02,1.24-0.11,1.84,0.09c0.55,0.19,0.52,0.29,0.26,0.77c-0.55,1.04-1.38,1.96-2.08,2.9c-0.83,1.12-1.65,2.25-2.47,3.38c-0.73,1-1.43,2.03-2.13,3.05C347.85,355.7,347.3,356.79,346.32,357.37M336.32,356.87c-0.19-0.04-0.65-0.38-0.64-0.58c0.01-0.1,0.55-0.77,0.64-0.79c0.24-0.06,0.64,0.36,0.64,0.58C336.96,356.37,336.49,356.66,336.32,356.87M345.59,353.36c-0.58,0.33-0.82,1.16-0.51,1.75C345.88,354.88,346.06,353.98,345.59,353.36M334.59,353.06c0.59-0.15,0.53,0.32,0.75,0.75c0.26-0.44,0.78-0.37,0.75,0.15c-0.05,0.71-1.52,0.94-1.64,0.22C334.38,353.78,334.39,353.43,334.59,353.06M345.09,351.86c-0.59,0.1-1.64,0.35-0.91,0.99c0.21,0.18,0.66,0.12,0.86-0.05C345.32,352.55,345.17,352.17,345.09,351.86M324.86,348.26c-0.46-0.66-1.53-1.67-2.4-1.31c-0.9,0.36-1.39,0.42-2.34,0.3c-0.85-0.11-1.52,0.38-2.26,0.73c-0.72,0.35-1.31,0.49-1.91,1.06c-0.62,0.58-1.31,1.27-2.16,1.48c-0.56,0.14-0.87,0.21-1.22-0.37c-0.48-0.78-3.99-6.6-2.48-6.79c2.95-0.37,5.55-1.65,8.27-2.73c1.36-0.54,2.35-0.67,3.79-0.33c1.46,0.35,2.93,0.54,4.4,0.84c1.14,0.23,2.38-0.03,3.53-0.14c0.51-0.05,2.02-0.39,2.38,0.15c1.22,1.86,2.21,3.86,3.38,5.76c0.5,0.8,1.19,1.59,1.39,2.54c0.25,1.16-0.08,2.47-0.15,3.64c-1-0.01-1.72-0.75-2.34-1.45c-0.74-0.84-1.51-1.3-2.49-1.84c-0.46-0.26-0.8-0.6-1.22-0.92c-0.5-0.38-1.1-0.44-1.7-0.48c-1.05-0.07-1.92-1.07-2.98-0.76C325.83,347.79,325.4,348.15,324.86,348.26M314.09,352.98c-0.05-0.25,0.12-0.88,0.5-0.5C314.97,352.86,314.34,353.03,314.09,352.98M308.59,352.95c0.09-0.35,0.07-2.33-0.74-1.75C307.19,351.66,308.01,352.88,308.59,352.95M332.35,350.81c0.22,0.3,0.29,0.62,0.24,1c0.27-0.32,0.51-0.66,0.76-1c0.58,0.37,0.52,1.74-0.26,1.83C332.13,352.73,332.05,351.4,332.35,350.81M314.6,350.48c0.21,0.22,0.19,0.46,0.25,0.75c0.28-0.24,0.51-0.46,0.75-0.75c0.38,0.25,0.59,1.35-0.06,1.44c-0.13,0.02-0.86-0.38-0.94-0.48C314.42,351.21,314.51,350.73,314.6,350.48M304.89,340.69c0.82-0.44,1.88-0.47,2.79-0.49c1.36-0.04,2.68-0.32,4-0.62c1.21-0.28,2.42-0.57,3.59-1.02c1.16-0.44,2.14-1.31,3.29-1.7c1.15-0.4,2.24,0,3.38,0.29c1.31,0.33,2.66,0.54,3.99,0.75c1.39,0.22,2.77,0.14,4.17,0.12c1.18-0.02,2.28-0.63,3.47-0.53c0.68,0.06,1.13,0.22,1.36,0.96c0.5,1.61,1.11,3.1,1.84,4.62c0.34,0.71,0.79,1.38,0.89,2.18c0.1,0.77-0.06,1.56-0.06,2.33c-1.19-0.01-1.83-1.54-2.31-2.41c-0.41-0.74-0.77-1.52-1.06-2.32c-0.2-0.56-0.26-1.37-0.68-1.82c-0.58-0.63-0.66-0.72-1.51-0.76c-0.94-0.05-1.87,0.23-2.79,0.39c-1.2,0.21-2.32-0.07-3.52-0.14c-1.04-0.07-2.09-0.24-3.08-0.59c-0.99-0.36-2.12-0.94-3.14-0.35c-1.59,0.93-3.29,1.86-5.07,2.36c-1.91,0.54-3.91,0.7-5.82,1.27c0.4,1.61,1.25,3.12,2.1,4.53c0.78,1.29,1.87,2.66,1.86,4.24c-0.43-0.01-1.37,0.09-1.69-0.31c-1.16-1.5-0.48-3.82-1.79-5.22c-0.41-0.44-1.04-0.5-1.55-0.76c-0.54-0.28-0.9-0.68-1.24-1.18C305.51,343.35,305.23,342.03,304.89,340.69M307.35,350.7c-0.26-0.08-0.57-0.24-0.85-0.13c-0.21,0.08-0.59,0.48-0.41,0.76C306.52,351.98,307.2,351.01,307.35,350.7M348.35,349.63c-0.69-0.48-1.03-1.16-0.99-2c-0.5,0.28-0.88,0.73-1.36,1.04c-0.5,0.32-0.65,0.15-0.59,0.77c0.03,0.32-0.03,0.93,0.15,1.21c0.41,0.68,0.89,1.18,1.67,0.48C347.68,350.73,348.24,350.24,348.35,349.63M329.1,349.29c0.16,0.01,1.99,0.28,1.99,0.37c0,0.31-0.09,0.49-0.2,0.78c-0.15,0.4-0.9,0.53-1.25,0.37C329.17,350.56,329.19,349.73,329.1,349.29M317.1,350.73c0-0.43,0.05-0.87,0.25-1.25c-0.33,0.16-0.67,0.33-1,0.49c-0.01-0.38,0.06-0.67,0.31-0.95c0.14-0.16,0.86-0.14,0.93,0.08C317.83,349.78,318.27,350.76,317.1,350.73M326.11,348.28c0.47,0.13,1.53,0.33,1.5,0.9c-0.01,0.1-0.17,0.44-0.22,0.49c-0.33,0.27-1.09,0.2-1.34-0.12C325.78,349.23,325.93,348.62,326.11,348.28M321.86,348.5c0.63-0.27,1.32-0.63,2-0.74c0.16,0.53,0.28,1.43-0.34,1.72C322.84,349.8,322,349.19,321.86,348.5M318.61,348.49c0.48-0.11,0.79-0.18,0.97-0.66c0.1-0.27,0.98,0.38,0.88,0.71c-0.15,0.53-0.14,1.2-0.86,1.13C319.04,349.62,318.61,349.01,318.61,348.49M365.86,346.87c-1.02,0.07-2.29,0.26-3.24-0.24c-0.47-0.24-0.87-0.63-0.78-1.12c0.2-1.1,1-2.11,1.63-3c0.66-0.92,1.4-1.78,2.25-2.51c0.87-0.75,1.87-1.4,2.9-1.92c0.91-0.46,2.42-0.99,3.42-0.62c0.45,0.17,0.38,0.19,0.41,0.68c0.08,1.59-1.5,3.58-2.44,4.76C368.77,344.42,367.59,345.9,365.86,346.87M369.12,346.22c0.04-1.67,1.41-2.99,2.26-4.3c1.07-1.66,2.22-3.53,2.79-5.43c0.7,0.5,0.72,1.8,0.74,2.57c0.03,1.27-0.32,2.51-0.84,3.66C373.22,344.58,371.52,346.98,369.12,346.22M359.12,345.16c0.42-1.5,1.46-2.78,2.43-3.96c1.04-1.26,2.18-2.41,3.47-3.41c1.3-1.02,2.68-1.89,4.27-2.38c1.35-0.41,3.04-0.88,4.38-0.19c-0.45,1.32-2.2,1.45-3.35,1.67c-1.68,0.32-3.24,1.21-4.48,2.37c-1.37,1.27-2.68,2.75-3.69,4.32C361.45,344.67,360.57,346.21,359.12,345.16M303.14,340.42c0.94,0.03,1.17,1.09,1.43,1.8c0.16,0.42,1.27,2.48,0.4,2.59C303.61,345,303.14,341.37,303.14,340.42M301.4,338.91c1.1,0.21,1.2,1.8,1.41,2.66c0.19,0.82,1.01,2.55,0,3.14c-0.3,0.17-1.26-0.04-1.32-0.45C301.21,342.53,301.39,340.66,301.4,338.91M296.88,343.65c0.05-1.95,1.98-3.97,3.03-5.49c0.86,0.5,0.97,1.81,1.01,2.69c0.04,0.89,0.19,2.35-0.29,3.12C300.02,344.97,297.62,343.84,296.88,343.65M320.98,321c0.71-0.38,2.49-0.28,2.21,0.91c-0.25,1.07-0.98,1.99-2.24,1.77c-0.55-0.1-1.08-0.02-1.37-0.51c-0.27-0.47-0.8-1.08-0.83-1.63c-0.06-1.36,0.21-2.53,1.15-3.54c0.87-0.93,1.41-1.83,2.61-2.38c1.27-0.57,2.65-1.03,4.04-1.05c1.56-0.02,3.23-0.24,4.75,0.21c4.35,1.34,6.79,5.4,7.52,9.73c0.3,1.78,0.41,3.59,0.66,5.38c0.12,0.84,0.22,1.52,0.08,2.35c-0.14,0.83,0.07,1.75,0.13,2.58c0.1,1.62,0.2,3.27,0.42,4.88c0.11,0.78,0.22,1.57,0.34,2.34c0.11,0.71,0.55,1.58,0.41,2.3c-1.7,0.06-1.7-2.89-1.83-4c-0.28-2.4-0.5-4.85-0.62-7.26c-0.11-2.4-0.09-4.75-0.57-7.12c-0.44-2.19-1.3-4.23-2.49-6.12c-1.63-2.58-4.97-3.79-7.88-3.81c-2.19-0.02-4.88,0.83-6.18,2.73C320.76,319.56,320.79,320.12,320.98,321M355.63,344.15c-0.03-2.24,1.87-4.08,3.15-5.73c1.63-2.1,3.37-4.18,5.4-5.9c1.92-1.62,4.15-2.83,6.46-3.8c1.17-0.49,2.41-0.89,3.68-0.94c1.23-0.05,2.57-0.24,3.72,0.31c0.41,0.2,0.39,0.07,0.3,0.55c-0.2,0.94-1.32,2.14-1.98,2.8c-0.75,0.75-1.68,1.42-2.67,1.82c-0.67,0.28-0.76,0.18-1.04-0.45c-0.22-0.51-0.62-1.07-0.72-1.6c-0.74,0.81-1.41,1.81-1.91,2.79c-0.38,0.75-2.32-1.43-2.84-1.56c0,0.96-0.12,2.04-0.49,2.94c-0.12,0.28-2.45-0.98-2.77-1.2c-0.29,0.95,0.57,3.67-1.17,3.34c-0.6-0.12-1.6-0.44-1.75,0.38c-0.13,0.74,0.09,1.43,0.03,2.18c-0.06,0.78-1.15,0.52-1.63,0.64c-1.87,0.46,0.03,2.77-1.56,3.18C357.06,344.11,356.43,344.15,355.63,344.15M338.38,344.07c-0.48-0.54-1.7-2.76-0.32-2.75C338.65,341.32,338.68,343.7,338.38,344.07M342.63,343.78c-1.82,0.16-2.04-3.09-2.14-4.28c-0.25-3.05-0.08-6.13-0.46-9.18c-0.38-3.12-0.42-6.45-1.64-9.39c-1.02-2.47-2.9-5.35-5.43-6.47c-0.84-0.37-1.7-0.68-2.6-0.84c-0.86-0.16-2.02-0.46-2.89-0.3c-1.04,0.19-2.09,0.28-3.11,0.57c-0.47,0.13-2.02,0.92-2.31,0.17c-0.42-1.04,0.02-2.27,0.3-3.29c0.15-0.55,1-0.34,1.4-0.34c1.09,0,2.19,0.09,3.26,0.3c2.21,0.45,4.44,0.76,6.64,1.27c2.19,0.51,4.36,1.22,6.47,2.01c1.67,0.63,3.94,1.24,5.22,2.55c0.53,0.55,1.12,1.07,1.5,1.74c0.49,0.87,0.46,2.01,0.57,2.98c0.23,2.19,0.1,4.46,0.17,6.66c0.07,2.11-0.19,4.19-0.15,6.31c0.04,2.21,0.16,4.46-0.04,6.67c-0.08,0.86-0.5,1.36-1.28,1.68C344.97,343.07,343.8,343.46,342.63,343.78M354.13,343.49c-0.87-0.17-2.34-0.85-2.11-1.95c0.31-1.43,1.15-2.71,1.91-3.94c0.89-1.45,1.92-2.8,2.95-4.16c1.89-2.51,4.09-4.63,6.74-6.34c2.51-1.62,5.47-3.12,8.42-3.71c1.69-0.34,3.41-0.58,5.14-0.56c1.36,0.02,3.54-0.12,4.59,0.9c0.3,0.29,0,1.15-0.25,1.47c-0.68,0.89-1.37,1.85-2.47,2.2c-1.04,0.33-2.25-0.33-3.31-0.35c-1.37-0.04-2.72,0.16-4.01,0.62c-2.67,0.95-5.4,2.51-7.57,4.32c-2.22,1.85-4.29,3.92-6,6.25c-0.74,1.01-1.55,2.02-2.13,3.13C355.64,342.11,355.12,343.46,354.13,343.49M348.7,326.13c1.09,0.59,1.46,1.88,2.49,2.51c-0.22-1.37-1.24-2.61-2.09-3.65c-0.68-0.84-0.81-3.04,0.37-3.6c0.25,0.52,0.2,1.19,0.24,1.75c0.34-0.05,0.67-0.15,1-0.25c0,0.58,0,1.17-0.01,1.75c1.34,0.04,2.04-1.02,2.86-1.89c1.02-1.07,2.11-2.27,3.43-2.97c1.05-0.55,2.63-1.03,3.04-2.27c0.48-1.45,0.42-2.97,1.21-4.33c1.26,0.69,0.89,2.21,0.63,3.35c-0.21,0.92,0.02,2.83-0.89,3.38c-1.92,1.15-4.07,2.25-5.66,3.86c-1.18,1.19-3.08,2.85-3.16,4.63c0.88-0.98,1.58-2.11,2.41-3.13c0.78-0.95,1.74-1.68,2.75-2.36c0.86-0.58,1.68-1.07,2.63-1.49c0.77-0.34,1.67-0.77,1.97-1.63c0.44-1.28,0.23-2.71,1.04-3.86c0.85,0.52,1.37,1.42,1.96,2.19c0.67,0.89,1.59,1.54,2.49,2.19c2.53,1.81,6.42,0.68,9.16,0.06c1.72-0.39,3.43-0.81,5.14-1.24c1.19-0.3,2.75-1.12,3.99-0.85c-0.63,1.68-1.75,4.94-4.05,4.44c-3.48-0.74-6.69-0.9-10.15,0.01c-3.29,0.86-6.44,2.35-9.18,4.36c-2.66,1.95-4.91,4.41-6.9,7.02c-1.09,1.43-2.06,2.91-3.01,4.44c-0.58,0.94-1.03,2.72-2.06,3.25c-2.14,1.09-1.84-2.72-1.77-3.82C348.81,334.05,348.77,330.06,348.7,326.13M354.89,341.4c-0.13-0.43-0.43-0.56-0.81-0.73c-0.66-0.3-0.44,0.58-0.45,0.97C354.06,341.65,354.5,341.59,354.89,341.4M337.43,332.82c0.02,1.36,0.4,2.68,0.45,4.03c0.02,0.71,0.14,1.43,0,2.13c-0.06,0.29,0.01,0.91-0.27,1.1c-0.19,0.13-0.71,0.67-0.95,0.43c-0.55-0.53-0.77-1.23-1-1.94c-0.2-0.59-0.63-1.4-0.43-2.04C335.54,335.53,336.19,333.05,337.43,332.82M304.65,338.92c0.12-0.69,0.29-1.47,0.61-2.1c0.21-0.4,0.2-0.47,0.65-0.18c0.45,0.29,1.17,1.16,1.2,1.71c0.05,0.68,0.12,0.68-0.51,0.96C306.02,339.57,305.13,339.28,304.65,338.92M309.4,339.21c-0.53-1.01,0.96-4.73,2.13-3.12c0.42,0.58,1.08,1.7,0.5,2.36C311.61,338.92,309.97,339.06,309.4,339.21M303.4,339.17c-1.02-0.55-2.04-1.8-1.99-3.01C302.25,336.33,303.95,338.31,303.4,339.17M307.9,338.45c-0.88-1.24-2.08-2.66-1.6-4.31c0.28-0.96,0.63-1.89,0.95-2.83c0.12-0.35,0.58-1.67,1.06-0.9c0.61,0.97,2,2.86,1.69,4.04C309.77,335.31,309.09,338.67,307.9,338.45M356.6,338.15c0.19-0.13,0.48-0.43,0.38-0.7c-0.12-0.33-0.63-0.27-0.96-0.32C356.02,337.56,355.84,338.58,356.6,338.15M303.9,337.92c-0.78-0.95-1.26-1.57-1.65-2.72c-0.16-0.49,0.85-2.64,1.45-2.43C305.5,333.4,305.3,337.05,303.9,337.92M313.9,337.73c0.13-0.8,0.45-1.58,0.72-2.34c0.33-0.94,1.1-1.19,1.79-0.4C317.89,336.66,315.29,337.73,313.9,337.73M312.91,337.22c-0.61-0.82-1.71-2.06-1.69-3.16c0.03-1.3,0.73-2.64,1.12-3.85c0.13-0.41,0.12-0.62,0.61-0.37c0.97,0.5,1.94,2.57,1.75,3.59C314.47,334.59,314.05,336.57,312.91,337.22M329.41,337.04c0-1.14,0.66-2.13,1.14-3.11c0.4-0.8,0.81-1.69,1.64-2.13c0.86,1.41,1.58,2.62,1.51,4.31C333.64,337.06,329.99,337.03,329.41,337.04M325.68,331.53c0.83-0.16,1.04,1.43,1.24,1.98c0.43,1.15,0.99,2.27,0.99,3.53c-0.95-0.01-2.7,0.22-3.53-0.32c-0.5-0.34-0.46-0.37-0.49-0.97c-0.03-0.8,0.42-1.5,0.77-2.18C325,332.89,325.27,332.17,325.68,331.53M328.41,336.04c-0.55-1.75-2.04-3.63-2.03-5.51c0.01-1.1,0.72-2.1,1.15-3.08c0.21-0.49,0.54-2.06,1.31-1.79c0.78,0.28,1.12,1.32,1.42,2c0.43,0.96,1.16,2.02,1,3.13c-0.18,1.17-0.79,2.23-1.22,3.32C329.78,334.75,329.31,336.12,328.41,336.04M318.66,335.49c0.04-0.96,0.52-2.26,1.08-3.05c0.65-0.97,1.12-0.12,1.42,0.63c0.31,0.79,0.9,2.05,0.75,2.92C320.85,336.04,319.66,335.31,318.66,335.49M317.41,335.48c-0.83-0.87-1.64-1.74-1.59-2.99c0.05-1.19,0.54-2.38,0.87-3.52c0.56,0.55,0.75,1.77,0.99,2.5c0.67-0.81,0.63-1.73,0.76-2.75c1.48,0.78,1.02,2.23,0.81,3.57C319.09,333.34,318.35,334.94,317.41,335.48M334.41,335.31c-0.49-1.58-1.71-2.87-1.9-4.56c-0.11-0.84,0.55-1.68,0.85-2.42c0.23-0.6,0.56-1.61,1.31-1.72c0.5-0.08,0.85,1.07,0.99,1.39c0.4,0.93,1.02,1.76,1.02,2.82c0.01,1.05-0.5,2-0.88,2.95C335.58,334.36,335.2,335.4,334.41,335.31M322.41,335.25c-0.54-1.74-2.12-3.67-1.41-5.56c0.38-0.99,0.84-1.95,1.24-2.94c0.18-0.44,0.3-0.63,0.77-0.34c0.46,0.29,0.81,0.7,1.18,1.1c-0.21-0.59-1.08-1.67-0.94-2.28c0.25-1.08,0.51-2.12,0.89-3.16c0.22-0.6,0.45-1.73,1.08-2.06c0.95-0.49,2.59,3.91,2.81,4.43c0.31,0.73-0.37,1.77-0.69,2.4c-0.24,0.48-0.53,0.96-0.72,1.47c-0.08,0.22-0.2,0.86-0.43,0.96c-0.52,0.22-1.7-1.43-1.99-1.76c0.15,0.76,0.69,1.37,0.88,2.13c0.18,0.72,0.14,1.42-0.07,2.14C324.68,332.86,323.76,335.24,322.41,335.25M359.8,334.16c0-0.34,0-0.67,0-1.01c-0.43,0-0.91-0.11-1.01,0.42C358.68,334.2,359.38,334.12,359.8,334.16M305.17,333.94c-0.25-0.55-0.48-1.1-0.62-1.69c-0.13-0.61,0.15-1.21,0.3-1.78c0.14-0.55,0.63-0.96,0.94-1.42c0.33-0.5,0.62-1.05,1.16-1.35c0.36,1.2,0.4,1.98-0.01,3.21C306.7,331.62,306.21,334.14,305.17,333.94M310.17,332.96c-0.57-1.63-1.77-2.93-1.64-4.74c0.11-1.66,0.91-3.44,1.44-5.02c1.28,1.03,1.76,3.49,2.18,4.98c0.27,0.95-0.46,1.99-0.69,2.89C311.31,331.66,311.07,333.13,310.17,332.96M315.71,325.23c-0.24,1-1.25,1.37-0.76,2.5c0.42-0.23,0.76-0.5,0.99-0.93c0.09-0.17,0.35-0.85,0.62-0.8c0.96,0.18,1.62,0.51,1.89,1.49c-0.39-0.15-0.73-0.25-1.15-0.26c-0.1,0-0.57-0.86-0.85-1c0.09,0.79-0.52,1.39-0.75,2.09c-0.34,1.04-0.01,2.31-0.27,3.4c-1-0.14-2.21-2.47-2.14-3.39c0.06-0.81,0.03-1.64,0.57-2.32C314.21,325.57,315.14,325.11,315.71,325.23M363.44,329.44c-0.26-0.04-0.59,0-0.8,0.18c-0.18,0.16-0.39,0.7-0.21,0.94c0.15,0.19,0.73,0.12,0.82-0.09C363.41,330.13,363.41,329.81,363.44,329.44M319.94,329.49c-0.45-0.89-0.68-2.03-0.97-2.98c-0.37-1.21,0.48-2.09,1.74-2.01c1.44,0.09,1.34,1.29,0.94,2.32C321.39,327.49,320.91,329.69,319.94,329.49M337.19,329.32c-0.82-0.76-1.29-1.9-1.79-2.88c-0.64-1.26,0.1-2.12,0.32-3.37c1.05,0.22,1.14,2.03,1.26,2.85C337.11,326.82,337.92,328.54,337.19,329.32M331.69,329.3c-0.96-1.56-1.91-2.98-2.36-4.78c-0.2-0.82,0.52-1.87,0.87-2.57c0.26-0.51,0.62-1.73,1.52-1.15c0.35,0.22,0.8,1.39,0.99,1.74c0.44,0.8,0.83,1.63,1.08,2.51c0.26,0.91-0.48,1.81-0.78,2.62C332.82,328.17,332.46,329.45,331.69,329.3M367.39,327.96c0.63-0.27,0.11-1.68-0.64-1.26C366.16,327.04,366.65,328.34,367.39,327.96M319.21,325.24c-0.27,0.51-0.02,2.08,0.74,1.63C320.91,326.32,319.86,325.44,319.21,325.24M312.45,326.72c-0.27-0.16-0.25-0.4-0.25-0.67c0-0.19,0.65-0.08,0.75-0.07C312.83,326.26,312.73,326.53,312.45,326.72M371.34,326.23c0.05-0.15,0.27-0.56,0.23-0.7c-0.06-0.18-0.57-0.42-0.74-0.31C370.29,325.56,370.85,326.51,371.34,326.23M379.2,326c0.02-0.18,0-1.14-0.24-1.25c-0.45-0.2-0.89,0.77-1,1C378.34,325.96,378.78,325.99,379.2,326M375.71,324.49c-0.5,0-1.95-0.04-1.25,0.72C375.04,325.84,375.86,325.32,375.71,324.49M315.73,319.23c0.2,0,1.75-0.04,1.75,0.04c0.02,1.03,0.09,1.95,0.4,2.94c0.3,0.98,0.5,1.75,0.16,2.75c-0.17,0.49-0.99,0.04-1.17-0.35c-0.4-0.87-0.57-1.5-0.7-2.45C316.03,321.18,315.72,320.22,315.73,319.23M313.72,322.47c0.43-1.61-1.71-2.83-0.85-4.3c0.3-0.51,1.27,0.6,1.49,0.92c0.54,0.79,1.01,1.48,1.17,2.45c0.19,1.08-0.02,1.53-0.47,2.53c-0.31,0.68-1.2,0.97-1.92,0.83c-1.21-0.24-1.43-0.46-1.35-1.68c0.03-0.35-0.01-0.83,0.49-0.83C312.76,322.37,313.27,322.29,313.72,322.47M333.96,323.81c-0.52-0.97-1.14-1.88-1.65-2.87c-0.36-0.71-1.44-3.37,0.32-2.69c1.29,0.49,2.01,1.88,2.6,3c0.4,0.77-0.2,1.65-0.45,2.36C334.66,323.95,334.3,323.81,333.96,323.81M328.72,323.12c-1.13-0.71-1.87-1.84-2.45-3.03c-0.6-1.24-0.71-2.92,1.04-3.04c1.63-0.12,2.47,1.03,3.05,2.37C330.83,320.5,329.46,322.45,328.72,323.12M352.22,321.39c0.4-2.05,0.93-4,1.53-5.99c0.63,0.67,0.05,2.16-0.17,2.9C353.39,318.94,353.25,321.58,352.22,321.39M311.23,321.21c0.25-0.41,0.47-0.77,1-0.5C312.02,320.99,311.57,321.16,311.23,321.21M323.73,321.01c-0.59-0.57-1.17-0.96-1.91-1.34c-0.98-0.5,0.93-1.45,1.38-1.66c0.13-0.06,0.88-0.32,1.04-0.25c0.29,0.12,0.39,0.87,0.41,1.13C324.71,319.57,324.33,320.64,323.73,321.01M350.98,320.39c0.39-3.17,1.17-6.35,1.92-9.46c0.28-1.16,0.53-2.31,0.72-3.49c0.13-0.84,0.31-2.12,1.17-2.54c-0.17,2.96-1.11,5.99-1.74,8.88c-0.3,1.38-0.67,2.72-0.92,4.11C352.04,318.48,351.9,320.51,350.98,320.39M354.23,319.4c0.07-1.6,0.7-3.06,0.98-4.62c0.15-0.83,0.24-2.64,1.3-2.87c-0.41,1.57-0.59,3.21-1.01,4.77C355.34,317.26,355.14,319.52,354.23,319.4M349.74,319.13c0.01-1.82,0.68-3.55,1.06-5.31c0.34-1.57,0.46-3.24,1.23-4.68c0.51,0.63,0.17,1.57,0,2.25c-0.25,1.06-0.46,2.14-0.71,3.21c-0.24,1.02-0.47,2.04-0.73,3.06C350.47,318.12,350.46,319.31,349.74,319.13M355.99,318.65c-0.02-1.63,0.5-3.57,0.99-5.13c0.24-0.77,0.44-1.55,0.56-2.34c0.11-0.69,0.23-1.5,0.73-2.02c0.37,0.75-0.06,1.7-0.21,2.45c-0.21,1.02-0.44,2.04-0.6,3.07C357.28,315.9,357.23,317.98,355.99,318.65M313.75,316.72c0.41-0.01,0.95,0.11,1.04-0.39c0.11-0.65,0.11-1.07,0.48-1.62c0.24-0.35,0.88-0.3,1.25-0.29c0.54,0.01,1.08-0.15,1.49-0.51c0.82-0.72,1.17-1.94,1.6-2.9c0.14-0.3,1.38-0.43,1.6-0.21c0.31,0.32,0.06,1.51,0.05,1.93c-0.05,1.89-0.44,3.97-2.21,5c-0.91,0.53-1.87,0.79-2.93,0.74C315.16,318.41,313.75,317.86,313.75,316.72M330.49,318.3c-0.16-0.32-0.42-0.65-0.49-1c0.35,0.08,0.76,0.13,1.01,0.41C331.4,318.16,330.99,318.39,330.49,318.3M348.49,318.13c0.01-1.22,0.42-2.34,0.61-3.53c0.1-0.64,0.16-1.95,0.91-2.22c0.09,0.43-0.14,0.87-0.2,1.29c-0.1,0.71-0.21,1.4-0.35,2.1C349.35,316.35,349.37,318.25,348.49,318.13M357.74,317.41c0.01-1.06,0.37-2.08,0.62-3.09c0.19-0.76,0.16-2.05,0.62-2.7c0.1-0.15,0.01-0.42,0.22-0.44c0.26-0.02,0.33-0.02,0.34,0.24c0.03,0.66-0.15,1.35-0.28,1.99C359.01,314.61,358.93,316.77,357.74,317.41M317.12,316.98c0.47-0.36-0.1-0.98-0.51-0.76C316.08,316.51,316.77,317.16,317.12,316.98M319.38,315.99c0-0.18,0.08-1.55-0.52-0.95C318.61,315.31,318.79,316.38,319.38,315.99M320.26,313.49c0.17-0.59-0.04-1.26-0.74-1.25C319.52,312.81,319.51,313.64,320.26,313.49M316.26,313.48c0.03-1.15,0.99-2.71,2.01-3.24C318.27,311.65,318.15,313.54,316.26,313.48M346.31,302.12c1.17-0.16,0.74,2.89,0.74,3.5c0.89-0.57,1.14-2.03,2.26-2.24c0,0.59-0.32,2.78,0.23,3.25c0.39,0.32,0.64-0.31,0.77-0.57c0.24-0.49,0.76-0.93,1.24-1.17c0.58,1.15,0,2.41-0.64,3.4c-0.56,0.88-1.21,2.23-2.1,2.81c-0.89,0.6-1.43,0.22-2.29-0.31c-0.82-0.51-1.22-0.95-1.48-1.88c-0.3-1.09-0.33-2.38-0.21-3.5C344.96,304.03,345.72,303.28,346.31,302.12M354.77,310.65c0.08-1.69,0.24-3.96,1.03-5.49c0.76,0.47,0.3,1.84,0.14,2.51C355.69,308.7,355.53,309.84,354.77,310.65M319.78,309.74c0.01-1.53-0.04-3.4,1.52-4.24c0.01,0.42,0.14,0.83,0.15,1.25c0,0.51-0.14,1.02-0.13,1.53c0.01,0.32,0.2,1.21-0.04,1.47C321.13,309.91,320.02,309.74,319.78,309.74M365.8,303.45c0.86-0.14,1.06-0.7,1.51-1.38c0.46-0.71,0.35-1,0.26-1.86c0.66,0.17,2.4,1.33,2.86,0.51c0.16-0.29,0.91-1.22,0.83-1.54c-0.12-0.5-0.29-0.97-0.43-1.46c0.79,0,1.35,0.21,2.11-0.18c0.76-0.38,1.41-0.87,2.27-0.51c1.99,0.79,3.92,2.23,5.67,3.46c1.88,1.32,3.52,2.95,5.39,4.27c0.25,0.18-0.58,0.9-0.73,0.97c-2.27,1.07-4.67,1.67-7.1,2.27c-2.51,0.63-5.02,1.4-7.62,1.45c-1.47,0.03-2.5-0.91-3.24-2.1C366.86,306.23,365.76,304.84,365.8,303.45M362.79,307.19c0.36-0.22,0.62-0.5,0.88-0.83c0.24-0.31,0.67,0.19,0.87,0.44c0.48,0.61,1.42,1.82,1.24,2.65c-0.88-0.14-1.72-0.41-2.57-0.63c-0.49-0.13-1.4-0.25-1.67-0.75c-0.49-0.92-0.93-1.37,0.1-1.97c0.3-0.18,0.57-0.36,0.83,0.02C362.68,306.44,362.85,306.78,362.79,307.19M341.8,303.59c-1.21,0.61-1.83,2.95-3.26,3.03c-0.46,0.02-1.09-0.4-1.16-0.85c-0.22-1.38,0.83-3.16,1.27-4.44c0.62-1.79,1.23-3.57,1.91-5.34c0.68-1.76,1.44-3.48,2.17-5.22c0.38-0.9,0.73-2.95,1.89-3.16c-0.61,3.41-0.3,6.9-0.3,10.34c0,0.8-0.08,1.58-0.17,2.37c-0.09,0.83,0.04,1.65,0.03,2.48c-0.02,1.93-0.14,3.87-0.16,5.81c-1.02-0.09-2.33-0.21-2.34-1.49C341.69,305.94,341.8,304.78,341.8,303.59M359.56,302.16c0.64-0.34,0.69-0.88,0.36-1.44c-0.42-0.74-0.98-0.9-1.62-1.42c-0.72-0.58-0.74-0.92-0.28-1.74c0.17-0.31,0.35-0.5,0.62-0.72c0.4-0.33,0.52-0.06,0.72,0.28c0.83,1.39,1.36,2.95,2.21,4.32c0.55,0.88,1.72,2.1,1.48,3.24c-1.34-0.03-2.71-0.59-3.83-1.28c-0.5-0.31-0.81-1.06-0.77-1.62c0.01-0.15,0.55-0.48,0.69-0.42C359.43,301.51,359.56,301.84,359.56,302.16M325.3,303.76c0-0.97-0.01-1.8-0.24-2.75c-0.57,0.86-0.42,2.22-1.45,2.64c-0.17,0.07-0.97,0.03-1.07-0.16c-0.24-0.47,0.67-1.36,0.89-1.72c0.69-1.12,1.37-2.25,2.06-3.37c0.69-1.1,1.4-2.19,2.02-3.33c0.51-0.94,1.06-2.04,2.07-2.54c-0.02,1.85-0.3,3.58-0.59,5.39c-0.15,0.95-0.15,1.91-0.3,2.86c-0.11,0.68,0.01,1.67-0.36,2.28c-0.31,0.51-0.62,1.03-1.33,0.93C326.51,303.94,325.79,303.69,325.3,303.76M386.55,304.04c-0.43-0.81-0.31-1.87-0.22-2.75c0.13-1.29,0.25-2.56,0.26-3.85c0-2.51-0.18-4.96-0.63-7.43c-0.7-3.79-1.95-7.93-5.56-9.92c-3.02-1.66-6.35,0.71-7.4,3.66c-1.13,3.2-1.62,6.33-1.64,9.71c-1.86-0.01-1.23-3.11-1.04-4.19c0.46-2.57,0.8-5.21,2.03-7.55c0.85-1.61,2.67-3.99,4.73-3.98c2.66,0,5.7,0.88,7.18,3.29c1.59,2.59,2.14,5.49,2.58,8.46c0.46,3.06,1.11,6.16,0.99,9.27c-0.05,1.15-0.18,2.31-0.27,3.46C387.52,302.75,387.42,304.2,386.55,304.04M345.32,298.61c1.49,0.47,2.81,1.34,4.21,1.99c1.43,0.66,3.03,0.95,4.44,1.63c0.44,0.22,0.35,0.74-0.07,1.05c-0.78,0.57-2.08,0.09-2.89-0.19c-1.05-0.37-2.05-0.86-3.06-1.32C346.86,301.27,344.46,300.19,345.32,298.61M372.08,296.98c-1.27-0.05-1.99-1.44-3.24-1.52c-0.03,0.94,0.64,1.71,1.14,2.44c0.37,0.54,1.05,1.55,0.13,1.93c-0.54,0.22-0.66,0.38-1.15,0.1c-1.07-0.59-1.91-1.98-3.12-2.24c0,0.72,0.26,1.39,0.52,2.05c0.2,0.52,0.73,1.26,0.61,1.83c-0.11,0.53-0.7,0.73-1.12,1.01c-0.68,0.44-1.7-1.22-1.93-1.64c-0.27-0.5-0.36-0.88-0.43-1.44c-0.1-0.87,1.59-1.71,2.17-2.09c1.08-0.71,2.06-1.75,2.91-2.73c0.72-0.82,1.42-0.95,2.33-0.25C371.73,295.06,371.9,296.03,372.08,296.98M347.61,290.87c0.58,1.18,0.49,2.72,0.48,4c1.03-0.68,1.48-2.5,2.76-2.74c0.01,0.73,0.27,1.42,0.25,2.16c-0.01,0.33-0.09,1.57,0.22,1.84c0.32,0.26,0.55-0.13,0.64-0.33c0.2-0.46,0.54-0.84,0.81-1.26c0.26-0.41,0.35-0.89,0.54-1.33c0.15-0.36,0.88,0.6,0.92,0.77c0.27,1.15,0.09,2.49,0.08,3.67c0.88-0.58,1.43-2.03,2.51-2.24c-0.04,1.12,0.22,2.09-0.01,3.21c-0.15,0.71-0.97,2.23-1.59,2.67c-1.22,0.85-3.08,0.05-4.28-0.45c-1.59-0.67-3.18-1.39-4.62-2.35c-1.01-0.67-1.24-1.4-1.26-2.57C345.06,294.08,345.88,291.78,347.61,290.87M365.56,301.45c-0.02-0.39-0.36-0.72-0.75-0.75C364.76,301.21,365.1,301.4,365.56,301.45M374.09,295.23c0.47-0.24,1-0.34,1.5-0.49c-0.46-0.88-1.58-1.5-1.88-2.42c-0.19-0.58,0.43-0.5,0.9-0.47c0.59,0.04,1.15,0.12,1.74,0.14c-0.06-1.84-1.99-3.36-1.98-5.26c1.06,0.19,1.87,0.98,2.91,1.22c0.38,0.09,0.61-0.43,0.81-0.67c0.82-1.03,0.46-2.85,1.03-4.03c0.79,0.55,0.84,2.2,1.02,3.05c0.16,0.74,0.4,2.93,1.5,2.99c0.91,0.04,1.79,0.04,2.69,0c-0.45,1.58-1.94,2.58-2.34,4.17c-0.16,0.72,1.76,1.73,2.12,2.24c0.33,0.47,0.62,0.73,0.03,1.03c-0.81,0.42-2.42,0.4-2.61,1.54c1.09,0.23,2.71,1.89,2.74,3.01c-0.96,0.03-1.77-0.47-2.54-0.99c-0.83-0.57-1.73-1.04-2.56-1.62c-0.85-0.59-1.71-1.16-2.59-1.7C375.73,296.42,374.78,295.99,374.09,295.23M369.82,299.22c0.03-0.13-0.03-0.93-0.31-0.7c-0.24,0.2-0.32,0.41-0.44,0.69C369.32,299.22,369.57,299.22,369.82,299.22M383.08,298.03c0.74-0.41,1.49,0.23,1.5,1.01C383.95,299.06,383.16,298.72,383.08,298.03M363.58,297.84c-0.38-0.09-0.77-0.18-1.15-0.27c-0.36-0.09-0.45-0.93-0.26-1.17c0.46-0.62,1.28-0.86,1.89-1.29c0.78-0.56,2.83-3.37,3.89-2.78c0.44,0.25,0.76,0.3,0.7,0.87c-0.11,0.95-1.28,1.99-1.94,2.62C365.8,296.68,364.7,297.3,363.58,297.84M372.33,297.23c0.12-0.52,0.23-1,0.75-1.25C373.17,296.49,372.84,297.07,372.33,297.23M379.59,296c0.66-0.31,0.87-1.71,0.73-2.38c-0.08-0.43-0.03-1.04-0.45-1.22c-0.41-0.17-1.04-0.63-1.47-0.43c-0.81,0.38-0.81,1.84-0.78,2.58c0.03,0.51,0.16,0.84,0.61,1.09C378.56,295.82,379.21,296.3,379.59,296M379.09,295.33c-0.47,0.04-0.7-0.63-0.73-1.01c-0.05-0.6,0.23-1.01,0.69-1.3c0.38-0.24,0.8,0.84,0.8,1.11C379.84,294.47,379.43,295.25,379.09,295.33M372.69,271.48c-0.16,0.85-1.01,1.27-1.7,1.64c-0.96,0.51-1.61,1.35-2.39,2.08c-1.13,1.03-0.64,3.57-0.67,4.91c-0.04,1.92-0.19,3.84-0.58,5.72c-0.33,1.6-1.05,3.68-2.99,3.62c0.54,0.63,1.92,1.76,1.56,2.76c-0.32,0.88-1.51,1.73-2.26,2.25c-0.65,0.45-1.53,0.93-2.35,0.76c-0.92-0.19-1.22-1.21-1.13-2.03c0.24-2.11,1.71-4.08,2.61-5.95c1.08-2.22,1.57-4.62,2.28-6.96c0.36-1.17,0.87-2.27,1.27-3.42c0.36-1.02,0.55-2.11,1.12-3.05C368.62,271.88,370.57,271.47,372.69,271.48M382.85,293.78c0.04-1.3,1.59-0.83,2,0.01C384.19,294.12,383.53,293.91,382.85,293.78M345.37,287.36c1.14-0.61,3.04,0.97,4.01,1.47c1.64,0.84,3.28,1.67,4.99,2.36c1.14,0.45,2.35,0.75,3.45,1.3c0.36,0.18,1.89,1,0.87,1.35c-1.16,0.41-2.65-0.4-3.71-0.83c-1.44-0.59-2.8-1.33-4.21-1.99C349.17,290.26,345.7,289.47,345.37,287.36M345.65,280.36c0.62,0.75-0.04,2.05,0.49,2.85c0.38,0.57,0.85-0.58,0.96-0.81c0.27-0.55,0.66-1.36,1.31-1.53c0,1.09,0.24,2.15,0.24,3.25c1.08-0.21,1.56-1.72,2.51-2.24c0.57,1.13,0.09,2.55,0.48,3.75c0.7-0.76,1.44-2.28,2.51-2.49c0.31,1.25,0.22,2.49,0.48,3.75c0.69-0.76,1.44-2.29,2.51-2.49c0.25,0.99,0.3,2.03,0.57,3.02c0.13,0.48,0.44,0.72,0.83,0.16c0.48-0.7,0.81-1.48,1.59-1.92c0.23,1.16,0.29,2.38,0.46,3.55c0.13,0.99-0.22,1.9-0.84,2.66c-0.7,0.84-2.13,0.14-2.94-0.14c-1.54-0.57-3.03-1.19-4.5-1.93c-1.47-0.74-2.92-1.52-4.36-2.31c-0.99-0.54-2.23-1.08-2.37-2.35c-0.1-0.83-0.21-1.66-0.18-2.49C345.42,281.87,345.71,281.12,345.65,280.36M373.11,289.23c1.17,0.09,1.93,0.57,2.24,1.76C374.19,290.79,373.14,290.69,373.11,289.23M368.61,289.21c-0.35-0.66-0.26-1.46-0.24-2.17c0.02-1.02,0.01-2.04,0.02-3.06c0.01-0.91,0.26-1.78,0.25-2.69c-0.01-0.77-0.1-1.61,0.26-2.32c0.58,0.35,0.58,1.33,0.53,1.91c-0.08,0.99-0.28,1.94-0.3,2.93c-0.02,1.1-0.04,2.2-0.01,3.29C369.14,287.75,369.24,288.79,368.61,289.21M382.63,285.01c0.48,0.28,0.02,1.69,0,2.23c-0.02,0.67-0.06,2.05-0.99,1.27C380.56,287.59,381.23,285.25,382.63,285.01M394.87,287.57c0.17-0.6,0.08-1.14,0.01-1.75C393.79,285.82,393.79,287.58,394.87,287.57M376.39,282.49c0.7,0.43,1.28,1.26,1.38,2.08c0.04,0.33,0.21,2.83-0.5,2.65C375.48,286.79,376.11,283.81,376.39,282.49M369.88,285.47c0.01-1.24-0.01-2.49,0.16-3.73c0.14-1.07-0.15-2.27,0.37-3.27c0.95,0.57,0.55,2.49,0.49,3.37C370.87,282.39,370.77,285.68,369.88,285.47M395.65,280.32c-0.55,0.06-0.92-0.52-0.99-1c-0.48,0.13-0.7,0.57-1.06,0.85c-0.33,0.25-0.79,0.36-0.63,0.88c0.31,1.02,0.71,1.95,0.92,3.01c-0.79-0.09-1.54,0.42-1.51,1.24c0.62,0.02,1.04-0.14,1.61-0.37c0.63-0.25,0.84-1.22,1.08-1.78C395.44,282.27,395.69,281.29,395.65,280.32M345.92,276.36c1.28,0.23,2.45,1.16,3.63,1.68c1.5,0.66,2.98,1.37,4.48,2.02c2.85,1.25,5.92,2.12,8.71,3.49c0.33,0.16,0.48,0.06,0.34,0.51c-0.05,0.18-0.21,0.33-0.38,0.39c-1.08,0.36-2.18-0.14-3.19-0.5c-1.08-0.39-2.16-0.81-3.21-1.27c-2-0.87-3.93-1.92-5.94-2.75C349.21,279.46,344.87,278.31,345.92,276.36M346.46,266.62c-0.01,1.67-0.02,3.33-0.02,5c1.06-0.61,1.46-1.91,2.51-2.49c0.55,1.09,0.24,2.83,0.23,4c1.16-0.76,1.65-2.54,3.01-2.99c0.67,1.32,0.49,3.32,0.47,4.75c0.66-0.38,1.11-0.98,1.54-1.59c0.21-0.29,0.76-1.25,1.22-1.15c0.47,0.1,0.46,1.17,0.48,1.51c0.05,0.92-0.04,1.85,0.26,2.74c0.91-1.01,1.77-2.63,3.01-3.24c0.66,1.37,0.49,3.03,0.48,4.5c1.13-0.66,1.67-2.51,3.01-2.74c0.27,1.44,0.49,2.79,0.48,4.25c0.88-0.53,1.33-1.53,2.26-1.99c0,1.27-0.47,2.42-0.84,3.61c-0.18,0.57-0.54,2.24-1.34,2.25c-1.74,0.01-3.46-1.1-5.06-1.69c-1.79-0.65-3.54-1.45-5.28-2.23c-1.63-0.74-3.31-1.46-4.87-2.34c-1.15-0.65-2.34-1.25-2.49-2.7c-0.09-0.91,0.08-1.83-0.01-2.75c-0.07-0.7-0.08-1.4-0.11-2.1C345.38,268.43,345.26,266.61,346.46,266.62M371.65,280.73c0.01-0.79-0.12-1.76,0.26-2.5C372.74,278.72,372.35,280.29,371.65,280.73M373.16,278.73c-0.01-0.53,0.16-1.14,0.76-1.25C373.97,278.06,373.87,278.87,373.16,278.73M368.42,276.46c0.66,0.02,1.31-0.09,1.96-0.17c0.63-0.07,1.19,0.34,1.79,0.43c-0.17,0.78-1.55,0.97-2.19,1.15C368.91,278.17,368.38,277.46,368.42,276.46M381.17,277.51c-0.78-0.73-0.86-3.48-0.28-4.32c0.59-0.85,0.64,1.04,0.62,1.27C381.43,275.36,381.75,276.79,381.17,277.51M375.17,277.23c-0.8-0.62-0.46-2.53-0.21-3.39c0.05-0.17,0.24-0.13,0.38-0.09c0.2,0.05,0.09,0.72,0.09,0.82C375.44,275.32,375.67,276.6,375.17,277.23M379.42,276.75c-0.4-0.76-0.63-3.84,0.52-4C379.93,273.67,380.35,276.14,379.42,276.75M378.17,276.74c-0.81-0.65-0.82-3.6,0.27-4c0,0.69-0.01,1.38-0.01,2.07C378.43,275.42,378.58,276.23,378.17,276.74M376.67,276.74c-0.74-0.58-0.87-3.52,0.27-3.75C376.93,273.92,377.3,275.96,376.67,276.74M368.92,275.96c0.03-0.81,0.78-1.9,1.55-2.13c1.14-0.34,1.93-0.16,3.07,0.12c0.43,0.11,0.01,0.74-0.32,0.77c-0.62,0.07-1.2,0.5-1.79,0.7C370.62,275.68,369.77,275.84,368.92,275.96M388.68,275.55c0.36-0.66,0.23-1.65-0.49-2C387.75,274.23,387.77,275.25,388.68,275.55M365.93,274.45c-1.74-0.02-3.36-0.76-4.93-1.42c-1.82-0.77-3.68-1.44-5.49-2.23c-1.78-0.78-3.42-1.75-5.16-2.61c-0.64-0.32-3.92-1.74-3.43-2.86c0.51-1.19,3.38,0.99,3.96,1.31c1.6,0.88,3.26,1.65,4.94,2.37c1.68,0.71,3.38,1.41,5.1,2.03c1.74,0.62,3.58,1.07,5.27,1.8C366.89,273.14,366.68,274.4,365.93,274.45M391.19,272.31c-0.42,0-0.82-0.02-1.22,0.07c-0.22,0.05-0.96,0.42-0.46,0.71C390.22,273.5,391.35,273.44,391.19,272.31M389.71,267.8c-0.68-0.01-1.17-0.62-1.24-1.26c-0.35,0.08-0.58,0.33-0.82,0.57c-0.16,0.17-0.57,0.21-0.68,0.42c-0.26,0.48,0.17,1.32,0.34,1.77c0.27,0.72,0.65,1.55,0.64,2.33c-0.01,0.66-1.04,0.35-1.44,0.88c-0.1,0.13-0.44,0.58-0.31,0.77c0.08,0.12,0.91,0.2,1.08,0.17c1.08-0.19,1.31-1.3,1.57-2.2C389.11,270.29,389.9,268.8,389.71,267.8M350.74,259.63c0,0.67-0.01,1.33-0.01,2c1.16-0.68,1.72-2.31,3.01-2.74c0.63,1.24,0.19,3.14,0.23,4.5c0.48-0.27,3.11-2.98,3.3-2.67c0.8,1.29,0.43,3.22,0.69,4.69c0.32-0.33,3.03-3.56,3.34-2.79c0.29,0.73,0.2,1.55,0.37,2.31c0.14,0.63,0.4,1.34,0.28,1.99c1.28-0.72,1.84-2.53,3.26-2.99c0.65,1.36,0.48,3.04,0.73,4.5c1.27-0.72,1.7-2.33,3.01-2.99c0.39,1.95-0.1,4.56-1.39,6.1c-0.52,0.62-0.51,0.78-1.29,0.71c-1.55-0.14-3.06-0.81-4.51-1.31c-1.75-0.6-3.47-1.28-5.17-2.04c-1.59-0.71-3.15-1.47-4.69-2.27c-0.77-0.4-1.53-0.81-2.29-1.22c-0.59-0.32-1.37-0.64-1.71-1.25c-0.39-0.72,0.57-1.88,0.91-2.46C349.23,260.93,349.78,259.81,350.74,259.63M396.19,272.07c0.16-0.68,0.22-1.3,0.26-2c-0.63-0.15-0.55,0.39-0.6,0.86C395.8,271.36,395.8,271.81,396.19,272.07M368.95,270.96c0.04-0.34,0.22-0.79,0.5-1C369.54,270.45,369.73,271.15,368.95,270.96M370.45,270.72c-0.47-0.89-0.21-1.92-0.12-2.86c0.07-0.64,0.06-1.95,0.89-2.13C371.22,266.32,371.73,270.9,370.45,270.72M395.7,269.07c0.26-0.48,0.13-1,0.01-1.5C395.3,267.96,395.22,268.73,395.7,269.07M378.71,268.25c-0.37-0.77-1.28-0.69-2-0.76C376.69,268.53,378.01,268.61,378.71,268.25M372.96,267.23c0.63-1.19,0.88-3.78,0.27-5c-0.61,0.61-0.49,1.72-0.51,2.5C372.7,265.47,372.42,266.59,372.96,267.23M379.21,267c0.28-1.16,0.3-2.09,0.01-3.25C378.67,264.39,378.56,266.45,379.21,267M395.22,266.07c0.12-0.51,0.26-1.01,0.01-1.5C394.86,264.94,394.78,265.75,395.22,266.07M370.14,264.09c-0.84,0.29-1.78-0.04-2.58-0.31c-1.09-0.37-2.21-0.63-3.3-1.02c-2.3-0.82-4.56-1.81-6.82-2.73c-0.91-0.37-5.73-2.05-4.94-3.53c0.59-1.11,5.02,1.61,5.75,1.99c1.71,0.88,3.6,1.49,5.39,2.19c1.2,0.47,2.38,0.95,3.62,1.31c0.84,0.25,2.03,0.3,2.79,0.75C370.5,263.01,370.84,263.84,370.14,264.09M394.73,263.32c0-0.67,0.07-1.39-0.24-2c-0.42,0.45-0.25,1.45-0.26,2C394.39,263.32,394.57,263.34,394.73,263.32M374.73,263.23c0.07-0.35,0.21-0.67,0.01-1C374.49,262.5,374.5,262.97,374.73,263.23M358.04,248.41c-0.01,1.25-0.01,2.5-0.02,3.75c1.53-0.29,2.25-2.3,3.76-2.73c0.34,0.67,0.27,1.45,0.25,2.17c-0.03,0.95,0.07,1.9,0.23,2.84c1.37-0.63,2.14-2.22,3.56-2.67c0.62-0.2,0.89,4.2,0.93,4.44c1.2-0.68,2.29-2.75,3.76-2.73c0.03,1.26,0.18,2.49,0.23,3.75c1.72-0.33,1.95-3.18,3.77-3.48c0.13,0.65-0.19,1.37-0.41,1.96c-0.32,0.84-0.6,1.69-0.91,2.53c-0.5,1.36-0.99,3.61-2.72,3.87c-1.58,0.23-3.43-0.65-4.89-1.16c-1.69-0.59-3.35-1.26-5.01-1.93c-1.55-0.62-3.12-1.23-4.62-1.98c-0.87-0.44-2.74-1.11-2.44-2.38c0.28-1.22,1.33-2.5,2.03-3.52C356.12,250.28,356.9,248.63,358.04,248.41M382.99,261.03c0.55-0.7,0.53-1.78-0.49-2C382.37,259.79,382.17,260.57,382.99,261.03M393.99,260.81c0-0.43,0-0.87,0.01-1.3c0-0.49,0.14-0.74-0.41-0.73c-0.33,0.01-0.09,1.09-0.1,1.32C393.49,260.69,393.35,260.88,393.99,260.81M385.5,258.04c-0.48-0.25-0.97-0.25-1.5-0.26C383.97,258.73,385.13,258.81,385.5,258.04M382.25,258.26c-0.36-0.57-1.22-0.54-1.75-0.26C380.87,258.73,381.67,258.65,382.25,258.26M393,258.31c0-0.5,0-1,0.01-1.5C392.48,257.19,392.49,257.92,393,258.31M383,257.53c0.2-0.59,0.4-1.19,0.6-1.78c0.19-0.57,0.29-1.52,0.63-2.01c0.25-0.37-0.11-0.41-0.34-0.58c-0.38-0.3-0.62-0.71-0.87-1.12c-0.34,0.33-0.61,0.72-1.05,0.94c-0.35,0.18-0.41-0.01-0.44,0.45c-0.05,0.65,0.35,1.58,0.52,2.21C382.23,256.28,382.45,257.09,383,257.53M392.26,255.81c0-0.64-0.09-1.13-0.24-1.75c-0.38,0.4-0.25,1.25-0.26,1.75C391.92,255.81,392.1,255.83,392.26,255.81M391.27,253.06c0-0.5,0.01-1,0.01-1.5c-0.42,0.34-0.51,0.98-0.51,1.5C390.93,253.06,391.12,253.09,391.27,253.06M374.28,252.9c-2.96-0.16-5.84-1.09-8.55-2.25c-1.36-0.58-2.68-1.22-4-1.88c-0.96-0.48-2.19-0.84-2.75-1.83c-0.2-0.34,0.32-1.04,0.69-0.99c1.19,0.17,2.21,0.82,3.27,1.33c1.28,0.61,2.57,1.2,3.88,1.73c1.29,0.53,2.61,1.02,3.95,1.41c1.17,0.34,2.44,0.41,3.58,0.83c0.44,0.16,0.73,0.16,0.64,0.66C374.87,252.56,374.86,252.58,374.28,252.9M364.59,238.2c-0.01,1.77-0.22,3.49-0.27,5.25c0.89-0.52,1.67-1.25,2.44-1.93c0.67-0.6,1.37-1.29,2.33-1.3c-0.01,1.83-0.02,3.67-0.02,5.5c2.04-0.7,2.95-3.38,5.02-3.98c0.36,0.71,0.27,1.53,0.25,2.3c-0.03,0.99,0.07,1.98,0.23,2.95c1.13-1.18,2.28-3.01,3.77-3.73c-0.19,2.25-1.19,4.35-2,6.46c-0.86,2.23-4.83,0.46-6.35,0.02c-1.98-0.57-3.87-1.43-5.73-2.3c-0.55-0.25-4.28-1.66-4.03-2.57c0.43-1.52,1.26-2.71,2.09-4.04C362.87,239.94,363.42,238.41,364.59,238.2M390.28,250.56c0-0.58,0-1.17,0.01-1.75C389.94,249.2,389.94,250.16,390.28,250.56M389.3,247.8c0.08-0.38-0.14-0.88-0.24-1.25C388.72,246.94,388.92,247.5,389.3,247.8M388.06,245.8c0.17-0.47,0.04-1.01,0.01-1.5C387.72,244.66,387.76,245.4,388.06,245.8M387.07,243.54c0-0.42,0-0.83,0-1.25C386.61,242.56,386.67,243.23,387.07,243.54M378.82,241.88c-2.35-0.06-4.63-0.78-6.76-1.73c-2.01-0.9-4.19-1.48-6.03-2.74c-0.29-0.2-0.65-0.86-0.38-1.16c0.58-0.64,2.26,0.46,2.77,0.71c1.19,0.59,2.38,1.18,3.62,1.65c1.28,0.48,2.58,0.87,3.9,1.24c0.66,0.18,1.32,0.34,1.99,0.49c0.33,0.07,1.16,0.15,1.32,0.53C379.4,241.19,379.12,241.76,378.82,241.88M386.08,240.79c0.08-0.46-0.17-1.05-0.24-1.5c-0.34,0.38-0.25,1.04-0.26,1.5C385.74,240.79,385.92,240.81,386.08,240.79M371.88,229.48c-0.01,1.75-0.45,3.5-0.52,5.25c2.34-0.49,3.47-3.43,5.52-4.47c0.46,0.91,0.24,1.99,0.24,2.96c-0.01,1.19-0.04,2.39,0.23,3.55c1.57-0.92,2.71-3.08,3.77-4.48c0.79,0.48,0.57,1.92,0.52,2.67c-0.08,1.28-0.27,2.43-0.87,3.58c-0.62,1.21-1.23,1.51-2.53,1.36c-2.47-0.31-5.1-1.21-7.36-2.25c-0.69-0.32-4.46-1.77-4.22-2.85c0.23-1,0.56-2.04,1.32-2.78C368.88,231.1,370.53,229.46,371.88,229.48M385.09,238.78c0.08-0.46-0.17-1.05-0.24-1.5c-0.34,0.38-0.25,1.04-0.26,1.5C384.75,238.78,384.93,238.81,385.09,238.78"/></g></defs><g id="queen_club" transform="translate(-1843.32,-0.0)"><use xlink:href="#base" x="1843.32" y="0" xlink:type="simple" xlink:show="embed" xlink:actuate="onLoad"></use><g fill="none" stroke="black" stroke-width="1"><path d="M 1851.32 -175.117L1851.32 2.27"/><path d="M 1851.32 2.27L1983.6 2.27"/><path d="M 2002.9 -54.03L2002.9 -231.667"/><path d="M 2002.9 -231.667L1870.62 -231.667"/></g><g><use xlink:href="#club" x="783.087" y="-85.2573" transform="scale(2.4) rotate(180,783.087,-85.2573)" xlink:type="simple" xlink:show="embed" xlink:actuate="onLoad"></use><rect x="1860.91" y="-223.601" width="9.69257" height="37.968" fill="white"/></g><g><use xlink:href="#club" x="822.84" y="-10.2745" transform="scale(2.4)" xlink:type="simple" xlink:show="embed" xlink:actuate="onLoad"></use><rect x="1984.07" y="-43.6428" width="9.69257" height="37.968" fill="white"/></g><g transform="rotate(-1.80,1927.11,-114.699)"><line x1="1880.83" y1="-47.5438" x2="1973.4" y2="-181.854" stroke="black" stroke-width="7.25"/><circle cx="1883.25" cy="-50.6023" r="2.2" fill="white"/><circle cx="1883.25" cy="-50.6023" r=".7" fill="black"/><circle cx="1886.63" cy="-55.5157" r="2.2" fill="white"/><circle cx="1886.63" cy="-55.5157" r=".7" fill="black"/><circle cx="1890.02" cy="-60.4292" r="2.2" fill="white"/><circle cx="1890.02" cy="-60.4292" r=".7" fill="black"/><circle cx="1893.41" cy="-65.3426" r="2.2" fill="white"/><circle cx="1893.41" cy="-65.3426" r=".7" fill="black"/><circle cx="1896.79" cy="-70.2561" r="2.2" fill="white"/><circle cx="1896.79" cy="-70.2561" r=".7" fill="black"/><circle cx="1900.18" cy="-75.1695" r="2.2" fill="white"/><circle cx="1900.18" cy="-75.1695" r=".7" fill="black"/><circle cx="1903.57" cy="-80.083" r="2.2" fill="white"/><circle cx="1903.57" cy="-80.083" r=".7" fill="black"/><circle cx="1906.95" cy="-84.9964" r="2.2" fill="white"/><circle cx="1906.95" cy="-84.9964" r=".7" fill="black"/><circle cx="1910.34" cy="-89.9099" r="2.2" fill="white"/><circle cx="1910.34" cy="-89.9099" r=".7" fill="black"/><circle cx="1913.72" cy="-94.8233" r="2.2" fill="white"/><circle cx="1913.72" cy="-94.8233" r=".7" fill="black"/><circle cx="1917.11" cy="-99.7368" r="2.2" fill="white"/><circle cx="1917.11" cy="-99.7368" r=".7" fill="black"/><circle cx="1920.5" cy="-104.65" r="2.2" fill="white"/><circle cx="1920.5" cy="-104.65" r=".7" fill="black"/><circle cx="1923.88" cy="-109.564" r="2.2" fill="white"/><circle cx="1923.88" cy="-109.564" r=".7" fill="black"/><circle cx="1927.27" cy="-114.477" r="2.2" fill="white"/><circle cx="1927.27" cy="-114.477" r=".7" fill="black"/><circle cx="1930.66" cy="-119.391" r="2.2" fill="white"/><circle cx="1930.66" cy="-119.391" r=".7" fill="black"/><circle cx="1934.04" cy="-124.304" r="2.2" fill="white"/><circle cx="1934.04" cy="-124.304" r=".7" fill="black"/><circle cx="1937.43" cy="-129.217" r="2.2" fill="white"/><circle cx="1937.43" cy="-129.217" r=".7" fill="black"/><circle cx="1940.82" cy="-134.131" r="2.2" fill="white"/><circle cx="1940.82" cy="-134.131" r=".7" fill="black"/><circle cx="1944.2" cy="-139.044" r="2.2" fill="white"/><circle cx="1944.2" cy="-139.044" r=".7" fill="black"/><circle cx="1947.59" cy="-143.958" r="2.2" fill="white"/><circle cx="1947.59" cy="-143.958" r=".7" fill="black"/><circle cx="1950.98" cy="-148.871" r="2.2" fill="white"/><circle cx="1950.98" cy="-148.871" r=".7" fill="black"/><circle cx="1954.36" cy="-153.785" r="2.2" fill="white"/><circle cx="1954.36" cy="-153.785" r=".7" fill="black"/><circle cx="1957.75" cy="-158.698" r="2.2" fill="white"/><circle cx="1957.75" cy="-158.698" r=".7" fill="black"/><circle cx="1961.13" cy="-163.612" r="2.2" fill="white"/><circle cx="1961.13" cy="-163.612" r=".7" fill="black"/><circle cx="1964.52" cy="-168.525" r="2.2" fill="white"/><circle cx="1964.52" cy="-168.525" r=".7" fill="black"/><circle cx="1967.91" cy="-173.438" r="2.2" fill="white"/><circle cx="1967.91" cy="-173.438" r=".7" fill="black"/><circle cx="1971.29" cy="-178.352" r="2.2" fill="white"/><circle cx="1971.29" cy="-178.352" r=".7" fill="black"/></g><use xlink:href="#queen" x="1847.32" y="-202.737" xlink:type="simple" xlink:show="embed" xlink:actuate="onLoad"></use><use xlink:href="#queen" x="2006.9" y="-26.66" transform="rotate(180,2006.9,-26.66)" xlink:type="simple" xlink:show="embed" xlink:actuate="onLoad"></use><use xlink:href="#club" x="1856.97" y="-185.117" transform="rotate(180,1856.97,-185.117)" xlink:type="simple" xlink:show="embed" xlink:actuate="onLoad"></use><use xlink:href="#club" x="1997.25" y="-44.28" xlink:type="simple" xlink:show="embed" xlink:actuate="onLoad"></use><use xlink:href="#queen_3" transform="matrix(0.990000,0.000000,0.000000,0.990000,1604.550,-403.0585)" id="use1583" x="0.0000000" y="0.0000000" width="2178.4751" height="1215.6875" xlink:type="simple" xlink:show="embed" xlink:actuate="onLoad"></use><use xlink:href="#queen_3" transform="matrix(-0.990000,0.000000,0.000000,-0.990000,2249.595,173.7161)" id="use1584" x="0.0000000" y="0.0000000" width="2178.4751" height="1215.6875" xlink:type="simple" xlink:show="embed" xlink:actuate="onLoad"></use></g></svg>