<?xml version="1.0" encoding="UTF-8"?>
<svg xmlns="http://www.w3.org/2000/svg" xmlns:xlink="http://www.w3.org/1999/xlink" version="1.1" height="263" width="188" viewBox="-1.3 -236.8 188 263" preserveAspectRatio="xMidYMid meet" zoomAndPan="magnify" contentScriptType="application/ecmascript" contentStyleType="text/css"><defs><g id="heart"><path style="fill:#E6180A;" d="M-7.67,3.93c0.01-4.71,5.91-8.14,7.64-11.87c1.75,3.72,7.66,7.12,7.7,11.83c0.01,2.22-1.71,4.03-3.82,4.03C1.73,7.92,0,6.13,0,3.91c0,2.23-1.71,4.03-3.82,4.03C-5.94,7.95-7.66,6.15-7.67,3.93z"/></g><g id="queen"><text transform="scale(0.56453 1)" font-family="Bitstream Vera Serif" font-weight="bold" font-size="41">Q</text></g><g id="base"><path style="fill:#FFFFFF;stroke:#000000;stroke-width:2.5" d="M 0,0C0,3.78 3.09,6.87 6.87,6.87L159.715,6.87C163.485,6.87 166.575,3.78 166.575,0L166.575,-228.4C166.575,-232.18 163.485,-235.27 159.715,-235.27L6.87,-235.27C3.09,-235.27 0,-232.18 0,-228.4L0,0 z"/></g><g id="queen_1"><g><path style="fill:#1C1585;" d="M442.18,356.39c-0.9-0.38-1.73-0.8-2.69-0.98l-1.14-9.34l0.15-0.58l-0.39-3.55l-0.16,0.05c-0.19-1.16-0.5-2.28-1.07-3.31l-0.13,0.04l-1.46,2.57l-0.09,0.65l-0.43,0.26l-0.08,0.14c-3.07,1.34-5.76,3.62-8.72,5.21l-0.4,1.26c1.52,2.99,3.02,5.97,4.68,8.88l0.98,0.38c1.85,10.3,3.28,20.67,5.26,30.94c6.05,7.3,12.14,13.76,20.26,18.74l0.02,0.1l3.32,2.14c7.48-1.34,14.3-5.34,18.6-11.71l-0.97-1.94l-1.91,1.42l-2.91,0.49l-3.15,2.91l-5.51,1.58c-4.49-0.76-8.26-1.87-12.54-3.43c-1.66-1.79-3.31-3.59-4.92-5.43c0.38-1.93,0.57-3.82,0.75-5.78l-0.63-2.35c1.07-4.65,1.71-9.13,1.91-13.9c0.17-4.14-2.58-9.21-3.62-13.27l-1.49-1.54c-0.5-0.27-1.03-0.42-1.59-0.46L442.18,356.39"/><path style="fill:#1C1585;" d="M483.05,352.31l0.15-0.06l-0.79,0.34l-0.04,0.19c-2.03,0.7-3.98,1.54-5.95,2.39c-0.51,0.75-1.03,1.5-1.54,2.25l1.91,2.83l-1.84-1.94c-0.78,0.18-1.55,0.37-2.33,0.55c-0.3,0.54-0.61,1.07-0.91,1.61l-0.19,4.63c0.83,1.58,1.66,2.9,2.74,4.32l2.18-2.07l0.26-2.85l-0.98-1.54l1.65-0.88l-0.46-1.66c1.05,1.58,3.07,2.61,4.59,3.73l-1.99-0.85l-0.19,3.26l-2.04,4.39c0.71,1.74,1.52,3.24,2.49,4.85c-0.25,1.88-0.46,3.74-0.6,5.63l0.67,1.27l0.87,0.15c1.17-5.39,2.81-10.84,3.16-16.36l-1.94-2.09l0.82,0.03c1.09-4.56,2.5-8.69,4.17-13.08l-0.26-0.6c0.62-1.34,1.37-2.59,1.39-4.1l-1.59-4.07l-1.76,0.02C483.99,345.85,483.47,349.02,483.05,352.31"/><path style="fill:#E61408;" d="M512.02,341.99l0.01-0.02l-0.09-0.01c-4.27,1.76-7.1,4.6-10.61,7.59l0.2,1.54l2.11,1.37l2.28,0.12l1.98,4.53c2.12-0.49,4.05-1.09,6.1-1.85l1.67-1.71c1.43,0.51,2.98,0.38,4.47,0.42c1.2-0.89,2.45-1.72,3.48-2.8l-0.63-1.4l-2.85-1.62l-2.96-4.45l-3-1.52l-0.13,0.29L512.02,341.99"/><path style="fill:#E61408;" d="M474.85,299.75c-0.33,0.24-0.66,0.48-0.98,0.72c0.05,1.89-0.37,3.4-0.55,5.25c-0.44,0.69-0.83,1.41-1.2,2.14l-0.25,0.16l-0.32,0.51c-1.5,0.65-3.04,1.21-4.57,1.81c-0.74-0.34-1.57-0.54-2.38-0.5l-3.27-1.85l-0.02-0.04l-0.37-0.2c-0.25-0.77-0.55-1.51-0.94-2.22c-0.04-0.43-0.16-0.84-0.35-1.23c0.12-1.34-0.1-2.76-0.1-4.11l-0.72-1.41l0.12-0.67l-0.05-0.13l-2.11,0.22c-5.46,7.62-10.34,15.57-15.33,23.5c2.2,0.37,4.35,0.7,6.55,1.1l1.04-0.91c4.47-1.39,8.93-2.44,13.51-3.43c2.34,0.92,3.28,1.16,5.78,0.74c2.41,0.97,4.21,0.95,6.8,0.89l0.2-0.25c1.31,0.45,2.7,0.51,4.07,0.67c2.61-4.32,5.32-8.61,7.55-13.14l-10.69-8.74l-0.41,0.32l0.04,0.18L474.85,299.75"/><path style="fill:#1C1585;" d="M479.32,320.66c1.85,2.86,4.55,6.45,5.1,9.85c0.65,3.98,0.77,7.13,0.39,11.22l1.62,0.16l1.67-4.24c3.17-3.13,6.31-5.85,9.83-8.57c1.35-6.53,2.72-13.41,2.07-20.11c-0.34-3.52-0.64-7.05-1.09-10.55c-0.46-3.56-0.18-8.39-1.88-11.64C491.86,298.5,485.94,309.69,479.32,320.66"/><path style="fill:#F8C20F;" d="M528.66,332.97l-1.53-2.59l-2.73-1.77l-0.9-0.19c0.81-1.86,1.58-3.66,2.19-5.59l-0.75-0.29c-2.11,1.32-3.11,4.03-4.33,6.1c-1.82-0.64-3.51-1.44-5.25-2.28c-2.5,1.27-5.28,1.53-8.02,2.06l-0.7,1.88l-3.72,2.64c1.79,0.84,3.54,1.56,5.41,2.22l1.87-0.53l2.7,0.24l3.75-1.47c-1.72,2.82-3.19,5.62-4.63,8.59l2.03,0.48c2.04-4.6,3.68-8.22,7.65-11.45l0.51,5.62l1.37,1.95l0.8,4.15c1.29,1.27,2.62,2.3,3.8,3.69l0.53-0.59L528.66,332.97"/><path style="fill:#F8C20F;" d="M527.37,301.08l-1.62,1.9l-0.27,6.57l1.84,0.16C527.8,307.04,528.5,303.67,527.37,301.08"/><path style="fill:#E61408;" d="M489.36,302.53c4.96-8.67,9.26-18.98,11.98-28.59c1.47-5.2,2.69-10.44,4.08-15.66c1.37-5.11,1.69-9.51,1.82-14.83l0.18,0.13l0.01-0.35l-0.94-2.44l0.29-1.17l-0.08-0.36c0.59-2.83,1.84-6.06,1.59-8.98l-5.61-3.38l-1.08,0.64l-0.63,1.61c0.79,4.3-0.05,7.56-1.6,11.58c-1.15,2.54-2.64,4.86-3.97,7.32c-1.99,1.56-3.67,3.44-5.65,5.03c-2.18,1.74-4.73,2.87-7.15,4.26c-1.89,2.86-5.91,6.79-5.93,10.4l0.01,0c-0.66,8.25-1.65,16.6-1.68,24.88c2.4,2.14,4.8,4.29,7.2,6.43C484.13,300.78,486.99,301.51,489.36,302.53"/><path style="fill:#1C1585;" d="M507.42,243.58l-0.18-0.13c-0.09,3.89-0.19,7.77-0.28,11.66c-1.9,3.91-2.66,7.99-3.65,12.22c3.47-0.83,6.93-1.33,10.01-3.08c3.47-1.98,6.93-3.86,10.2-6.16C518.48,252.9,513.18,247.93,507.42,243.58"/><path style="fill:#F8C20F;" d="M506.78,239.62l0.66,3.15c5.33,5.05,10.65,10.09,15.98,15.14c1.73-1.82,3.07-3.57,4.46-5.66l-0.03-4.56c-5.96-6.11-11.69-11.57-18.41-16.81l-1.01,0.09c-0.58,2.76-1.15,5.53-1.73,8.29L506.78,239.62"/><path style="fill:#F8C20F;" d="M492.01,251.27c5.82-6.05,10.51-13.67,8.92-22.33l-17.5,27.2C486.87,255.71,489.41,253.35,492.01,251.27 "/><path style="fill:#F8C20F;" d="M474.91,289.95c0.59-7.4,1.18-14.81,1.77-22.21c-0.3,0.07-0.6,0.15-0.9,0.22l-15.91,25c-0.35,1.94-0.69,3.88-1.04,5.82c0.32,0.62,0.63,1.24,0.95,1.86c-0.04,1.22-0.09,2.44-0.13,3.66c0.43,1.15,0.86,2.3,1.29,3.45c2,1.09,3.88,1.88,6.04,2.59c1.52-0.6,3.05-1.21,4.57-1.81c0.59-0.94,1.18-1.87,1.77-2.81c0.16-1.78,0.31-3.56,0.47-5.34c0.7-0.42,1.41-0.83,2.11-1.25C475.2,296.01,475.01,293.13,474.91,289.95"/><path style="fill:#F8C20F;" d="M484.47,330.81c-0.73-3.33-2.75-6.44-4.81-9.08c-1.41-0.72-2.76-1.56-4.32-1.89c-0.35,0.44-0.69,0.88-1.04,1.32l0.68,0.72c-2.21-0.89-4.43-1.79-6.64-2.68c-1.06,0.18-2.12,0.36-3.18,0.54l0.03-0.25l-1.71-0.67c-3.88,0-7.53,1.06-11.25,2.08l0.44,1.32l-2.46-0.61l-2.32,1.38l-0.82,1.31l0.63-1.55c-2.38-0.48-3.81-0.46-6.23-0.16c-3,4.35-5.33,8.27-7.49,13.08l-0.51-1.22c-3,4.54-5.94,9.12-8.88,13.7l0.15-0.09c-2.99,4.6-5.94,9.22-8.88,13.85l8.76,5.19c3.53,6.24,6.32,12.72,10.07,18.86l1.04-0.4c-0.92-6.14-1.63-12.33-2.88-18.41c-0.69-3.37-1.03-6.67-2.73-9.66c-1.79-3.14-3.57-6.29-5.36-9.43c3.51-1.99,6.98-4.02,10.43-6.11c0.11-0.83,0.23-1.67,0.34-2.5l-0.12-0.3c0.6-0.19,1.2-0.38,1.79-0.57c0.25,1.14,0.49,2.28,0.74,3.42c0.52-0.17,1.05-0.33,1.57-0.5c-0.39,1.53-0.78,3.05-1.17,4.58l1.14,9.34c0.84,0.15,1.68,0.3,2.52,0.45l0.8-1.29c-0.23,0.67-0.47,1.34-0.7,2.01c0.9,0.13,1.81,0.26,2.71,0.39c3.15-4.53,6.2-9.56,7.33-15.07c1.29-6.34,2.03-12.28,5.13-17.96c5.73-2.92,10.57-3.38,16.44-0.61c4.16,6.2,3.29,12.29,3.47,19.45l2.1,0.02c-0.32,2.89-1.9,5.57-3.17,8.12l-0.2,2.03l0.77,0.38l-1.56-0.11c-1.86,2.04-3.62,3.87-4.99,6.26l1.94-0.03l0.37-0.3l0.16-0.29l0.26-0.06c1.4-1.15,2.62-2.05,3.54-3.63l0.41-0.18l0.95-1.12l0.57,0.29c1.34-0.46,2.68-0.92,4.02-1.38C484.03,345.79,486.5,337.94,484.47,330.81M447.99,335.91l0.49-4.75l0.99-1.83L447.99,335.91M451.71,325.19c0.46-0.92,0.69-1.94,0.98-2.92l0.1,0.3l0.96-0.21L451.71,325.19M477.29,324.91c1.36,1.94,1.85,4.45,2.17,6.74L477.29,324.91M479.51,341.36l0.17-8.15C480.15,335.91,479.92,338.66,479.51,341.36"/><path style="fill:#F8C20F;" d="M454.89,406.61c-3.59-2.34-6.53-4.57-9.49-7.66c-3.14-3.27-6.05-6.54-9.72-9.2l-4.26,2.87c-2.6,0.47-6.74,0.05-8.98,1.37l0.62,1.29l7.02,3.38l2.43-1.75l-0.59-2.48l0.79-0.52l3.13,3.31l-1.15,3.71l-2.83,1.19l0.11,1.86l1.47-0.13l0.69-0.36l1.76-2.79l3.33-0.13l2.27,1.81l-0.62,0.44l-4.05-0.05l-0.72,2.65l0.46,4.99l1.27,0.59l5.19,0.16l2.24-0.93c0.1-1.61,0.37-3.13-0.31-4.65l2.02,0.28l2.22,3.8l7.87-0.67c-0.1-0.41-0.21-0.83-0.31-1.24L454.89,406.61 "/></g><path d="M449.94,412.71c0-1.03-0.19-2.47,1.08-2.87c1.15-0.36,2.14-0.08,2.88,0.85c0.32,0.41,0.36,1.01,0.68,1.4c0.12,0.15,0.4,0.3,0.58,0.33c0.44,0.06,0.34-0.26,0.51-0.62c0.86-1.75,5.05-1.15,6.63-1.49c3.03-0.64,5.9-1.98,8.42-3.75c1.92-1.34,3.7-2.76,5.5-4.25c1.52-1.26,3.7-3.01,2.46-5.17c-0.18-0.31-0.53-1.1-0.46-1.43c0.1-0.5,1-1.04,1.35-1.32c0.82-0.64,1.55-1.45,1.75-2.5c0.21-1.16-0.05-2.15-0.54-3.18c-0.47-1-0.21-2.19-0.02-3.25c0.95-5.24,1.81-10.94,3.37-16.03c0.31-0.99,0.87-2.16,0.22-3.14c-0.69-1.04-1.41-1.55-1.06-2.88c0.68-2.58,1.4-5.1,2.36-7.6c0.98-2.55,2.56-5.23,2.84-7.97c0.1-1.01-0.06-2.07-0.55-2.96c-0.58-1.07-1.2-1.99-1.03-3.22c0.3-2.26,1.66-4.07,3.36-5.48c3.31-2.77,6.6-5.71,10.22-8.07c0.42-0.28,0.88-0.72,1.38-0.84c0.61-0.14,1.04-0.05,1.63-0.12c0.49-0.06,1.24,0.01,1.63-0.32c0.43-0.35,0.77-0.72,1.04-1.22c0.54-1.01,1.06-2.04,1.58-3.07c0.49-0.96,1.13-1.91,2.29-1.09c2.79,1.99,5.74,2.88,9,3.96c1.14,0.38,2.06-0.03,3.19,0.06c-0.37,0.75-1.24,1.48-2,1.8c-1.18,0.49-1.91,0.24-2.98-0.32c-0.98-0.52-1.94-1.13-3.07-0.85c-0.51,0.13-0.81,0.54-1.25,0.83c-0.94,0.63-3.19,0.22-4.36,0.59c-0.58,0.19-1.13,0.39-1.69,0.63c-0.29,0.13-0.09,0.96-0.22,1.3c-0.34,0.87-1.72,1.37-2.47,1.86c-0.86,0.56-2,1.26-1.96,2.41c1.19,0,2.43,0.16,3.52,0.68c0.59,0.28,1.08,0.47,1.48,0.99c0.41,0.54,1.14,0.15,1.75,0.01c1.55-0.36,2.17-0.31,3.68-0.09c1.04,0.17,2.33-1.08,3.32-1.35c-1.22,1.81-2.52,3.76-3.2,5.84c-0.35,1.09-0.72,1.92-1.88,2.23c-1.19,0.31-2.2,0.82-3.19,1.52c-1.81,1.28-3.13,3.11-4.98,4.32c-0.97,0.63-2,1.01-2.79,1.85c-0.52,0.55,1.64,1.87,2,2.13c1.13,0.82,3.36,0.65,4.07,1.8c0.44,0.71,0.66,1.4,0.93,2.2c0.1,0.32,0.42,2.11,0.65,2.09c0.83-0.08,1.51-0.58,2.27-0.89c0.74-0.3,1.53-0.47,2.31-0.64c1.45-0.31,3.15-1.17,3.57-2.71c0.87,0.43,1.9,1.07,2.91,0.97c0.71-0.07,1.15-0.14,1.79-0.44c0.49-0.23,0.75-0.74,1.16-1.06c0.96-0.72,1.78-1.27,2.57-2.19c0.27-0.32,0.2-0.99-0.06-1.26c-0.44-0.44-0.88-0.47-1.49-0.59c-0.93-0.18-2.09-1.08-2.63-1.85c-0.65-0.93-1.01-1.96-1.74-2.84c-0.78-0.96-1.62-1.72-2.51-2.57c-0.52-0.49-0.5-0.65-0.45-1.36c0.04-0.51,0.45-1.2,0.63-1.67c0.59-1.54,1.5-2.77,2.52-4.05c0.84-1.07,1.81-2.47,3.06-3.08c0,1.62,0.18,3.11,0.45,4.71c0.12,0.73,0.74,1.13,1.1,1.73c0.36,0.59,0.2,1.59,0.22,2.25c0.03,0.8,0.42,1.48,0.76,2.18c0.4,0.83,1.47,1.31,2.08,2c0.78,0.89,1.51,1.89,2.63,2.38c0-1.82-0.67-0.85-1.59-2.25c-0.23-0.36-0.89-2.06-1.42-1.97c-0.27,0.04-0.51,0.07-0.75,0.21c-0.45-1.4-0.98-2.49-1-4c-0.01-0.72,0.11-1.54,0-2.25c-0.02-0.13-0.14-0.69-0.25-0.75c-0.14-0.08-0.86,0.21-1,0.25c-0.17-0.77-0.23-1.46-0.25-2.25c0.25,0.29,0.54,0.59,0.66,0.96c0.21,0.67,0.69-0.09,1.09,0.04c0.27,0.09,0.5,0.75,0.66,0.98c0.29,0.43,0.71,0.81,0.66,1.34c-0.07,0.7-0.68,1.91-0.44,2.56c0.14,0.37,0.4,0.23,0.31,0.68c-0.11,0.5-0.16,0.93-0.18,1.44c1.02-0.17,1.89,0.57,2.75,1c0.84-1.58-0.47-3.99-1.09-5.46c-0.79-1.88-1.74-3.7-2.46-5.6c-0.86-2.24-1.03-3.31,0.22-5.48c0.62-1.09,1.03-1.58,2.17-2.1c0.67-0.31,1.61-0.62,1.9-1.37c-1.02,0.29-1.89,0.96-3,1c0.22-0.67,0.41-1.49,0.88-2.03c0.46-0.53,1.06-1.09,1.37-1.72c-0.35,0.05-0.69,0.07-1,0.25c0.38-0.53,0.9-0.98,0.82-1.66c-0.07-0.58-0.24-1.55-0.92-1.75c-1.26-0.37-3.1-0.35-3.89-1.59c0.99,0.03,1.67-0.65,2.63-0.72c1.08-0.08,2.08,0.2,3.12,0.47c0.23-0.86-4.18-1.32-4.75-1.75c0.75-0.25,1.49-0.51,2.23-0.8c0.67-0.26,1.34,0.03,2.02,0.05c0-1.07,0.11-1.35-1-1.5c1.29-3.7,0.75-7.12,0.75-11c-3.9,1.92-2.44,7.48-3.05,10.9c-0.12,0.69-0.34,0.59-1.01,0.57c-0.46-0.01-0.9-0.07-1.37-0.06c-0.99,0.04-1.89-0.54-2.82-0.83c-2.02-0.65-3.9-0.59-6-0.59c0-1.8,1-3.45,1.74-5.03c1.05-2.25,1.88-4.63,2.81-6.94c1.75-4.37,3.59-8.72,4.95-13.23c2.31-7.66,5.26-15.46,5.26-23.54c-0.41,0.4-0.41,1.02-0.51,1.54c-0.42,2.15-0.58,4.37-1.25,6.46c-0.53-0.38-1.12-0.5-1.75-0.5c0.38-1.38,1.5-2.56,1.75-4c-1.04,0-1.08-0.95-1.25-1.75c-0.61,0.13-0.72,0.91-1.16,1.24c-0.11,0.08-0.81,0.45-0.84,0.51c-0.1,0.17,0.05,0.69,0.09,0.88c0.22,1.02,1.09,2.88,0.9,3.87c-0.7-0.27-1.22-0.55-1.94-0.27c-0.39,0.15,0.1,0.59,0.27,0.66c0.27,0.11,0.63,0.11,0.92,0.11c-0.18,0.6-0.07,1.14,0,1.75c0.66-0.02,1.01-0.56,1.24-1.13c0.07-0.18,0.15-0.36,0.22-0.55c0.07-0.18,0.28,0.04,0.43,0.01c0.28-0.05,0.57-0.05,0.86-0.09c0,4.38-1.91,9.5-3.48,13.56c-0.35,0.91-0.96,1.6-1.62,2.32c-0.72,0.82-1.2,0.45-1.14,1.68c0.04,1.01,0.14,1.93-0.01,2.93c-0.87-0.25-1.98-0.09-2,1c1.18,0,1.72-0.25,1.34,1.07c-0.69,2.63-1.94,5.23-3.1,7.68c-0.59-0.37-1.2-0.82-1.18,0.15c0.01,0.64,0.21,1.66-0.19,2.24c-0.34,0.48-1.71,0.33-1.27,1.08c0.36,0.61,0.84,1.11,0.63,1.85c-0.83,2.9-2.81,5.36-3.74,8.19c-0.47-0.3-0.97-0.58-1.5-0.75c0.21-0.63,0.75-1.35,0.81-2c0.06-0.67-0.36-1.62-0.56-2.25c-0.52,0.43-0.82,1.11-1,1.75c-0.33-0.55-0.83-0.24-0.89,0.25c-0.08,0.56,0.52,2.01,0.14,2.5c-0.03,0.04-0.71,0.05-0.81,0.08c-0.18,0.04-0.71,0.07-0.68,0.27c0.04,0.29,0.14,0.45,0.29,0.71c0.3,0.51,0.7,0.87,0.97,1.42c0.23,0.48,0.57,0.85,0.89,0.19c0.74-1.48,0.27-1.41,2.08-1.41c-1.82,3.54-2.93,7.97-5.49,11.07c-0.77,0.94-1.95,0.41-2.96,0.67c-1.35,0.35-2.25,1.56-3.55,2.02c-0.02-2.19,1.03-4.52,1.36-6.69c0.16-1.04-0.11-2.37,0.23-3.35c0.44-1.26,0.99-2.11,0.66-3.46c2.03,0,2.57-1,0.25-1c0-0.43,0.06-0.89,0.2-1.29c0.29-0.81,0.9-1.48,0.16-2.01c-0.2-0.14-0.41-0.22-0.57-0.4c-0.32-0.38-0.45-1.05-0.5-1.54c-0.21-2.1-0.48-4.28-0.52-6.39c-0.03-1.07-0.44-2.24,0-3.26c0.27-0.63,0.38-1.01,0.43-1.69c0.08-1.04,2.2-0.46,1.95-1.17c-0.2-0.57-0.78-0.55-1.28-0.63c-0.7-0.1-0.68-0.19-0.54-0.86c0.13-0.59,0.44-1.15,0.67-1.71c0.14-0.33,0.29-0.67,0.24-1.03c-0.28,0.05-0.58,0.16-0.86,0.18c-0.49,0.04-0.35,0.07-0.49-0.39c-0.14-0.44-0.25-1.01-0.65-1.29c-0.17,0.33-0.33,0.67-0.5,1c-0.71-1.31-0.76-3.13-0.98-4.59c-0.26-1.73,0.52-3.08,1.12-4.66c0.45-1.18,1.16-1.8,1.82-2.81c0.25-0.39,0.07-1.04,0.52-1.16c0.38-0.11,1.19-0.23,1.4-0.64c0.21-0.44,0.03-0.45-0.37-0.57c-0.41-0.13-0.84-0.21-1.25-0.31c0.61-2.13,1.15-4.37,1.97-6.42c0.36-0.91,1.73-1.42,2.53-1.98c1.33-0.93,4.08-2.43,5.71-2.6c0.59-0.06,0.74-0.11,0.91-0.77c0.77-2.95-0.01-6.54,0.14-9.58c0.04-0.91,0.66-4.68-0.76-4.89c0.19,0.98-0.29,2.59-0.39,3.59c-0.13,1.31,0.63,10.74-0.36,10.67c0.03-1.03,0.14-2.04,0.17-3.06c0.06-2.04-0.18-4.12-0.17-6.17c0-1.58,0.44-3.86-0.09-5.37c-0.2-0.58-0.95-0.54-0.88,0.12c0.51,4.78-0.03,9.91-0.03,14.73c-1.25-1.87-0.5-5.66-0.5-7.79c0-2.11,0.84-6.36-0.5-8.21c-0.49,0.35-0.45,1.15-0.48,1.68c-0.05,0.75-0.14,1.51-0.21,2.26c-0.19,2,0.25,4.06,0.28,6.06c0.04,2.17-0.09,4.34-0.09,6.51c-1.46-2.08-0.5-6.67-0.5-9.08c0-4.14,0-8.28,0-12.42c4.98,3.46,9.53,8.12,13.53,12.66c0.51,0.58,0.55,1.46,0.97,2.09c-1.22-0.23-0.65-1.91-1.75-2.25c0,1.09-0.2,2.16-0.25,3.25c-0.35-0.65-0.49-1.42-0.5-2.16c0-0.63,0.13-1.96-0.75-2.09c0,1.47,0.35,3.69-0.5,5c-0.2-1.95-0.25-3.86-0.25-5.82c0-0.41-0.74-0.25-0.79,0.07c-0.13,0.84-0.09,1.81-0.17,2.67c-0.09,1.1-0.04,2.22-0.04,3.32c-0.62-1.14,0.23-7.28-1.25-7.5c0.1,2.8-0.25,5.68-0.25,8.5c-0.51-0.72-0.41-1.42-0.35-2.25c0.06-0.87-0.13-1.7-0.14-2.57c-0.01-0.95,0.53-4.45-0.76-4.68c0.03,0.75-0.21,1.49-0.25,2.25c-0.12,2.66,0,5.34,0,8c-0.57-0.82-0.53-1.74-0.46-2.69c0.08-1.11,0.77-8.25-0.79-8.55c-0.04,1.13-0.18,2.19-0.32,3.31c-0.33,2.66-0.12,5.79,0.14,8.45c0.04,0.47,0.25,1.03,0.18,1.49c1.11-0.05,2.05-0.3,3.03-0.85c0.49-0.28,0.99-0.51,1.48-0.77c0.2-0.1,1.52-0.45,1.51-0.44c0.44-1.04,1.36-1.16,2.09-1.88c0.75-0.74,1.66-1.41,2.63-1.84c0.23-0.1,0.4-0.17,0.65-0.2c0.21-0.04,2.24-2.87,2.41-3.19c0.35-0.69,0.12-0.73,0.86-0.92c1.55-0.43,0.85-5.33,0.76-6.36c-0.12-1.38-2.53-2.94-3.38-3.93c-1.52-1.79-3.35-3.33-5.02-4.98c-3.37-3.32-7.19-6.19-11.06-8.9c-1.86-1.31-3.81-2.71-5.93-3.55c-0.32-0.13-1.02,0.43-1.24,0.67c-1.79,1.98-3.04,4.67-4.46,6.92c-1.66,2.64-3.36,5.24-5.04,7.86c-3.19,4.99-7.3,10.01-9.81,15.37c1.06-0.18,2.11-0.84,3.09-1.26c0.93-0.4,1.86-0.88,2.67-1.49c1.87-1.39,3.71-2.74,5.37-4.39c3.11-3.11,5.29-7.27,6.93-11.3c0.8-1.97,1.05-4.01,1.26-6.11c0.12-1.16-0.01-2.18-0.19-3.33c-0.13-0.85,0.27-2.61,1.45-2.07c1.24,0.56,3.03,1.45,4.02,2.4c0.58,0.56,0.83,0.65,0.79,1.45c-0.23,5.49-2.22,11.05-3.59,16.34c-1.45,5.56-3.1,11.03-5.04,16.44c-3.69,10.33-7.28,20.93-12.41,30.66c-0.42,0.79-1.03,2.19-2.16,1.5c-2.83-1.7-5.85-3.56-8.34-5.74c-0.96-0.84-1.05-1.71-0.89-2.89c0.43-3.34,0.6-6.87,0.82-10.24c0.21-3.41,0.24-7.1,0.9-10.45c0.16-0.8,0.58-1.48,0.8-2.25c-1.12,0.67-1.8,2.43-2.47,3.49c-1.08,1.71-2.2,3.38-3.31,5.08c-2.26,3.47-4.38,7.02-6.63,10.5c-2.33,3.6-4.67,7.19-7,10.79c-1.09,1.69-2.18,3.38-3.25,5.09c-1.03,1.64-2.48,3.21-3.1,5.07c0.91-0.59,1.29-1.76,2.04-2.5c0.76-0.76,1.96-1.17,2.92-1.59c0.71-0.3,2.36-1.21,2.16,0.39c-0.13,1.05-0.2,2.15-0.02,3.19c0.37,2.12,0.98,4.07,0.6,6.27c-0.37,2.15-0.45,4.38-0.75,6.54c-0.25,1.88-2.13,2.12-3.65,2.53c-1.52,0.42-2.96,0.94-4.5,1.27c-0.54,0.12-1.69,0.59-2.11,0.07c-0.57-0.72-0.86-1.43-1.14-2.3c-0.51-1.56-0.98-3.23-1.06-4.88c-1.42,1.24-0.53,2.8-0.1,4.36c0.39,1.39,1.13,2.71,1.35,4.14c-2.05-0.07-4.43-0.33-5-2.75c-0.72,0.56-0.55,1.45-0.5,2.25c-0.51-0.08-0.91-0.44-1.17,0.09c-0.99,2.04-2.43,3.94-3.64,5.85c-1.29,2.04-3.59,4.46-4.2,6.82c-0.56,2.17,2.2,4.11,1.74,6.24c-0.05,0.25-0.12,0.49-0.17,0.73c-0.3,1.33-1.17-0.94-1.23-1.1c-0.49-1.31-1.35-2.95-1.33-4.36c-0.84,0.71-1.47,1.96-1.97,2.94c-0.04,0.09,1.19,0.68,1.31,0.81c0.43,0.46,1.2,1.05,1.23,1.75c0.03,0.69-0.39,1.27-1.07,1.33c-0.95,0.1-1.24-0.08-1.79,0.76c-0.22,0.34-0.69,1.26-1.25,0.99c-0.27-0.13-0.7-0.24-0.91-0.46c-0.19-0.21-0.33-0.46-0.55-0.63c-0.21,0.31-0.56,0.72-0.64,1.1c-0.13,0.62,0.58,0.79,0.44,1.39c-0.3,1.1-1.87,1.09-2.48,1.87c-1.85,2.32-3.38,4.93-4.98,7.43c-1.16,1.8-3.76,4.51-4.05,6.66c-0.06,0.45,0.49,0.52,0.85,0.77c2.31,1.56,4.78,2.87,7.06,4.47c0.47,0.33,0.9,0.7,1.35,1.06c0.48,0.39,0.66,0.96,0.93,1.52c1.67,3.38,3.09,6.89,4.8,10.26c0.83,1.64,1.7,3.32,2.79,4.8c0.75,1.02,2.34,2.69,1.83,4.1c-0.22,0.62-1.2,1.44-1.74,1.76c-0.76,0.45-1.37,1.06-2.17,1.5c-1.07,0.59-3.52,0.94-4.73,1.05c-1.44,0.14-3.43-0.44-4.75,0.27c0.34,0.61,0.69,1.21,1.03,1.82c0.62,1.1,4.06,2.66,5.24,3.11c1.35,0.53,2.64,0.79,3.73-0.35c0.36-0.38,1.1-1.04,1-1.64c-0.11-0.67-0.38-1.29-0.49-1.95c1.2,0.17,1.61,1.1,2.31,2.01c0.28,0.36,0.57,0.59,0.55,1.04c-0.03,0.67-0.05,1.11-0.29,1.73c-0.43,1.08-1.34,1.21-2.27,1.78c-2.17,1.34-1.54,3.79,1.11,2.95c0.94-0.29,1.22-1.46,1.77-2.18c0.73-0.95,1.61-1.13,2.76-0.99c0.88,0.11,2.12,0.71,2.32,1.67c-0.69-0.21-2.61-0.41-3.3-0.16c-0.36,0.13-1.1,0.24-1.22,0.7c-0.14,0.57-0.29,1.13-0.37,1.72c-0.15,1.1,0.19,2.1,0,3.21c-0.11,0.66,0.02,2.48,0.5,2.99c0.61,0.64,2.27,0.5,3.13,0.52c0.48,0.01,0.96-0.06,1.45-0.04c0.59,0.03,1.14,0.21,1.73,0.2c0.46-0.01,0.95-0.37,1.38-0.5c0.49-0.14,1.26-0.29,1.49-0.82c0.31-0.73,0.43-2.4,0.33-3.19c-0.06-0.43-0.19-0.73-0.38-1.13c1.28,0.19,3.66,2.68,2.56,3.96c-0.5,0.58-1.5,1.4-1.36,2.24c0.13,0.79,1.62-0.49,2.05-0.7C448.66,412.24,449.16,412.74,449.94,412.71M442.94,408.71c-0.02-0.65,0.32-2.65,1.31-1.91c0.73,0.54,0.69,0.68,0.52,1.53c-0.07,0.34-0.05,0.56-0.01,0.91c0.02,0.15,0.23,0.62,0.18,0.72c-0.15,0.28-1.21,0.29-1.47,0.37c-0.46,0.15-0.75,0.84-1.23,0.52C441.28,410.21,441.57,408.31,442.94,408.71M438.19,406.96c0.13-0.54-0.09-0.44-0.45-0.62c-0.37-0.19-0.62-0.43-0.93-0.72c-0.57-0.53-0.05-1.56,0.23-2.15c0.16-0.34,1.62-0.16,1.94-0.13c1.01,0.08,1.46,0.04,1.71,1.12c-0.34-0.05-0.67-0.16-1-0.25c0.22,0.93-1.02,0.56-1.5,0.5c0.2,0.4,0.2,0.85,0,1.25c0.24,0.07,0.48,0.15,0.73,0.2c0.56,0.1,0.38,2.2,0.27,2.56c0.48,0.05,0.96,0.06,1.25,0.5c0.22-0.22,0.41-0.55,0.75-0.5c-0.02,2.09-2.2,1.89-3.65,1.75c-0.53-0.05-0.75-1.68-0.8-2.13C436.63,407.51,437.4,407.05,438.19,406.96M458.44,408.21c0.2-0.89-1.21-1.75-1.8-2.21c-1.6-1.28-3.25-2.44-4.68-3.91c-0.77-0.79-0.93-1.59-1.28-2.64c0.98,0.19,1.8,0.95,2.77,1.18c3.14,0.75,6.26,1.83,9.46,2.27c2.21,0.3,4.33-0.13,6.29-1.13c0.83-0.42,1.6-1.08,2.33-1.64c0.77-0.6,1.83-1.8,2.89-1.67c-0.36,1.24-1.8,2.33-2.75,3.14c-0.6,0.51-1.19,1.01-1.83,1.46c-0.57,0.41-1.42,0.84-1.42,1.65c1.96-0.92,3.56-2.46,5.17-3.86c0.37-0.32,0.72-0.67,1.06-1.02c0.43-0.45,0.51-0.71,1.12-0.37c0.34,0.19,1.25,0.56,1.05,0.95c-0.25,0.47-0.65,0.84-1.03,1.2c-1.56,1.51-3.36,2.84-5.21,3.98c-1.79,1.11-3.71,2.35-5.72,3.02c-1.12,0.37-2.24,0.84-3.44,0.79C460.38,409.36,459.31,408.79,458.44,408.21M449.44,409.21c-0.11-0.57-0.26-1.16-0.25-1.75c0.76-0.16,2.32,0.72,2.5,1.5C451.06,408.83,450.11,409.18,449.44,409.21M456.44,408.71c-1.23-0.62-2.54-1.11-3.79-1.7c-1.39-0.65-2.69-1.49-4-2.29c-1.17-0.71-2.15-1.63-3.22-2.46c-1.11-0.87-2.54-1.77-3.23-3.05c0.52,0.15,0.93,0.55,1.5,0.5c-1.19-1.12-2.44-2.17-3.51-3.4c-0.93-1.07-2.04-2.11-2.74-3.35c2.74,1.43,4.25,4.55,6.85,6.23c0.36,0.23,0.78,0.31,1.14,0.52c0.54,0.32,0.94,0.72,1.4,1.15c0.71,0.67,1.36,1.43,2.1,2.06c1.61,1.37,3.44,2.61,5.21,3.75C454.61,406.98,456.66,407.97,456.44,408.71M450.44,406.96c-0.35-0.07-0.68-0.34-1-0.5c0.4-0.16,0.87,0.11,1.25,0.25C450.61,406.79,450.53,406.9,450.44,406.96M440.94,406.96c0-0.25,0-0.5,0-0.75c0.35,0.05,0.69,0.07,1,0.25C441.71,406.78,441.33,406.95,440.94,406.96M454.44,405.71c-1.93-0.47-3.77-2.36-5.25-3.61c-3.34-2.82-6.52-6.36-9.21-9.81c-1.33-1.71-2.88-3.19-3.44-5.35c-1.63-6.36-2.13-13.18-3.16-19.67c-0.54-3.37-1.25-6.7-1.8-10.07c-0.53-3.24-1.62-6.49-1.94-9.74c-0.12-1.22,1.28-3.04,2.55-3.25c0.07,3.25,1.12,6.66,1.62,9.87c0.55,3.48,1.11,6.97,1.74,10.44c1.46,7.97,2.42,16.12,4.11,24.04c0.17,0.79-0.08,1.69,0.78,2.16c0-3.72-1.02-7.43-1.2-11.15c-0.19-3.87-1.27-7.78-2-11.57c-0.81-4.25-1.33-8.54-2.12-12.79c-0.39-2.09-0.69-4.24-1.16-6.31c-0.34-1.43-1.22-3.39,0.01-4.6c0.38-0.37,0.83-0.68,1.18-1.08c0.78-0.91,1.48-2.35,1.8-3.5c0.57,0.61,0.56,1.99,0.63,2.78c0.78,8.5,1.5,17.14,2.92,25.56c0.09,0.55,0.24,1.09,0.38,1.64c1.13,4.41,1.44,9.08,2.43,13.54c0.54,2.45,1.14,4.89,1.57,7.37c0.28,1.64,1.37,3.97,1.08,5.63c-0.96-0.11-2.08-1.36-2.75-2c-0.12,1.19,1.46,2.38,2.22,3.11c2.98,2.86,6.03,5.59,9.28,8.14C454.61,405.54,454.53,405.66,454.44,405.71M442.94,404.71c0-0.5,0-1,0-1.5c0.63,0.33,1.19,0.82,1.75,1.25C444.28,404.84,443.44,404.7,442.94,404.71M446.19,404.46c-0.49-0.38-0.93-0.71-1.25-1.25C445.39,403.37,446.34,403.89,446.19,404.46M434.69,401.96c-0.16,0.55-0.53,1-0.92,1.4c-0.56,0.57-1.12,0.5-1.49-0.11c-0.1-0.18,0.14-0.68,0.2-0.87c0.1-0.36,0.18-0.31,0.55-0.4C433.58,401.84,434.15,401.71,434.69,401.96M444.19,402.96c-2.06-1.58-4.06-3.22-5.75-5.21c-0.76-0.89-1.6-1.69-2.29-2.65c-0.61-0.85-1.67-1.86-1.96-2.89c1.71,0.47,3.77,4.33,4.85,5.63C439.77,398.71,444.45,401.71,444.19,402.96M450.69,387.21c1.5,0.31,1.56,2.11,1.37,3.31c-0.22,1.37-1.13,2.5-1.33,3.92c-0.19,1.38,0.75,2.52,1.55,3.53c0.96,1.23,2.16,1.45,3.66,1.49c-0.75-0.47-2.13-0.99-2.25-2c0.95,0.16,1.77,0.44,2.75,0.5c0.18-0.75-1.28-0.66-1.75-1c0.42-0.38,1.2-0.14,1.68-0.08c0.59,0.08,1.16,0.1,1.75,0.21c1.41,0.29,1.91,0.89,2.57,2.11c0.26-0.82-0.02-1.47-0.25-2.25c1.37,0,2.6,1.22,3,2.5c0.39-0.74-0.15-1.52-0.25-2.25c0.98,0.25,1.31,2.16,1.25,3c0.68-0.85,0.41-2.33-0.02-3.25c-0.55-1.17-1.17-2.28-1.69-3.48c-0.17-0.39,0.35-1.21,0.73-1.32c0.69-0.19,1.18-0.24,1.8,0.17c0.23,0.15,0.29,0.4,0.31,0.65c0.15,1.39-1.49-0.44-1.63-0.51c-0.01,0.71,0.28,1.34,0.5,2c-0.33-0.09-0.66-0.2-1-0.25c0.3,0.93,1.14,1.52,1.48,2.45c0.33,0.9,0.5,1.88,0.77,2.8c0.46-0.37,0.81,0.1,1,0.5c0.26-0.77,0.5-1.43,0.25-2.25c-0.24-0.8-0.82-1.54-1.25-2.25c1.13,0,2.43,0.39,2.75,1.56c0.16,0.58,0.38,1.13,0.1,1.72c-0.28,0.58-0.57,1.14-0.84,1.72c0.84-0.28,1.14-1.02,1.71-1.62c0.47-0.5,0.55-0.63,1.22-0.71c0.61-0.08,0.99-0.09,1.57,0.08c-0.18,1.02-1.49,1.71-2.29,2.2c-1.03,0.64-2.03,1.06-3.19,1.38c-1.99,0.54-4.19,0.35-6.17-0.19c-2.13-0.57-4.22-1.27-6.38-1.78c-1.11-0.26-2.08-0.62-2.89-1.45c-0.43-0.44-0.86-0.79-1.11-1.35c-0.35-0.76-0.04-2.83,0.16-3.6c0.17-0.67,0.32-1.34,0.47-2.01c0.15-0.68,0.37-1.34,0.28-2.03C450.98,388.66,450.83,387.94,450.69,387.21M436.69,397.71c0.92,0.19,2.06,1.33,2.25,2.25C437.17,399.93,436.72,399.48,436.69,397.71M449.44,399.71c-1.09-0.59-1.6-1.62-2.16-2.66c-0.43-0.79-0.82-2.19-0.84-3.09c0.74,0.44,1.63,1.79,2.03,2.52C448.86,397.21,450.06,398.86,449.44,399.71M476.19,398.71c0.06-0.38,0.25-0.86,0.57-1.09c1.24-0.85,1.52,1.13,0.77,1.43C477.11,399.22,476.54,398.95,476.19,398.71M429.19,395.96c0.01,0.43,0.14,0.84,0.25,1.25c0.26-0.34,0.38-0.89,0.5-1.29c0.17-0.58,0.63,0.13,1-0.21c0.11-0.11,0-0.83,0-1c0.74,0.15,1.25,0.98,1.25,1.7c0,0.49-0.53,0.28-0.77,0.57c-0.29,0.34-0.52,0.7-0.76,1.08c-0.44,0.71-1.71-0.19-2.18-0.51C427.71,397.01,428.21,395.83,429.19,395.96M469.94,397.21c-0.04-1.11,1.69-1.2,2.46-1.25c1.06-0.07,2.01,0.46,3.04,0.5c-0.48-0.28-0.27-0.71,0.15-0.75c0.29-0.03,0.8,0.2,1.1,0.25c-0.13-0.67-0.5-1.31-0.5-2c1.35,0.66,2.5-0.9,3.75-1.25c-0.44,0.88-1.31,1.41-2,2.07c-0.74,0.7-1.12,1.72-1.97,2.32c-0.79,0.56-2.03,0.36-2.96,0.33C471.98,397.41,470.99,397.21,469.94,397.21M451.69,396.46c0.08-0.54,0.05-1.25,0.25-1.75c0.28-0.69,0.86-0.67,1.5-0.75c-0.24,0.5-0.53,0.98-0.75,1.49c-0.13,0.3-0.21,0.57-0.24,0.9C452.43,396.57,451.88,396.46,451.69,396.46M425.19,394.96c-0.71,0.37-1.62,0.2-2.25-0.25c1.03-0.81,2.37-0.32,3.2,0.09c0.46,0.25,1.39,0.42,0.42,1.09c-0.44,0.31-0.56,0.53-0.96,0.09C425.36,395.74,425.29,395.28,425.19,394.96M455.44,392.96c-0.6-0.15-1.09-0.35-1.69-0.21c-0.58,0.14-1.21,0.43-1.81,0.46c0.26-1.54,1.33-2.89,1.25-4.5c1.02,0.22,1.9,0.78,2.96,0.96c0.98,0.17,1.97-0.12,2.95-0.06c1.08,0.07,2.11-0.22,3.15-0.54c0.47-0.15,1.06-0.25,1.5-0.48c0.53-0.28,0.81-0.66,1.2-1.12c-2.17,0.48-4.24,1.45-6.5,1.5c-1.04,0.02-2.33,0.14-3.3-0.29c-1.13-0.5-1.65-1.32-2.45-2.21c0,0.33,0,0.67,0,1c-3.12-1.8,0.02-5.35,0.82-7.31c0.59-1.43,0.5-2.73-0.44-3.99c-0.5-0.68-0.87-1.16-1.12-1.95c-0.24-0.77-0.25-1.44-0.27-2.25c0.53,0.02,1.03,0.27,1.5,0.5c0-1.09-0.88-1.93-0.83-3.02c0.04-1.13-0.37-2.05-0.94-3c-0.25-0.42-0.79-1-0.88-1.47c-0.32-1.53,0.88-3.31,0.74-4.96c-0.08-1.03,1.56-1.73,2.26-2.17c0.77-0.49,2.18-1.08,3.07-1.21c0.92-0.14,2.17-0.64,3.08-0.46c0.57,0.11,1.09,0.08,1.68,0.04c0.56-0.04,1.1,0.24,1.63,0.4c0.6,0.18,1.22-0.06,1.82-0.01c0.63,0.05,1.29,0.36,1.93,0.47c1.51,0.27,1.7,1.94,1.7,3.15c-3,0-5.54-0.72-8.62-0.05c-2.61,0.57-5.4,2.01-7.38,3.81c1.95-0.97,3.85-2.13,5.94-2.76c2.69-0.82,7.01-1.91,9.59-0.14c0.32,0.22,1.18,0.58,1.34,0.93c1.22,2.63,2.8,5.01,4.12,7.58c1.41,2.76,1.77,5.69,1.77,8.75c0,2.77,0.07,2.92-2.28,3.41c-0.39,0.08-0.79,0.16-1.18,0.24c-0.11,0.02-0.47-0.85-0.54-0.99c-0.15,0.42-0.37,0.82-0.5,1.25c-1.03-0.88-0.28-3.14-0.22-4.31c0.04-0.75,0.32-1.55,0.48-2.29c0.21-0.94-0.02-1.45-0.72-2.03c-0.63-0.52-1.53-0.18-2.2-0.02c-0.88,0.22-1.53,0.25-2.41,0.31c-0.59,0.04-1.98,0.32-1.46,1.27c0.47,0.85,0.71,1.64,1.77,1.81c-0.78-0.66-1.53-1.43-1-2.5c0.56,0.24,0.95,0.35,1.56,0.42c0.57,0.06,0.96-0.43,1.44-0.67c1.07-0.54,2.25-0.5,2.3,0.9c0.14,3.19-1.67,6.53-0.64,9.75c0.28,0.9,0.82,2.21,1.69,2.72c1.04,0.62,1.93,1.13,3.17,1.09c0.24-0.01,1.48-0.2,1.51-0.11c0.17,0.54-0.02,1.05-0.16,1.59c-0.25,0.92-0.36,2.13-0.86,2.95c-0.38,0.63-0.48,0.72-1.21,0.84c-0.54,0.09-1.1,0.06-1.64,0.14c-1.11,0.17-2.06,0.69-3.09,1.1c-1,0.4-2.25-0.36-2.4-1.37c-0.17-1.15-0.39-2.06-1.54-2.53c-1.33-0.54-2.01,0.31-2.87,1.25c-0.33,0.37-0.21,1.06-0.25,1.54c-0.03,0.65,0.19,0.96-0.41,1.21c-0.95,0.4-2.07,0.58-3.06,0.83c-1.02,0.25-2.47-0.27-3.38-0.66C453.89,394.95,454.88,393.55,455.44,392.96M449.19,395.71c-0.88-0.51-1.26-1.39-1.56-2.31c-0.3-0.95,0.16-1.94,0.34-2.88c0.25-1.28,0.12-2.23-0.28-3.45c-0.21-0.64-0.44-1.63,0.24-2.1c0.7,1.39,0.97,2.68,1.14,4.23c0.16,1.46-0.84,2.83-0.39,4.27c0.22-0.22,0.55-0.41,0.5-0.75C449.57,393.12,449.38,395.26,449.19,395.71M428.69,393.46c0.35,0.05,0.69,0.07,1,0.25C429.41,394.18,428.75,393.97,428.69,393.46M476.94,393.46C477.32,392.7,477.7,393.08,476.94,393.46M446.19,393.46c0-3.76-1.42-7.71-2.13-11.39c-0.76-3.92-1.69-8.14-1.87-12.12c0.88-0.16,2.01,0.34,2.95,0.29c0.29-0.02,3.08-0.18,3.06-0.26c0.44,2.2,0.05,4.3,0,6.52c-0.06,3.23-1.92,6.32-1.66,9.5c0.05,0.55,0.24,0.99,0.43,1.51c0.24,0.66,0.23,1.02,0.19,1.74C447.1,390.27,446.84,392.65,446.19,393.46M432.44,392.71c0.47,0.11,0.89,0.21,1,0.75C432.93,393.4,432.36,393.39,432.44,392.71M477.94,392.71c0.28-0.61,0.69-1.15,1-1.75C479.43,391.59,478.6,392.61,477.94,392.71M479.94,392.46c0.16-0.68,0.21-1.3,0.25-2C480.6,390.96,480.52,392.1,479.94,392.46M436.69,392.21c-0.49-0.31-0.91-0.93-1-1.5C436.14,390.96,436.93,391.63,436.69,392.21M476.69,391.71c-0.83-1.39,0.33-2.77,1.75-3C478.25,389.77,477.82,391.36,476.69,391.71M449.69,391.71c0.02-0.51,0.2-1,0.25-1.5c0.06-0.57,0-1.18,0-1.75C450.44,389.08,450.38,391.24,449.69,391.71M479.94,390.21c0.04-0.29-0.13-0.51-0.25-0.75C479.97,389.62,480.12,389.93,479.94,390.21M470.69,385.46c0.81,0.15,1.98,0.92,2.79,0.6c0.78-0.31,1.87-1.1,2.71-1.1c0.04,0.68,0.19,1.39-0.1,2.03c-0.41,0.93-0.84,1.02-1.8,0.97c-0.27-0.01-0.9,0.08-1.13-0.08c-0.4-0.27-0.79-0.54-1.19-0.8C471.47,386.74,470.68,386.14,470.69,385.46M479.19,387.46c-0.8-0.69-0.74-1.71-1.08-2.64c-0.41-1.14-1.14-2.39-0.75-3.64c0.66-2.11,2-4.28,0.33-6.21c0.26,1.05,0.33,1.94,0.06,3c-0.18,0.71-0.41,2.13-1.31,2.25c0.04-1.2,0.63-2.69,0.41-3.87c-0.23-1.22-0.77-2.96-0.16-4.14c0.93,0.5,1.42,1.6,1.95,2.46c0.66,1.06,0.92,2.04,0.69,3.29c-0.18,1.01-1.14,2.13-0.98,3.16c0.17,1.15,0.67,2.2,0.84,3.34c0.25-0.47,0.25-0.98,0.25-1.5C480.87,383.38,480.09,386.81,479.19,387.46M461.69,380.96c0.11,0.5,0.43,0.88,0.75,1.25c-1.98-0.59-4.43-1-6.25,0.25c0.02-0.51,0.16-1,0.25-1.5c-1.73,0.3-1.91,2.87-0.78,3.83c1.34,1.12,2.88,1.78,4.58,2.05c0.66,0.1,1.6,0.03,2.12-0.42c0.36-0.31,0.72-0.63,1.09-0.94c0.34-0.31,0.7-1.74,0.77-2.21c0.08-0.66-0.07-0.69-0.55-1.16C463.17,381.63,462.36,381.1,461.69,380.96M477.44,386.71c-0.28-0.53-0.24-1.17-0.25-1.75C477.66,385.29,477.83,386.27,477.44,386.71M456.69,384.21c0.91-0.11,2,0.57,2.88,0.82c1.02,0.29,1.84,0.15,2.88,0.18c-0.45,0.82-1.86,1.42-2.73,1.07C458.8,385.91,456.85,385.38,456.69,384.21M434.94,385.46c-0.86-0.52-1.32-1.55-1.84-2.38c-0.63-1-1.2-2.02-1.78-3.05c-2.16-3.86-3.24-8.34-5.69-12.03c-0.56-0.84-1.7-1.39-2.54-1.93c-1.69-1.11-4.46-2.07-5.74-3.66c-0.34-0.42-0.92-0.86-0.81-1.46c0.2-1.17,1.65-2.63,2.27-3.66c0.63-1.05,1.22-2.38,2.19-3.17c0.51-0.42,0.76,0.23,1.04,0.61c4,5.47,7.32,11.3,10.62,17.2c0.45,0.81,0.62,1.33,0.78,2.24c0.05,0.32,0.1,0.64,0.14,0.96c0.07,0.51,0.26,0.76-0.23,0.96c-0.54,0.22-1.01,0.68-0.95,1.26c0.1,0.89,0.94,0.21,1.53,0.1c0.05,2.12,0.86,4.15,1.05,6.25C435.04,384.25,435.3,385,434.94,385.46M472.19,385.21c0.43-0.38,1.23-0.25,1.75-0.25C473.53,385.34,472.69,385.2,472.19,385.21M449.19,385.21c-1.16-1.38,0.12-4.02,1.5-4.75c0.12,0.84-0.71,1.95-1.06,2.65C449.29,383.78,449.46,384.56,449.19,385.21M450.44,383.71c-0.01-1.04,0.74-1.74,0.92-2.71c0.23-1.27,0.33-1.96-0.04-3.2c-0.51-1.7-2.04-4.05-1.13-5.84c0.69,0.47,0.65,2.14,1.01,2.87c1.05,2.18,2.53,3.86,1.09,6.34C451.83,381.95,451.14,383.13,450.44,383.71M471.69,383.46c0-0.66-0.21-0.95,0.46-1.04c0.52-0.07,1.02-0.02,1.54,0.04C473.22,382.91,472.31,383.29,471.69,383.46M457.19,383.21c0.29-0.53,0.9-0.93,1.5-1C458.69,382.98,457.91,383.61,457.19,383.21M474.44,383.21c-0.17-0.08-0.33-0.17-0.5-0.25C474.15,382.73,474.64,382.9,474.44,383.21M461.44,383.21c-0.49-0.12-0.99-0.29-1.5-0.25C460.33,382.55,461.97,382.78,461.44,383.21M480.19,382.21c-0.48-0.65-0.55-1.46-0.67-2.23c-0.11-0.75,0.45-1.36,0.53-2.06c0.13-1.1,0-1.63-0.34-2.69c-0.25-0.78-0.78-1.44-1.2-2.14c-0.84-1.4-0.54-2.82,0.28-4.15c0.46-0.75,0.96-1.45,1.25-2.28c0.25-0.74,0.15-1.68,0.15-2.44c1.2,0.23,3.65,1.89,3.41,3.29c-0.71,4.23-1.74,8.46-2.62,12.67C480.81,380.93,480.88,381.71,480.19,382.21M448.44,381.21c0.03-0.77,0.26-1.56,0.41-2.31c0.12-0.6,0.18-1.45,0.84-1.69C449.69,378.59,449.81,380.39,448.44,381.21M431.19,374.21c0.21-0.27,0.65-0.63,0.58-1c-0.07-0.38-0.71-0.6-1.04-0.43c-0.23,0.12-0.67,0.86-0.59,1.13C430.26,374.37,430.82,374.21,431.19,374.21M467.44,371.46c-0.38-0.34-1.02-0.42-1.5-0.5c0.69-0.38,1.39-0.31,2.16-0.29c0.51,0.02,0.98,0,1.47,0.16c0.37,0.12,0.74,0.33,1.13,0.38c0.12-0.6-0.34-1.02-0.7-1.44c-0.27-0.32-1.16-0.13-1.55-0.14c-1.22-0.03-2.4,0.07-3.62,0.14c-0.54,0.03-1.1,0.22-1.63,0.34c-0.46,0.11-0.51,0.02-0.43,0.52c0.04,0.22,0.1,0.49,0.2,0.68c0.4,0.75,0.67,0.31,0.99-0.1c0.37-0.47,0.92-0.62,1.5-0.5c-0.7,0.41-0.07,0.85,0.4,0.95C466.35,371.76,466.97,371.7,467.44,371.46M429.44,371.53c0.28-0.28,0.87-0.64,0.83-1.07c-0.04-0.4-0.73-0.66-1.07-0.57c-0.29,0.07-0.86,0.76-0.83,1.05C428.4,371.47,429.05,371.45,429.44,371.53M468.94,371.46c-0.4-0.28-0.77-0.25-1.25-0.25C468.04,371.49,468.51,371.45,468.94,371.46M475.94,371.21c-0.02-1.16,0.47-2.15,0.78-3.25c0.32-1.17,0.47-2.3,0.47-3.5c0.25,0.1,0.44,0.23,0.5,0.5c0.29-0.77-0.55-1.33-0.75-2c0.76,0.32,1.65,0.63,1.9,1.54c0.26,0.95,0.29,1.64-0.03,2.58c-0.3,0.88-0.81,1.58-1.35,2.34C477,370.09,476.62,370.76,475.94,371.21M449.69,371.21c-0.61-1.15-0.97-3.22-1-4.51c0.91,0.17,1.52,1.3,1.68,2.13C450.55,369.81,450.58,370.65,449.69,371.21M432.69,370.71c-0.23-0.22-0.32-0.48-0.5-0.75C432.49,370.05,433.09,370.37,432.69,370.71M451.19,369.96c0.16-2.22-2.83-4.02-1.75-6.25c0.32,0.36,0.4,1.14,0.54,1.59c0.17,0.52,0.62,1.01,0.96,1.45C451.47,367.46,452.17,369.3,451.19,369.96M444.94,361.46c0.88-0.16,0.76,1.09,0.81,1.7c0.14,1.64,0.82,3.42,0.69,5.05c-0.09,1.05-1.39,1.01-2.18,0.98c-0.71-0.03-1.66-0.38-2.03-1.02c-0.46-0.8-0.09-1.73,0.23-2.51C443.08,364.1,444.24,362.93,444.94,361.46M474.19,368.71c-0.44-2.57-0.68-6.04,0.35-8.5c0.23-0.56,0.65-1.15,1.12-0.41c0.31,0.51,0.77,0.95,1.11,1.45c0.36,0.51-1.92,1.66-2.07,2.47c0.49,0.06,1.05-0.04,1.27,0.46c0.33,0.73,0.52,1.06,0.37,1.85C476.16,366.95,475.23,368.57,474.19,368.71M469.19,368.71c-0.14-0.73-0.83-1.26-1.5-1.5c1.09-0.9,2.16-2.05,1.5-3.5c-0.71,0.75-0.69,1.75-1.7,2.28c-0.89,0.47-2.15-0.15-3.05-0.28c0.11,0.8,1.37,1.18,2,1.5c-0.7,0.31-1.86,0.59-2,1.5c0.36-0.07,0.69-0.22,1.01-0.38c0.45-0.22,0.97-0.22,1.46-0.29C467.74,367.93,468.41,368.59,469.19,368.71M427.94,365.96c-0.65,0.11-2.39,1.12-1.29,1.81C427.59,368.35,428.61,366.78,427.94,365.96M452.94,367.71c0.81-1.08,2.38-1.63,2.75-3C454.74,364.87,451.98,366.53,452.94,367.71M432.19,367.71c-0.65-0.86-1.05-1.89-1.57-2.83c-0.24-0.44-0.5-0.91-0.5-1.42c-0.01-0.5,0.31-1.22-0.06-1.63c-0.33-0.37-1.13-0.34-1.45-0.74c-0.33-0.41-0.18-1.09-0.12-1.56c0.17-1.38-1.9-0.77-1.88-1.81c0.01-0.35,0.31-1.29,0.2-1.57c-0.31-0.75-0.76-0.62-1.56-0.75c-1.62-0.26,0.26-1.63-0.07-2.24c-0.4-0.74-0.34-0.9-1.18-0.83c-0.56,0.05-0.89,0.68-1.25,0.04c-0.49-0.86,0.56-1.97,1.01-2.64c0.57-0.88,0.96-1.42,1.64-0.27c2.29,4.12,4.77,8.47,6.2,12.98C431.86,363.27,432.69,366.95,432.19,367.71M430.69,367.21c-0.27-0.16-0.3-0.46-0.25-0.75C430.72,366.62,430.8,366.92,430.69,367.21M472.69,366.71c-0.99-1.85,0-4.77,0-6.75c0.64,0.7,0.2,2.52,0.3,3.41C473.1,364.28,473.31,365.93,472.69,366.71M424.94,365.21c0.52-0.29,0.85-0.49,1.2-0.96c0.52-0.7-0.69-0.7-1.02-0.73c-0.51-0.04-0.85,0.58-1.15,0.91c-0.08,0.09,0.21,0.6,0.26,0.72C424.31,365.37,424.78,365.26,424.94,365.21M456.69,364.96c0.18-0.31,0.2-0.65,0.25-1C456.65,364.25,456.4,364.59,456.69,364.96M441.19,364.46c-0.5-2.57-0.88-5.39-1-8c0.99,0.17,1.95,0.69,2.84,1.12c0.78,0.38,1.93,1.31,1.67,2.26c-0.25,0.92-0.92,1.74-1.51,2.47C442.69,362.91,442.05,364.62,441.19,364.46M457.94,364.21c0.68-0.51,2.34-0.81,2.5-1.75C459.89,362.61,457.13,363.22,457.94,364.21M481.69,363.96c-1.31-1.15-2.82-2.19-4.04-3.43c-0.63-0.64-1.43-1.32-1.8-2.14c-0.3-0.66-0.29-0.74-0.09-1.43c0.18-0.6,0.21-0.89,0.68-1.28c1.3-1.08,3.59-1.23,5.13-1.84c1.48-0.58,3.26-2.36,4.88-2.38c-1.28,3.14-2.71,6.24-3.46,9.56C482.77,361.94,482.61,363.45,481.69,363.96M422.19,363.21c0.59-0.2,1.09-0.35,1.52-0.81c0.6-0.66-0.22-0.87-0.73-1.1c-0.45-0.2-1.29,0.44-1.59,0.71C420.91,362.44,421.71,363.29,422.19,363.21M446.69,362.21c-0.49-0.95-0.81-2.4-0.96-3.46c-0.05-0.42,0.07-0.29,0.36-0.55c0.39-0.35,0.78-0.69,1.16-1.06c1.55-1.53,2.99-3.31,4.16-5.16c0.59-0.94,1.23-1.85,1.72-2.85c0.37-0.76,0.91-2.75,1.71-3.2c1.35-0.74,4.58,0.78,6.16,0.78c1.67-0.01,3.32-0.35,4.95-0.65c1.35-0.26,3.14,0.99,4.54,1.1c0.5,0.04,2.91-0.38,3.1,0.09c0.23,0.59,0.34,0.91,0.11,1.53c-0.58,1.58-1.35,3.2-2.22,4.64c-0.52,0.86-1.13,1.95-2.18,2.05c-0.56,0.05-1.04-0.08-1.53-0.33c-0.43-0.21-0.91-0.73-1.37-0.81c-0.49-0.08-0.98-0.14-1.46-0.3c-0.47-0.16-1.01-0.54-1.5-0.59c-0.43-0.04-0.93,0.14-1.38,0.15c-0.58,0.01-1.09-0.23-1.64-0.41c-0.82-0.26-1.94,0.39-2.83,0.29c-1.04-0.11-1.61,0.69-2.56,0.91c-2.1,0.49-3.93,1.72-5.49,3.15c-0.31,0.29-0.46,0.77-0.56,1.18c-0.1,0.39,0.04,1.22-0.21,1.52C448.1,361.05,447.57,361.65,446.69,362.21M465.19,361.46c-0.29-0.04-0.5,0.13-0.75,0.25C464.72,361.9,465.03,361.73,465.19,361.46M420.19,361.21c0.49-0.24,1.34-0.66,1.5-1.26c0.19-0.72-0.71-1-1.25-0.78c-0.47,0.19-1.21,0.78-1.36,1.29C418.83,361.3,419.65,361.21,420.19,361.21M470.69,359.21c0.25-1.33,1.87-2.57,2.73-3.55c1.06-1.2,2.21-1.7,3.77-1.7c-0.36,0.6-1.12,1.06-1.65,1.49c-0.52,0.43-0.8,1.01-1.2,1.54C473.49,358.11,472.02,358.78,470.69,359.21M450.69,358.71c0-0.25,0-0.5,0-0.75C450.89,358.19,450.88,358.48,450.69,358.71M469.44,358.46c-0.01-1.05,0.69-2.01,1.24-2.85c0.74-1.11,1.47-2.22,2.2-3.34c1.23-1.89,2.06-3.94,2.81-6.06c-1.9-0.55-4.13,0.6-6.13,0.19c-1.08-0.22-2.16-0.72-3.24-0.85c-1.07-0.13-2.28,0.31-3.35,0.44c-2.11,0.24-4.15,0.09-6.21-0.45c-1.03-0.27-2.28-1.03-2.94,0.16c-0.55,0.99-0.91,2.2-1.37,3.23c-0.9,2.02-2.14,3.82-3.47,5.57c-0.64,0.84-1.33,1.67-2.07,2.42c-0.4,0.41-2.39,1.62-1.79,0.25c0.88-2,2.69-3.64,3.82-5.52c0.83-1.38,1.58-2.8,2.23-4.27c0.66-1.49,0.99-3.42,2.06-4.69c0.75-0.9,2.96,0.39,3.84,0.58c1.91,0.41,3.86,0.53,5.81,0.41c1.22-0.07,3.3-1.23,4.45-0.86c0.62,0.21,1.21,0.41,1.8,0.68c1.93,0.87,4.3,0.61,6.32,0.41c0.86-0.09,1.67-0.35,2.5-0.57c0.46-0.12,0.72-0.36,0.75,0.25c0.02,0.38-0.15,0.8-0.26,1.17c-0.56,1.88-1.53,3.6-2.31,5.39c-0.71,1.62-1.81,3.18-2.85,4.59c-0.56,0.76-1.14,1.5-1.77,2.21C470.95,357.57,470.35,358.44,469.44,358.46M452.19,357.71c0.03-0.39,0.36-0.73,0.75-0.75C453.04,357.51,452.74,357.81,452.19,357.71M430.19,357.21c-0.87-2.66-2.55-4.92-3.56-7.5c-0.14-0.38-0.37-0.8-0.41-1.2c-0.05-0.48,0.72-0.61,1.15-0.79c0.44-0.18,0.76-0.41,0.97,0.08c0.92,2.12,1.21,4.58,1.74,6.82C430.26,355.39,430.74,356.5,430.19,357.21M508.19,356.71c-0.45-0.85-1.04-4.35-2.09-4.67c-0.9-0.26-1.75,0.23-2.66-0.11c-0.65-0.24-1.66-0.98-1.75-1.73c0.61,0,1.23-0.08,1.85-0.11c0.42-0.02,1.02,0.6,1.44,0.8c1.29,0.6,2.18-0.86,2.97-1.69c0.67,0.64,0.66,1.88,1.01,2.69c0.23,0.53,0.43,1.11,1.09,1.01c0.64-0.1,1.09-0.22,1.67-0.5c0.65-0.32,1.3-0.64,1.95-0.96c0.51-0.25,0.82-0.76,1.18-1.19c0.7-0.81,0.65-1.88,1.1-2.81c0.58,0.36,0.74,1.23,1.12,1.76c0.52,0.71,1.03,1.32,1.73,1.86c0.57,0.44,1.36,0.88,2.04,0.6c0.71-0.3,1.57-0.81,2.36-0.71c-0.14,0.76-2.4,2.29-3.07,2.63c-1.53,0.76-2.78-0.05-4.25-0.46c-0.5-0.14-1.02,0.79-1.34,1.11c-0.7,0.68-1.14,0.94-2.05,1.3C511.22,356.02,509.53,356.49,508.19,356.71M454.44,356.71c0.01-0.36,0.27-0.95,0.72-0.83c0.46,0.13,0.25,0.39,0.07,0.75C455.14,356.81,454.63,356.71,454.44,356.71M465.94,356.46c-0.05-0.52,0.29-0.7,0.75-0.75C466.79,356.26,466.49,356.56,465.94,356.46M443.19,356.46c-0.47-0.88,0.33-2.02,0.71-2.79c0.51-1.05,1.03-2.1,1.43-3.21c2.2-6.11,2.64-12.91,4.25-19.19c0.54-2.11,1.43-3.99,2.61-5.81c0.54,1.4-1.41,4.51-1.66,5.91c-1.13,6.44-2.25,13.16-4.53,19.31c-0.36,0.98-0.85,1.95-1.17,2.94C444.51,354.58,444.08,355.88,443.19,356.46M464.44,354.96c-0.01,0.46-0.62,1.51-1.19,0.94c-0.29-0.29,0.13-0.6,0.32-0.85C463.77,354.78,464.14,354.86,464.44,354.96M456.94,355.96c0.01-0.76,0.48-1.39,1.25-1.5C458.25,355.34,457.88,355.99,456.94,355.96M444.94,355.96c0.04-2.03,1.52-4.15,2.14-6.05c2.07-6.32,3-12.94,4.46-19.41c0.51-2.25,1.47-4.25,2.68-6.21c1.17-1.91,3.49-2.84,5.57-3.3c4.08-0.91,8.64-1.35,12.66,0.05c4.42,1.54,5.8,6.62,6.66,10.74c0.66,3.13,0.69,6.91-0.31,9.96c-0.45,1.41-1.51,0.47-1.29-0.67c0.69-4.04,0.63-9.38-0.9-13.22c-0.81-2.02-1.83-4.19-3.75-5.41c-1.72-1.09-4.17-1.34-6.17-1.5c-2.16-0.17-4.42,0.36-6.44,1.07c-1.13,0.4-2.03,0.9-2.94,1.67c-0.82,0.69-1.34,1.79-1.84,2.72c-1.63,3.03-2.15,7.14-2.82,10.48c-0.74,3.73-1.54,7.55-3.03,11.06c-0.63,1.49-1.28,2.97-2.05,4.39C446.92,353.53,446.09,355.21,444.94,355.96M459.94,355.71c-0.01-0.34,0.06-0.65,0.23-0.94c0.07-0.12,0.7-0.77,0.79-0.49C461.22,355.01,460.76,355.7,459.94,355.71M441.19,355.21c0.13-0.4,0.63-1.68,0.28-2.03c-0.68-0.68-0.85-0.84-1.78-0.47c-0.23-0.97-0.6-2.57,0.21-3.31c0.34-0.31,0.99-1.11,1.57-0.8c0.7,0.38,1.08,0.53,1.47,1.21c0.5,0.88,0.57,2.5,0.23,3.44c-0.22,0.6-0.43,1.19-0.75,1.74c-0.17,0.29-0.12,0.48-0.48,0.43C441.67,355.38,441.43,355.35,441.19,355.21M479.44,353.46c0.03-0.31,0.14-0.83-0.08-1.09c-0.18-0.21-0.63-0.41-0.88-0.22c-0.67,0.52-1.23,1.1-1.71,0.1c-0.22-0.46-0.05-1.96,0.24-2.32c0.69-0.84,1.12-1.25,2.06-1.77c0.74-0.41,1.63-0.02,2.37,0.15c0.71,0.16,0.97,1.26,0.99,1.9C482.47,351.81,481.12,353.42,479.44,353.46M508.94,344.71c-0.6,0.2-1.15,0.59-1.75,0.75c0.53-0.92,1.34-1.52,2.24-2.03c0.63-0.36,2.03-0.87,2.76-0.72c-0.03,1.08-0.79,2.14-1.05,3.2c-0.26,1.07-0.41,2.2-0.45,3.3c1.39-0.9,1.64-4.28,2.25-5.75c0.21-0.49,0.06-1.03,0.19-1.54c0.15-0.6,0.31-1.2,0.46-1.8c0.24-0.98,0.89-1.89,1.37-2.77c2.11-3.89,5.91-6.67,7.81-10.66c0.42-0.89,0.79-2.46,1.48-3.19c0.12-0.13,1.16-0.85,0.93-0.22c-0.16,0.44-0.34,0.87-0.51,1.3c-0.82,2.11-1.96,3.91-3.35,5.69c-1.4,1.8-3.03,3.4-4.38,5.23c-0.71,0.97-1.18,1.92-1.67,3.02c-0.43,0.96-0.6,2-1.06,2.94c-0.17,0.34-0.35,0.67-0.51,1.01c1.54,0.38,2.96,0.81,3.83,2.25c0.8,1.34,1.55,2.94,2.8,3.93c0.44,0.36,0.84,0.68,1.34,0.94c0.38,0.19,0.93,0.41,1.03,0.88c-0.53,0-0.92,0.02-1.41,0.25c-0.81,0.38-0.97,0.47-1.78,0.09c-1.08-0.5-1.61-1.37-2.06-2.4c-0.39-0.88-0.75-2.42-1.96-1.78c-0.7,0.37-0.69,2.3-0.94,3.03c-0.32,0.91-1.55,1.62-2.4,1.91c-1.14,0.38-2.24,0.83-2.63-0.73c-0.28-1.1-0.29-2.03,0.05-3.13c0.14-0.45,0.56-1,0.49-1.5c-0.09-0.61-0.7-0.55-0.96-0.97C508.97,345.07,508.92,344.92,508.94,344.71M483.69,351.46c0-1.59,0.27-3.04,0.66-4.58c0.21-0.85,0.42-1.62,0.78-2.42c0.3-0.65,0.76-1.52,1.29-0.58c0.84,1.47,1.75,3.14,0.84,4.83C486.63,349.89,485.03,351.17,483.69,351.46M502.69,349.21c0.39-0.49,1.1-0.99,1.7-1.16c0.39-0.11,1.42,0.61,1.3,1.16c0.44-0.09,0.85-0.31,1.25-0.5c-0.12,0.68-0.97,1.44-1.69,1.36c-0.39-0.04-0.72-0.51-1.06-0.64C503.76,349.26,503.15,349.28,502.69,349.21M443.94,349.71c-0.53-0.65-1.01-1.27-1.81-1.53c-0.88-0.29-1.52-0.23-2.44-0.22c0.65-1.16,1.85-0.66,2.91-0.49c0.66,0.11,0.64,0.18,0.99,0.78C443.84,348.68,444.25,349.21,443.94,349.71M478.44,347.21c0.18-0.55,0.52-0.86,1.04-1.06c0.43-0.17,1.38-0.79,1.83-0.65c0.35,0.11,1.5,0.23,1.58,0.74c0.1,0.66,0.2,1.32,0.3,1.97c-0.77-0.13-1.4-0.77-2.16-0.87C480.15,347.24,479.32,347.21,478.44,347.21M507.19,347.21c0.09-0.56,0.53-0.79,1-1C508.09,346.79,507.66,346.97,507.19,347.21M444.19,346.95c-1.54,0.04-0.66-1.7-1.38-2.31c-0.65-0.55-1.16,0.34-1.48,0.8c-0.34,0.5-1.7,1.78-2.24,0.79c-0.4-0.73-0.16-2.01,0.1-2.74c0.75-2.07,3.21-3.22,5.17-2.04C445.79,342.3,446.62,346.88,444.19,346.95M482.94,344.96c0-0.56-0.07-1.95-0.97-1.58c-0.48,0.2-1.07,1.43-1.75,0.78c-0.52-0.5-0.59-1.28-0.46-1.98c0.13-0.68,0.25-1.93,0.87-2.39c0.6-0.45,1.53-0.8,2.31-0.68c0.79,0.13,1.11,1.46,1.42,2.06c0.28,0.56-0.09,1.75-0.26,2.33C483.92,344.11,483.7,345.1,482.94,344.96M473.44,337.96c0.39,1.21,1.29,3.03,1.15,4.33c-0.17,1.75-2.76,0.96-3.91,0.73c-0.61-0.13-1.62-0.11-2-0.7c-0.45-0.68,0.38-1.53,0.86-1.98c0.52-0.49,1.15-0.9,1.75-1.3C471.92,338.61,472.64,337.97,473.44,337.96M475.94,342.96c-0.57-0.3,0.51-5.79,0.53-6.41c0.07-2.13-0.14-4.13-0.55-6.21c-0.44-2.2-1.18-4.37-2.88-5.9c-3.03-2.74-8.42-2.32-12.03-1.21c-1.93,0.6-3.64,2.18-4.47,4.04c-0.82,1.83-1.29,3.79-1.62,5.75c-0.31,1.86-1.16,3.82-1.22,5.69c-0.59-0.64-0.01-2.44,0.08-3.23c0.38-3.18,1.36-6.73,2.69-9.64c0.98-2.12,2.78-2.81,4.86-3.51c1.97-0.66,4.24-0.9,6.31-0.55c1.09,0.19,2.13,0.22,3.19,0.55c0.87,0.27,2.35,0.68,2.89,1.46c1.32,1.9,2.34,3.88,2.83,6.16c0.42,1.94,0.4,4.42,0.4,6.41c0,1.82,0.42,4.5-0.32,6.2C476.45,342.93,476.39,343.05,475.94,342.96M465.69,335.96c0.45,0.66,0.65,1.45,0.93,2.18c0.25,0.67,0.71,1.5,0.7,2.22c0,0.92-0.06,1.62-1.02,2c-0.88,0.35-1.59,0.56-2.54,0.58c-1.39,0.02-2.21-2.99-1.75-3.98C462.53,337.85,464.4,336.15,465.69,335.96M461.19,339.96c0.15,0.76,0.67,1.52,0.9,2.29c0.15,0.49,0,0.59-0.48,0.65c-0.55,0.07-1.09,0.03-1.65,0.01c-0.31-0.01-0.79-0.07-1.02-0.29c-0.48-0.47-0.22-0.7,0.03-1.29C459.23,340.73,460.55,339.96,461.19,339.96M472.19,342.21c0-2.56-1.32-0.96-1-0.37C471.36,342.16,471.87,342.22,472.19,342.21M457.44,341.79c-0.96-0.42-1.23-0.82-1.78-1.7c-0.38-0.61-0.93-1.39-0.95-2.13c-0.02-0.72,0.29-1.75,0.77-2.28c0.46-0.5,1.22-1.62,1.95-1.72c1.07-0.15,2.67,3,2.75,3.79c0.1,1.08,0.09,1.58-0.68,2.37C458.86,340.79,458.28,341.36,457.44,341.79M454.19,339.46c0.91,0.19,1.62,1.39,1.75,2.25C454.6,341.75,453.54,340.8,454.19,339.46M438.44,341.46c-0.29-1.65-0.74-3.58-0.46-5.25c0.28-1.73,1.31-3.59,2.1-5.15c0.81-1.61,1.69-3.12,2.78-4.57c1-1.35,2.37-3.47,4.34-3.28c-0.19,1.24-1.46,2.45-2.11,3.47c-1.08,1.68-2.2,3.41-2.94,5.28c-0.96,2.45-1.91,4.94-2.62,7.47C439.32,340.11,439.08,341.05,438.44,341.46M485.44,341.21c0.1-2.24,0.5-4.28,0.28-6.5c-0.19-2.13-0.8-4.28-1.54-6.29c-0.56-1.53-1.33-2.98-2.22-4.34c-0.46-0.71-1.82-1.95-1.87-2.87c-0.02-0.37,0.42-1.24,0.63-1.55c1.27-1.92,2.32-3.97,3.44-5.98c1.17-2.1,2.09-4.83,3.64-6.66c0.38-0.46,0.59-0.7,0.94-0.12c1.18,1.94,1.66,4.09,2.01,6.31c0.33,2.06,0.43,4.55,0.13,6.62c-0.39,2.72-0.46,5.79-1.2,8.42c-1.05,3.62-1.72,7.44-2.94,11c-0.16,0.46-0.34,0.85-0.54,1.29C486.01,340.95,486.01,341.34,485.44,341.21M445.44,341.21c-0.79-0.53-1.5-0.73-2.42-0.98c-0.82-0.22-1.79,0.26-2.58,0.48c0.03-1.54,2.01-1.46,3.06-1.59C444.19,339.04,446.07,340.45,445.44,341.21M464.89,340.71c0.07-0.13,0.44-0.69,0.33-0.79c-0.1-0.09-0.6-0.68-0.76-0.42C464.29,339.78,463.96,341.3,464.89,340.71M475.19,340.71c-0.54-0.48-0.73-1.5-0.79-2.2c-0.09-1-0.06-1.68,1.04-2.05C475.95,337.44,475.92,339.79,475.19,340.71M467.94,340.46c-0.15-0.94-0.6-1.81-0.97-2.68c-0.23-0.56-0.98-1.87-0.54-2.43c0.63-0.81,1.27-1.36,2.08-1.99c0.35-0.27,1.9-1.68,2.41-1.21c0.73,0.68,1.03,1.45,1.38,2.37c0.27,0.71,0.93,2.1,0.31,2.78c-0.62,0.69-1.29,1.22-2.02,1.79C469.8,339.73,469.03,340.48,467.94,340.46M457.32,339.21c0.05-0.15,0.27-0.56,0.22-0.7c-0.06-0.18-0.57-0.42-0.75-0.31C456.27,338.55,456.84,339.5,457.32,339.21M441.19,338.21c0.08-1.9,0.66-3.61,2.22-4.78c1.67-1.26,3.54,0.74,3.87,2.28c0.24,1.13-0.12,4.96-1.94,3.11c-0.33-0.33-0.41-0.62-0.63-1.01c-0.38-0.65-0.36-0.75-1.1-0.54c-0.38,0.11-0.54,0.61-0.94,0.72C442.14,338.15,441.74,338.2,441.19,338.21M484.44,338.96c-0.64-0.29-1.1-0.6-1.83-0.6c-0.86-0.01-1.38,0.09-2.17,0.35c0.02-1.19,1.02-2.11,2.19-1.93c0.82,0.13,0.96,0.27,1.57,0.87C484.53,337.97,484.84,338.54,484.44,338.96M435.44,338.71c-0.27-0.83-0.53-1.6-0.71-2.46c-0.15-0.7,0.45-1.98,0.67-2.65c0.56-1.69,1.3-3.27,2.1-4.85c0.79-1.55,1.93-3.05,3.03-4.39c0.96-1.18,2.9-2.02,4.41-1.63c-0.23,1.2-2.28,2.54-3.05,3.47c-0.93,1.12-1.83,2.73-2.4,4.06c-1.01,2.34-2.17,4.58-2.98,7.01C436.31,337.83,436.21,338.85,435.44,338.71M461.45,338.07c-0.68,0.05-1.25-1.33-1.54-1.82c-0.47-0.78-0.96-1.54-1.21-2.42c-0.3-1.07,0.35-1.59,1.12-2.28c0.75-0.68,1.4-1.17,2.32-1.57c0.13-0.06,0.85,0.39,0.93,0.52c0.72,1.23,1.45,2.52,1.89,3.89C465.41,335.82,462.68,337.82,461.45,338.07M469.19,335.46c-0.29,0.63-0.41,1.53,0.53,1.37C470.7,336.66,469.58,335.63,469.19,335.46M474.94,329.46c0.43,0.87,0.5,1.8,0.5,2.75c-0.55-0.18-1.56,0.27-1.23,0.93c0.53,1.04,1.58-0.07,1.46,1.48c-0.09,1.15-1.31,2.33-2.25,1.13c-0.82-1.06-1.27-2.73-1.63-4.01c-0.12-0.44,0.79-1.13,1.13-1.34C473.54,330.04,474.2,329.56,474.94,329.46M488.44,336.21c0.05-1.74,1.05-3.56,1.47-5.25c0.58-2.34,0.94-4.78,1.33-7.16c0.72-4.29,1.12-8.71-0.06-12.97c-0.3-1.1-0.69-2.18-1.06-3.26c-0.24-0.7-1.41-1.88-1.15-2.67c1.07-3.19,3.06-5.98,4.21-9.13c0.25-0.68,0.76,0.62,0.8,0.72c0.2,0.53,0.44,1.06,0.58,1.6c0.57,2.18,0.94,4.42,1.13,6.67c0.18,2.13,0.36,4.34,0.26,6.48c-0.09,2.09-0.22,4.17-0.62,6.23c-1.15,6.01-3.32,12.16-5.88,17.72C489.21,335.7,489.07,336.33,488.44,336.21M481.69,335.71c-0.34,0-0.69,0.13-0.84-0.2c-0.15-0.31-0.33-0.63-0.41-0.96c-0.13-0.5-0.49-1.64-0.09-2.11c0.44-0.52,0.99-1.57,1.71-1.64c0.65-0.06,1.36,0.32,1.73,0.83c0.52,0.74,0.82,1.17,0.96,2.08c0.06,0.36,0.35,1.96-0.06,2.25c-0.48,0.34-1.33-0.73-1.56-0.99C482.5,334.28,481.98,335.12,481.69,335.71M462.19,335.21c0.17-0.77,0.12-1.5-0.82-1.19C460.44,334.33,461.84,335.13,462.19,335.21M503.69,332.71c1.24-0.86,2.95-1.51,4-2.58c0.7-0.72-0.15-1.37,1.03-1.76c1.31-0.45,2.64-0.42,4.01-0.42c1.48,0,1.11-0.92,2.11-1.14c0.75-0.17,1.64,0.54,2.22,0.9c0.6,0.37,1.24,0.68,1.88,1c-2.21,3.84-9.07-0.11-11.5,4c0.68,0.1,1.36,0.55,1.5,1.25c0.53-0.36,1.04-0.63,1.59-0.93c0.58-0.32,1.04-0.77,1.59-1.14c0.59-0.39,0.9-0.6,1.15,0.23c0.18,0.58-0.05,1.24-0.08,1.84c0.35-0.29,0.79-0.65,1.25-0.75c-0.09,0.48-0.52,0.73-0.91,0.96c-0.17,0.1-0.35,0.18-0.54,0.22c-0.45,0.1-0.29-0.11-0.59-0.35c-0.77-0.62-2.13,0.47-2.96,0.6c-0.93,0.14-2.16-0.29-3.04-0.56C505.51,333.81,504.19,333.61,503.69,332.71M455.44,334.71c0.05-0.69,0.11-1.38,0.16-2.06c0.04-0.58,0.31-1.2,0.9-0.66C457.67,333.03,456.43,334.11,455.44,334.71M465.69,334.46c-0.79-1.58-2.1-3.28-2.32-5.05c-0.1-0.77,1.43-1.66,1.96-2.03c0.36-0.26,1.94-1.34,2.4-0.97c0.73,0.57,1.13,1.19,1.57,2.01c0.36,0.67,1.26,1.96,1,2.76c-0.22,0.73-1.61,1.51-2.17,1.94C467.43,333.65,466.58,334.32,465.69,334.46M490.94,333.96c0.63-4.23,3.19-8.36,4.36-12.5c0.58-2.07,0.91-4.15,1.22-6.27c0.71-4.89,0.02-9.98-0.66-14.83c-0.11-0.8-0.46-1.55-0.58-2.34c-0.27-1.72-1.59-3.38-0.75-5.12c0.81-1.68,1.54-3.43,2.16-5.18c0.68,0.48,0.74,2.05,0.77,2.81c0.2,5.03,1.78,9.94,1.97,14.98c0.16,4.33,0.76,9.35-0.18,13.62c-0.44,2-0.63,4.17-0.85,6.2c-0.09,0.83-0.39,1.93-0.71,2.7c-0.49,1.18-0.91,1.75-1.92,2.54c-0.75,0.59-1.5,1.17-2.21,1.81C492.81,333.01,492,333.92,490.94,333.96M447.44,333.71c-0.73-0.41-1.45-0.82-2.18-1.23c-0.54-0.3-1.27,0-1.82-0.27c0.6-1,1.87-1.33,2.95-1.1c0.35,0.07,0.88,1.14,1.1,1.43C447.72,332.86,447.71,333.4,447.44,333.71M528.69,333.21c0-1.16-0.29-2.31-1.31-3.04c-1.15-0.82-1.99-1.71-3.44-1.71c0.28,0.36,0.9,0.56,1.31,0.75c0.56,0.26,1.02,0.73,1.4,1.21C527.3,331.23,527.77,332.69,528.69,333.21M515.19,333.21c0.09-0.59,0.45-1.23,1-1.5C516.19,332.37,515.71,332.89,515.19,333.21M460.19,325.71c-0.05-1.71,2.2-2.2,3.47-2.58c1.19-0.36,3.61,0.65,3.4,2.18c-0.07,0.54-0.99,1.06-1.42,1.36c-0.62,0.44-1.25,0.99-1.96,1.29c-0.78,0.33-1.29,0.06-1.94-0.51C461.19,326.96,460.72,326.25,460.19,325.71c0.63,1.03,2.07,2.58,1.3,3.82c-0.41,0.66-1.15,1.12-1.77,1.57c-0.45,0.33-1.4,1.05-2.02,0.94c-0.79-0.14-1.13-1.21-1.41-1.8c-0.25-0.53,0.41-1.68,0.62-2.16C457.38,327.03,458.81,324.95,460.19,325.71M517.69,331.71c0.02-0.74,0.54-1.52,1.25-1.75C518.94,330.73,518.31,331.36,517.69,331.71M467.07,331.21c0.05-0.15,0.27-0.56,0.22-0.7c-0.06-0.18-0.57-0.42-0.75-0.31C466.02,330.55,466.59,331.5,467.07,331.21M479.69,330.71c-0.01-1.16,0.73-2.41,1.99-2.46c0.93-0.04,1.92,0.71,1.76,1.71C481.99,329.53,481.06,330.66,479.69,330.71M447.44,330.71c0-0.58,0-1.17,0-1.75c-0.63,0.02-1.09,0.44-1.55,0.81c-0.38,0.3-1.05,0.74-1.11-0.03c-0.11-1.3,0.46-2.14,1.54-2.8c0.38-0.23,1-0.28,1.41-0.13c0.91,0.33,0.89,0.46,1.25,1.37C449.4,329.26,448.72,330.68,447.44,330.71M471.69,330.35c-1.19,0.21-2.07-2.4-2.55-3.22c-0.41-0.71-0.59-1.33,0.07-1.95c0.45-0.42,1.46-0.76,2.05-0.69c1.06,0.13,1.36,0.5,2.16,1.22c0.53,0.48,0.76,1.18,1.01,1.83C475.07,329.17,472.81,329.91,471.69,330.35M458.94,330.21c0.12-0.38,0.1-0.68-0.06-1.04c-0.07-0.14-0.62-0.64-0.71-0.4C457.92,329.41,458.1,330.23,458.94,330.21M479.19,327.96c-0.44-0.65-0.68-1.37-0.82-2.13c-0.08-0.42-0.2-0.73,0.05-1.09c0.2-0.29,0.55-1.11,0.91-1.17c1.39-0.25,3.6,2.3,2.86,3.63c-0.53-0.15-1.09-0.77-1.7-0.52C479.79,326.99,480.09,328.13,479.19,327.96M472.53,327.46c0.61-0.46,0.03-1.54-0.69-1.29C470.79,326.53,471.61,328.19,472.53,327.46M449.69,326.96c-0.65-0.39-1.24-0.77-1.97-1c-0.17-0.05-0.67-0.09-0.78-0.25c-0.22-0.34,0.17-0.71,0.46-0.76c0.45-0.08,1.55-0.44,1.85,0.09C449.54,325.57,450.23,326.38,449.69,326.96M462.69,324.96c0.09,0.43,0.91,1.42,1.26,0.63c0.1-0.23-0.12-0.72-0.31-0.83C463.33,324.58,462.95,324.83,462.69,324.96M503.19,323.21c0.26,0.14,2.06,0.67,1.98,0.15c-0.1-0.64-0.79-1.3-1.48-1.15c0.2-0.7,0.69-1.29,0.9-2c0.17-0.57-0.52-1.16-0.65-1.75c-0.45,0.11-0.8,0.38-1.22,0.55c-0.58,0.24-0.78,0.04-0.75,0.76c0.04,0.9,0.3,1.82,0.47,2.69c-0.54,0.08-1.6,0-1.87,0.62c-0.42,0.96,1.02,0.31,1.37,0.63c0.29,0.27-0.11,1.47,0.75,1.39C503.57,325.02,503.22,323.73,503.19,323.21M452.44,325.21c0.14-0.52,0.46-1.05,0.75-1.5C453.53,324.25,452.91,324.95,452.44,325.21M450.69,325.21c-0.2-0.39-0.04-1.3-0.4-1.58c-0.46-0.34-1.35,0.31-1.85,0.33c0.04-1.61,1.95-1.88,3.14-1.67c0.46,0.08,0.51,1.29,0.41,1.66C451.82,324.53,451.25,325.04,450.69,325.21M522.19,312.71c-0.01,0.43-0.2,0.89-0.31,1.31c-0.13,0.49,0.36,1.19,0.55,1.65c0.16,0.39,2.25,1.49,2.13,1.88c-0.14,0.44-0.21,1.23-0.62,1.49c-0.56,0.36-0.93-0.03-1.23-0.42c-0.56-0.73-0.91-1.45-1.77-1.9c0.51,0.66,1.21,1.64,0.75,2.5c-0.77-0.51-1.22-1.71-1.67-2.47c-0.48-0.82-1.52-1.35-2.33-1.78c0.47,0.78,1.34,1.27,1.88,2c0.46,0.62,0.87,2.38,1.58,2.65c1.02,0.39,1.98,0.6,2.95-0.01c0.83-0.53,1.84-0.93,2.85-0.88c-0.12,0.68-0.59,1.3-0.75,1.99c-0.14,0.6-0.76,1.44-1.38,1.62c-0.9,0.27-3.59,0.3-4.12,1.13c0.59-0.12,3.15-0.82,2.38,0.49c-0.58,1-2.12,1.03-3.11,0.95c-1.85-0.15-4.46-1.03-6.18-1.77c-1.02-0.43-2.02-0.92-2.88-1.61c-0.45-0.35-0.88-0.71-1.3-1.09c-0.46-0.41-0.2-1.16-0.14-1.67c0.19-1.76,1.74-4.56,2.65-6.06c0.63-1.03,0.84-1.75,2.08-1.91c0.92-0.12,1.88-0.21,2.8-0.08C518.97,310.95,520.5,311.67,522.19,312.71M466.94,323.21c0.93,0.08,2.61-0.12,3.25,0.75c-0.64,0.4-1.16,0.66-1.92,0.72C467.52,324.73,467.04,323.88,466.94,323.21M477.44,323.46c0.1-0.68,0.72-1.55,1.5-1.25C478.64,322.7,478.03,323.56,477.44,323.46M476.19,322.46c-0.48-0.41-1.01-0.79-1.22-1.4c-0.12-0.35,1.27-0.35,1.47-0.35C476.28,321.26,476.48,321.98,476.19,322.46M452.94,321.21c0.28,0,1.59-0.09,0.94,0.56C453.49,322.16,452.97,321.68,452.94,321.21M454.69,320.71c1.55-0.8,3.51-1.05,5.21-1.39c1.88-0.37,3.43-0.15,5.3-0.11c-1.06,0.93-4.1,0.77-5.44,1.04c-0.96,0.2-1.9,0.42-2.82,0.79C456.25,321.31,454.85,322,454.69,320.71M476.44,319.71c0.06-1.79,2.01-4.15,2.79-5.71c0.99-1.96,1.81-3.99,2.79-5.95c0.31-0.63,0.33-1.01,1.02-0.62c0.47,0.26,1.06,0.61,1.4,1.02c0.82,1,0.67,1.83,0.07,2.88c-0.91,1.6-1.84,3.19-2.77,4.78c-0.66,1.14-1.23,2.78-2.32,3.59C478.47,320.42,477.51,319.88,476.44,319.71M474.44,300.46c1.11-0.13,2.07,1,2.85,1.63c0.79,0.63,1.53,1.35,2.27,2.04c0.79,0.73,1.97,1.48,1.9,2.64c-0.17,2.72-2.45,6.67-3.86,8.96c-0.58,0.95-1.14,2.15-1.89,2.97c-0.38,0.42-0.96,0.75-1.4,1.11c-0.45,0.36-0.78,0.32-1.37,0.24c-0.82-0.11-1.85-0.29-2.13-1.15c-0.34-1.08,0.48-2.79,0.73-3.83c0.51-2.18,0.8-4.43,0.98-6.67c0.07-0.89,0.64-1.7,1-2.52C474.33,304.07,474.44,302.44,474.44,300.46M465.94,318.21c0.05-2.13,0.39-4.26,0.73-6.37c0.21-1.3,0.91-1.36,2.02-1.76c0.57-0.21,2.57-1.39,2.82-0.28c0.21,0.93-0.16,2.04-0.31,2.96c-0.18,1.08-0.44,2.15-0.7,3.22c-0.14,0.58-0.47,2.72-1.27,2.72C468.04,318.71,467.09,318.4,465.94,318.21M460.94,308.46c1.02,0.2,1.91,1.03,2.88,1.42c0.47,0.19,0.96,0.31,1.42,0.49c1.09,0.43,0.3,3.55,0.18,4.53c-0.1,0.8-0.24,2.37-0.88,2.95c-0.68,0.61-2.41,0.56-3.27,0.59c-1.47,0.05-1.27-1.3-1.13-2.34c0.3-2.19,0.32-4.43,0.59-6.63C460.76,309.13,460.87,308.79,460.94,308.46M526.19,317.96c-0.08-0.17-0.17-0.33-0.25-0.5C526.57,317.33,526.6,318.02,526.19,317.96M522.69,314.71c0.23-0.19,0.47-0.2,0.75-0.25C523.22,314.66,522.97,314.65,522.69,314.71M460.44,300.46c0.75-0.14,1.74,3.95,2.04,4.54c0.67,1.34,2.57,2.85,4.12,2.77c1.1-0.06,1.83-0.2,2.82-0.69c0.8-0.4,1.46-1.24,2.11-1.86c0.62-0.57,0.79-1.81,1.02-2.55c0.23-0.72,0.03-1.52,0.38-2.21c0.81,0.48,0.49,2.18,0.46,2.98c-0.04,1.08-0.35,2.13-0.96,3.03c-1.17,1.74-3.06,3.27-5.29,3.19c-1.15-0.04-2.26-0.2-3.33-0.64c-1.26-0.52-1.84-1.2-2.65-2.27c-0.58-0.76-0.92-1.82-1.01-2.76c-0.05-0.56-0.22-1.22-0.17-1.78C460.02,301.64,460.29,301.02,460.44,300.46M527.44,303.96c0.47,0.88-0.13,1.84-0.15,2.75c-0.01,0.48,0.24,2.75-0.81,2.44c-0.84-0.24-0.53-2.42-0.53-3.03C525.94,305.03,526.35,304.22,527.44,303.96M476.19,299.71c1.01,0.21,1.9,1.21,2.67,1.83c1.72,1.41,3.39,2.91,5.07,4.37c0.73,0.64,1.8,1.27,2.01,2.3c-0.92,0-1.85-0.9-2.47-1.49C481.24,304.55,477.69,302.48,476.19,299.71M465.19,304.71c-0.29,0.16-0.6,0.32-0.94,0.29c-0.81-0.08-0.77-0.08-1.13-0.81c-0.27-0.55-0.42-0.68-0.13-1.24c0.17-0.33,1.05-0.48,0.71-1c-0.17-0.25-2.32-0.92-1.16-1.39c0.67-0.27,1.86-0.45,2.54-0.26c0.43,0.12,0.55,0.75,0.72,1.11c0.24,0.5,0.51,0.73,0.97,0.99c0.38,0.21,1.01-0.34,1.36-0.53c0.68-0.36,0.25-1.04,0.7-1.39c0.33-0.26,1.99-0.09,2.31,0.09c0.96,0.55-0.34,1.46-0.94,1.63c0.72,0.93,0.79,1.64,0.43,2.74c-0.34,1.04-1.9,0.08-2.43-0.24c0.1,0.76-0.74,2.05-1.5,2.11C465.69,306.9,465.39,305.41,465.19,304.71M507.19,304.71c0.69,0.2,1.3,0.09,1.94-0.22c0.57-0.28-0.34-0.63-0.49-0.67c-0.41-0.1-0.86-0.08-1.29-0.11c-0.51-0.03,1.02-3.48,1.09-4.01c-0.78,0-1.12-0.68-1.5-1.25c-0.38,0.29-0.48,0.69-0.63,1.12c-0.2,0.6-0.6,0.21-1.13,0.13c-0.01,1.69,0.92,3.36,1.75,4.75c-0.97-0.2-2.02-1.27-2.75,0c0.43,0.23,0.9,0.23,1.38,0.24c0.65,0.01,0.33,0.69,0.45,1.23c0.13,0.58,0.43,0.61,0.83,0.15C507.16,305.74,507.22,305.16,507.19,304.71M526.19,303.46c-0.02-0.77,0.44-1.61,1.25-1.75C527.29,302.53,527.25,303.45,526.19,303.46M475.69,291.46c1.78,0.28,3.6,2.1,5.03,3.12c1.91,1.35,3.73,2.81,5.62,4.2c1,0.73,2.82,1.78,2.85,3.19c-1.24,0-2.63-1.51-3.53-2.25c-2.3-1.91-4.66-3.73-7.19-5.33C477.5,293.77,475.65,292.76,475.69,291.46M506.69,242.96c0.46,0.9,0.19,2.05,0.22,3.02c0.04,1.14-0.21,2.28-0.22,3.44c-0.02,1.96-0.54,4.27-0.96,6.19c-0.95,4.3-2.02,8.57-3.15,12.83c-2.28,8.6-5.37,17.13-9.25,25.14c-0.72,1.5-1.5,4.83-2.83,5.89c-0.48,0.38-0.74,0.79-1.32,0.46c-0.5-0.28-0.96-0.58-1.43-0.92c-0.44-0.32-0.79-0.87-1.16-1.27c-0.24-0.27,0.18-1.24,0.29-1.52c1.49-3.89,3.62-7.48,5.26-11.3c1.69-3.93,3.06-7.9,4.59-11.89c3.31-8.63,5.97-17.32,8.53-26.18C505.59,245.71,505.78,243.74,506.69,242.96M459.69,298.71c1.58-0.81,4-0.23,5.71-0.24c1.97-0.01,4.01-0.17,5.97,0.07c1.29,0.15,2.56,0.1,3.82,0.42c-0.58,1.2-2.51,0.75-3.54,0.75c-2.73,0-5.71,0.15-8.41-0.1C462.21,299.52,460.26,299.77,459.69,298.71M456.69,299.46c0.35-0.42,0.97-0.67,1.5-0.75C458.04,299.34,457.23,299.47,456.69,299.46M472.19,297.71c0.46-0.47,1.17-0.29,1.75-0.25C473.53,297.84,472.69,297.7,472.19,297.71M469.69,297.71c0.48-0.42,1.43-0.25,2-0.25C471.24,297.88,470.24,297.7,469.69,297.71M469.19,297.71c-0.25-0.12-0.46-0.29-0.75-0.25c0.29-0.23,0.69-0.17,1,0C469.36,297.54,469.28,297.65,469.19,297.71M466.69,297.46c0.43-0.33,0.99-0.25,1.5-0.25C467.81,297.55,467.15,297.45,466.69,297.46M462.19,297.46c0.48-0.42,1.43-0.25,2-0.25C463.74,297.63,462.74,297.45,462.19,297.46M472.94,296.21c-0.2-1-1.33-1.77-1.8-2.68c-0.23-0.45-0.69-0.98-0.12-1.21c0.93-0.38,2.39-0.13,3.28,0.23c0.45,0.18,0.38,1.17,0.38,1.59C474.69,295.53,474.42,296.2,472.94,296.21M468.69,296.21c0-0.38-0.15-0.99,0.44-0.72c0.38,0.17,0.68,0.3,0.81,0.72C469.52,296.21,469.11,296.21,468.69,296.21M465.19,296.21c0.12-0.9,1.37-1.07,1.75-0.25C466.39,296.24,465.78,296.2,465.19,296.21M464.94,292.46c-0.08,0.68-0.57,1.31-1.07,1.75c-0.74,0.64-0.78,1.09-0.68,2c-0.89-0.02-1.49,0.06-1.89-0.81c-0.22-0.48-0.22-1.67-0.09-2.19C461.55,291.81,463.93,291.95,464.94,292.46M511.69,294.21c0.87-0.02,1.5-0.03,2.25-0.5c-0.37-0.77-1.28-0.68-2-0.75c0.06-1.43,1.06-2.61,1.25-4c-0.83-0.01-1.18-0.86-1.5-1.5c-0.37,0.34-0.62,0.81-1,1.13c-0.47,0.4-0.84,0.23-0.7,0.95c0.13,0.62,0.34,1.21,0.54,1.81c0.16,0.49,0.12,1.1,0.16,1.61c-0.56,0.03-1.18-0.05-1.57,0.42c-0.62,0.74,0.44,0.67,0.92,0.81c0.47,0.14,0.39-0.02,0.44,0.57c0.02,0.22,0.28,0.71,0.49,0.77C511.63,295.72,511.72,294.6,511.69,294.21M471.19,295.46c-0.99-0.31-1.64-1.54-1.98-2.44c-0.04-0.11-0.51-0.12-0.54-0.01c-0.08,0.29-0.15,0.59-0.22,0.88c-0.12,0.52-0.26,1.04-0.77,1.31c-0.3-0.58-0.34-1.37-0.5-2c-1.1,0.58-1.6,1.98-3,2c0.68-1.18,2.12-2.96,3.6-2.92c0.81,0.02,1.7,0.38,2.33,0.92C470.57,293.59,471.45,294.85,471.19,295.46M461.69,291.46c-0.1-0.72,0.42-0.52,1-0.5c2.03,0.08,4.07-0.02,6.1,0.01c1.61,0.02,4.19-0.51,5.65,0.24c-0.52,0.78-3.23,0.28-4.06,0.34C467.56,291.79,464.53,291.46,461.69,291.46M462.19,289.71c0.19-1.17,1.18-1.82,2.32-1.72c0.59,0.05,1.18,0.1,1.77,0.16c1.55,0.15,3.18-0.29,4.76-0.16c1.11,0.09,2.46,0.42,2.73-1.01c0.57-2.99,1.13-6.52,1.16-9.55c0.04-2.48-0.38-6.76,0.76-8.97c0.71,0.87,0.26,2.79,0.25,3.82c-0.02,2.07-0.48,4.1-0.63,6.17c-0.12,1.65-0.36,3.36-0.37,5.01c-0.01,1.5,0.19,4.39-0.45,5.73c-0.3,0.64-0.89,0.63-1.51,0.76C469.61,290.7,465.61,289.71,462.19,289.71M467.44,287.21c0-0.72,0.1-1.57-0.22-2.25c-0.27-0.57-1.14-1.3-0.78-2c0.58,0.18,1.13,0.47,1.7,0.68c0.74,0.27,1.41,0.13,2.17,0.04c1.24-0.14,1.94-1.51,3.13-1.72c-0.54,1.86-3.77,1.98-4,3.15c-0.07,0.34-0.1,0.7-0.16,1.05C469.11,287.13,468.22,287.2,467.44,287.21M506.69,286.96c0.23-0.74,0.11-1.2-0.3-1.82c-0.46-0.7-1.01-0.85-1.78-1.07c-0.52-0.14-1.21,0.83-0.76,0.92c0.64,0.13,1.23,0.29,1.84-0.03C505.7,285.69,505.61,286.99,506.69,286.96M518.44,285.46c0.09-0.44,0.26-0.92,0.19-1.38c-0.04-0.25-0.41-1.11-0.72-0.56c-0.23,0.4-0.4,0.81-0.35,1.29C517.63,285.51,517.76,285.46,518.44,285.46M506.69,284.96c0.41,0.07,0.77,0.13,1.18,0.1c0.28-0.02,0.71-0.63,0.5-0.89C507.82,283.46,506.65,284.16,506.69,284.96M506.44,283.71c0.58-1.13,0.98-2.34,1.47-3.51c0.14-0.35-0.9-0.73-1.08-1.43c-0.09-0.37-0.43-0.97-0.74-0.36c-0.36,0.71-0.73,1.53-1.65,1.55c0.12,0.59,0.56,1.23,0.8,1.79C505.54,282.42,505.78,283.29,506.44,283.71M520.69,282.46c-0.62-0.16-1.11-0.25-1.75-0.25c0.17-1.12,1.52-2.88,1.25-4c-0.34,0.05-0.67,0.16-1,0.25c0.08-0.46-0.17-1.04-0.25-1.5c-0.5,0.28-0.85,0.75-1.34,1.05c-0.1,0.05-0.63,0.16-0.66,0.2c-0.32,0.39,0.53,2.13,0.68,2.56c0.19,0.54,0.48,1.98,1.04,2.18C519.38,283.2,520.69,283.79,520.69,282.46M517.69,283.46c-0.01-1.04-1.3-1.31-2-0.75C516.1,283.47,516.94,283.39,517.69,283.46M468.44,279.71c0.37,0.16,0.5,0.3,0.85,0.12c0.33-0.17,0.71-0.28,0.9-0.62c0.38-0.67-0.08-1.54,0.09-2.24c0.29-1.21,1.55-3.16,2.66-3.75c0.33,1.34,0.43,2.72,0.29,4.09c-0.06,0.65-0.2,1.24-0.37,1.87c-0.12,0.45-0.54,1.48-0.88,1.78c-0.83,0.71-2.18,2.11-3.43,1.71c-0.79-0.25-1.4-0.36-1.1-1.32C467.64,280.71,468.03,280.22,468.44,279.71M468.69,279.46C469.07,278.7,469.45,279.08,468.69,279.46M471.69,278.21c0-0.58-0.47-0.91-1-1C470.92,277.65,471.13,278.15,471.69,278.21M472.44,274.46c-0.58,0.36-1.11,1.34-1.25,2C472.28,276.45,473.23,275.47,472.44,274.46M512.19,275.96c0.34-0.45,0.65-2.03-0.36-1.88C510.89,274.22,511.38,275.81,512.19,275.96M511.19,273.96c0-0.55,0.14-0.76-0.45-0.86c-0.22-0.04-1.15-0.12-1.3,0.11c-0.15,0.22,0.25,0.7,0.43,0.78C510.33,274.17,510.7,274.04,511.19,273.96M514.44,273.71c0-0.97-1.08-1.12-1.8-0.83c-0.42,0.17,0.08,0.7,0.36,0.83C513.43,273.92,513.96,273.76,514.44,273.71M512.19,273.21c0.23-1.45,1.48-2.8,1.5-4.25c-1.06,0.03-1.54-0.77-1.5-1.75c-0.63-0.03-0.84,0.64-1.06,1.1c-0.08,0.17-0.13,0.66-0.29,0.63c-0.31-0.06-0.6-0.15-0.9-0.23c-0.02,0.92,0.29,1.69,0.69,2.5C510.95,271.89,511.32,273.1,512.19,273.21M504.69,266.21c0.02-0.95,0.09-1.81,0.25-2.75C505.27,263.86,505.65,266.33,504.69,266.21M506.44,265.96c-0.56-2.61-0.12-5.35-0.25-8C507.25,258.27,507,265.26,506.44,265.96M507.44,240.71c1.06,0.16,1.93,1.13,2.72,1.79c4.52,3.72,9.17,8.17,13.08,12.53c0.25,0.28,0.67,1.17,0.53,1.51c-0.51,1.22-2.05-0.65-2.42-1.06c-3.39-3.8-7.28-7.38-11.18-10.65C508.8,243.7,507.4,242.62,507.44,240.71M483.94,255.71c0.64-1.9,2.76-2.53,4.29-3.52c1.97-1.27,3.89-3.08,5.35-4.91c2.79-3.49,5.47-7.68,6.09-12.2c0.14-1.02,0.2-1.89,0.12-2.92c-0.06-0.74,0.12-2.24,1.15-2.2c0.04,0.99,0.42,2.05,0.24,3.04c-0.19,1.05-0.32,2.11-0.51,3.16c-0.74,4.13-3.17,8.51-5.73,11.81c-1.26,1.63-3.14,3.21-4.75,4.5c-0.92,0.73-1.98,1.33-2.96,1.98C486.28,255.06,485.1,255.72,483.94,255.71M521.19,247.96c1.18-0.64,3.72,0.2,4.75,0.9c0.51,0.35,1.54,1.27,1.38,1.98c-0.09,0.4-0.07,1.06-0.44,1.29c-0.28,0.17-1.08,0.05-1.41,0.07c-0.1,0.01-0.01,1.09-0.03,1.25c-0.11,0.62-0.42,0.71-0.95,0.95c-0.7,0.32-1.66-0.7-1.92-1.22C521.74,251.49,521.65,249.77,521.19,247.96M486.19,252.71c0.05-1.31,1.14-1.84,1.86-2.73c0.42-0.52,0.62-0.92,0.76-1.58c0.18-0.84,0.82-0.69,1.49-0.65c0.36,0.02,1.18,0.28,1.33-0.2c0.35-1.14-0.34-2.29-0.02-3.41c0.19-0.65,0.47-1.11,0.83-1.68c0.37,0.32,0.9,1.33,1.53,0.92c0.84-0.57-0.48-1.41-1.03-1.42c0.26-0.92,0.83-1.49,1.74-1.66c0.83-0.15,1.68,0.11,2.51-0.09c0.1,0.65-0.47,1.45-0.75,2c-0.35,0.7-0.72,1.32-1.16,1.97c-1.53,2.24-3.59,4.41-5.59,6.24C488.76,251.28,487.42,252.37,486.19,252.71M516.94,243.46c1.82,0.1,3.46,0.19,4.99,1.24c0.56,0.38,1.21,1.34,0.64,2.01c-0.51,0.6-1.76-0.11-2.38,0c0,0.71,0.4,1.92-0.21,2.46c-0.62,0.54-1.6-0.01-2-0.65C517.08,247.06,516.98,245.12,516.94,243.46M527.44,249.21c-1.64-0.88-3.39-3.2-4.63-4.58c-1.41-1.59-3.1-3.18-4.72-4.56c-2.49-2.13-5.06-4.17-7.82-5.94c-0.85-0.54-1.95-1.33-1.5-2.52c0.24-0.63,0.62-0.24,1.09,0.04c5.94,3.49,11.89,9.24,16.23,14.55c0.66,0.81,1.5,1.59,1.5,2.7C527.6,249.01,527.51,249.14,527.44,249.21M490.44,245.46c0.58-0.1,0.62,0.22,0.67,0.75c0.02,0.16,0.04,0.91-0.17,1c-0.33,0.14-0.7-0.51-0.78-0.71C490.02,246.16,490.26,245.74,490.44,245.46M512.19,239.46c1.26-0.67,3.5-0.11,4.68,0.48c0.61,0.3,1.51,1.07,1.38,1.83c-0.17,0.98-1.33,0.85-2.12,1.06c-0.35,0.09-0.29,1.92-0.57,2.22c-0.55,0.6-1.68-0.12-2.02-0.66C512.73,243.06,512.43,241,512.19,239.46M511.19,238.46c0,0.72,0.25,1.41,0.14,2.13c-0.09,0.61-1.37,0.54-1.65,0.14c-0.83-1.15-2.04-2.8-1.54-4.28c0.18-0.53,0.17-0.51,0.71-0.65c0.42-0.11,0.75-0.03,1.19,0.04c0.77,0.11,1.34,0.3,2.06,0.6c0.52,0.22,1.56,0.66,1.21,1.47C513.02,238.54,511.77,238.46,511.19,238.46M497.19,239.96c-0.44-1.38-1.77-2.4-0.57-3.73c0.78-0.86,1.36-3.3,2.57-3.53c0,1.27-0.23,2.41-0.48,3.64C498.48,237.5,498.26,239.27,497.19,239.96M494.69,239.46c0.01-0.41,0.28-0.89,0.72-0.96c0.42-0.06,0.61,0.79,0.53,1.21C495.51,239.7,495.1,239.57,494.69,239.46"/></g></defs><g id="queen_heart" transform="translate(-1843.32,-486.275)"><use xlink:href="#base" x="1843.32" y="486.275" xlink:type="simple" xlink:show="embed" xlink:actuate="onLoad"></use><g fill="none" stroke="black" stroke-width="1"><path d="M 1853.07 311.157L1853.07 488.545"/><path d="M 1853.07 488.545L1983.6 488.545"/><path d="M 2001.15 432.245L2001.15 254.607"/><path d="M 2001.15 254.607L1870.62 254.607"/></g><g><use xlink:href="#heart" x="783.087" y="117.357" transform="scale(2.4) rotate(180,783.087,117.357)" xlink:type="simple" xlink:show="embed" xlink:actuate="onLoad"></use><rect x="1860.91" y="262.673" width="9.69257" height="37.968" fill="white"/></g><g><use xlink:href="#heart" x="822.84" y="192.34" transform="scale(2.4)" xlink:type="simple" xlink:show="embed" xlink:actuate="onLoad"></use><rect x="1984.07" y="442.632" width="9.69257" height="37.968" fill="white"/></g><g transform="rotate(-1.80,1927.11,371.576)"><line x1="1880.31" y1="439.487" x2="1973.92" y2="303.665" stroke="black" stroke-width="7.25"/><circle cx="1882.73" cy="436.429" r="2.2" fill="white"/><circle cx="1882.73" cy="436.429" r=".7" fill="black"/><circle cx="1886.03" cy="431.637" r="2.2" fill="white"/><circle cx="1886.03" cy="431.637" r=".7" fill="black"/><circle cx="1889.33" cy="426.845" r="2.2" fill="white"/><circle cx="1889.33" cy="426.845" r=".7" fill="black"/><circle cx="1892.63" cy="422.053" r="2.2" fill="white"/><circle cx="1892.63" cy="422.053" r=".7" fill="black"/><circle cx="1895.94" cy="417.261" r="2.2" fill="white"/><circle cx="1895.94" cy="417.261" r=".7" fill="black"/><circle cx="1899.24" cy="412.469" r="2.2" fill="white"/><circle cx="1899.24" cy="412.469" r=".7" fill="black"/><circle cx="1902.54" cy="407.677" r="2.2" fill="white"/><circle cx="1902.54" cy="407.677" r=".7" fill="black"/><circle cx="1905.84" cy="402.885" r="2.2" fill="white"/><circle cx="1905.84" cy="402.885" r=".7" fill="black"/><circle cx="1909.15" cy="398.093" r="2.2" fill="white"/><circle cx="1909.15" cy="398.093" r=".7" fill="black"/><circle cx="1912.45" cy="393.301" r="2.2" fill="white"/><circle cx="1912.45" cy="393.301" r=".7" fill="black"/><circle cx="1915.75" cy="388.509" r="2.2" fill="white"/><circle cx="1915.75" cy="388.509" r=".7" fill="black"/><circle cx="1919.06" cy="383.717" r="2.2" fill="white"/><circle cx="1919.06" cy="383.717" r=".7" fill="black"/><circle cx="1922.36" cy="378.925" r="2.2" fill="white"/><circle cx="1922.36" cy="378.925" r=".7" fill="black"/><circle cx="1925.66" cy="374.133" r="2.2" fill="white"/><circle cx="1925.66" cy="374.133" r=".7" fill="black"/><circle cx="1928.96" cy="369.341" r="2.2" fill="white"/><circle cx="1928.96" cy="369.341" r=".7" fill="black"/><circle cx="1932.27" cy="364.549" r="2.2" fill="white"/><circle cx="1932.27" cy="364.549" r=".7" fill="black"/><circle cx="1935.57" cy="359.757" r="2.2" fill="white"/><circle cx="1935.57" cy="359.757" r=".7" fill="black"/><circle cx="1938.87" cy="354.965" r="2.2" fill="white"/><circle cx="1938.87" cy="354.965" r=".7" fill="black"/><circle cx="1942.17" cy="350.173" r="2.2" fill="white"/><circle cx="1942.17" cy="350.173" r=".7" fill="black"/><circle cx="1945.48" cy="345.381" r="2.2" fill="white"/><circle cx="1945.48" cy="345.381" r=".7" fill="black"/><circle cx="1948.78" cy="340.589" r="2.2" fill="white"/><circle cx="1948.78" cy="340.589" r=".7" fill="black"/><circle cx="1952.08" cy="335.797" r="2.2" fill="white"/><circle cx="1952.08" cy="335.797" r=".7" fill="black"/><circle cx="1955.39" cy="331.006" r="2.2" fill="white"/><circle cx="1955.39" cy="331.006" r=".7" fill="black"/><circle cx="1958.69" cy="326.214" r="2.2" fill="white"/><circle cx="1958.69" cy="326.214" r=".7" fill="black"/><circle cx="1961.99" cy="321.422" r="2.2" fill="white"/><circle cx="1961.99" cy="321.422" r=".7" fill="black"/><circle cx="1965.29" cy="316.63" r="2.2" fill="white"/><circle cx="1965.29" cy="316.63" r=".7" fill="black"/><circle cx="1968.6" cy="311.838" r="2.2" fill="white"/><circle cx="1968.6" cy="311.838" r=".7" fill="black"/><circle cx="1971.9" cy="307.046" r="2.2" fill="white"/><circle cx="1971.9" cy="307.046" r=".7" fill="black"/></g><use xlink:href="#queen" x="1847.32" y="283.537" style="fill:#e6180a" xlink:type="simple" xlink:show="embed" xlink:actuate="onLoad"></use><use xlink:href="#queen" x="2006.9" y="459.615" transform="rotate(180,2006.9,459.615)" style="fill:#e6180a" xlink:type="simple" xlink:show="embed" xlink:actuate="onLoad"></use><use xlink:href="#heart" x="1856.97" y="301.157" transform="rotate(180,1856.97,301.157)" xlink:type="simple" xlink:show="embed" xlink:actuate="onLoad"></use><use xlink:href="#heart" x="1997.25" y="441.995" xlink:type="simple" xlink:show="embed" xlink:actuate="onLoad"></use><use xlink:href="#queen_1" transform="matrix(0.999999,0.000000,0.000000,1.000000,1472.202,77.37381)" id="use1579" x="0.0000000" y="0.0000000" width="2178.4751" height="1215.6875" xlink:type="simple" xlink:show="embed" xlink:actuate="onLoad"></use><use xlink:href="#queen_1" transform="matrix(-1.000000,0.000000,0.000000,-1.000000,2382.186,665.8032)" id="use1580" x="0.0000000" y="0.0000000" width="2178.4751" height="1215.6875" xlink:type="simple" xlink:show="embed" xlink:actuate="onLoad"></use></g></svg>