<?xml version="1.0" encoding="UTF-8"?>
<svg xmlns="http://www.w3.org/2000/svg" xmlns:xlink="http://www.w3.org/1999/xlink" version="1.1" height="263" width="188" viewBox="-1.3 -236.8 188 263" preserveAspectRatio="xMidYMid meet" zoomAndPan="magnify" contentScriptType="application/ecmascript" contentStyleType="text/css"><defs><g id="queen"><text transform="scale(0.56453 1)" font-family="Bitstream Vera Serif" font-weight="bold" font-size="41">Q</text></g><g id="base"><path style="fill:#FFFFFF;stroke:#000000;stroke-width:2.5" d="M 0,0C0,3.78 3.09,6.87 6.87,6.87L159.715,6.87C163.485,6.87 166.575,3.78 166.575,0L166.575,-228.4C166.575,-232.18 163.485,-235.27 159.715,-235.27L6.87,-235.27C3.09,-235.27 0,-232.18 0,-228.4L0,0 z"/></g><g id="queen_2"><g><polygon style="fill:none;" points="235.16,276.6 234.35,280.56 236.21,285.78 235.89,284.38 "/><polygon style="fill:none;" points="223.2,296.05 222.82,294.87 222.72,298.69 "/><polygon style="fill:none;" points="217.72,303.62 216.99,302.69 218.75,308.41 221.82,303.72 222.37,300.67 219.14,303.56 "/><polygon style="fill:none;" points="234.71,301.71 238.08,295.57 230.13,308.6 231.95,306.06 "/><polygon style="fill:none;" points="239.2,292.79 238.32,291.7 238.98,293.57 240.69,289.65 "/><polygon style="fill:none;" points="240.49,262.72 237.76,266.93 241.66,262.09 "/><polygon style="fill:none;" points="243.74,281.56 244.46,279.6 244.52,279.58 244.8,278.24 244.69,278.77 "/><polygon style="fill:none;" points="236.86,268.31 235.18,276.5 237.58,267.2 "/><polygon style="fill:none;" points="247.03,267.63 247.14,266.25 246.39,270.65 "/><polygon style="fill:none;" points="229.67,268.26 224.48,277.91 219.87,286.65 216.66,291.23 219.2,289.18 220.14,289.94 218.95,288.8 229.7,268.64 235.45,257.39 236.63,254.76 233.75,260.38 "/><polygon style="fill:none;" points="225.25,253.85 226.01,253.54 224.69,254.04 "/><polygon style="fill:none;" points="232.69,250.54 235.43,248.81 235.73,248.6 230.76,251.46 "/><polygon style="fill:none;" points="247.8,245.73 248.08,249.9 247.73,258.77 248.29,251.77 "/><polygon style="fill:none;" points="237.04,247.69 237.93,247.07 240.19,244.9 239.9,247.12 238.65,249.86 237.31,253.22 242.3,242.07 241.8,243.02 "/><polygon style="fill:none;" points="245.08,236.81 243.16,240.45 245.63,236.38 245.39,235.7 "/><polygon style="fill:none;" points="247.18,265.73 247.73,258.87 242.8,261.48 246.55,260.98 "/><polygon style="fill:none;" points="171.83,329.8 171.86,330.3 172.73,316.29 171.89,319.13 171.18,320.28 172.22,320.23 "/><polygon style="fill:none;" points="176.43,364.9 174.76,359.01 175.67,362.79 "/><polygon style="fill:none;" points="173.06,350.27 173.56,353.1 172.86,348.05 172.31,340.68 172.42,343.95 "/><polygon style="fill:none;" points="168,325.28 166.43,326.97 167.29,326.4 "/><polygon style="fill:none;" points="190.17,308.31 188.62,306.87 190.2,308.55 "/><polygon style="fill:none;" points="190.73,312.23 190.47,310.42 190.46,313.2 "/><polygon style="fill:none;" points="177.79,372.93 180,374.35 179.23,372.36 179.18,373.65 "/><polygon style="fill:none;" points="179.11,372.05 177.55,368 177.8,368.71 "/><polygon style="fill:#F8C20F;" points="240.69,289.65 241.31,288.23 243.74,281.56 244.69,278.77 244.8,278.24 246.39,270.65 247.14,266.25 247.18,265.73 246.55,260.98 242.8,261.48 241.66,262.09 237.76,266.93 237.58,267.2 235.18,276.5 235.16,276.6 235.89,284.38 236.21,285.78 238.32,291.7 239.2,292.79 "/><polygon style="fill:#F8C20F;" points="216.99,302.69 217.72,303.62 219.14,303.56 222.37,300.67 222.72,298.69 222.82,294.87 221.74,291.47 220.14,289.94 219.2,289.18 216.66,291.23 216.6,291.31 216.45,291.4 215.28,292.35 213.58,296.47 215.11,300.32 215.82,301.22 216.8,302.08 "/><polygon style="fill:#F8C20F;" points="226.01,253.54 228.61,252.49 230.76,251.46 235.73,248.6 237.04,247.69 241.8,243.02 242.3,242.07 242.66,241.27 243.16,240.45 245.08,236.81 245.39,235.7 245.38,235.68 245.5,235.3 246.49,231.78 246.87,226.48 246.14,222.7 244.02,218.51 241.62,215.53 238.06,213.14 233.15,220.57 222.84,236.61 210.67,256.43 221.5,255.18 224.69,254.04 "/><polygon style="fill:#1C1585;" points="219.37,316.36 223,313.1 226.05,312.27 228.36,311.06 230.13,308.6 238.08,295.57 238.25,295.26 238.98,293.57 238.32,291.7 236.21,285.78 234.35,280.56 235.16,276.6 235.18,276.5 236.86,268.31 237.58,267.2 237.76,266.93 240.49,262.72 241.66,262.09 242.8,261.48 247.73,258.87 247.73,258.77 248.08,249.9 247.8,245.73 247.46,241.49 245.63,236.38 243.16,240.45 242.66,241.27 242.3,242.07 237.31,253.22 236.97,254.08 236.63,254.76 235.45,257.39 229.7,268.64 218.95,288.8 220.14,289.94 221.74,291.47 222.82,294.87 223.2,296.05 222.72,298.69 222.37,300.67 221.82,303.72 218.75,308.41 218.87,308.8 219.04,311.15 216.74,314.58 215.63,318.05 "/><polygon style="fill:#E61408;" points="197.18,278.65 196.4,278.68 193.53,283.2 190.53,287.81 189.58,289.95 194.1,289.98 "/><polygon style="fill:#E61408;" points="216.66,291.23 219.87,286.65 224.48,277.91 229.67,268.26 233.75,260.38 236.63,254.76 236.97,254.08 237.31,253.22 238.65,249.86 239.9,247.12 240.19,244.9 237.93,247.07 237.04,247.69 235.73,248.6 235.43,248.81 232.69,250.54 230.76,251.46 228.61,252.49 226.01,253.54 225.25,253.85 224.69,254.04 221.5,255.18 220.68,255.48 218.81,258.85 216.31,265.52 213.91,272.58 211.27,280.31 208.91,287.53 208.1,291.03 210.88,292.52 214.15,292.72 216.45,291.4 216.6,291.31 "/><polygon style="fill:#E61408;" points="245.39,235.7 245.63,236.38 247.46,241.49 247.8,245.73 248.29,251.77 247.73,258.77 247.73,258.87 247.18,265.73 247.14,266.25 247.03,267.63 246.39,270.65 244.8,278.24 244.52,279.58 244.46,279.6 243.74,281.56 241.31,288.23 240.69,289.65 238.98,293.57 238.25,295.26 238.08,295.57 234.71,301.71 231.95,306.06 230.13,308.6 228.36,311.06 226.05,312.27 225.94,312.32 225.45,313.35 227.25,314.16 229.77,313.4 232.97,310.63 237.91,304.41 243.24,295.6 246.78,289.15 249.06,284.6 249.72,282.77 249.84,282.95 253.86,273.2 256.82,262.05 258.08,254.1 258.23,247.51 254.69,240.32 251.15,233.69 247.17,230.15 245.5,235.3 245.38,235.68 "/><polygon style="fill:#E61408;" points="218.87,308.8 218.75,308.41 216.99,302.69 216.8,302.08 215.82,301.22 211.96,297.81 190.59,296.6 189.43,299.63 188.46,302.1 187.36,305.53 188.62,306.87 190.17,308.31 190.2,308.55 190.48,308.85 190.47,310.42 190.73,312.23 190.46,313.2 190.45,314.21 189.72,315.82 189.23,317.55 200.81,317.99 210.32,319.15 213.1,319.53 215.53,317.99 216.49,314.95 216.74,314.58 219.04,311.15 "/><polygon style="fill:#F8C20F;" points="190.46,313.2 190.47,310.42 190.48,308.85 190.2,308.55 188.62,306.87 187.36,305.53 188.46,302.1 190.09,297.05 185.38,295.86 173.13,314.94 173.14,314.9 165.74,326.15 166.35,327.03 166.43,326.97 168,325.28 168.67,324.23 170.3,320.32 171.18,320.28 171.89,319.13 172.73,316.29 171.86,330.3 172.12,335.16 172.31,340.68 172.86,348.05 173.56,353.1 174.19,356.68 174.76,359.01 176.43,364.9 177.55,368 179.11,372.05 179.23,372.36 179.23,372.36 180,374.35 177.79,372.93 176.91,372.48 175.4,371.4 172.92,369.81 168.59,366.78 166.66,368.2 165.75,369.15 163.67,370.44 161.02,370.65 156.54,372.7 155.35,373.73 158.03,374.63 160.69,375.83 162.32,376.52 163.14,376.16 164.3,374.81 164.4,373.4 163.53,372.11 164.47,371.55 167.77,373.18 168.47,375.73 166.12,380.36 166.7,380.62 167.66,380.4 168.03,379.78 168.68,377.73 170.73,376.8 173.58,377.49 174.81,380.07 171.67,379.8 170.1,380.24 169.36,381.56 169.2,383.3 170.27,383.93 170.36,386.35 172.08,387.47 177.66,387.38 178.59,386.4 178.7,384.46 178.14,382.98 176.19,382.08 178.87,380.49 182.2,382.65 183.25,385.41 186.67,384.98 191.4,386.26 192.43,384.3 192.78,380.88 187.02,378.32 180.5,374.68 180.28,374.54 181.61,374.54 178.68,359.46 179.57,344.98 183.86,328.72 189.72,315.82 190.45,314.21 "/><polygon style="fill:#E61408;" points="177.79,372.93 179.18,373.65 179.23,372.36 179.23,372.36 179.11,372.05 177.8,368.71 177.55,368 176.43,364.9 175.67,362.79 174.76,359.01 174.19,356.68 173.56,353.1 173.06,350.27 172.42,343.95 172.31,340.68 172.12,335.16 171.86,330.3 171.83,329.8 172.22,320.23 171.18,320.28 170.3,320.32 168.67,324.23 168,325.28 167.29,326.4 166.43,326.97 166.35,327.03 164.87,328.02 163.68,329.56 162.2,331.98 160.99,334.08 160.64,334.28 157.16,339.68 157.53,341.22 161.76,347.48 164.03,350.73 165.97,356.81 168.91,366.73 173.7,370.18 175.4,371.4 176.91,372.48 "/><polygon style="fill:#F8C20F;" points="267.46,296.93 265.38,299.48 265.93,301.23 265.6,305.26 263.48,314.07 264.75,314.47 265.52,313.88 266.79,310.39 267.97,303.99 268.29,297.01 "/><polygon style="fill:#E61408;" points="233.53,330.36 229.07,327.95 224.03,327.81 219.86,327.58 215.68,326.26 216.01,327.73 219.43,329.98 221.26,332.14 219.34,333.28 216.78,335.81 216.82,337.05 220.39,337.37 223.72,337.15 222.09,340.81 221.86,342.97 222.34,343.37 225.59,340.89 229.59,338.7 232.16,336.15 233.24,334.37 233.89,333.32 233.49,332.18 "/><polygon style="fill:#F8C20F;" points="254.01,325.81 251.97,326.77 248.74,326.17 247.69,325.15 246.39,323.19 242.17,321.02 235.23,320.18 234.41,320.45 235.65,322.36 238.81,324.65 241.69,326.64 244.3,327.39 246.7,327.3 248.02,327.47 247.84,327.82 247.82,328.09 242.9,329.81 238.19,330.29 233.53,330.22 233.53,330.36 233.49,332.18 233.89,333.32 233.91,333.39 236.78,332.83 239.07,333.01 238.72,333.52 238.5,333.72 236.89,334.52 233.28,339.31 232.32,340.62 231.59,345.76 232.11,345.9 235.07,343.9 236.53,341.47 238.39,339.95 239.07,337.97 239.53,336.45 240.01,335.03 240.47,334.15 240.97,333.45 241.7,332.72 243.34,331.93 248.9,330.23 249.25,330.2 253.73,328.55 253.87,328.6 250.79,333.3 247.95,337.16 247.47,343.69 247.69,346.29 250.17,343.98 253.14,339.76 255.77,334.27 255.53,328.88 255.52,328.87 255.99,327.49 257.82,325.43 259.97,323.16 257.51,323.61 "/></g><path d="M210.28,324.05c0.72-0.02,2.08-0.84,2.48-1.42c0.6-0.91,0.39-2.23,1.08-2.99c0.98-1.06,2.7-1.41,3.97-2c1.76-0.81,3.1-1.89,4.42-3.3c0.87-0.93,1.75-1.54,2.89-0.72c0.85,0.62,1.62,1.5,2.74,1.6c2.62,0.24,5.2-0.67,7.75-1.04c2.87-0.42,5.81,0.94,8.62,0.09c2.34-0.71,3.28,2.06,4.1,3.67c1.43,2.79,4.22,3.52,6.51,5.32c0.56,0.45,0.49,0.82,0.19,1.37c-0.37,0.67-2.07,1.27-2.73,1.53c-0.93,0.37-2.29,0.13-3.15-0.32c-1.07-0.55-1.43-1.62-2.2-2.48c-0.74-0.81-1.87-0.96-2.75-1.55c-1-0.67-2.07-1.22-3.24-1.54c-1.27-0.34-2.58-0.15-3.88-0.21c-1.19-0.06-2.34-0.49-3.53-0.49c0.32,1.84,2.62,3.76,4.07,4.75c0.84,0.58,1.74,1.06,2.58,1.65c0.9,0.63,1.81,1.34,2.92,1.54c1.54,0.27,2.88,0.06,4.43,0.06c-0.71,1.43-3.83,1.85-5.19,2.11c-2.36,0.45-4.8,0.39-7.19,0.38c-2.06,0-3.08-1.91-5-2.33c-1.06-0.23-2.16-0.22-3.24-0.3c-1.09-0.08-2.2,0.16-3.26,0.02c-1.94-0.25-3.89-0.14-5.75-0.81c-0.29-0.1-2.98-1.11-2.82-0.28c0.29,1.49,1.35,2.78,2.72,3.42c1.12,0.52,2.69,0.87,2.97,2.28c-1.59,0.24-3.2,2-4.15,3.18c-0.41,0.52-0.34,0.98-0.35,1.63c-0.01,0.86,2.72,0.9,3.22,0.93c1.2,0.05,2.34-0.24,3.52-0.24c-0.01,0.88-0.74,1.5-1.01,2.29c-0.32,0.94-0.51,1.89-0.45,2.89c0.07,1.38,1.14,1.04,1.91,0.37c2.16-1.91,4.56-3.21,7.03-4.67c1.35-0.81,3.18-2.94,3.03-4.63c-0.72,0.66-1.14,1.56-1.79,2.28c-0.86,0.95-2,1.73-3.06,2.44c-2.25,1.51-4.46,2.6-6.41,4.54c-0.34-1.08,0.15-2.08,0.65-3.01c0.35-0.64,0.87-2.26,1.5-2.69c1.35-0.93,2.96-1.52,4.51-2.03c0.46-0.15,1.26-0.34,0.62-0.93c-0.8-0.74-2.83,0.88-3.62,1.18c-1.71,0.65-3.69,1.43-5.54,1.46c-1.12,0.02-2.3-0.22-3.38-0.49c0.2-1.02,1.39-1.9,2.13-2.53c1.9-1.59,4.09-2.09,6.48-2.43c0.56-0.08,3.24-0.16,2.64-1.28c0.7-0.13,1.56,0.39,2.25,0.5c-0.26-1.27-1.88-1.67-2.94-1.89c-1.22-0.24-2.56-0.36-3.81-0.36c1.01-0.54,2,0.01,3.04-0.06c0.96-0.06,1.71-0.12,2.68,0.01c0.99,0.13,1.77,0.7,2.53,1.3c0.82,0.66,1.74,0.99,2.75,1.25c-0.33,0.07-0.68,0.13-1,0.25c0.82,0.69,2.26,0.59,3.24,0.46c0.68-0.09,1.35-0.19,2.03-0.22c0.7-0.03,1.54-0.38,2.22-0.24c-0.51-0.46-1.63-0.25-2.25-0.25c0.89-0.47,1.98-0.5,2.96-0.53c0.48-0.02,0.86,0.38,1.34,0.35c0.57-0.04,1.14-0.07,1.71-0.07c-1.54,0.74-3.12,0.89-4.5,2c-0.22-1.52-4.76-0.54-5.75-0.5c0.27,0.68,1.12,0.71,1.75,0.73c0.31,0.01,1.76-0.21,2,0.02c0.45,0.51-0.59,0.53-0.76,0.57c-0.64,0.15-1.08,0.61-1.45,1.13c-0.81,1.12-1.63,2.25-2.47,3.34c-0.65,0.85-1.9,1.76-2.08,2.86c-0.3,1.74-0.41,3.59-0.49,5.36c2.06,0.05,4-1.97,5.08-3.54c0.65-0.96,1.42-1.63,2.15-2.52c2.02-2.5,1.05-7.04,4.83-8.11c3.09-0.88,6.56-1.37,9.44-2.83c-0.21,0.71-0.7,1.29-1.11,1.88c-0.53,0.75-0.92,1.58-1.43,2.33c-0.81,1.19-2.01,2.14-2.48,3.54c-0.43,1.31-0.39,3.1-0.43,4.48c-0.05,1.67-0.17,3.37,0.19,5.02c1.07-0.36,1.75-1.31,2.47-2.11c1.01-1.11,1.98-2.18,2.78-3.46c1.39-2.23,3.31-5.09,3.48-7.78c0.07-1.08-0.34-2.11-0.42-3.18c-0.2-2.41,1.5-3.83,3.23-5.23c0.61-0.49,1.23-0.56,1.95-0.28c1,0.39,1.91,0.6,2.97,0.74c0.84,0.11,1.83-0.5,2.4-1.04c0.69-0.64,0.62-1.34,0.36-2.25c-0.05-0.18-0.35-0.99-0.23-1.17c0.06-0.11,1.01-0.4,1.17-0.55c0.54-0.54,0.6-1.43,0.54-2.15c-0.08-1.01,0.02-2.02-0.08-3.02c-0.08-0.77-0.74-1.29-0.87-2.02c1.11,0.28,2.37,0.89,3.52,0.84c0.85-0.04,1.71-0.61,1.04-1.49c-0.94-1.22-3.03-1.49-4.27-2.38c-0.45-0.32-0.02-1.6,0.05-2.01c0.2-1.26,0.37-2.53,0.5-3.8c0.28-2.71,0.41-5.43,0.41-8.16c-0.83,0.14-1.79,1-2.35,1.57c-0.74,0.74-1.29,1.87-1.11,2.96c0.36,2.06,0.52,4.66-0.07,6.67c-0.33,1.12-0.65,2.04-1.97,1.62c-0.83-0.26-1.51-0.83-2.28-1.23c-0.87-0.46-1.84-0.75-2.79-1c-1.77-0.48-3.82-0.46-5.46-1.29c-0.54-0.28-0.33-0.79-0.24-1.27c0.25-1.34,1.43-2.73,2.14-3.86c0.68-1.09,1.89-2.8,1.61-4.17c-2.01,1-2.03,6.93-5,6.25c0.44-1.27,2.14-1.73,2.5-3c-0.24,0-0.77,0.18-0.94-0.07c-0.29-0.43-0.06-1.67-0.06-2.18c-0.84,0.47-1.38,1.51-2.5,1.25c0,1.17,0,2.33,0,3.5c-0.32-0.03-1.96-0.32-1.54,0.55c0.09,0.18,0.52,0.38,0.54,0.45c0.12,0.34-0.28,0.98-0.39,1.3c-0.25,0.69,0.4,0.81,0.8,0.33c0.42-0.48,0.34-1.28,0.34-1.88c2.31,1.37-0.23,3.94-1.15,5.29c-1.28,1.89-2.57,3.87-4.38,5.29c-0.68,0.54-2.35,1.1-3.1,0.38c-0.22-0.21-0.49-0.25-0.51-0.43c-0.02-0.25,0.52-0.62,0.41-0.97c-0.04-0.15-0.14-0.39-0.29-0.46c-0.12-0.05,0.29-0.76,0.31-0.86c0.1-0.44-1-0.9-1.42-0.75c-0.52,0.18-0.15,1.07,0.23,1.16c0.45,0.11,0.48,0.07,0.42,0.5c-0.03,0.21-0.47,0.26-0.59,0.42c-0.16,0.21,0.06,0.59,0.01,0.89c-0.04,0.25-0.59,0.29-0.8,0.3c-1.48,0.08-2.77,0.12-4.24,0.4c-0.86,0.16-1.73,0.33-2.6,0.46c-0.68,0.11-1.43,0.03-2.06,0.37c0.04-0.29-0.13-0.5-0.25-0.75c1.34-0.47,2.27-1.71,3.21-2.7c1.1-1.16,2.17-2.32,3.12-3.61c1.05-1.42,2.08-2.86,3.08-4.32c0.88-1.28,1.54-2.72,2.59-3.88c-0.02,0.86,0.61,0.84,1.21,0.65c0.14-0.04,0.08-0.61,0-0.74c-0.16-0.29-0.41-0.5-0.71-0.65c0.54-0.6,1.03-1.24,1.71-1.7c0.47-0.32,1.17-0.68,1.29-1.3c-0.33,0-0.67,0-1,0c0.04-1.13,0.74-2.13,1.24-3.1c0.65-1.24,1.36-2.45,1.96-3.71c1.17-2.47,2.31-4.98,3.43-7.48c1.07-2.38,2.01-4.82,2.91-7.27c0.48-1.31,1-2.62,1.4-3.96c0.37-1.26,0.91-2.67,1.06-3.97c0.55,0.22,1.05,0.46,1.65,0.49c0.23,0.01,0.1,1.47,0.1,1.76c0.81-0.13,1.12-1.08,0.75-1.75c0.43,0.15,1.45,0.63,1.77,0.09c0.5-0.84-0.77-1.19-1.27-1.34c0.39-1.34,1.72-2.61,1.75-4c-0.33,0.09-0.66,0.2-1,0.25c-0.08-0.5-0.24-1-0.25-1.5c-0.46,0.34-0.67,1.2-0.75,1.75c-0.34-0.05-0.67-0.16-1-0.25c0.02,0.85,0.44,1.65,0.45,2.5c0,0.13-0.1,1.28-0.26,1.24c-0.47-0.12-0.95-0.27-1.45-0.24c0.12-2.86,0.71-5.67,1.2-8.48c0.49-2.81,0.55-5.67,0.55-8.52c1.38,0.72,2.14,2.25,2.79,3.59c0.91,1.88,0.53,4.64,0.48,6.66c-0.03,1.19-0.21,2.41-0.33,3.59c-0.14,1.32,0.12,2.58,0.06,3.89c1.38-0.9,0.2-3.97,0.31-5.26c0.22-2.42,0.78-4.78,0.44-7.23c-0.31-2.21-1.6-4.07-2.92-5.8c-1.34-1.73-2.4-3.47-3.4-5.4c-2.16-4.17-3.85-8.65-7.62-11.62c-1.75-1.37-1.31-3.9-1.65-5.87c-0.35-2.04-0.88-4.28-2.14-5.97c-1.61-2.14-3.79-4.89-6.43-5.8c-0.34-0.11-2.87,4.32-3.01,4.54c-1.6,2.49-3.57,4.99-4.82,7.68c0.72-0.44,1.39-1.15,2.19-1.43c0.86-0.3,2-0.42,2.91-0.54c1.84-0.25,3.71,0.98,5.4,1.48c-1.22,0.44-3.14,0-4.43,0c-1.42,0-3.18-0.26-4.46,0.51c-0.58,0.35-2.18,0.8-2.35,1.49c1.45-0.06,2.77-1.29,4.25-1.53c1.59-0.25,3.18-0.04,4.75,0.28c-0.96,1.95-3.38,2.09-5.25,2.5c0.94,1.1,3.28,0.25,4.5,0.25c-0.92,0.92-1.76,1.64-3.12,1.37c-1.33-0.25-1.49-1.83-2.63-2.12c0,1.52,1.5,3.06,3,3c-0.32,0.65-2.35,1.83-2.19,2.38c0.08,0.26,0.5,0.56,0.77,0.57c0.84,0.02,2-0.08,2.7-0.61c0.71-0.54,1.41-1.2,2.23-1.58c0.19,0.8-0.73,2.23-1,3c0.65,0.33,1.82-0.27,2.28-0.71c0.72-0.71,1.2-1.33,1.33-2.37c0.25-1.84-0.09-3.61-0.36-5.41c0.73,0,2.41,0.22,2.55,1.13c0.54,3.68-0.72,7.49-2.24,10.81c-1.54,3.36-3.91,5.99-6.88,8.15c-2.86,2.08-5.93,3.4-9.13,4.81c-1.71,0.75-3.64,1.11-5.45,1.51c-1.75,0.39-4.32,1.12-6.1,0.59c0.47-1.66,1.67-3.15,2.55-4.6c0.96-1.57,1.94-3.16,3.15-4.56c0.69-0.8,2.18-0.4,3.04-0.84c-0.23-0.78-1.08-0.75-1.75-0.75c0.25-0.54,0.23-1.04,0.54-1.58c0.35-0.59,1.64-0.59,2.22-0.85c1.05-0.47,2.21-1.25,2.74-2.31c-1.29-0.28-2.1-0.07-3.25,0.5c0.43-1.53,1.52-2.79,2.39-4.08c0.83-1.24,2.17-2.36,2.36-3.92c-0.99,0.88-1.68,2.31-2.44,3.39c-1,1.43-1.87,2.95-2.82,4.41c-1.82,2.8-3.52,5.67-5.31,8.49c-3.39,5.36-6.82,10.68-10.16,16.08c-3.56,5.74-7.16,11.49-10.85,17.15c-1.83,2.82-3.6,5.67-5.42,8.51c-0.93,1.45-1.82,2.94-2.76,4.38c-0.83,1.27-2.01,2.62-2.5,4.06c0.85-0.18,2.35,0.95,3,1.43c0.33,0.25,0.94,0.67,0.86,1.14c-0.31,1.76-1.49,3.44-2.05,5.14c-0.42,1.31-1.67,1.51-2.82,1.79c0.04-1.23,0.67-2.34,1.16-3.43c0.32-0.71,1.18-2.34,0.39-3.01c-0.57-0.48-1.13-0.97-1.8-1.31c-0.16,0.32-0.43,0.65-0.5,1c1.14,0.18,2,0.87,1.56,2.07c-0.71,1.89-1.23,4.41-2.58,5.96c-1.37,1.57-2.91,2.79-4.09,4.54c-1.25,1.86-2,3.89-2.65,6.02c-0.63,2.09-1.25,4.19-1.76,6.31c-0.27,1.12-0.54,2.24-0.75,3.37c-0.21,1.07-0.69,2.12-0.72,3.22c-0.48-0.9-0.34-2.06-0.28-3.04c0.08-1.45,0.18-2.9,0.27-4.35c0.09-1.33,0.37-2.61,0.5-3.93c0.14-1.37,0.59-2.81,0.52-4.19c-1.17,0.31-1.27,2.04-1.5,3c-0.25-0.43-0.8-0.33-0.85,0.16c-0.05,0.54,0.32,1.23-0.2,1.63c-0.52,0.39-1.2,0.46-1.57,1.05c-0.3,0.48-0.03,1.03-0.16,1.54c-0.34,1.36-1.06,2.85-2.15,3.73c-0.22,0.14-0.44,0.26-0.69,0.34c-0.33,0.15-0.33-0.31-0.61-0.22c-0.28,0.1-0.49,0.83-0.64,1.07c-0.46,0.75-1,1.44-1.45,2.19c-0.93,1.55-1.79,3.21-2.9,4.65c-0.43,0.56,0.69,1.95,0.89,2.56c0.43,1.28,0.83,2.57,1.24,3.86c0.7,2.23,1.02,4.87,2.11,6.93c-1.37-0.88-2.19-3.25-2.93-4.62c-0.98-1.81-2.23-3.49-3.07-5.38c-0.47,0.25-0.72,0.57-1,1c1,0.55,1.52,1.75,2.09,2.67c0.78,1.26,1.58,2.51,2.29,3.81c1.27,2.33,2.79,4.67,3.77,7.14c0.45,1.14,0.77,2.32,1.01,3.52c0.27,1.34,0.96,2.55,1.37,3.84c0.45,1.39,0.9,2.78,1.3,4.18c0.35,1.2,1.01,2.56,0.92,3.83c-1.78-0.21-2.32-2.76-2.68-4.16c-0.75-2.84-1.59-5.67-2.37-8.51c-0.8-2.92-2.22-5.4-3.85-7.92c-0.82-1.26-1.64-2.52-2.5-3.75c-0.67-0.96-2.08-2.14-2.09-3.4c-1.1,0.51,0.01,1.75,0.45,2.32c1.31,1.74,2.46,3.56,3.64,5.38c1.13,1.75,2.47,3.19,3.13,5.21c0.67,2.02,1.13,4.13,1.71,6.18c0.64,2.25,1.6,4.58,2.02,6.88c0.18,1.03-0.71,1.88-1.5,2.37c-0.82,0.5-1.27,1.61-2.13,1.93c-0.9,0.35-1.84,0.68-2.82,0.72c0.17,0.33,0.33,0.67,0.5,1c-0.5,0.15-1,0.15-1.5,0c0.28-0.42,0.6-0.76,0.75-1.25c-1.16,0.56-2.41,0.9-3.56,1.47c-1.09,0.54-2.45,1.36-3.69,0.78c0.03,1.48,1.57,1.91,2.71,2.37c0.42,0.17,0.86,0.01,1.29,0.08c0.4,0.06,0.73,0.39,1.08,0.56c0.95,0.49,2.05,0.77,3.06,1.13c0.27,0.09,1.27-0.68,1.44-0.93c0.56-0.78,0.7-1.06,0.79-2.01c0.06-0.69-0.19-1.17-0.63-1.7c1.89-0.52,5.26,2.94,3.63,4.58c-0.76,0.76-2.04,1.26-2.24,2.5c-0.2,1.28,0.96,2.01,2.1,1.42c-0.4-0.28-0.77-0.25-1.25-0.25c0.26-0.92,1.04-1.83,2-2c0,0.33,0,0.67,0,1c0.54-0.39,0.52-1.14,0.98-1.54c0.67-0.58,1.27-0.75,2.14-0.61c1.47,0.24,2.91,1.36,3.13,2.9c-1.23-0.21-3.51-1.16-4.66-0.1c-0.48,0.44-1.32,2.37-1,3c0.28,0.56,0.66,0.98,1.06,1.47c0.27,0.33,0.04,0.87,0.13,1.25c0.15,0.62,0.18,1.34,0.7,1.79c0.71,0.62,1.85,0.59,2.73,0.59c1.23,0,2.51,0.15,3.73-0.11c1.05-0.21,1.71-0.81,1.8-1.91c0.07-0.92,0.26-2.78-0.66-3.36c-0.51-0.33-0.97-0.53-1.58-0.62c1.17-1,3.23-0.85,4.36,0.25c0.71,0.69,1.18,1.24,1.48,2.19c0.2,0.62-0.79,1.35-1.09,1.81c0.88-0.11,1.57-0.07,1.89,0.91c0.16,0.5,0.56,0.47,0.75,0c0.15-0.38,0.17-0.78,0.34-1.17c0.42-0.98,1.51-0.67,2.21-0.25c0.51,0.3,0.82,0.39,1.03,0.94c0.14,0.36,0.05,0.94,0.03,1.33c1.22,0.04,1.26-1.05,1-2c0.19-0.04,2.03,0.32,1.99,0.58c-0.04,0.26,0.02,0.48,0.13,0.73c0.25,0.54,0.49,0.84,1.08,0.75c0.56-0.09,0.66-0.59,0.6-1.07c-0.12-0.92,0.07-1.58,0.26-2.47c0.26-1.19-0.26-3.22,1.27-3.79c1.47-0.55,3.07-0.57,4.54-1.13c1.42-0.54,2.79-1.27,4.05-2.12c2.61-1.74,5.19-4.42,6.62-7.22c0.72-1.41,1.08-3.01,1.5-4.54c0.46-1.69,0.28-3.37,0.57-5.08c0.27-1.59,0.83-3.13,1.14-4.71c0.37-1.85,0.7-3.71,1.25-5.52c0.27-0.88,0.63-2.29-0.61-2.45c-0.49-0.07-1.24-0.02-1.69-0.24c-0.79-0.39-1.04-0.35-1.15-1.21c-0.22-1.79-1.06-3.02-1.98-4.52c-0.29-0.48,0.04-0.96,0.08-1.48c0.25-2.71-2.17-3.58-4.4-4.09c-0.54-0.12-1.03-0.42-1.53-0.66c-0.58-0.28-0.33-0.86-0.09-1.25c0.34-0.54,0.44-0.95,1.05-1.13c0.59-0.17,1.17-0.35,1.76-0.54c0.75-0.24,1.17-1.08,1.57-1.69c0.56-0.86,1.34-1.54,1.95-2.36c0.41-0.55,0.37-1.41,0.71-2.02C209.96,326.01,210.28,325.08,210.28,324.05M172.03,384.3c-0.42-0.31-2.78-0.75-2.71-1.29c0.06-0.49,0.32-0.96,0.41-1.45c0.14-0.7,0.28-1.04,0.95-1.26c0.83-0.27,2.46-0.4,2.87,0.57c0.18,0.44,0.66,1.16,0.02,1.49c-0.4,0.2-1.13-0.16-1.54-0.3c0.6,0.73,1.05,1.26,1.24,2.2c0.13,0.66-0.29,1.45-0.49,2.05c0.58-0.38,1.03-0.86,1.61-1.24c0.43-0.28,1.65,0.04,2.14,0.24c-0.2-0.23-1.28-1.46-0.81-1.77c0.74-0.48,1.43-1.08,2.26-0.36c0.67,0.58,0.54,1.76,0.49,2.55c-0.05,0.87-0.54,1.2-1.37,1.29c-1.64,0.19-3.37,0.04-5.02,0.03c-0.62,0-1.68-0.63-1.61-1.37C170.54,384.98,171.41,384.47,172.03,384.3M184.78,382.8c0.41-0.17,1.5,0.09,1.72-0.42c0.28-0.65,0.51-1.46-0.32-1.89c-0.76-0.39-1.31-0.9-1.99-0.2c-0.72,0.75-0.35,1.09-0.16,2c-1.21-0.16-2.15-1.04-3.19-1.6c-0.76-0.41-2.17-0.9-2.31-1.9c0.5-0.04,1.24-0.03,1.51-0.55c0.25-0.47,0-1.2-0.01-1.7c1.79,0.26,3.51,1.69,5.02,2.61c1.95,1.19,4.1,2.04,6.03,3.26c0.42,0.27-0.5,1.02-0.34,1.5c0.22,0.68,0.49,1.24,0.79,1.87c-1.19-0.04-2.24-0.73-3.29-1.21C187.05,384.05,185.89,383.47,184.78,382.8M182.78,383.05c0.93,0.03,1.76,0.77,2.5,1.25c-0.41,0.42-0.96,0.84-1.6,0.5C183.2,384.54,182.97,383.53,182.78,383.05M191.53,384.55c-0.25-0.14-0.19-0.84,0.08-0.71C192.17,384.11,192,384.31,191.53,384.55M189.28,383.55c-0.1-0.25-0.23-0.44-0.5-0.5c0.12-0.14,0.55-0.51,0.5-0.75c-0.09-0.4-0.72-0.31-0.86-0.05C188.02,382.98,188.48,383.58,189.28,383.55M184.78,380.8c0.57,0.18,1.12,0.65,1.25,1.25C185.4,382.06,184.37,381.57,184.78,380.8M183.53,377.55c1.1-0.48,3.51,1.32,4.44,1.77c0.99,0.49,4.06,1.16,4.31,2.48c-1.63,0.01-3.09-0.93-4.46-1.7C186.37,379.28,184.93,378.45,183.53,377.55M175.53,381.55c0.26-1.44-0.97-2.79-1.5-4c1.36,0.05,2.79,1.38,3.89,2.1c0.2,0.13,0.43,0.39,0.51,0.61C178.63,380.85,175.97,381.54,175.53,381.55M187.78,378.05c0.43-0.33,0.99-0.25,1.5-0.25c-0.9-1.58-3.46-0.33-4.75-1.25c0.5-0.79,1.93-0.91,2.75-0.68c1.1,0.31,2.13,0.91,3.22,1.3c2.03,0.74,4.12-0.8,5.65-1.96c1.91-1.43,4.33-2.24,6.5-0.8c1.13,0.75,0.6,1.97-0.08,2.74c-0.96,1.06-2.75,1.6-4.07,2.02c-1.57,0.5-3.24,0.9-4.9,0.86C191.41,379.98,189.59,379.21,187.78,378.05M182.16,379.8c0.21-0.14,0.15-0.94,0-1.13c-0.24-0.29-0.89-0.28-1.2-0.17c-0.25,0.09-0.31,0.88-0.14,0.99C181.41,379.87,181.49,379.96,182.16,379.8M203.03,375.8c-0.52-0.91-2.05-0.85-2.94-0.78c-2.36,0.18-3.84,2.25-6.01,2.94c-0.49,0.16-1.07,0.37-1.6,0.3c-0.56-0.07-1.13-0.31-1.7-0.21c1.27,1.59,4.48,0.35,5.88-0.39c1.07-0.56,2.06-1.23,3.18-1.68C200.98,375.52,201.85,375.6,203.03,375.8M177.53,376.55c0.72,0.2,1.38,0.59,1.75,1.25C178.53,378.2,177.03,377.52,177.53,376.55M183.03,377.3c-1.34-0.27-2.45-1.23-3.58-1.93c-1.16-0.71-2.49-1.33-3.17-2.57c1.58,0.45,2.86,1.6,4.29,2.36C181.16,375.47,183.27,376.38,183.03,377.3M175.03,377.05c0.02-0.96,0.65-2.05,1.5-2.5C176.72,375.46,175.77,376.63,175.03,377.05M168.53,374.05c1.23,0.05,3.29,1.36,3.75,2.5c-0.87,0-1.99,0.2-2.82-0.03C168.84,376.35,168.54,374.6,168.53,374.05M181.78,372.05c1.56-0.32,2.89,1.96,4.5,2c-1.16-0.57-2.1-1.32-3.15-2.04c-0.63-0.43-1.88-1.05-1.85-1.96c1.17,0,1.96,0.54,3,1c-0.17-0.33-0.33-0.67-0.5-1c1.12,0.21,1.94,1.22,2.72,1.97c0.94,0.9,2.22,1.62,3.53,1.78c-0.46-0.76-1.54-1.06-2.29-1.43c-1.09-0.54-1.82-1.52-2.7-2.33c-0.74-0.69-1.73-1.32-2.72-1.58c-0.67-0.18-1.82-0.2-1.8-1.16c2.06,0,4.5-0.49,5.95,1.27c1.27,1.54,2.21,3.79,4.55,3.73c-1.05-0.52-1.72-1.11-2.57-1.94c-0.72-0.7-1.03-1.95-1.62-2.78c-1.35-1.91-4.13-1.04-6.07-1.04c0.66-0.57,1.62-0.53,2.36-0.94c0.9-0.51,1.93-0.69,2.95-0.6c2.07,0.19,3.4,2.06,3.69,4.03c0.44-0.82,0.07-1.9-0.29-2.69c-0.57-1.27-1.32-1.6-2.58-2.07c-1.03-0.38-2.04,0.07-3,0.43c-1.01,0.38-2.05,0.58-3.13,0.59c0.04-0.31,0.2-0.31,0.4-0.5c0.1-0.04,0.19-0.03,0.29,0.01c0.24-0.03-0.17-0.72-0.19-0.77c2.77-0.12,5.98-1.96,8.13,0.72c0.5,0.63,0.84,1.21,1.21,1.92c0.28,0.55,0.08,1.31,0.24,1.9c0.36,1.33,0.89,2.75,2.17,3.46c-0.65-1.28-1.18-2.21-1.25-3.7c-0.04-1.01,0.26-3.08,1.5-3.3c-0.19,0.56-0.31,1.14-0.45,1.71c-0.1,0.4,0.26,1.19,0.35,1.58c0.25,1.07,0.69,1.8,1.6,2.46c-0.42-0.82-1.16-1.96-1.09-2.91c0.07-0.83,0.08-2.89,1.34-2.84c-0.1,0.6-0.4,1.16-0.56,1.75c-0.19,0.71,0.09,1.27,0.3,1.97c0.25,0.84,1.67,2.04,2.51,2.28c-0.42-0.39-0.82-0.79-1.24-1.19c-0.38-0.36-0.55-1.09-0.76-1.56c0.64,0.38,1.02,1.07,1.65,1.48c0.65,0.42,1.35,0.76,2.08,1.02c1.08,0.38,2.76,0.65,3.01,2c-0.96-0.02-1.73-0.15-2.71-0.01c-3.01,0.44-4.72,4.14-8.08,3.63c-1.95-0.3-3.37-1.61-5.43-1.2c-0.46,0.09-1.13,0.37-1.59,0.29c-0.61-0.1-0.9-0.54-1.34-0.96C182.18,373.89,181.77,373.02,181.78,372.05M161.53,375.55c-0.38-0.01-1.71,0.06-1.9-0.42c-0.11-0.28-0.37-0.66-0.29-0.96c0.11-0.43,0.22-0.86,0.33-1.29c0.08-0.29,0.51-0.47,0.76-0.55c0.18-0.06,0.79,1.19,1.13,1.28c0.32,0.09,0.66,0.09,0.97,0.19c0-0.33,0-0.67,0-1c0.5,0.14,1.35,0.13,1.49,0.67c0.16,0.62,0.45,1.41-0.45,1.54c-0.57,0.08-0.21,1.06-0.83,1.21C162.16,376.36,161.52,376.39,161.53,375.55M172.28,375.3c0.22-0.29,0.4-0.61,0.75-0.75C172.98,375,172.8,375.35,172.28,375.3M204.53,375.05c-0.39-0.53-0.51-1.19-0.8-1.77c-0.41-0.82-1.26-1.45-1.89-2.09c-0.47-0.47-1.43-0.55-2.03-0.77c-0.85-0.31-1.7-0.62-2.52-1.02c-0.77-0.38-1.29-2.05-0.57-2.73c0.34-0.32,1.08-0.4,1.48-0.15c0.29,0.19,0.44,0.68,0.61,0.96c0.34,0.58,0.69-0.82,0.66-1.01c-0.1-0.75-0.43-0.85-1.05-1.27c-0.69-0.46-2.42-0.91-2.7-1.74c-0.34-0.96-0.4-2.15-0.68-3.16c-0.34,0.69,0.23,1.73-0.5,2.25c-0.54-1.04-1.32-3.14-0.75-4.25c0.34,0.38,0.42,1.02,0.5,1.5c0.26-0.51,0.34-1.14,0.49-1.7c0.09-0.33,1.36,0.56,1.51,0.7c0.14-1.21-0.81-1.61-1.72-1.99c-0.33-0.14-0.94,0.52-1.14,0.73c-0.33,0.36-0.57,0.77-0.65,1.26c-0.69-0.52-0.4-1.94-0.01-2.54c0.27-0.43,0.67-0.83,0.89-1.28c0.29-0.59,0.17-1.12,0.14-1.78c-0.05-0.89-1.06-1.67-1.82-2.06c-0.68-0.36-0.77-0.38-1.44-0.01c-0.54,0.29-0.7,0.57-0.81,1.18c-0.14,0.77,0.63,0.44,1.14,0.4c0.65-0.06,0.6,0.65,0.67,1.12c0.12,0.8-0.51,1.49-0.98,2.05c-0.11,0.13-0.94,1.46-1.13,1.4c-1.54-0.53-0.21-2.9-2.15-3.22c0.63,0.73,1.06,1.94,0.25,2.75c-0.47-0.48-0.76-1.11-1.5-1.25c0.11,0.62,0.11,1.29,0.48,1.84c0.34,0.5,1.01,1.09,0.91,1.76c-0.12,0.75-0.96,0.14-1.29-0.2c-1.29-1.32-0.11-3.2,0.03-4.65c0.02-0.26-0.15-0.54-0.12-0.75c0.06-0.54,0.66-1.09,1.04-1.41c0.57-0.49,0.98-0.55,1.71-0.34c-0.24-0.73-0.64-1.54-0.3-2.3c0.4-0.92,0.53-1.84,0.73-2.82c0.2-1-0.04-1.77-0.38-2.7c-0.33-0.89-0.59-2.11-1.79-1.92c0.04-0.94,0.64-1.73,0.84-2.63c0.27-1.2,0.08-2.51,0.22-3.74c0.13-1.08,0.24-2.12-0.24-3.13c-0.47-1.01-1.12-2.08-0.91-3.24c0.05-0.3,0.22-1.25,0.53-1.35c3.11-1.02,6.53-0.35,9.68,0.28c0.63,0.13,5.04,0.64,4.68,1.84c-0.22,0.75-0.63,1.03-1.34,1.36c-0.46,0.21-0.46,0.08-0.61-0.33c-0.12-0.35-0.25-0.69-0.36-1.05c-0.66,1.28,0.6,3.45,0.84,4.75c0.17,0.94,0.2,1.69-0.84,2.08c-0.75,0.28-1.49,0.71-2.25,0.92c0.71,0.26,1.54-0.1,2.2-0.33c1.03-0.37,2.06-0.43,3.16-0.43c1.52,0,3.74-0.01,4.75,1.41c0.68,0.96,0.89,2.61-0.61,2.85c0.2,0.8,0.59,1.51,0,2.25c0.76-0.21,1.97-0.27,2,0.75c-0.92,0-1.83,0-2.75,0c0.03,0.17,0.12,1.17,0.25,1.25c0.26,0.16,0.76-0.08,1.04-0.11c0.5-0.05,1.04,0.25,1.54,0.29c0.59,0.04,1.01-0.12,0.93,0.57c-0.13,1.06-0.83,1.57-1.62,2.14c-0.89,0.64-0.03,1.66,0.62,2.11c-0.22-0.43-0.48-0.85-0.75-1.25c0.8-0.4,1.69,0.01,2.52-0.19c0.68-0.16,1.21-0.62,1.93-0.74c0.37-0.06,1.08,0.42,1.06,0.81c-0.21,3.21-1.32,6.5-2.21,9.57c-0.9,3.1-0.3,6.38-1.52,9.43c-0.6,1.5-1.35,2.91-2.36,4.17C206.65,373.33,205.88,374.8,204.53,375.05M181.03,374.3c-1.79-1.04-2.61-4.16-3.02-6.02c-0.58-2.64-0.73-5.19-0.73-7.88c0-5.36,0.22-10.75,1-16.05c0.78-5.33,2.18-10.22,3.91-15.3c0.82-2.42,1.61-4.82,2.57-7.19c1.02-2.54,2.26-4.98,2.92-7.65c0.28-1.13,0.04-2.24-0.15-3.37c-0.12-0.74-1.41-2.01-2.05-2.32c-0.42-0.2-1.96-0.52-1.94-1c0.02-0.29,0.14-0.48,0.29-0.71c0.55-0.81,2.33-0.77,3.13-0.57c1.27,0.31,1.84,1.03,2.64,1.99c0.57,0.68,0.69,2.25,0.67,3.09c-0.07,2.52-1.36,5.26-2.45,7.48c-1.24,2.53-2.38,5.12-3.43,7.74c-1.07,2.67-1.89,5.4-2.75,8.14c-0.77,2.47-1.95,5.23-2.07,7.84c-0.25,5.64-1.51,11.19-1.29,16.88c0.1,2.61,0.37,5.2,1.01,7.73c0.34,1.36,0.61,2.73,0.99,4.08C180.47,371.86,181.51,373.66,181.03,374.3M156.03,373.55c0.48-0.71,2.62-1.96,3.5-1.75c-0.26,0.54-0.76,1.2-1.2,1.6c-0.44,0.4-0.63,0.74-1.22,0.7C156.74,374.07,156.33,373.74,156.03,373.55M173.78,373.55c0-0.25,0-0.5,0-0.75C174.4,373.11,174.4,373.23,173.78,373.55M170.78,372.55c0.65-0.1,1.58,0.32,1.75,1C171.83,373.56,171.14,373.15,170.78,372.55M171.78,320.55c0,4.47-0.31,8.91-0.25,13.38c0.07,4.38,0.23,8.86,0.91,13.18c0.33,2.15,0.36,4.32,0.79,6.46c0.46,2.24,0.93,4.49,1.47,6.72c0.54,2.27,1.24,4.53,2.09,6.71c0.73,1.87,1.91,3.79,2.24,5.79c-1.04-0.02-1.97-0.81-2.79-1.37c-1.21-0.83-1.54-2.34-1.99-3.64c-0.62-1.8-1.24-3.59-1.78-5.42c-1.08-3.65-2.08-7.32-3.11-10.98c-0.97-3.45-2.03-6.87-3.02-10.31c-0.48-1.66-1.05-3.29-1.48-4.96c-0.45-1.74-1.21-3.6-1.24-5.41c-0.04-2.11,2.42-2.85,3.71-4.04c1.04-0.96,1.65-2.47,2.33-3.7C170.15,322.08,170.68,320.76,171.78,320.55M175.78,372.8c-1.62-0.33-2.84-1.71-4.23-2.51c-1.05-0.61-2.82-1.37-3.02-2.74c1.71,0.26,3.03,1.84,4.46,2.69C173.66,370.64,176.01,371.76,175.78,372.8M168.53,372.8c0.15-0.94,0.9-2.49,2-2.5C170.51,371.18,169.47,372.78,168.53,372.8M167.28,371.8c0.23-0.67,0.83-1.09,1.5-1.25C168.64,371.04,167.89,372.81,167.28,371.8M163.53,370.8c0.35-0.08,0.7,0.14,0.75,0.5C163.98,371.19,163.74,371.06,163.53,370.8M166.03,371.05c0.19-0.28,0.45-0.38,0.75-0.5C166.73,370.91,166.37,371.07,166.03,371.05M168.78,370.3c-0.26-0.48,0.07-0.82,0.5-1C169.27,369.69,169.11,370.07,168.78,370.3M173.78,369.8c-1-0.62-1.55-1.16-2.05-2.23c-1.14-2.45-1.77-5.27-2.53-7.86c-0.8-2.7-1.61-5.39-2.41-8.09c-0.8-2.69-1.41-5.43-2.19-8.12c-0.82-2.83-1.84-5.61-2.73-8.42c-0.38-1.21-0.18-1.99,0.41-3.02c0.96,0.55,0.97,2.12,1.25,3.06c0.46,1.57,0.94,3.13,1.4,4.7c1.04,3.55,2.09,7.11,3.25,10.63c1.14,3.48,2.1,7.01,3.23,10.5c0.53,1.63,1.13,3.23,1.73,4.83C173.49,366.77,174.57,368.8,173.78,369.8M166.28,368.8c0.4,0.02,0.72,0.36,0.75,0.75C166.51,369.6,166.33,369.25,166.28,368.8M195.28,366.8c0.12-0.52,0.22-1,0.75-1.25C195.88,366.06,195.75,366.49,195.28,366.8M209.78,363.55c0.19-1.04-1.73-0.78-2.3-0.73c-1.83,0.15-3.39,0.54-5.21,0.04c-0.8-0.22-1.49-1.18-1.99-1.81c-0.68,0.8,0.66,1.72,1.15,2.16c0.68,0.6,1.96,0.75,2.83,0.85C206.03,364.24,208.19,364.63,209.78,363.55M191.03,364.3c-0.44-0.85-1.28-1.42-1.75-2.25c0.63,0,1.14,0.02,1.46,0.6C191.01,363.13,191.52,363.78,191.03,364.3M193.28,363.05c-0.63-0.67-1.13-2.1-1.25-3C192.83,360.48,193.98,362.16,193.28,363.05M176.28,362.8c-0.89-1.65-1.22-3.52-1.63-5.33c-0.5-2.2-0.91-4.38-1.25-6.61c-0.64-4.2-0.92-8.52-0.87-12.77c0.05-4.44,1.03-8.67,1.98-12.99c0.93-4.27,2.11-8.99,4.22-12.84c1.14-2.07,2.45-3.96,5.07-3.66c0.97,0.11,2.21,0.57,2.75,1.48c0.62,1.05,0.76,1.95,0.69,3.17c-0.12,2-0.96,3.85-1.8,5.63c-0.95,2-1.62,4.07-2.37,6.15c-1.46,4.05-3.24,8.13-4.11,12.35c-0.44,2.16-1.09,4.35-1.35,6.54c-0.25,2.09-0.56,4.39-0.58,6.49c-0.02,2.23-0.52,4.43-0.52,6.68c0,1.04,0,2.07,0,3.11C176.51,360.98,176.8,362.15,176.28,362.8M182.78,362.55c0.05-0.34,0.16-0.67,0.25-1c-1.24,0.02-2.1-0.47-3.05-1.19c-0.42-0.32-0.41-0.77-0.43-1.26c-0.03-0.69,0.21-0.89,0.9-0.96c1.06-0.1,2.28,0.98,3.03,1.6c0.8,0.65,1.92,1.48,1.04,2.55c0.58,0,1.17,0,1.75,0C185.59,362.91,183.6,362.55,182.78,362.55M191.53,361.8c-0.72-1.37-1.9-2.33-1.23-4.02c0.52-1.32,1.66-2.83,2.98-3.48c-0.14,1.25-1.63,2.67-2.28,3.73C190.33,359.11,192.36,360.82,191.53,361.8M207.78,361.3c0-1.22,0.49-2.05,0.12-3.3c-0.21-0.7-0.16-2.82-1.12-2.96c0,0.5,0,1,0,1.5c-0.67,0-1.49-0.34-2.13-0.17c-0.73,0.2-1.41,0.43-2.12,0.67c0.02-0.63,0.33-1.16,0.5-1.75c-0.88,0.47-1.38,1.36-2.18,1.92c-0.33,0.23-0.93,0.51-0.57,1.08c0.38,0.6,2.21,1.07,2.82,1.4C204.54,360.47,206.08,361.36,207.78,361.3M184.53,358.3c0.71,0.59,0.92,1.32,1.83,1.66c0.49,0.18,0.93,0.49,1.42,0.17c0.35-0.22,0.62-0.7,0.75-1.08c0.81,0.97-1.12,2.07-1.94,1.94C185.43,360.79,184.52,359.47,184.53,358.3M202.78,358.55c0.89-0.56,3.49,0.79,3.75,1.75C205.24,360.31,203.82,359.21,202.78,358.55M204.78,357.3c0.61-0.19,1.62-0.43,1.39,0.5c-0.12,0.48-0.23,0.62-0.7,0.35C205.15,357.96,204.83,357.7,204.78,357.3M183.28,357.55c-0.48-0.31-0.72-0.77-1-1.25C182.76,356.43,183.79,356.94,183.28,357.55M179.53,355.8c1.07,0.16,2.14,0.66,2.5,1.75C180.8,357.6,179.47,357.25,179.53,355.8M179.53,355.05c-0.19-1.02,1.56-0.81,1.75,0C180.71,355.15,180.08,355.33,179.53,355.05M181.28,353.8c-0.41-0.2-0.85-0.29-1.25-0.5C180.41,352.98,181.47,353.21,181.28,353.8M192.53,353.3c-0.42-0.35-0.67-0.97-0.75-1.5C192.27,352.04,192.86,352.77,192.53,353.3M185.03,352.8c-0.34-0.65-0.12-1.39-0.27-2.08c-0.17-0.77-0.36-1.54-0.54-2.31c-0.38-1.6-0.87-3.24-0.08-4.81c0.82-1.64,2.08-3.03,2.48-4.84c0.17-0.75,0.21-1.72-0.09-2.45c-0.28-0.68-1.16-1.24-1.25-2c0.81,0.29,1.31,0.82,1.81,1.49c0.56,0.74,0.45,1.61,0.4,2.49c-0.08,1.31-0.81,2.42-1.53,3.47c-0.61,0.89-1.83,2.36-1.56,3.54C184.51,345.78,186.81,353.24,185.03,352.8M183.53,352.55c0-1.45-0.53-2.83-0.91-4.21c-0.42-1.51-0.52-2.74-0.34-4.29c-0.71,1.09-0.58,2.31-0.34,3.53c0.3,1.56,0.59,3.13,0.59,4.72c-0.92-0.12-1.18-1.81-1.33-2.5c-0.31-1.4-0.64-2.8-0.87-4.22c-0.12-0.77,0.59-1.71,0.96-2.31c0.92-1.46,2.44-2.32,3.39-3.76c1.02-1.56,0.24-2.75-0.41-4.22c0.77,0.14,1.54,0.75,1.84,1.5c0.34,0.86-0.04,1.65-0.3,2.47c-0.39,1.29-1.55,2.29-2.16,3.49c-0.72,1.42-0.8,2.48-0.37,4.02C183.63,348.03,185.05,351.61,183.53,352.55M175.78,350.05c-0.71,0-1.02,0.61-1,1.25C175.42,351.29,175.89,350.68,175.78,350.05M180.28,349.8c0.1-0.55-0.24-1.18-0.25-1.75C180.41,348.41,180.68,349.38,180.28,349.8M188.28,349.05c-1.02,0.04-1.44-0.73-1.58-1.66c-0.11-0.68-0.44-2.51,0.38-2.86c0.49-0.21,0.94-0.49,1.34,0.07c0.24,0.34,0.39,1.05,0.33,1.46C188.59,347.06,188.46,348.06,188.28,349.05M187.78,347.8c-0.15-0.92-0.5-1.81-0.5-2.75C186.67,345.71,187.17,347.29,187.78,347.8M185.78,347.55c-1.75-1.41-0.78-4.37,1-5.25c0.07,1.02-0.54,1.88-0.85,2.8C185.68,345.87,186.33,346.86,185.78,347.55M175.78,346.55c0.19-0.39,0.66-1.14,0.62-1.55c-0.01-0.12-0.03-0.84-0.13-0.85c-0.37-0.06-0.74-0.12-1.12-0.18C174.25,343.82,174.57,346.78,175.78,346.55M247.78,346.05c0-3.21-0.59-7.54,1.36-10.36c0.54-0.78,1.35-1.31,1.88-2.08c0.46-0.66,0.71-1.44,1.19-2.1c0.9-1.24,2.35-2.35,2.56-3.96c-2.41,0.67-4.37,2.5-7,2.5c0.43-0.53,1.22-0.79,1.75-1.25c-0.16,0.03-0.34-0.02-0.5,0c0.79-1.82-2.09-1.95-3.18-1.82c-1.64,0.2-2.99-0.13-4.48-0.78c-0.65-0.28-1.05-0.91-1.63-1.29c-0.69-0.44-1.4-0.85-2.11-1.25c-0.94-0.52-2.42-2.02-2.61-3.12c0.98,0,1.92,0.26,2.88,0.41c1.15,0.18,2.35-0.07,3.49,0.13c1.06,0.18,1.83,0.87,2.72,1.41c0.85,0.52,1.84,0.77,2.61,1.42c0.79,0.66,0.65,1.84,1.55,2.53c0.84,0.64,2.21,0.67,3.22,0.79c1.84,0.22,3.78-1.91,5.29-2.7c-0.11,0.5-0.42,0.88-0.75,1.25c1.02-0.47,2.11-2.25,3.25-2.25c-0.46,0.92-1.42,1.42-2.12,2.13c-0.59,0.61-1.69,1.83-1.87,2.67c-0.22,1.08,0.08,2.1,0.28,3.15c0.22,1.15,0.05,2.22-0.29,3.32c-0.31,0.99-0.98,1.81-1.42,2.73c-0.55,1.17-0.99,2.33-1.71,3.41C250.97,342.73,249.63,344.87,247.78,346.05M232.03,345.55c0.03-1.27,0.07-2.65,0.43-3.88c0.36-1.22,1.25-2.19,2.02-3.15c0.88-1.09,1.57-2.32,2.47-3.4c0.63-0.76,2.26-2.07,3.34-1.82c-0.17,1.32-0.78,2.61-1.17,3.88c-0.37,1.19-0.99,2.19-1.87,3.08C235.64,341.89,234.65,345.15,232.03,345.55M238.28,336.3c-1.2,0.19-1.82,1.7-2.33,2.64c-0.67,1.24-1.7,2.43-1.92,3.86c1.08-0.16,1.66-1.55,2.09-2.39c0.31-0.61,0.64-1.22,0.98-1.81C237.51,337.89,238.28,337.16,238.28,336.3M249.78,342.3c1.39-1.72,2.45-3.73,3.12-5.84c0.32-1.01,0.54-2.05,0.87-3.07c0.26-0.79,0.68-1.75,0.51-2.6c-0.76,0.17-0.98,1.26-1.13,1.89c-0.27,1.14-0.57,2.29-0.99,3.39c-0.48,1.23-0.96,2.51-1.62,3.66C250.17,340.35,249.3,341.56,249.78,342.3M183.03,340.3c0.04-1.11,0.97-2.42,0.75-3.5C185.58,337.16,184.38,340.12,183.03,340.3M182.03,339.3c0.17-1.09,0.08-2.16,0.25-3.25C183.94,336.37,183.33,338.9,182.03,339.3M176.03,337.55c-0.39,0.19-0.54,0.52-0.65,0.91c-0.05,0.18,0.01,0.89,0.25,0.8C176.46,338.98,176.52,338.2,176.03,337.55M201.28,335.8c-0.31-0.44-0.59-1.27-0.44-1.8c0.27-0.96,0.47-1.25,1.41-1.59c0.63-0.23,1.52,0.03,2.08-0.29c0.61-0.34,1.13-0.68,1.46-1.32c0.76,0.87-0.59,1.41-1.24,1.65c-1.04,0.38-2.05,0.82-2.62,1.84C201.66,334.77,201.64,335.39,201.28,335.8M233.03,332.3c-0.26-1.49-3.69-0.04-4.43,0.24c-1.09,0.4-2.19,0.74-3.3,1.1c-0.81,0.26-2.49,0.44-2.76,1.42c1.83-0.06,3.5-0.95,5.27-1.34C229.57,333.32,231.23,332.52,233.03,332.3M177.03,335.05c0.47-0.83,2.62-2.3,2.36-3.29c-0.2-0.74-0.6-1.43-0.64-2.21c-0.02-0.26,0.18-0.78,0.03-1c-0.12-0.17-0.85-0.14-1.04-0.05c-0.74,0.35-0.14,1.1-0.96,1.3c-0.91,0.24-1.07,0.92-1.35,1.72c-0.16,0.48,0.35,1.55,0.49,2.03C176.11,334.15,176.25,335.2,177.03,335.05M186.53,334.05c-0.35-1.49-0.38-3.02-0.75-4.5c-0.51,1.02-0.25,2.4-0.25,3.5c-0.9-0.12-1-1.76-0.94-2.45c0.1-1.11,0.25-2.13,1.05-2.98c0.81-0.86,1.74-1.23,2.11-2.45c0.28-0.94-0.04-2,0.28-2.87c0.78,0.49,0.49,2.1,0.37,2.84c-0.14,0.87-1.06,1.75-1.4,2.6c-0.47,1.15-0.72,1.94-0.39,3.15c0.11,0.44,0.46,0.79,0.5,1.25c0.06,0.63,0.12,1.27,0.17,1.9C187.03,334.05,186.78,334.05,186.53,334.05M202.78,331.05c0.42-0.73,1.34-1.89,2.14-2.16c0.89-0.3,2.42-1.22,3.36-1.09c-0.1,0.54-0.66,0.69-1.12,0.81c-0.67,0.17-1.09,0.61-1.53,1.11C204.88,330.56,204.04,331.68,202.78,331.05M216.28,327.05c0.85-0.17,1.72,0.48,2.49,0.74c1,0.34,2.21,0.49,3.26,0.51c-0.8,0.71-2.55,0-3.5,0c0.83,0.99,2.74,0.81,3.9,1.08c1.68,0.39,3.41,0.38,5.1,0.66c-0.52,0.72-1.68,0.68-2.46,0.73c-1.19,0.08-2.31,0.26-3.5,0.03c-1.08-0.21-1.69-1.32-2.73-1.64C217.82,328.86,216.47,328.23,216.28,327.05M245.03,330.8c0.31-0.42,1.02-0.54,1.5-0.5C246.19,330.72,245.55,330.81,245.03,330.8M245.78,329.8c0.34-0.48,1.7-0.86,2.25-0.75C247.5,329.56,246.49,329.78,245.78,329.8M188.53,326.8c0.64-0.88,1.96-0.83,2.92-0.71c1.44,0.18,2.95,0.25,4.37,0.57c2.56,0.6,5.46,0.61,7.71,2.13c-0.54,0.79-1.91,0.13-2.55-0.13c-1.17-0.48-2.4-0.79-3.65-0.99C194.42,327.2,191.48,326.8,188.53,326.8M204.78,328.15c-1.61-0.27-0.99-1.9-0.01-2.56c1.27-0.85,2.24-1.37,3.81-1.25c0.71,0.05,0.99,0.36,0.8,1.01c-0.23,0.81-0.42,0.98-1.11,1.47C207.27,327.54,206.05,328.13,204.78,328.15M202.28,326.93c-0.92-0.04-2.98-0.05-3.35-1.07c-0.39-1.06,1.94-2.28,2.67-2.57c0.59-0.23,1.28-0.6,1.94-0.45c0.58,0.14,1.2,0.52,1.09,1.15C204.38,325.43,203.53,326.31,202.28,326.93M179.23,326.55c0.11-0.38,0.22-0.75,0.33-1.13c-0.51-0.13-1.01-0.44-1.33,0.09C178.05,325.81,178.75,326.85,179.23,326.55M246.78,326.3c-0.21-1.16-2.17-1.41-3.07-1.65c-1.74-0.46-3.14-1.81-4.93-2.1c0.64,1.12,2.11,1.64,3.25,2.07C243.54,325.2,245.12,326.27,246.78,326.3M194.28,325.3c0.19-1.21,1.14-2.08,2.1-2.71c0.39-0.25,2.92-1.17,2.72,0.07c-0.19,1.16-0.29,2.51-1.57,3.02C196.67,326.02,195.08,325.72,194.28,325.3M186.03,325.8c0.32-0.97,0.55-2.09,1-3C187.89,323.73,186.88,325.31,186.03,325.8M190.03,325.3c-0.43-0.8,0.25-1.86,0.89-2.34c0.47-0.36,0.8-0.64,1.36-0.81c0.28-0.09,1.21-0.32,1.32,0.14c0.1,0.4,0.37,0.96,0.17,1.36c-0.17,0.33-0.47,1.3-0.81,1.44C192.02,325.45,191,325.02,190.03,325.3M261.03,323.3c0.6-0.04,1.25,0.02,1.8-0.27c0.54-0.28,1.08-0.63,1.7-0.73c-0.5-0.46-1.24-0.99-1.25-1.75c1.4,0,4.4,1.88,2.53,3.37c-0.8,0.64-1.59,0.95-2.66,0.78C262.37,324.56,261.16,324.24,261.03,323.3M205.28,323.3c-0.18-0.99,1.18-0.6,1.75-0.5C206.86,323.54,205.84,323.61,205.28,323.3M248.03,315.8c0.29-0.05,0.59-0.02,0.75,0.25c0-0.75,0-1.5,0-2.25c-0.23,0.47-0.35,1-0.5,1.5c-1.82-0.54,0.09-3.05,1.25-3.25c-1.21-0.46-2.29,2.11-3.38,1.45c-1.05-0.64,3.7-6.3,4.02-6.78c0.17-0.25,0.53-1.04,0.93-0.95c0.8,0.17,0.01,1.66-0.07,2.04c0.39-0.31,0.83-0.85,1.29-1.05c1.61-0.7,3.83,0.09,5.38,0.57c1.94,0.59,3.79,1.42,5.55,2.43c0.18,0.1,0.82,0.91,0.78,1.1c-0.13,0.56-0.4,1.12-0.47,1.69c-0.17,1.53-1.42,1.01-2.53,1.26c-1.02,0.23-1.67,1.6-1.93,2.5c-0.11,0.37-0.41,1.05-0.14,1.35c0.5,0.58,1.21,0.96,1.57,1.65c-0.52,0.34-1.46,0.92-2.1,0.69c-0.47-0.16-0.95-0.33-1.42-0.49c-0.33-0.11-0.35-0.77-0.42-1.05c-0.18-0.73,0.15-1.48-0.03-2.21c-0.18-0.76-0.62-1.43-0.78-2.2c-0.07,0.87,0.31,1.91,0.46,2.76c0.2,1.13-0.37,1.66-1.21,2.24c1.29,0.46,2.27,1.37,3.7,1.49c1.27,0.1,2.91-0.17,3.79,1c-0.98,0.46-2.21,0.82-3.26,1.08c-0.94,0.24-2.07,0.65-3.05,0.51c-1.02-0.15-1.91-0.98-2.8-1.45c-1.05-0.56-2.13-1.08-2.99-1.92C249.41,318.77,248.03,317.35,248.03,315.8M182.53,317.8c0.08-0.4,0.25-0.77,0.33-1.18c0.1-0.47-0.47-0.77-0.77-1.06c-1.16-1.1-0.73,0.93-1.06,1.23c-0.16,0.15-0.91-0.02-1.18,0.04c-0.42,0.09-0.86,0.21-1.1,0.61c-0.59,0.97-0.16,1.86,0.07,2.91c0.15,0.72,0.56,1.72,1.1,2.21c0.63,0.58,1.79-0.52,2.33-0.89c0.51-0.35,1.46-1.23,1.59-1.89C184.01,318.9,183.49,317.83,182.53,317.8M199.78,322.8c-0.03-0.17-0.29-0.98-0.19-1.03c0.38-0.15,0.72-0.19,1.13-0.1C202.24,322.02,200.42,322.71,199.78,322.8M189.03,322.8c-0.23-0.5-0.79-1.14-0.1-1.41c0.54-0.21,1.29-0.09,1.85-0.09C190.56,322.05,189.84,322.79,189.03,322.8M189.03,319.3c0.06-2.22,6.26-1.26,7.58-1.22c2.45,0.08,4.91,0.37,7.35,0.66c2.33,0.27,4.79,0.62,7.01,1.41c0.64,0.22,2.34,1.71,1.02,2.08c-1.48,0.42-3.31-0.9-4.71-1.3c-1.96-0.56-3.92-0.84-5.93-1.16c-2.08-0.33-4.15-0.5-6.25-0.67C193.07,318.92,191.05,319.26,189.03,319.3M188.53,320.8c0.27-0.93,2.42-0.79,3.15-0.9c1.88-0.29,3.87,0.12,5.76,0.21c3.8,0.17,7.44,0.96,11.11,1.94c-0.68,0.66-2.9-0.31-3.67-0.46c-1.87-0.35-3.77-0.5-5.64-0.82c-1.69-0.29-3.39-0.2-5.09-0.39C192.24,320.15,190.42,320.73,188.53,320.8M194.53,322.3c-0.18-0.31-0.2-0.65-0.25-1c0.51-0.06,0.99-0.13,1.5,0C195.56,321.73,195.02,322.23,194.53,322.3M262.53,318.8c-0.8,0.24-1.11,0.03-1.43-0.7c-0.22-0.49-0.41-1.04-0.57-1.55c1.25-0.22,2.73,0.89,4.01,0.95c0.68,0.03,2.61-0.27,2.89,0.63c0.15,0.51,0.66,1.37-0.11,1.6c-0.65,0.2-1.15,0.35-1.83,0.32C264.66,320.02,262.5,320.05,262.53,318.8M210.78,298.55c1.52-0.82,3.6,1.74,4.44,2.72c1.01,1.18,1.74,2.56,2.25,4.02c0.39,1.1,1.23,2.82,0.96,4.01c-0.32,1.38-1.31,2.85-2.1,4c-0.75,1.1-2.04,2.41-2.29,3.75c0.62-0.36,1.12-0.94,1.75-1.25c-0.1,0.52-0.2,1.02-0.36,1.52c-0.25,0.76-1.65,1.5-2.39,1.68c-0.77,0.2-0.98,0.06-1.08-0.64c-0.06-0.43,0.35-0.95,0.55-1.3c0.39-0.71,0.72-1.49,1.01-2.25c0.66-1.76,0.94-3.58,0.65-5.44c-0.31-1.93-0.46-3.89-1.11-5.74c-0.33-0.94-0.75-1.85-1.18-2.74C211.52,300.16,210.92,299.35,210.78,298.55M210.03,304.55c0.86,0.65,1.09,2.18,1.37,3.15c0.5,1.73,0.38,3.53,0.38,5.3c0,1.4,0.1,3.03-0.39,4.37c-0.33,0.91-1.38,1.87-1.8,0.44c-0.26-0.91,0.13-2.01,0.43-2.86c0.4-1.13,0.64-2.24,0.69-3.44c0.05-1.23-0.03-2.46-0.08-3.69C210.58,306.71,210.01,305.61,210.03,304.55M208.03,318.05c-0.05-0.25,0.12-0.88,0.5-0.5S208.28,318.1,208.03,318.05M205.28,317.8c-0.02-1.02,1.25-1.04,1.25,0C206.11,317.8,205.7,317.8,205.28,317.8M174.78,317.55c0.66-2.55,1.63-5.12,1.75-7.75c-0.72,0.62-1.57,1.81-1.75,2.75c0.9-0.39,0.21,1.83,0.12,2.14C174.75,315.22,174.03,317.27,174.78,317.55M216.03,317.3c0.16-0.85,0.81-1.55,1.33-2.21c0.68-0.88,1.24-1.86,1.78-2.84c1.13-2.06,2.6-3.87,3.81-5.88c2.21-3.68,3.24-8.49,2.42-12.71c-0.43-2.19-1.22-4.45-2.97-5.92c-0.41-0.34-0.8-0.69-1.2-1.04c-0.47-0.41-0.11-1.13,0-1.63c0.07-0.31,0.41-0.89,0.64-1.07c0.71-0.56,0.8-0.67,1.64-0.35c1.03,0.39,1.72,1.63,2.28,2.52c1.24,1.97,1.59,4.7,2.11,6.94c0.52,2.24,0.81,5.1,0.13,7.33c-1.46,4.81-3.7,9.41-6.52,13.56C220.53,315.38,217.76,317.3,216.03,317.3M203.53,317.3C204.06,316.24,204.32,317.46,203.53,317.3M196.28,308.8c0.91-1.69-0.75-4.55-1.56-6.02c-0.44-0.8-3.75-4.31-2.94-5.36c0.59-0.75,2.37-0.37,2.92,0.19c2.37,2.41,1.17,6.63,3.49,9.04c0.7,0.73,1.46,1.67,2.35,2.16c-0.6-1.78-0.5-3.65-0.5-5.5c0-0.96-0.02-1.93-0.21-2.88c-0.19-0.98-0.65-1.88-0.79-2.87c1.17,0.24,1.92,1.42,2.71,2.21c0.77,0.79,1.77,1.72,2.05,2.83c0.64,2.58,0.34,5.34,0.74,7.95c0.91-1.23,0.3-2.81,0.28-4.19c-0.02-1.62-0.13-3.24-0.53-4.81c1.41,0.29,1.49,2.66,1.71,3.8c0.29,1.47,0.18,2.97,0.54,4.45c0.14-0.28,0.25-0.55,0.5-0.75c0.51,0.8-0.33,2.1-0.67,2.81c-0.54,1.12-1.1,2.14-1.86,3.13c-0.59,0.77-1.55,1.38-2.46,1.7c-1.61,0.59-3.28,0.41-4.98,0.22c-1.76-0.19-3.31-0.18-4.79-1.29c-0.79-0.6-1.64-1.53-1.46-2.62c0.17-1.01,0.36-2.09,0.11-3.1c-0.28-1.17-1.62-3.18-1.06-4.4c0.6-1.33,1.23-3.08,2.49-3.88C193.66,300.82,196.48,307.68,196.28,308.8M261.03,314.55c1.02-0.54,2.91,0.24,3.98,0.42c0.7,0.12,1.31-0.2,1.88-0.57c0.52-0.35,0.84,1.21,0.84,1.56c-0.01,1.48-2.67,1.03-3.54,0.86c-0.66-0.13-1.49-0.26-2.05-0.68C261.65,315.79,261.35,315.05,261.03,314.55M190.03,317.05c0.03-0.61,0.12-1.15,0.25-1.75c0.76,0.11,1.49,0.68,1.5,1.5C191.26,316.71,190.55,316.97,190.03,317.05M207.03,316.05c0.03-1.02,1.03-0.95,1.69-0.54c0.38,0.23-0.08,0.69-0.39,0.7C207.87,316.22,207.49,316.15,207.03,316.05M249.53,315.55c0-0.42,0-0.83,0-1.25C249.25,314.64,249.25,315.21,249.53,315.55M205.28,315.55c0.8-2.88,3.1-5.03,2.74-8.24c-0.17-1.54-0.06-3.31-0.58-4.77c-0.53-1.46-1.44-2.88-1.4-4.48c0.74,0.09,1.21,0.18,1.75,0.75c1.22,1.27,2.01,3.54,2.25,5.25c-0.52-0.08-1.14,0.05-1.45,0.54c-0.3,0.48-0.05,1.13-0.05,1.65c0,0.9-0.08,1.79-0.13,2.68c-0.08,1.36-0.19,3.1-0.72,4.37C207.3,314.19,206.28,315.36,205.28,315.55M212.53,314.55c0-2.53,0.28-5.15-0.54-7.59c-0.95-2.84-2.21-5.59-3.21-8.41c1.3,0.25,2.14,2.11,2.7,3.16c1.14,2.17,1.81,4.97,2,7.4C213.58,310.49,213.93,313.65,212.53,314.55M250.28,314.3c0.02-0.51,0.17-1,0.25-1.5C249.95,312.99,249.95,313.89,250.28,314.3M208.78,314.3c-0.18-0.31-0.2-0.65-0.25-1c0.33,0,0.67,0,1,0C209.44,313.78,209.27,314.15,208.78,314.3M264.28,313.8c0-1.64,0.79-3.39,1.07-5c0.34-1.92,0.55-3.85,0.69-5.8c0.07-0.99,0.75-2.7,1.99-2.7c0,3.66-0.73,7.26-1.78,10.75C265.96,312.02,265.55,313.86,264.28,313.8M226.03,312.8c0.94-0.48,1.83-0.55,2.61-1.38c2.2-2.34,3.64-5.32,5.43-7.96c1.86-2.74,3.23-5.76,4.86-8.64c1.56-2.75,2.54-5.97,3.67-8.92c1.26-3.32,2.4-6.7,3.14-10.19c1.42-6.66,2.36-13.4,2.54-20.22c0.08-2.99,0.57-6.03,0.16-9.03c-0.22-1.65-0.35-3.32-0.7-4.95c-0.36-1.62-1.06-3.07-1.68-4.6c-0.49-1.24,0.03-2.72,0.37-3.94c0.09-0.34,0.33-2.21,0.88-2.15c1.03,0.11,1.91,1.16,2.56,1.89c2.28,2.55,3.57,5.88,5.2,8.84c0.8,1.45,1.62,2.92,2.27,4.45c0.75,1.75,0.73,3.76,0.63,5.64c-0.38,7.36-1.94,14.72-4.58,21.6c-1.31,3.41-2.49,6.84-4.09,10.13c-1.56,3.2-3.31,6.31-4.92,9.49c-1.6,3.18-3.54,6.26-5.43,9.28c-1.89,3-3.94,6.11-6.57,8.51c-1.63,1.5-3.36,3.53-5.75,2.91C226.33,313.48,226.13,313.11,226.03,312.8M266.78,312.3c0-0.42-0.2-1.08,0.42-1.03c0.71,0.07,1.39,0.08,2.08,0.34c0.76,0.29,2.51,0.83,2.75,1.69C270.2,313.85,268.58,312.3,266.78,312.3M251.28,313.3c0.12-0.25,0.29-0.46,0.25-0.75C251.26,312.72,251.09,313.02,251.28,313.3M183.78,311.55c-0.41,0.06-0.65,0.22-0.89,0.53c-0.13,0.17-0.14,0.84,0.06,0.97c0.23,0.14,0.85-0.09,0.93-0.32C184.04,312.31,183.91,311.96,183.78,311.55M245.53,307.8c-0.35,0.05-0.91,0-1.22,0.18c-0.27-0.86,0.28-1.57,0.22-2.43c-0.66,0.37-1.28,1.37-2.02,1.54c-0.1,0.02-0.46-0.36-0.48-0.25c-0.15,0.64-0.23,1.28-0.31,1.93c-0.1,0.73-0.55,1.6-0.21,2.33c0.14,0.31,0.25,0.61,0.47,0.87c0.15,0.18,0.72,0.46,0.95,0.32c0.51-0.31,0.48-1.09-0.13-1.45c-0.07-0.04-0.16-0.27-0.15-0.33C242.9,309.3,245.28,309.11,245.53,307.8M224.03,311.8c0.6-1.85,1.64-3.52,2.46-5.27c0.97-2.07,1.68-4.25,2.31-6.44c0.15-0.51,0.18-1.25,0.46-1.71c0.33-0.55,0.94,0.75,1.02,0.88c0.46,0.84,1.1,1.56,1.75,2.25c0.28,0.29,1.27,1.1,1.1,1.58c-0.56,1.53-1.47,2.79-2.38,4.13c-0.88,1.3-1.68,2.68-2.75,3.84C227.39,311.73,224.88,312.23,224.03,311.8M218.03,312.05c0.07-0.43,0.25-0.89,0.5-1.25C218.88,311.23,218.42,311.83,218.03,312.05M209.03,311.8c-0.57-0.34-0.14-1.33,0.5-1C210.2,311.15,209.65,311.91,209.03,311.8M252.28,309.3c0.2-0.22,0.4-0.21,0.69-0.24c0.15-0.02,0.06-0.84,0.06-1.01c-0.45,0.19-0.48,0.32-1,0.25C252.03,308.65,252.05,309.02,252.28,309.3M219.53,309.3c-0.44-0.81,0.26-1.68,0.73-2.3c0.71-0.93,1.49-1.89,1.88-3.01c1.05-2.99,2.02-6.55,1.18-9.72c-0.33-1.21-0.75-2.1-1.37-3.2c-0.52-0.93-1.27-1.63-2.15-2.19c-0.55-0.35-0.57-0.45-0.2-1.02c0.37-0.56,0.97-0.28,1.46-0.13c1.85,0.54,2.99,3.27,3.48,4.96c1.13,3.89,0.18,8.42-1.45,12.04C222.46,306.15,221.26,308.97,219.53,309.3M209.28,309.3c0-0.09,0.04-1.31,0.5-0.75C210.2,308.91,209.66,309.36,209.28,309.3M254.03,308.55c0-0.25,0-0.5,0-0.75C253.41,308.11,253.41,308.23,254.03,308.55M255.78,308.3c0-0.3,0.08-0.6-0.25-0.75C255.58,307.82,255.59,308.07,255.78,308.3M255.03,308.05c0.05-0.25-0.12-0.88-0.5-0.5S254.78,308.1,255.03,308.05M217.03,307.55c0-0.76-0.16-1.56-0.5-2.25C216.19,305.82,216.61,307.12,217.03,307.55M209.53,307.3c0-0.25,0-0.5,0-0.75C209.74,306.78,209.73,307.06,209.53,307.3M206.78,306.55c0-0.5,0-1,0-1.5C207.13,305.47,207.11,306.13,206.78,306.55M199.03,306.3c-1.62-0.54-1.52-2.95-1.85-4.29c-0.08-0.33-1.39-4.52-0.36-4.38c1.01,0.14,1.31,0.71,1.83,1.54c0.61,0.99,0.63,2.08,0.63,3.2C199.28,303.53,199.6,305.23,199.03,306.3M188.54,305.6c-1.38,0.08-0.01-2.75,0.22-3.24c0.39-0.84,0.79-1.73,1.41-2.42c0.78-0.87,1.61-0.18,1.46,0.87c-0.11,0.81-0.89,1.67-1.29,2.36C189.83,304.04,189.29,304.91,188.54,305.6M206.53,304.3c0.12-0.65-0.22-1.56-0.25-2.25C206.88,302.44,206.94,303.78,206.53,304.3M217.78,302.8c-0.16-0.65,0.52-0.67,1.01-0.85c0.41-0.15,1.05-0.5,1.49-0.4C220.32,302.54,218.55,303.22,217.78,302.8M206.03,301.8c-0.84-0.92-2.75-2.66-2.75-4c0.93-0.11,1.64,0.77,2.04,1.5C205.63,299.88,206.35,301.13,206.03,301.8M247.53,253.8c-1.92-0.1-4.45,1.16-6.04,2.17c-1.84,1.17-3.44,2.73-4.79,4.44c-8.07,10.22-8.97,26.42-1.42,37.12c0.67,0.95,0.22,2.02-0.39,2.88c-0.15,0.21-0.6,1.09-0.97,1.01c-0.66-0.15-1.05-0.18-1.52-0.65c-2.93-2.98-3.85-7.33-4.74-11.26c-1-4.4-0.93-8.69-0.38-13.15c0.53-4.27,2.86-7.96,4.88-11.66c2.03-3.73,3.41-7.93,6-11.33c1.12-1.45,2.71-2.49,4.24-3.45c0.95-0.59,3.92-2.11,5.01-1.16C248.47,249.69,247.54,252.63,247.53,253.8M266.03,300.3c-0.18-0.31-0.2-0.65-0.25-1c0.33,0.09,0.66,0.2,1,0.25C266.54,299.86,266.36,300.08,266.03,300.3M221.28,299.55c0.28,0,1.59-0.09,0.94,0.56C221.86,300.47,221.33,299.99,221.28,299.55M219.03,299.8c-0.05-0.43,0.65-0.91,1-0.5C220.52,299.9,219.21,299.8,219.03,299.8M215.03,299.05c-0.15-0.83,2.16-1.47,2.74-1.96c0.39-0.32,1.89-1.75,2.21-0.67c0.38,1.29-1.1,2.09-2,2.63C217.21,299.51,215.82,299.47,215.03,299.05M267.03,299.05c0.11-0.38,0.03-0.71-0.15-1.06c-0.18-0.35,0.56-0.64,0.9-0.69C267.84,297.94,267.6,298.7,267.03,299.05M220.53,298.05c0.21-0.08,1.79-0.22,2,0c0.08,0.09,0,0.61,0,0.75C221.93,298.73,220.7,298.86,220.53,298.05M221.28,297.3c0-0.08-0.07-0.75,0.04-0.75c0.29,0,0.98-0.22,1.21,0c0.1,0.1,0.02,0.52,0,0.64C222.49,297.41,221.5,297.3,221.28,297.3M236.78,297.05c-1.96,0.01-3.23-3.6-3.76-5.07c-2.27-6.36-3.01-13.09-1.24-19.69c1.59-5.91,4.47-12.98,10.29-15.93c1.31-0.67,3.03-1.72,4.56-1.49c1.15,0.17,1.55,3.59,0.64,4.05c-0.94,0.49-2.03,0.4-2.94,0.86c-2.16,1.08-3.86,2.36-5.31,4.3c-2.93,3.92-4.83,9.56-4.92,14.44c-0.1,5.29,1.9,10.31,4.11,15.01C238.65,294.48,237.15,296.26,236.78,297.05M214.53,295.8c0.55-0.25,1.04-0.29,1.63-0.18c0.51,0.1,1.29-0.01,1.12,0.68C216.45,296.3,215.13,296.49,214.53,295.8M220.78,294.8c0.64,0,1.22,0.13,1.75,0.5C222.07,295.98,220.76,295.66,220.78,294.8M255.78,295.3c0.48-0.76,1.13-1.58,1.25-2.5C256.24,292.95,255.12,294.6,255.78,295.3M215.03,294.05c0.84,0,3.29-0.15,3.5,1C217.74,295.04,215.18,295.23,215.03,294.05M215.78,293.3c0-0.73-0.03-0.8,0.78-0.73c0.89,0.08,1.76,0.35,2.66,0.41c0.79,0.05,2.85,0.02,3.06,1.07c-1.09,0-2.17-0.06-3.25-0.23C217.97,293.66,216.86,293.11,215.78,293.3M249.53,290.8c0.98-0.24,1.08,0.82,1.87,0.87c0.39,0.02,0.61-0.04,0.93-0.24c0.55-0.35-0.89-1.21-0.69-1.67c0.4-0.91,1.48-1.74,1.64-2.7c-0.29,0-0.64,0.11-0.92-0.01c-0.23-0.1-0.08-1.5-0.08-1.74c-0.4,0.08-0.68,0.4-1.02,0.59c-0.55,0.31-0.84,0.23-1.48,0.16c0,1.24,0.25,2.49,0.25,3.75c-0.43-0.13-0.89-0.04-1.34-0.02c-0.27,0.02-0.16,0.87-0.07,1c0.38,0.55,0.74-0.08,0.52,0.82c-0.12,0.46-0.09,0.97-0.11,1.45C250.38,292.73,250.32,291.72,249.53,290.8M216.78,291.8c0.53-0.78,1.79-0.43,2.54-0.3c0.79,0.13,2.17,0.11,2.46,1.05C220.3,292.51,218.11,292.52,216.78,291.8M214.53,292.05c0.26-1.61,1.41-3.2,2.18-4.6c1-1.82,1.92-3.68,2.81-5.56c1.76-3.71,3.47-7.44,5.22-11.16c1.76-3.74,3.77-7.32,5.38-11.14c0.79-1.86,1.59-3.71,2.32-5.6c0.49-1.26,0.73-3.46,1.92-4.28c0.95-0.65,1.93-1.28,2.88-1.94c0.76-0.53,1.87-1.83,2.79-1.96c-0.26,1.91-1.48,3.94-2.28,5.67c-1.02,2.21-2.07,4.41-3.16,6.59c-2.17,4.35-4.46,8.63-6.67,12.96c-2.19,4.28-4.55,8.48-6.9,12.67c-0.97,1.73-1.97,3.46-3.01,5.15C217.23,290.13,216.15,291.81,214.53,292.05M214.53,285.3c-0.24-1.28-1.69-0.68-2.41-1.37c-0.68-0.65-0.92-2.19-0.61-3.04c0.42-1.17,0.94-1.9,2.02-2.54c0.95-0.56,2.06-0.02,2.99-0.51c0.61-0.31-1.63-1.02-1.82-1.15c-0.94-0.66-1.14-2.29-0.64-3.28c0.25-0.49,0.39-1,0.85-1.31c0.43-0.29,1.01-0.88,1.53-0.95c1.15-0.14,2.01,0.08,3.09,0.4c0.09-0.32,0.5-1.23,0.04-1.27c-0.67-0.06-1.47,0-2.07-0.31c-1.33-0.69-1.46-1.93-1.22-3.29c0.25-1.42,1.48-2.07,2.64-2.58c1.11-0.49,2.49,0.47,3.61,0.45c-0.01-1.39-1.86-0.96-2.73-1.62c-1.25-0.94-0.98-2.31-0.75-3.64c0.08-0.46,0.63-1.12,0.99-1.41c0.46-0.35,1.21-0.83,1.8-0.83c1.14,0,2.61,0.57,3.69,0.25c-0.44-1.24-2-0.63-2.51-1.58c-0.51-0.93,1.54-1.43,2.07-1.59c1.19-0.35,2.38-0.76,3.52-1.24c1.33-0.56,2.68-1.83,4.17-1.84c-0.42,3.32-2.33,6.62-3.76,9.6c-1.6,3.33-3.16,6.69-4.71,10.04c-1.5,3.26-3.25,6.39-4.77,9.65c-0.8,1.71-1.59,3.42-2.44,5.11c-0.81,1.6-1.82,3.03-2.72,4.56c-0.63,1.07-1.05,1.47-2.3,1.54c-0.82,0.04-2.37-0.1-2.79-0.89c-0.55-1.05-0.45-2.01-0.01-3.1c0.42-1.05,1.18-1.93,2.25-2.38C212.57,284.73,213.49,285.3,214.53,285.3M257.28,291.05c0.4-0.59,1.17-1.78,1-2.5c-0.8,0.47-1.37,1.61-1.5,2.5C256.94,291.05,257.13,291.08,257.28,291.05M214.03,265.05c-0.33,0.49-1.65,1.75-1.58,2.38c0.02,0.13,0.33,0.39,0.32,0.41c-0.68,2.15-1.4,4.29-2.02,6.46c-0.39,1.36-0.58,3.74-1.97,4.52c-0.15-0.85-0.23-1.63-0.25-2.5c-0.92,1.79,0.73,3.97-0.59,5.8c-0.67,0.92-1.27,1.74-2.09,2.52c-0.51,0.48-1.73,1.46-1.54,2.29c0.25,1.07,0.91,3.14-0.78,3.39c0.19-0.78,0.12-1.32,0.02-2.12c-0.06-0.49-0.77-1.12-1.25-0.98c-0.61,0.18-1.58,0.23-1.89,0.89c-0.3,0.64-0.61,1.24-0.63,1.96c-0.96-0.23-0.78-1.96-0.34-2.55c0.35-0.47,0.67-0.94,0.99-1.43c0.5-0.76-0.01-2.79-0.08-3.63c-0.13-1.54-0.5-2.86,0.46-4.22c0.63-0.9,1.53-1.58,2.28-2.4c0.68-0.75,1.26-1.48,1.26-2.54c0-1.42,0.27-2.42,1.27-3.49c0.91-0.97,0.46-1.96,0.18-3.1c-0.14-0.57-0.57-1.92-0.01-2.39c0.64-0.54,1.33,1.62,1.25,2c0.39-0.71,0.02-1.51,0-2.25c0.35,0.05,0.96,0.02,1.19,0.35c0.3,0.42-0.2,1.23,0.32,1.59c0.37,0.27,1.1,0.12,1.31-0.3c0.36-0.72,0.22-0.64,1.18-0.64c-0.32,1.11-1.61,2.42-2.57,3.04c-0.37,0.24-0.42,0.24-0.6-0.13c-0.2-0.41-0.33-0.96-0.33-1.41c-0.48,0.91,0.1,2.07,0.25,3c1.29-0.69,1.98-2.08,3.1-2.98c1.12-0.91,2.09-2.19,1.93-3.71c-0.15-1.5-0.7-2.98-0.78-4.48c-0.03-0.51-0.37-1.67,0.42-1.56c0.53,0.08,0.62,0.02,0.87,0.49c0.19,0.35,0.2,0.59,0.2,0.99c0.38-0.82,0.17-1.74,1.26-2c1.41-0.34,1.49,0.13,1.49,1.25c0.46-0.87,1.08-1.89,2.25-1.71c0.54,0.08,0.79,0.07,0.62,0.65c-0.76,2.57-1.86,5.03-2.71,7.57c-0.98,2.95-1.92,5.92-2.95,8.85c-1.02,2.93-2.09,5.84-3.04,8.79c-0.86,2.69-1.53,5.49-2.65,8.09c-0.15,0.35-0.63,1.09-1.04,1.14c-0.5,0.06-0.71-0.91-0.65-1.27c0.35-1.97,1.28-3.98,1.91-5.89c0.66-2.01,1.31-3.99,1.92-6.01c0.65-2.16,1.36-4.3,2.06-6.44C212.68,269.31,213.77,267.16,214.03,265.05M238.28,290.55c0.35-0.54,1.14-0.38,1.25,0.25C239.1,290.8,238.66,290.74,238.28,290.55M218.03,290.55c0.48-0.83,2.04-0.78,2.25,0.25C219.5,290.78,218.8,290.69,218.03,290.55M205.03,290.3c0.03-0.61,0.04-1.23,0.01-1.84c-0.02-0.54-0.37-1.25-0.1-1.77c0.5-0.96,1.29-2.64,2.59-2.64c-0.16,1.3-0.81,2.45-1.2,3.69C206.06,288.57,205.83,289.78,205.03,290.3M197.28,290.05c-0.01-0.88,0.24-1.67,0.5-2.5c0.44,0.64,0.25,1.73,0.25,2.46C198.03,290.08,197.39,290.05,197.28,290.05M195.28,290.05c-0.67-1.25,0.07-2.9,0.45-4.13c0.58-1.86,0.94-3.78,1.48-5.65c0.53-1.81,1.34-7.49,3.82-7.97c0.13,0.6-0.2,1.26-0.39,1.8c-0.3,0.86-0.49,1.76-0.72,2.64c-0.54,1.93-1.21,3.83-1.73,5.77c-0.42,1.58-0.77,3.19-1.16,4.78C196.8,288.19,196.43,289.88,195.28,290.05M202.03,289.8c0.06-0.38,0.26-1.37-0.39-1.37c-0.57,0-0.46,1.03-0.36,1.37c-0.42-0.1-0.61-0.59-0.54-1c0.19-1.17,2.21-1.31,2.18,0C202.9,289.36,202.66,289.91,202.03,289.8M190.28,289.55c-0.01-1.3,0.88-2.47,1.58-3.51c0.73-1.08,1.98-1.87,2.61-0.24c0.46,1.2-0.05,2.63-0.7,3.61C193.13,290.38,191.12,289.4,190.28,289.55M237.78,288.55c0.72,0.07,1.63-0.02,2,0.75C239.18,289.23,237.95,289.36,237.78,288.55M240.28,288.3c-1.16-1.75,0.46-3.89,1.33-5.38c1.32-2.27,2.45-5.1,3.17-7.62c0.62,0.68,0.03,1.99-0.24,2.7c-0.48,1.25-0.65,2.59-1.13,3.84c-0.5,1.32-1,2.66-1.44,4.01C241.68,286.7,241.36,288.13,240.28,288.3M237.28,286.8c0.64,0,1.22,0.13,1.75,0.5C238.57,287.9,237.38,287.53,237.28,286.8M258.28,287.3c0.43-0.64,0.9-1.47,1-2.25C258.73,285.36,257.46,286.73,258.28,287.3M198.03,287.3c0.05-1.17,0.2-3.49,1.25-4.25C200.42,284.65,199.43,286.31,198.03,287.3M237.78,286.05C237.63,284.88,240.73,286.05,237.78,286.05M206.53,274.8c-1.21,0.14-2.08,1.31-2.93,2.06c-0.77,0.68-1.78,1.45-2.16,2.44c-0.37,0.96,0.01,2.13,0.22,3.09c0.27,1.21,0.35,2.46,0.63,3.66c1.01-0.16,1.77-1.07,2.46-1.75c0.88-0.85,1.8-1.7,2.42-2.77c0.52-0.91,0.14-2.02-0.05-2.96C206.88,277.34,206.56,276.05,206.53,274.8M202.28,281.05c1.4-0.19,0.07,1.32,0.65,1.88c0.28,0.26,0.93,0.09,1.09-0.22c0.2-0.4,0.29-0.7,0.26-1.15c1.7,0.38-0.15,2.79-1.1,2.92c-0.37,0.05-0.59,0.18-0.7-0.22C202.21,283.33,201.81,281.96,202.28,281.05M237.78,284.3c0.06-0.33-0.1-0.64-0.09-0.97c0.02-0.68-0.02-0.75,0.48-1.19c0.97-0.85,2.07-1.47,2.92-2.46c0.75-0.88,1.35-1.88,1.94-2.88c0.26,0.67-0.39,1.43-0.58,2.04c-0.27,0.86-0.59,1.7-0.97,2.52C240.86,282.73,239.39,284.35,237.78,284.3M225.78,284.3c-0.66-0.38-1.4-0.9-1.98-1.4c-0.9-0.78-0.65-1.44-0.11-2.39c0.53-0.94,1.1-1.85,1.53-2.84c0.26-0.61,0.59-1.44,1.31-1.62c-0.03,1.59-0.08,3.23-0.27,4.81C226.16,281.75,226.36,283.56,225.78,284.3M259.03,284.05c0.21-0.64,0.56-1.31,0.5-2c-0.56,0.48-0.98,1.25-1,2C258.69,284.05,258.88,284.08,259.03,284.05M194.03,283.3c0.24-1.55,1.64-3.22,2.5-4.5c0.47,0.72-0.37,2.08-0.66,2.74C195.51,282.32,194.88,283.02,194.03,283.3M235.78,280.55c0.62,0.03,1.85-0.13,2.25,0.5C237.29,281.43,236.21,281.33,235.78,280.55M259.78,281.05c0.13-0.75,0.57-1.46,0.5-2.25c-0.39,0.24-0.83,0.07-1.25,0c-0.38-0.06-1.35-0.09-1,0.63c0.24,0.49,1.04,0.12,1.25,0.36C259.69,280.29,258.72,281.2,259.78,281.05M204.03,280.55c-0.57-0.34-0.14-1.33,0.5-1C205.2,279.9,204.65,280.66,204.03,280.55M202.53,280.3C202.25,278.91,203.91,280.57,202.53,280.3M238.28,280.05c0.25-0.41,0.47-0.77,1-0.5C239.05,279.87,238.67,280.05,238.28,280.05M206.28,280.05c-0.29-0.46-0.8-1.76-1.3-1.95c-0.73-0.28-1.44,0.82-2.2,0.45c0.3-0.53,2.39-3.25,3.25-2.75C206.69,276.17,206.66,279.57,206.28,280.05M235.78,279.05c0.36-0.08,0.71,0.14,0.75,0.5C236.23,279.44,235.99,279.31,235.78,279.05M204.53,279.3c0.03-0.42,0.05-0.84,0.5-1C205.02,278.69,204.86,279.07,204.53,279.3M260.28,278.55c0.15-0.97,0.29-1.98,0.5-2.94c0.17-0.75,0.6-1.52,0.5-2.31c-0.62,0.37-1.07,1.33-1.25,2c-0.47-0.3-0.97-0.58-1.5-0.75C258.56,275.45,259.32,278.16,260.28,278.55M238.03,278.05c0.17-1.04,1.16-1.71,1.93-2.29c0.81-0.61,1.51-1.78,2.57-1.96c-0.28,1.03-0.96,2.05-1.66,2.84C240.24,277.36,239.1,278.63,238.03,278.05M236.03,278.05c-0.08-0.39,0.37-0.88,0.75-0.5C237.33,278.01,236.13,278.05,236.03,278.05M236.03,276.3c0.23-0.18,0.47-0.22,0.75-0.25c0.54-0.05,0.85-0.12,0.75,0.5C237.02,276.54,236.49,276.55,236.03,276.3M208.28,276.3c0.79-1.03,1.54-1.81,2.19-2.97c0.24-0.42-0.03-1.32-0.06-1.79c-0.05-0.71-0.04-1.32,0.35-1.94c0.38-0.62,0.96-1.13,1.28-1.79c-0.59,0.29-1.41,0.98-1.75,1.53c-0.23,0.37-0.6,0.77-0.62,1.22c-0.02,0.4,0.26,0.85,0.29,1.25c0.05,0.81-0.01,1.82-0.58,2.46C208.96,274.71,207.81,275.57,208.28,276.3M201.03,276.05c0.33-2.08,1.15-4.05,1.69-6.08c0.35-1.32,0.74-3.2,2.06-3.92c0.3,0.9,0.76,1.98,0.28,2.89c-0.41,0.78-1.32,1.6-1.4,2.51c-0.09,1.03,0.16,2.03-0.38,2.92C202.84,275.11,201.94,276.03,201.03,276.05M237.53,275.3c-0.06-0.6,1.38-0.9,1.75-0.5C239.92,275.48,237.75,275.3,237.53,275.3M236.28,274.55c0.35,0.05,0.69,0.07,1,0.25C236.94,275.11,236.44,274.96,236.28,274.55M207.78,274.4c0.85-0.42,1.43-1.32,1.17-2.34c-0.16-0.59-1.38-1.73-2.02-1.28c-0.79,0.56-1.67,1.13-1.33,2.28C205.93,274.15,206.69,274.64,207.78,274.4M244.78,274.05c-0.33-0.5-0.57-1.04-0.67-1.63c-0.07-0.46,0.09-1.84,0.84-1.47c0.3,0.14,0.83,0.24,0.85,0.59c0.03,0.42,0.05,0.77-0.01,1.18C245.7,273.3,245.46,274.18,244.78,274.05M238.28,273.8c-0.06-2,2.01-1.13,3.25-1.5C241.27,273.69,239.36,273.77,238.28,273.8M207.78,273.3c-0.01-0.6-0.42-1.12-1-1.25c-0.01,0.63,0.27,1.18,0.5,1.75c-0.6,0-0.95-0.42-1.15-0.94c-0.06-0.16,0.52-1.36,0.69-1.44c0.4-0.2,1.17,0.63,1.49,0.86C208.69,272.56,208.04,273.23,207.78,273.3M236.53,273.05c0.36-0.08,0.71,0.14,0.75,0.5C236.98,273.44,236.74,273.31,236.53,273.05M236.78,272.05C236.63,270.88,239.73,272.05,236.78,272.05M261.28,271.8c0.25-0.49,0.38-0.97,0.5-1.5C261.32,270.56,260.92,271.32,261.28,271.8M237.28,270.05c0.89,0,1.63,0.08,2.5,0.25C239.21,270.85,237.48,271.05,237.28,270.05M243.28,267.55c0.71,0.15,0.85,2.17,1.5,1.75c0.19-0.12,0.41-0.84,0.59-1.05c0.33-0.4,0.64-0.61,1.16-0.7c-0.11,1.18,0.06,2.63-1.5,2.58c-0.65-0.02-1.2-0.53-1.72-0.85C243.09,269.14,243.2,267.83,243.28,267.55M237.78,269.05c0.59-0.95,4.07-0.38,4.25,0.75C240.72,269.76,238.98,269.66,237.78,269.05M261.78,268.55c0.1-0.37,0.33-0.87,0.25-1.25C261.68,267.56,261.5,268.19,261.78,268.55M238.53,267.05c0.83,0,3.26,0.04,3.25,1.25C240.98,268.28,238.49,268.28,238.53,267.05M239.28,266.55c0-0.25,0-0.5,0-0.75c1.02,0.08,2.08,0.01,3,0.5C241.6,267.23,240.21,266.48,239.28,266.55M245.53,266.3c0-1.23,0.29-2.54,0.5-3.75c0.37,0.44,0.27,1.11,0.2,1.64C246.13,264.83,246.16,265.89,245.53,266.3M244.28,266.3c-0.6-1.09,0.21-3.14,0.5-4.25c0.42,0.51,0.24,1.34,0.19,1.95C244.91,264.76,244.99,265.81,244.28,266.3M208.78,265.8c0.01-0.12,0.56-1.21,0.74-0.69C209.66,265.52,209.12,265.86,208.78,265.8M240.03,264.8c0.31-0.48,0.88-0.43,1.38-0.37c0.27,0.04,0.55,0.09,0.83,0.1c0.46,0.02,0.29,0.34,0.29,0.76C241.64,265.26,240.8,265.31,240.03,264.8M214.28,265.05c0.26-1.74,1.87-3.97,1.5-5.75c-0.46,0.34-0.67,1.2-0.75,1.75c-0.25-0.12-0.58-0.17-0.5-0.5c-0.49,0.61-0.15,1.6-0.22,2.31C214.25,263.49,213.84,264.47,214.28,265.05M211.78,264.05c-0.04-0.92-0.7-2.52-1.45-2.97c-0.58-0.35-1.01,0.24-1.42,0.56c-0.46,0.35-1.09,0.31-1.63,0.41c0.12-0.81,0.84-1.29,1.41-1.78c0.68-0.59,1.27-1.9,2.19-2.12c0.44-0.1,0.39-0.1,0.56,0.31C211.74,259.16,212.98,264.2,211.78,264.05M210.53,264.05c0.06-0.13,0.35-0.91,0.57-0.69C211.49,263.76,210.99,264.15,210.53,264.05M241.03,263.05c0.66,0,2.12-0.17,2.25,0.75C242.62,263.8,241.17,263.96,241.03,263.05M209.03,263.55c-0.17-0.7,0.49-0.67,1-0.75c0,0.33,0,0.67,0,1C209.68,263.74,209.34,263.73,209.03,263.55M208.03,263.55c-0.46-0.29-0.28-0.94,0.25-1C208.32,262.91,208.25,263.24,208.03,263.55M242.28,262.3c0.37-0.31,0.79-0.49,1.25-0.25C243.18,262.33,242.72,262.29,242.28,262.3M209.53,262.05c-0.1-0.52,0.17-0.75,0.67-0.75c0.31,0,0.3,0.81,0.33,1C210.18,262.24,209.84,262.23,209.53,262.05M214.28,260.05c0-0.6-0.13-1.16-0.25-1.75C213.72,258.72,213.93,259.68,214.28,260.05M216.03,259.05c0.08-0.45,0.34-1.05,0.25-1.5C215.92,257.9,215.71,258.63,216.03,259.05M209.53,258.55c0.14-0.72,0.74-1.6,1.5-1.75C210.71,257.48,210.16,258.14,209.53,258.55M211.53,255.55c0.25-1.7,1.81-2.11,3.29-2.21c2.22-0.15,4.3-0.58,6.46-1.11c4.79-1.18,9.92-3.38,13.77-6.49c3.47-2.79,6.11-6.68,7.61-10.87c1.54-4.33,1.84-8.39,0.02-12.69c-1.17-2.75-3.67-4.64-5.72-6.69c-0.35-0.33-0.07-0.44,0.1-0.69c0.65-0.93,1.65-0.65,2.47-0.09c1.71,1.17,3.63,2.75,4.63,4.62c1.09,2.05,1.79,3.89,2.21,6.17c0.82,4.43-0.55,9.05-2.41,13.04c-2.73,5.86-7.6,10.39-13.67,12.65c-1.48,0.55-2.67,1.62-4.18,2.11c-1.6,0.52-3.26,0.96-4.9,1.36c-1.65,0.41-3.33,0.72-5.02,0.97C214.88,255.81,212.76,256.21,211.53,255.55M238.53,252.05c-0.01-1.24,0.7-2.36,1.19-3.46c0.62-1.4,1.21-2.81,1.79-4.23c0.47-1.18,1.11-2.28,1.72-3.39c0.71-1.29,1.27-2.67,2.05-3.92c1.19,0.74,1.57,3.04,1.88,4.27c0.22,0.88,0.35,1.75,0.37,2.65c0.03,0.98,0.31,2.06,0.07,3.02c-0.26,1.02-3.18,1.17-3.99,1.52C241.74,249.34,240.13,250.79,238.53,252.05M221.78,239.05c0.54-0.64,1.92-1.37,2.75-1.5C224.01,238.54,222.86,239.07,221.78,239.05M239.03,233.05c0-2.1,1-4.11,1-6.25c1.31,0.26,0.77,2.28,0.75,3.21C240.76,231.14,240.35,232.78,239.03,233.05M235.03,232.55c0.17-0.93,1.08-1.48,1.74-2.06c0.71-0.63,1.28-1.69,2.26-1.94c0.16,1.01-0.94,1.92-1.59,2.51C236.78,231.68,235.96,232.4,235.03,232.55M232.03,223.05c0.16-1.07,0.86-2.02,1.46-2.88c0.7-1,1.26-2.15,2.05-3.08c0.58-0.68,1.31-0.59,2.04-0.17c1.48,0.86,2.45,2.28,3.53,3.57c0.88,1.04,1.78,2.64,1.67,4.05c-1.89-0.23-3.54-1.29-5.34-1.84c-0.87-0.26-1.77-0.43-2.68-0.31C233.83,222.51,232.98,223,232.03,223.05"/></g><g id="spade"><path d="M3.92-7.93c-1.67,0-2.55,1.78-3.01,3.56c-0.46,1.78-0.5,3.56-0.5,3.56L-0.44-0.8c0,0-0.16-7.13-3.5-7.13H3.92z"/><path d="M6.75-0.8C6.74,2.67,1.53,5.19,0,7.93C-1.53,5.18-6.74,2.66-6.75-0.8c0-1.64,1.51-2.97,3.38-2.97C-1.51-3.77,0-2.44,0-0.8c0-1.64,1.51-2.97,3.38-2.97S6.75-2.44,6.75-0.8z"/></g></defs><g id="queen_spade" transform="translate(-1843.32,-729.412)"><use xlink:href="#base" x="1843.32" y="729.412" xlink:type="simple" xlink:show="embed" xlink:actuate="onLoad"></use><g fill="none" stroke="black" stroke-width="1"><path d="M 1851.32 554.295L1851.32 731.682"/><path d="M 1851.32 731.682L1983.6 731.682"/><path d="M 2002.9 675.382L2002.9 497.745"/><path d="M 2002.9 497.745L1870.62 497.745"/></g><g><use xlink:href="#spade" x="783.087" y="218.665" transform="scale(2.4) rotate(180,783.087,218.665)" xlink:type="simple" xlink:show="embed" xlink:actuate="onLoad"></use><rect x="1860.91" y="505.811" width="9.69257" height="37.968" fill="white"/></g><g><use xlink:href="#spade" x="822.84" y="293.647" transform="scale(2.4)" xlink:type="simple" xlink:show="embed" xlink:actuate="onLoad"></use><rect x="1984.07" y="685.77" width="9.69257" height="37.968" fill="white"/></g><g transform="rotate(-1.80,1927.11,614.714)"><line x1="1881" y1="681.617" x2="1973.22" y2="547.811" stroke="black" stroke-width="7.25"/><circle cx="1883.42" cy="678.558" r="2.2" fill="white"/><circle cx="1883.42" cy="678.558" r=".7" fill="black"/><circle cx="1886.79" cy="673.663" r="2.2" fill="white"/><circle cx="1886.79" cy="673.663" r=".7" fill="black"/><circle cx="1890.17" cy="668.769" r="2.2" fill="white"/><circle cx="1890.17" cy="668.769" r=".7" fill="black"/><circle cx="1893.54" cy="663.874" r="2.2" fill="white"/><circle cx="1893.54" cy="663.874" r=".7" fill="black"/><circle cx="1896.91" cy="658.979" r="2.2" fill="white"/><circle cx="1896.91" cy="658.979" r=".7" fill="black"/><circle cx="1900.29" cy="654.084" r="2.2" fill="white"/><circle cx="1900.29" cy="654.084" r=".7" fill="black"/><circle cx="1903.66" cy="649.19" r="2.2" fill="white"/><circle cx="1903.66" cy="649.19" r=".7" fill="black"/><circle cx="1907.04" cy="644.295" r="2.2" fill="white"/><circle cx="1907.04" cy="644.295" r=".7" fill="black"/><circle cx="1910.41" cy="639.4" r="2.2" fill="white"/><circle cx="1910.41" cy="639.4" r=".7" fill="black"/><circle cx="1913.78" cy="634.505" r="2.2" fill="white"/><circle cx="1913.78" cy="634.505" r=".7" fill="black"/><circle cx="1917.16" cy="629.61" r="2.2" fill="white"/><circle cx="1917.16" cy="629.61" r=".7" fill="black"/><circle cx="1920.53" cy="624.716" r="2.2" fill="white"/><circle cx="1920.53" cy="624.716" r=".7" fill="black"/><circle cx="1923.9" cy="619.821" r="2.2" fill="white"/><circle cx="1923.9" cy="619.821" r=".7" fill="black"/><circle cx="1927.28" cy="614.926" r="2.2" fill="white"/><circle cx="1927.28" cy="614.926" r=".7" fill="black"/><circle cx="1930.65" cy="610.031" r="2.2" fill="white"/><circle cx="1930.65" cy="610.031" r=".7" fill="black"/><circle cx="1934.02" cy="605.137" r="2.2" fill="white"/><circle cx="1934.02" cy="605.137" r=".7" fill="black"/><circle cx="1937.4" cy="600.242" r="2.2" fill="white"/><circle cx="1937.4" cy="600.242" r=".7" fill="black"/><circle cx="1940.77" cy="595.347" r="2.2" fill="white"/><circle cx="1940.77" cy="595.347" r=".7" fill="black"/><circle cx="1944.14" cy="590.452" r="2.2" fill="white"/><circle cx="1944.14" cy="590.452" r=".7" fill="black"/><circle cx="1947.52" cy="585.557" r="2.2" fill="white"/><circle cx="1947.52" cy="585.557" r=".7" fill="black"/><circle cx="1950.89" cy="580.663" r="2.2" fill="white"/><circle cx="1950.89" cy="580.663" r=".7" fill="black"/><circle cx="1954.27" cy="575.768" r="2.2" fill="white"/><circle cx="1954.27" cy="575.768" r=".7" fill="black"/><circle cx="1957.64" cy="570.873" r="2.2" fill="white"/><circle cx="1957.64" cy="570.873" r=".7" fill="black"/><circle cx="1961.01" cy="565.978" r="2.2" fill="white"/><circle cx="1961.01" cy="565.978" r=".7" fill="black"/><circle cx="1964.39" cy="561.083" r="2.2" fill="white"/><circle cx="1964.39" cy="561.083" r=".7" fill="black"/><circle cx="1967.76" cy="556.189" r="2.2" fill="white"/><circle cx="1967.76" cy="556.189" r=".7" fill="black"/><circle cx="1971.13" cy="551.294" r="2.2" fill="white"/><circle cx="1971.13" cy="551.294" r=".7" fill="black"/></g><use xlink:href="#queen" x="1847.32" y="526.675" xlink:type="simple" xlink:show="embed" xlink:actuate="onLoad"></use><use xlink:href="#queen" x="2006.9" y="702.752" transform="rotate(180,2006.9,702.752)" xlink:type="simple" xlink:show="embed" xlink:actuate="onLoad"></use><use xlink:href="#spade" x="1856.97" y="544.295" transform="rotate(180,1856.97,544.295)" xlink:type="simple" xlink:show="embed" xlink:actuate="onLoad"></use><use xlink:href="#spade" x="1997.25" y="685.132" xlink:type="simple" xlink:show="embed" xlink:actuate="onLoad"></use><use xlink:href="#queen_2" transform="matrix(0.990000,0.000000,0.000000,0.990000,1731.085,347.6556)" id="use1581" x="0.0000000" y="0.0000000" width="2178.4751" height="1215.6875" xlink:type="simple" xlink:show="embed" xlink:actuate="onLoad"></use><use xlink:href="#queen_2" transform="matrix(-0.990000,0.000000,0.000000,-0.990000,2123.139,881.7019)" id="use1582" x="0.0000000" y="0.0000000" width="2178.4751" height="1215.6875" xlink:type="simple" xlink:show="embed" xlink:actuate="onLoad"></use></g></svg>